<svg xmlns="http://www.w3.org/2000/svg" xmlns:xlink="http://www.w3.org/1999/xlink" width="1082" height="1082" xmlns:v="https://vecta.io/nano"><style><![CDATA[.p{fill:#0f0}.q{fill:#4b25dc}.r{fill:#0096ff}.s{fill:#00beff}.t{fill:#fff}.u{fill:#fa34f3}.v{fill:#00c300}.w{fill:#cf15f9}]]></style><circle cx="541" cy="541" r="541" class="p"/><path d="M845.6 359.3h-14.4v14.4h21.6v7.2h7.2v14.4h-7.2v7.2h-28.7v-7.2h-7.2v-7.2h14.4v7.2h14.4v-14.4h-21.6v-7.2h-7.2v-14.4h7.2v-7.2h28.7v7.2h7.2v7.2h-14.4v-7.2zm54 0h-28.7v-7.2H914v14.4h-7.2v7.2h-7.2v7.2h-14.4v14.4H914v7.2h-43.1v-21.6h7.2v-7.2h7.2v-7.2h14.4v-7.2zm32.5 21.6v21.6h-7.2v-50.3h14.4v14.4h7.2V381h7.2v-28.7H968v50.3h-14.4v-7.2h-14.4V381h-7.1zM852 437.4h12.6v-12.6h50.3v12.6h12.6V450h-25.2v-12.6h-25.2v25.2h37.7v12.6h12.6v25.2h-12.6V513h-50.3v-12.6H852v-63zm25.2 62.9h25.2v-25.2h-25.2v25.2zm-699-64.7h9v27h-18v-27h-18v27h-18v-62.9h44.9v9h9v18h-9v8.9zm-9-27h-18v18h18v-18zm76.5-9v9h-27v18h27v9h-27v27h-18v-62.9h45zM398 952.4v7.2h-21.6v21.6H362v-50.3h36v7.2h7.2v14.4H398zm-7.1-14.3h-14.4v14.4h14.4v-14.4zm61.1 34.1v9h-35.9v-50.3h14.4v41.3H452zm25.3-5.4v14.4h-14.4v-43.1h7.2v-7.2h28.7v7.2h7.2v43.1h-14.4v-14.4h-14.3zm14.4-7.2V938h-14.4v21.6h14.4zm39.6 7.2v14.4h-14.4v-43.1h7.2v-7.2h28.7v7.2h7.2v43.1h-14.4v-14.4h-14.3zm14.3-7.2V938h-14.4v21.6h14.4zm54-7.2v-21.6H614v21.6h-7.2v7.2h-7.2v21.6h-14.4v-21.6H578v-7.2h-7.2v-21.6h14.4v21.6h14.4zm25.3 28.8v-50.3h35.9v7.2h-21.6v14.4h21.6v7.2h-21.6V974h21.6v7.2h-35.9zm82.7-21.6h7.2v21.6h-14.4v-21.6H686v21.6h-14.4v-50.3h35.9v7.2h7.2v14.4h-7.2v7.1zm-7.2-21.5H686v14.4h14.4v-14.4zm-271.1-49.3h5.4V905h-10.8v-16.2h-10.8V905h-10.8v-37.7h27v5.4h5.4v10.8h-5.4v5.3zm-5.4-16.2h-10.8v10.8h10.8v-10.8z"/><use xlink:href="#B"/><use xlink:href="#B" x="40.5"/><path d="M529.2 888.8V905h-5.4v-37.7h10.8V878h5.4v10.8h5.4v-21.6h10.8v37.7h-10.8v-5.4h-10.8v-10.8h-5.4zm45.9 16.1h-10.8v-37.7h10.8v16.2h5.4V878h5.4v-10.8h10.8V878h-5.4v5.4h-5.4v5.4h5.4v5.4h5.4V905h-10.8v-10.8h-5.4v-5.4h-5.4v16.1zm29.7 0v-37.7h27v5.4h-16.2v10.8h16.2v5.4h-16.2v10.8h16.2v5.4h-27zm35.1 0v-37.7h27v5.4h5.4v27h-5.4v5.4h-27zm21.6-32.3h-10.8v27h10.8v-27zm196.9-274V571h-27.6v-27.6h-27.6v-27.6h-27.6V405.4H748v-27.6h-27.6v-27.6h-27.6v-27.6h-27.6V212.2h-27.6v-27.6H610V157h-27.6v-27.6h-27.6v-27.6h-27.6v27.6h-27.6V157H472v27.6h-27.6v27.6h-27.6v110.4h-27.6v27.6h-27.6v27.6H334v27.6h-27.6v110.4h-27.6v27.6h-27.6V571h-27.6v27.6H196V709h27.6v27.6h27.6v27.6h27.6v27.6h27.6v27.6H334v-27.6h27.6v-27.6h27.6v-27.6h27.6V709h27.6v27.6H472v27.6h27.6v27.6h27.6v27.6h27.6v-27.6h27.6v-27.6H610v-27.6h27.6V709h27.6v27.6h27.6v27.6h27.6v27.6H748v27.6h27.6v-27.6h27.6v-27.6h27.6v-27.6h27.6V709H886V598.6h-27.6z"/><path d="M610 212.3v-27.6h-27.6v-27.6h-27.6v-27.6h-27.6v27.6h-27.6v27.6H472v27.6h-27.6v110.4H472v27.6h27.6v27.6h27.6v27.6h27.6v-27.6h27.6v-27.6H610v-27.6h27.6V212.3H610z" class="q"/><g class="r"><path d="M610 212.3v-27.6h-27.6v-27.6h-27.6v-27.6h-27.6v27.6h-27.6v27.6H472v27.6h-27.6v110.4H472v27.6h27.6v27.6h27.6v27.6h27.6v-27.6h27.6v-27.6h-27.6v-27.6h27.6V295H610v-27.6h27.6v-55.2H610z"/><path d="M610 295h27.6v27.6H610z"/><path d="M582.4 322.6H610v27.6h-27.6z"/></g><g class="s"><path d="M610 212.3v27.6h-27.6v27.6h55.2v-55.2H610zm-55.2-55.2h27.6v27.6h-27.6z"/><path d="M582.4 184.7H610v27.6h-27.6z"/><path d="M554.8 212.3h27.6v27.6h-27.6z"/></g><path d="M554.8 239.8V129.4h-27.6V157h-27.6v27.6H472v27.6h-27.6v110.4H472v27.6h27.6v27.6h27.6v27.6h27.6V295h27.6v-55.2h-27.6z" class="t"/><path d="M527.2 129.5v27.6h-27.6v27.6H472v27.6h-27.6v27.6h82.8v-27.6h27.6v-82.8h-27.6z" class="p"/><path d="M527.2 322.6V295h-27.6v-27.6h-55.2v55.2H472v27.6h27.6v27.6h27.6v27.6h27.6v-82.8h-27.6z" class="u"/><g class="v"><path d="M499.6 184.7h27.6v27.6h-27.6z"/><path d="M472 212.3h27.6v27.6H472z"/></g><g class="w"><path d="M444.4 267.4H472V295h-27.6zm55.2 55.2h27.6v27.6h-27.6z"/><path d="M472 295h27.6v27.6H472z"/></g><path d="M499.6 405.4v-27.6H472v-27.6h-27.6v-27.6h-27.6v27.6h-27.6v27.6h-27.6v27.6H334v110.4h27.6v27.6h27.6V571h27.6v27.6h27.6V571H472v-27.6h27.6v-27.6h27.6V405.4h-27.6z" class="q"/><g class="r"><path d="M499.6 405.4v-27.6H472v-27.6h-27.6v-27.6h-27.6v27.6h-27.6v27.6h-27.6v27.6H334v110.4h27.6v27.6h27.6V571h27.6v27.6h27.6V571H472v-27.6h-27.6v-27.6H472v-27.6h27.6v-27.6h27.6v-55.2h-27.6z"/><path d="M499.6 488.2h27.6v27.6h-27.6z"/><path d="M472 515.8h27.6v27.6H472z"/></g><g class="s"><path d="M499.6 405.4V433H472v27.6h55.2v-55.2h-27.6zm-55.2-55.2H472v27.6h-27.6z"/><path d="M472 377.8h27.6v27.6H472z"/><path d="M444.4 405.4H472V433h-27.6z"/></g><path d="M444.4 433V322.6h-27.6v27.6h-27.6v27.6h-27.6v27.6H334v110.4h27.6v27.6h27.6V571h27.6v27.6h27.6V488.2H472V433h-27.6z" class="t"/><path d="M416.8 322.6v27.6h-27.6v27.6h-27.6v27.6H334V433h82.8v-27.6h27.6v-82.8h-27.6z" class="p"/><path d="M416.8 515.8v-27.6h-27.6v-27.6H334v55.2h27.6v27.6h27.6V571h27.6v27.6h27.6v-82.8h-27.6z" class="u"/><g class="v"><path d="M389.2 377.8h27.6v27.6h-27.6z"/><path d="M361.6 405.4h27.6V433h-27.6z"/></g><g class="w"><path d="M334 460.6h27.6v27.6H334zm55.2 55.2h27.6v27.6h-27.6z"/><path d="M361.6 488.2h27.6v27.6h-27.6z"/></g><path d="M720.4 405.4v-27.6h-27.6v-27.6h-27.6v-27.6h-27.6v27.6H610v27.6h-27.6v27.6h-27.6v110.4h27.6v27.6H610V571h27.6v27.6h27.6V571h27.6v-27.6h27.6v-27.6H748V405.4h-27.6z" class="q"/><g class="r"><path d="M720.4 405.4v-27.6h-27.6v-27.6h-27.6v-27.6h-27.6v27.6H610v27.6h-27.6v27.6h-27.6v110.4h27.6v27.6H610V571h27.6v27.6h27.6V571h27.6v-27.6h-27.6v-27.6h27.6v-27.6h27.6v-27.6H748v-55.2h-27.6z"/><path d="M720.4 488.2H748v27.6h-27.6z"/><path d="M692.8 515.8h27.6v27.6h-27.6z"/></g><g class="s"><path d="M720.4 405.4V433h-27.6v27.6H748v-55.2h-27.6zm-55.2-55.2h27.6v27.6h-27.6z"/><path d="M692.8 377.8h27.6v27.6h-27.6z"/><path d="M665.2 405.4h27.6V433h-27.6z"/></g><path d="M665.2 433V322.6h-27.6v27.6H610v27.6h-27.6v27.6h-27.6v110.4h27.6v27.6H610V571h27.6v27.6h27.6V488.2h27.6V433h-27.6z" class="t"/><path d="M637.6 322.6v27.6H610v27.6h-27.6v27.6h-27.6V433h82.8v-27.6h27.6v-82.8h-27.6z" class="p"/><path d="M637.6 515.8v-27.6H610v-27.6h-55.2v55.2h27.6v27.6H610V571h27.6v27.6h27.6v-82.8h-27.6z" class="u"/><g class="v"><path d="M610 377.8h27.6v27.6H610z"/><path d="M582.4 405.4H610V433h-27.6z"/></g><g class="w"><path d="M554.8 460.6h27.6v27.6h-27.6zm55.2 55.2h27.6v27.6H610z"/><path d="M582.4 488.2H610v27.6h-27.6z"/></g><path d="M389.2 598.6V571h-27.6v-27.6H334v-27.6h-27.6v27.6h-27.6V571h-27.6v27.6h-27.6V709h27.6v27.6h27.6v27.6h27.6v27.6H334v-27.6h27.6v-27.6h27.6V709h27.6V598.6h-27.6z" class="q"/><g class="r"><path d="M389.2 598.6V571h-27.6v-27.6H334v-27.6h-27.6v27.6h-27.6V571h-27.6v27.6h-27.6V709h27.6v27.6h27.6v27.6h27.6v27.6H334v-27.6h27.6v-27.6H334V709h27.6v-27.6h27.6v-27.6h27.6v-55.2h-27.6z"/><path d="M389.2 681.4h27.6V709h-27.6z"/><path d="M361.6 709h27.6v27.6h-27.6z"/></g><g class="s"><path d="M389.2 598.6v27.6h-27.6v27.6h55.2v-55.2h-27.6zM334 543.4h27.6V571H334z"/><path d="M361.6 571h27.6v27.6h-27.6z"/><path d="M334 598.6h27.6v27.6H334z"/></g><path d="M334 626.2V515.8h-27.6v27.6h-27.6V571h-27.6v27.6h-27.6V709h27.6v27.6h27.6v27.6h27.6v27.6H334V681.4h27.6v-55.2H334z" class="t"/><path d="M306.4 515.8v27.6h-27.6V571h-27.6v27.6h-27.6v27.6h82.8v-27.6H334v-82.8h-27.6z" class="p"/><path d="M306.4 709v-27.6h-27.6v-27.6h-55.2V709h27.6v27.6h27.6v27.6h27.6v27.6H334V709h-27.6z" class="u"/><g class="v"><path d="M278.8 571h27.6v27.6h-27.6z"/><path d="M251.2 598.6h27.6v27.6h-27.6z"/></g><g class="w"><path d="M223.6 653.8h27.6v27.6h-27.6zm55.2 55.2h27.6v27.6h-27.6z"/><path d="M251.2 681.4h27.6V709h-27.6z"/></g><path d="M610 598.6V571h-27.6v-27.6h-27.6v-27.6h-27.6v27.6h-27.6V571H472v27.6h-27.6V709H472v27.6h27.6v27.6h27.6v27.6h27.6v-27.6h27.6v-27.6H610V709h27.6V598.6H610z" class="q"/><g class="r"><path d="M610 598.6V571h-27.6v-27.6h-27.6v-27.6h-27.6v27.6h-27.6V571H472v27.6h-27.6V709H472v27.6h27.6v27.6h27.6v27.6h27.6v-27.6h27.6v-27.6h-27.6V709h27.6v-27.6H610v-27.6h27.6v-55.2H610z"/><path d="M610 681.4h27.6V709H610z"/><path d="M582.4 709H610v27.6h-27.6z"/></g><g class="s"><path d="M610 598.6v27.6h-27.6v27.6h55.2v-55.2H610zm-55.2-55.2h27.6V571h-27.6z"/><path d="M582.4 571H610v27.6h-27.6z"/><path d="M554.8 598.6h27.6v27.6h-27.6z"/></g><path d="M554.8 626.2V515.8h-27.6v27.6h-27.6V571H472v27.6h-27.6V709H472v27.6h27.6v27.6h27.6v27.6h27.6V681.4h27.6v-55.2h-27.6z" class="t"/><path d="M527.2 515.8v27.6h-27.6V571H472v27.6h-27.6v27.6h82.8v-27.6h27.6v-82.8h-27.6z" class="p"/><path d="M527.2 709v-27.6h-27.6v-27.6h-55.2V709H472v27.6h27.6v27.6h27.6v27.6h27.6V709h-27.6z" class="u"/><g class="v"><path d="M499.6 571h27.6v27.6h-27.6z"/><path d="M472 598.6h27.6v27.6H472z"/></g><g class="w"><path d="M444.4 653.8H472v27.6h-27.6zm55.2 55.2h27.6v27.6h-27.6z"/><path d="M472 681.4h27.6V709H472z"/></g><path d="M830.8 598.6V571h-27.6v-27.6h-27.6v-27.6H748v27.6h-27.6V571h-27.6v27.6h-27.6V709h27.6v27.6h27.6v27.6H748v27.6h27.6v-27.6h27.6v-27.6h27.6V709h27.6V598.6h-27.6z" class="q"/><g class="r"><path d="M830.8 598.6V571h-27.6v-27.6h-27.6v-27.6H748v27.6h-27.6V571h-27.6v27.6h-27.6V709h27.6v27.6h27.6v27.6H748v27.6h27.6v-27.6h27.6v-27.6h-27.6V709h27.6v-27.6h27.6v-27.6h27.6v-55.2h-27.6z"/><path d="M830.8 681.4h27.6V709h-27.6z"/><path d="M803.2 709h27.6v27.6h-27.6z"/></g><g class="s"><path d="M830.8 598.6v27.6h-27.6v27.6h55.2v-55.2h-27.6zm-55.2-55.2h27.6V571h-27.6z"/><path d="M803.2 571h27.6v27.6h-27.6z"/><path d="M775.6 598.6h27.6v27.6h-27.6z"/></g><path d="M775.6 626.2V515.8H748v27.6h-27.6V571h-27.6v27.6h-27.6V709h27.6v27.6h27.6v27.6H748v27.6h27.6V681.4h27.6v-55.2h-27.6z" class="t"/><path d="M748 515.8v27.6h-27.6V571h-27.6v27.6h-27.6v27.6H748v-27.6h27.6v-82.8H748z" class="p"/><path d="M748 709v-27.6h-27.6v-27.6h-55.2V709h27.6v27.6h27.6v27.6H748v27.6h27.6V709H748z" class="u"/><g class="v"><path d="M720.4 571H748v27.6h-27.6z"/><path d="M692.8 598.6h27.6v27.6h-27.6z"/></g><g class="w"><path d="M665.2 653.8h27.6v27.6h-27.6zm55.2 55.2H748v27.6h-27.6z"/><path d="M692.8 681.4h27.6V709h-27.6z"/></g><defs ><path id="B" d="M453.6 894.2V905h-10.8v-32.3h5.4v-5.4h21.6v5.4h5.4V905h-10.8v-10.8h-10.8zm10.8-5.4v-16.2h-10.8v16.2h10.8z"/></defs></svg>