<svg xmlns="http://www.w3.org/2000/svg" width="1082" height="1082" xmlns:v="https://vecta.io/nano"><circle cx="541" cy="541" r="541" fill="#c689fa"/><path d="M116.6 445.4v8.1h-16.2V502H84.3v-48.5H68.1v-8.1h48.5zm20.3 48.6h-8.1v-40.4h8.1v-8.1h32.3v8.1h8.1V494h-8.1v8.1h-32.3V494zm24.3-40.5H145V494h16.2v-40.5zm68.8 16.2v8.1h-24.3V502h-16.2v-56.6H230v8.1h8.1v16.2H230zm-8.1-16.2h-16.2v16.2h16.2v-16.2zm233.6 496.3H442v13.5h20.2v6.7h6.7v13.5h-6.7v6.7h-27v-6.7h-6.7v-6.7H442v6.7h13.5V970h-20.2v-6.7h-6.7v-13.5h6.7v-6.7h27v6.7h6.7v6.7h-13.5v-6.7zm50.6 0h-27v-6.7h40.4v13.5h-6.7v6.7h-6.7v6.7h-13.5v13.5h27v6.7h-40.4V970h6.7v-6.7h6.7v-6.7h13.5v-6.8zm30.4 20.2v20.2h-6.7V943h13.5v13.5h6.7V970h6.7v-27h13.5v47.2h-13.5v-6.7h-13.5V970h-6.7zm74.3-20.2h6.7v-6.7h27v6.7h6.7v6.7h-13.5v-6.7h-13.5v13.5h20.2v6.7h6.7v13.5h-6.7v6.7h-27v-6.7h-6.7v-33.7zm13.5 33.7h13.5V970h-13.5v13.5zm-203.7-89.2h7.9v23.6h-15.7v-23.6H397v23.6h-15.7v-55h39.3v7.9h7.9v15.7h-7.9v7.8zm-7.8-23.6H397v15.7h15.7v-15.7zm43.3 31.5v15.7h-15.7v-47.2h7.9v-7.9h31.4v7.9h7.9v47.2h-15.7v-15.7h-15.8zm15.7-7.9v-23.6h-15.7v23.6h15.7zm66.9 0h7.9v23.6h-15.7v-23.6h-15.7v23.6h-15.7v-55h39.3v7.9h7.9v15.7h-7.9v7.8zm-7.8-23.6h-15.7v15.7h15.7v-15.7zm27.6 47.2v-55h15.7v55h-15.7zm74.8-55v7.9h-15.7V918h-15.7v-47.2h-15.7v-7.9h47.1zm43.3 23.6v-23.6h15.7v23.6h-7.9v7.9h-7.9V918h-15.7v-23.6H653v-7.9h-7.9v-23.6h15.7v23.6h15.8zm187.4-433v-8.1h16.2V502H864v-40.4h-8.1v-8.1h8.1zm36.5 40.5h-8.1v-40.4h8.1v-8.1h32.3v8.1h8.1V494h-8.1v8.1h-32.3V494zm24.3-40.5h-16.2V494h16.2v-40.5zm36.4 40.5h-8.1v-40.4h8.1v-8.1h32.3v8.1h8.1V494h-8.1v8.1h-32.3V494zm24.3-40.5h-16.2V494h16.2v-40.5zM858.4 598.6V571h-27.6v-27.6h-27.6v-27.6h-27.6V405.4H748v-27.6h-27.6v-27.6h-27.6v-27.6h-27.6V212.2h-27.6v-27.6H610V157h-27.6v-27.6h-27.6v-27.6h-27.6v27.6h-27.6V157H472v27.6h-27.6v27.6h-27.6v110.4h-27.6v27.6h-27.6v27.6H334v27.6h-27.6v110.4h-27.6v27.6h-27.6V571h-27.6v27.6H196V709h27.6v27.6h27.6v27.6h27.6v27.6h27.6v27.6H334v-27.6h27.6v-27.6h27.6v-27.6h27.6V709h27.6v27.6H472v27.6h27.6v27.6h27.6v27.6h27.6v-27.6h27.6v-27.6H610v-27.6h27.6V709h27.6v27.6h27.6v27.6h27.6v27.6H748v27.6h27.6v-27.6h27.6v-27.6h27.6v-27.6h27.6V709H886V598.6h-27.6z"/><g fill="#a08cff"><path d="M472 350.2h27.6v27.6h27.6v27.6h27.6v-27.6h27.6v-27.6H610v-27.6h27.6V212.2H610v-27.6h-27.6V157h-27.6v-27.6h-27.6V157h-27.6v27.6H472v27.6h-27.6v110.4H472v27.6z"/><path d="M472 571v-27.6h27.6v-27.6h27.6V405.4h-27.6v-27.6H472v-27.6h-27.6v-27.6h-27.6v27.6h-27.6v27.6h-27.6v27.6H334v110.4h27.6v27.6h27.6V571h27.6v27.6h27.6V571H472z"/><path d="M389.2 571h-27.6v-27.6H334v-27.6h-27.6v27.6h-27.6V571h-27.6v27.6h-27.6V709h27.6v27.6h27.6v27.6h27.6v27.6H334v-27.6h27.6v-27.6h27.6V709h27.6V598.6h-27.6V571zm220.8 0h-27.6v-27.6h-27.6v-27.6h-27.6v27.6h-27.6V571H472v27.6h-27.6V709H472v27.6h27.6v27.6h27.6v27.6h27.6v-27.6h27.6v-27.6H610V709h27.6V598.6H610V571zm220.8 27.6V571h-27.6v-27.6h-27.6v-27.6H748v27.6h-27.6V571h-27.6v27.6h-27.6V709h27.6v27.6h27.6v27.6H748v27.6h27.6v-27.6h27.6v-27.6h27.6V709h27.6V598.6h-27.6z"/><path d="M692.8 571v-27.6h27.6v-27.6H748V405.4h-27.6v-27.6h-27.6v-27.6h-27.6v-27.6h-27.6v27.6H610v27.6h-27.6v27.6h-27.6v110.4h27.6v27.6H610V571h27.6v27.6h27.6V571h27.6z"/></g><g fill="#ded7ff"><path d="M472 184.7h27.6v27.6H472z"/><path d="M444.4 212.3H472v27.6h-27.6zm55.2 0h27.6v27.6h-27.6z"/><path d="M527.2 212.3h27.6v-82.8h-27.6v27.6h-27.6v27.6h27.6v27.6zM361.6 377.8h27.6v27.6h-27.6z"/><path d="M334 405.4h27.6V433H334zm55.2 0h27.6V433h-27.6z"/><path d="M444.4 377.8v-55.2h-27.6v27.6h-27.6v27.6h27.6v27.6h27.6v-27.6zM251.2 571h27.6v27.6h-27.6z"/><path d="M223.6 598.6h27.6v27.6h-27.6zm55.2 0h27.6v27.6h-27.6z"/><path d="M306.4 543.4h-27.6V571h27.6v27.6H334v-82.8h-27.6v27.6zM472 571h27.6v27.6H472z"/><path d="M444.4 598.6H472v27.6h-27.6zm55.2 0h27.6v27.6h-27.6z"/><path d="M527.2 543.4h-27.6V571h27.6v27.6h27.6v-82.8h-27.6v27.6zM692.8 571h27.6v27.6h-27.6z"/><path d="M665.2 598.6h27.6v27.6h-27.6zm55.2 0H748v27.6h-27.6z"/><path d="M748 515.8v27.6h-27.6V571H748v27.6h27.6v-82.8H748zm-165.6-138H610v27.6h-27.6z"/><path d="M554.8 405.4h27.6V433h-27.6zm55.2 0h27.6V433H610z"/><path d="M665.2 377.8v-55.2h-27.6v27.6H610v27.6h27.6v27.6h27.6v-27.6z"/></g><g fill="#7a5fff"><path d="M444.4 267.4H472V295h-27.6zm110.4-82.7h27.6v27.6h-27.6zm-55.2 137.9h27.6v27.6h-27.6z"/><path d="M582.4 212.3H610v27.6h-27.6zm0 55.1V295h-27.6v82.8h27.6v-27.6H610v-27.6h27.6v-55.2h-55.2zM472 295h27.6v27.6H472zM334 460.6h27.6v27.6H334zm110.4-82.8H472v27.6h-27.6zm-55.2 138h27.6v27.6h-27.6z"/><path d="M472 405.4h27.6V433H472zm0 55.2v27.6h-27.6V571H472v-27.6h27.6v-27.6h27.6v-55.2H472zm-110.4 27.6h27.6v27.6h-27.6zm-138 165.6h27.6v27.6h-27.6zM334 571h27.6v27.6H334zm-55.2 138h27.6v27.6h-27.6z"/><path d="M361.6 598.6h27.6v27.6h-27.6zm0 55.2v27.6H334v82.8h27.6v-27.6h27.6V709h27.6v-55.2h-55.2zm-110.4 27.6h27.6V709h-27.6zm193.2-27.6H472v27.6h-27.6zM554.8 571h27.6v27.6h-27.6zm-55.2 138h27.6v27.6h-27.6z"/><path d="M582.4 598.6H610v27.6h-27.6zm0 55.2v27.6h-27.6v82.8h27.6v-27.6H610V709h27.6v-55.2h-55.2zM472 681.4h27.6V709H472zm193.2-27.6h27.6v27.6h-27.6zm138 0v27.6h-27.6v82.8h27.6v-27.6h27.6V709h27.6v-55.2h-55.2zM775.6 571h27.6v27.6h-27.6zm-55.2 138H748v27.6h-27.6z"/><path d="M803.2 598.6h27.6v27.6h-27.6zm-110.4 82.8h27.6V709h-27.6zm-138-220.8h27.6v27.6h-27.6zm110.4-82.8h27.6v27.6h-27.6zm-55.2 138h27.6v27.6H610z"/><path d="M692.8 405.4h27.6V433h-27.6zm0 55.2v27.6h-27.6V571h27.6v-27.6h27.6v-27.6H748v-55.2h-55.2zm-110.4 27.6H610v27.6h-27.6z"/></g><path d="M499.6 267.4V295h27.6v27.6h27.6V295h27.6v-55.2h-27.6v-27.6h-27.6v27.6h-82.8v27.6h55.2zm-55.2 248.4v-27.6H472V433h-27.6v-27.6h-27.6V433H334v27.6h55.2v27.6h27.6v27.6h27.6zM334 598.6h-27.6v27.6h-82.8v27.6h55.2v27.6h27.6V709H334v-27.6h27.6v-55.2H334v-27.6zm220.8 0h-27.6v27.6h-82.8v27.6h55.2v27.6h27.6V709h27.6v-27.6h27.6v-55.2h-27.6v-27.6zm220.8 27.6v-27.6H748v27.6h-82.8v27.6h55.2v27.6H748V709h27.6v-27.6h27.6v-55.2h-27.6zM665.2 515.8v-27.6h27.6V433h-27.6v-27.6h-27.6V433h-82.8v27.6H610v27.6h27.6v27.6h27.6z" fill="#f2efff"/><path d="M527.2 295h27.6v-55.2h-27.6V295zM416.8 488.2h27.6V433h-27.6v55.2zM306.4 681.4H334v-55.2h-27.6v55.2zm220.8 0h27.6v-55.2h-27.6v55.2zM748 626.2v55.2h27.6v-55.2H748zm-110.4-138h27.6V433h-27.6v55.2z" fill="#fff"/><g fill="#4b25dc"><path d="M610 267.4h27.6V295H610zm-55.2 55.2h27.6v27.6h-27.6z"/><path d="M582.4 295H610v27.6h-27.6zm-82.8 165.6h27.6v27.6h-27.6zm-55.2 55.2H472v27.6h-27.6z"/><path d="M472 488.2h27.6v27.6H472zm-82.8 165.6h27.6v27.6h-27.6zM334 709h27.6v27.6H334z"/><path d="M361.6 681.4h27.6V709h-27.6zM610 653.8h27.6v27.6H610zM554.8 709h27.6v27.6h-27.6z"/><path d="M582.4 681.4H610V709h-27.6zm248.4-27.6h27.6v27.6h-27.6zM775.6 709h27.6v27.6h-27.6z"/><path d="M803.2 681.4h27.6V709h-27.6zm-82.8-220.8H748v27.6h-27.6zm-55.2 55.2h27.6v27.6h-27.6z"/><path d="M692.8 488.2h27.6v27.6h-27.6z"/></g></svg>