<svg xmlns="http://www.w3.org/2000/svg" xmlns:xlink="http://www.w3.org/1999/xlink" viewBox="0 0 500 500"><circle cx="250" cy="250" r="189.2" fill="#f041f8"/><path d="M328.3 355.9v-5.6H317v5.6h11.3zm-145.4 0v-5.6h-11.3v5.6h11.3zm19.9-10h5v-10h-5v10z"/><path d="M197.9 336h-5v29.9h5v-15h5v-5h-5V336z"/><path d="M202.8 365.8h5v-15h-5v15zm10-24.9v24.9h5v-29.9h-5v5zm9.9-4.9v29.9h5V341h5v24.9h5V336h-15zm20 0v14.9h10v10h-10v5h15V346h-10v-5h10v-5h-15zm49.4 0v29.9h5V356h9.9v-19.9c-2.4-.1-14.9-.1-14.9-.1zm10 14.9h-5V341h5v9.9zm-29.6 0h-5V336h-5v29.9h5v-10h5v10h5V336h-5v14.9zm10 14.9h5v-29.9h-5v29.9zm-87.2 12.1v5h-2.5v-5h2.5zm-2.4 12.5h10v2.5h-10v-2.5zm12.4-12.5h-10v-2.5h10v2.5zm-10 7.5v-2.5h7.5v2.5h-7.5zm7.6 5v-5h2.5v5h-2.5zm7.4-12.5v5h10v2.5h-10v5h10v2.5h-12.5v-17.5h12.5v2.5h-10zm25 0v15h-2.5v-7.5h-7.5v7.5h-2.5v-15h2.5v5h7.5v-5h2.5zm-2.5 0h-7.5v-2.5h7.5v2.5zm7.5 0v5h-2.5v-5h2.5zm-2.5 12.5h10v2.5h-10v-2.5zm12.5-12.5h-10v-2.5h10v2.5zm-10 7.5v-2.5h7.5v2.5h-7.5zm7.5 5v-5h2.5v5h-2.5zm7.5-12.5v12.5h-2.5v-12.5h2.5zm7.5 0h-7.5v-2.5h7.5v2.5zm-7.5 12.5h7.5v2.5h-7.5v-2.5zm10-12.5v12.5h-2.5v-12.5h2.5zm7.5 2.5v2.5h-2.5v10h-2.5v-17.5h2.5v5h2.5zm2.4 2.5v2.5h-2.5v-2.5h2.5zm5-7.5v17.5h-2.5v-5h-2.5v-2.5h2.5v-10h2.5zm22.5 0v2.5h-10v-2.5h10zm-7.5 10v5h10v2.5h-12.5v-7.5h2.5zm7.5 0h-7.5v-2.5h7.5v2.5zm2.5-2.5h-2.5v-5h2.5v5zm43.2-176.7h6.3v31.4h6.3V200h-12.6v6.2h0z"/><use href="#B"/><path d="M392.3 206.2v31.4h18.8v-31.4c.1 0-15.6 0-18.8 0zm12.6 25.1h-6.2v-18.8h6.2v18.8z"/><use href="#B" x="-259.7"/><path d="M132.6 206.2v31.4h6.3V225h12.5v-18.8h-18.8 0zm6.3 12.5v-6.2h6.2v6.2h-6.2zm-53.4-6.2h6.3v25.1h6.3v-25.1h6.2v-6.3H85.5zm234.5 6.8v-60h-10v-10h-10v-10h-10v-10h-10v-10h-10v-10h-10v-10h-20v10h-10v10h-10v10h-10v10h-10v10h-10v10h-10v60h-20v40h10v10h-10v50h50v-10h10v10h60v-10h10v10h50v-50h-10v-10h10v-40h-20z"/><g fill="#7e18f8"><path d="M200 229.3h10v10h-10zm120 0v10h-10v10h-10v10h-10v10h-10v10h-10v10h-10v10h-20v-10h-10v-10h-10v-10h-10v-10h-10v-10h-10v-10h-10v-10h-10v30h10v10h10v10h10v10h10v10h10v10h60v-10h10v-10h10v-10h10v-10h10v-10h10v-30h-10zm-150 70h10v10h-10zm150 0h10v10h-10z"/><path d="M200 169.3h10v-10h10v-10h10v-10h10v-10h20v10h10v10h10v10h10v10h10v60h-10v10h20v-80h-10v-10h-10v-10h-10v-10h-10v-10h-10v-10h-20v10h-10v10h-10v10h-10v10h-10v10h-10v70h10v-60zm70 70h-10v-10h-20v10h-10v20h10v10h20v-10h10v-20z"/><path d="M230 229.3h10v-10h20v-10h-10v-10h10v10h10v10h10v10h10v-60h-10v-10h-10v-10h-10v-10h-20v10h-10v10h-10v10h-10v60h10v10h10v-10zm0 40h10v10h-10z"/><path d="M270 229.3h10v10h-10z"/><path d="M260 219.3h10v10h-10zm-40 30v-10h-10v20h10v-10z"/><path d="M290 239.3h-10v20h10v-20zm-70 20h10v10h-10zm40 10h10v10h-10z"/><path d="M250 279.3h-10v10h20v-10h-10zm20-20h10v10h-10zm-70 30h-10v-10h-10v-10h-10v20h10v10h10v10h20v-10h-10v-10zm110-10v10h-10v10h-10v10h20v-10h10v-10h10v-20h-10v10h-10z"/></g><path d="M210 229.3h10v10h-10z"/><g fill="#ac15f9"><path d="M270 159.3v30h10v-30h-10zm0 50v10h10v-20h-10v10zm-70 0h-10v20h10v-20z"/><path d="M200 229.3h10v10h-10z"/></g><g fill="#7e18f8"><path d="M190 229.3h10v10h-10zm90-50v10h-20v20h10v-10h10v30h10v-60h-10v10zm-30-70h10v10h-10z"/><path d="M260 119.3h10v10h-10z"/><path d="M270 129.3h10v10h-10z"/><path d="M280 139.3h10v10h-10z"/><path d="M290 149.3h10v10h-10z"/><path d="M300 159.3h10v10h-10zm0 50v30h10v-40h-10v10zm-50 50h10v10h-10z"/><path d="M260 249.3h10v10h-10z"/></g><g fill="#fa34f3"><path d="M260 139.3h-10v20h10v-20zm-40 50v10h10v-20h-10v10z"/><path d="M210 209.3v10h10v-20h-10v10zm20-40h10v10h-10z"/><path d="M240 159.3h10v10h-10zm20 10v10h-10v20h10v-10h10v-30h-10v10zm-20-60h10v10h-10z"/><path d="M230 119.3h10v10h-10z"/><path d="M220 129.3h10v10h-10z"/><path d="M210 139.3h10v10h-10z"/><path d="M200 149.3h10v10h-10z"/><path d="M190 159.3h10v10h-10zm100 70h10v10h-10zm30 0h10v10h-10zm-150 70h10v10h-10zm150 0h10v10h-10zm-150-70h10v10h-10zm80 10h-10v10h-10v10h20v-10h10v-20h-10v10z"/></g><g fill="#cf15f9"><path d="M250 169.3h-10v10h-10v20h-10v20h-10v10h20v-10h10v-10h10v-30h10v-20h-10v10z"/><path d="M260 149.3h10v10h-10zm-70 30v30h10v-40h-10v10zm60-60h-10v10h20v-10h-10z"/><path d="M260 129.3h10v10h-10z"/><path d="M270 139.3h10v10h-10z"/><path d="M280 149.3h10v10h-10z"/><path d="M290 159.3h10v10h-10z"/><path d="M300 169.3v30h10v-30h-10zm-70-40h10v10h-10z"/><path d="M220 139.3h10v10h-10z"/><path d="M210 149.3h10v10h-10z"/><path d="M200 159.3h10v10h-10zm50 90h10v10h-10z"/><path d="M240 259.3h10v10h-10zm20-20h10v10h-10z"/></g><path d="M240 139.3v10h-10v10h-10v10h-10v30h10v-20h10v-10h10v-10h10v-20h-10z" fill="#fab4f3"/><g fill="#ded7ff"><path d="M240 229.3h10v10h-10z"/><path d="M230 239.3h10v10h-10z"/></g><g fill="#e1e1e1"><path d="M260 289.3h10v10h-10z"/><path d="M270 279.3h10v10h-10z"/><path d="M280 269.3h10v10h-10z"/><path d="M290 259.3h10v10h-10z"/><path d="M300 249.3h10v10h-10z"/><path d="M310 239.3h10v10h-10zm-140 40h10v10h-10zm150 0h10v10h-10zm-90 10h10v10h-10z"/><path d="M220 279.3h10v10h-10z"/><path d="M210 269.3h10v10h-10z"/><path d="M200 259.3h10v10h-10z"/><path d="M190 249.3h10v10h-10zm50-40h10v10h-10z"/><path d="M230 219.3h10v10h-10zm-20 20h10v10h-10z"/><path d="M220 229.3h10v10h-10zm-40 10h10v10h-10z"/></g><g fill="#afafaf"><path d="M270 289.3h10v10h-10zm-30-10h10v10h-10z"/><path d="M280 279.3h10v10h-10zm30-30h10v10h-10z"/><path d="M320 239.3h10v10h-10zm-30 30h10v10h-10z"/><path d="M300 259.3h10v10h-10zm-120 30h10v10h-10z"/><path d="M190 299.3h10v10h-10zm120-10h10v10h-10z"/><path d="M300 299.3h10v10h-10zm-80-10h10v10h-10zm10-20h10v10h-10zm20-60h10v10h-10zm20 20h10v10h-10z"/><path d="M260 219.3h10v10h-10zm-50 30h10v10h-10z"/><path d="M280 239.3h10v10h-10zm-60 20h10v10h-10zm-10 20h10v10h-10zm-30-30h10v10h-10z"/><path d="M170 239.3h10v10h-10zm30 30h10v10h-10z"/><path d="M190 259.3h10v10h-10z"/></g><g fill="#7d7d7d"><path d="M260 299.3h-40v10h60v-10h-20zm0-30h10v10h-10z"/><path d="M250 279.3h10v10h-10zm20-20h10v10h-10zm10 30h10v10h-10zm30-30h10v10h-10z"/><path d="M320 249.3h10v10h-10zm-30 30h10v10h-10z"/><path d="M300 269.3h10v10h-10zm-120 10h10v10h-10z"/><path d="M170 269.3h10v10h-10zm30 30h10v10h-10z"/><path d="M190 289.3h10v10h-10zm120-10h10v10h-10z"/><path d="M320 269.3h10v10h-10zm-30 30h10v10h-10z"/><path d="M300 289.3h10v10h-10zm-20-40h10v10h-10zm-70 40h10v10h-10zm-30-30h10v10h-10z"/><path d="M170 249.3h10v10h-10zm30 30h10v10h-10z"/><path d="M190 269.3h10v10h-10z"/></g><path d="M260 99.3h-20v10h20v-10z"/><path d="M260 109.3h10v10h-10z"/><path d="M270 119.3h10v10h-10z"/><path d="M280 129.3h10v10h-10z"/><path d="M290 139.3h10v10h-10z"/><path d="M300 149.3h10v10h-10zm-70-40h10v10h-10z"/><path d="M220 119.3h10v10h-10z"/><path d="M210 129.3h10v10h-10z"/><path d="M200 139.3h10v10h-10z"/><path d="M190 149.3h10v10h-10zm110 20h-10v20 40h10v-60zm-100 60h10v-20-40h-10v60zm40-100v10h20v-10h-20z"/><path d="M230 139.3h10v10h-10zm30 0h10v10h-10z"/><path d="M270 149.3h10v10h-10z"/><path d="M280 159.3h10v10h-10zm-60-10h10v10h-10z"/><path d="M210 159.3h10v10h-10zm30 140h20v-10h-20v10zm0-20h20v-10h-20v10z"/><path d="M260 259.3h10v10h-10zm0-50h10v10h-10zm20 20h10v10h-10z"/><path d="M290 259.3h10v-10h10v-10h-20v20zm-20-40h10v10h-10zm50 40h10v10h-10z"/><path d="M320 239.3v-10h10v30h10v-40h-20v-60h-10v80h10zm-40 20h10v10h-10z"/><path d="M270 269.3h10v10h-10z"/><path d="M260 279.3h10v10h-10zm-80-10h10v10h-10z"/><path d="M190 279.3h10v10h-10z"/><path d="M200 289.3h10v10h-10z"/><path d="M210 299.3h10v10h-10z"/><path d="M190 299.3h-10v10h-10v-10h10v-10h-10v-20h-10v50h50v-10h-20v-10zm120-30h10v10h-10z"/><path d="M300 279.3h10v10h-10z"/><path d="M290 289.3h10v10h-10z"/><path d="M280 299.3h10v10h-10z"/><path d="M220 309.3v10h60v-10h-20-40zm100-20v10h10v10h-10v-10h-10v10h-20v10h50v-50h-10v20h-10zm-90-30h10v10h-10zm20-40h-10v10h20v-10h-10z"/><path d="M260 229.3h10v10h-10zm-30 0h10v10h-10z"/><path d="M270 249.3v10h10v-20h-10v10zm-40-10h-10v20h10v-20zm-40 0v10h10v10h10v-20h-20zm-20 20h10v10h-10z"/><path d="M170 229.3h10v10h10v-80h-10v60h-20v40h10v-20-10zm40 30h10v10h-10z"/><path d="M220 269.3h10v10h-10z"/><path d="M230 279.3h10v10h-10zm30-80h-20v10h20v-10z"/><path d="M230 209.3h10v10h-10z"/><path d="M220 219.3h10v10h-10z"/><defs ><path id="B" d="M367.3 206.2v31.4h18.8v-31.4h-18.8zm12.5 25.1h-6.2v-18.8h6.2v18.8z"/></defs></svg>