<svg xmlns="http://www.w3.org/2000/svg" xmlns:xlink="http://www.w3.org/1999/xlink" viewBox="0 0 500 500"><circle cx="250" cy="250" r="189.9" fill="#22dff0"/><use href="#B"/><path d="M210.4 378.6v5h10v2.5h-10v5h10v2.5h-12.5v-17.5h12.5v2.5h-10zm24.9 0v15h-2.5v-7.5h-7.5v7.5h-2.5v-15h2.5v5h7.5v-5h2.5zm-2.4 0h-7.5v-2.5h7.5v2.5z"/><use href="#B" x="44.9"/><path d="M255.3 378.6v12.5h-2.5v-12.5h2.5zm7.5 0h-7.5v-2.5h7.5v2.5zm-7.5 12.5h7.5v2.5h-7.5v-2.5zm10-12.5v12.5h-2.5v-12.5h2.5zm7.5 2.5v2.5h-2.5v10h-2.5v-17.5h2.5v5h2.5zm2.5 2.5v2.5h-2.5v-2.5h2.5zm5-7.5v17.5h-2.5v-5h-2.5v-2.5h2.5v-10h2.5zm22.5 0v2.5h-10v-2.5h10zm-7.5 10v5h10v2.5h-12.5v-7.5h2.5zm7.5 0h-7.5v-2.5h7.5v2.5zm2.5-2.5h-2.5v-5h2.5v5zm-6.9-27V351h-11.3v5.6h11.3zm-85.5 0V351h-11.3v5.6h11.3zm24.7-20h-5v10h5v-10zm4.9 5v5h5v-10h-5v5z"/><path d="M237.6 346.6h5v5h-5zm-5 10v10h5v-14.9h-5v4.9zm9.9 0v10h5v-14.9h-5v4.9zm15-19.9h0-5v29.8h5v-9.9h9.9v-19.9h-9.9zm5 9.9v5h-5v-9.9h5v4.9zm86-141.1h6.3v31.4h6.2v-37.7h-12.5z"/><use href="#C"/><use href="#C" x="25.1"/><path d="M107.6 206.9v31.4h18.8v-31.4h-18.8zm12.5 25.1h-6.2v-18.8h6.2V232zm12.6-25.1v31.4h6.3v-12.6h12.5v-18.8h-18.8 0zm6.3 12.5v-6.2h6.2v6.2H139zm-53.4-6.2h6.2v25.1h6.3v-25.1h6.3v-6.3H85.6zM320 220v-60h-10v-10h-10v-10h-10v-10h-10v-10h-10v-10h-10v-10h-20v10h-10v10h-10v10h-10v10h-10v10h-10v10h-10v60h-20v40h10v10h-10v50h50v-10h10v10h60v-10h10v10h50v-50h-10v-10h10v-40h-20z"/><g fill="#0041e6"><path d="M200 230h10v10h-10zm120 0v10h-10v10h-10v10h-10v10h-10v10h-10v10h-10v10h-20v-10h-10v-10h-10v-10h-10v-10h-10v-10h-10v-10h-10v-10h-10v30h10v10h10v10h10v10h10v10h10v10h60v-10h10v-10h10v-10h10v-10h10v-10h10v-30h-10zm-150 70h10v10h-10zm150 0h10v10h-10z"/><path d="M200 170h10v-10h10v-10h10v-10h10v-10h20v10h10v10h10v10h10v10h10v60h-10v10h20v-80h-10v-10h-10v-10h-10v-10h-10v-10h-10v-10h-20v10h-10v10h-10v10h-10v10h-10v10h-10v70h10v-60zm70 70h-10v-10h-20v10h-10v20h10v10h20v-10h10v-20z"/><path d="M230 230h10v-10h20v-10h-10v-10h10v10h10v10h10v10h10v-60h-10v-10h-10v-10h-10v-10h-20v10h-10v10h-10v10h-10v60h10v10h10v-10zm0 40h10v10h-10z"/><path d="M270 230h10v10h-10z"/><path d="M260 220h10v10h-10zm-40 30v-10h-10v20h10v-10z"/><path d="M290 240h-10v20h10v-20zm-70 20h10v10h-10zm40 10h10v10h-10z"/><path d="M250 280h-10v10h20v-10h-10zm20-20h10v10h-10zm-70 30h-10v-10h-10v-10h-10v20h10v10h10v10h20v-10h-10v-10zm110-10v10h-10v10h-10v10h20v-10h10v-10h10v-20h-10v10h-10z"/></g><g fill="#005fff"><path d="M270 160v30h10v-30h-10zm0 50v10h10v-20h-10v10zm-70 0h-10v20h10v-20z"/><path d="M200 230h10v10h-10z"/></g><g fill="#0041e6"><path d="M190 230h10v10h-10zm90-50v10h-20v20h10v-10h10v30h10v-60h-10v10zm-30-70h10v10h-10z"/><path d="M260 120h10v10h-10z"/><path d="M270 130h10v10h-10z"/><path d="M280 140h10v10h-10z"/><path d="M290 150h10v10h-10z"/><path d="M300 160h10v10h-10zm0 50v30h10v-40h-10v10zm-50 50h10v10h-10z"/><path d="M260 250h10v10h-10z"/></g><g fill="#00beff"><path d="M260 140h-10v20h10v-20zm-40 50v10h10v-20h-10v10z"/><path d="M210 210v10h10v-20h-10v10zm20-40h10v10h-10z"/><path d="M240 160h10v10h-10zm20 10v10h-10v20h10v-10h10v-30h-10v10zm-20-60h10v10h-10z"/><path d="M230 120h10v10h-10z"/><path d="M220 130h10v10h-10z"/><path d="M210 140h10v10h-10z"/><path d="M200 150h10v10h-10z"/><path d="M190 160h10v10h-10zm100 70h10v10h-10z"/></g><path d="M320 230h10v10h-10zm-150 70h10v10h-10zm150 0h10v10h-10zm-150-70h10v10h-10z" fill="#64faff"/><path d="M250 240h-10v10h-10v10h20v-10h10v-20h-10v10z" fill="#00beff"/><g fill="#0096ff"><path d="M250 170h-10v10h-10v20h-10v20h-10v10h20v-10h10v-10h10v-30h10v-20h-10v10z"/><path d="M260 150h10v10h-10zm-70 30v30h10v-40h-10v10zm60-60h-10v10h20v-10h-10z"/><path d="M260 130h10v10h-10z"/><path d="M270 140h10v10h-10z"/><path d="M280 150h10v10h-10z"/><path d="M290 160h10v10h-10z"/><path d="M300 170v30h10v-30h-10zm-70-40h10v10h-10z"/><path d="M220 140h10v10h-10z"/><path d="M210 150h10v10h-10z"/><path d="M200 160h10v10h-10zm50 90h10v10h-10z"/><path d="M240 260h10v10h-10zm20-20h10v10h-10z"/></g><path d="M240 140v10h-10v10h-10v10h-10v30h10v-20h10v-10h10v-10h10v-20h-10z" fill="#64faff"/><g fill="#ded7ff"><path d="M240 230h10v10h-10z"/><path d="M230 240h10v10h-10z"/></g><g fill="#e1e1e1"><path d="M260 290h10v10h-10z"/><path d="M270 280h10v10h-10z"/><path d="M280 270h10v10h-10z"/><path d="M290 260h10v10h-10z"/><path d="M300 250h10v10h-10z"/><path d="M310 240h10v10h-10zm-140 40h10v10h-10zm150 0h10v10h-10zm-90 10h10v10h-10z"/><path d="M220 280h10v10h-10z"/><path d="M210 270h10v10h-10z"/><path d="M200 260h10v10h-10z"/><path d="M190 250h10v10h-10zm50-40h10v10h-10z"/><path d="M230 220h10v10h-10zm-20 20h10v10h-10z"/><path d="M220 230h10v10h-10zm-40 10h10v10h-10z"/></g><g fill="#afafaf"><path d="M270 290h10v10h-10zm-30-10h10v10h-10z"/><path d="M280 280h10v10h-10zm30-30h10v10h-10z"/><path d="M320 240h10v10h-10zm-30 30h10v10h-10z"/><path d="M300 260h10v10h-10zm-120 30h10v10h-10z"/><path d="M190 300h10v10h-10zm120-10h10v10h-10z"/><path d="M300 300h10v10h-10zm-80-10h10v10h-10zm10-20h10v10h-10zm20-60h10v10h-10zm20 20h10v10h-10z"/><path d="M260 220h10v10h-10zm-50 30h10v10h-10z"/><path d="M280 240h10v10h-10zm-60 20h10v10h-10zm-10 20h10v10h-10zm-30-30h10v10h-10z"/><path d="M170 240h10v10h-10zm30 30h10v10h-10z"/><path d="M190 260h10v10h-10z"/></g><g fill="#7d7d7d"><path d="M260 300h-40v10h60v-10h-20zm0-30h10v10h-10z"/><path d="M250 280h10v10h-10zm20-20h10v10h-10zm10 30h10v10h-10zm30-30h10v10h-10z"/><path d="M320 250h10v10h-10zm-30 30h10v10h-10z"/><path d="M300 270h10v10h-10zm-120 10h10v10h-10z"/><path d="M170 270h10v10h-10zm30 30h10v10h-10z"/><path d="M190 290h10v10h-10zm120-10h10v10h-10z"/><path d="M320 270h10v10h-10zm-30 30h10v10h-10z"/><path d="M300 290h10v10h-10zm-20-40h10v10h-10zm-70 40h10v10h-10zm-30-30h10v10h-10z"/><path d="M170 250h10v10h-10zm30 30h10v10h-10z"/><path d="M190 270h10v10h-10z"/></g><path d="M260 100h-20v10h20v-10z"/><path d="M260 110h10v10h-10z"/><path d="M270 120h10v10h-10z"/><path d="M280 130h10v10h-10z"/><path d="M290 140h10v10h-10z"/><path d="M300 150h10v10h-10zm-70-40h10v10h-10z"/><path d="M220 120h10v10h-10z"/><path d="M210 130h10v10h-10z"/><path d="M200 140h10v10h-10z"/><path d="M190 150h10v10h-10zm100 80h10v-60h-10v20 40zm-80-60h-10v60h10v-20-40zm50-40h-20v10h20v-10z"/><path d="M230 140h10v10h-10zm30 0h10v10h-10z"/><path d="M270 150h10v10h-10z"/><path d="M280 160h10v10h-10zm-60-10h10v10h-10z"/><path d="M210 160h10v10h-10zm30 140h20v-10h-20v10zm0-20h20v-10h-20v10z"/><path d="M260 260h10v10h-10zm0-50h10v10h-10zm20 20h10v10h-10z"/><path d="M290 260h10v-10h10v-10h-20v20zm-20-40h10v10h-10zm50 40h10v10h-10z"/><path d="M320 240v-10h10v30h10v-40h-20v-60h-10v80h10zm-40 20h10v10h-10z"/><path d="M270 270h10v10h-10z"/><path d="M260 280h10v10h-10zm-80-10h10v10h-10z"/><path d="M190 280h10v10h-10z"/><path d="M200 290h10v10h-10z"/><path d="M210 300h10v10h-10z"/><path d="M190 300h-10v10h-10v-10h10v-10h-10v-20h-10v50h50v-10h-20v-10zm120-30h10v10h-10z"/><path d="M300 280h10v10h-10z"/><path d="M290 290h10v10h-10z"/><path d="M280 300h10v10h-10z"/><path d="M220 310v10h60v-10h-20-40zm100-20v10h10v10h-10v-10h-10v10h-20v10h50v-50h-10v20h-10zm-90-30h10v10h-10zm20-40h-10v10h20v-10h-10z"/><path d="M260 230h10v10h-10zm-30 0h10v10h-10z"/><path d="M270 250v10h10v-20h-10v10zm-50-10v20h10v-20h-10z"/><path d="M210 230h10v10h-10z"/><path d="M190 240v10h10v10h10v-20h-20zm-20 20h10v10h-10z"/><path d="M170 230h10v10h10v-80h-10v60h-20v40h10v-20-10zm40 30h10v10h-10z"/><path d="M220 270h10v10h-10z"/><path d="M230 280h10v10h-10zm30-80h-20v10h20v-10z"/><path d="M230 210h10v10h-10z"/><path d="M220 220h10v10h-10z"/><defs ><path id="B" d="M195.4 378.6v5h-2.5v-5h2.5zm-2.5 12.5h10v2.5h-10v-2.5zm12.5-12.5h-10v-2.5h10v2.5zm-10 7.5v-2.5h7.5v2.5h-7.5zm7.5 5v-5h2.5v5h-2.5z"/><path id="C" d="M367.3 205.5v31.4h18.8v-31.4h-18.8zm12.5 25.1h-6.2v-18.8h6.2v18.8z"/></defs></svg>