<svg xmlns="http://www.w3.org/2000/svg" xmlns:xlink="http://www.w3.org/1999/xlink" viewBox="0 0 500 500"><circle cx="250" cy="250" r="189.2" fill="#c689fa"/><use href="#B"/><path d="M209.7 378.6v5h10v2.5h-10v5h10v2.5h-12.5v-17.5h12.5v2.5h-10zm24.9 0v15h-2.5v-7.5h-7.5v7.5h-2.5v-15h2.5v5h7.5v-5h2.5zm-2.5 0h-7.5v-2.5h7.5v2.5z"/><use href="#B" x="44.9"/><path d="M254.6 378.6v12.5h-2.5v-12.5h2.5zm7.5 0h-7.5v-2.5h7.5v2.5zm-7.5 12.5h7.5v2.5h-7.5v-2.5h0zm10-12.5v12.5h-2.5v-12.5h2.5zm7.5 2.5v2.5h-2.5v10h-2.5v-17.5h2.5v5h2.5zm2.5 2.5v2.5h-2.5v-2.5h2.5zm5-7.5v17.5h-2.5v-5h-2.5v-2.5h2.5v-10h2.5zm22.5 0v2.5h-10v-2.5h10zm-7.5 10v5h10v2.5h-12.5v-7.5h2.5zm7.5 0h-7.5v-2.5h7.5v2.5zm2.5-2.5h-2.5v-5h2.5v5zm23.1-27V351h-11.3v5.6h11.3zm-145.5 0V351h-11.3v5.6h11.3zm14.6-20v29.9h5v-10h5v-5h-5v-10h5v10h5v-14.9h-15z"/><path d="M206.8 366.5h5v-10h-5v10zm10-29.9v29.8h5v-9.9h5v9.9h5v-29.8h-15zm9.9 15h-5v-9.9h5v9.9zm10-15v29.9h5v-10h5v-5h-5v-10h5v10h5v-14.9h-15z"/><path d="M246.6 366.5h5v-10h-5v10zm10 0h5v-29.9h-5v29.9zm10-29.9v5h5v24.9h5v-24.9h5v-5h-15zm29.8 0v14.9h5v-14.9h-5zm-4.9 0h-5v14.9h5v-14.9z"/><path d="M291.5 366.5h5v-15h-5v15zm56.9-155.9h9.4v47.1h9.4v-56.4h-18.8v9.3h0zm28.2 0v47.1h28.2v-47.1h-28.2zm18.8 37.6H386V220h9.4v28.2zm-288.5-41.3v31.4h18.8v-31.4h-18.8zm12.5 25.1h-6.2v-18.8h6.2V232zm12.6-25.1v31.4h6.3v-12.6h12.5v-18.8H132zm6.3 12.5v-6.2h6.2v6.2h-6.2zm-53.5-6.2h6.3v25.1h6.3v-25.1h6.3v-6.3H84.9l-.1 6.3h0zm234.5 6.8v-60h-10v-10h-10v-10h-10v-10h-10v-10h-10v-10h-10v-10h-20v10h-10v10h-10v10h-10v10h-10v10h-10v10h-10v60h-20v40h10v10h-10v50h50v-10h10v10h60v-10h10v10h50v-50h-10v-10h10v-40h-20z"/><g fill="#4b25dc"><path d="M199.3 230h10v10h-10zm120 0v10h-10v10h-10v10h-10v10h-10v10h-10v10h-10v10h-20v-10h-10v-10h-10v-10h-10v-10h-10v-10h-10v-10h-10v-10h-10v30h10v10h10v10h10v10h10v10h10v10h60v-10h10v-10h10v-10h10v-10h10v-10h10v-30h-10zm-150 70h10v10h-10zm150 0h10v10h-10z"/><path d="M199.3 170h10v-10h10v-10h10v-10h10v-10h20v10h10v10h10v10h10v10h10v60h-10v10h20v-80h-10v-10h-10v-10h-10v-10h-10v-10h-10v-10h-20v10h-10v10h-10v10h-10v10h-10v10h-10v70h10v-60zm70 70h-10v-10h-20v10h-10v20h10v10h20v-10h10v-20z"/><path d="M229.3 230h10v-10h20v-10h-10v-10h10v10h10v10h10v10h10v-60h-10v-10h-10v-10h-10v-10h-20v10h-10v10h-10v10h-10v60h10v10h10v-10zm0 40h10v10h-10z"/><path d="M269.3 230h10v10h-10z"/><path d="M259.3 220h10v10h-10zm-40 30v-10h-10v20h10v-10z"/><path d="M289.3 240h-10v20h10v-20zm-70 20h10v10h-10zm40 10h10v10h-10z"/><path d="M249.3 280h-10v10h20v-10h-10zm20-20h10v10h-10zm-70 30h-10v-10h-10v-10h-10v20h10v10h10v10h20v-10h-10v-10zm110-10v10h-10v10h-10v10h20v-10h10v-10h10v-20h-10v10h-10z"/></g><g fill="#6241ff"><path d="M269.3 160v30h10v-30h-10zm0 50v10h10v-20h-10v10zm-70 0h-10v20h10v-20z"/><path d="M199.3 230h10v10h-10z"/></g><g fill="#4b25dc"><path d="M189.3 230h10v10h-10zm90-50v10h-20v20h10v-10h10v30h10v-60h-10v10zm-30-70h10v10h-10z"/><path d="M259.3 120h10v10h-10z"/><path d="M269.3 130h10v10h-10z"/><path d="M279.3 140h10v10h-10z"/><path d="M289.3 150h10v10h-10z"/><path d="M299.3 160h10v10h-10zm0 50v30h10v-40h-10v10zm-50 50h10v10h-10z"/><path d="M259.3 250h10v10h-10z"/></g><g fill="#a08cff"><path d="M259.3 140h-10v20h10v-20zm-40 50v10h10v-20h-10v10z"/><path d="M209.3 210v10h10v-20h-10v10zm20-40h10v10h-10z"/><path d="M239.3 160h10v10h-10zm20 10v10h-10v20h10v-10h10v-30h-10v10zm-20-60h10v10h-10z"/><path d="M229.3 120h10v10h-10z"/><path d="M219.3 130h10v10h-10z"/><path d="M209.3 140h10v10h-10z"/><path d="M199.3 150h10v10h-10z"/><path d="M189.3 160h10v10h-10zm100 70h10v10h-10zm30 0h10v10h-10zm-150 70h10v10h-10zm150 0h10v10h-10zm-150-70h10v10h-10zm80 10h-10v10h-10v10h20v-10h10v-20h-10v10z"/></g><g fill="#7a5fff"><path d="M249.3 170h-10v10h-10v20h-10v20h-10v10h20v-10h10v-10h10v-30h10v-20h-10v10z"/><path d="M259.3 150h10v10h-10zm-70 30v30h10v-40h-10v10zm60-60h-10v10h20v-10h-10z"/><path d="M259.3 130h10v10h-10z"/><path d="M269.3 140h10v10h-10z"/><path d="M279.3 150h10v10h-10z"/><path d="M289.3 160h10v10h-10z"/><path d="M299.3 170v30h10v-30h-10zm-70-40h10v10h-10z"/><path d="M219.3 140h10v10h-10z"/><path d="M209.3 150h10v10h-10z"/><path d="M199.3 160h10v10h-10zm50 90h10v10h-10z"/><path d="M239.3 260h10v10h-10zm20-20h10v10h-10z"/></g><g fill="#ded7ff"><path d="M239.3 140v10h-10v10h-10v10h-10v30h10v-20h10v-10h10v-10h10v-20h-10zm0 90h10v10h-10z"/><path d="M229.3 240h10v10h-10z"/></g><g fill="#e1e1e1"><path d="M259.3 290h10v10h-10z"/><path d="M269.3 280h10v10h-10z"/><path d="M279.3 270h10v10h-10z"/><path d="M289.3 260h10v10h-10z"/><path d="M299.3 250h10v10h-10z"/><path d="M309.3 240h10v10h-10zm-140 40h10v10h-10zm150 0h10v10h-10zm-90 10h10v10h-10z"/><path d="M219.3 280h10v10h-10z"/><path d="M209.3 270h10v10h-10z"/><path d="M199.3 260h10v10h-10z"/><path d="M189.3 250h10v10h-10zm50-40h10v10h-10z"/><path d="M229.3 220h10v10h-10zm-20 20h10v10h-10z"/><path d="M219.3 230h10v10h-10zm-40 10h10v10h-10z"/></g><g fill="#afafaf"><path d="M269.3 290h10v10h-10zm-30-10h10v10h-10z"/><path d="M279.3 280h10v10h-10zm30-30h10v10h-10z"/><path d="M319.3 240h10v10h-10zm-30 30h10v10h-10z"/><path d="M299.3 260h10v10h-10zm-120 30h10v10h-10z"/><path d="M189.3 300h10v10h-10zm120-10h10v10h-10z"/><path d="M299.3 300h10v10h-10zm-80-10h10v10h-10zm10-20h10v10h-10zm20-60h10v10h-10zm20 20h10v10h-10z"/><path d="M259.3 220h10v10h-10zm-50 30h10v10h-10z"/><path d="M279.3 240h10v10h-10zm-60 20h10v10h-10zm-10 20h10v10h-10zm-30-30h10v10h-10z"/><path d="M169.3 240h10v10h-10zm30 30h10v10h-10z"/><path d="M189.3 260h10v10h-10z"/></g><g fill="#7d7d7d"><path d="M259.3 300h-40v10h60v-10h-20zm0-30h10v10h-10z"/><path d="M249.3 280h10v10h-10zm20-20h10v10h-10zm10 30h10v10h-10zm30-30h10v10h-10z"/><path d="M319.3 250h10v10h-10zm-30 30h10v10h-10z"/><path d="M299.3 270h10v10h-10zm-120 10h10v10h-10z"/><path d="M169.3 270h10v10h-10zm30 30h10v10h-10z"/><path d="M189.3 290h10v10h-10zm120-10h10v10h-10z"/><path d="M319.3 270h10v10h-10zm-30 30h10v10h-10z"/><path d="M299.3 290h10v10h-10zm-20-40h10v10h-10zm-70 40h10v10h-10zm-30-30h10v10h-10z"/><path d="M169.3 250h10v10h-10zm30 30h10v10h-10z"/><path d="M189.3 270h10v10h-10z"/></g><path d="M259.3 100h-20v10h20v-10z"/><path d="M259.3 110h10v10h-10z"/><path d="M269.3 120h10v10h-10z"/><path d="M279.3 130h10v10h-10z"/><path d="M289.3 140h10v10h-10z"/><path d="M299.3 150h10v10h-10zm-70-40h10v10h-10z"/><path d="M219.3 120h10v10h-10z"/><path d="M209.3 130h10v10h-10z"/><path d="M199.3 140h10v10h-10z"/><path d="M189.3 150h10v10h-10zm100 80h10v-60h-10v20 40zm-80-60h-10v60h10v-20-40zm50-40h-20v10h20v-10z"/><path d="M229.3 140h10v10h-10zm30 0h10v10h-10z"/><path d="M269.3 150h10v10h-10z"/><path d="M279.3 160h10v10h-10zm-60-10h10v10h-10z"/><path d="M209.3 160h10v10h-10zm30 140h20v-10h-20v10zm0-20h20v-10h-20v10z"/><path d="M259.3 260h10v10h-10zm0-50h10v10h-10zm20 20h10v10h-10z"/><path d="M289.3 260h10v-10h10v-10h-20v20zm-20-40h10v10h-10zm50 40h10v10h-10z"/><path d="M319.3 240v-10h10v30h10v-40h-10-10v-60h-10v80h10zm-40 20h10v10h-10z"/><path d="M269.3 270h10v10h-10z"/><path d="M259.3 280h10v10h-10zm-80-10h10v10h-10z"/><path d="M189.3 280h10v10h-10z"/><path d="M199.3 290h10v10h-10z"/><path d="M209.3 300h10v10h-10z"/><path d="M189.3 300h-10v10h-10v-10h10v-10h-10v-20h-10v50h50v-10h-20v-10zm120-30h10v10h-10z"/><path d="M299.3 280h10v10h-10z"/><path d="M289.3 290h10v10h-10z"/><path d="M279.3 300h10v10h-10z"/><path d="M219.3 310v10h60v-10h-20-40zm100-20v10h10v10h-10v-10h-10v10h-20v10h50v-50h-10v20h-10zm-90-30h10v10h-10zm20-40h-10v10h20v-10h-10z"/><path d="M259.3 230h10v10h-10zm-30 0h10v10h-10z"/><path d="M269.3 250v10h10v-20h-10v10zm-50-10v20h10v-20h-10z"/><path d="M209.3 230h10v10h-10z"/><path d="M189.3 240v10h10v10h10v-20h-20zm-20 20h10v10h-10z"/><path d="M169.3 230h10v10h10v-80h-10v60h-20v40h10v-20-10zm40 30h10v10h-10z"/><path d="M219.3 270h10v10h-10z"/><path d="M229.3 280h10v10h-10zm30-80h-20v10h20v-10z"/><path d="M229.3 210h10v10h-10z"/><path d="M219.3 220h10v10h-10z"/><defs ><path id="B" d="M194.7 378.6v5h-2.5v-5h2.5zm-2.5 12.5h10v2.5h-10v-2.5zm12.5-12.5h-10v-2.5h10v2.5zm-10 7.5v-2.5h7.5v2.5h-7.5zm7.5 5v-5h2.5v5h-2.5z"/></defs></svg>