<svg xmlns="http://www.w3.org/2000/svg" viewBox="0 0 500 500"><circle cx="250" cy="250" r="189.9" fill="#22dff0"/><path d="M195.4 378.6v5h-2.5v-5h2.5zm-2.5 12.5h10v2.5h-10v-2.5zm12.5-12.5h-10v-2.5h10v2.5zm-10 7.5v-2.5h7.5v2.5h-7.5zm7.5 5v-5h2.5v5h-2.5zm7.5-12.5v5h10v2.5h-10v5h10v2.5h-12.5v-17.5h12.5v2.5h-10zm25 0v15h-2.5v-7.5h-7.5v7.5h-2.5v-15h2.5v5h7.5v-5h2.5zm-2.5 0h-7.5v-2.5h7.5v2.5zm7.5 0v5h-2.5v-5h2.5zm-2.5 12.5h10v2.5h-10v-2.5zm12.4-12.5h-10v-2.5h10v2.5zm-9.9 7.5v-2.5h7.5v2.5h-7.5zm7.5 5v-5h2.5v5h-2.5zm7.4-12.5v12.5h-2.5v-12.5h2.5zm7.5 0h-7.5v-2.5h7.5v2.5zm-7.5 12.5h7.5v2.5h-7.5v-2.5zm10-12.5v12.5h-2.5v-12.5h2.5zm7.5 2.5v2.5h-2.5v10h-2.5v-17.5h2.5v5h2.5zm2.5 2.5v2.5h-2.5v-2.5h2.5zm5-7.5v17.5h-2.5v-5h-2.5v-2.5h2.5v-10h2.5zm22.5 0v2.5h-10v-2.5h10zm-7.5 10v5h10v2.5h-12.5v-7.5h2.5zm7.5 0h-7.5v-2.5h7.5v2.5zm2.5-2.5h-2.5v-5h2.5v5zm-6.9-27V351h-11.3v5.6h11.3zm-85.5 0V351h-11.3v5.6h11.3zm24.7-20h-5v10h5v-10zm5 10h5v-10h-5v10z"/><path d="M237.6 346.6h5v5h-5z"/><path d="M232.6 366.5h5v-14.9h-5v14.9zm10 0h5v-14.9h-5v14.9zm9.9-29.9v29.8h5v-9.9h9.9v-19.9c-2.4.1-14.9 0-14.9 0zm10 15h-5v-9.9h5v9.9zm86-146.1h6.3v31.4h6.3v-37.6h-12.6zm18.8 0v31.4h18.8v-31.4h-18.8zm12.6 25.1h-6.2v-18.8h6.2v18.8zm12.5-25.1v31.4h18.8v-31.4h-18.8zm12.5 25.1h-6.2v-18.8h6.2v18.8zM93 207.2h2v6.1h-2zm0-6.1h2v4.1h-2z"/><path d="M86.9 207.2H93v-2.1h-6.1v-4H93V199h-8.1v14.3h2zm12.2-8.2h6.1v2h-6.1zm-2 2.1h2v10.2h-2zm8.1 0h2v10.2h-2z"/><path d="M99.1 211.3h6.1v2h-6.1zm10.2-10.2h2v10.2h-2z"/><path d="M111.3 211.3h6.1v2h-6.1zm0-12.3h6.1v2h-6.1z"/><path d="M117.4 201.1h2v10.2h-2zm12.2-2.1h2v2h-2zm-6.1 0h-2v14.3h2v-6.1h2.1v-2.1h-2.1z"/><path d="M125.6 207.2h2v2h-2zm0-4.1h2v2h-2z"/><path d="M127.6 201.1h2.1v2.1h-2.1zm0 8.1h2.1v2.1h-2.1z"/><path d="M129.6 211.3h2v2h-2zm10.2 0h-2v-10.2h2V199h-6.1v2.1h2v10.2h-2v2h6.1zm12.2-10.2V199h-10.2v14.3H152v-2h-8.2v-4.1h8.2v-2.1h-8.2v-4zm-45.1 19v31.4h18.8v-31.4h-18.8zm12.6 25.1h-6.2v-18.8h6.2v18.8zm12.5-25.1v31.4h6.3v-12.6h12.5v-18.8H132h0zm6.3 12.6v-6.2h6.2v6.2h-6.2zm-53.4-6.3h6.3v25.1h6.2v-25.1h6.3v-6.3H84.9zM320 220v-70h-10v-10h-10v-10h-10v-10h-20v-10h-40v10h-20v10h-10v10h-10v10h-10v70h-20v40h10v10h-10v50h50v-10h10v10h60v-10h10v10h50v-50h-10v-10h10v-40h-20z"/><g fill="#00beff"><path d="M210 240v-10h-10v-60h10v-10h10v-10h10v-10h40v10h10v10h10v10h10v60h-10v10h20v-90h-10v-10h-10v-10h-20v-10h-40v10h-20v10h-10v10h-10v90h20z"/><path d="M320 230v10h-10v10h-10v10h-10v10h-10v10h-10v10h-10v10h-20v-10h-10v-10h-10v-10h-10v-10h-10v-10h-10v-10h-10v-10h-10v30h10v10h10v10h10v10h10v10h10v10h60v-10h10v-10h10v-10h10v-10h10v-10h10v-30h-10zm-150 70h10v10h-10zm150 0h10v10h-10zm-100-80h10v-10h10v-10h20v10h10v10h10v10h10v-60h-10v-10h-10v-10h-40v10h-10v10h-10v60h10v-10z"/><path d="M270 240h-10v-10h-20v10h-10v20h10v10h20v-10h10v-20zm-20-20h10v-10h-20v10h10z"/><path d="M230 220h10v10h-10z"/><path d="M220 230h10v10h-10zm10 40h10v10h-10zm40-40h10v10h-10z"/><path d="M260 220h10v10h-10zm-40 30v-10h-10v20h10v-10z"/><path d="M290 240h-10v20h10v-20zm-70 20h10v10h-10zm40 10h10v10h-10z"/><path d="M250 280h-10v10h20v-10h-10zm20-20h10v10h-10zm-70 30h-10v-10h-10v-10h-10v20h10v10h10v10h20v-10h-10v-10zm110-10v10h-10v10h-10v10h20v-10h10v-10h10v-20h-10v10h-10z"/></g><path d="M280 130h10v-10h-20v10h10z"/><path d="M290 130h10v10h-10z"/><path d="M300 140h10v10h-10zm-70-10v-10h-20v10h20z"/><path d="M200 130h10v10h-10z"/><path d="M190 140h10v10h-10zm100 50v40h10v-60h-10v20zm-80 20v-40h-10v60h10v-20zm40-90h20v-10h-40v10h20zm0 30h20v-10h-40v10h20z"/><path d="M270 150h10v10h-10z"/><path d="M280 160h10v10h-10zm-60-10h10v10h-10z"/><path d="M210 160h10v10h-10zm30 130v10h20v-10h-20zm20-80v-10h-20v10h20zm-20 60v10h20v-10h-20z"/><path d="M260 260h10v10h-10zm0-50h10v10h-10zm20 20h10v10h-10z"/><path d="M290 240v20h10v-10h10v-10h-20zm-20-20h10v10h-10zm50 40h10v10h-10z"/><path d="M320 220v-70h-10v90h10v-10h10v30h10v-40h-20zm-40 40h10v10h-10z"/><path d="M270 270h10v10h-10z"/><path d="M260 280h10v10h-10zm-80-10h10v10h-10z"/><path d="M190 280h10v10h-10z"/><path d="M200 290h10v10h-10z"/><path d="M210 300h10v10h-10z"/><path d="M190 310v-10h-10v10h-10v-10h10v-10h-10v-20h-10v50h50v-10h-20zm120-40h10v10h-10z"/><path d="M300 280h10v10h-10z"/><path d="M290 290h10v10h-10z"/><path d="M280 300h10v10h-10z"/><path d="M260 310h-40v10h60v-10h-20zm70-20h-10v10h10v10h-10v-10h-10v10h-20v10h50v-50h-10v20zm-100-30h10v10h-10zm20-40h-10v10h20v-10h-10z"/><path d="M260 230h10v10h-10zm-30 0h10v10h-10z"/><path d="M270 250v10h10v-20h-10v10zm-40-10h-10v20h10v-20z"/><path d="M230 210h10v10h-10zm-20 20h10v10h-10z"/><path d="M210 240h-20v10h10v10h10v-20zm10-20h10v10h-10zm-50 40h10v10h-10z"/><path d="M170 240v-10h10v10h10v-90h-10v70h-20v40h10v-20zm40 20h10v10h-10z"/><path d="M220 270h10v10h-10z"/><path d="M230 280h10v10h-10zm20-20h10v10h-10z"/><path d="M260 250h10v10h-10z"/><g fill="#0041e6"><path d="M240 260h10v10h-10z"/><path d="M250 250h10v10h-10z"/><path d="M260 240h10v10h-10z"/><path d="M250 230v10h-10v10h-10v10h20v-10h10v-20h-10z"/></g><g fill="#005fff"><path d="M270 180v10h10v-20h-10v10zm0 30v10h10v-20h-10v10zm10-70h10v10h-10z"/><path d="M290 150h10v10h-10z"/><path d="M300 160h10v10h-10zm-100 50h-10v20h10v-20z"/><path d="M200 230h10v10h-10z"/></g><g fill="#0041e6"><path d="M260 120h-10v10h20v-10h-10z"/><path d="M280 130h-10v10h20v-10h-10z"/><path d="M290 140h10v10h-10z"/><path d="M300 150h10v10h-10zm0 60v30h10v-40h-10v10zm-110 20h10v10h-10zm90-60v20h-20v20h10v-10h10v30h10v-60h-10zm-20-20h10v10h-10z"/><path d="M270 160h10v10h-10zm-20 100h10v10h-10z"/><path d="M260 250h10v10h-10z"/></g><g fill="#00beff"><path d="M260 150h-10v10h-20v10h-10v30h10v-20h10v-10h20v-20z"/><path d="M210 210v10h10v-20h-10v10zm50-30h-10v20h10v-10h10v-20h-10v10zm-50-40h10v10h-10z"/><path d="M200 150h10v10h-10z"/><path d="M190 160h10v10h-10zm100 70h10v10h-10z"/></g><path d="M320 230h10v10h-10zm-150 70h10v10h-10zm150 0h10v10h-10zm-150-70h10v10h-10z" fill="#64faff"/><path d="M250 240h-10v10h-10v10h20v-10h10v-20h-10v10z" fill="#00beff"/><g fill="#0096ff"><path d="M210 220h10v10h-10z"/><path d="M240 180h-10v20h-10v20h10v-10h10v-10h10v-20h10v-10h-20v10z"/><path d="M260 160h10v10h-10zm-40-20h10v10h-10z"/><path d="M210 150h10v10h-10z"/><path d="M200 160h10v10h-10zm60-30h-10v-10h-10v10h-10v10h40v-10h-10z"/><path d="M270 140h10v10h-10z"/><path d="M280 150h10v10h-10z"/><path d="M290 160h10v10h-10zm-100 20v30h10v-40h-10v10z"/><path d="M300 170v30h10v-30h-10zm-50 80h10v10h-10z"/><path d="M240 260h10v10h-10zm20-20h10v10h-10z"/></g><g fill="#64faff"><path d="M240 150h-10v10h20v-10h-10zm-30 30v20h10v-30h-10v10z"/><path d="M220 160h10v10h-10zm10-40h10v10h-10z"/><path d="M230 140v-10h-20v10h20z"/><path d="M200 140h10v10h-10z"/><path d="M190 150h10v10h-10zm50 80h10v10h-10z"/><path d="M230 240h10v10h-10z"/></g><g fill="#e1e1e1"><path d="M260 290h10v10h-10z"/><path d="M270 280h10v10h-10z"/><path d="M280 270h10v10h-10z"/><path d="M290 260h10v10h-10z"/><path d="M300 250h10v10h-10z"/><path d="M310 240h10v10h-10zm-140 40h10v10h-10zm150 0h10v10h-10zm-90 10h10v10h-10z"/><path d="M220 280h10v10h-10z"/><path d="M210 270h10v10h-10z"/><path d="M200 260h10v10h-10z"/><path d="M190 250h10v10h-10zm50-40h10v10h-10z"/><path d="M230 220h10v10h-10zm-20 20h10v10h-10z"/><path d="M220 230h10v10h-10zm-40 10h10v10h-10z"/></g><g fill="#afafaf"><path d="M270 290h10v10h-10zm-30-10h10v10h-10z"/><path d="M280 280h10v10h-10zm30-30h10v10h-10z"/><path d="M320 240h10v10h-10zm-30 30h10v10h-10z"/><path d="M300 260h10v10h-10zm-120 30h10v10h-10z"/><path d="M190 300h10v10h-10zm120-10h10v10h-10z"/><path d="M300 300h10v10h-10zm-80-10h10v10h-10zm10-20h10v10h-10zm20-60h10v10h-10zm20 20h10v10h-10z"/><path d="M260 220h10v10h-10zm-50 30h10v10h-10z"/><path d="M280 240h10v10h-10zm-60 20h10v10h-10zm-10 20h10v10h-10zm-30-30h10v10h-10z"/><path d="M170 240h10v10h-10zm30 30h10v10h-10z"/><path d="M190 260h10v10h-10z"/></g><g fill="#7d7d7d"><path d="M260 300h-40v10h60v-10h-20zm0-30h10v10h-10z"/><path d="M250 280h10v10h-10zm20-20h10v10h-10zm10 30h10v10h-10zm30-30h10v10h-10z"/><path d="M320 250h10v10h-10zm-30 30h10v10h-10z"/><path d="M300 270h10v10h-10zm-120 10h10v10h-10z"/><path d="M170 270h10v10h-10zm30 30h10v10h-10z"/><path d="M190 290h10v10h-10zm120-10h10v10h-10z"/><path d="M320 270h10v10h-10zm-30 30h10v10h-10z"/><path d="M300 290h10v10h-10zm-20-40h10v10h-10zm-70 40h10v10h-10zm-30-30h10v10h-10z"/><path d="M170 250h10v10h-10zm30 30h10v10h-10z"/><path d="M190 270h10v10h-10z"/></g></svg>