<svg xmlns="http://www.w3.org/2000/svg" xmlns:xlink="http://www.w3.org/1999/xlink" viewBox="0 0 379.8 379.8"><circle cx="189.9" cy="189.9" r="189.9" fill="#22dff0"/><use xlink:href="#B"/><path d="M150.3 318.5v5h10v2.5h-10v5h10v2.5h-12.5V316h12.5v2.5h-10zm24.9 0v15h-2.5V326h-7.5v7.5h-2.5v-15h2.5v5h7.5v-5h2.5zm-2.4 0h-7.5V316h7.5v2.5z"/><use xlink:href="#B" x="44.9"/><path d="M195.2 318.5V331h-2.5v-12.5h2.5zm7.5 0h-7.5V316h7.5v2.5zm-7.5 12.5h7.5v2.5h-7.5V331zm10-12.5V331h-2.5v-12.5h2.5zm7.5 2.5v2.5h-2.5v10h-2.5V316h2.5v5h2.5zm2.5 2.5v2.5h-2.5v-2.5h2.5zm5-7.5v17.5h-2.5v-5h-2.5V326h2.5v-10h2.5zm22.5 0v2.5h-10V316h10zm-7.5 10v5h10v2.5h-12.5V326h2.5zm7.5 0h-7.5v-2.5h7.5v2.5zm2.5-2.5h-2.5v-5h2.5v5zm-6.9-27v-5.6H227v5.6h11.3zm-85.5 0v-5.6h-11.3v5.6h11.3zm24.7-20h-5v10h5v-10zm4.9 5v5h5v-10h-5v5z"/><path d="M177.5 286.5h5v5h-5v-5zm-5 10v10h5v-14.9h-5v4.9zm9.9 0v10h5v-14.9h-5v4.9zm15-19.9h0-5v29.8h5v-9.9h9.9v-19.9h-9.9zm5 9.9v5h-5v-9.9h5v4.9zm86-141.1h6.3v31.4h6.2v-37.7h-12.5v6.3zm18.8 0v31.4H326v-31.4h-18.8zm12.5 25.1h-6.2v-18.8h6.2v18.8zm12.6-25.1v31.4h18.8v-31.4h-18.8zm12.5 25.1h-6.2v-18.8h6.2v18.8zM47.5 146.8v31.4h18.8v-31.4H47.5zM60 171.9h-6.2v-18.8H60v18.8zm12.6-25.1v31.4h6.3v-12.6h12.5v-18.8H72.6h0 0zm6.3 12.5v-6.2h6.2v6.2h-6.2zm-53.4-6.2h6.2v25.1H38v-25.1h6.3v-6.3H25.5v6.3zm234.4 6.8v-60h-10v-10h-10v-10h-10v-10h-10v-10h-10v-10h-10v-10h-20v10h-10v10h-10v10h-10v10h-10v10h-10v10h-10v60h-20v40h10v10h-10v50h50v-10h10v10h60v-10h10v10h50v-50h-10v-10h10v-40h-20z"/><g fill="#0041e6"><path d="M139.9 169.9h10v10h-10v-10zm120 0v10h-10v10h-10v10h-10v10h-10v10h-10v10h-10v10h-20v-10h-10v-10h-10v-10h-10v-10h-10v-10h-10v-10h-10v-10h-10v30h10v10h10v10h10v10h10v10h10v10h60v-10h10v-10h10v-10h10v-10h10v-10h10v-30h-10zm-150 70h10v10h-10v-10zm150 0h10v10h-10v-10z"/><path d="M139.9 109.9h10v-10h10v-10h10v-10h10v-10h20v10h10v10h10v10h10v10h10v60h-10v10h20v-80h-10v-10h-10v-10h-10v-10h-10v-10h-10v-10h-20v10h-10v10h-10v10h-10v10h-10v10h-10v70h10v-60zm70 70h-10v-10h-20v10h-10v20h10v10h20v-10h10v-20z"/><path d="M169.9 169.9h10v-10h20v-10h-10v-10h10v10h10v10h10v10h10v-60h-10v-10h-10v-10h-10v-10h-20v10h-10v10h-10v10h-10v60h10v10h10v-10zm0 40h10v10h-10v-10z"/><use xlink:href="#C"/><path d="M199.9 159.9h10v10h-10v-10zm-40 30v-10h-10v20h10v-10z"/><path d="M229.9 179.9h-10v20h10v-20zm-70 20h10v10h-10v-10zm40 10h10v10h-10v-10z"/><path d="M189.9 219.9h-10v10h20v-10h-10zm20-20h10v10h-10v-10zm-70 30h-10v-10h-10v-10h-10v20h10v10h10v10h20v-10h-10v-10zm110-10v10h-10v10h-10v10h20v-10h10v-10h10v-20h-10v10h-10z"/></g><g fill="#005fff"><path d="M209.9 99.9v30h10v-30h-10zm0 50v10h10v-20h-10v10zm-70 0h-10v20h10v-20z"/><use xlink:href="#C" x="-70"/></g><g fill="#0041e6"><path d="M129.9 169.9h10v10h-10v-10zm90-50v10h-20v20h10v-10h10v30h10v-60h-10v10zm-30-70h10v10h-10v-10z"/><use xlink:href="#C" x="-10" y="-110"/><use xlink:href="#C" y="-100"/><use xlink:href="#C" x="10" y="-90"/><use xlink:href="#C" x="20" y="-80"/><path d="M239.9 99.9h10v10h-10v-10zm0 50v30h10v-40h-10v10zm-50 50h10v10h-10v-10z"/><use xlink:href="#C" x="-10" y="20"/></g><g fill="#00beff"><path d="M199.9 79.9h-10v20h10v-20zm-40 50v10h10v-20h-10v10z"/><path d="M149.9 149.9v10h10v-20h-10v10zm20-40h10v10h-10v-10z"/><path d="M179.9 99.9h10v10h-10v-10zm20 10v10h-10v20h10v-10h10v-30h-10v10zm-20-60h10v10h-10v-10z"/><use xlink:href="#C" x="-40" y="-110"/><use xlink:href="#C" x="-50" y="-100"/><use xlink:href="#C" x="-60" y="-90"/><use xlink:href="#C" x="-70" y="-80"/><path d="M129.9 99.9h10v10h-10v-10zm100 70h10v10h-10v-10z"/></g><path d="M259.9 169.9h10v10h-10v-10zm-150 70h10v10h-10v-10zm150 0h10v10h-10v-10zm-150-70h10v10h-10v-10z" fill="#64faff"/><path d="M189.9 179.9h-10v10h-10v10h20v-10h10v-20h-10v10z" fill="#00beff"/><g fill="#0096ff"><path d="M189.9 109.9h-10v10h-10v20h-10v20h-10v10h20v-10h10v-10h10v-30h10v-20h-10v10z"/><path d="M199.9 89.9h10v10h-10v-10zm-70 30v30h10v-40h-10v10zm60-60h-10v10h20v-10h-10z"/><use xlink:href="#C" x="-10" y="-100"/><use xlink:href="#C" y="-90"/><use xlink:href="#C" x="10" y="-80"/><use xlink:href="#C" x="20" y="-70"/><path d="M239.9 109.9v30h10v-30h-10zm-70-40h10v10h-10v-10z"/><use xlink:href="#C" x="-50" y="-90"/><use xlink:href="#C" x="-60" y="-80"/><path d="M139.9 99.9h10v10h-10v-10zm50 90h10v10h-10v-10z"/><path d="M179.9 199.9h10v10h-10v-10zm20-20h10v10h-10v-10z"/></g><path d="M179.9 79.9v10h-10v10h-10v10h-10v30h10v-20h10v-10h10v-10h10v-20h-10z" fill="#64faff"/><g fill="#ded7ff"><use xlink:href="#C" x="-30"/><use xlink:href="#C" x="-40" y="10"/></g><g fill="#e1e1e1"><use xlink:href="#C" x="-10" y="60"/><use xlink:href="#C" y="50"/><use xlink:href="#C" x="10" y="40"/><use xlink:href="#C" x="20" y="30"/><use xlink:href="#C" x="30" y="20"/><path d="M249.9 179.9h10v10h-10v-10zm-140 40h10v10h-10v-10zm150 0h10v10h-10v-10zm-90 10h10v10h-10v-10z"/><use xlink:href="#C" x="-50" y="50"/><use xlink:href="#C" x="-60" y="40"/><use xlink:href="#C" x="-70" y="30"/><path d="M129.9 189.9h10v10h-10v-10zm50-40h10v10h-10v-10z"/><path d="M169.9 159.9h10v10h-10v-10zm-20 20h10v10h-10v-10z"/><path d="M159.9 169.9h10v10h-10v-10zm-40 10h10v10h-10v-10z"/></g><g fill="#afafaf"><path d="M209.9 229.9h10v10h-10v-10zm-30-10h10v10h-10v-10z"/><path d="M219.9 219.9h10v10h-10v-10zm30-30h10v10h-10v-10z"/><path d="M259.9 179.9h10v10h-10v-10zm-30 30h10v10h-10v-10z"/><path d="M239.9 199.9h10v10h-10v-10zm-120 30h10v10h-10v-10z"/><path d="M129.9 239.9h10v10h-10v-10zm120-10h10v10h-10v-10z"/><path d="M239.9 239.9h10v10h-10v-10zm-80-10h10v10h-10v-10zm10-20h10v10h-10v-10zm20-60h10v10h-10v-10zm20 20h10v10h-10v-10z"/><path d="M199.9 159.9h10v10h-10v-10zm-50 30h10v10h-10v-10z"/><path d="M219.9 179.9h10v10h-10v-10zm-60 20h10v10h-10v-10zm-10 20h10v10h-10v-10zm-30-30h10v10h-10v-10z"/><path d="M109.9 179.9h10v10h-10v-10zm30 30h10v10h-10v-10z"/><use xlink:href="#C" x="-80" y="30"/></g><g fill="#7d7d7d"><path d="M199.9 239.9h-40v10h60v-10h-20zm0-30h10v10h-10v-10z"/><path d="M189.9 219.9h10v10h-10v-10zm20-20h10v10h-10v-10zm10 30h10v10h-10v-10zm30-30h10v10h-10v-10z"/><path d="M259.9 189.9h10v10h-10v-10zm-30 30h10v10h-10v-10z"/><path d="M239.9 209.9h10v10h-10v-10zm-120 10h10v10h-10v-10z"/><path d="M109.9 209.9h10v10h-10v-10zm30 30h10v10h-10v-10z"/><path d="M129.9 229.9h10v10h-10v-10zm120-10h10v10h-10v-10z"/><path d="M259.9 209.9h10v10h-10v-10zm-30 30h10v10h-10v-10z"/><path d="M239.9 229.9h10v10h-10v-10zm-20-40h10v10h-10v-10zm-70 40h10v10h-10v-10zm-30-30h10v10h-10v-10z"/><path d="M109.9 189.9h10v10h-10v-10zm30 30h10v10h-10v-10z"/><use xlink:href="#C" x="-80" y="40"/></g><path d="M199.9 39.9h-20v10h20v-10z"/><use xlink:href="#C" x="-10" y="-120"/><use xlink:href="#C" y="-110"/><use xlink:href="#C" x="10" y="-100"/><use xlink:href="#C" x="20" y="-90"/><path d="M239.9 89.9h10v10h-10v-10zm-70-40h10v10h-10v-10z"/><use xlink:href="#C" x="-50" y="-110"/><use xlink:href="#C" x="-60" y="-100"/><use xlink:href="#C" x="-70" y="-90"/><path d="M129.9 89.9h10v10h-10v-10zm100 80h10v-60h-10v20 40zm-80-60h-10v60h10v-20-40zm50-40h-20v10h20v-10z"/><path d="M169.9 79.9h10v10h-10v-10zm30 0h10v10h-10v-10z"/><use xlink:href="#C" y="-80"/><path d="M219.9 99.9h10v10h-10v-10zm-60-10h10v10h-10v-10z"/><path d="M149.9 99.9h10v10h-10v-10zm30 140h20v-10h-20v10zm0-20h20v-10h-20v10z"/><path d="M199.9 199.9h10v10h-10v-10zm0-50h10v10h-10v-10zm20 20h10v10h-10v-10z"/><path d="M229.9 199.9h10v-10h10v-10h-20v20zm-20-40h10v10h-10v-10zm50 40h10v10h-10v-10z"/><path d="M259.9 179.9v-10h10v30h10v-40h-20v-60h-10v80h10zm-40 20h10v10h-10v-10z"/><use xlink:href="#C" y="40"/><path d="M199.9 219.9h10v10h-10v-10zm-80-10h10v10h-10v-10z"/><use xlink:href="#C" x="-80" y="50"/><use xlink:href="#C" x="-70" y="60"/><use xlink:href="#C" x="-60" y="70"/><path d="M129.9 239.9h-10v10h-10v-10h10v-10h-10v-20h-10v50h50v-10h-20v-10zm120-30h10v10h-10v-10z"/><use xlink:href="#C" x="30" y="50"/><use xlink:href="#C" x="20" y="60"/><use xlink:href="#C" x="10" y="70"/><path d="M159.9 249.9v10h60v-10h-20-40zm100-20v10h10v10h-10v-10h-10v10h-20v10h50v-50h-10v20h-10zm-90-30h10v10h-10v-10zm20-40h-10v10h20v-10h-10z"/><path d="M199.9 169.9h10v10h-10v-10zm-30 0h10v10h-10v-10z"/><path d="M209.9 189.9v10h10v-20h-10v10zm-50-10v20h10v-20h-10z"/><use xlink:href="#C" x="-60"/><path d="M129.9 179.9v10h10v10h10v-20h-20zm-20 20h10v10h-10v-10z"/><path d="M109.9 169.9h10v10h10v-80h-10v60h-20v40h10v-20-10zm40 30h10v10h-10v-10z"/><use xlink:href="#C" x="-50" y="40"/><path d="M169.9 219.9h10v10h-10v-10zm30-80h-20v10h20v-10z"/><use xlink:href="#C" x="-40" y="-20"/><use xlink:href="#C" x="-50" y="-10"/><defs ><path id="B" d="M135.3 318.5v5h-2.5v-5h2.5zm-2.5 12.5h10v2.5h-10V331zm12.5-12.5h-10V316h10v2.5zm-10 7.5v-2.5h7.5v2.5h-7.5zm7.5 5v-5h2.5v5h-2.5z"/><path id="C" d="M209.9 169.9h10v10h-10v-10z"/></defs></svg>