<svg xmlns="http://www.w3.org/2000/svg" xmlns:xlink="http://www.w3.org/1999/xlink" viewBox="0 0 378.4 378.4"><circle cx="189.2" cy="189.2" r="189.2" fill="#f041f8"/><path d="M267.6 295.1v-5.6h-11.3v5.6h11.3zm-145.5 0v-5.6h-11.3v5.6h11.3zm20-10h5v-10h-5v10z"/><path d="M137.1 275.2h-5v29.9h5v-15h5v-5h-5v-9.9z"/><path d="M142.1 305h5v-15h-5v15zm10-24.9V305h5v-29.9h-5v5zm9.9-4.9v29.9h5v-24.9h5v24.9h5v-29.9h-15zm19.9 0v14.9h10v10h-10v5h15v-19.9h-10v-5h10v-5h-15zm49.5 0v29.9h5v-9.9h9.9v-19.9c-2.5-.1-14.9-.1-14.9-.1zm9.9 14.9h-5v-9.9h5v9.9zm-29.5 0h-5v-14.9h-5v29.9h5v-10h5v10h5v-29.9h-5v14.9zm10 14.9h5v-29.9h-5V305zm-87.2 12.1v5h-2.5v-5h2.5zm-2.5 12.5h10v2.5h-10v-2.5zm12.5-12.5h-10v-2.5h10v2.5zm-10 7.5v-2.5h7.5v2.5h-7.5zm7.5 5v-5h2.5v5h-2.5zm7.5-12.5v5h10v2.5h-10v5h10v2.5h-12.5v-17.5h12.5v2.5h-10zm25 0v15h-2.5v-7.5h-7.5v7.5h-2.5v-15h2.5v5h7.5v-5h2.5zm-2.5 0h-7.5v-2.5h7.5v2.5zm7.5 0v5h-2.5v-5h2.5zm-2.5 12.5h10v2.5h-10v-2.5zm12.4-12.5h-10v-2.5h10v2.5zm-9.9 7.5v-2.5h7.5v2.5h-7.5zm7.5 5v-5h2.5v5h-2.5zm7.4-12.5v12.5H192v-12.5h2.5zm7.5 0h-7.5v-2.5h7.5v2.5zm-7.5 12.5h7.5v2.5h-7.5v-2.5zm10-12.5v12.5H202v-12.5h2.5zm7.5 2.5v2.5h-2.5v10H207v-17.5h2.5v5h2.5zm2.5 2.5v2.5H212v-2.5h2.5zm5-7.5v17.5H217v-5h-2.5v-2.5h2.5v-10h2.5zm22.5 0v2.5h-10v-2.5h10zm-7.5 10v5h10v2.5H232v-7.5h2.5zm7.5 0h-7.5v-2.5h7.5v2.5zm2.5-2.5H242v-5h2.5v5zm43.1-172.3h9.4v47.1h9.4v-56.5h-18.8v9.4zm28.2 0v47.1H344v-47.1h-28.2 0zm18.8 37.6h-9.4v-28.2h9.4v28.2h0zm-287.8-42v31.4h18.8v-31.4H46.8zm12.6 25.1h-6.2v-18.8h6.2v18.8zm12.5-25.1v31.4h6.3v-12.6h12.5v-18.8H71.9h0zm6.3 12.5v-6.2h6.2v6.2h-6.2 0zm-53.4-6.2h6.3v25.1h6.2v-25.1h6.3v-6.3H24.8v6.3zm234.4 6.8v-60h-10v-10h-10v-10h-10v-10h-10v-10h-10v-10h-10v-10h-20v10h-10v10h-10v10h-10v10h-10v10h-10v10h-10v60h-20v40h10v10h-10v50h50v-10h10v10h60v-10h10v10h50v-50h-10v-10h10v-40h-20z"/><g fill="#7e18f8"><path d="M139.2 168.5h10v10h-10v-10zm120 0v10h-10v10h-10v10h-10v10h-10v10h-10v10h-10v10h-20v-10h-10v-10h-10v-10h-10v-10h-10v-10h-10v-10h-10v-10h-10v30h10v10h10v10h10v10h10v10h10v10h60v-10h10v-10h10v-10h10v-10h10v-10h10v-30h-10 0zm-150 70h10v10h-10v-10zm150 0h10v10h-10v-10z"/><path d="M139.2 108.5h10v-10h10v-10h10v-10h10v-10h20v10h10v10h10v10h10v10h10v60h-10v10h20v-80h-10v-10h-10v-10h-10v-10h-10v-10h-10v-10h-20v10h-10v10h-10v10h-10v10h-10v10h-10v70h10v-60zm70 70h-10v-10h-20v10h-10v20h10v10h20v-10h10v-20h0z"/><path d="M169.2 168.5h10v-10h20v-10h-10v-10h10v10h10v10h10v10h10v-60h-10v-10h-10v-10h-10v-10h-20v10h-10v10h-10v10h-10v60h10v10h10v-10zm0 40h10v10h-10v-10z"/><use xlink:href="#B"/><path d="M199.2 158.5h10v10h-10v-10zm-40 30v-10h-10v20h10v-10h0z"/><path d="M229.2 178.5h-10v20h10v-20h0zm-70 20h10v10h-10v-10zm40 10h10v10h-10v-10z"/><path d="M189.2 218.5h-10v10h20v-10h-10zm20-20h10v10h-10v-10zm-70 30h-10v-10h-10v-10h-10v20h10v10h10v10h20v-10h-10v-10zm110-10v10h-10v10h-10v10h20v-10h10v-10h10v-20h-10v10h-10z"/></g><use xlink:href="#B" x="-60"/><g fill="#ac15f9"><path d="M209.2 98.5v30h10v-30h-10zm0 50v10h10v-20h-10v10zm-70 0h-10v20h10v-20z"/><use xlink:href="#B" x="-70"/></g><g fill="#7e18f8"><path d="M129.2 168.5h10v10h-10v-10zm90-50v10h-20v20h10v-10h10v30h10v-60h-10v10zm-30-70h10v10h-10v-10z"/><use xlink:href="#B" x="-10" y="-110"/><use xlink:href="#B" y="-100"/><use xlink:href="#B" x="10" y="-90"/><use xlink:href="#B" x="20" y="-80"/><path d="M239.2 98.5h10v10h-10v-10zm0 50v30h10v-40h-10v10zm-50 50h10v10h-10v-10z"/><use xlink:href="#B" x="-10" y="20"/></g><g fill="#fa34f3"><path d="M199.2 78.5h-10v20h10v-20zm-40 50v10h10v-20h-10v10z"/><path d="M149.2 148.5v10h10v-20h-10v10zm20-40h10v10h-10v-10z"/><path d="M179.2 98.5h10v10h-10v-10zm20 10v10h-10v20h10v-10h10v-30h-10v10zm-20-60h10v10h-10v-10z"/><use xlink:href="#B" x="-40" y="-110"/><use xlink:href="#B" x="-50" y="-100"/><use xlink:href="#B" x="-60" y="-90"/><use xlink:href="#B" x="-70" y="-80"/><path d="M129.2 98.5h10v10h-10v-10zm100 70h10v10h-10v-10zm30 0h10v10h-10v-10zm-150 70h10v10h-10v-10zm150 0h10v10h-10v-10zm-150-70h10v10h-10v-10zm80 10h-10v10h-10v10h20v-10h10v-20h-10v10z"/></g><g fill="#cf15f9"><path d="M189.2 108.5h-10v10h-10v20h-10v20h-10v10h20v-10h10v-10h10v-30h10v-20h-10v10z"/><path d="M199.2 88.5h10v10h-10v-10zm-70 30v30h10v-40h-10v10zm60-60h-10v10h20v-10h-10z"/><use xlink:href="#B" x="-10" y="-100"/><use xlink:href="#B" y="-90"/><use xlink:href="#B" x="10" y="-80"/><use xlink:href="#B" x="20" y="-70"/><path d="M239.2 108.5v30h10v-30h-10zm-70-40h10v10h-10v-10z"/><use xlink:href="#B" x="-50" y="-90"/><use xlink:href="#B" x="-60" y="-80"/><path d="M139.2 98.5h10v10h-10v-10zm50 90h10v10h-10v-10z"/><path d="M179.2 198.5h10v10h-10v-10zm20-20h10v10h-10v-10z"/></g><path d="M179.2 78.5v10h-10v10h-10v10h-10v30h10v-20h10v-10h10v-10h10v-20h-10z" fill="#fab4f3"/><g fill="#ded7ff"><use xlink:href="#B" x="-30"/><use xlink:href="#B" x="-40" y="10"/></g><g fill="#e1e1e1"><use xlink:href="#B" x="-10" y="60"/><use xlink:href="#B" y="50"/><use xlink:href="#B" x="10" y="40"/><use xlink:href="#B" x="20" y="30"/><use xlink:href="#B" x="30" y="20"/><path d="M249.2 178.5h10v10h-10v-10zm-140 40h10v10h-10v-10zm150 0h10v10h-10v-10zm-90 10h10v10h-10v-10z"/><use xlink:href="#B" x="-50" y="50"/><use xlink:href="#B" x="-60" y="40"/><use xlink:href="#B" x="-70" y="30"/><path d="M129.2 188.5h10v10h-10v-10zm50-40h10v10h-10v-10z"/><path d="M169.2 158.5h10v10h-10v-10zm-20 20h10v10h-10v-10z"/><path d="M159.2 168.5h10v10h-10v-10zm-40 10h10v10h-10v-10z"/></g><g fill="#afafaf"><path d="M209.2 228.5h10v10h-10v-10zm-30-10h10v10h-10v-10z"/><path d="M219.2 218.5h10v10h-10v-10zm30-30h10v10h-10v-10z"/><path d="M259.2 178.5h10v10h-10v-10zm-30 30h10v10h-10v-10z"/><path d="M239.2 198.5h10v10h-10v-10zm-120 30h10v10h-10v-10z"/><path d="M129.2 238.5h10v10h-10v-10zm120-10h10v10h-10v-10z"/><path d="M239.2 238.5h10v10h-10v-10zm-80-10h10v10h-10v-10zm10-20h10v10h-10v-10zm20-60h10v10h-10v-10zm20 20h10v10h-10v-10z"/><path d="M199.2 158.5h10v10h-10v-10zm-50 30h10v10h-10v-10z"/><path d="M219.2 178.5h10v10h-10v-10zm-60 20h10v10h-10v-10zm-10 20h10v10h-10v-10zm-30-30h10v10h-10v-10z"/><path d="M109.2 178.5h10v10h-10v-10zm30 30h10v10h-10v-10z"/><use xlink:href="#B" x="-80" y="30"/></g><g fill="#7d7d7d"><path d="M199.2 238.5h-40v10h60v-10h-20zm0-30h10v10h-10v-10z"/><path d="M189.2 218.5h10v10h-10v-10zm20-20h10v10h-10v-10zm10 30h10v10h-10v-10zm30-30h10v10h-10v-10z"/><path d="M259.2 188.5h10v10h-10v-10zm-30 30h10v10h-10v-10z"/><path d="M239.2 208.5h10v10h-10v-10zm-120 10h10v10h-10v-10z"/><path d="M109.2 208.5h10v10h-10v-10zm30 30h10v10h-10v-10z"/><path d="M129.2 228.5h10v10h-10v-10zm120-10h10v10h-10v-10z"/><path d="M259.2 208.5h10v10h-10v-10zm-30 30h10v10h-10v-10z"/><path d="M239.2 228.5h10v10h-10v-10zm-20-40h10v10h-10v-10zm-70 40h10v10h-10v-10zm-30-30h10v10h-10v-10z"/><path d="M109.2 188.5h10v10h-10v-10zm30 30h10v10h-10v-10z"/><use xlink:href="#B" x="-80" y="40"/></g><path d="M199.2 38.5h-20v10h20v-10z"/><use xlink:href="#B" x="-10" y="-120"/><use xlink:href="#B" y="-110"/><use xlink:href="#B" x="10" y="-100"/><use xlink:href="#B" x="20" y="-90"/><path d="M239.2 88.5h10v10h-10v-10zm-70-40h10v10h-10v-10z"/><use xlink:href="#B" x="-50" y="-110"/><use xlink:href="#B" x="-60" y="-100"/><use xlink:href="#B" x="-70" y="-90"/><path d="M129.2 88.5h10v10h-10v-10zm110 20h-10v20 40h10v-60zm-100 60h10v-20-40h-10v60zm40-100v10h20v-10h-20z"/><path d="M169.2 78.5h10v10h-10v-10zm30 0h10v10h-10v-10z"/><use xlink:href="#B" y="-80"/><path d="M219.2 98.5h10v10h-10v-10zm-60-10h10v10h-10v-10z"/><path d="M149.2 98.5h10v10h-10v-10zm30 140h20v-10h-20v10zm0-20h20v-10h-20v10z"/><path d="M199.2 198.5h10v10h-10v-10zm0-50h10v10h-10v-10zm20 20h10v10h-10v-10z"/><path d="M229.2 198.5h10v-10h10v-10h-20v20zm-20-40h10v10h-10v-10zm50 40h10v10h-10v-10z"/><path d="M259.2 178.5v-10h10v30h10v-40h-20v-60h-10v80h10 0zm-40 20h10v10h-10v-10z"/><use xlink:href="#B" y="40"/><path d="M199.2 218.5h10v10h-10v-10zm-80-10h10v10h-10v-10z"/><use xlink:href="#B" x="-80" y="50"/><use xlink:href="#B" x="-70" y="60"/><use xlink:href="#B" x="-60" y="70"/><path d="M129.2 238.5h-10v10h-10v-10h10v-10h-10v-20h-10v50h50v-10h-20v-10zm120-30h10v10h-10v-10z"/><use xlink:href="#B" x="30" y="50"/><use xlink:href="#B" x="20" y="60"/><use xlink:href="#B" x="10" y="70"/><path d="M159.2 248.5v10h60v-10h-20-40zm100-20v10h10v10h-10v-10h-10v10h-20v10h50v-50h-10v20h-10zm-90-30h10v10h-10v-10zm20-40h-10v10h20v-10h-10z"/><path d="M199.2 168.5h10v10h-10v-10zm-30 0h10v10h-10v-10z"/><path d="M209.2 188.5v10h10v-20h-10v10h0zm-40-10h-10v20h10v-20h0zm-40 0v10h10v10h10v-20h-20 0zm-20 20h10v10h-10v-10z"/><path d="M109.2 168.5h10v10h10v-80h-10v60h-20v40h10v-20-10h0zm40 30h10v10h-10v-10z"/><use xlink:href="#B" x="-50" y="40"/><path d="M169.2 218.5h10v10h-10v-10zm30-80h-20v10h20v-10z"/><use xlink:href="#B" x="-40" y="-20"/><use xlink:href="#B" x="-50" y="-10"/><defs ><path id="B" d="M209.2 168.5h10v10h-10v-10z"/></defs></svg>