<svg xmlns="http://www.w3.org/2000/svg" xmlns:xlink="http://www.w3.org/1999/xlink" viewBox="0 0 378.4 378.4"><circle cx="189.2" cy="189.2" r="189.2" fill="#c689fa"/><use xlink:href="#B"/><path d="M148.9 317.8v5h10v2.5h-10v5h10v2.5h-12.5v-17.5h12.5v2.5h-10zm24.9 0v15h-2.5v-7.5h-7.5v7.5h-2.5v-15h2.5v5h7.5v-5h2.5zm-2.5 0h-7.5v-2.5h7.5v2.5z"/><use xlink:href="#B" x="44.9"/><path d="M193.8 317.8v12.5h-2.5v-12.5h2.5zm7.5 0h-7.5v-2.5h7.5v2.5zm-7.5 12.5h7.5v2.5h-7.5v-2.5h0zm10-12.5v12.5h-2.5v-12.5h2.5zm7.5 2.5v2.5h-2.5v10h-2.5v-17.5h2.5v5h2.5zm2.5 2.5v2.5h-2.5v-2.5h2.5zm5-7.5v17.5h-2.5v-5h-2.5v-2.5h2.5v-10h2.5zm22.5 0v2.5h-10v-2.5h10zm-7.5 10v5h10v2.5h-12.5v-7.5h2.5zm7.5 0h-7.5v-2.5h7.5v2.5zm2.5-2.5h-2.5v-5h2.5v5zm23.1-27v-5.6h-11.3v5.6h11.3zm-145.5 0v-5.6h-11.3v5.6h11.3zm14.6-20v29.9h5v-10h5v-5h-5v-10h5v10h5v-14.9h-15z"/><path d="M146 305.7h5v-10h-5v10zm10-29.9v29.8h5v-9.9h5v9.9h5v-29.8h-15zm9.9 15h-5v-9.9h5v9.9zm10-15v29.9h5v-10h5v-5h-5v-10h5v10h5v-14.9h-15z"/><path d="M185.8 305.7h5v-10h-5v10zm10 0h5v-29.9h-5v29.9zm10-29.9v5h5v24.9h5v-24.9h5v-5h-15zm29.8 0v14.9h5v-14.9h-5zm-4.9 0h-5v14.9h5v-14.9z"/><path d="M230.7 305.7h5v-15h-5v15zm56.9-155.9h9.4v47.1h9.4v-56.4h-18.8v9.3h0 0zm28.2 0v47.1H344v-47.1h-28.2zm18.8 37.6h-9.4v-28.2h9.4v28.2h0zM46.1 146.1v31.4h18.8v-31.4H46.1zm12.5 25.1h-6.2v-18.8h6.2v18.8h0zm12.6-25.1v31.4h6.3v-12.6H90v-18.8H71.2h0zm6.3 12.5v-6.2h6.2v6.2h-6.2zM24 152.4h6.3v25.1h6.3v-25.1h6.3v-6.3H24.1l-.1 6.3h0zm234.5 6.8v-60h-10v-10h-10v-10h-10v-10h-10v-10h-10v-10h-10v-10h-20v10h-10v10h-10v10h-10v10h-10v10h-10v10h-10v60h-20v40h10v10h-10v50h50v-10h10v10h60v-10h10v10h50v-50h-10v-10h10v-40h-20 0z"/><g fill="#4b25dc"><path d="M138.5 169.2h10v10h-10v-10zm120 0v10h-10v10h-10v10h-10v10h-10v10h-10v10h-10v10h-20v-10h-10v-10h-10v-10h-10v-10h-10v-10h-10v-10h-10v-10h-10v30h10v10h10v10h10v10h10v10h10v10h60v-10h10v-10h10v-10h10v-10h10v-10h10v-30h-10zm-150 70h10v10h-10v-10zm150 0h10v10h-10v-10z"/><path d="M138.5 109.2h10v-10h10v-10h10v-10h10v-10h20v10h10v10h10v10h10v10h10v60h-10v10h20v-80h-10v-10h-10v-10h-10v-10h-10v-10h-10v-10h-20v10h-10v10h-10v10h-10v10h-10v10h-10v70h10v-60h0zm70 70h-10v-10h-20v10h-10v20h10v10h20v-10h10v-20z"/><path d="M168.5 169.2h10v-10h20v-10h-10v-10h10v10h10v10h10v10h10v-60h-10v-10h-10v-10h-10v-10h-20v10h-10v10h-10v10h-10v60h10v10h10v-10h0zm0 40h10v10h-10v-10z"/><use xlink:href="#C"/><path d="M198.5 159.2h10v10h-10v-10zm-40 30v-10h-10v20h10v-10z"/><path d="M228.5 179.2h-10v20h10v-20zm-70 20h10v10h-10v-10zm40 10h10v10h-10v-10z"/><path d="M188.5 219.2h-10v10h20v-10h-10 0zm20-20h10v10h-10v-10zm-70 30h-10v-10h-10v-10h-10v20h10v10h10v10h20v-10h-10v-10zm110-10v10h-10v10h-10v10h20v-10h10v-10h10v-20h-10v10h-10z"/></g><g fill="#6241ff"><path d="M208.5 99.2v30h10v-30h-10zm0 50v10h10v-20h-10v10zm-70 0h-10v20h10v-20z"/><use xlink:href="#C" x="-70"/></g><g fill="#4b25dc"><path d="M128.5 169.2h10v10h-10v-10zm90-50v10h-20v20h10v-10h10v30h10v-60h-10v10zm-30-70h10v10h-10v-10z"/><use xlink:href="#C" x="-10" y="-110"/><use xlink:href="#C" y="-100"/><use xlink:href="#C" x="10" y="-90"/><use xlink:href="#C" x="20" y="-80"/><path d="M238.5 99.2h10v10h-10v-10zm0 50v30h10v-40h-10v10zm-50 50h10v10h-10v-10z"/><use xlink:href="#C" x="-10" y="20"/></g><g fill="#a08cff"><path d="M198.5 79.2h-10v20h10v-20zm-40 50v10h10v-20h-10v10z"/><path d="M148.5 149.2v10h10v-20h-10v10zm20-40h10v10h-10v-10z"/><path d="M178.5 99.2h10v10h-10v-10zm20 10v10h-10v20h10v-10h10v-30h-10v10zm-20-60h10v10h-10v-10z"/><use xlink:href="#C" x="-40" y="-110"/><use xlink:href="#C" x="-50" y="-100"/><use xlink:href="#C" x="-60" y="-90"/><use xlink:href="#C" x="-70" y="-80"/><path d="M128.5 99.2h10v10h-10v-10zm100 70h10v10h-10v-10zm30 0h10v10h-10v-10zm-150 70h10v10h-10v-10zm150 0h10v10h-10v-10zm-150-70h10v10h-10v-10zm80 10h-10v10h-10v10h20v-10h10v-20h-10v10z"/></g><g fill="#7a5fff"><path d="M188.5 109.2h-10v10h-10v20h-10v20h-10v10h20v-10h10v-10h10v-30h10v-20h-10v10h0z"/><path d="M198.5 89.2h10v10h-10v-10zm-70 30v30h10v-40h-10v10zm60-60h-10v10h20v-10h-10z"/><use xlink:href="#C" x="-10" y="-100"/><use xlink:href="#C" y="-90"/><use xlink:href="#C" x="10" y="-80"/><use xlink:href="#C" x="20" y="-70"/><path d="M238.5 109.2v30h10v-30h-10zm-70-40h10v10h-10v-10z"/><use xlink:href="#C" x="-50" y="-90"/><use xlink:href="#C" x="-60" y="-80"/><path d="M138.5 99.2h10v10h-10v-10zm50 90h10v10h-10v-10z"/><path d="M178.5 199.2h10v10h-10v-10zm20-20h10v10h-10v-10z"/></g><g fill="#ded7ff"><path d="M178.5 79.2v10h-10v10h-10v10h-10v30h10v-20h10v-10h10v-10h10v-20h-10zm0 90h10v10h-10v-10z"/><use xlink:href="#C" x="-40" y="10"/></g><g fill="#e1e1e1"><use xlink:href="#C" x="-10" y="60"/><use xlink:href="#C" y="50"/><use xlink:href="#C" x="10" y="40"/><use xlink:href="#C" x="20" y="30"/><use xlink:href="#C" x="30" y="20"/><path d="M248.5 179.2h10v10h-10v-10zm-140 40h10v10h-10v-10zm150 0h10v10h-10v-10zm-90 10h10v10h-10v-10z"/><use xlink:href="#C" x="-50" y="50"/><use xlink:href="#C" x="-60" y="40"/><use xlink:href="#C" x="-70" y="30"/><path d="M128.5 189.2h10v10h-10v-10zm50-40h10v10h-10v-10z"/><path d="M168.5 159.2h10v10h-10v-10zm-20 20h10v10h-10v-10z"/><path d="M158.5 169.2h10v10h-10v-10zm-40 10h10v10h-10v-10z"/></g><g fill="#afafaf"><path d="M208.5 229.2h10v10h-10v-10zm-30-10h10v10h-10v-10z"/><path d="M218.5 219.2h10v10h-10v-10zm30-30h10v10h-10v-10z"/><path d="M258.5 179.2h10v10h-10v-10zm-30 30h10v10h-10v-10z"/><path d="M238.5 199.2h10v10h-10v-10zm-120 30h10v10h-10v-10z"/><path d="M128.5 239.2h10v10h-10v-10zm120-10h10v10h-10v-10z"/><path d="M238.5 239.2h10v10h-10v-10zm-80-10h10v10h-10v-10zm10-20h10v10h-10v-10zm20-60h10v10h-10v-10zm20 20h10v10h-10v-10z"/><path d="M198.5 159.2h10v10h-10v-10zm-50 30h10v10h-10v-10z"/><path d="M218.5 179.2h10v10h-10v-10zm-60 20h10v10h-10v-10zm-10 20h10v10h-10v-10zm-30-30h10v10h-10v-10z"/><path d="M108.5 179.2h10v10h-10v-10zm30 30h10v10h-10v-10z"/><use xlink:href="#C" x="-80" y="30"/></g><g fill="#7d7d7d"><path d="M198.5 239.2h-40v10h60v-10h-20zm0-30h10v10h-10v-10z"/><path d="M188.5 219.2h10v10h-10v-10zm20-20h10v10h-10v-10zm10 30h10v10h-10v-10zm30-30h10v10h-10v-10z"/><path d="M258.5 189.2h10v10h-10v-10zm-30 30h10v10h-10v-10z"/><path d="M238.5 209.2h10v10h-10v-10zm-120 10h10v10h-10v-10z"/><path d="M108.5 209.2h10v10h-10v-10zm30 30h10v10h-10v-10z"/><path d="M128.5 229.2h10v10h-10v-10zm120-10h10v10h-10v-10z"/><path d="M258.5 209.2h10v10h-10v-10zm-30 30h10v10h-10v-10z"/><path d="M238.5 229.2h10v10h-10v-10zm-20-40h10v10h-10v-10zm-70 40h10v10h-10v-10zm-30-30h10v10h-10v-10z"/><path d="M108.5 189.2h10v10h-10v-10zm30 30h10v10h-10v-10z"/><use xlink:href="#C" x="-80" y="40"/></g><path d="M198.5 39.2h-20v10h20v-10z"/><use xlink:href="#C" x="-10" y="-120"/><use xlink:href="#C" y="-110"/><use xlink:href="#C" x="10" y="-100"/><use xlink:href="#C" x="20" y="-90"/><path d="M238.5 89.2h10v10h-10v-10zm-70-40h10v10h-10v-10z"/><use xlink:href="#C" x="-50" y="-110"/><use xlink:href="#C" x="-60" y="-100"/><use xlink:href="#C" x="-70" y="-90"/><path d="M128.5 89.2h10v10h-10v-10zm100 80h10v-60h-10v20 40zm-80-60h-10v60h10v-20-40zm50-40h-20v10h20v-10z"/><path d="M168.5 79.2h10v10h-10v-10zm30 0h10v10h-10v-10z"/><use xlink:href="#C" y="-80"/><path d="M218.5 99.2h10v10h-10v-10zm-60-10h10v10h-10v-10z"/><path d="M148.5 99.2h10v10h-10v-10zm30 140h20v-10h-20v10h0zm0-20h20v-10h-20v10h0z"/><path d="M198.5 199.2h10v10h-10v-10zm0-50h10v10h-10v-10zm20 20h10v10h-10v-10z"/><path d="M228.5 199.2h10v-10h10v-10h-20v20zm-20-40h10v10h-10v-10zm50 40h10v10h-10v-10z"/><path d="M258.5 179.2v-10h10v30h10v-40h-10-10v-60h-10v80h10zm-40 20h10v10h-10v-10z"/><use xlink:href="#C" y="40"/><path d="M198.5 219.2h10v10h-10v-10zm-80-10h10v10h-10v-10z"/><use xlink:href="#C" x="-80" y="50"/><use xlink:href="#C" x="-70" y="60"/><use xlink:href="#C" x="-60" y="70"/><path d="M128.5 239.2h-10v10h-10v-10h10v-10h-10v-20h-10v50h50v-10h-20v-10zm120-30h10v10h-10v-10z"/><use xlink:href="#C" x="30" y="50"/><use xlink:href="#C" x="20" y="60"/><use xlink:href="#C" x="10" y="70"/><path d="M158.5 249.2v10h60v-10h-20-40 0zm100-20v10h10v10h-10v-10h-10v10h-20v10h50v-50h-10v20h-10zm-90-30h10v10h-10v-10zm20-40h-10v10h20v-10h-10z"/><path d="M198.5 169.2h10v10h-10v-10zm-30 0h10v10h-10v-10z"/><path d="M208.5 189.2v10h10v-20h-10v10zm-50-10v20h10v-20h-10z"/><use xlink:href="#C" x="-60"/><path d="M128.5 179.2v10h10v10h10v-20h-20zm-20 20h10v10h-10v-10z"/><path d="M108.5 169.2h10v10h10v-80h-10v60h-20v40h10v-20-10zm40 30h10v10h-10v-10z"/><use xlink:href="#C" x="-50" y="40"/><path d="M168.5 219.2h10v10h-10v-10zm30-80h-20v10h20v-10z"/><use xlink:href="#C" x="-40" y="-20"/><use xlink:href="#C" x="-50" y="-10"/><defs ><path id="B" d="M133.9 317.8v5h-2.5v-5h2.5zm-2.5 12.5h10v2.5h-10v-2.5zm12.5-12.5h-10v-2.5h10v2.5zm-10 7.5v-2.5h7.5v2.5h-7.5zm7.5 5v-5h2.5v5h-2.5z"/><path id="C" d="M208.5 169.2h10v10h-10v-10z"/></defs></svg>