<svg xmlns="http://www.w3.org/2000/svg" xmlns:xlink="http://www.w3.org/1999/xlink" viewBox="0 0 379.8 379.8"><circle cx="189.9" cy="189.9" r="189.9" fill="#22dff0"/><path d="M135.3 318.5v5h-2.5v-5h2.5zm-2.5 12.5h10v2.5h-10V331zm12.5-12.5h-10V316h10v2.5zm-10 7.5v-2.5h7.5v2.5h-7.5zm7.5 5v-5h2.5v5h-2.5zm7.5-12.5v5h10v2.5h-10v5h10v2.5h-12.5V316h12.5v2.5h-10zm25 0v15h-2.5V326h-7.5v7.5h-2.5v-15h2.5v5h7.5v-5h2.5zm-2.5 0h-7.5V316h7.5v2.5zm7.5 0v5h-2.5v-5h2.5zm-2.5 12.5h10v2.5h-10V331zm12.4-12.5h-10V316h10v2.5zm-9.9 7.5v-2.5h7.5v2.5h-7.5zm7.5 5v-5h2.5v5h-2.5zm7.4-12.5V331h-2.5v-12.5h2.5zm7.5 0h-7.5V316h7.5v2.5zm-7.5 12.5h7.5v2.5h-7.5V331zm10-12.5V331h-2.5v-12.5h2.5zm7.5 2.5v2.5h-2.5v10h-2.5V316h2.5v5h2.5zm2.5 2.5v2.5h-2.5v-2.5h2.5zm5-7.5v17.5h-2.5v-5h-2.5V326h2.5v-10h2.5zm22.5 0v2.5h-10V316h10zm-7.5 10v5h10v2.5h-12.5V326h2.5zm7.5 0h-7.5v-2.5h7.5v2.5zm2.5-2.5h-2.5v-5h2.5v5zm-6.9-27v-5.6H227v5.6h11.3zm-85.5 0v-5.6h-11.3v5.6h11.3zm24.7-20h-5v10h5v-10zm5 10h5v-10h-5v10z"/><path d="M177.5 286.5h5v5h-5v-5z"/><path d="M172.5 306.4h5v-14.9h-5v14.9zm10 0h5v-14.9h-5v14.9zm9.9-29.9v29.8h5v-9.9h9.9v-19.9c-2.4.1-14.9 0-14.9 0zm10 15h-5v-9.9h5v9.9zm86-146.1h6.3v31.4h6.3v-37.6h-12.6v6.2zm18.8 0v31.4H326v-31.4h-18.8zm12.6 25.1h-6.2v-18.8h6.2v18.8zm12.5-25.1v31.4h18.8v-31.4h-18.8zm12.5 25.1h-6.2v-18.8h6.2v18.8zM32.9 147.1h2v6.1h-2v-6.1zm0-6.1h2v4.1h-2V141z"/><path d="M26.8 147.1h6.1V145h-6.1v-4h6.1v-2.1h-8.1v14.3h2v-6.1zm12.2-8.2h6.1v2H39v-2zm-2 2.1h2v10.2h-2V141zm8.1 0h2v10.2h-2V141z"/><path d="M39 151.2h6.1v2H39v-2zM49.2 141h2v10.2h-2V141z"/><path d="M51.2 151.2h6.1v2h-6.1v-2zm0-12.3h6.1v2h-6.1v-2z"/><path d="M57.3 141h2v10.2h-2V141zm12.2-2.1h2v2h-2v-2zm-6.1 0h-2v14.3h2v-6.1h2.1V145h-2.1v-6.1z"/><path d="M65.5 147.1h2v2h-2v-2zm0-4.1h2v2h-2v-2z"/><path d="M67.5 141h2.1v2.1h-2.1V141zm0 8.1h2.1v2.1h-2.1v-2.1z"/><path d="M69.5 151.2h2v2h-2v-2zm10.2 0h-2V141h2v-2.1h-6.1v2.1h2v10.2h-2v2h6.1v-2zM91.9 141v-2.1H81.7v14.3h10.2v-2h-8.2v-4.1h8.2V145h-8.2v-4h8.2zm-45.1 19v31.4h18.8V160H46.8zm12.6 25.1h-6.2v-18.8h6.2v18.8zM71.9 160v31.4h6.3v-12.6h12.5V160H71.9h0 0zm6.3 12.6v-6.2h6.2v6.2h-6.2zm-53.4-6.3h6.3v25.1h6.2v-25.1h6.3V160H24.8v6.3zm235.1-6.4v-70h-10v-10h-10v-10h-10v-10h-20v-10h-40v10h-20v10h-10v10h-10v10h-10v70h-20v40h10v10h-10v50h50v-10h10v10h60v-10h10v10h50v-50h-10v-10h10v-40h-20z"/><g fill="#00beff"><path d="M149.9 179.9v-10h-10v-60h10v-10h10v-10h10v-10h40v10h10v10h10v10h10v60h-10v10h20v-90h-10v-10h-10v-10h-20v-10h-40v10h-20v10h-10v10h-10v90h20z"/><path d="M259.9 169.9v10h-10v10h-10v10h-10v10h-10v10h-10v10h-10v10h-20v-10h-10v-10h-10v-10h-10v-10h-10v-10h-10v-10h-10v-10h-10v30h10v10h10v10h10v10h10v10h10v10h60v-10h10v-10h10v-10h10v-10h10v-10h10v-30h-10zm-150 70h10v10h-10v-10zm150 0h10v10h-10v-10zm-100-80h10v-10h10v-10h20v10h10v10h10v10h10v-60h-10v-10h-10v-10h-40v10h-10v10h-10v60h10v-10z"/><path d="M209.9 179.9h-10v-10h-20v10h-10v20h10v10h20v-10h10v-20zm-20-20h10v-10h-20v10h10z"/><use xlink:href="#B"/><path d="M159.9 169.9h10v10h-10v-10zm10 40h10v10h-10v-10zm40-40h10v10h-10v-10z"/><path d="M199.9 159.9h10v10h-10v-10zm-40 30v-10h-10v20h10v-10z"/><path d="M229.9 179.9h-10v20h10v-20zm-70 20h10v10h-10v-10zm40 10h10v10h-10v-10z"/><path d="M189.9 219.9h-10v10h20v-10h-10zm20-20h10v10h-10v-10zm-70 30h-10v-10h-10v-10h-10v20h10v10h10v10h20v-10h-10v-10zm110-10v10h-10v10h-10v10h20v-10h10v-10h10v-20h-10v10h-10z"/></g><path d="M219.9 69.9h10v-10h-20v10h10z"/><use xlink:href="#B" x="60" y="-90"/><path d="M239.9 79.9h10v10h-10v-10zm-70-10v-10h-20v10h20z"/><use xlink:href="#B" x="-30" y="-90"/><path d="M129.9 79.9h10v10h-10v-10zm100 50v40h10v-60h-10v20zm-80 20v-40h-10v60h10v-20zm40-90h20v-10h-40v10h20zm0 30h20v-10h-40v10h20z"/><use xlink:href="#B" x="40" y="-70"/><path d="M219.9 99.9h10v10h-10v-10zm-60-10h10v10h-10v-10z"/><path d="M149.9 99.9h10v10h-10v-10zm30 130v10h20v-10h-20zm20-80v-10h-20v10h20zm-20 60v10h20v-10h-20z"/><path d="M199.9 199.9h10v10h-10v-10zm0-50h10v10h-10v-10zm20 20h10v10h-10v-10z"/><path d="M229.9 179.9v20h10v-10h10v-10h-20zm-20-20h10v10h-10v-10zm50 40h10v10h-10v-10z"/><path d="M259.9 159.9v-70h-10v90h10v-10h10v30h10v-40h-20zm-40 40h10v10h-10v-10z"/><use xlink:href="#B" x="40" y="50"/><path d="M199.9 219.9h10v10h-10v-10zm-80-10h10v10h-10v-10z"/><use xlink:href="#B" x="-40" y="60"/><use xlink:href="#B" x="-30" y="70"/><use xlink:href="#B" x="-20" y="80"/><path d="M129.9 249.9v-10h-10v10h-10v-10h10v-10h-10v-20h-10v50h50v-10h-20zm120-40h10v10h-10v-10z"/><use xlink:href="#B" x="70" y="60"/><use xlink:href="#B" x="60" y="70"/><use xlink:href="#B" x="50" y="80"/><path d="M199.9 249.9h-40v10h60v-10h-20zm70-20h-10v10h10v10h-10v-10h-10v10h-20v10h50v-50h-10v20zm-100-30h10v10h-10v-10zm20-40h-10v10h20v-10h-10z"/><path d="M199.9 169.9h10v10h-10v-10zm-30 0h10v10h-10v-10z"/><path d="M209.9 189.9v10h10v-20h-10v10zm-40-10h-10v20h10v-20z"/><path d="M169.9 149.9h10v10h-10v-10zm-20 20h10v10h-10v-10z"/><path d="M149.9 179.9h-20v10h10v10h10v-20zm10-20h10v10h-10v-10zm-50 40h10v10h-10v-10z"/><path d="M109.9 179.9v-10h10v10h10v-90h-10v70h-20v40h10v-20zm40 20h10v10h-10v-10z"/><use xlink:href="#B" x="-10" y="50"/><path d="M169.9 219.9h10v10h-10v-10zm20-20h10v10h-10v-10z"/><use xlink:href="#B" x="30" y="30"/><g fill="#0041e6"><use xlink:href="#B" x="10" y="40"/><use xlink:href="#B" x="20" y="30"/><use xlink:href="#B" x="30" y="20"/><path d="M189.9 169.9v10h-10v10h-10v10h20v-10h10v-20h-10z"/></g><g fill="#005fff"><path d="M209.9 119.9v10h10v-20h-10v10zm0 30v10h10v-20h-10v10zm10-70h10v10h-10v-10z"/><use xlink:href="#B" x="60" y="-70"/><path d="M239.9 99.9h10v10h-10v-10zm-100 50h-10v20h10v-20z"/><use xlink:href="#B" x="-30" y="10"/></g><g fill="#0041e6"><path d="M199.9 59.9h-10v10h20v-10h-10z"/><path d="M219.9 69.9h-10v10h20v-10h-10z"/><use xlink:href="#B" x="60" y="-80"/><path d="M239.9 89.9h10v10h-10v-10zm0 60v30h10v-40h-10v10zm-110 20h10v10h-10v-10zm90-60v20h-20v20h10v-10h10v30h10v-60h-10zm-20-20h10v10h-10v-10z"/><path d="M209.9 99.9h10v10h-10v-10zm-20 100h10v10h-10v-10z"/><use xlink:href="#B" x="30" y="30"/></g><g fill="#00beff"><path d="M199.9 89.9h-10v10h-20v10h-10v30h10v-20h10v-10h20v-20z"/><path d="M149.9 149.9v10h10v-20h-10v10zm50-30h-10v20h10v-10h10v-20h-10v10zm-50-40h10v10h-10v-10z"/><use xlink:href="#B" x="-30" y="-70"/><path d="M129.9 99.9h10v10h-10v-10zm100 70h10v10h-10v-10z"/></g><path d="M259.9 169.9h10v10h-10v-10zm-150 70h10v10h-10v-10zm150 0h10v10h-10v-10zm-150-70h10v10h-10v-10z" fill="#64faff"/><path d="M189.9 179.9h-10v10h-10v10h20v-10h10v-20h-10v10z" fill="#00beff"/><g fill="#0096ff"><use xlink:href="#B" x="-20"/><path d="M179.9 119.9h-10v20h-10v20h10v-10h10v-10h10v-20h10v-10h-20v10z"/><path d="M199.9 99.9h10v10h-10v-10zm-40-20h10v10h-10v-10z"/><use xlink:href="#B" x="-20" y="-70"/><path d="M139.9 99.9h10v10h-10v-10zm60-30h-10v-10h-10v10h-10v10h40v-10h-10z"/><use xlink:href="#B" x="40" y="-80"/><use xlink:href="#B" x="50" y="-70"/><path d="M229.9 99.9h10v10h-10v-10zm-100 20v30h10v-40h-10v10z"/><path d="M239.9 109.9v30h10v-30h-10zm-50 80h10v10h-10v-10z"/><path d="M179.9 199.9h10v10h-10v-10zm20-20h10v10h-10v-10z"/></g><g fill="#64faff"><path d="M179.9 89.9h-10v10h20v-10h-10zm-30 30v20h10v-30h-10v10z"/><path d="M159.9 99.9h10v10h-10v-10zm10-40h10v10h-10v-10z"/><path d="M169.9 79.9v-10h-20v10h20z"/><use xlink:href="#B" x="-30" y="-80"/><path d="M129.9 89.9h10v10h-10v-10zm50 80h10v10h-10v-10z"/><use xlink:href="#B" y="20"/></g><g fill="#e1e1e1"><use xlink:href="#B" x="30" y="70"/><use xlink:href="#B" x="40" y="60"/><use xlink:href="#B" x="50" y="50"/><use xlink:href="#B" x="60" y="40"/><use xlink:href="#B" x="70" y="30"/><path d="M249.9 179.9h10v10h-10v-10zm-140 40h10v10h-10v-10zm150 0h10v10h-10v-10zm-90 10h10v10h-10v-10z"/><use xlink:href="#B" x="-10" y="60"/><use xlink:href="#B" x="-20" y="50"/><use xlink:href="#B" x="-30" y="40"/><path d="M129.9 189.9h10v10h-10v-10zm50-40h10v10h-10v-10z"/><path d="M169.9 159.9h10v10h-10v-10zm-20 20h10v10h-10v-10z"/><path d="M159.9 169.9h10v10h-10v-10zm-40 10h10v10h-10v-10z"/></g><g fill="#afafaf"><path d="M209.9 229.9h10v10h-10v-10zm-30-10h10v10h-10v-10z"/><path d="M219.9 219.9h10v10h-10v-10zm30-30h10v10h-10v-10z"/><path d="M259.9 179.9h10v10h-10v-10zm-30 30h10v10h-10v-10z"/><path d="M239.9 199.9h10v10h-10v-10zm-120 30h10v10h-10v-10z"/><path d="M129.9 239.9h10v10h-10v-10zm120-10h10v10h-10v-10z"/><path d="M239.9 239.9h10v10h-10v-10zm-80-10h10v10h-10v-10zm10-20h10v10h-10v-10zm20-60h10v10h-10v-10zm20 20h10v10h-10v-10z"/><path d="M199.9 159.9h10v10h-10v-10zm-50 30h10v10h-10v-10z"/><path d="M219.9 179.9h10v10h-10v-10zm-60 20h10v10h-10v-10zm-10 20h10v10h-10v-10zm-30-30h10v10h-10v-10z"/><path d="M109.9 179.9h10v10h-10v-10zm30 30h10v10h-10v-10z"/><use xlink:href="#B" x="-40" y="40"/></g><g fill="#7d7d7d"><path d="M199.9 239.9h-40v10h60v-10h-20zm0-30h10v10h-10v-10z"/><path d="M189.9 219.9h10v10h-10v-10zm20-20h10v10h-10v-10zm10 30h10v10h-10v-10zm30-30h10v10h-10v-10z"/><path d="M259.9 189.9h10v10h-10v-10zm-30 30h10v10h-10v-10z"/><path d="M239.9 209.9h10v10h-10v-10zm-120 10h10v10h-10v-10z"/><path d="M109.9 209.9h10v10h-10v-10zm30 30h10v10h-10v-10z"/><path d="M129.9 229.9h10v10h-10v-10zm120-10h10v10h-10v-10z"/><path d="M259.9 209.9h10v10h-10v-10zm-30 30h10v10h-10v-10z"/><path d="M239.9 229.9h10v10h-10v-10zm-20-40h10v10h-10v-10zm-70 40h10v10h-10v-10zm-30-30h10v10h-10v-10z"/><path d="M109.9 189.9h10v10h-10v-10zm30 30h10v10h-10v-10z"/><use xlink:href="#B" x="-40" y="50"/></g><defs ><path id="B" d="M169.9 159.9h10v10h-10v-10z"/></defs></svg>