<svg xmlns="http://www.w3.org/2000/svg" viewBox="0 0 500 500"><circle cx="250" cy="250" r="189.2" fill="#f041f8"/><path d="M317.1 350.2v5.6h11.3v-5.6h-11.3zm-145.4 5.7H183v-5.6h-11.3v5.6zm31.2-10h5v-10h-5v10z"/><path d="M197.9 336h-5v29.9h5v-15h5v-5h-5V336z"/><path d="M207.9 365.8v-15h-5v15h5zm10-29.8h-5v5 24.9h5V336zm4.9 29.8h5v-24.9h5v24.9h5v-29.9h-15v29.9zm34.9-19.9h-10v-5h10v-5h-15v14.9h10v10h-10v5h15v-19.9zm34.5 19.9h5v-9.9h9.9V336h-14.9v29.8zm5-24.9h5v9.9h-5v-9.9zm-24.6 24.9h5v-29.9h-5v14.9h-5v-14.9h-5v29.9h5v-10h5v10zm10 0h5v-29.9h-5v29.9zm-87.2 17.1h7.5v2.5h-7.5z"/><path d="M195.4 375.4h10v2.5h-10zm7.5 10h2.5v5h-2.5z"/><path d="M192.9 377.9h2.5v5h-2.5zm0 12.5h10v2.5h-10zm15 2.5h12.5v-2.5h-10v-5h10v-2.5h-10v-5h10v-2.5h-12.5zm25-10h-7.5v-5h-2.5v15h2.5v-7.5h7.5v7.5h2.5v-15h-2.5z"/><path d="M225.4 375.4h7.5v2.5h-7.5zm15 0h10v2.5h-10zm0 7.5h7.5v2.5h-7.5z"/><path d="M247.9 385.4h2.5v5h-2.5zm-10-7.5h2.5v5h-2.5z"/><path d="M237.9 390.4h10v2.5h-10zm25-12.5h2.5v12.5h-2.5zm-7.6-2.5h7.5v2.5h-7.5zm0 15h7.5v2.5h-7.5z"/><path d="M252.9 377.9h2.5v12.5h-2.5zm19.9 5h2.5v2.5h-2.5z"/><path d="M277.8 385.4h-2.5v2.5h2.5v5h2.5v-17.5h-2.5zm-7.5-5v-5h-2.5v17.5h2.5v-10h2.5v-2.5zm25 2.5h7.5v2.5h-7.5z"/><path d="M302.8 377.9h2.5v5h-2.5z"/><path d="M292.8 375.4h10v2.5h-10zm0 17.5h12.5v-2.5h-10v-5h-2.5zm55.6-182.3h9.4v47.1h9.4v-56.5h-18.8zm28.2 0v47.1h28.2v-47.1h-28.2zm18.8 37.6H386V220h9.4v28.2zM93.1 206.5h2v6.1h-2zm0-6.2h2v4.1h-2z"/><path d="M86.9 206.5h6.2v-2.1h-6.2v-4.1h6.2v-2h-8.2v14.3h2zm12.2-8.2h6.1v2h-6.1z"/><path d="M97.1 200.3h2v10.2h-2zm8.2 0h2v10.2h-2zm-6.2 10.3h6.1v2h-6.1zm10.2-10.3h2v10.2h-2z"/><path d="M111.3 210.6h6.1v2h-6.1zm0-12.3h6.1v2h-6.1zm6.2 2h2v10.2h-2zm12.1-2h2v2h-2zm-6.1 0h-2v14.3h2v-6.1h2.1v-2.1h-2.1z"/><path d="M125.6 206.5h2v2h-2zm0-4.1h2v2h-2z"/><path d="M127.6 200.3h2.1v2.1h-2.1zm0 8.2h2.1v2.1h-2.1z"/><path d="M129.6 210.6h2v2h-2zm10.2 0h-2v-10.3h2v-2h-6.1v2h2v10.3h-2v2h6.1zm12.2-10.3v-2h-10.2v14.3H152v-2h-8.2v-4.1h8.2v-2.1h-8.2v-4.1zm-45 19.1v31.4h18.8v-31.4H107zm12.5 25.1h-6.2v-18.8h6.2v18.8zm12.5-25.1v31.4h6.3v-12.6h12.5v-18.8H132zm6.3 12.6v-6.2h6.2v6.2h-6.2zm-53.4-6.3h6.3v25.1h6.2v-25.1h6.3v-6.3H84.9zm235.1-6.4v-70h-10v-10h-10v-10h-10v-10h-20v-10h-40v10h-20v10h-10v10h-10v10h-10v70h-20v40h10v10h-10v50h50v-10h10v10h60v-10h10v10h50v-50h-10v-10h10v-40h-20z"/><g fill="#fa34f3"><path d="M210 239.3v-10h-10v-60h10v-10h10v-10h10v-10h40v10h10v10h10v10h10v60h-10v10h20v-90h-10v-10h-10v-10h-20v-10h-40v10h-20v10h-10v10h-10v90h20z"/><path d="M320 229.3v10h-10v10h-10v10h-10v10h-10v10h-10v10h-10v10h-20v-10h-10v-10h-10v-10h-10v-10h-10v-10h-10v-10h-10v-10h-10v30h10v10h10v10h10v10h10v10h10v10h60v-10h10v-10h10v-10h10v-10h10v-10h10v-30h-10zm-150 70h10v10h-10zm150 0h10v10h-10zm-100-80h10v-10h10v-10h20v10h10v10h10v10h10v-60h-10v-10h-10v-10h-40v10h-10v10h-10v60h10v-10z"/><path d="M270 239.3h-10v-10h-20v10h-10v20h10v10h20v-10h10v-20zm-20-20h10v-10h-20v10h10z"/><path d="M230 219.3h10v10h-10z"/><path d="M220 229.3h10v10h-10zm10 40h10v10h-10zm40-40h10v10h-10z"/><path d="M260 219.3h10v10h-10zm-40 30v-10h-10v20h10v-10z"/><path d="M290 239.3h-10v20h10v-20zm-70 20h10v10h-10zm40 10h10v10h-10z"/><path d="M250 279.3h-10v10h20v-10h-10zm20-20h10v10h-10zm-70 30h-10v-10h-10v-10h-10v20h10v10h10v10h20v-10h-10v-10zm110-10v10h-10v10h-10v10h20v-10h10v-10h10v-20h-10v10h-10z"/></g><path d="M280 129.3h10v-10h-20v10h10z"/><path d="M290 129.3h10v10h-10z"/><path d="M300 139.3h10v10h-10zm-70-10v-10h-20v10h20z"/><path d="M200 129.3h10v10h-10z"/><path d="M190 139.3h10v10h-10zm100 50v40h10v-60h-10v20zm-80 20v-40h-10v60h10v-20zm40-90h20v-10h-40v10h20zm0 30h20v-10h-40v10h20z"/><path d="M270 149.3h10v10h-10z"/><path d="M280 159.3h10v10h-10zm-60-10h10v10h-10z"/><path d="M210 159.3h10v10h-10zm30 130v10h20v-10h-20zm20-80v-10h-20v10h20zm-20 60v10h20v-10h-20z"/><path d="M260 259.3h10v10h-10zm0-50h10v10h-10zm20 20h10v10h-10z"/><path d="M290 239.3v20h10v-10h10v-10h-20zm-20-20h10v10h-10zm50 40h10v10h-10z"/><path d="M320 219.3v-70h-10v90h10v-10h10v30h10v-40h-20zm-40 40h10v10h-10z"/><path d="M270 269.3h10v10h-10z"/><path d="M260 279.3h10v10h-10zm-80-10h10v10h-10z"/><path d="M190 279.3h10v10h-10z"/><path d="M200 289.3h10v10h-10z"/><path d="M210 299.3h10v10h-10z"/><path d="M190 309.3v-10h-10v10h-10v-10h10v-10h-10v-20h-10v50h50v-10h-20zm120-40h10v10h-10z"/><path d="M300 279.3h10v10h-10z"/><path d="M290 289.3h10v10h-10z"/><path d="M280 299.3h10v10h-10z"/><path d="M260 309.3h-40v10h60v-10h-20zm70-20h-10v10h10v10h-10v-10h-10v10h-20v10h50v-50h-10v20zm-100-30h10v10h-10zm20-40h-10v10h20v-10h-10z"/><path d="M260 229.3h10v10h-10zm-30 0h10v10h-10z"/><path d="M270 249.3v10h10v-20h-10v10zm-40-10h-10v20h10v-20z"/><path d="M230 209.3h10v10h-10zm-20 20h10v10h-10z"/><path d="M210 239.3h-20v10h10v10h10v-20zm10-20h10v10h-10zm-50 40h10v10h-10z"/><path d="M170 239.3v-10h10v10h10v-90h-10v70h-20v40h10v-20zm40 20h10v10h-10z"/><path d="M220 269.3h10v10h-10z"/><path d="M230 279.3h10v10h-10zm20-20h10v10h-10z"/><path d="M260 249.3h10v10h-10z"/><g fill="#8f17f9"><path d="M240 259.3h10v10h-10z"/><path d="M250 249.3h10v10h-10z"/><path d="M260 239.3h10v10h-10z"/><path d="M250 229.3v10h-10v10h-10v10h20v-10h10v-20h-10z"/></g><g fill="#ac15f9"><path d="M270 179.3v10h10v-20h-10v10zm0 30v10h10v-20h-10v10zm10-70h10v10h-10z"/><path d="M290 149.3h10v10h-10z"/><path d="M300 159.3h10v10h-10zm-100 50h-10v20h10v-20z"/><path d="M200 229.3h10v10h-10z"/></g><g fill="#7e18f8"><path d="M260 119.3h-10v10h20v-10h-10z"/><path d="M280 129.3h-10v10h20v-10h-10z"/><path d="M290 139.3h10v10h-10z"/><path d="M300 149.3h10v10h-10zm0 60v30h10v-40h-10v10zm-110 20h10v10h-10z"/></g><g fill="#8f17f9"><path d="M280 169.3v20h-20v20h10v-10h10v30h10v-60h-10zm-20-20h10v10h-10z"/><path d="M270 159.3h10v10h-10zm-20 100h10v10h-10z"/><path d="M260 249.3h10v10h-10z"/></g><g fill="#fa34f3"><path d="M260 149.3h-10v10h-20v10h-10v30h10v-20h10v-10h20v-20z"/><path d="M210 209.3v10h10v-20h-10v10zm50-30h-10v20h10v-10h10v-20h-10v10zm-50-40h10v10h-10z"/><path d="M200 149.3h10v10h-10z"/><path d="M190 159.3h10v10h-10zm100 70h10v10h-10zm30 0h10v10h-10zm-150 70h10v10h-10zm150 0h10v10h-10zm-150-70h10v10h-10zm80 10h-10v10h-10v10h20v-10h10v-20h-10v10z"/></g><g fill="#cf15f9"><path d="M210 219.3h10v10h-10z"/><path d="M240 179.3h-10v20h-10v20h10v-10h10v-10h10v-20h10v-10h-20v10z"/><path d="M260 159.3h10v10h-10zm-40-20h10v10h-10z"/><path d="M210 149.3h10v10h-10z"/><path d="M200 159.3h10v10h-10zm60-30h-10v-10h-10v10h-10v10h40v-10h-10z"/><path d="M270 139.3h10v10h-10z"/><path d="M280 149.3h10v10h-10z"/><path d="M290 159.3h10v10h-10zm-100 20v30h10v-40h-10v10z"/><path d="M300 169.3v30h10v-30h-10zm-50 80h10v10h-10z"/><path d="M240 259.3h10v10h-10zm20-20h10v10h-10z"/></g><g fill="#fab4f3"><path d="M240 149.3h-10v10h20v-10h-10zm-30 30v20h10v-30h-10v10z"/><path d="M220 159.3h10v10h-10zm10-40h10v10h-10z"/><path d="M230 139.3v-10h-20v10h20z"/><path d="M200 139.3h10v10h-10z"/><path d="M190 149.3h10v10h-10zm50 80h10v10h-10z"/><path d="M230 239.3h10v10h-10z"/></g><g fill="#e1e1e1"><path d="M260 289.3h10v10h-10z"/><path d="M270 279.3h10v10h-10z"/><path d="M280 269.3h10v10h-10z"/><path d="M290 259.3h10v10h-10z"/><path d="M300 249.3h10v10h-10z"/><path d="M310 239.3h10v10h-10zm-140 40h10v10h-10zm150 0h10v10h-10zm-90 10h10v10h-10z"/><path d="M220 279.3h10v10h-10z"/><path d="M210 269.3h10v10h-10z"/><path d="M200 259.3h10v10h-10z"/><path d="M190 249.3h10v10h-10zm50-40h10v10h-10z"/><path d="M230 219.3h10v10h-10zm-20 20h10v10h-10z"/><path d="M220 229.3h10v10h-10zm-40 10h10v10h-10z"/></g><g fill="#afafaf"><path d="M270 289.3h10v10h-10zm-30-10h10v10h-10z"/><path d="M280 279.3h10v10h-10zm30-30h10v10h-10z"/><path d="M320 239.3h10v10h-10zm-30 30h10v10h-10z"/><path d="M300 259.3h10v10h-10zm-120 30h10v10h-10z"/><path d="M190 299.3h10v10h-10zm120-10h10v10h-10z"/><path d="M300 299.3h10v10h-10zm-80-10h10v10h-10zm10-20h10v10h-10zm20-60h10v10h-10zm20 20h10v10h-10z"/><path d="M260 219.3h10v10h-10zm-50 30h10v10h-10z"/><path d="M280 239.3h10v10h-10zm-60 20h10v10h-10zm-10 20h10v10h-10zm-30-30h10v10h-10z"/><path d="M170 239.3h10v10h-10zm30 30h10v10h-10z"/><path d="M190 259.3h10v10h-10z"/></g><g fill="#7d7d7d"><path d="M260 299.3h-40v10h60v-10h-20zm0-30h10v10h-10z"/><path d="M250 279.3h10v10h-10zm20-20h10v10h-10zm10 30h10v10h-10zm30-30h10v10h-10z"/><path d="M320 249.3h10v10h-10zm-30 30h10v10h-10z"/><path d="M300 269.3h10v10h-10zm-120 10h10v10h-10z"/><path d="M170 269.3h10v10h-10zm30 30h10v10h-10z"/><path d="M190 289.3h10v10h-10zm120-10h10v10h-10z"/><path d="M320 269.3h10v10h-10zm-30 30h10v10h-10z"/><path d="M300 289.3h10v10h-10zm-20-40h10v10h-10zm-70 40h10v10h-10zm-30-30h10v10h-10z"/><path d="M170 249.3h10v10h-10zm30 30h10v10h-10z"/>
<path d="M190 269.3h10v10h-10z"/></g></svg>