<svg xmlns="http://www.w3.org/2000/svg" viewBox="0 0 8 13"  xmlns:v="https://vecta.io/nano"><g fill="#bebebc"><path d="M5,0h1v1H4V0H5z"/><path d="M1,3h2V1h1v2h4v1H7v8H6v1H2v-1H1V4H0V3H1z"/></g><g fill="#0f0"><path d="M3 4h1v1H3v1H2V4h1zm1 4v2H3v1H2V8h2z"/><path d="M4 6h1V5h1v3H4V6zm1 4h1v2H4v-1h1v-1z"/></g><g fill="#fff"><path d="M4 6v2H3V6h1zm-1 5h1v1H3v-1z"/><path d="M4 5h1v1H4V5zm0 5h1v1H4v-1z"/><path d="M5 4h1v1H5V4zm0 4h1v2H5V8z"/></g><g fill="#0af"><path d="M3 6v2H2V6h1zm-1 5h1v1H2v-1z"/><path d="M3 5h1v1H3V5zm0 5h1v1H3v-1z"/><path d="M4 4h1v1H4V4zm0 4h1v2H4V8z"/></g></svg>