<svg xmlns="http://www.w3.org/2000/svg" width="1091.8" height="1091.8" xmlns:v="https://vecta.io/nano"><circle cx="545.9" cy="545.9" r="545.9" fill="#0f0"/><path d="M418.6 112.5h18.7c4.3 0 7.5 1.2 9.6 3.4s3.2 5.4 3.2 9.4c0 2.5-.6 4.7-1.9 6.6s-3 3.3-5.2 4.2c.5.4.9.9 1.2 1.4a14.72 14.72 0 0 1 1.1 2.2l4.4 10.1H440l-4.2-9.5c-.4-.9-.8-1.4-1.4-1.8s-1.3-.5-2.3-.5h-4.3v11.9h-9.4v-37.4zm16.3 18.3c1.9 0 3.3-.4 4.3-1.4s1.5-2.3 1.5-4.1c0-3.8-1.8-5.7-5.4-5.7H428v11.1h6.9zm30.6-18.3h10.1l14.3 37.4h-9.8l-3.4-8.5h-12.5l-3.3 8.5h-9.8l14.4-37.4zm10 22l-5-13-5 13h10zm30.2-22h10.1l14.3 37.4h-9.8l-3.3-8.5h-12.5l-3.3 8.5h-9.8l14.3-37.4h0zm10.1 22l-5-13-5 13h10zm19.1-22h8l15.9 22.3v-22.3h9.4v37.4h-8l-15.9-22.3v22.3H535l-.1-37.4h0 0zm39.3 0h9.3V127l12.9-14.5h10.7l-13.3 15.3 14.2 22.1h-10l-10-16.1-4.4 4.8V150h-9.3l-.1-37.5h0 0zm38.5 0h27.6v7.2H622v7.8h16.1v7.3H622v7.9h18.2v7.2h-27.6v-37.4zm32.1 0H661c5.8 0 10.2 1.5 13.2 4.4 2.9 3 4.4 7.8 4.4 14.4 0 6.3-1.5 10.9-4.4 13.9s-7.3 4.5-13.2 4.5h-16.2v-37.2zm14.9 30.2c2.2 0 3.9-.3 5.2-.9s2.3-1.8 3-3.4 1-3.9 1-6.9c0-3.1-.3-5.4-1-7.1s-1.7-2.8-3-3.6c-1.3-.7-3.2-1.1-5.3-1.1H654v23h5.7 0zM424.3 942.3h18.4c4.3 0 7.5 1.2 9.8 3.7s3.4 5.7 3.4 9.7c0 2.5-.5 4.8-1.6 6.8s-2.6 3.5-4.7 4.6-4.4 1.7-7 1.7h-8.9v11h-9.4v-37.5h0 0zm16.1 19.2c2 0 3.4-.5 4.4-1.6s1.5-2.5 1.5-4.3c0-2-.5-3.5-1.4-4.5s-2.4-1.5-4.2-1.5h-7v12l6.7-.1h0 0zm19.1-19.2h9.4v30.2h17.6v7.2h-27v-37.4zm42.9 0h10.1l14.3 37.4H517l-3.3-8.5h-12.5l-3.3 8.5h-9.8l14.3-37.4h0zm9.9 22l-5-13-5 13h10zm30.3-22h10.1l14.3 37.4h-9.8l-3.3-8.5h-12.5l-3.3 8.5h-9.8l14.3-37.4zm10 22l-5-13-5 13h10zm24.7 1.6l-13.4-23.7h9.8l8.3 15.5 8.3-15.5h9.8l-13.4 23.7v13.8h-9.4v-13.8h0 0zm27.6-23.6h27.6v7.2h-18.2v7.8h16.1v7.3h-16.1v7.8h18.2v7.2h-27.6v-37.3h0zm32.1 0h18.7c4.3 0 7.5 1.2 9.7 3.4s3.2 5.4 3.2 9.5c0 2.5-.7 4.7-1.9 6.6s-3 3.3-5.2 4.2c.5.5.9.9 1.2 1.4a31.96 31.96 0 0 1 1.2 2.2l4.4 10.1h-9.8l-4.2-9.5c-.3-.8-.8-1.5-1.3-1.8s-1.3-.5-2.3-.5h-4.3v11.8H637v-37.4h0 0zm16.2 18.3c1.8 0 3.3-.5 4.3-1.4s1.5-2.3 1.5-4.1c0-3.8-1.8-5.7-5.4-5.7h-7.3v11.2h6.9zM99.5 561c-2.2-.3-4-.9-5.6-1.6v-8c1.8.8 3.7 1.4 5.7 1.8s4 .7 5.8.7c2.5 0 4.3-.2 5.3-.7s1.6-1.3 1.6-2.8c0-1-.2-1.8-.8-2.3s-1.3-1-2.4-1.5-2.9-1-5.4-1.7c-2.6-.8-4.7-1.7-6.2-2.6s-2.6-2.1-3.2-3.5-1-3-1-5c0-3.6 1.3-6.3 3.8-8.2 2.6-1.9 6.3-2.8 11.3-2.8 2.1 0 4.1.2 6.2.5s3.8.7 5.2 1.2v8c-3.2-1.3-6.5-1.9-9.9-1.9-2.3 0-4.1.2-5.3.7s-1.8 1.3-1.8 2.6c0 .8.2 1.5.7 2s1.2.9 2.2 1.3c1.1.3 2.7.8 4.8 1.4 3 .8 5.3 1.8 6.9 2.9s2.8 2.4 3.4 3.8.9 3.2.9 5.2c0 3.4-1.3 6.1-3.9 8-2.7 2-6.5 3-11.6 3-2.2.1-4.5-.1-6.7-.5h0zm24.1-4.8l17.5-25.2h-16.7v-7.5h28.9v5.2l-17.4 25h17.7v7.2h-30.1l.1-4.7h0zm32.7-32.7h8l15.9 22.3v-22.3h9.4V561h-8l-15.9-22.3V561h-9.4v-37.5h0 0zm793.2-5.4h-32v-14.4h52.8v11.2l-27 63.7h-19.5l25.7-60.5z"/><path d="M545.9 1053.1c-9.3 0-18.5-.2-27.8-.8-.7-.1-1.2-.6-1.2-1.2s.6-1.2 1.2-1.2c16 .8 32.2.9 48.2.3.7 0 1.2.5 1.2 1.2s-.5 1.2-1.2 1.2c-6.6.3-13.5.5-20.4.5h0zm-32.5-1.1h0a483.15 483.15 0 0 1-24.2-2.1c-.6-.1-1.1-.7-1-1.3.1-.7.7-1.2 1.4-1.1a479.17 479.17 0 0 0 24.1 2.1c.7.1 1.2.6 1.2 1.3-.4.6-.9 1.1-1.5 1.1h0zm77.3-.9c-.6 0-1.1-.5-1.2-1.1a1.3 1.3 0 0 1 1.1-1.3l4.8-.4c.7-.1 1.2.4 1.3 1.1 0 .7-.4 1.2-1.1 1.3l-4.9.4h0zm52.7-7.4c-.5 0-1-.4-1.2-1-.2-.7.3-1.3 1-1.4 7.9-1.6 15.8-3.3 23.5-5.2.7-.2 1.3.2 1.5.9s-.2 1.3-.9 1.4c-7.8 1.9-15.8 3.7-23.7 5.2-.1.1-.2.1-.2.1h0zm-201.9-1.5c-.1 0-.1 0-.2-.1l-4.8-1c-.6-.2-1-.8-.9-1.4s.8-1.1 1.5-.9l4.7 1c.6.2 1 .8 1 1.4-.2.6-.7 1-1.3 1h0zm230.2-4.9c-.5 0-1-.3-1.2-.9-.2-.7.2-1.3.8-1.4 15.5-3.9 31-8.8 46.1-14.2.6-.2 1.3.1 1.5.8s-.1 1.3-.8 1.5c-15.2 5.5-30.7 10.3-46.3 14.2 0-.1-.1 0-.1 0h0zm-258.5-1.8c-.1 0-.2 0-.3-.1-15.5-4.2-31-9.2-46.1-14.9-.6-.2-1-1-.7-1.5s1-1 1.5-.7c15.1 5.7 30.4 10.6 45.9 14.8.6.2 1 .8.9 1.5-.2.5-.6.9-1.2.9h0zm-50.5-16.7c-.1 0-.3 0-.5-.1a534.54 534.54 0 0 1-22.5-9.3c-.6-.2-.9-1-.6-1.6.2-.6 1-.9 1.6-.6l22.3 9.3c.6.2 1 1 .7 1.5-.1.6-.6.9-1 .8h0zm377.7-4.5c-.5 0-.9-.3-1.1-.8-.2-.6 0-1.3.7-1.6l4.5-1.8c.6-.2 1.3 0 1.6.7.2.6 0 1.3-.7 1.6l-4.5 1.9h-.5 0zm47.9-23c-.4 0-.9-.3-1-.7-.3-.6-.1-1.3.5-1.7 7-3.8 14-7.9 20.8-12a1.3 1.3 0 0 1 1.7.4c.4.6.2 1.3-.4 1.7-6.8 4.2-13.9 8.2-21 12.2-.2 0-.4.1-.6.1h0zm-491.2-3.5c-.2 0-.4 0-.6-.2l-4.2-2.4c-.6-.3-.8-1-.5-1.7s1-.8 1.6-.5l4.2 2.4c.6.3.8 1 .5 1.7-.2.4-.6.6-1 .7h0zm516.3-11.1c-.4 0-.8-.2-1-.5a1.3 1.3 0 0 1 .4-1.7c13.6-8.5 27-17.7 39.7-27.5.5-.4 1.3-.3 1.7.2s.3 1.3-.2 1.7c-12.8 9.8-26.2 19.1-39.8 27.6-.4.1-.6.1-.8.2h0zm-541.1-4c-.2 0-.5 0-.6-.2-13.5-8.7-26.8-18.2-39.4-28.2-.5-.4-.6-1.2-.2-1.7s1.1-.6 1.7-.2c12.6 10 25.8 19.3 39.3 28 .5.3.7 1.1.4 1.7-.4.4-.8.6-1.2.6h0zm-43.2-31.1c-.2 0-.6-.1-.8-.2-6.3-5-12.5-10.3-18.6-15.7-.5-.5-.6-1.2-.1-1.7a1.24 1.24 0 0 1 1.7-.1c6 5.3 12.2 10.5 18.4 15.5.5.4.6 1.2.2 1.7-.1.4-.4.5-.8.5h0zM872 934c-.3 0-.7-.2-1-.5-.5-.5-.3-1.2.2-1.7l3.7-3.2c.5-.5 1.2-.4 1.7.2.5.5.4 1.2-.2 1.7l-3.7 3.2a1.08 1.08 0 0 1-.7.3zm38.8-36.5c-.3 0-.6-.1-.8-.3-.5-.4-.5-1.2-.1-1.7 5.5-5.8 11-11.8 16.3-17.8a1.24 1.24 0 0 1 1.7-.1c.5.4.5 1.2.1 1.7a680.41 680.41 0 0 1-16.4 17.9c-.2.3-.5.4-.8.3h0zM176 892.2c-.3 0-.6-.2-.9-.4l-3.3-3.5a1.24 1.24 0 0 1 .1-1.7c.5-.5 1.2-.4 1.7 0l3.3 3.5a1.24 1.24 0 0 1-.1 1.7c-.2.3-.5.4-.8.4h0zM930.3 876c-.3 0-.5-.1-.8-.3-.5-.5-.5-1.2-.2-1.7 10.5-12.2 20.4-25 29.6-38.1.4-.5 1.2-.7 1.7-.3s.7 1.2.3 1.7c-9.2 13.2-19.2 26-29.8 38.3-.1.4-.5.5-.8.4h0zm-773.5-5.5c-.4 0-.7-.2-.9-.5a522.58 522.58 0 0 1-29.2-38.7c-.4-.5-.2-1.3.3-1.7.6-.3 1.3-.2 1.7.3 9.1 13.2 18.8 26.2 29.1 38.5.4.5.4 1.3-.1 1.7-.4.2-.6.3-.9.4h0zM125 827.9c-.4 0-.8-.2-1-.5-4.4-6.7-8.8-13.5-12.9-20.5a1.3 1.3 0 0 1 .4-1.7c.6-.4 1.3-.2 1.7.4 4.1 6.8 8.4 13.7 12.9 20.3.3.5.2 1.3-.3 1.7-.4.2-.6.3-.8.3h0zm848.4-10.1c-.2 0-.5 0-.7-.2-.5-.3-.8-1.1-.3-1.7l2.5-4.1c.3-.5 1.1-.8 1.7-.4s.8 1.1.4 1.7c-.8 1.4-1.7 2.8-2.6 4.1a1.1 1.1 0 0 1-1 .6h0zm26.1-46.4c-.2 0-.3 0-.5-.2-.6-.3-.8-1-.5-1.6 3.5-7.2 7-14.5 10.2-21.9.2-.6 1-.9 1.6-.6.6.2.9 1 .6 1.6-3.2 7.4-6.7 14.8-10.2 22-.3.4-.7.7-1.2.7zm-910.4-6.5c-.4 0-.9-.2-1.1-.7l-2.1-4.3c-.3-.6 0-1.3.6-1.6s1.3 0 1.6.6l2.1 4.3c.3.6.1 1.3-.6 1.6-.1 0-.3 0-.5.1h0zm922.6-19.9c-.2 0-.3 0-.5-.1-.6-.2-.9-1-.7-1.6 6.2-14.8 11.9-30 16.7-45.2.2-.7.9-1 1.5-.8.7.2 1 .9.8 1.5-4.8 15.3-10.5 30.7-16.8 45.5-.1.4-.5.7-1 .7h0zm-934.3-6.6c-.5 0-.9-.3-1.1-.8-6.1-14.9-11.5-30.3-16.2-45.7-.2-.7.2-1.3.8-1.5s1.3.2 1.5.8c4.6 15.3 10 30.7 16.1 45.5.2.6-.1 1.3-.7 1.6-.1 0-.3 0-.4.1h0zm-17.5-50.3a1.3 1.3 0 0 1-1.2-.8c-2.2-7.8-4.3-15.6-6.2-23.5-.2-.7.2-1.3.9-1.5s1.3.2 1.5.9a362.56 362.56 0 0 0 6.2 23.3c.2.7-.2 1.3-.8 1.5-.1.1-.4.1-.4.1zm975.3-11.7h-.3c-.7-.2-1.1-.8-.8-1.5l1.2-4.7c.2-.7.8-1 1.4-.8.7.2 1.1.8.9 1.5l-1.2 4.7c-.2.4-.7.8-1.2.8h0zm10.8-52.1h-.2c-.7-.1-1.1-.7-1-1.4 1.2-7.9 2.2-16 3.1-24 .1-.7.7-1.2 1.3-1.1.7 0 1.2.7 1.1 1.3-.8 8-1.9 16.1-3.1 24-.1.7-.6 1.1-1.2 1.2h0zM44.8 617.2c-.6 0-1.1-.5-1.2-1l-.7-4.8c-.1-.7.4-1.2 1-1.3s1.2.4 1.3 1l.7 4.8c.1.7-.3 1.2-1 1.3 0 0-.1 0-.1 0zm1004.7-21.7h0c-.8 0-1.2-.7-1.2-1.3 1.5-15.9 2.2-32.1 2.2-48.2 0-.7.6-1.2 1.2-1.2s1.2.5 1.2 1.2c0 16.2-.8 32.5-2.3 48.4a1.11 1.11 0 0 1-1.1 1.1h0zM41.6 588.3c-.6 0-1.1-.5-1.2-1.1-1.1-13.7-1.7-27.5-1.7-41.3v-7.2c0-.7.5-1.2 1.2-1.2s1.2.5 1.2 1.2v7.1c0 13.7.5 27.5 1.7 41.1a1.3 1.3 0 0 1-1.1 1.3c0 .1-.1.1-.1.1h0zm1010.2-46.2c-.7 0-1.2-.5-1.2-1.2-.1-8-.3-16.1-.8-24.1-.1-.7.4-1.2 1.2-1.3.7 0 1.2.5 1.3 1.2.4 8 .8 16.2.8 24.2-.1.7-.6 1.3-1.3 1.2h0 0zm-1011.7-7h0c-.7 0-1.2-.5-1.2-1.2.2-8 .5-16.2 1.2-24.2 0-.6.6-1.2 1.3-1.1.7 0 1.2.6 1.1 1.3L41.3 534c0 .6-.6 1.1-1.2 1.1zm1010.5-22c-.7 0-1.2-.5-1.2-1.2-1.1-16-2.9-32.1-5.5-48-.1-.6.3-1.3 1-1.4s1.3.4 1.4 1c2.6 15.9 4.4 32 5.5 48.1.1.8-.4 1.4-1.2 1.5h0zM46.9 462.9h-.2c-.7-.1-1.1-.8-1-1.4l.8-4.8c.1-.6.8-1.1 1.4-1s1.1.8 1 1.4c-.3 1.6-.5 3.1-.8 4.8 0 .6-.5 1-1.2 1zm993.8-21.6c-.6 0-1.1-.4-1.2-1l-1.1-4.7c-.2-.6.2-1.3.9-1.5s1.3.2 1.4.9l1.1 4.8c.2.6-.3 1.3-.9 1.5h-.2 0zm-988.2-6.8h-.2c-.7-.1-1-.8-.9-1.5 3.5-15.7 8-31.4 13-46.7.2-.6.8-1 1.5-.8h.1c.7.2 1 .9.8 1.5-5 15.2-9.4 30.9-13 46.5-.2.6-.7 1-1.3 1h0zm974.4-44.6c-.5 0-1-.3-1.2-.9-2.5-7.6-5.2-15.2-8-22.8-.2-.6.1-1.3.7-1.5s1.3 0 1.5.7c2.8 7.5 5.6 15.2 8.1 22.9.2.6-.2 1.3-.8 1.5 0 .1-.2.1-.3.1zm-959.8-6.6h-.4c-.7-.2-.9-.9-.8-1.5 2.6-7.6 5.4-15.3 8.4-22.8.2-.6.9-.9 1.6-.7.6.2.9 1 .7 1.5l-8.4 22.7c-.2.4-.6.8-1.1.8h0zm950-20.7a1.3 1.3 0 0 1-1.2-.8c-5.8-14.9-12.5-29.7-19.8-44-.3-.6 0-1.4.5-1.6s1.3 0 1.7.5c7.3 14.4 14 29.2 19.8 44.2.2.6 0 1.4-.7 1.5 0 .2-.2.2-.3.2h0zM95.5 316.5c-.2 0-.3 0-.6-.1-.6-.3-.8-1-.5-1.6l2.2-4.3c.3-.6 1.1-.8 1.7-.5s.8 1 .5 1.6l-2.2 4.3c-.3.3-.7.6-1.1.6zm890.3-19.3a1.1 1.1 0 0 1-1-.6l-2.4-4.1c-.3-.6-.2-1.3.5-1.6s1.3-.1 1.7.5l2.4 4.2c.3.6.2 1.3-.5 1.6-.3-.1-.5 0-.7 0h0zM109.5 291c-.2 0-.4 0-.6-.1-.6-.4-.8-1.1-.4-1.6 8.2-13.9 17.1-27.5 26.5-40.6.4-.6 1.1-.6 1.7-.2s.6 1.1.2 1.7c-9.4 13-18.3 26.5-26.4 40.4a1.53 1.53 0 0 1-1 .4zm847.7-38.6c-.4 0-.8-.1-1-.5-4.7-6.5-9.5-13-14.5-19.2-.4-.5-.3-1.3.2-1.7s1.3-.4 1.7.2a467.84 467.84 0 0 1 14.6 19.4c.4.6.2 1.3-.3 1.7-.2 0-.5.1-.7.1zm-818.4-5.8c-.2 0-.5-.1-.7-.2-.6-.4-.6-1.1-.2-1.7a464.63 464.63 0 0 1 14.9-19.1c.4-.5 1.2-.6 1.7-.1.5.4.6 1.2.1 1.7-5.1 6.2-10.1 12.6-14.8 19.1-.3.1-.6.3-1 .3h0zm800.8-17.3c-.3 0-.7-.1-1-.4-10.1-12.4-20.9-24.6-32.1-36.1-.5-.5-.5-1.2 0-1.7.5-.4 1.2-.4 1.7 0 11.2 11.5 22.1 23.7 32.2 36.2.4.5.3 1.3-.2 1.7-.1.2-.3.3-.6.3zM186 191.5c-.3 0-.6-.1-.9-.4-.5-.4-.5-1.2 0-1.7l3.4-3.4c.4-.4 1.2-.4 1.7 0 .4.5.4 1.2 0 1.7l-3.4 3.4c-.2.3-.5.4-.8.4h0zm704.1-15.2c-.3 0-.6-.1-.8-.3l-3.5-3.2c-.5-.4-.5-1.2-.1-1.7s1.2-.6 1.7-.1l3.5 3.3c.5.4.5 1.2 0 1.7-.2.2-.5.3-.8.3h0zM207 171.4c-.4 0-.6-.1-.9-.4a1.24 1.24 0 0 1 .1-1.7c11.9-10.8 24.6-21.1 37.5-30.8.6-.4 1.3-.3 1.7.2s.3 1.3-.2 1.7c-12.9 9.6-25.4 19.9-37.3 30.6-.3.3-.6.4-.9.4h0zm642.2-29.2c-.2 0-.5-.1-.8-.2-6.4-4.8-13-9.6-19.7-14-.5-.4-.7-1.2-.3-1.7s1.2-.7 1.7-.3a445.83 445.83 0 0 1 19.8 14.1c.5.4.7 1.1.2 1.7-.1.2-.5.4-.9.4zm-600.9-4.3c-.4 0-.8-.1-1-.5-.4-.6-.2-1.3.2-1.7 6.5-4.8 13.2-9.3 19.9-13.8.5-.3 1.3-.2 1.7.3.4.6.2 1.3-.4 1.7-6.7 4.4-13.4 9-19.8 13.8-.1.1-.4.2-.6.2zm577.2-12.5c-.2 0-.5-.1-.7-.2-13.3-8.9-27.3-17.2-41.4-24.8-.6-.3-.8-1.1-.5-1.7s1-.8 1.7-.5c14.2 7.6 28.2 15.9 41.6 24.9.5.3.7 1.1.3 1.7a1.1 1.1 0 0 1-1 .6h0zM309.8 99.5c-.4 0-.9-.3-1-.7-.3-.6-.1-1.3.5-1.7l4.3-2.2c.6-.3 1.3-.1 1.6.5s.1 1.3-.5 1.7l-4.2 2.2c-.3.2-.5.2-.7.2zm452.5-9.8c-.2 0-.3-.1-.5-.1l-4.4-2.1c-.6-.3-.8-1-.6-1.6.3-.6 1-.8 1.6-.6l4.4 2.1c.6.3.8 1 .5 1.6-.1.5-.5.7-1 .7zm-426.5-3c-.5 0-.9-.2-1.1-.7-.3-.6 0-1.3.6-1.6 14.6-6.7 29.8-12.8 45-18 .6-.2 1.3.1 1.5.8s-.1 1.3-.8 1.6C365.9 74 350.8 80 336.2 86.7h-.4 0zm377.4-17.2c-.2 0-.2 0-.4-.1-7.5-2.7-15.2-5.2-23-7.4-.7-.2-1-.8-.8-1.5s.8-1 1.5-.8c7.7 2.3 15.4 4.8 23 7.5.7.2 1 .9.8 1.6a1.36 1.36 0 0 1-1.1.7h0zm-327.9-2.3c-.5 0-1-.3-1.1-.8-.2-.7.1-1.3.8-1.6 7.7-2.6 15.4-4.9 23.2-7.2.6-.2 1.3.2 1.5.8s-.2 1.3-.9 1.5a558.83 558.83 0 0 0-23 7.1c-.2.2-.4.2-.5.2h0zm300.2-6.5h-.3a500.82 500.82 0 0 0-47-11c-.7-.1-1.1-.8-1-1.4.1-.7.8-1.1 1.4-1 15.8 3 31.7 6.7 47.2 11.1.7.2 1 .8.8 1.5-.1.4-.6.8-1.1.8zm-230-11.5c-.5 0-1.1-.4-1.2-1-.1-.7.3-1.3 1-1.4l4.8-.8c.6-.1 1.3.3 1.4 1s-.4 1.3-1 1.4c-1.6.2-3.1.5-4.8.8h-.2 0zm159-3.4h-.2l-4.8-.7c-.7-.1-1.2-.7-1-1.3s.7-1.2 1.3-1l4.8.7c.7.1 1.1.7 1 1.3 0 .6-.5 1-1.1 1h0zm-130.3-.9c-.6 0-1.1-.5-1.2-1-.1-.7.4-1.2 1-1.3 16-2 32.2-3.2 48.4-3.5.7-.1 1.2.5 1.2 1.2s-.5 1.2-1.2 1.2c-16 .4-32.3 1.6-48.1 3.5 0-.1 0-.1-.1-.1h0zm77.3-3.5c-8-.3-16.1-.3-24.2-.2h0c-.7 0-1.2-.5-1.2-1.2s.5-1.2 1.2-1.2c8.1-.2 16.3-.1 24.2.2.7 0 1.2.6 1.2 1.2 0 .7-.5 1.2-1.2 1.2z"/><path d="M384.3,361h323.1l148.2,121v121L545.9,893.4L236.1,603V482L384.3,361z" fill="#00d700"/><g opacity=".25"><path d="M855.6,603L545.9,893.4L707.4,603H855.6z"/></g><g opacity=".15"><path d="M855.6,482H707.4V361L855.6,482z"/></g><g opacity=".15"><path d="M855.6,603h-67.5l67.5-121V603z"/></g><g opacity=".1"><path d="M707.4,603L545.9,893.4V603H707.4z"/></g><g opacity=".35"><path d="M384.3,603l161.6,290.4L236.1,603H384.3z" fill="#fff"/></g><g opacity=".5"><path d="M384.3,361v121H236.1L384.3,361z" fill="#fff"/></g><g opacity=".35"><path d="M384.3 361h161.5v121H384.3V361z" fill="#fff"/></g><g opacity=".5"><path d="M236.1,482l67.4,121h-67.4V482z" fill="#fff"/></g><g opacity=".5"><path d="M384.3 482l80.8 121H303.6l80.7-121z" fill="#fff"/></g><g opacity=".5"><path d="M545.9 482l80.8 121H465.1l80.8-121z" fill="#fff"/></g><g opacity=".35"><path d="M707.4 482l80.8 121H626.7l80.7-121z" fill="#fff"/></g><path d="M431.7,198.4L545.9,361l114.2-162.6V361H431.7V198.4z" fill="#00d700"/><g opacity=".5"><path d="M431.7,361h114.2L431.7,198.4V361z" fill="#fff"/></g><path d="M488.8 279.7l57.1 81.3 57.1-81.3-57.1-81.3-57.1 81.3z" fill="#00d700"/><g opacity=".5"><path d="M488.8 279.7h57.1v-81.3l-57.1 81.3z" fill="#fff"/></g><g opacity=".25"><path d="M603,279.7h-57.1V361L603,279.7z"/></g><path d="M857.2 481.5l-1-.5-148-121-.3-.2h-46.5V198.4c0-.5-.3-1-.8-1.1a1.48 1.48 0 0 0-1.3.4L603 277.6l-56.1-79.9v-.1c-.2-.3-.5-.4-1-.4s-.7.2-1 .4v.1l-56.1 79.9-56.1-79.9c-.3-.4-.9-.6-1.4-.4-.5.1-.9.6-.9 1.1v161.4h-46.5L235.5 481l-.9.5.4.8v121.2l307.9 288.6H384.4v2.4h323v-2.4H549l307.5-288.3.4-.3V482.3l.3-.8h0zM544.7 362.2v118.6H385.6V362.2h159.1zm161.5 0v118.6H547.1V362.2h159.1 0zm-215.1-81.3h53.6v76.2l-53.6-76.2zm54.8 203.3l78.5 117.6h-157l78.5-117.6h0zm-80.8 116.7l-78.5-117.6h157l-78.5 117.6zm83.1-117.7h157l-78.5 117.6-78.5-117.6zm-3.5 121v284.5L386.4 604.2h158.3zm2.4 0h158.2L547.1 888.8V604.2zm81.8-2.4l78.5-117.6 78.5 117.6h-157zm80.8-118.6h143.9l-65.5 117.5-78.4-117.5zm-1.1-2.4V363.5l143.6 117.2H708.6v.1zM547.1 357.2V281h53.5l-53.5 76.2h0zm0-78.7v-76.2l53.5 76.2h-53.5zm-2.4 0h-53.6l53.6-76.2v76.2zM383.1 480.8H239.5l143.6-117.2v117.2zm-1 2.4l-78.4 117.5-65.5-117.5h143.9zm2.3 1l78.5 117.6h-157l78.5-117.6h0zm-.8 120l157.4 283-301.9-283h144.5zm324.5 0h144.5l-301.8 283 157.3-283h0zm82.1-2.4l64.2-115.2v115.2h-64.2zm-131.4-242H548.2l110.7-157.6v157.6zM432.9 202.2l110.7 157.5H432.9V202.2zM301.5 601.8h-64.2V486.6l64.2 115.2z"/></svg>