<svg xmlns="http://www.w3.org/2000/svg" viewBox="0 0 34 27"><path d="M33 11V9h-2V7h-3V5h-3V1h-1V0h-5v1h-1v1h-2V1h-1V0h-5v1H9v4H6v2H3v2H1v2H0v16h3v-8h28v8h3V11h-1z" fill="#519e00"/><path d="M31 11V9h-3V7h-3V5h-1V1h-5v2h-4V1h-5v4H9v2H6v2H3v2H1v14h1v-7h30v7h1V11h-2zm-18 1h2v2h-2v-2zm6 0h2v2h-2v-2z" fill="#a3d167"/><path d="M19 3v7h5V3h-5zm-9 0v7h5V3h-5z" fill="#234b00"/><path d="M8 12H6v1H5v2h1v1h2v-1h1v-2H8v-1zm20 1v-1h-2v1h-1v2h1v1h2v-1h1v-2h-1z" fill="#f696c6"/><path d="M19 3v2h2V3h-2zm4 0v7h1V3h-1zM10 3v2h2V3h-2zm4 7h1V3h-1v7z" fill="#fff"/></svg>