<svg xmlns="http://www.w3.org/2000/svg" viewBox="0 0 34 12"><path d="M33 4h-1V2h-1V1h-1V0H20v1h-1v1h-1v2h-2V2h-1V1h-1V0H4v1H3v1H2v2H0v4h2v2h1v1h1v1h10v-1h1v-1h1V8h2v2h1v1h1v1h10v-1h1v-1h1V8h2V4h-1z" fill="#4c0067"/><g fill="#fff"><path d="M7 4h1v1H7zm3 0h1v1h-1z"/><path d="M9 5h1v1H9z"/><path d="M8 6h1v1H8z"/><path d="M7 7h1v1H7zm3 0h1v1h-1zm13-3h1v1h-1zm3 0h1v1h-1z"/><path d="M25 5h1v1h-1z"/><path d="M24 6h1v1h-1z"/><path d="M23 7h1v1h-1zm3 0h1v1h-1z"/></g><path d="M33 5h-1V4h-1V2h-1V1H20v1h-1v2h-1v1h-2V4h-1V2h-1V1H4v1H3v2H2v1H0v2h2v1h1v2h1v1h10v-1h1V8h1V7h2v1h1v2h1v1h10v-1h1V8h1V7h2V5h-1zM14 9h-1v1H5V9H4V3h1V2h8v1h1v6zm16 0h-1v1h-8V9h-1V3h1V2h8v1h1v6z" fill="#bc20d2"/></svg>