<svg xmlns="http://www.w3.org/2000/svg" viewBox="0 0 16 26"><path d="M15 9V6h-1V3h-1V0h-2v1h-1v1H9v1H8v1H7v1H6v1H5v1H4v1H3v1H2v1H1v1h4v1H4v1H3v1H2v1H1v1H0v2h4v1H3v1H2v1H1v1H0v4h2v-1h1v-1h1v-1h1v-1h1v-1h1v-1h1v-1h1v-1h1v-1h1v-2H8v-1h1v-1h1v-1h1v-1h5V9h-1z" fill="#0082ff"/><path d="M14 9V6h-1V3h-1V1h-1v1h-1v1H9v1H8v1H7v1H6v1H5v1H4v1H3v1h4v1H6v1H5v1H4v1H3v1H2v1H1v1h4v2H4v1H3v1H2v1H1v3h1v-1h1v-1h1v-1h1v-1h1v-1h1v-1h1v-1h1v-1h1v-1H6v-1h1v-1h1v-1h1v-1h1v-1h1v-1h4V9h-1z" fill="#aed7ff"/><g fill="#d2e9ff"><path d="M3 9h1v1H3z"/><path d="M4 8h1v1H4z"/><path d="M5 7h1v1H5z"/><path d="M6 6h1v1H6z"/><path d="M7 5h1v1H7zm-3 8h1v1H4z"/><path d="M3 14h1v1H3z"/><path d="M2 15h1v1H2z"/><path d="M1 16h1v1H1zM8 4h1v1H8zm-2 7h1v1H6z"/><path d="M5 12h1v1H5zm0 6v1h1v-1-1H5z"/><path d="M4 19h1v1H4z"/><path d="M3 20h1v1H3z"/><path d="M2 21h1v1H2z"/><path d="M1 22h1v1H1zM9 3h1v1H9z"/><path d="M10 2h1v1h-1z"/><path d="M11 1h1v1h-1z"/></g><g fill="#6bb6ff"><path d="M6 14h1v1H6zm3 2h1v1H9z"/><path d="M8 17h1v1H8z"/><path d="M7 18h1v1H7zm-2 2h1v1H5z"/><path d="M4 21h1v1H4z"/><path d="M3 22h1v1H3z"/><path d="M2 23h1v1H2zm4-4h1v1H6zm4-9h1v1h-1z"/><path d="M9 11h1v1H9z"/><path d="M8 12h1v1H8z"/><path d="M7 13h1v1H7zm7-4h1v1h-1zm-1-5V3h-1v3h1V4z"/><path d="M14 7V6h-1v3h1V7zM1 24h1v1H1z"/></g></svg>