<svg xmlns="http://www.w3.org/2000/svg" viewBox="0 0 40 21"><path d="M3,1v20h34V1h-3v1h-1v1h-1v1h-1v1h-1v1h-1v1h-2v1h-3v1h-8V8h-3V7h-2V6h-1V5H9V4H8V3H7V2H6V1H3z" fill="#bc20d2"/><path d="M34,2v1h-1v1h-1v1h-1v1h-1v1h-1v1h-2v1h-3v1h-8V9h-3V8h-2V7h-1V6H9V5H8V4H7V3H6V2H4v18h32V2H34z" fill="#4c0067"/><path d="M9.6 17.2H7.9V12H7v6.1h3.5V12h-.9v5.2zm1.8-5.2v6.1h.9v-1.7h2.6V12h-3.5zm2.6 3.4h-1.8v-2.6H14v2.6zm7.3-3.4v6.1h.9v-5.2h1.7v5.2h.9V12h-3.5zM17 12v6.1h3.5V12H17zm2.6 5.2h-1.7v-4.3h1.7v4.3zM32.1 12v3.5h-1.7V12h-.9v4.3h1.3V18h.9v-1.7H33V12h-.9zm-5.6 5.2V12h-.9v6.1h3.5v-.9h-2.6z" fill="#fff"/></svg>