<svg xmlns="http://www.w3.org/2000/svg" viewBox="0 0 26 12"><path d="M25 4V3h-1V2h-1V1h-1V0h-4v1h-1v1h-1v1h-1v1h-1v4h1v1h1v1h1v1h1v1h4v-1h1v-1h1V9h1V8h1V4h-1z" fill="#326400"/><path d="M24 4V3h-1V2h-1V1h-4v1h-1v1h-1v1h-1v4h1v1h1v1h1v1h4v-1h1V9h1V8h1V4h-1z" fill="#8bc53f"/><path d="M23 4V3h-1V2h-4v1h-1v1h-1v4h1v1h1v1h4V9h1V8h1V4h-1z" fill="#f9e988"/><path d="M22 4V3h-4v1h-1v4h1v1h4V8h1V4h-1z" fill="#fff"/><path d="M20 3h-1v6h2V3h-1z" fill="#58595b"/><path d="M11 4V3h-1V2H9V1H8V0H4v1H3v1H2v1H1v1H0v4h1v1h1v1h1v1h1v1h4v-1h1v-1h1V9h1V8h1V4h-1z" fill="#326400"/><path d="M10 4V3H9V2H8V1H4v1H3v1H2v1H1v4h1v1h1v1h1v1h4v-1h1V9h1V8h1V4h-1z" fill="#8bc53f"/><path d="M9 4V3H8V2H4v1H3v1H2v4h1v1h1v1h4V9h1V8h1V4H9z" fill="#f9e988"/><path d="M8 4V3H4v1H3v4h1v1h4V8h1V4H8z" fill="#fff"/><path d="M6 3H5v6h2V3H6z" fill="#58595b"/></svg>