<svg xmlns="http://www.w3.org/2000/svg" viewBox="0 0 40 21"><path d="M3 1v20h34V1h-3v1h-1v1h-1v1h-1v1h-1v1h-1v1h-2v1h-3v1h-8V8h-3V7h-2V6h-1V5H9V4H8V3H7V2H6V1H3z" fill="#58595b"/><path d="M34 2v1h-1v1h-1v1h-1v1h-1v1h-1v1h-2v1h-3v1h-8V9h-3V8h-2V7h-1V6H9V5H8V4H7V3H6V2H4v18h32V2h-2z"/><path d="M23 13v-1h-1v-1h-4v1h-1v1h-1v4h1v1h1v1h4v-1h1v-1h1v-4h-1zm-2 2h-1v-1h1v1z" fill="#8bc53f"/><path d="M22 13v-1h-4v1h-1v3h1v-2h1v-1h2v1h1v2h-1v2h1v-1h1v-4h-1z" fill="#f9e988"/><g fill="#fff"><path d="M22 13h1v1h-1z"/><path d="M21 12h1v1h-1zm-2 2h1v1h-1z"/></g></svg>