<svg xmlns="http://www.w3.org/2000/svg" viewBox="0 0 14 20"><path d="M8 12v-1H6v1H5v2h1v1h2v-1h1v-2H8z" fill="#f0f"/><path d="M5 10V9H3v1H2v2h1v1h2v-1h1v-2H5z" fill="#0ff"/><path d="M11 10V9H9v1H8v2h1v1h2v-1h1v-2h-1z" fill="#ff0"/><path d="M5 14v-1H3v1H2v2h1v1h2v-1h1v-2H5z" fill="#ff8200"/><path d="M8 16v-1H6v1H5v2h1v1h2v-1h1v-2H8z" fill="#5800c0"/><path d="M8 8V7H6v1H5v2h1v1h2v-1h1V8H8z" fill="#0f0"/><path d="M11 14v-1H9v1H8v2h1v1h2v-1h1v-2h-1z" fill="#00f"/><path d="M4 5h8V2h-1V1H8V0H6v1H3v1H2v3h2zm9 1v12h1V6h-1z"/><path d="M1 16V6H0v12h1v-2zm11 2h1v1h-1z"/><path d="M1 18h1v1H1z"/><path d="M10 19H2v1h10v-1h-2zm2-14h1v1h-1zM1 5h1v1H1z"/><path d="M10 2H3v2h8V2h-1z" fill="red"/><path d="M12 6V5H2v1H1v12h1v1h10v-1h1V6h-1z" opacity=".4" fill="#cff" enable-background="new"/><g opacity=".7" fill="#cff"><path d="M10 18H2v1h10v-1h-2z"/><path d="M12 6v12h1V6h-1zM2 16V6H1v12h1v-2z"/></g></svg>