<svg xmlns="http://www.w3.org/2000/svg" viewBox="0 0 50 24"><path d="M8 2v22h4v-2h4v2h7v-2h4v2h7v-2h4v2h4V2h-2v1h-1v1h-1v1h-1v1h-2v1h-2v1H17V7h-2V6h-2V5h-1V4h-1V3h-1V2H8z"/><path d="M38 5v1h-1v1h-2v1h-2v2h6V5h-1zm0 4h-2V8h2v1zm-6 1V9h-2v1h2zm-4 0h1V9h-8v1h7zm-8 0V9h-2v1h2zm-3 0V8h-2V7h-2V6h-1V5h-1v5h6zm-4-1h-1V8h2v1h-1zm7 12h-3v1h5v-1h-2zm11 0h-3v1h5v-1h-2zm-20-8v9h1v-2h1v-7h-2zm10 0h-5v7h1v-6h5v6h1v-7h-2zm11 0h-5v7h1v-6h5v6h1v-7h-2zm5 0v7h1v2h1v-9h-2z" fill="#969696"/><path d="M40 4v6h1V3h-1v1zM9 4v6h1V3H9v1zm5 10v6h1v-7h-1v1zm21 0v6h1v-7h-1v1zm-15 6h-3v1h5v-1h-2zm11 0h-3v1h5v-1h-2zm-11-6h-3v1h5v-1h-2zm11 0h-3v1h5v-1h-2zm-11 2h-3v1h5v-1h-2zm11 0h-3v1h5v-1h-2zM9 14v8h1v-9H9v1zm11 4h-3v1h5v-1h-2zm20-4v8h1v-9h-1v1zm-9 4h-3v1h5v-1h-2zm-7-5v7h2v-7h-2z" fill="#e1e1e1"/><path d="M33 11v1h2v-1h-2zm-12 0v1h2v-1h-2zm6 0v1h2v-1h-2zm-12 0v1h2v-1h-2zm-6 0v1h2v-1H9zm30 0v1h2v-1h-2z" fill="#00f0ff"/><path d="M24 11v1h2v-1h-2zm-6 0v1h2v-1h-2zm12 0v1h2v-1h-2zm-18 0v1h2v-1h-2zm24 0v1h2v-1h-2z" fill="#f500eb"/></svg>