<svg xmlns="http://www.w3.org/2000/svg" viewBox="0 0 12 12.1"><path d="M11 3V2h-1V1H9V0H3v1H2v1H1v1H0v6h1v1h1v1h1v1h6v-1h1v-1h1V9h1V3z" fill="#00d2ff"/><path d="M0,6.1v2h12v-2H0z" fill="#f500eb"/><path d="M0,4.1v2h12v-2H0z" fill="#00f0ff"/><path d="M0,8.1v1h1v1h10v-1h1v-1H0z" fill="#d719cd"/><path d="M2,10.1v1h1v1h6v-1h1v-1H2z" fill="#cd00c3"/><g fill="#fff"><path d="M4.6 8.1v1.2h2.8V8.1H4.6z"/><path d="M7.4 4.1v4h1.2v-4H7.4zm-2.8 0H3.4v4h1.2v-4zm-1.7-.5h.6v-.2h.2v-.5h-.6v.2h.4v.3h-.7v-.9h.9v-.2h-.9v.2h-.2v.9h.2v.2h.1zm1.9-1.1v-.2h-.7v.2h-.2v.9h.2v.2h.7v-.2H5v-.9h-.2zm0 .9h-.7v-.9h.7v.9zm4-1.1h-.2v.5h-.7v-.5h-.2v1.3h.2V3h.7v.6h.2V2.3zm.2 0h.2v1.3H9zm-1.7.2h.2v.2h-.2z"/><path d="M6.6 2.3v.2h-.2v.9h.2v.2h.7v-.2h.2v-.2h-.2v.2h-.7v-.9h.7v-.2h-.7zm-1.4 0v.2h.4v1.1h.2V2.5h.4v-.2h-1z"/></g></svg>