<svg xmlns="http://www.w3.org/2000/svg" viewBox="0 0 36 35"><path d="M35 9V7h-1V6h-1V5h-1V4h-1V3h-1V2h-2V1h-2V0H10v1H8v1H6v1H5v1H4v1H3v1H2v1H1v2H0v18h1v2h1v1h1v1h1v1h1v1h2v1h2v1h18v-1h2v-1h2v-1h1v-1h1v-1h1v-1h1v-2h1V9h-1zm-4 16v1h-1v1h-1v1h-2v1H9v-1H7v-1H6v-1H5V13h1v-1h1v-1h2v-1h18v1h2v1h1v1h1v12z"/><path d="M34 9V7h-1V6h-1V5h-1V4h-1V3h-2V2h-2V1H10v1H8v1H6v1H5v1H4v1H3v1H2v2H1v18h1v2h1v1h1v1h1v1h2v1h2v1h18v-1h2v-1h2v-1h1v-1h1v-1h1v-2h1V9h-1zm-3 17v1h-1v1h-1v1h-2v1H9v-1H7v-1H6v-1H5v-1H4V13h1v-1h1v-1h1v-1h2V9h18v1h2v1h1v1h1v1h1v13h-1z" fill="#fff"/><path d="M30 13v-1h-1v-1h-2v-1H9v1H7v1H6v1H5v13h1v1h1v1h2v1h18v-1h2v-1h1v-1h1V13h-1z" opacity=".75" fill="#005bff" enable-background="new"/><g fill="#fff"><path d="M28 14v2h1v-2h-1z"/><path d="M26 13v1h2v-1h-2z"/></g></svg>