<svg xmlns="http://www.w3.org/2000/svg" viewBox="0 0 50 24"><path d="M8,2v22h4v-2h5v2h5v-2h6v2h5v-2h5v2h4V2h-2v1h-1v1h-1v1h-1v1h-2v1h-2v1H17V7h-2V6h-2V5h-1V4h-1V3h-1V2H8z"/><path d="M40 4h-1v1h-1v1h-1v1h-2v1h-2v1H17V8h-2V7h-2V6h-1V5h-1V4h-1V3H9v19h3v-2h5v-4h1v4h-1v2h5v-2h-1v-3h1v3h2v-2h2v2h2v-3h1v3h-1v2h5v-2h-1v-4h1v4h5v2h3V3h-1z" fill="#fff"/><g fill="#00adef"><path d="M21 21h-3v-1h-1v2h5v-2h-1v1zm11-1v1h-3v-1h-1v2h5v-2h-1zm-12-2h1v1h-1v-1z"/><path d="M19,19h1v1h-1V19z"/><path d="M18 18h1v1h-1v-1zm13 0h1v1h-1v-1z"/><path d="M30,19h1v1h-1V19z"/><path d="M29,18h1v1h-1V18z"/></g><path d="M10 12v1h2v-1h-1-1zm29 0h-1v1h2v-1h-1z"/><g fill="#00f"><path d="M18 14h1v1h-1v-1zm-2 0h1v1h-1v-1zm-6 0h1v1h-1v-1zm25-3h-1v1h3v-1h-1-1z"/><path d="M37 10v1h2v-1h-1-1zm-5 2h-2v1h4v-1h-1-1zm8-4h1v1h-1V8z"/><path d="M39 9h1v1h-1V9zm-26 5h-1v2h-1v1h-1v1H9v2h2v-1h1v-1h1v-1h2v-3h-1-1z"/></g><g fill="red"><path d="M33 14h1v1h-1v-1zm-2 0h1v1h-1v-1zm8 0h1v1h-1v-1zm-24-3h-2v1h3v-1h-1z"/><path d="M12 10h-1v1h2v-1h-1zm6 2h-2v1h4v-1h-1-1zM9 8h1v1H9V8z"/><path d="M10 9h1v1h-1V9zm30 9v-1h-1v-1h-1v-2h-3v3h2v1h1v1h1v1h2v-2h-1z"/></g><path d="M29,11v-1h-1V9h-6v1h-1v1h-1v5h1v1h1v1h6v-1h1v-1h1v-5H29z" fill="#00adef"/><g fill="#fff"><path d="M25.5 14h1v-1h1v-1h-1v1h-2v-1h2v-1h-1v-1h-1v1h-2v1h1v3h-1v1h2v1h1v-1h1v-1h-2v-1h1z"/><path d="M26.5,14h1v1h-1V14z"/></g></svg>