<svg xmlns="http://www.w3.org/2000/svg" viewBox="0 0 44 25"><path d="M5 2v22h13v1h8v-1h13V2h-4v2h-2v2h-2v2h-2v2h-4v2h-6v-2h-4V8h-2V6h-2V4H9V2H5z" fill="#762b26"/><path d="M19 15h1v1h-1zm0 4h1v1h-1zm0 2h1v1h-1zm5-2h1v1h-1zm0 2h1v1h-1zm-5 2h1v1h-1zm5 0h1v1h-1zm0-8h1v1h-1zm0 2h1v1h-1zm-8 1H6v1h12v-1h-2zm8-5h1v1h-1zm-5 0h1v1h-1zm0 4h1v1h-1zm17 1H26v1h12v-1h-2z" fill="#eeecdf"/><path d="M16 12h-1v-2h-2V8h-2V6H9V4H7V2H6v15h12v-5h-2zm0 8H6v2h12v-2h-2zM37 3v1h-2v2h-2v2h-2v2h-2v2h-3v5h12V2h-1v1zm-1 17H26v2h12v-2h-2z" fill="#eb564b"/></svg>