<svg xmlns="http://www.w3.org/2000/svg" viewBox="0 0 17 26"><path d="M16 4V3h-1V2h-1V1h-2V0H5v1H3v1H2v1H1v1H0v7h1v1h1v1h1v1h2v1h2v2H3v1H1v2h1v1H1v1H0v3h1v1h2v-1h1v-1h1v-1h7v1h1v1h1v1h2v-1h1v-3h-1v-1h-1v-1h1v-2h-2v-1h-4v-2h2v-1h2v-1h1v-1h1v-1h1V4h-1z"/><path d="M15 4V3h-1V2h-2V1H5v1H3v1H2v1H1v7h1v1h1v1h2v1h3v3h1v-3h3v-1h2v-1h1v-1h1V4h-1zM8 8v1H7V8h1V7H7V6h1v1h1V6h1v1H9v1h1v1H9V8H8z" fill="#a0a0a0"/><g fill="#2800af"><path d="M2 19h1v1H2z"/><path d="M5 21v-1H3v2h1v-1h1z"/><path d="M4 22h1v1H4z"/><path d="M5 21v1h2v-1H5zm6 0h-1v1h2v-1h-1z"/><path d="M12 20v1h1v1h1v-2h-2z"/><path d="M14 19h1v1h-1zm-2 3h1v1h-1zm-1-2h1v-1h1v-1H4v1h1v1h2v1h1v1h1v-1h1v-1h1z"/></g><g fill="#e6e6e6"><path d="M14 11h1v1h-1z"/><path d="M15 4v7h1V4h-1z"/><path d="M14 3h1v1h-1zm-2 9v1h2v-1h-2z"/><path d="M13 3h1V2h-2v1h1zM2 11h1v1H2z"/><path d="M2 9V4H1v7h1V9z"/><path d="M2 3h1v1H2zm2 9H3v1h2v-1H4z"/><path d="M5 3V2H3v1h2z"/><path d="M7 2h5V1H5v1h2zm3 11H5v1h7v-1h-2zM8 6h1v1H8z"/><path d="M7 7h1v1H7zm2 0h1v1H9z"/><path d="M8 8h1v1H8z"/></g><g fill="#c8c8c8"><path d="M6 5h1v1h3V5h1V4h1V3H5v1h1v1z"/><path d="M6 10V9h1V6H6V5H5V4H3v7h2v-1h1z"/><path d="M11 10h-1V9H7v1H6v1H5v1h7v-1h-1v-1z"/><path d="M14 4h-2v1h-1v1h-1v3h1v1h1v1h2V4z"/></g><path d="M14 22v3h2v-3h-2z" fill="#a0a0a0"/><path d="M15 22v3h1v-3h-1z" fill="#e6e6e6"/><path d="M3 22v3H1v-3h2z" fill="#a0a0a0"/><path d="M2 22v3H1v-3h1z" fill="#e6e6e6"/><g fill="#4309d7"><path d="M5 19v1h2v-1H5z"/><path d="M4 20h1v1H4z"/><path d="M5 21h1v1H5zm6 0h1v1h-1z"/><path d="M12 20h1v1h-1z"/><path d="M11 19h-1v1h2v-1h-1z"/></g><path d="M4 18h1v1H4zm-2 1h1v1H2zm1 2h1v1H3zm5-2H7v1h3v-1H8zm0 2h1v1H8zm6-2h1v1h-1zm-1 2h1v1h-1zm-1-3h1v1h-1z" fill="#ff09d7"/></svg>