<svg xmlns="http://www.w3.org/2000/svg" xmlns:xlink="http://www.w3.org/1999/xlink" viewBox="0 0 283.5 283.5"><circle cx="141.7" cy="141.7" r="141.7" fill="#22dff0"/><path d="M200.9 74.5h4.4v22.1h4.4V70.1h-8.8zm13.2 0v22h13.2v-22h-13.2zm8.8 17.7h-4.4V79h4.4v13.2zm8.9-17.7v22H245v-22h-13.2zm8.8 17.7h-4.4V79h4.4v13.2zM54 74.7v22h13.2v-22H54zm8.8 17.6h-4.4V79.1h4.4v13.2zm8.8-17.6v22H76v-8.8h8.8V74.7H71.6zm4.4 8.8v-4.4h4.4v4.4H76zm-37.5-4.4h4.4v17.6h4.4V79.1h4.4v-4.4H38.5zm70.1 169v3.1h-1.5v-3.1h1.5zm-1.7 7.7h6.2v1.5h-6.2v-1.5zm7.8-7.7h-6.2v-1.5h6.2v1.5zm-6.1 4.7v-1.6h4.6v1.6h-4.6zm4.6 3v-3.1h1.5v3.1h-1.5zm4.6-7.7v3.1h6.2v1.6h-6.2v3.1h6.2v1.5h-7.7v-10.8h7.7v1.5h-6.2 0zm15.4 0v9.3h-1.5v-4.6h-4.6v4.6h-1.5v-9.3h1.5v3.1h4.6v-3.1h1.5 0zm-1.4 0h-4.6v-1.5h4.6v1.5zm4.6 0v3.1h-1.5v-3.1h1.5zm-1.6 7.7h6.2v1.5h-6.2v-1.5zm7.8-7.7h-6.2v-1.5h6.2v1.5zm-6.2 4.7v-1.6h4.6v1.6h-4.6zm4.6 3v-3.1h1.5v3.1H141zm4.6-7.7v7.7h-1.5v-7.7h1.5zm4.6 0h-4.6v-1.5h4.6v1.5zm-4.6 7.7h4.6v1.5h-4.6v-1.5zm6.2-7.7v7.7h-1.5v-7.7h1.5zm4.7 1.6v1.5h-1.6v6.2h-1.5v-10.8h1.5v3.1h1.6zm1.5 1.5v1.6h-1.5v-1.6h1.5zm3.1-4.6v10.8h-1.5v-3.1H158v-1.5h1.6v-6.2h1.5 0zm13.9 0v1.5h-6.2v-1.5h6.2zm0 4.6v1.6h-6.2v-1.6h6.2zm-6.2 4.6h6.2v1.5h-6.2v-1.5zm7.8-4.6h-1.5v-3.1h1.5v3.1zm-1.6 4.6v-3.1h1.5v3.1H175zm-2.8-21.3V231h-7v3.5h7zm-52.8 0V231h-7v3.5h7zm15.3-12.4h-3.1v6.2h3.1v-6.2zm3 6.2h3.1v-6.2h-3.1v6.2z"/><path d="M134.7 228.3h3.1v3.1h-3.1z"/><path d="M131.6 240.6h3.1v-9.2h-3.1v9.2zm6.1 0h3.1v-9.2h-3.1v9.2zm6.2-18.5v18.4h3.1v-6.1h6.1v-12.3c-1.5.1-9.2 0-9.2 0zm6.2 9.3H147v-6.1h3.1v6.1zm70.4-82.2v-22.5H213v-7.5h-7.5v-7.5H198v-7.5h-7.5v-7.5H183v-30h-7.5v-7.5H168v-7.5h-7.5v-7.5H153v-7.5h-22.5v7.5H123v7.5h-7.5v7.5H108v7.5h-7.5v30H93v7.5h-7.5v7.5H78v7.5h-7.5v7.5H63v22.5H48v37.5h7.5v7.5H63v7.5h7.5v7.5H213v-7.5h7.5v-7.5h7.5v-7.5h7.5v-37.5h-15z"/><path d="M92.9 179.2h-7.5v-7.5h-7.5v-7.5h-7.5v-7.5h-15v30h7.5v7.5h7.5v7.5h30v-15h-7.5v-7.5zm75 0h-7.5v-7.5h-7.5v-7.5h-7.5v-7.5h-7.5v7.5h-7.5v7.5h-7.5v7.5h-7.5v7.5h-7.5v15h22.5v-7.5h7.5v-7.5h7.5v7.5h7.5v7.5h22.5v-15h-7.5v-7.5zm45-22.5v7.5h-7.5v7.5h-7.5v7.5h-7.5v7.5h-7.5v7.5 7.5h7.5 22.5v-7.5h7.5v-7.5h7.5v-30h-15z" fill="#7d7d7d"/><path d="M92.9 179.2h-7.5v-7.5h-7.5v-7.5h-7.5v-7.5h-15v22.5h7.5v7.5h7.5v7.5h7.5v7.5h22.5v-15h-7.5v-7.5zm75 0h-7.5v-7.5h-7.5v-7.5h-7.5v-7.5h-7.5v7.5h-7.5v7.5h-7.5v7.5h-7.5v7.5h-7.5v15h15v-7.5h7.5v-7.5h7.5v-7.5h7.5v7.5h7.5v7.5h7.5v7.5h15v-15h-7.5v-7.5zm45-22.5v7.5h-7.5v7.5h-7.5v7.5h-7.5v7.5h-7.5v15h22.5v-7.5h7.5v-7.5h7.5v-7.5h7.5v-22.5h-15z" fill="#afafaf"/><g fill="#c8c8c8"><path d="M92.9 179.2h-7.5v-7.5h-7.5v-7.5h-7.5v-7.5h-15v15h7.5v7.5h7.5v7.5h7.5v7.5h7.5v7.5h15v-15h-7.5v-7.5z"/><use xlink:href="#B"/><path d="M220.5 156.7H213v7.5h-7.5v7.5H198v7.5h-7.5v7.5H183v15h15v-7.5h7.5v-7.5h7.5v-7.5h7.5v-7.5h7.5v-15h-7.5z"/></g><g fill="#e1e1e1"><path d="M92.9 179.2h-7.5v-7.5h-7.5v-7.5h-7.5v-7.5h-15v7.5h7.5v7.5h7.5v7.5h7.5v7.5h7.5v7.5h7.5v7.5h7.5v-15h-7.5v-7.5z"/><use xlink:href="#B"/><path d="M212.9 156.7v7.5h-7.5v7.5h-7.5v7.5h-7.5v7.5h-7.5v15h7.5v-7.5h7.5v-7.5h7.5v-7.5h7.5v-7.5h7.5v-7.5h7.5v-7.5h-15z"/></g><g fill="#fff"><path d="M137.9 156.7h7.5v7.5h-7.5z"/><path d="M130.4 164.2h7.5v7.5h-7.5z"/><path d="M122.9 171.7h7.5v7.5h-7.5z"/><path d="M115.4 179.2h7.5v7.5h-7.5z"/><path d="M107.9 186.7h7.5v7.5h-7.5zm-15 0h7.5v7.5h-7.5z"/><path d="M85.4 179.2h7.5v7.5h-7.5z"/><path d="M77.9 171.7h7.5v7.5h-7.5z"/><path d="M70.4 164.2h7.5v7.5h-7.5z"/><path d="M62.9 156.7h7.5v7.5h-7.5zm82.5 7.5h7.5v7.5h-7.5z"/><path d="M152.9 171.7h7.5v7.5h-7.5z"/><path d="M160.4 179.2h7.5v7.5h-7.5z"/><path d="M167.9 186.7h7.5v7.5h-7.5zm15 0h7.5v7.5h-7.5z"/><path d="M190.4 179.2h7.5v7.5h-7.5z"/><path d="M197.9 171.7h7.5v7.5h-7.5z"/><path d="M205.4 164.2h7.5v7.5h-7.5z"/><path d="M212.9 156.7h7.5v7.5h-7.5z"/></g><g fill="#0041e6"><path d="M160.4 111.7v-7.5h7.5v-7.5h7.5v-30h-7.5v-7.5h-7.5v-7.5h-7.5v-7.5h-22.5v7.5h-7.5v7.5h-7.5v7.5h-7.5v30h7.5v7.5h7.5v7.5h7.5v7.5h22.5v-7.5h7.5zm-15-7.5v7.5h-7.5v-7.5h-7.5v-7.5h-7.5v-7.5h-7.5v-15h7.5v-7.5h7.5v-7.5h7.5v-7.5h7.5v7.5h7.5v7.5h7.5v7.5h7.5v15h-7.5v7.5h-7.5v7.5h-7.5z"/><path d="M152.9 96.7v-7.5h7.5v-15h-7.5v-7.5h-7.5v-7.5h-7.5v7.5h-7.5v7.5h-7.5v15h7.5v7.5h7.5v7.5h7.5v-7.5h7.5zm-30 15h-7.5v-7.5H92.9v7.5h-7.5v7.5h-7.5v7.5h-7.5v30h7.5v7.5h7.5v7.5h7.5v7.5h22.5v-7.5h7.5v-7.5h7.5v-7.5h7.5v-30h-7.5v-7.5h-7.5v-7.5zm0 15v7.5h7.5v15h-7.5v7.5h-7.5v7.5h-7.5v7.5h-7.5v-7.5h-7.5v-7.5h-7.5v-7.5h-7.5v-15h7.5v-7.5h7.5v-7.5h7.5v-7.5h7.5v7.5h7.5v7.5h7.5z"/><path d="M107.9 119.2h-7.5v7.5h-7.5v7.5h-7.5v15h7.5v7.5h7.5v7.5h7.5v-7.5h7.5v-7.5h7.5v-15h-7.5v-7.5h-7.5v-7.5zm97.5 7.5v-7.5h-7.5v-7.5h-7.5v-7.5h-22.5v7.5h-7.5v7.5h-7.5v7.5h-7.5v30h7.5v7.5h7.5v7.5h7.5v7.5h22.5v-7.5h7.5v-7.5h7.5v-7.5h7.5v-30h-7.5zm0 22.5h-7.5v7.5h-7.5v7.5h-7.5v7.5h-7.5v-7.5h-7.5v-7.5h-7.5v-7.5h-7.5v-15h7.5v-7.5h7.5v-7.5h7.5v-7.5h7.5v7.5h7.5v7.5h7.5v7.5h7.5v15z"/><path d="M197.9 134.2h-7.5v-7.5h-7.5v-7.5h-7.5v7.5h-7.5v7.5h-7.5v15h7.5v7.5h7.5v7.5h7.5v-7.5h7.5v-7.5h7.5v-15z"/></g><g fill="#00beff"><use xlink:href="#C"/><path d="M145.4 51.7h7.5v7.5h-7.5z"/><path d="M152.9 59.2h7.5v7.5h-7.5z"/><path d="M160.4 66.7h7.5v7.5h-7.5z"/></g><g fill="#0096ff"><path d="M145.4 44.2h7.5v7.5h-7.5z"/><path d="M152.9 51.7h7.5v7.5h-7.5z"/><path d="M160.4 59.2h7.5v7.5h-7.5z"/><path d="M167.9 66.7h7.5v7.5h-7.5zm-60 37.5h7.5v7.5h-7.5z"/><path d="M115.4 111.7h7.5v7.5h-7.5z"/><path d="M122.9 119.2h7.5v7.5h-7.5z"/><path d="M130.4 126.7h7.5v7.5h-7.5zm52.5-22.5h7.5v7.5h-7.5z"/><path d="M190.4 111.7h7.5v7.5h-7.5z"/><path d="M197.9 119.2h7.5v7.5h-7.5z"/><path d="M205.4 126.7h7.5v7.5h-7.5zm-97.5-37.5h7.5v7.5h-7.5z"/><path d="M115.4 96.7h7.5v7.5h-7.5z"/><path d="M122.9 104.2h7.5v7.5h-7.5z"/><path d="M130.4 111.7h7.5v7.5h-7.5zm15 37.5h7.5v7.5h-7.5z"/><path d="M152.9 156.7h7.5v7.5h-7.5z"/><path d="M160.4 164.2h7.5v7.5h-7.5z"/><path d="M167.9 171.7h7.5v7.5h-7.5zm-97.5-22.5h7.5v7.5h-7.5z"/><path d="M77.9 156.7h7.5v7.5h-7.5z"/><path d="M85.4 164.2h7.5v7.5h-7.5z"/><path d="M92.9 171.7h7.5v7.5h-7.5z"/></g><g fill="#00beff"><path d="M152.9 96.7h7.5v7.5h-7.5z"/><path d="M145.4 104.2h7.5v7.5h-7.5zm22.5-15h7.5v-15h-7.5v15z"/><path d="M137.9 111.7h7.5v7.5h-7.5zm22.5-22.5h7.5v7.5h-7.5z"/><path d="M130.4 104.2h7.5v7.5h-7.5z"/><path d="M122.9 96.7h7.5v7.5h-7.5z"/><path d="M115.4 89.2h7.5v7.5h-7.5z"/><use xlink:href="#D"/><use xlink:href="#C" x="-37.5" y="60"/><path d="M107.9 111.7h7.5v7.5h-7.5z"/><path d="M115.4 119.2h7.5v7.5h-7.5z"/><path d="M122.9 126.7h7.5v7.5h-7.5z"/><path d="M130.4 141.7v7.5h7.5v-15h-7.5v7.5zm-15 15h7.5v7.5h-7.5z"/><path d="M107.9 164.2h7.5v7.5h-7.5z"/><path d="M100.4 171.7h7.5v7.5h-7.5zm22.5-22.5h7.5v7.5h-7.5z"/><path d="M92.9 164.2h7.5v7.5h-7.5z"/><path d="M85.4 156.7h7.5v7.5h-7.5z"/><path d="M77.9 149.2h7.5v7.5h-7.5z"/><use xlink:href="#D" x="-37.5" y="60"/><use xlink:href="#C" x="37.5" y="60"/><path d="M182.9 111.7h7.5v7.5h-7.5z"/><path d="M190.4 119.2h7.5v7.5h-7.5z"/><path d="M197.9 126.7h7.5v7.5h-7.5z"/><path d="M205.4 134.2v15h7.5v-15h-7.5zm-15 22.5h7.5v7.5h-7.5z"/><path d="M182.9 164.2h7.5v7.5h-7.5z"/><path d="M175.4 171.7h7.5v7.5h-7.5zm22.5-22.5h7.5v7.5h-7.5z"/><path d="M167.9 164.2h7.5v7.5h-7.5z"/><path d="M160.4 156.7h7.5v7.5h-7.5z"/><path d="M152.9 149.2h7.5v7.5h-7.5z"/><use xlink:href="#D" x="37.5" y="60"/></g><g fill="#22dff0"><path d="M107.9 66.7h7.5v7.5h-7.5zm22.5-22.5h7.5v7.5h-7.5z"/><path d="M122.9 51.7h7.5v7.5h-7.5z"/><path d="M115.4 59.2h7.5v7.5h-7.5zm30 15h7.5v-7.5h-15v7.5h-7.5v7.5h-7.5v7.5h15v-7.5h7.5v-7.5zm-75 52.5h7.5v7.5h-7.5zm22.5-22.5h7.5v7.5h-7.5z"/><path d="M85.4 111.7h7.5v7.5h-7.5z"/><path d="M77.9 119.2h7.5v7.5h-7.5zm22.5 7.5v7.5h-7.5v7.5h-7.5v7.5h15v-7.5h7.5v-7.5h7.5v-7.5h-15zm45 0h7.5v7.5h-7.5zm22.5-22.5h7.5v7.5h-7.5z"/><path d="M160.4 111.7h7.5v7.5h-7.5z"/><path d="M152.9 119.2h7.5v7.5h-7.5zm30 7.5h-7.5v7.5h-7.5v7.5h-7.5v7.5h15v-7.5h7.5v-7.5h7.5v-7.5h-7.5z"/></g><g fill="#99f2f7"><path d="M137.9 59.2h7.5v7.5h-7.5z"/><path d="M130.4 66.7h7.5v7.5h-7.5z"/><path d="M122.9 74.2h7.5v7.5h-7.5zm-22.5 45h7.5v7.5h-7.5z"/><path d="M92.9 126.7h7.5v7.5h-7.5z"/><path d="M85.4 134.2h7.5v7.5h-7.5zm90-15h7.5v7.5h-7.5z"/><path d="M167.9 126.7h7.5v7.5h-7.5z"/><path d="M160.4 134.2h7.5v7.5h-7.5z"/></g><defs ><path id="B" d="M167.9 179.2h-7.5v-7.5h-7.5v-7.5h-7.5v-7.5h-7.5v7.5h-7.5v7.5h-7.5v7.5h-7.5v7.5h-7.5v15h7.5v-7.5h7.5v-7.5h7.5v-7.5h7.5v-7.5h7.5v7.5h7.5v7.5h7.5v7.5h7.5v7.5h7.5v-15h-7.5v-7.5z"/><path id="C" d="M115.4 74.2h7.5v-7.5h7.5v-7.5h7.5v-7.5h7.5v-7.5h-15v7.5h-7.5v7.5h-7.5v7.5h-7.5v22.5h7.5v-15z"/><path id="D" d="M152.9 66.7h-7.5v-7.5h-7.5v7.5h-7.5v7.5h-7.5v15h7.5v7.5h15v-7.5h7.5v-7.5h7.5v-7.5h-7.5v-7.5z"/></defs></svg>