<svg xmlns="http://www.w3.org/2000/svg" xmlns:xlink="http://www.w3.org/1999/xlink" viewBox="0 0 283.5 283.5"><circle cx="141.7" cy="141.7" r="141.7" fill="#22dff0"/><path d="M207.3 74.5h4.4v22.1h4.4V70.1h-8.8zm13.2 0v22h13.2v-22h-13.2zm8.8 17.7h-4.4V79h4.4v13.2zM51.5 74.7v22h13.2v-22H51.5zm8.8 17.6H56V79.1h4.4v13.2h-.1zm8.8-17.6v22h4.4v-8.8h8.8V74.7H69.1zm4.5 8.8v-4.4H78v4.4h-4.4zM36 79.1h4.5v17.6h4.4V79.1h4.4v-4.4H36zm72.5 169v3.1H107v-3.1h1.5zm-1.5 7.7h6.2v1.5H107v-1.5zm7.7-7.7h-6.2v-1.5h6.2v1.5zm-6.2 4.7v-1.6h4.6v1.6h-4.6zm4.7 3v-3.1h1.5v3.1h-1.5zm4.6-7.7v3.1h6.2v1.6h-6.2v3.1h6.2v1.5h-7.7v-10.8h7.7v1.5h-6.2 0zm15.4 0v9.3h-1.5v-4.6h-4.6v4.6h-1.5v-9.3h1.5v3.1h4.6v-3.1h1.5 0zm-1.5 0h-4.6v-1.5h4.6v1.5zm4.6 0v3.1h-1.5v-3.1h1.5zm-1.5 7.7h6.2v1.5h-6.2v-1.5zm7.7-7.7h-6.2v-1.5h6.2v1.5zm-6.2 4.7v-1.6h4.6v1.6h-4.6zm4.7 3v-3.1h1.5v3.1H141zm4.6-7.7v7.7h-1.5v-7.7h1.5zm4.7 0h-4.6v-1.5h4.6v1.5zm-4.7 7.7h4.6v1.5h-4.6v-1.5zm6.2-7.7v7.7h-1.5v-7.7h1.5zm4.6 1.6v1.5h-1.6v6.2h-1.5v-10.8h1.5v3.1h1.6zm1.6 1.5v1.6h-1.5v-1.6h1.5zm3-4.6v10.8h-1.5v-3.1h-1.6v-1.5h1.6v-6.2h1.5 0zm14 0v1.5h-6.2v-1.5h6.2zm0 4.6v1.6h-6.2v-1.6h6.2zm-6.2 4.6h6.2v1.5h-6.2v-1.5zm7.7-4.6H175v-3.1h1.5v3.1zm-1.5 4.6v-3.1h1.5v3.1H175zm-2.7-21.3V231h-7v3.5h7zm-52.9 0V231h-7v3.5h7zm15.2-12.4h-3.1v6.2h3.1v-6.2zm3.1 6.2h3.1v-6.2h-3.1v6.2z"/><path d="M134.6 228.3h3.1v3.1h-3.1z"/><path d="M131.5 240.6h3.1v-9.2h-3.1v9.2zm6.2 0h3.1v-9.2h-3.1v9.2zm6.2-18.5v18.4h3.1v-6.1h6.1v-12.3c-1.5.1-9.2 0-9.2 0zm6.1 9.3h-3.1v-6.1h3.1v6.1zm70.5-82.2v-22.5H213v-7.5h-7.5v-7.5H198v-7.5h-7.5v-7.5H183v-30h-7.5v-7.5H168v-7.5h-7.5v-7.5H153v-7.5h-22.5v7.5H123v7.5h-7.5v7.5H108v7.5h-7.5v30H93v7.5h-7.5v7.5H78v7.5h-7.5v7.5H63v22.5H48v37.5h7.5v7.5H63v7.5h7.5v7.5H213v-7.5h7.5v-7.5h7.5v-7.5h7.5v-37.5h-15z"/><path d="M93 179.2h-7.5v-7.5H78v-7.5h-7.5v-7.5h-15v30H63v7.5h7.5v7.5h30v-15H93v-7.5zm75 0h-7.5v-7.5H153v-7.5h-7.5v-7.5H138v7.5h-7.5v7.5H123v7.5h-7.5v7.5H108v15h22.5v-7.5h7.5v-7.5h7.5v7.5h7.5v7.5h22.5v-15H168v-7.5zm45-22.5v7.5h-7.5v7.5H198v7.5h-7.5v7.5H183v7.5 7.5h7.5H213v-7.5h7.5v-7.5h7.5v-30h-15z" fill="#7d7d7d"/><path d="M93 179.2h-7.5v-7.5H78v-7.5h-7.5v-7.5h-15v22.5H63v7.5h7.5v7.5H78v7.5h22.5v-15H93v-7.5zm75 0h-7.5v-7.5H153v-7.5h-7.5v-7.5H138v7.5h-7.5v7.5H123v7.5h-7.5v7.5H108v15h15v-7.5h7.5v-7.5h7.5v-7.5h7.5v7.5h7.5v7.5h7.5v7.5h15v-15H168v-7.5zm45-22.5v7.5h-7.5v7.5H198v7.5h-7.5v7.5H183v15h22.5v-7.5h7.5v-7.5h7.5v-7.5h7.5v-22.5h-15z" fill="#afafaf"/><g fill="#c8c8c8"><path d="M93 179.2h-7.5v-7.5H78v-7.5h-7.5v-7.5h-15v15H63v7.5h7.5v7.5H78v7.5h7.5v7.5h15v-15H93v-7.5z"/><use xlink:href="#B"/><path d="M220.5 156.7H213v7.5h-7.5v7.5H198v7.5h-7.5v7.5H183v15h15v-7.5h7.5v-7.5h7.5v-7.5h7.5v-7.5h7.5v-15h-7.5z"/></g><g fill="#e1e1e1"><path d="M93 179.2h-7.5v-7.5H78v-7.5h-7.5v-7.5h-15v7.5H63v7.5h7.5v7.5H78v7.5h7.5v7.5H93v7.5h7.5v-15H93v-7.5z"/><use xlink:href="#B"/><path d="M213 156.7v7.5h-7.5v7.5H198v7.5h-7.5v7.5H183v15h7.5v-7.5h7.5v-7.5h7.5v-7.5h7.5v-7.5h7.5v-7.5h7.5v-7.5h-15z"/></g><g fill="#fff"><path d="M138 156.7h7.5v7.5H138z"/><path d="M130.5 164.2h7.5v7.5h-7.5z"/><path d="M123 171.7h7.5v7.5H123z"/><path d="M115.5 179.2h7.5v7.5h-7.5z"/><path d="M108 186.7h7.5v7.5H108zm-15 0h7.5v7.5H93z"/><path d="M85.5 179.2H93v7.5h-7.5z"/><path d="M78 171.7h7.5v7.5H78z"/><path d="M70.5 164.2H78v7.5h-7.5z"/><path d="M63 156.7h7.5v7.5H63zm82.5 7.5h7.5v7.5h-7.5z"/><path d="M153 171.7h7.5v7.5H153z"/><path d="M160.5 179.2h7.5v7.5h-7.5z"/><path d="M168 186.7h7.5v7.5H168zm15 0h7.5v7.5H183z"/><path d="M190.5 179.2h7.5v7.5h-7.5z"/><path d="M198 171.7h7.5v7.5H198z"/><path d="M205.5 164.2h7.5v7.5h-7.5z"/><path d="M213 156.7h7.5v7.5H213z"/></g><g fill="#0041e6"><path d="M160.5 111.7v-7.5h7.5v-7.5h7.5v-30H168v-7.5h-7.5v-7.5H153v-7.5h-22.5v7.5H123v7.5h-7.5v7.5H108v30h7.5v7.5h7.5v7.5h7.5v7.5H153v-7.5h7.5zm-15-7.5v7.5H138v-7.5h-7.5v-7.5H123v-7.5h-7.5v-15h7.5v-7.5h7.5v-7.5h7.5v-7.5h7.5v7.5h7.5v7.5h7.5v7.5h7.5v15h-7.5v7.5H153v7.5h-7.5z"/><path d="M153 96.7v-7.5h7.5v-15H153v-7.5h-7.5v-7.5H138v7.5h-7.5v7.5H123v15h7.5v7.5h7.5v7.5h7.5v-7.5h7.5zm-30 15h-7.5v-7.5H93v7.5h-7.5v7.5H78v7.5h-7.5v30H78v7.5h7.5v7.5H93v7.5h22.5v-7.5h7.5v-7.5h7.5v-7.5h7.5v-30h-7.5v-7.5H123v-7.5zm0 15v7.5h7.5v15H123v7.5h-7.5v7.5H108v7.5h-7.5v-7.5H93v-7.5h-7.5v-7.5H78v-15h7.5v-7.5H93v-7.5h7.5v-7.5h7.5v7.5h7.5v7.5h7.5z"/><path d="M108 119.2h-7.5v7.5H93v7.5h-7.5v15H93v7.5h7.5v7.5h7.5v-7.5h7.5v-7.5h7.5v-15h-7.5v-7.5H108v-7.5zm97.5 7.5v-7.5H198v-7.5h-7.5v-7.5H168v7.5h-7.5v7.5H153v7.5h-7.5v30h7.5v7.5h7.5v7.5h7.5v7.5h22.5v-7.5h7.5v-7.5h7.5v-7.5h7.5v-30h-7.5zm0 22.5H198v7.5h-7.5v7.5H183v7.5h-7.5v-7.5H168v-7.5h-7.5v-7.5H153v-15h7.5v-7.5h7.5v-7.5h7.5v-7.5h7.5v7.5h7.5v7.5h7.5v7.5h7.5v15z"/><path d="M198 134.2h-7.5v-7.5H183v-7.5h-7.5v7.5H168v7.5h-7.5v15h7.5v7.5h7.5v7.5h7.5v-7.5h7.5v-7.5h7.5v-15z"/></g><g fill="#00beff"><path d="M115.5 74.2h7.5v-7.5h7.5v-7.5h7.5v-7.5h7.5v-7.5h-15v7.5H123v7.5h-7.5v7.5H108v22.5h7.5v-15z"/><path d="M145.5 51.7h7.5v7.5h-7.5z"/><path d="M153 59.2h7.5v7.5H153z"/><path d="M160.5 66.7h7.5v7.5h-7.5z"/></g><g fill="#0096ff"><path d="M145.5 44.2h7.5v7.5h-7.5z"/><path d="M153 51.7h7.5v7.5H153z"/><path d="M160.5 59.2h7.5v7.5h-7.5z"/><path d="M168 66.7h7.5v7.5H168zm-60 37.5h7.5v7.5H108z"/><path d="M115.5 111.7h7.5v7.5h-7.5z"/><path d="M123 119.2h7.5v7.5H123z"/><path d="M130.5 126.7h7.5v7.5h-7.5zm52.5-22.5h7.5v7.5H183z"/><path d="M190.5 111.7h7.5v7.5h-7.5z"/><path d="M198 119.2h7.5v7.5H198z"/><path d="M205.5 126.7h7.5v7.5h-7.5zM108 89.2h7.5v7.5H108z"/><path d="M115.5 96.7h7.5v7.5h-7.5z"/><path d="M123 104.2h7.5v7.5H123z"/><path d="M130.5 111.7h7.5v7.5h-7.5zm15 37.5h7.5v7.5h-7.5z"/><path d="M153 156.7h7.5v7.5H153z"/><path d="M160.5 164.2h7.5v7.5h-7.5z"/><path d="M168 171.7h7.5v7.5H168zm-97.5-22.5H78v7.5h-7.5z"/><path d="M78 156.7h7.5v7.5H78z"/><path d="M85.5 164.2H93v7.5h-7.5z"/><path d="M93 171.7h7.5v7.5H93z"/></g><g fill="#00beff"><path d="M153 96.7h7.5v7.5H153z"/><path d="M145.5 104.2h7.5v7.5h-7.5zm22.5-15h7.5v-15H168v15z"/><path d="M138 111.7h7.5v7.5H138zm22.5-22.5h7.5v7.5h-7.5z"/><path d="M130.5 104.2h7.5v7.5h-7.5z"/><path d="M123 96.7h7.5v7.5H123z"/><path d="M115.5 89.2h7.5v7.5h-7.5z"/><path d="M153 66.7h-7.5v-7.5H138v7.5h-7.5v7.5H123v15h7.5v7.5h15v-7.5h7.5v-7.5h7.5v-7.5H153v-7.5zm-75 67.5h7.5v-7.5H93v-7.5h7.5v-7.5h7.5v-7.5H93v7.5h-7.5v7.5H78v7.5h-7.5v22.5H78v-15z"/><path d="M108 111.7h7.5v7.5H108z"/><path d="M115.5 119.2h7.5v7.5h-7.5z"/><path d="M123 126.7h7.5v7.5H123z"/><path d="M130.5 141.7v7.5h7.5v-15h-7.5v7.5zm-15 15h7.5v7.5h-7.5z"/><path d="M108 164.2h7.5v7.5H108z"/><path d="M100.5 171.7h7.5v7.5h-7.5zm22.5-22.5h7.5v7.5H123z"/><path d="M93 164.2h7.5v7.5H93z"/><path d="M85.5 156.7H93v7.5h-7.5z"/><path d="M78 149.2h7.5v7.5H78z"/><path d="M115.5 126.7H108v-7.5h-7.5v7.5H93v7.5h-7.5v15H93v7.5h15v-7.5h7.5v-7.5h7.5v-7.5h-7.5v-7.5zm37.5 7.5h7.5v-7.5h7.5v-7.5h7.5v-7.5h7.5v-7.5h-15v7.5h-7.5v7.5H153v7.5h-7.5v22.5h7.5v-15z"/><path d="M183 111.7h7.5v7.5H183z"/><path d="M190.5 119.2h7.5v7.5h-7.5z"/><path d="M198 126.7h7.5v7.5H198z"/><path d="M205.5 134.2v15h7.5v-15h-7.5zm-15 22.5h7.5v7.5h-7.5z"/><path d="M183 164.2h7.5v7.5H183z"/><path d="M175.5 171.7h7.5v7.5h-7.5zm22.5-22.5h7.5v7.5H198z"/><path d="M168 164.2h7.5v7.5H168z"/><path d="M160.5 156.7h7.5v7.5h-7.5z"/><path d="M153 149.2h7.5v7.5H153z"/><path d="M190.5 126.7H183v-7.5h-7.5v7.5H168v7.5h-7.5v15h7.5v7.5h15v-7.5h7.5v-7.5h7.5v-7.5h-7.5v-7.5z"/></g><g fill="#22dff0"><path d="M108 66.7h7.5v7.5H108zm22.5-22.5h7.5v7.5h-7.5z"/><path d="M123 51.7h7.5v7.5H123z"/><path d="M115.5 59.2h7.5v7.5h-7.5zm30 15h7.5v-7.5h-15v7.5h-7.5v7.5H123v7.5h15v-7.5h7.5v-7.5zm-75 52.5H78v7.5h-7.5zM93 104.2h7.5v7.5H93z"/><path d="M85.5 111.7H93v7.5h-7.5z"/><path d="M78 119.2h7.5v7.5H78zm22.5 7.5v7.5H93v7.5h-7.5v7.5h15v-7.5h7.5v-7.5h7.5v-7.5h-15zm45 0h7.5v7.5h-7.5zm22.5-22.5h7.5v7.5H168z"/><path d="M160.5 111.7h7.5v7.5h-7.5z"/><path d="M153 119.2h7.5v7.5H153zm30 7.5h-7.5v7.5H168v7.5h-7.5v7.5h15v-7.5h7.5v-7.5h7.5v-7.5H183z"/></g><g fill="#99f2f7"><path d="M138 59.2h7.5v7.5H138z"/><path d="M130.5 66.7h7.5v7.5h-7.5z"/><path d="M123 74.2h7.5v7.5H123zm-22.5 45h7.5v7.5h-7.5z"/><path d="M93 126.7h7.5v7.5H93z"/><path d="M85.5 134.2H93v7.5h-7.5zm90-15h7.5v7.5h-7.5z"/><path d="M168 126.7h7.5v7.5H168z"/><path d="M160.5 134.2h7.5v7.5h-7.5z"/></g><defs ><path id="B" d="M168 179.2h-7.5v-7.5H153v-7.5h-7.5v-7.5H138v7.5h-7.5v7.5H123v7.5h-7.5v7.5H108v15h7.5v-7.5h7.5v-7.5h7.5v-7.5h7.5v-7.5h7.5v7.5h7.5v7.5h7.5v7.5h7.5v7.5h7.5v-15H168v-7.5z"/></defs></svg>