<svg xmlns="http://www.w3.org/2000/svg" xmlns:xlink="http://www.w3.org/1999/xlink" width="1082" height="1082"><circle fill="#0f0" cx="541" cy="541" r="541"/><path d="M863.611 437.791h-14.375v14.375h21.562v7.187h7.187v14.375h-7.187v7.187h-28.749v-7.187h-7.187v-7.187h14.375v7.187h14.375v-14.375H842.05v-7.187h-7.187v-14.375h7.187v-7.187h28.749v7.187h7.187v7.187h-14.375v-7.187zm53.994 0h-28.749v-7.187h43.124v14.375h-7.187v7.187h-7.187v7.187h-14.375v14.375h28.749v7.187h-43.124v-21.562h7.187v-7.187h7.187v-7.187h14.375v-7.188zm32.433 21.562v21.562h-7.187v-50.311h14.375v14.375h7.187v14.375h7.187v-28.749h14.375v50.311H971.6v-7.187h-14.375v-14.375h-7.187zm-17.16 56.492h-37.733v12.578h37.733v12.578h12.578v37.733h-12.578v12.578h-50.311v-12.578H869.99v-25.156h25.156v25.156h25.156v-37.733H869.99v-37.733h62.889v12.577zm-791.932-1.797h8.984V541h-17.968v-26.952h-17.968V541H96.025v-62.889h44.921v8.984h8.984v17.968h-8.984v8.985zm-8.984-26.952h-17.968v17.968h17.968v-17.968zm76.473-8.984v8.984h-26.952v17.968h26.952v8.984h-26.952V541h-17.968v-62.889h44.92zm192.152 476.131v7.187h-21.562v21.562H364.65v-50.311h35.936v7.187h7.187v14.375h-7.186zm-7.187-14.374h-14.375v14.375H393.4v-14.375zm61.182 34.14v8.984h-35.936v-50.311h14.375v41.327h21.561zm25.245-5.391v14.375h-14.375v-43.124h7.187v-7.187h28.749v7.187h7.187v43.124H494.2v-14.375h-14.373zm14.375-7.187v-21.562h-14.375v21.562h14.375zm39.602 7.187v14.375h-14.375v-43.124h7.187v-7.187h28.749v7.187h7.187v43.124h-14.375v-14.375h-14.373zm14.374-7.187v-21.562h-14.375v21.562h14.375zm53.995-7.188v-21.562h14.375v21.562h-7.187v7.187h-7.187v21.562h-14.375V961.43h-7.187v-7.187h-7.187v-21.562H587.8v21.562h14.373zm25.245 28.75v-50.311h35.936v7.187h-21.562v14.375h21.562v7.187h-21.562v14.375h21.562v7.187h-35.936zm82.744-21.562h7.187v21.562h-14.375v-21.562H688.6v21.562h-14.375v-50.311h35.937v7.187h7.187v14.375h-7.187v7.187zm-7.187-21.562H688.6v14.375h14.375v-14.375zm-271.141-49.305h5.39v16.171h-10.781v-16.171h-10.781v16.171h-10.781v-37.733h26.952v5.39h5.39v10.781h-5.39v5.391zm-5.391-16.171h-10.781v10.781h10.781v-10.781z"/><use xlink:href="#B"/><use xlink:href="#B" x="40.482"/><path d="M531.755 890.564v16.171h-5.39v-37.733h10.781v10.781h5.39v10.781h5.391v-21.562h10.781v37.733h-10.781v-5.39h-10.781v-10.781h-5.391zm45.873 16.171h-10.781v-37.733h10.781v16.171h5.39v-5.39h5.391v-10.781h10.781v10.781h-5.39v5.39h-5.39v5.391h5.39v5.39h5.391v10.781H588.41v-10.781h-5.391v-5.39h-5.39v16.171zm29.72 0v-37.733H634.3v5.39h-16.171v10.781H634.3v5.391h-16.171v10.781H634.3v5.39h-26.952zm35.11 0v-37.733h26.952v5.39h5.391v26.952h-5.391v5.39h-26.952zm21.562-32.342h-10.781v26.952h10.781v-26.952zm72.24-288.334h30.04v-60.08h30.041V465.9H766.3v-30.041h-30.04v-30.04h-30.04v-30.04h-30.04V345.74h-30.04V315.7H616.1v-30.04h-30.04v-30.04h-30.04v-30.04h-30.04v30.04h-30.04v30.041H465.9v30.04h-30.04v30.04h-30.04v30.041h-30.04v30.04h-30.04v30.04H315.7V465.9h-30.04v60.079h30.04v60.08h30.041v60.08h30.04v60.08h30.041v60.079h30.04v30.041h210.28v-30.041h30.04v-60.079h30.04v-60.08h30.041v-60.08zm122.037 61.958v30.04h-30.04v30.041h-30.041v30.04h-30.04v30.04h-30.039v30.041h-30.041v90.12h120.16v-30.041h30.04v-30.039h30.041v-30.04h30.04v-30.041h30.04V648.019c0-.002-75.159-.002-90.12-.002zm-514.434 120.16h-30.04v-30.04h-30.041v-30.04h-30.04v-30.041h-30.041v-30.04h-90.12v120.159h30.041v30.041h30.04v30.04h30.04v30.039h30.041v30.041h120.159v-90.12h-30.04v-30.039zm-120.16-394.274h30.041v-30.041h30.04v-30.04h30.041v-30.04h30.04v-30.041h30.04v-30.04h30.041v-90.12h-120.16v30.04h-30.04v30.041h-30.041v30.04h-30.04v30.04h-30.04v120.16l60.078.001zm484.394-120.161h30.041v30.041h30.039v30.04h30.04v30.04h30.041v30.041h90.12v-120.16h-30.04v-30.04h-30.041v-30.04h-30.04v-30.041h-30.041v-30.04H678.057v90.12h30.039v30.039z"/><path fill="#4b25dc" d="M736.26 465.9v-30.041h-30.04v-30.04h-30.04v-30.04h-30.04V345.74H616.1V315.7h-30.04v-30.04h-30.04v-30.04h-30.04v30.041h-30.04v30.04H465.9v30.04h-30.041v30.041h-30.04v30.04h-30.04v30.04h-30.041V465.9h-30.04v60.079h30.04v60.08h30.041v60.08h30.04v60.08h30.04v60.079h210.28v-60.079h30.04v-60.08h30.041v-60.08h30.04v-60.08h30.041V465.9H736.26z"/><g fill="#7a5fff"><path d="M616.1 766.299h30.041V706.22H616.1v60.079zM736.26 465.9v-30.041h-30.04v-30.04h-30.04v-30.04h-30.04V345.74H616.1V315.7h-30.04v-30.04h-30.04v-30.04h-30.04v30.041h-30.04v30.04H465.9v30.04h-30.04v30.041h-30.04v30.04h-30.04v30.04h-30.04V465.9H315.7v60.079h30.041v60.08h30.04v60.08h30.041v60.08h30.04v60.079h120.159v-180.24h30.041v-30.04h30.04v-30.041h30.041v-30.04h90.12v30.04H766.3v-60.079h-30.04z"/><path d="M706.22 586.059h30.041v-60.08H706.22v60.08z"/><path d="M676.18 646.14h30.04v-60.08h-30.04v60.08z"/><path d="M646.141 706.22h30.04v-60.08h-30.04v60.08z"/></g><path fill="#0f0" d="M525.98 255.62v30.041h-30.04v30.04H465.9v30.04h-30.04v30.041h-30.04v30.04h-30.04v30.04h-30.04V465.9h150.2v-30.041h30.04v-30.04h30.04v-150.2h-30.04z"/><path fill="#fff" d="M586.061 465.9v-30.04H556.02v-30.04h-30.04v30.04h-30.04v30.04H315.699v30.04h150.2v30.04h30.041v30.041h30.04v30.04h30.04v-30.04h30.041V525.98h30.04v-60.079h-30.04z"/><path fill="#00c300" d="M495.941 315.7v30.04H465.9v30.041h-30.04v30.04h-30.04v30.04h-30.04V465.9h90.12v-30.04h30.041v-30.04h30.04V315.7h-30.04z"/><path fill="#fa34f3" d="M525.979 586.059v-30.04h-30.04v-30.041H465.9v-30.04H315.7v30.04h30.04v60.08h30.04v60.08h30.041v60.08h30.04v60.079h120.16v-180.24h-30.042z"/><path fill="#cf15f9" d="M495.941 586.06v-30.04H465.9v-30.041h-30.04v-30.04h-90.12v30.04h30.04v60.08h30.04v60.08h30.041v60.08h30.04v60.079h60.08v-180.24h-30.04z"/><path fill="#00beff" d="M736.261 465.901V435.86H706.22v-30.04h-30.04v-30.04h-30.04v-30.04H616.1V315.7h-30.04v-30.04h-30.04v150.199h30.041V465.9h30.04v30.04h150.2V465.9h-30.04z"/><path fill="#0096ff" d="M676.18 435.86v-30.04h-30.04v-30.04H616.1v-30.04h-30.04V315.7h-30.04v90.12h30.041v30.04h30.04v30.04h90.12v-30.04H676.18z"/><path fill="#0041e6" d="M858.298 253.742v-30.04h-30.04v-30.04h-30.041v-30.041h-90.12v60.08h30.04v30.04h30.041v30.041h30.04v30.04h30.041v30.04h60.079v-90.12h-30.04z"/><path fill="#00beff" d="M828.258 253.742v-30.04h-30.039v-30.04h-30.041v-30.041h-60.079v60.08h30.04v30.04h30.039v30.041h30.041v30.04h30.039v30.04h60.08v-90.12h-60.08z"/><g fill="#99f2f7"><path d="M828.258 313.823h30.04v30.04h-30.04z"/><path d="M798.217 283.783h30.041v30.04h-30.041z"/><path d="M768.178 253.742h30.04v30.041h-30.04z"/><path d="M738.138 223.703h30.04v30.04h-30.04z"/><path d="M708.098 193.663h30.041v30.04h-30.041z"/></g><path fill="#fff" d="M828.258 283.783v30.04h30.039v30.04h30.04v-60.079h-60.079z"/><g fill="#0096ff"><path d="M858.297 253.742h30.04v30.041h-30.04zm-90.119-30.039h30.04v30.04h-30.04z"/><path d="M738.138 193.663h30.04v30.04h-30.04z"/><path d="M708.098 163.623h30.041v30.041h-30.041z"/></g><path fill="#050" d="M223.702 253.742v-30.04h30.04v-30.04h30.041v-30.041h90.12v60.08h-30.04v30.04h-30.041v30.041h-30.04v30.04h-30.041v30.04h-60.079v-90.12h30.04z"/><path fill="#00c300" d="M253.743 253.742v-30.04h30.04v-30.04h30.041v-30.041h60.079v60.08h-30.04v30.04h-30.04v30.041h-30.041v30.04h-30.04v30.04h-60.08v-90.12h60.081z"/><g fill="#0f0"><path d="M223.703 313.823h30.04v30.04h-30.04z"/><path d="M253.743 283.783h30.041v30.04h-30.041z"/><path d="M283.783 253.743h30.04v30.041h-30.04z"/><path d="M313.823 223.703h30.04v30.04h-30.04z"/><path d="M343.862 193.664h30.041v30.04h-30.041z"/></g><path fill="#fff" d="M253.743 283.783v30.04h-30.04v30.04h-30.04v-60.079h60.08z"/><g fill="#008700"><path d="M193.664 253.743h30.04v30.041h-30.04zm90.119-30.04h30.04v30.04h-30.04z"/><path d="M313.823 193.664h30.04v30.04h-30.04z"/><path d="M343.862 163.623h30.041v30.041h-30.041z"/></g><path fill="#ac15f9" d="M193.662 768.177v30.039h30.04v30.04h30.041v30.041h90.12v-60.08h-30.04v-30.039h-30.041v-30.041h-30.04v-30.039h-30.041v-30.04h-60.079v90.12h30.04z"/><path fill="#fa34f3" d="M223.703 768.177v30.039h30.04v30.04h30.041v30.041h60.079v-60.08h-30.04v-30.039h-30.04v-30.041h-30.041v-30.039h-30.04v-30.04h-60.08v90.12h60.081z"/><g fill="#fab4f3"><path d="M193.663 678.057h30.04v30.04h-30.04z"/><path d="M223.703 708.096h30.041v30.04h-30.041z"/><path d="M253.743 738.136h30.04v30.041h-30.04z"/><path d="M283.783 768.177h30.04v30.04h-30.04z"/><path d="M313.822 798.216h30.041v30.04h-30.041z"/></g><path fill="#fff" d="M223.703 738.136v-30.039h-30.04v-30.04h-30.04v60.079h60.08z"/><g fill="#cf15f9"><path d="M163.624 738.136h30.04v30.041h-30.04zm90.119 30.041h30.04v30.04h-30.04z"/><path d="M283.783 798.216h30.04v30.04h-30.04z"/><path d="M313.822 828.256h30.041v30.041h-30.041z"/></g><path fill="#4b25dc" d="M888.339 768.177v30.04h-30.04v30.039h-30.041v30.041h-90.12v-60.08h30.04v-30.04h30.041v-30.041h30.04v-30.04H858.3v-30.04h60.079v90.12h-30.04z"/><path fill="#a08cff" d="M858.298 768.177v30.04h-30.039v30.039h-30.041v30.041h-60.079v-60.08h30.04v-30.04h30.039v-30.041h30.041v-30.04h30.039v-30.04h60.08v90.12h-60.08z"/><g fill="#ded7ff"><path d="M858.298 678.057h30.04v30.04h-30.04z"/><path d="M828.258 708.097h30.041v30.04h-30.041z"/><path d="M798.218 738.136h30.04v30.041h-30.04z"/><path d="M768.179 768.177h30.04v30.04h-30.04z"/><path d="M738.138 798.217h30.041v30.04h-30.041z"/></g><path fill="#fff" d="M858.298 738.136v-30.04h30.039v-30.04h30.04v60.079h-60.079z"/><g fill="#7a5fff"><path d="M888.338 738.136h30.04v30.041h-30.04zm-90.12 30.041h30.04v30.04h-30.04z"/><path d="M768.179 798.217h30.04v30.04h-30.04z"/><path d="M738.138 828.256h30.041v30.041h-30.041z"/></g><defs ><path id="B" d="M456.163 895.954v10.781h-10.781v-32.343h5.39v-5.39h21.562v5.39h5.39v32.343h-10.781v-10.781h-10.78zm10.781-5.39v-16.171h-10.781v16.171h10.781z"/></defs></svg>