<svg xmlns="http://www.w3.org/2000/svg" width="1082" height="1082"><circle fill="#c689fa" cx="541" cy="541" r="541"/><path d="M881.522 487.434v-10.107h20.214v70.75h-20.214V497.54h-10.108v-10.107h10.108v.001zm45.595 50.535H917.01v-50.536h10.107v-10.107h40.429v10.108h10.108v50.536h-10.108v10.107h-40.429v-10.108h0zm30.321-50.535h-20.214v50.536h20.214v-50.536h0zm-834.703-3.033v8.086h-16.171v48.514H90.392v-48.514H74.221v-8.086h48.514 0zm20.304 48.514h-8.086v-40.429h8.086V484.4h32.343v8.086h8.086v40.429h-8.086v8.086h-32.343v-8.086zm24.257-40.428h-16.171v40.429h16.171v-40.429h0zm68.837 16.171v8.086h-24.257v24.257h-16.171v-56.6h40.429v8.086h8.086v16.171h-8.087 0zm-8.086-16.171h-16.171v16.171h16.171v-16.171zM475.991 932.25H465.21v10.781h16.171v5.39h5.391v10.781h-5.391v5.391h-21.562v-5.391h-5.39v-5.39h10.781v5.39h10.781v-10.781H459.82v-5.39h-5.39V932.25h5.39v-5.39h21.562v5.39h5.391v5.391h-10.781v-5.391h-.001zm40.5 0h-21.562v-5.39h32.343v10.781h-5.391v5.391h-5.39v5.39H505.71v10.781h21.562v5.391h-32.343v-16.171h5.39v-5.39h5.39v-5.391h10.781l.001-5.392h0zm24.311 16.172v16.171h-5.391V926.86h10.781v10.781h5.391v10.781h5.39V926.86h10.781v37.733h-10.781v-5.391h-10.781v-10.781l-5.39.001h0zm86.374-16.172h-16.171v5.391h16.171v5.391h5.39v16.171h-5.39v5.391h-21.562v-5.391h-5.391v-10.781h10.781v10.781h10.781v-16.171h-21.562V926.86h26.952l.001 5.39h0zM448.05 887.869h6.289v18.867h-12.578v-18.867h-12.578v18.867h-12.578v-44.022h31.444v6.289h6.289v12.578h-6.289v6.288h.001zm-6.289-18.867h-12.578v12.578h12.578v-12.578zm34.661 25.156v12.578h-12.578v-37.733h6.289v-6.289h25.156v6.289h6.289v37.733H489v-12.578h-12.578 0zM489 887.869v-18.867h-12.578v18.867H489zm53.527 0h6.289v18.867h-12.578v-18.867H523.66v18.867h-12.578v-44.022h31.444v6.289h6.289v12.578h-6.289l.001 6.288h0zm-6.289-18.867H523.66v12.578h12.578v-12.578zm22.101 37.733v-44.022h12.578v44.022h-12.578zm59.817-44.022v6.289h-12.578v37.733H593v-37.733h-12.578v-6.289h37.734 0zm34.66 18.867v-18.867h12.578v18.867h-6.289v6.289h-6.289v18.867h-12.578v-18.867h-6.289v-6.289h-6.289v-18.867h12.578v18.867h12.578zm83.443-295.519H766.3v-60.08h30.04v-60.08H766.3v-30.04h-30.041v-30.04H706.22V375.78h-30.04v-30.04h-30.04V315.7H616.1v-30.04h-30.041v-30.04h-30.04v-30.041h-30.04v30.041H495.94v30.04H465.9v30.04h-30.041v30.041h-30.04v30.04h-30.04v30.041H345.74v30.04H315.7v30.04h-30.041v60.08H315.7v60.08h30.04v60.08h30.041v60.079h30.04v60.08h30.04v30.041h210.28V766.3h30.041v-60.08h30.04v-60.079h30.039v-60.08h-.002zm122.038 61.956v30.041h-30.041v30.04h-30.04v30.041h-30.04v30.04h-30.041v30.04h-30.04v90.121h120.159v-30.041h30.041v-30.04h30.04v-30.041h30.04v-30.04h30.041v-120.16c.001-.001-75.158-.001-90.119-.001h0zM343.862 768.178h-30.04v-30.04h-30.04v-30.041h-30.041v-30.04h-30.04v-30.041h-90.12v120.16h30.04v30.04h30.04v30.041h30.041v30.04h30.04v30.041h120.16v-90.121h-30.041l.001-30.039h0zM223.703 373.903h30.04v-30.04h30.041v-30.04h30.04v-30.041h30.04v-30.04h30.041v-30.041h30.04v-90.12H283.786v30.041h-30.041v30.04h-30.04v30.04h-30.041v30.041h-30.04v120.159l60.079.001h0zm484.394-120.159h30.04v30.04h30.041v30.041h30.04v30.04h30.04v30.04h90.12V253.746h-30.04v-30.041h-30.04v-30.04h-30.041v-30.04h-30.04v-30.041h-120.16v90.12h30.041l-.001 30.04h0z"/><path fill="#ded7ff" d="M766.3 495.94V465.9h-30.041v-30.04h-30.04v-30.04h-30.04v-30.04h-30.041v-30.04H616.1V315.7h-30.041v-30.04h-30.04v-30.04h-30.04v30.04H495.94v30.04H465.9v30.04h-30.041v30.04h-30.04v30.041h-30.04v30.04H345.74V465.9H315.7v60.079h30.04v60.08h30.041v60.08h30.04v60.08h30.04v60.079h210.28v-60.079h30.041v-60.08h30.04v-60.08h30.04v-60.08H766.3V495.94zm91.997 182.117v30.041h-30.041v30.04h-30.04v30.04h-30.039v30.041h-30.041v60.079h90.12v-30.04h30.041v-30.04h30.04v-30.041h30.04v-90.12h-60.08 0zm-544.475 90.12h-30.04v-30.04h-30.041v-30.04h-30.04v-30.041h-60.08v90.12h30.04v30.041h30.041v30.04h30.04v30.04h90.12v-60.079h-30.04v-30.041h0zm-60.08-424.315v-30.04h30.041v-30.041h30.04v-30.04h30.04v-30.04h30.041v-60.08h-90.12v30.04h-30.041v30.041h-30.04v30.04h-30.041v90.12h60.08 0zm484.395-90.119h30.041v30.04h30.039v30.041h30.04v30.04h60.08v-90.12h-30.04v-30.04h-30.041v-30.041h-30.04v-30.04h-90.12v60.08h30.04l.001 30.04h0z"/><path fill="#a08cff" d="M766.3 465.9h-30.041v-30.04h-30.04v-30.04H676.18v-30.04h-30.04v-30.04H616.1V315.7h-30.04v-30.04h-30.04v120.16h-30.04v30.04h-30.04v30.04H465.9v-30.04h30.04v-30.04h30.041V315.7H495.94v30.04H465.9v30.041h-30.04v30.04h-30.04v30.04h-30.04V465.9H315.7v60.08h30.04v60.079h30.041v60.08h30.04v60.08h30.04v60.08h210.28v-60.08h30.041v-60.08h30.039v-60.08h30.04V525.98H766.3V465.9zm122.037 212.157v30.041h-30.04v30.04h-30.041v30.041h-30.04v30.04h-30.04v30.04h-30.041V858.3h90.12v-30.041h30.041v-30.04h30.04v-30.04h30.04v-90.121l-30.039-.001h0zm-574.514 120.16h-30.04v-30.04h-30.041v-30.041h-30.04v-30.04h-30.041v-30.041h-30.04v90.121h30.04v30.04h30.041v30.04h30.04v30.041h90.12v-30.041h-30.04v-30.039h.001zm-90.12-484.394h30.04v-30.04h30.041v-30.041h30.04v-30.04h30.04v-30.041h30.041v-30.04h-90.12v30.04h-30.041v30.041h-30.04v30.04h-30.041v90.12h30.041v-30.039h-.001zm514.434-90.12h30.041v30.04h30.04v30.041h30.04v30.04h30.041v30.04h30.04v-90.12h-30.04v-30.04h-30.041v-30.041h-30.04v-30.04h-90.12v30.04h30.04l-.001 30.04h0z"/><path fill="#fff" d="M586.06 435.86h-30.04v-30.04h-30.04v30.04h-30.04v30.04H315.701v30.04h150.2v30.04h30.04v30.041h30.041v30.04h30.04v-30.04h30.04V525.98H616.1v-60.079h-30.04V435.86zm302.277 242.197v30.041h-30.04v30.04h60.079v-60.08l-30.039-.001h0zm-694.675 0h-30.04v60.08h60.08v-30.04h-30.041v-30.04h.001zm0-394.274v60.079h30.041v-30.04h30.04v-30.04l-60.081.001zm664.635 60.079h30.04v-60.079h-60.08v30.04h30.041l-.001 30.039h0z"/><g fill="#4b25dc"><path d="M646.14 495.94v30.04H616.1v30.041h-30.04v30.04h-30.04v180.24h60.08v-60.079h30.039v-60.08h30.041v-60.08h30.039v-60.08h30.04v-30.04l-90.119-.002h0zm212.157 272.237h30.04v30.041h-30.04v-30.041z"/><path d="M828.257 798.217h30.041v30.04h-30.041v-30.04z"/><path d="M798.217 828.257h30.04v30.04h-30.04v-30.04zm-604.555-60.08h30.041v30.041h-30.041v-30.041z"/><path d="M223.703 798.217h30.04v30.04h-30.04v-30.04z"/><path d="M253.742 828.257h30.041v30.04h-30.041v-30.04zm-30.039-604.554h30.04v30.04h-30.04v-30.04z"/><path d="M253.742 193.663h30.041v30.04h-30.041v-30.04z"/><path d="M283.783 163.623h30.04v30.041h-30.04v-30.041zm544.474 60.08h30.041v30.04h-30.041v-30.04z"/><path d="M798.217 193.663h30.04v30.04h-30.04v-30.04z"/><path d="M768.178,163.623h30.04v30.041h-30.04V163.623z"/></g><g fill="#7a5fff"><path d="M616.1 766.299h30.039V706.22H616.1v60.079h0zM556.02 556.02h30.04v30.04h-30.04v-30.04zm-60.08 0H465.9v-30.041h-30.04v-30.04h-90.12v30.04h30.041v60.08h30.04v60.08h30.04v60.08H465.9v60.079h60.08v-180.24h-30.04V556.02h0zm90.12-120.16h30.04v30.04h90.12v-30.04h-30.04v-30.04h-30.04v-30.04H616.1v-30.04h-30.04V315.7h-30.04v90.12h30.04v30.04z"/><path d="M586.06,525.979h30.041v30.041H586.06V525.979z"/><path d="M616.1 495.94h30.04v30.04H616.1v-30.04zm120.159 0H766.3v30.04h-30.041v-30.04z"/><path d="M706.22 586.06h30.04v-60.08h-30.04v60.08z"/><path d="M676.18 646.14h30.039v-60.08H676.18v60.08z"/><path d="M646.14 706.22h30.041v-60.08H646.14v60.08zm242.197 31.917h30.04v30.04h-30.04v-30.04zm-90.12 30.04h30.04v30.041h-30.04v-30.041z"/><path d="M768.178 798.217h30.04v30.04h-30.04v-30.04z"/><path d="M738.137 828.257h30.041v30.04h-30.041v-30.04zm-574.514-90.12h30.04v30.04h-30.04v-30.04zm90.119 30.04h30.041v30.041h-30.041v-30.041z"/><path d="M283.783 798.217h30.04v30.04h-30.04v-30.04z"/><path d="M313.823 828.257h30.04v30.04h-30.04v-30.04zM193.662 253.742h30.041v30.041h-30.041v-30.041zm90.121-30.039h30.04v30.04h-30.04v-30.04z"/><path d="M313.823 193.663h30.04v30.04h-30.04v-30.04z"/><path d="M343.862 163.623h30.041v30.041h-30.041v-30.041zm514.435 90.119h30.04v30.041h-30.04v-30.041zm-90.119-30.039h30.04v30.04h-30.04v-30.04z"/><path d="M738.137 193.663h30.041v30.04h-30.041v-30.04z"/><path d="M708.098,163.623h30.04v30.041h-30.04V163.623z"/></g></svg>