<svg xmlns="http://www.w3.org/2000/svg" xmlns:xlink="http://www.w3.org/1999/xlink" viewBox="0 0 1082 1082"><circle cx="541" cy="541" r="541" fill="#4b25dc"/><circle cx="541" cy="541" r="441.6" fill="#c689fa"/><path d="M426.1 50.2l-12.9 3.4 10.2 38.6-6.4 1.7-10.2-38.6-12.9 3.4-1.7-6.4 32.1-8.5 1.8 6.4zm18.9-4l5.6 32.9-6.5 1.1-5.6-32.9 6.5-1.1zm19.7-3.4L445 46.1l-1.1-6.5 19.7-3.3 1.1 6.5zM450.5 79l19.7-3.3 1.1 6.5-19.7 3.3-1.1-6.5zm20.7-37.3l5.6 32.9-6.5 1.1-5.6-32.9 6.5-1.1zm20.5 10.9l20-1.5.5 6.7-20 1.5 1.5 19.9-6.6.5-3.5-46.4 26.6-2 .5 6.6-20 1.5 1 13.2zm25.6-15.2l1 13.3-6.6.5-1-13.3 6.6-.5zm58.1-5.9L572.6 78l-6.7-.4 2.4-39.9-6.6-.4.4-6.6 13.3.8zm18.5 8.1l-4.4 33-6.5-.9 4.3-33 6.6.9zm-4.4 33l19.8 2.6-.9 6.5-19.8-2.6.9-6.5zm24.2-30.4l-19.8-2.6.9-6.5 19.8 2.6-.9 6.5zm6.6.9l-4.4 33-6.5-.9 4.3-33 6.6.9zm19.2 3.4L632.1 79l-6.5-1.5L633 45l6.5 1.5zM632.1 79l19.5 4.4-1.5 6.5-19.5-4.4 1.5-6.5zM659 50.9l-19.5-4.4L641 40l19.5 4.4-1.5 6.5zm6.4 1.5L658 84.9l-6.5-1.5 7.4-32.5 6.5 1.5zm30.8 44.1l7.1-18.7 18.6 7.1-7.1 18.7-18.6-7.1zm88.2 18.3l-3.2 5.9 5.8 3.2-9.6 17.4-5.8-3.2 9.6-17.5-17.5-9.7-9.6 17.4-5.8-3.2 22.5-40.8 23.3 12.8-3.2 5.8-17.5-9.7-6.4 11.7 17.4 9.9zm0 0l6.4-11.7 5.8 3.2-6.4 11.7-5.8-3.2zm50.9 16.7l-22.4 33-5.5-3.7 11.2-16.5-16.6-11.2-11.2 16.5-5.5-3.7 22.4-33 5.5 3.7-7.5 11 16.6 11.2 7.5-11 5.5 3.7zm-5.5-3.7l-16.6-11.2 3.7-5.5 16.6 11.2-3.7 5.5zm28 38.3l-4.2 5.2 5.1 4.2-12.6 15.4-5.1-4.2 12.6-15.4-15.5-12.7-12.6 15.4-5.1-4.2 29.5-36 20.6 16.9-4.2 5.1-15.5-12.7-8.4 10.3 15.4 12.7zm0 0l8.4-10.3 5.1 4.2-8.4 10.3-5.1-4.2zm32.6 11.5l-23.1 24.1 4.8 4.6-4.6 4.8-14.4-13.8 4.6-4.8 4.8 4.6 23.1-24.1-4.8-4.6 4.6-4.8 14.4 13.8-4.6 4.8-4.8-4.6zm35.9 38l-8.9-9.9-29.8 26.6-4.4-4.9 29.8-26.6-8.8-9.9 4.9-4.4 22.1 24.8-4.9 4.3zm.2 32.4l3.9 5.3-16 11.8-3.9-5.3 16-11.8zm5.4-4l-5.4 4-4-5.4 5.4-4 4 5.4zm12-17.2l-16 11.8-3.9-5.3 16-11.8 3.9 5.3zm-8.1 22.6l4 5.4-5.4 4-4-5.4 5.4-4zm24-1.2l-16 11.8-3.9-5.3 16-11.8 3.9 5.3zm-10.9 57.4l17.6-9.5 9.4 17.6-17.6 9.5-9.4-17.6zm26.8 53.6l9.2 25-6.2 2.3-9.2-25 6.2-2.3zm9.2 24.9l12.5-4.6 2.3 6.2-12.5 4.6-2.3-6.2zm5.5-23.4l6.3-2.3 6.9 18.8-6.3 2.3-6.9-18.8zm18.8-6.9l-12.5 4.6-2.3-6.2 12.5-4.6 2.3 6.2zm9.2 25l-9.2-25 6.2-2.3 9.2 25-6.2 2.3zm-21.5 19l1.7 6.4-6.5 1.7 6.9 25.7-6.4 1.7-8.7-32.1 13-3.4zm8.1 4.6l1.8 6.5-6.4 1.7-1.7-6.5 6.3-1.7zm8.2 4.7l1.7 6.4-6.5 1.7-1.7-6.4 6.5-1.7zm8.1 4.7l1.7 6.5-6.4 1.7-1.7-6.5 6.4-1.7zm16.3 9.4l-12.9 3.5-1.7-6.4 6.5-1.7-6.9-25.7 6.4-1.7 8.6 32zm-7.6 28.6l-6.5 1.1-1.2-6.6-26.2 4.6-1.1-6.5 45.8-8 1.1 6.5-13.1 2.3 1.2 6.6zm16.5 17.3l-45.8 8-1.1-6.5 13.1-2.3-1.1-6.6 6.5-1.1 1.2 6.6 26.2-4.6 1 6.5zm-21.9-9.7l-6.6 1.1-1.1-6.5 6.6-1.2 1.1 6.6zm27.3 88.7l-46.6.7-.1-6.6 13.3-.2-.3-20 6.6-.1.3 20 26.6-.4.2 6.6zm-.4-26.6l-26.6.4-.1-6.6 26.6-.4.1 6.6zm-41.8 67.1l19.9 2.5-2.5 19.8-19.9-2.5 2.5-19.8zm13.9 100.1l3.5-12.8-38.5-10.6 1.8-6.4 38.5 10.6 3.5-12.8 6.4 1.8-8.8 32.1-6.4-1.9zm-37.2 6.7l-7 18.7-6.2-2.3 7-18.8 6.2 2.4zm21.9 36.6l-31.2-11.7 2.3-6.2 31.2 11.7-2.3 6.2zm9.3-24.9l-31.2-11.7 2.3-6.2 31.2 11.7-2.3 6.2zm-7 18.7l7-18.7 6.2 2.3-7 18.7-6.2-2.3zm-22 18.3l-8.7 18-6-2.9 8.7-18-18-8.7 2.9-5.9 41.9 20.2-11.6 24-6-2.9 8.7-18-11.9-5.8zm.4 29.8l-12-5.8 2.9-6 12 5.8-2.9 6zm-24.1 53.3l-38.8-25.7 3.7-5.6 33.3 22 3.6-5.5 5.5 3.6-7.3 11.2zm-42.6-8.3l-12.2 15.9-5.2-4 12.2-15.9 5.2 4zm10.3 41.4L906.1 838l4-5.2 26.5 20.3-4 5.2zm16.2-21.1l-26.5-20.3 4-5.2 26.5 20.3-4 5.2zm-12.2 15.9l12.2-15.9 5.2 4-12.2 15.9-5.2-4zm-41-2.7L882 865.1l-4.9-4.5 13.6-14.7 4.9 4.5zm6.4 42.2L877.5 870l4.5-4.9 24.5 22.6-4.5 4.9zm18.1-19.5l-24.5-22.6 4.5-4.9 24.5 22.6-4.5 4.9zm-13.6 14.7l13.6-14.7 4.9 4.5-13.6 14.7-4.9-4.5zm-58 9.5l12.6 15.5-15.5 12.6-12.6-15.5 15.5-12.6zm-60.3 67.2l-3.4-5.8-5.7 3.4-10.3-17.1 5.7-3.4 10.3 17.1 17.2-10.3-10.3-17.1 5.7-3.4 24 39.9-22.8 13.7-3.4-5.7 17.2-10.3-6.9-11.4-17.3 10.4zm0 0l6.9 11.4-5.7 3.4-6.9-11.4 5.7-3.4zm-40 35.6l-17.3-36 6-2.9 8.7 17.9 18-8.7-8.6-17.9 6-2.9 17.3 36-6 2.9-5.8-12-18 8.7 5.8 12-6.1 2.9zm6-2.8l18-8.7 2.9 6-18 8.7-2.9-6zm-47.3 5l-2.3-6.3-6.2 2.3-7-18.7 6.2-2.3 7 18.7 18.8-7-7-18.7 6.2-2.3 16.3 43.6-24.9 9.3-2.3-6.2 18.8-7-4.7-12.5-18.9 7.1zm0 0l4.7 12.5-6.2 2.3-4.7-12.5 6.2-2.3zm-26 22.4l-9.3-32-6.4 1.8-1.9-6.4 19.2-5.5 1.9 6.4-6.4 1.8 9.3 32 6.4-1.8 1.8 6.4-19.2 5.5-1.8-6.4 6.4-1.8zm-50.8 12l13-2.7-8.1-39.1 6.5-1.3 8.1 39.1 13-2.7 1.3 6.5-32.5 6.7-1.3-6.5zm-44.9 12.6l-2.2-19.8 6.6-.7 2.2 19.8-6.6.7zm11-21.3l-6.7.7-.7-6.7 6.7-.7.7 6.7zm5.8-7.4l-6.6.7-2.2-19.8 6.6-.7 2.2 19.8zm.8 6.7l-.7-6.7 6.7-.8.8 6.6-6.8.9zm8.9 19l-2.2-19.8 6.6-.7 2.2 19.8-6.6.7zm-71-35l-.6 20-19.9-.6.6-20 19.9.6zm-98.2 23.5l26.2 4.5-1.1 6.5-26.2-4.5 1.1-6.5zm12.2-31.7l-2.3 13.1-6.5-1.1 2.3-13.1 6.5 1.1zm17.5 16.5l-1.1 6.6-19.7-3.4 1.1-6.6 19.7 3.4zm8.8-11.9l-26.2-4.5 1.1-6.5 26.2 4.5-1.1 6.5zm-12.2 31.7l2.3-13.1 6.5 1.1-2.3 13.1-6.5-1.1zm-72.6-9.3l3.5-12.9 6.4 1.7-1.7 6.5 25.7 6.9-1.7 6.4-32.2-8.6zm16.3-9.4l-6.5-1.7 1.7-6.4 6.5 1.7-1.7 6.4zm24.4-14l-6.4-1.7 1.7-6.5-25.7-6.9 1.7-6.4 32.1 8.7-3.4 12.8zm-16.3 9.3l-6.4-1.7 1.7-6.5 6.4 1.7-1.7 6.5zm8.2-4.7l-6.5-1.8 1.7-6.4 6.5 1.7-1.7 6.5zm-76.8 3.4l16.2-43.7 6.2 2.3-4.6 12.5 6.3 2.3-2.3 6.2-6.3-2.3-9.3 25-6.2-2.3zm19.4-14l2.3-6.3 6.2 2.3-2.3 6.3-6.2-2.3zm3.9 8.5l2.3-6.2 6.3 2.3 9.3-25 6.2 2.3-16.2 43.7-6.2-2.3 4.6-12.5-6.3-2.3zm-94.2-29.4l22.7-40.7 5.8 3.2-6.5 11.6 17.5 9.7-3.2 5.8-17.5-9.7-13 23.3-5.8-3.2zm23.2 13l13-23.3 5.8 3.2-13 23.3-5.8-3.2zm-37.1-69.7l-12.1 16-15.9-12.1 12.1-16 15.9 12.1zm-93.8-38l9.4 9.5 28.4-28.1 4.7 4.7-28.4 28.1 9.4 9.5-4.7 4.7-23.5-23.8 4.7-4.6zm-25.6-29.9l12.7 15.5-5.1 4.2-12.7-15.5 5.1-4.2zm-4.2-5.1l25.8-21.1 4.2 5.1-25.8 21.1-4.2-5.1zm16.9 20.6l25.8-21.1 4.2 5.1-25.8 21.1-4.2-5.1zm25.7-21.2L173.5 834l5.1-4.2 12.7 15.5-5.1 4.2zM143 827.1l-11.2-16.6 5.6-3.8 11.2 16.6 16.5-11.2 3.7 5.5-38.5 26.1-14.9-22 5.5-3.7 11.2 16.6 10.9-7.5zm-26-14.6l11-7.5 3.7 5.5-11 7.5-3.7-5.5zm-34.1-47.7l41.7-20.6 3 6-35.8 17.7 2.9 5.9-5.9 2.9-5.9-11.9zm-9.8-38.4l7.6 18.5-6.1 2.5-7.6-18.5 6.1-2.5zm-2.5-6.1l30.8-12.7 2.5 6.1-30.8 12.7-2.5-6.1zm10.2 24.6l30.8-12.7 2.5 6.1L83.3 751l-2.5-6.1zm30.8-12.7l-7.6-18.5 6.1-2.5 7.6 18.5-6.1 2.5zm-53.5-49.4l5.9 19.1-6.3 1.9-5.9-19.1 6.3-1.9zm-1.9-6.3l31.8-9.8 1.9 6.3-31.8 9.8-1.9-6.3zm7.8 25.4l31.8-9.8 1.9 6.3-31.8 9.8-1.9-6.3zm31.9-9.8L90 673l6.3-1.9 5.9 19.1-6.3 1.9zM79 627.9l-19.7 3.2-3.2-19.7 19.8-3.2 3.1 19.7zm-28.1-85.5l6.7-.1-.1-6.6 19.9-.3.1 6.6-19.9.4.3 20 19.9-.3.1 6.6-46.5.8-.5-26.6 6.6-.1.4 20 13.3-.2-.3-20.2zm0 0l-13.3.2-.1-6.6 13.3-.2.1 6.6zm-11.4-45.9l-1.5 20-6.6-.5 1.5-20 6.6.5zm.5-6.6l39.8 3-.5 6.6-19.9-1.5-1.5 20 19.9 1.5-.5 6.6-39.8-3 .5-6.6 13.3 1 1.5-20-13.3-1 .5-6.6zm18.8-36.8l6.6 1.1 1.1-6.5 19.7 3.3-1.1 6.5-19.6-3.3-3.3 19.7 19.7 3.3-1.1 6.5-45.9-7.7 4.4-26.3 6.5 1.1-3.3 19.7 13.1 2.2 3.2-19.6zm0 0l-13.1-2.2 1.1-6.5 13.1 2.2-1.1 6.5zm-6.3-33.8l32.4 8.1 1.6-6.4 6.4 1.6-4.8 19.4-6.4-1.6 1.6-6.4-32.4-8.1-1.6 6.4-6.4-1.6 4.8-19.3 6.4 1.6-1.6 6.3zm15.2-50.2l-4.2 12.6 37.9 12.7-2.1 6.3-37.9-12.6-4.2 12.6-6.3-2.1 10.5-31.5 6.3 2zm.8-20.7l18.3 8-2.7 6.1-18.3-8 2.7-6.1zm10.7-24.3l18.3 8-2.7 6.1-18.3-8 2.7-6.1zm10.3 26.2l6.1 2.7-2.7 6.2-6.1-2.7 2.7-6.2zm2.6-6.1l2.7-6.1 6.1 2.7-2.7 6.1-6.1-2.7zm3.5 8.8l2.7-6.1 18.3 8-2.7 6.1-18.3-8zm38.8-48.4l-17-10.5 10.5-16.9 17 10.5-10.5 16.9zm28.8-96.8l-17 20.4-5.1-4.2 17-20.4 5.1 4.2zm-17.1 20.5l10.2 8.5-4.2 5.1-10.2-8.5 4.2-5.1zm15.4 12.8l-5.1-4.3 12.8-15.4 5.1 4.3-12.8 15.4zm6 13.6l17-20.4 5.1 4.2-17 20.4-5.1-4.2zm17-20.4l-10.2-8.5 4.2-5.1 10.2 8.5-4.2 5.1zm5.9-64.3l9.4 9.4-4.7 4.7-4.7-4.7-18.8 18.8-4.7-4.7 23.5-23.5zm0 47l4.7-4.7 4.7 4.7 18.8-18.8 4.7 4.7-23.5 23.5-9.4-9.4zm0-28.2l4.7-4.7 4.7 4.7-4.7 4.7-4.7-4.7zm0 9.4l4.7-4.7 4.7 4.7-4.7 4.7-4.7-4.7zm0 9.4l4.7-4.7 4.7 4.7-4.7 4.7-4.7-4.7zm28.4-45.1l4.2 5.1-5.2 4.3 17 20.5-5.1 4.2-29.8-35.8 5.1-4.2 8.5 10.2 5.3-4.3zm6.8-23l29.8 35.8-5.1 4.2-8.5-10.2-5.2 4.3-4.2-5.1 5.2-4.3-17-20.5 5-4.2zm2.5 23.8l4.3 5.2-5.1 4.2-4.3-5.2 5.1-4.2zm40.7-54.2l13.6 22.9-5.7 3.4-13.6-22.9 5.7-3.4zm22.8-13.6l23.8 40-5.7 3.4-6.8-11.4-17.1 10.2-3.4-5.7 17.2-10.2L286 98.9l5.6-3.4zm56.2 16.4l-7.7-18.5 18.4-7.7 7.7 18.5-18.4 7.7z" fill="#ded7ff"/><path d="M862.7 509.3v-19.5h-19.5v-19.5h-19.5v-19.5h-19.5v-19.5h-19.5v-19.5h-19.5v-19.5h-19.5v-19.5h-39v-39h-19.5v-19.5h-19.5v-19.5h-19.5v-19.5h-19.5v-19.5h-19.5v-19.5h-19.5v-19.6h-19.5v-19.5h-58.5v19.5h-19.5v19.5h-19.5v19.5h-19.5v19.5h-19.5v19.5h-19.5v19.5h-19.5v19.5h-19.5v39h-39v19.5h-19.5v19.5h-19.5v19.5h-19.5v19.5h-19.5v19.5h-19.5v19.5h-19.5v19.5h-19.5v58.5h19.5v19.5h19.5v19.5h19.5v19.5h19.5v19.5h19.5v19.5h19.5v19.5h19.5v19.5h39v39h19.5v19.5h19.5v19.5h19.5v19.5h19.5v19.5h19.5v19.5h19.5v19.5h19.5v19.5h58.5v-19.5h19.5v-19.5h19.5v-19.5h19.5v-19.5h19.5v-19.5h19.5v-19.5h19.5v-19.5h19.5v-39h39v-19.5h19.5v-19.5h19.5v-19.5h19.5v-19.5h19.5v-19.5h19.5v-19.5h19.5v-19.5h19.5v-58.5l-19.5.1h0zm-312 39h-19.5v-19.5h19.5v19.5z"/><g fill="#a08cff"><path d="M414.2 411.8h19.5v19.5h19.5v19.5h19.5v19.5h19.5v19.5h19.5v19.5h58.5v-19.5h19.5v-19.5h19.5v-19.5h19.5v-19.5h19.5v-19.5h19.5v-19.5h19.5v-58.5h-19.5v-19.5h-19.5v-19.5h-19.5v-19.5h-19.5v-19.5h-19.5v-19.5h-19.5v-19.6h-58.5v19.5h-19.5v19.5h-19.5v19.5h-19.5v19.5h-19.5v19.5h-19.5v19.5h-19.5v58.5h19.5v19.6z"/><path d="M843.2 509.3v-19.5h-19.5v-19.5h-19.5v-19.5h-19.5v-19.5h-19.5v-19.5h-19.5v-19.5h-58.5v19.5h-19.5v19.5h-19.5v19.5h-19.5v19.5h-19.5v19.5h-19.5v19.5h-19.5v58.5h19.5v19.5h19.5v19.5h19.5v19.5h19.5v19.5h19.5v19.5h19.5v19.5h58.5v-19.5h19.5v-19.5h19.5v-19.5h19.5v-19.5h19.5v-19.5h19.5v-19.5h19.5v-58.5h-19.5zm-429 156v-19.5h19.5v-19.5h19.5v-19.5h19.5v-19.5h19.5v-19.5h19.5v-58.5h-19.5v-19.5h-19.5v-19.5h-19.5v-19.5h-19.5v-19.5h-19.5v-19.5h-19.5v-19.5h-58.5v19.5h-19.5v19.5h-19.5v19.5h-19.5v19.5h-19.5v19.5h-19.5v19.5h-19.5v58.5h19.5v19.5h19.5v19.5h19.5v19.5h19.5v19.5h19.5v19.5h19.5v19.5h58.5v-19.5h19.5z"/><path d="M667.7 665.3h-19.5v-19.5h-19.5v-19.5h-19.5v-19.5h-19.5v-19.5h-19.5v-19.5h-58.5v19.5h-19.5v19.5h-19.5v19.5h-19.5v19.5h-19.5v19.5h-19.5v19.5h-19.5v58.5h19.5v19.5h19.5v19.5h19.5v19.5h19.5v19.5h19.5v19.5h19.5v19.5h58.5v-19.5h19.5v-19.5h19.5v-19.5h19.5v-19.5h19.5v-19.5h19.5v-19.5h19.5v-58.5h-19.5v-19.5z"/></g><g fill="#7a5fff"><path d="M589.7 489.8v-19.5h19.5v-19.5h19.5v-19.5h19.5v-19.5h19.5v-19.5h19.5v-19.5h-58.5v-19.5h-19.5v-19.5h-19.5v-19.5h-19.5v-19.5h-19.5v-19.5h19.5v19.5h19.5v19.5h19.5v19.5h19.5v19.5h39v-19.5h-19.5v-19.5h-19.5v-19.5h-19.5v-19.5h-19.5v-19.5h-19.5v-19.5h-19.5v-19.6h-39v19.5h-19.5v19.5h-19.5v19.5h-19.5v19.5h-19.5v19.5h-19.5v19.5h-19.5v39h19.5v19.5h19.5v19.5h19.5v19.5h19.5v19.5h19.5v19.5h19.5v39h19.5v-58.5h-19.5v-19.5h-19.5v-19.5h-19.5v-19.5h-19.5v-19.5h19.5v19.5h19.5v19.5h19.5v19.5h19.5v19.5h19.5v58.5h19.5v-19.5l19.5.1h0z"/><path d="M843.2 548.3h-39v-19.5h-19.5v-19.5h-19.5v-19.5h-19.5v-19.5h-19.5v-19.5h19.5v19.5h19.5v19.5h19.5v19.5h19.5v19.5h39v-19.5h-19.5v-19.5h-19.5v-19.5h-19.5v-19.5h-19.5v-19.5h-19.5v-19.5h-19.5v-19.5h-39v19.5h-19.5v19.5h-19.5v19.5h-19.5v19.5h-19.5v19.5h-19.5v19.5h-19.5v39h19.5v19.5h19.5v19.5h19.5v19.5h19.5v19.5h19.5v19.5h19.5v39h19.5v-58.5h-19.5v-19.5h-19.5v-19.5h-19.5v-19.5h-19.5v-19.5h19.5v19.5h19.5v19.5h19.5v19.5h19.5v19.5h19.5v58.5h19.5v-19.5h19.5v-19.5h19.5v-19.5h19.5v-19.5h19.5v-19.5h19.5v-19.5h19.5v-19.5h-19.5zm-429 117v-19.5h19.5v-19.5h19.5v-19.5h19.5v-19.5h19.5v-19.5h19.5v-19.5h-58.5v-19.5h-19.5v-19.5h-19.5v-19.5h-19.5v-19.5h-19.5v-19.5h19.5v19.5h19.5v19.5h19.5v19.5h19.5v19.5h39v-19.5h-19.5v-19.5h-19.5v-19.5h-19.5v-19.5h-19.5v-19.5h-19.5v-19.5h-19.5v-19.5h-39v19.5h-19.5v19.5h-19.5v19.5h-19.5v19.5h-19.5v19.5h-19.5v19.5h-19.5v39h19.5v19.5h19.5v19.5h19.5v19.5h19.5v19.5h19.5v19.5h19.5v39h19.5v-58.5h-19.5v-19.5h-19.5v-19.5h-19.5v-19.5h-19.5v-19.5h19.5v19.5h19.5v19.5h19.5v19.5h19.5v19.5h19.5v58.5h19.5v-19.5h19.5z"/><path d="M648.2 723.8h-19.5v-19.5h-19.5v-19.5h-19.5v-19.5h-19.5v-19.5h-19.5v-19.5h19.5v19.5h19.5v19.5h19.5v19.5h19.5v19.5h39v-19.5h-19.5v-19.5h-19.5v-19.5h-19.5v-19.5h-19.5v-19.5h-19.5v-19.5h-19.5v-19.5h-39v19.5h-19.5v19.5h-19.5v19.5h-19.5v19.5h-19.5v19.5h-19.5v19.5h-19.5v39h19.5v19.5h19.5v19.5h19.5v19.5h19.5v19.5h19.5v19.5h19.5v39h19.5v-58.5h-19.5v-19.5h-19.5v-19.5h-19.5v-19.5h-19.5v-19.5h19.5v19.5h19.5v19.5h19.5v19.5h19.5v19.5h19.5v58.5h19.5v-19.5h19.5v-19.5h19.5v-19.5h19.5v-19.5h19.5v-19.5h19.5v-19.5h19.5v-19.5h-39z"/></g><path d="M433.7 372.8h39v19.5h19.5v19.5h19.5v19.5h19.5v19.5h19.5v-19.5h19.5v-19.5h19.5v-19.5h19.5v-19.5h19.5v-19.5h-19.5v-19.5h-19.5v-19.5h-19.5v-19.5h-19.5v-78h-39v19.5h-19.5v19.5h-19.5v19.5h-19.5v19.5h-19.5v19.5h-19.5v19.5h-19.5v39h39zm351 156v-19.5h-19.5v-19.5h-19.5v-19.5h-19.5v-78h-39v19.5h-19.5v19.5h-19.5v19.5h-19.5v19.5h-19.5v19.5h-19.5v19.5h-19.5v39h78v19.5h19.5v19.5h19.5v19.5h19.5v19.5h19.5v-19.5h19.5v-19.5h19.5v-19.5h19.5v-19.5h19.5v-19.5h-19.5zm-390 58.5h19.5v-19.5h19.5v-19.5h19.5v-19.5h-19.5v-19.5h-19.5v-19.5h-19.5v-19.5h-19.5v-78h-39v19.5h-19.5v19.5h-19.5v19.5h-19.5v19.5h-19.5v19.5h-19.5v19.5h-19.5v39h78v19.5h19.5v19.5h19.5v19.5h19.5v19.5h19.5v-19.5h19.5v-19.5zm214.5 97.5h-19.5v-19.5h-19.5v-19.5h-19.5v-78h-39v19.5h-19.5v19.5h-19.5v19.5h-19.5v19.5h-19.5v19.5h-19.5v19.5h-19.5v39h78v19.5h19.5v19.5h19.5v19.5h19.5v19.5h19.5v-19.5h19.5v-19.5h19.5v-19.5h19.5v-19.5h19.5v-19.5h-19.5v-19.5z" fill="#ded7ff"/><g fill="#4b25dc"><use xlink:href="#A"/><path d="M804.2 548.3v19.5h-19.5v19.5h-19.5v19.5h-19.5v19.5h-19.5v39h19.5v-19.5h19.5v-19.5h19.5v-19.5h19.5v-19.5h19.5v-19.5h19.5v-19.5h-39z"/><use xlink:href="#A" x="-175.5" y="175.5"/><use xlink:href="#A" y="351"/></g><path d="M531.2 353.3h19.5v19.5h-19.5zm-97.5 19.5h39v19.5h19.5v19.5h19.5v19.5h19.5v19.5h19.5v-19.5h19.5v-19.5h19.5v-19.5h19.5v-19.5h19.5v-19.5h-19.5v-19.5h-19.5v-19.5h-19.5v-19.5h-19.5v-78h-19.5v78h-19.5v19.5h-19.5v19.5h-19.5v19.5h-78v19.5h39zm78-19.5v-19.5h19.5v-19.5h19.5v19.5h19.5v19.5h19.5v19.5h-19.5v19.5h-19.5v19.5h-19.5v-19.5h-19.5v-19.5h-19.5v-19.5h19.5zm273 175.5v-19.5h-19.5v-19.5h-19.5v-19.5h-19.5v-78h-19.5v78h-19.5v19.5h-19.5v19.5h-19.5v19.5h-78v19.5h78v19.5h19.5v19.5h19.5v19.5h19.5v19.5h19.5v-19.5h19.5v-19.5h19.5v-19.5h19.5v-19.5h19.5v-19.5h-19.5zm-39 19.5v19.5h-19.5v19.5h-19.5v-19.5h-19.5v-19.5h-19.5v-19.5h19.5v-19.5h19.5v-19.5h19.5v19.5h19.5v19.5h19.5v19.5h-19.5zm-39-19.5h19.5v19.5h-19.5zm-312 58.5h19.5v-19.5h19.5v-19.5h19.5v-19.5h-19.5v-19.5h-19.5v-19.5h-19.5v-19.5h-19.5v-78h-19.5v78h-19.5v19.5h-19.5v19.5h-19.5v19.5h-78v19.5h78v19.5h19.5v19.5h19.5v19.5h19.5v19.5h19.5v-19.5h19.5v-19.5zm-39 0v-19.5h-19.5v-19.5h-19.5v-19.5h19.5v-19.5h19.5v-19.5h19.5v19.5h19.5v19.5h19.5v19.5h-19.5v19.5h-19.5v19.5h-19.5zm0-58.5h19.5v19.5h-19.5zm253.5 156h-19.5v-19.5h-19.5v-19.5h-19.5v-78h-19.5v78h-19.5v19.5h-19.5v19.5h-19.5v19.5h-78v19.5h78v19.5h19.5v19.5h19.5v19.5h19.5v19.5h19.5v-19.5h19.5v-19.5h19.5v-19.5h19.5v-19.5h19.5v-19.5h-19.5v-19.5zm-19.5 39h-19.5v19.5h-19.5v19.5h-19.5v-19.5h-19.5v-19.5h-19.5v-19.5h19.5v-19.5h19.5v-19.5h19.5v19.5h19.5v19.5h19.5v19.5zm-58.5-19.5h19.5v19.5h-19.5z" fill="#fff"/><defs><path id="A" d="M628.7 392.3h-19.5v19.5h-19.5v19.5h-19.5v19.5h-19.5v39h19.5v-19.5h19.5v-19.5h19.5v-19.5h19.5v-19.5h19.5v-19.5h19.5v-19.5h-39v19.5z"/></defs></svg>