<svg xmlns="http://www.w3.org/2000/svg" xmlns:xlink="http://www.w3.org/1999/xlink" viewBox="0 0 1082 1082"><circle cx="541" cy="541" r="541" fill="#4b25dc"/><circle cx="541" cy="541" r="441.6" fill="#c689fa"/><g fill="#ded7ff"><path d="M449.7 45.3l-13 2.8 8.4 39.1-6.5 1.4-8.4-39.1-13 2.8-1.4-6.5 32.5-7 1.4 6.5zm20.7-3.4l3.9 33.1-6.6.8-3.9-33.1 6.6-.8zm19.9-2.3l-19.9 2.3-.8-6.6 19.9-2.3.8 6.6zm-16 35.4l19.9-2.3.8 6.6-19.9 2.3-.8-6.6zm22.6-36.2l3.9 33.1-6.6.8-3.9-33.1 6.6-.8zm21.4 11.9l20-.4.1 6.7-20 .4.4 19.9-6.6.1-1-46.6 26.6-.6.1 6.6-20 .4.4 13.5zm26.4-13.9l.3 13.3-6.6.1-.3-13.3 6.6-.1zm62.1-2.2l-5.7 46.2-6.7-.8 4.9-39.7-6.6-.8.8-6.6 13.3 1.7zm19.5 9.4l-6.5 32.7-6.5-1.3 6.5-32.7 6.5 1.3zm-6.5 32.7l19.6 3.9-1.3 6.5-19.6-3.9 1.3-6.5zM646 47.9L626.4 44l1.3-6.5 19.6 3.9-1.3 6.5zm6.5 1.3L646 81.9l-6.5-1.3 6.5-32.7 6.5 1.3zm35 44.3l6.8-18.8 18.8 6.7-6.8 18.8-18.8-6.7zm91.6 18.4l-3.2 5.9 5.8 3.1-9.4 17.5-5.8-3.1 9.4-17.6-17.6-9.5-9.4 17.6-5.8-3.1 22-41 23.5 12.6-3.1 5.8-17.6-9.5-6.3 11.7 17.5 9.6zm0 0l6.3-11.7 5.8 3.1-6.3 11.7-5.8-3.1zm52.6 17.1l-22.1 33.2-5.5-3.7 11-16.6-16.6-11.1-11 16.6-5.5-3.7 22.1-33.2 5.5 3.7-7.4 11.1 16.7 11.1 7.4-11.1 5.4 3.7zm-5.5-3.7l-16.7-11.1 3.7-5.5 16.6 11.1-3.6 5.5zm29.6 39.1l-4.2 5.2 5.1 4.2-12.5 15.5-5.1-4.2 12.5-15.5L836 157l-12.5 15.5-5.1-4.2 29.3-36.2 20.7 16.7-4.2 5.1-15.6-12.6-8.4 10.3 15.6 12.8zm0 0l8.4-10.3 5.1 4.2-8.4 10.4-5.1-4.3zm33.9 12.6l-23 24.1 4.8 4.6-4.6 4.8-14.4-13.8 4.6-4.8 4.8 4.6 23-24.1-4.8-4.6 4.6-4.8 14.4 13.8-4.6 4.8-4.8-4.6zm37.2 39.2l-8.8-9.9-29.9 26.6-4.4-4.9 29.9-26.6-8.9-10 5-4.4 22.1 24.8-5 4.4zM928 250l3.9 5.3-16.1 11.8-3.9-5.3L928 250zm5.4-3.9l-5.4 4-4-5.4 5.4-4 4 5.4zm12.2-17.2l-16.1 11.8-3.9-5.3 16.1-11.8 3.9 5.3zm-8.3 22.5l4 5.4-5.4 4-4-5.4 5.4-4zm24-1l-16.1 11.8-3.9-5.3 16.1-11.8 3.9 5.3zm-9.5 60.2l17.7-9.3 9.2 17.7-17.7 9.3-9.2-17.7zm27.2 56.8l8.7 25.1-6.2 2.2-8.7-25.1 6.2-2.2zm8.8 25.2l12.6-4.4 2.2 6.3-12.6 4.4-2.2-6.3zm6-23.3l6.3-2.2 6.6 18.9-6.3 2.2-6.6-18.9zm18.9-6.6l-12.6 4.4-2.2-6.2 12.6-4.4 2.2 6.2zm8.7 25.2l-8.7-25.2 6.2-2.2 8.7 25.1-6.2 2.3zm-21.4 20.2l1.6 6.4-6.5 1.6 6.4 25.9-6.4 1.6-7.9-32.3 12.8-3.2zm8 4.8l1.6 6.5-6.4 1.6-1.6-6.5 6.4-1.6zm8.1 5l1.6 6.4-6.5 1.6-1.6-6.4 6.5-1.6zm8 4.8l1.6 6.5-6.4 1.6-1.6-6.5 6.4-1.6zm16.1 9.8l-12.9 3.2-1.6-6.4 6.5-1.6-6.4-25.9 6.4-1.6 8 32.3zm-8 30.1l-6.5 1-1-6.6-26.3 3.9-1-6.5 46.1-6.8 1 6.5-13.2 1.9.9 6.6zm16.1 17.8l-46.1 6.7-1-6.5 13.2-1.9-1-6.6 6.5-1 1 6.6 26.3-3.9 1.1 6.6zm-21.7-10.3l-6.6 1-1-6.5 6.6-1 1 6.5zm24.8 93.1l-46.6-.8.1-6.6 13.3.2.4-20 6.6.1-.4 20 26.6.5v6.6zm.5-26.6l-26.6-.5.1-6.6 26.6.5-.1 6.6zm-44.4 68.8l19.7 3.3-3.3 19.6-19.7-3.3 3.3-19.6zm8.6 103.9l4.1-12.7-37.9-12.4 2-6.3 37.9 12.4 4.1-12.7 6.3 2.1-10.3 31.6-6.2-2zm-38 6.4l-8 18.4-6.1-2.6 8-18.4 6.1 2.6zm20 37.7l-30.6-13.3 2.6-6.1 30.6 13.3-2.6 6.1zm10.6-24.4l-30.6-13.3 2.6-6.1 30.6 13.3-2.6 6.1zm-8 18.3l8-18.4 6.1 2.6-8 18.4-6.1-2.6zM977 766.1l-9.7 17.5-5.9-3.2 9.7-17.5-17.4-9.6 3.2-5.8 40.8 22.5-12.9 23.3-5.8-3.2 9.7-17.5-11.7-6.5zm-1.2 29.7l-11.7-6.4 3.2-5.8L979 790l-3.2 5.8zm-28.9 54.6l-37.2-28 4-5.3 31.9 24 4-5.3 5.3 4-8 10.6zm-43.2-9.5L890.5 856l-5-4.3 13.2-15.1 5 4.3zm7.6 41.9l-25.1-21.9 4.4-5 25.1 21.9-4.4 5zm17.5-20l-25.1-21.9 4.3-5 25.1 21.9-4.3 5zm-13.2 15.1l13.2-15.1 5 4.3-13.2 15.1-5-4.3zm-60.1 13.3l12.9 15.3-15.2 12.9-12.9-15.3 15.2-12.9zm-61.8 70.1l-3.5-5.7-5.6 3.5-10.5-17 5.6-3.5 10.5 17 17-10.5-10.5-17 5.6-3.5 24.5 39.6-22.7 14-3.5-5.6 17-10.5-7-11.3-16.9 10.5zm0 0l7 11.3-5.6 3.5-7-11.3 5.6-3.5zm-41.1 36.9L735 962.4l5.9-2.9 8.8 17.9 18-8.8-8.8-17.9 5.9-2.9 17.6 35.8-5.9 2.9-5.9-11.9-18 8.8 5.9 11.9-5.9 2.9zm5.9-2.9l18-8.8 2.9 5.9-18 8.8-2.9-5.9zm-48.8 6l-2.4-6.3-6.2 2.3-7.1-18.6 6.2-2.4 7.1 18.6 18.7-7.1-7.1-18.6 6.2-2.4 16.5 43.5-24.9 9.5-2.3-6.2 18.7-7.1-4.7-12.4-18.7 7.2zm0 0l4.7 12.4-6.2 2.4-4.7-12.4 6.2-2.4zm-27.1 22.8l-9.8-31.9-6.3 1.9-1.9-6.3 19-5.9 1.9 6.3-6.3 1.9 9.8 31.8 6.3-1.9 1.9 6.3-19 5.8-1.9-6.3 6.3-1.7zm-53.1 12.7l13-2.7-8-39.1 6.5-1.3 8.1 39.1 13-2.7 1.3 6.5-32.6 6.7-1.3-6.5zm-46.9 12.7l-2.1-19.8 6.6-.7 2.1 19.8-6.6.7zm11.1-21.2l-6.7.7-.7-6.7 6.7-.7.7 6.7zm5.8-7.3l-6.6.7-2.1-19.8 6.6-.7 2.1 19.8zm.7 6.6l-.7-6.7 6.7-.7.7 6.7-6.7.7zm8.8 19.1l-2.1-19.8 6.6-.7 2.1 19.8-6.6.7zm-73.6-35.4l-.8 20-19.9-.8.8-20 19.9.8zm-102 21.7l26.2 5-1.2 6.5-26.2-5 1.2-6.5zm12.8-31.5l-2.5 13.1-6.5-1.2 2.5-13.1 6.5 1.2zm17.2 16.8l-1.3 6.6-19.7-3.8 1.3-6.6 19.7 3.8zm9-11.8l-26.2-5 1.2-6.5 26.2 5-1.2 6.5zm-12.8 31.5l2.5-13.1 6.5 1.2-2.5 13.1-6.5-1.2zm-74.3-11.3l3.7-12.8 6.3 1.9-1.9 6.4 25.5 7.5-1.9 6.3-31.7-9.3zm16.6-9l-6.4-1.9 1.9-6.3 6.4 1.9-1.9 6.3zm24.7-13.5l-6.3-1.9 1.9-6.4-25.5-7.5 1.9-6.3 31.9 9.4-3.9 12.7zm-16.5 9l-6.3-1.9 1.9-6.4 6.3 1.9-1.9 6.4zm8.3-4.5l-6.4-1.9 1.9-6.3 6.4 1.9-1.9 6.3zm-78.3 1.1l17.2-43.2 6.1 2.4-4.9 12.4 6.2 2.5-2.5 6.1-6.2-2.5-9.9 24.7-6-2.4zm19.7-13.6l2.5-6.2 6.1 2.4-2.5 6.2-6.1-2.4zm3.7 8.6l2.5-6.1 6.2 2.5 9.9-24.7 6.1 2.5-17.2 43.2-6.1-2.4 4.9-12.4-6.3-2.6zM266.8 971l24-39.9 5.7 3.4-6.9 11.4 17.2 10.3-3.4 5.7-17.2-10.3-13.7 22.8-5.7-3.4zm22.8 13.7l13.7-22.8 5.7 3.4-13.7 22.8-5.7-3.4zm-37.5-72.8l-12.7 15.4-15.4-12.7 12.7-15.4 15.4 12.7zm-94.3-44.3l8.9 9.9 29.7-26.7 4.4 4.9-29.7 26.7 8.9 9.9-4.9 4.4-22.2-24.7 4.9-4.4zM132.4 835l11.9 16.1-5.3 3.9-11.9-16.1 5.3-3.9zm-3.9-5.3l26.8-19.8 3.9 5.3-26.8 19.8-3.9-5.3zm15.9 21.4l26.8-19.8 3.9 5.3-26.8 19.8-3.9-5.3zm26.7-19.8l-11.9-16.1 5.3-3.9 11.9 16.1-5.3 3.9zm-42.9-26l-10.3-17.2 5.7-3.5 10.3 17.2 17.1-10.3 3.4 5.7-39.9 24-13.7-22.8 5.7-3.4 10.3 17.2 11.4-6.9zm-25.2-16l11.4-6.9 3.4 5.7-11.4 6.9-3.4-5.7zm-32.9-52.7l42.9-18.1 2.6 6.2-36.8 15.5 2.6 6.1-6.1 2.6-5.2-12.3zM62.2 696l6.4 19-6.3 2.1-6.4-19 6.3-2.1zm-2.1-6.3l31.6-10.6 2.1 6.3-31.6 10.7-2.1-6.4zm8.5 25.2l31.6-10.7 2.1 6.3-31.6 10.7-2.1-6.3zm31.6-10.6l-6.4-19 6.3-2.1 6.4 19-6.3 2.1zm-19.3-67l-19.7 3.6-3.5-19.6 19.7-3.6 3.5 19.6zM51 548.7l6.7-.2-.2-6.6 19.9-.6.2 6.6-19.9.6.6 20 19.9-.6.2 6.6-46.5 1.4-.8-26.6 6.6-.2.6 20 13.3-.4-.6-20zm0 0l-13.3.4-.2-6.6 13.3-.4.2 6.6zm-11.9-47.2l-1.3 20-6.6-.4 1.3-20 6.6.4zm.4-6.6l39.9 2.6-.4 6.6-19.9-1.3-1.3 20 19.9 1.3-.4 6.6-39.9-2.6.4-6.6 13.3.9 1.3-20-13.3-.9.4-6.6zm18.8-38.8l6.6 1.1 1.1-6.5 19.7 3.2-1.1 6.5-19.7-3.2-3.2 19.7 19.7 3.2-1.1 6.5-45.9-7.5 4.3-26.3 6.5 1.1-3.2 19.7 13.1 2.1 3.2-19.6zm0 0L45.2 454l1.1-6.5 13.1 2.1-1.1 6.5zm-6.1-35.5l32.3 8 1.6-6.4 6.4 1.6-4.8 19.3-6.4-1.6 1.6-6.4-32.3-8-1.6 6.4-6.4-1.6 4.8-19.3 6.4 1.6-1.6 6.4z"/><path d="M67.8 368.6l-4.2 12.6 37.9 12.7-2.1 6.3-37.9-12.7-4.2 12.6L51 398l10.5-31.5 6.3 2.1zm1.6-22.3l18.2 8.1-2.7 6.1-18.2-8.1 2.7-6.1zM80.2 322l18.2 8.1-2.7 6-18.2-8.1 2.7-6zm10.1 26.3l6.1 2.7-2.7 6.1-6.1-2.7 2.7-6.1zm2.7-6.1l2.7-6.1 6.1 2.7-2.7 6.1-6.1-2.7zm3.5 8.8l2.7-6 18.2 8.1-2.7 6-18.2-8.1zm40.6-51l-16.9-10.7 10.7-16.8 16.9 10.7-10.7 16.8zm32.3-99.1L152 221l-5-4.3 17.4-20.1 5 4.3zM152 221l10.1 8.7-4.3 5-10.1-8.7 4.3-5zm15.1 13.1l-5.1-4.4 13.1-15.1 5.1 4.4-13.1 15.1zm5.8 13.7l17.4-20.1 5 4.3-17.4 20.1-5-4.3zm17.4-20.1l-10.1-8.7 4.3-5 10.1 8.7-4.3 5zm8.3-65.3l9.2 9.6-4.8 4.6-4.6-4.8-19.3 18.4-4.6-4.8 24.1-23zm-1.1 47l4.8-4.6 4.6 4.8 19.3-18.4 4.6 4.8-24 23-9.3-9.6zm.3-9.4l4.9-4.6 4.6 4.8-4.8 4.6-4.7-4.8zm.2-9.4l4.8-4.6 4.6 4.8-4.8 4.6-4.6-4.8zm.2-9.4l4.9-4.6 4.6 4.8-4.8 4.6-4.7-4.8zm30.6-26.9l4.1 5.2-5.3 4.1 16.5 20.9-5.2 4.1-28.8-36.6 5.2-4.1 8.2 10.5 5.3-4.1zm7.4-22.8l28.8 36.6-5.2 4.1-8.2-10.5-5.3 4.1-4.1-5.2 5.3-4.1-16.5-20.9 5.2-4.1zm1.8 23.9l4.2 5.3-5.2 4.1-4.1-5.3 5.1-4.1zm45-54.9l12.8 23.3-5.8 3.2-12.9-23.3 5.9-3.2zm23.3-12.9l22.5 40.8-5.8 3.2-6.4-11.7-17.5 9.7-3.2-5.8 17.5-9.7-12.8-23.3 5.7-3.2zm58.6 17l-7-18.8 18.7-6.9 7 18.8-18.7 6.9z"/></g><path d="M862.7 509.3v-19.5h-19.5v-19.5h-19.5v-19.5h-19.5v-19.5h-19.5v-19.5h-19.5v-19.5h-19.5v-19.5h-39v-39h-19.5v-19.5h-19.5v-19.5h-19.5v-19.5h-19.5v-19.5h-19.5v-19.5h-19.5v-19.6h-19.5v-19.5h-58.5v19.5h-19.5v19.5h-19.5v19.5h-19.5v19.5h-19.5v19.5h-19.5v19.5h-19.5v19.5h-19.5v39h-39v19.5h-19.5v19.5h-19.5v19.5h-19.5v19.5h-19.5v19.5h-19.5v19.5h-19.5v19.5h-19.5v58.5h19.5v19.5h19.5v19.5h19.5v19.5h19.5v19.5h19.5v19.5h19.5v19.5h19.5v19.5h39v39h19.5v19.5h19.5v19.5h19.5v19.5h19.5v19.5h19.5v19.5h19.5v19.5h19.5v19.5h58.5v-19.5h19.5v-19.5h19.5v-19.5h19.5v-19.5h19.5v-19.5h19.5v-19.5h19.5v-19.5h19.5v-39h39v-19.5h19.5v-19.5h19.5v-19.5h19.5v-19.5h19.5v-19.5h19.5v-19.5h19.5v-19.5h19.5v-58.5l-19.5.1h0zm-312 39h-19.5v-19.5h19.5v19.5z"/><g fill="#a08cff"><path d="M414.2 411.8h19.5v19.5h19.5v19.5h19.5v19.5h19.5v19.5h19.5v19.5h58.5v-19.5h19.5v-19.5h19.5v-19.5h19.5v-19.5h19.5v-19.5h19.5v-19.5h19.5v-58.5h-19.5v-19.5h-19.5v-19.5h-19.5v-19.5h-19.5v-19.5h-19.5v-19.5h-19.5v-19.6h-58.5v19.5h-19.5v19.5h-19.5v19.5h-19.5v19.5h-19.5v19.5h-19.5v19.5h-19.5v58.5h19.5v19.6z"/><path d="M843.2 509.3v-19.5h-19.5v-19.5h-19.5v-19.5h-19.5v-19.5h-19.5v-19.5h-19.5v-19.5h-58.5v19.5h-19.5v19.5h-19.5v19.5h-19.5v19.5h-19.5v19.5h-19.5v19.5h-19.5v58.5h19.5v19.5h19.5v19.5h19.5v19.5h19.5v19.5h19.5v19.5h19.5v19.5h58.5v-19.5h19.5v-19.5h19.5v-19.5h19.5v-19.5h19.5v-19.5h19.5v-19.5h19.5v-58.5h-19.5zm-429 156v-19.5h19.5v-19.5h19.5v-19.5h19.5v-19.5h19.5v-19.5h19.5v-58.5h-19.5v-19.5h-19.5v-19.5h-19.5v-19.5h-19.5v-19.5h-19.5v-19.5h-19.5v-19.5h-58.5v19.5h-19.5v19.5h-19.5v19.5h-19.5v19.5h-19.5v19.5h-19.5v19.5h-19.5v58.5h19.5v19.5h19.5v19.5h19.5v19.5h19.5v19.5h19.5v19.5h19.5v19.5h58.5v-19.5h19.5z"/><path d="M667.7 665.3h-19.5v-19.5h-19.5v-19.5h-19.5v-19.5h-19.5v-19.5h-19.5v-19.5h-58.5v19.5h-19.5v19.5h-19.5v19.5h-19.5v19.5h-19.5v19.5h-19.5v19.5h-19.5v58.5h19.5v19.5h19.5v19.5h19.5v19.5h19.5v19.5h19.5v19.5h19.5v19.5h58.5v-19.5h19.5v-19.5h19.5v-19.5h19.5v-19.5h19.5v-19.5h19.5v-19.5h19.5v-58.5h-19.5v-19.5z"/></g><g fill="#7a5fff"><path d="M589.7 489.8v-19.5h19.5v-19.5h19.5v-19.5h19.5v-19.5h19.5v-19.5h19.5v-19.5h-58.5v-19.5h-19.5v-19.5h-19.5v-19.5h-19.5v-19.5h-19.5v-19.5h19.5v19.5h19.5v19.5h19.5v19.5h19.5v19.5h39v-19.5h-19.5v-19.5h-19.5v-19.5h-19.5v-19.5h-19.5v-19.5h-19.5v-19.5h-19.5v-19.6h-39v19.5h-19.5v19.5h-19.5v19.5h-19.5v19.5h-19.5v19.5h-19.5v19.5h-19.5v39h19.5v19.5h19.5v19.5h19.5v19.5h19.5v19.5h19.5v19.5h19.5v39h19.5v-58.5h-19.5v-19.5h-19.5v-19.5h-19.5v-19.5h-19.5v-19.5h19.5v19.5h19.5v19.5h19.5v19.5h19.5v19.5h19.5v58.5h19.5v-19.5l19.5.1h0z"/><path d="M843.2 548.3h-39v-19.5h-19.5v-19.5h-19.5v-19.5h-19.5v-19.5h-19.5v-19.5h19.5v19.5h19.5v19.5h19.5v19.5h19.5v19.5h39v-19.5h-19.5v-19.5h-19.5v-19.5h-19.5v-19.5h-19.5v-19.5h-19.5v-19.5h-19.5v-19.5h-39v19.5h-19.5v19.5h-19.5v19.5h-19.5v19.5h-19.5v19.5h-19.5v19.5h-19.5v39h19.5v19.5h19.5v19.5h19.5v19.5h19.5v19.5h19.5v19.5h19.5v39h19.5v-58.5h-19.5v-19.5h-19.5v-19.5h-19.5v-19.5h-19.5v-19.5h19.5v19.5h19.5v19.5h19.5v19.5h19.5v19.5h19.5v58.5h19.5v-19.5h19.5v-19.5h19.5v-19.5h19.5v-19.5h19.5v-19.5h19.5v-19.5h19.5v-19.5h-19.5zm-429 117v-19.5h19.5v-19.5h19.5v-19.5h19.5v-19.5h19.5v-19.5h19.5v-19.5h-58.5v-19.5h-19.5v-19.5h-19.5v-19.5h-19.5v-19.5h-19.5v-19.5h19.5v19.5h19.5v19.5h19.5v19.5h19.5v19.5h39v-19.5h-19.5v-19.5h-19.5v-19.5h-19.5v-19.5h-19.5v-19.5h-19.5v-19.5h-19.5v-19.5h-39v19.5h-19.5v19.5h-19.5v19.5h-19.5v19.5h-19.5v19.5h-19.5v19.5h-19.5v39h19.5v19.5h19.5v19.5h19.5v19.5h19.5v19.5h19.5v19.5h19.5v39h19.5v-58.5h-19.5v-19.5h-19.5v-19.5h-19.5v-19.5h-19.5v-19.5h19.5v19.5h19.5v19.5h19.5v19.5h19.5v19.5h19.5v58.5h19.5v-19.5h19.5z"/><path d="M648.2 723.8h-19.5v-19.5h-19.5v-19.5h-19.5v-19.5h-19.5v-19.5h-19.5v-19.5h19.5v19.5h19.5v19.5h19.5v19.5h19.5v19.5h39v-19.5h-19.5v-19.5h-19.5v-19.5h-19.5v-19.5h-19.5v-19.5h-19.5v-19.5h-19.5v-19.5h-39v19.5h-19.5v19.5h-19.5v19.5h-19.5v19.5h-19.5v19.5h-19.5v19.5h-19.5v39h19.5v19.5h19.5v19.5h19.5v19.5h19.5v19.5h19.5v19.5h19.5v39h19.5v-58.5h-19.5v-19.5h-19.5v-19.5h-19.5v-19.5h-19.5v-19.5h19.5v19.5h19.5v19.5h19.5v19.5h19.5v19.5h19.5v58.5h19.5v-19.5h19.5v-19.5h19.5v-19.5h19.5v-19.5h19.5v-19.5h19.5v-19.5h19.5v-19.5h-39z"/></g><path d="M433.7 372.8h39v19.5h19.5v19.5h19.5v19.5h19.5v19.5h19.5v-19.5h19.5v-19.5h19.5v-19.5h19.5v-19.5h19.5v-19.5h-19.5v-19.5h-19.5v-19.5h-19.5v-19.5h-19.5v-78h-39v19.5h-19.5v19.5h-19.5v19.5h-19.5v19.5h-19.5v19.5h-19.5v19.5h-19.5v39h39zm351 156v-19.5h-19.5v-19.5h-19.5v-19.5h-19.5v-78h-39v19.5h-19.5v19.5h-19.5v19.5h-19.5v19.5h-19.5v19.5h-19.5v19.5h-19.5v39h78v19.5h19.5v19.5h19.5v19.5h19.5v19.5h19.5v-19.5h19.5v-19.5h19.5v-19.5h19.5v-19.5h19.5v-19.5h-19.5zm-390 58.5h19.5v-19.5h19.5v-19.5h19.5v-19.5h-19.5v-19.5h-19.5v-19.5h-19.5v-19.5h-19.5v-78h-39v19.5h-19.5v19.5h-19.5v19.5h-19.5v19.5h-19.5v19.5h-19.5v19.5h-19.5v39h78v19.5h19.5v19.5h19.5v19.5h19.5v19.5h19.5v-19.5h19.5v-19.5zm214.5 97.5h-19.5v-19.5h-19.5v-19.5h-19.5v-78h-39v19.5h-19.5v19.5h-19.5v19.5h-19.5v19.5h-19.5v19.5h-19.5v19.5h-19.5v39h78v19.5h19.5v19.5h19.5v19.5h19.5v19.5h19.5v-19.5h19.5v-19.5h19.5v-19.5h19.5v-19.5h19.5v-19.5h-19.5v-19.5z" fill="#ded7ff"/><g fill="#4b25dc"><use xlink:href="#A"/><path d="M804.2 548.3v19.5h-19.5v19.5h-19.5v19.5h-19.5v19.5h-19.5v39h19.5v-19.5h19.5v-19.5h19.5v-19.5h19.5v-19.5h19.5v-19.5h19.5v-19.5h-39z"/><use xlink:href="#A" x="-175.5" y="175.5"/><use xlink:href="#A" y="351"/></g><path d="M531.2 353.3h19.5v19.5h-19.5zm-97.5 19.5h39v19.5h19.5v19.5h19.5v19.5h19.5v19.5h19.5v-19.5h19.5v-19.5h19.5v-19.5h19.5v-19.5h19.5v-19.5h-19.5v-19.5h-19.5v-19.5h-19.5v-19.5h-19.5v-78h-19.5v78h-19.5v19.5h-19.5v19.5h-19.5v19.5h-78v19.5h39zm78-19.5v-19.5h19.5v-19.5h19.5v19.5h19.5v19.5h19.5v19.5h-19.5v19.5h-19.5v19.5h-19.5v-19.5h-19.5v-19.5h-19.5v-19.5h19.5zm273 175.5v-19.5h-19.5v-19.5h-19.5v-19.5h-19.5v-78h-19.5v78h-19.5v19.5h-19.5v19.5h-19.5v19.5h-78v19.5h78v19.5h19.5v19.5h19.5v19.5h19.5v19.5h19.5v-19.5h19.5v-19.5h19.5v-19.5h19.5v-19.5h19.5v-19.5h-19.5zm-39 19.5v19.5h-19.5v19.5h-19.5v-19.5h-19.5v-19.5h-19.5v-19.5h19.5v-19.5h19.5v-19.5h19.5v19.5h19.5v19.5h19.5v19.5h-19.5zm-39-19.5h19.5v19.5h-19.5zm-312 58.5h19.5v-19.5h19.5v-19.5h19.5v-19.5h-19.5v-19.5h-19.5v-19.5h-19.5v-19.5h-19.5v-78h-19.5v78h-19.5v19.5h-19.5v19.5h-19.5v19.5h-78v19.5h78v19.5h19.5v19.5h19.5v19.5h19.5v19.5h19.5v-19.5h19.5v-19.5zm-39 0v-19.5h-19.5v-19.5h-19.5v-19.5h19.5v-19.5h19.5v-19.5h19.5v19.5h19.5v19.5h19.5v19.5h-19.5v19.5h-19.5v19.5h-19.5zm0-58.5h19.5v19.5h-19.5zm253.5 156h-19.5v-19.5h-19.5v-19.5h-19.5v-78h-19.5v78h-19.5v19.5h-19.5v19.5h-19.5v19.5h-78v19.5h78v19.5h19.5v19.5h19.5v19.5h19.5v19.5h19.5v-19.5h19.5v-19.5h19.5v-19.5h19.5v-19.5h19.5v-19.5h-19.5v-19.5zm-19.5 39h-19.5v19.5h-19.5v19.5h-19.5v-19.5h-19.5v-19.5h-19.5v-19.5h19.5v-19.5h19.5v-19.5h19.5v19.5h19.5v19.5h19.5v19.5zm-58.5-19.5h19.5v19.5h-19.5z" fill="#fff"/><defs><path id="A" d="M628.7 392.3h-19.5v19.5h-19.5v19.5h-19.5v19.5h-19.5v39h19.5v-19.5h19.5v-19.5h19.5v-19.5h19.5v-19.5h19.5v-19.5h19.5v-19.5h-39v19.5z"/></defs></svg>