<svg xmlns="http://www.w3.org/2000/svg" viewBox="0 0 64 64"><g fill="#ff64ff"><path d="M54,37h3v1h-3V37z"/><path d="M53,38h1v1h-1V38z"/><path d="M59,44v-5h-1v4h-5v-4h-1v5h-1v6h1v1h7v-1h1v-6H59z"/><path d="M57,38h1v1h-1V38z"/></g><g fill="#ffb9ff"><path d="M58 45h1v1h-1v-1zm0 2h1v1h-1v-1z"/><path d="M58 49h1v1h-1v-1zm-1-5h1v1h-1v-1z"/><path d="M57 46h1v1h-1v-1zm0 2h1v1h-1v-1z"/><path d="M56 45h1v1h-1v-1zm0 2h1v1h-1v-1z"/><path d="M56 49h1v1h-1v-1zm-1-5h1v1h-1v-1z"/><path d="M55 46h1v1h-1v-1zm0 2h1v1h-1v-1z"/><path d="M54 45h1v1h-1v-1zm0 2h1v1h-1v-1z"/><path d="M54 49h1v1h-1v-1zm-1-5h1v1h-1v-1z"/><path d="M53 46h1v1h-1v-1zm0 2h1v1h-1v-1z"/><path d="M52 45h1v1h-1v-1zm0 2h1v1h-1v-1zm0 2h1v1h-1v-1z"/></g></svg>