<svg xmlns="http://www.w3.org/2000/svg" viewBox="0 0 9 14"><g fill="#ff64ff"><path d="M3 0h3v1H3z"/><path d="M2 1h1v1H2z"/><path d="M8 7V2H7v4H2V2H1v5H0v6h1v1h7v-1h1V7z"/><path d="M6 1h1v1H6z"/></g><g fill="#ffb9ff"><path d="M7 8h1v1H7V8zm0 2h1v1H7v-1z"/><path d="M7 12h1v1H7v-1zM6 7h1v1H6V7z"/><path d="M6 9h1v1H6V9zm0 2h1v1H6v-1z"/><path d="M5 8h1v1H5V8zm0 2h1v1H5v-1z"/><path d="M5 12h1v1H5v-1zM4 7h1v1H4V7z"/><path d="M4 9h1v1H4V9zm0 2h1v1H4v-1z"/><path d="M3 8h1v1H3V8zm0 2h1v1H3v-1z"/><path d="M3 12h1v1H3v-1zM2 7h1v1H2V7z"/><path d="M2 9h1v1H2V9zm0 2h1v1H2v-1z"/><path d="M1 8h1v1H1V8zm0 2h1v1H1v-1zm0 2h1v1H1v-1z"/></g></svg>