<svg xmlns="http://www.w3.org/2000/svg" viewBox="0 0 64 64"><g fill="#ff64ff"><path d="M36,38h3v1h-3V38z"/><path d="M35,39h1v1h-1V39z"/><path d="M41,45v-5h-1v4h-5v-4h-1v5h-1v6h1v1h7v-1h1v-6H41z"/><path d="M39,39h1v1h-1V39z"/></g><g fill="#ffb9ff"><path d="M40 46h1v1h-1v-1zm0 2h1v1h-1v-1z"/><path d="M40 50h1v1h-1v-1zm-1-5h1v1h-1v-1z"/><path d="M39 47h1v1h-1v-1zm0 2h1v1h-1v-1z"/><path d="M38 46h1v1h-1v-1zm0 2h1v1h-1v-1z"/><path d="M38 50h1v1h-1v-1zm-1-5h1v1h-1v-1z"/><path d="M37 47h1v1h-1v-1zm0 2h1v1h-1v-1z"/><path d="M36 46h1v1h-1v-1zm0 2h1v1h-1v-1z"/><path d="M36 50h1v1h-1v-1zm-1-5h1v1h-1v-1z"/><path d="M35 47h1v1h-1v-1zm0 2h1v1h-1v-1z"/><path d="M34 46h1v1h-1v-1zm0 2h1v1h-1v-1zm0 2h1v1h-1v-1z"/></g></svg>