<svg xmlns="http://www.w3.org/2000/svg" viewBox="0 0 64 64"><g fill="#ff64ff"><path d="M25,38h3v1h-3V38z"/><path d="M24,39h1v1h-1V39z"/><path d="M30,45v-5h-1v4h-5v-4h-1v5h-1v6h1v1h7v-1h1v-6H30z"/><path d="M28,39h1v1h-1V39z"/></g><g fill="#ffb9ff"><path d="M29 46h1v1h-1v-1zm0 2h1v1h-1v-1z"/><path d="M29 50h1v1h-1v-1zm-1-5h1v1h-1v-1z"/><path d="M28 47h1v1h-1v-1zm0 2h1v1h-1v-1z"/><path d="M27 46h1v1h-1v-1zm0 2h1v1h-1v-1z"/><path d="M27 50h1v1h-1v-1zm-1-5h1v1h-1v-1z"/><path d="M26 47h1v1h-1v-1zm0 2h1v1h-1v-1z"/><path d="M25 46h1v1h-1v-1zm0 2h1v1h-1v-1z"/><path d="M25 50h1v1h-1v-1zm-1-5h1v1h-1v-1z"/><path d="M24 47h1v1h-1v-1zm0 2h1v1h-1v-1z"/><path d="M23 46h1v1h-1v-1zm0 2h1v1h-1v-1zm0 2h1v1h-1v-1z"/></g></svg>