<svg xmlns="http://www.w3.org/2000/svg" viewBox="0 0 9 14"  xmlns:v="https://vecta.io/nano"><g fill="#ffb9ff"><path d="M7 8h1v1H7V8zm0 2h1v1H7v-1z"/><path d="M7 12h1v1H7v-1zM6 7h1v1H6V7z"/><path d="M6 9h1v1H6V9zm0 2h1v1H6v-1z"/><path d="M5 8h1v1H5V8zm0 2h1v1H5v-1z"/><path d="M5 12h1v1H5v-1zM4 7h1v1H4V7z"/><path d="M4 9h1v1H4V9zm0 2h1v1H4v-1z"/><path d="M3 8h1v1H3V8zm0 2h1v1H3v-1z"/><path d="M3 12h1v1H3v-1zM2 7h1v1H2V7z"/><path d="M2 9h1v1H2V9zm0 2h1v1H2v-1z"/><path d="M1 8h1v1H1V8zm0 2h1v1H1v-1zm0 2h1v1H1v-1z"/></g><g fill="#ff64ff"><path d="M6,1V0H3v1H6z"/><path d="M2,1h1v1H2V1z"/><path d="M8,7V2H7v4H2V2H1v5H0v6h1v-1h1v-1H1v-1h1V9H1V8h1V7h1v1h1V7h1v1h1V7h1v1h1v1H7v1h1v1H7v1h1v1h1V7H8z"/><path d="M6 8h1v1H6V8zm0 2h1v1H6v-1z"/><path d="M7 12H6v1H5v-1H4v1H3v-1H2v1H1v1h7v-1H7v-1zM5 9h1v1H5V9z"/><path d="M5 11h1v1H5v-1zM4 8h1v1H4V8z"/><path d="M4,10h1v1H4V10z"/><path d="M3 9h1v1H3V9zm0 2h1v1H3v-1z"/><path d="M2 8h1v1H2V8zm0 2h1v1H2v-1zm4-9h1v1H6V1z"/></g></svg>