<svg xmlns="http://www.w3.org/2000/svg" viewBox="0 0 64 64"><g fill="#ff64ff"><path d="M7,37h3v1H7V37z"/><path d="M6,38h1v1H6V38z"/><path d="M12,44v-5h-1v4H6v-4H5v5H4v6h1v1h7v-1h1v-6H12z"/><path d="M10,38h1v1h-1V38z"/></g><g fill="#ffb9ff"><path d="M11 45h1v1h-1v-1zm0 2h1v1h-1v-1z"/><path d="M11 49h1v1h-1v-1zm-1-5h1v1h-1v-1z"/><path d="M10 46h1v1h-1v-1zm0 2h1v1h-1v-1z"/><path d="M9 45h1v1H9v-1zm0 2h1v1H9v-1z"/><path d="M9 49h1v1H9v-1zm-1-5h1v1H8v-1z"/><path d="M8 46h1v1H8v-1zm0 2h1v1H8v-1z"/><path d="M7 45h1v1H7v-1zm0 2h1v1H7v-1z"/><path d="M7 49h1v1H7v-1zm-1-5h1v1H6v-1z"/><path d="M6 46h1v1H6v-1zm0 2h1v1H6v-1z"/><path d="M5 45h1v1H5v-1zm0 2h1v1H5v-1zm0 2h1v1H5v-1z"/></g></svg>