<svg xmlns="http://www.w3.org/2000/svg" viewBox="0 0 30 26"><path d="M29,10h-1V9h-2V8h-2V7h-2V6h-1V5H6v21h3v-2h3v2h4v-2h4v2h4v-2h3v2h3V10H29z" fill="#191919"/><path d="M29,11h-1v-1h-2V9h-2V8h-2V7h-1V6H7v18h2v-2h3v2h4v-2h4v2h4v-2h3v2h3V11H29z"/><path d="M5,0v5H4v6H3v5H2v5H0v5h14V2h2V0H5z" fill="#ffaa4a"/><g fill="#ff8700"><path d="M6,11V7h1V2H6v3H5v7h1V11z"/><path d="M8,20v-3h1v-5h1V7h1V2H8v5H7v5H6v5H5v5H4v3h3v-3h1V20z"/><path d="M13,2h-1v5h-1v5h-1v5H9v5H8v3h3v-3h1v-5h1v-5h1V2H13z"/><path d="M13 19v3h-1v3h2v-8h-1v2zm-8-3v-4H4v5h1v-1z"/><path d="M4,20v-3H3v5h1V20z"/><path d="M1,22v3h2v-3H1z"/></g></svg>