<svg xmlns="http://www.w3.org/2000/svg" viewBox="0 0 46 26"><path d="M44 21v-5h-1v-3h-2v-1h-1V4h1V2h2V0h-3v2h-2v2h-2v1h-2v1h-2v1h-2v1h-2v1h-3v1h-4V9h-3V8h-2V7h-2V6h-2V5h-2V4H8V2H6V0H3v2h2v2h1v8H5v1H3v3H2v5H0v5h46v-5z" fill="#ffaa4a"/><g fill="#ff8700"><path d="M5 22H4v3h2v-6H5v3z"/><path d="M5 13H4v4H3v4H2v1H1v3h2v-3h1v-3h1v-1h1v-6H5v1zm5 11v1h2v-1h-2zm3 0v1h2v-1h-2zm18 0v1h2v-1h-2zm3 0v1h2v-1h-2zm-14 0v1h2v-1h-2zm4 0v1h2v-1h-2zm17-5h-1v6h2v-3h-1v-3z"/><path d="M44 22v-1h-1v-4h-1v-4h-1v-1h-1v6h1v1h1v3h1v3h2v-3h-1zM7 4h1V2H7v2zM5 2h1V0H5v2zm33 2h1V2h-1v2zm3-4h-1v2h1V0z"/></g><path d="M36 4v1h-2v1h-2v1h-2v1h-2v1h-3v1h-4V9h-3V8h-2V7h-2V6h-2V5h-2V4H6v22h4v-2h5v2h5v-2h6v2h5v-2h5v2h4V4z" fill="#191919"/><path d="M6 5v7h1v12h3v-2h5v2h5v-2h6v2h5v-2h5v2h3V12h1V5h-2v1h-2v1h-2v1h-2v1h-2v1h-2v1h-2v1h-6v-1h-2v-1h-2V9h-2V8h-2V7h-2V6H8V5H6z"/><path d="M21 15h1v1h-1v-1zm0 2h1v1h-1v-1zm3 0h1v1h-1v-1zm0-2h1v1h-1v-1z" fill="#ffaa4a"/><path d="M21 13h1v1h-1v-1zm3 0h1v1h-1v-1z" fill="#ffc88a"/><path d="M21 19h1v1h-1v-1zm3 0h1v1h-1v-1z" fill="#ff8700"/></svg>