<svg xmlns="http://www.w3.org/2000/svg" viewBox="0 0 46 26"  xmlns:v="https://vecta.io/nano"><g fill="#ffaa4a"><path d="M5 18h1v1H5z"/><path d="M4 22h1v-3H4zm9 3v-1h-1v1h-2v1h5v-1zm21 0v-1h-1v1h-2v1h5v-1zm-10 0v-1h-2v1h-2v1h6v-1z"/><path d="M3 25H1v-3h1v-1H0v5h6v-1H4v-3H3z"/><path d="M3 17h1v-4H3v3H2v5h1zm37 1h1v1h-1z"/><path d="M42 19h-1v3h1zm2-3h-1v-3h-1v4h1v4h1z"/><path d="M44 21v1h1v3h-2v-3h-1v3h-2v1h6v-5zM5 2v2h2V2z"/><path d="M5 0H3v2h2zm36 4V2h-2v2z"/><path d="M43 2V0h-2v2z"/></g><g fill="#ff8700"><path d="M5 22H4v3h2v-6H5z"/><path d="M5 13H4v4H3v4H2v1H1v3h2v-3h1v-3h1v-1h1v-6H5zm5 11v1h2v-1zm3 0v1h2v-1zm18 0v1h2v-1zm3 0v1h2v-1zm-14 0v1h2v-1zm4 0v1h2v-1zm17-5h-1v6h2v-3h-1z"/><path d="M44 22v-1h-1v-4h-1v-4h-1v-1h-1v6h1v1h1v3h1v3h2v-3zM7 4h1V2H7zM5 2h1V0H5zm33 2h1V2h-1zm3-4h-1v2h1z"/></g><path d="M21 15h1v1h-1zm0 2h1v1h-1zm3 0h1v1h-1zm0-2h1v1h-1z" fill="#ffaa4a"/><path d="M21 13h1v1h-1zm3 0h1v1h-1z" fill="#ffc88a"/><path d="M21 19h1v1h-1zm3 0h1v1h-1z" fill="#ff8700"/><path d="M6 5v7h1v12h3v-2h5v2h5v-2h6v2h5v-2h5v2h3V12h1V5h-2v1h-2v1h-2v1h-2v1h-2v1h-2v1h-2v1h-6v-1h-2v-1h-2V9h-2V8h-2V7h-2V6H8V5H6zm15 12h1v1h-1v-1zm3 0h1v1h-1v-1zm1-1h-1v-1h1v1zm-3 0h-1v-1h1v1zm-1 3h1v1h-1v-1zm3 0h1v1h-1v-1zm1-6v1h-1v-1h1zm-3 0v1h-1v-1h1z"/><g fill="#191919"><path d="M8 5v1h2v1h2v1h2v1h2v1h2v1h2v1h6v-1h2v-1h2V9h2V8h2V7h2V6h2V5h2V4h-4v1h-2v1h-2v1h-2v1h-2v1h-3v1h-4V9h-3V8h-2V7h-2V6h-2V5h-2V4H6v1zM7 24V12H6v14h4v-2z"/><path d="M15 22h-5v2h5z"/><path d="M15 24v2h5v-2zm24 0h-3v2h4V12h-1z"/><path d="M36 22h-5v2h5zm-10 0h-6v2h6z"/><path d="M26 24v2h5v-2z"/></g></svg>