<svg xmlns="http://www.w3.org/2000/svg" viewBox="0 0 30 26"><path d="M1 10h1V9h2V8h2V7h2V6h1V5h15v21h-3v-2h-3v2h-4v-2h-4v2H6v-2H3v2H0V10h1z" fill="#191919"/><path d="M1 11h1v-1h2V9h2V8h2V7h1V6h14v18h-2v-2h-3v2h-4v-2h-4v2H6v-2H3v2H0V11h1z"/><path d="M25 0v5h1v6h1v5h1v5h2v5H16V2h-2V0h11z" fill="#ffaa4a"/><g fill="#ff8700"><path d="M24 11V7h-1V2h1v3h1v7h-1v-1z"/><path d="M22 20v-3h-1v-5h-1V7h-1V2h3v5h1v5h1v5h1v5h1v3h-3v-3h-1v-2z"/><path d="M17 2h1v5h1v5h1v5h1v5h1v3h-3v-3h-1v-5h-1v-5h-1V2h1z"/><path d="M17 19v3h1v3h-2v-8h1v2zm8-3v-4h1v5h-1v-1z"/><path d="M26 20v-3h1v5h-1v-2z"/><path d="M29 22v3h-2v-3h2z"/></g><path d="M1 10h1V9h2V8h2V7h2V6h1V5h15v21h-3v-2h-3v2h-4v-2h-4v2H6v-2H3v2H0V10h1z" fill="#191919"/><path d="M1 11h1v-1h2V9h2V8h2V7h1V6h14v18h-2v-2h-3v2h-4v-2h-4v2H6v-2H3v2H0V11h1z"/><path d="M25 0v5h1v6h1v5h1v5h2v5H16V2h-2V0h11z" fill="#ffaa4a"/><g fill="#ff8700"><path d="M24 11V7h-1V2h1v3h1v7h-1v-1z"/><path d="M22 20v-3h-1v-5h-1V7h-1V2h3v5h1v5h1v5h1v5h1v3h-3v-3h-1v-2z"/><path d="M17 2h1v5h1v5h1v5h1v5h1v3h-3v-3h-1v-5h-1v-5h-1V2h1z"/><path d="M17 19v3h1v3h-2v-8h1v2zm8-3v-4h1v5h-1v-1z"/><path d="M26 20v-3h1v5h-1v-2z"/><path d="M29 22v3h-2v-3h2z"/></g></svg>