<svg xmlns="http://www.w3.org/2000/svg" viewBox="0 0 46 25"><path d="M6,3v22h4v-2h5v2h5v-2h6v2h5v-2h5v2h4V3H6z" fill="#191919"/><path d="M6,4v7h1v12h3v-2h5v2h5v-2h6v2h5v-2h5v2h3V11h1V4H6z"/><path d="M40,3v22h-4v-2h-5v2h-5v-2h-6v2h-5v-2h-5v2H6V3H40z" fill="#3c0055"/><path d="M39,4v19h-3v-2h-5v2h-5v-2h-5v2h-6v-2h-5v2H7V4H39z" fill="#5f0087"/><path d="M2,20v-5h1v-5h1V5h1V0h1v1h1v1h32V1h1V0h1v5h1v5h1v5h1v5h2v5H0v-5H2z" fill="#ffaa4a"/><g fill="#ff8700"><path d="M6 22v2H5v-3h1v1zM5 5h1v1H5V5zm1 11H5v-5h1v2 3z"/><path d="M6 16h1v5H6v-2-3zm1-5H6V6h1v2 3z"/><path d="M7 11h1v5H7v-2-3zm1-6v1H7V4h1v1z"/><path d="M9 7v4H8V6h1v1zm1 15v2H9v-3h1v1z"/><path d="M9 6V4h1v2H9zm1 10h1v5h-1v-2-3z"/><path d="M11 11h1v5h-1v-2-3zm1 11v2h-1v-3h1v1z"/><path d="M12 16h1v5h-1v-2-3zm0-10h1v5h-1V9 6z"/><path d="M13 11h1v5h-1v-2-3zm1 11v2h-1v-3h1v1zM13 6V4h1v2h-1zM4 16h1v5H4v-2-3z"/><path d="M4 22v2H3v-3h1v1zm-2-1v3H1v-3h1zm38-5h1v5h-1v-2-3zm0-6V6h1v5h-1v-1z"/><path d="M39 11h1v5h-1v-2-3zm1 11v2h-1v-3h1v1z"/><path d="M39 5V4h1v2h-1V5zm-1 11h1v5h-1v-2-3z"/><path d="M38,10V6h1v5h-1V10z"/><path d="M37 11h1v5h-1v-2-3zm1 11v2h-1v-3h1v1z"/><path d="M37 6V4h1v2h-1zm-1 10h1v5h-1v-2-3z"/><path d="M36,6h1v5h-1V9V6z"/><path d="M35 11h1v5h-1v-2-3zm1 11v2h-1v-3h1v1z"/><path d="M35 6V4h1v2h-1zm-1 10h1v5h-1v-2-3z"/><path d="M34,6h1v5h-1V9V6z"/><path d="M33 11h1v5h-1v-2-3zm1 11v2h-1v-3h1v1z"/><path d="M33 6V4h1v2h-1zm-1 10h1v5h-1v-2-3z"/><path d="M32 6h1v5h-1V9 6zm0 16v2h-1v-3h1v1zm-2 0v2h-1v-3h1v1zm-2 0v2h-1v-3h1v1zm-2 0v2h-1v-3h1v1zm-2 0v2h-1v-3h1v1zm-2 0v2h-1v-3h1v1zm-2 0v2h-1v-3h1v1z"/><path d="M18 22v2h-1v-3h1v1zm12-6h1v5h-1v-2-3zm-2 0h1v5h-1v-2-3zm-2 0h1v5h-1v-2-3z"/><path d="M24 16h1v5h-1v-2-3zm-2 0h1v5h-1v-2-3zm-2 0h1v5h-1v-2-3zm-2 0h1v5h-1v-2-3zm-4 0h1v5h-1v-2-3zm17-5h1v5h-1v-2-3zm-2 0h1v5h-1v-2-3zm-2 0h1v5h-1v-2-3z"/><path d="M19 11h1v5h-1v-2-3zm-4 0h1v5h-1v-2-3zm15-5h1v5h-1V9 6zm-2 0h1v5h-1V9 6z"/><path d="M26 6h1v5h-1V9 6zm-2 0h1v5h-1V9 6zm-4 0h1v5h-1V9 6zm-4 0h1v5h-1V9 6z"/><path d="M14 6h1v5h-1V9 6zm17 0V4h1v2h-1zm-2 0V4h1v2h-1zm-2 0V4h1v2h-1zm-2 0V4h1v2h-1zm-2 0V4h1v2h-1zm-2 0V4h1v2h-1zm-4 0V4h1v2h-1z"/><path d="M15 6V4h1v2h-1zm26 9v-4h1v5h-1v-1zm1 7v2h-1v-3h1v1z"/><path d="M42 16h1v5h-1v-2-3z"/><path d="M44 22v2h-1v-3h1v1zM8 22v2H7v-3h1v1z"/><path d="M8 16h1v5H8v-2-3z"/><path d="M9 11h1v5H9v-2-3z"/><path d="M10,6h1v5h-1V9V6z"/><path d="M11 6V4h1v2h-1zM6 3h1v1H6V3z"/><path d="M8 3h1v1H8V3zm2 0h1v1h-1V3zm2 0h1v1h-1V3zm28 0h1v1h-1V3zm-2 0h1v1h-1V3zm-2 0h1v1h-1V3zm-2 0h1v1h-1V3zm-2 0h1v1h-1V3zm-2 0h1v1h-1V3zm-2 0h1v1h-1V3zm-2 0h1v1h-1V3zm-2 0h1v1h-1V3zm-2 0h1v1h-1V3zm-2 0h1v1h-1V3zm-2 0h1v1h-1V3zm-2 0h1v1h-1V3z"/><path d="M14 3h1v1h-1V3zm25-1h1v1h-1V2zm-2 0h1v1h-1V2zm-2 0h1v1h-1V2zm-2 0h1v1h-1V2zM5 2V0h1v3H5V2zm2 0h1v1H7V2zm2 0h1v1H9V2z"/><path d="M11 2h1v1h-1V2zm2 0h1v1h-1V2zm2 0h1v1h-1V2zm2 0h1v1h-1V2zm2 0h1v1h-1V2zm2 0h1v1h-1V2zm2 0h1v1h-1V2zm2 0h1v1h-1V2zm2 0h1v1h-1V2zm2 0h1v1h-1V2zm2 0h1v1h-1V2zM16 22v2h-1v-3h1v1z"/><path d="M16 16h1v5h-1v-2-3z"/><path d="M17 11h1v5h-1v-2-3z"/><path d="M18,6h1v5h-1V9V6z"/><path d="M19 6V4h1v2h-1zm4 5h1v5h-1v-2-3zm-2 0h1v5h-1v-2-3zm4 0h1v5h-1v-2-3z"/><path d="M22 6h1v5h-1V9 6zm19-6v2h-1V0h1z"/></g></svg>