<svg xmlns="http://www.w3.org/2000/svg" viewBox="0 0 30 26"><path d="M0 10v16h3v-2h3v2h4v-2h4v2h4v-2h3v2h3V5H9v1H8v1H6v1H4v1H2v1H1 0z" fill="#191919"/><path d="M0 11v13h3v-2h3v2h4v-2h4v2h4v-2h3v2h2V6H9v1H8v1H6v1H4v1H2v1H1 0z"/><path d="M14 0v2h2v24h14v-5h-2v-5h-1v-5h-1V5h-1V0H14z" fill="#ffaa4a"/><g fill="#ff8700"><path d="M24 12h1V5h-1V2h-1v5h1v4 1z"/><path d="M22 22h1v3h3v-3h-1v-5h-1v-5h-1V7h-1V2h-3v5h1v5h1v5h1v3 2z"/><path d="M16 2v10h1v5h1v5h1v3h3v-3h-1v-5h-1v-5h-1V7h-1V2h-1-1z"/><path d="M17 17h-1v8h2v-3h-1v-3-2zm8 0h1v-5h-1v4 1z"/><path d="M26 22h1v-5h-1v3 2z"/><path d="M27,22v3h2v-3H27z"/></g></svg>