<svg xmlns="http://www.w3.org/2000/svg" viewBox="0 0 24 38"><path d="M0 32V10h1V9h1V8h1V7h1V6h2V5h2V4h2V3h1V0h2v3h1v1h2v1h2v1h2v1h1v1h1v1h1v1h1v15h-1v-2h-1v-2h-1v-1h-4v2h-1v5h1v1h1v1h1v1h1v1h1v1h1v1h1v1h1v4h-1v-1h-1v-1h-1v-1h-1-1v-1h-1v-1h-1v-1z" fill="#2a2a2a"/><path d="M3 12h1v1H3zm17 0h1v1h-1z" fill="#fb15f4"/><path d="M4 11h1v1H4zm15 0h1v1h-1z" fill="#e45dea"/><g fill="#c650ef"><path d="M5 10h1v1H5z"/><path d="M6 9h1v1H6zm12 1h1v1h-1z"/><path d="M17 9h1v1h-1z"/></g><g fill="#303030"><path d="M10 18h4v1h-4z"/><path d="M9 17h1v1H9zm5 0h1v1h-1z"/><path d="M8 16h1v1H8zm7 0h1v1h-1z"/><path d="M16 14h1v2h-1zm-9 0h1v2H7zm11 0h1v1h-1zM0 13h1v1H0z"/><path d="M9 9h1V5H9v1H8v8h1zm8 4h1v1h-1zm2 0h1v1h-1zM1 12h1v1H1z"/><path d="M7 11H6v1H5v2H4v1H3v1H2v1H1v1H0v3h1v-1h1v-1h1v-1h1v-1h1v-1h1v-2h1zm9-5h-1V5h-1v4h1v5h1zm2 6h1v1h-1zM0 11h1v1H0z"/><path d="M2 11h1v1H2zm15 0h1v1h-1z"/><path d="M21 11h1v1h-1zM1 10h1v1H1z"/><path d="M3 10h1v1H3zm17 0h1v1h-1z"/><path d="M22 10h1v1h-1zM2 9h1v1H2zm2 0h1v1H4zm15 0h1v1h-1z"/><path d="M21 9h1v1h-1zM3 8h1v1H3zm2 0h1v1H5zm13 0h1v1h-1z"/><path d="M20 8h1v1h-1zM4 7h1v1H4zm2 0h1v1H6zm11 0h1v1h-1z"/><path d="M19 7h1v1h-1zm2 26h1v1h-1z"/><path d="M20 32h1v1h-1z"/><path d="M19 31h1v1h-1z"/><path d="M18 30h1v1h-1z"/><path d="M17 29h1v1h-1z"/></g><path d="M23 13v1h-1v4h1v1h1v-6z" fill="#e45dea"/><path d="M23 13v1h-1v2h2v-3z" fill="#f6aaf9"/></svg>