<svg xmlns="http://www.w3.org/2000/svg" viewBox="0 0 24 38"><path d="M7 32v1H6v1H5v1H3v1H2v1H1v1H0v-4h1v-1h1v-1h1v-1h1v-1h1v-1h1v-1h1v-1h1v-5H7v-2H3v1H2v2H1v2H0V10h1V9h1V8h1V7h1V6h2V5h2V4h2V3h1V0h2v3h1v1h2v1h2v1h2v1h1v1h1v1h1v1h1v22z" fill="#2a2a2a"/><path d="M20 12h1v1h-1zM3 12h1v1H3z" fill="#fb15f4"/><path d="M19 11h1v1h-1zM4 11h1v1H4z" fill="#e45dea"/><g fill="#c650ef"><path d="M18 10h1v1h-1z"/><path d="M17 9h1v1h-1zM5 10h1v1H5z"/><path d="M6 9h1v1H6z"/></g><g fill="#303030"><path d="M10 18h4v1h-4zm13-1h-1v-1h-1v-1h-1v-1h-1v-2h-1v-1h-1v3h1v1 1h1v1h1v1h1v1h1v1h1v1h1v-3h-1z"/><path d="M14 17h1v1h-1zm-5 0h1v1H9z"/><path d="M15 16h1v1h-1zm-7 0h1v1H8z"/><path d="M16 14h1v2h-1zm-9 0h1v2H7zm-2 0h1v1H5zm18-1h1v1h-1z"/><path d="M9 9h1V5H9v1H8v8h1zm-3 4h1v1H6zm-2 0h1v1H4zm18-1h1v1h-1z"/><path d="M16 6h-1V5h-1v4h1v5h1zM5 12h1v1H5zm18-1h1v1h-1zm-2 0h1v1h-1z"/><path d="M6 11h1v1H6zm-4 0h1v1H2zm20-1h1v1h-1zm-2 0h1v1h-1z"/><path d="M3 10h1v1H3zm-2 0h1v1H1zm20-1h1v1h-1zm-2 0h1v1h-1z"/><path d="M4 9h1v1H4zM2 9h1v1H2zm18-1h1v1h-1zm-2 0h1v1h-1z"/><path d="M5 8h1v1H5zM3 8h1v1H3zm16-1h1v1h-1zm-2 0h1v1h-1z"/><path d="M6 7h1v1H6zM4 7h1v1H4zM2 33h1v1H2z"/><path d="M3 32h1v1H3z"/><path d="M4 31h1v1H4z"/><path d="M5 30h1v1H5z"/><path d="M6 29h1v1H6z"/></g><path d="M1 14v-1H0v6h1v-1h1v-4z" fill="#de37e4"/><path d="M1 14v-1H0v3h2v-2z" fill="#e45dea"/></svg>