<svg xmlns="http://www.w3.org/2000/svg" viewBox="0 0 24 27"><path d="M14,1h-1v2h-1v2h-1v1h-1V1H9v1H8v1H7v1H6v1H5v6h1v1h1v1h1v1h1v1h1v-5h5V9h1V8h1V7h1V5h1V1h-1V0h-4V1z" fill="#2a2a2a"/><g fill="#de37e4"><path d="M17,3h1v1h-1V3z"/><path d="M16,2h1v1h-1V2z"/><path d="M15 1h1v1h-1V1zM7 6h1v1H7V6zm0 3h1v1H7V9z"/></g><g fill="#303030"><path d="M16,4h1v1h-1V4z"/><path d="M15,3h1v1h-1V3z"/><path d="M14 4h1v1h-1V4zM8 6h1v1H8V6zm0-2h1v1H8V4z"/><path d="M7,5h1v1H7V5z"/><path d="M6 6h1v1H6V6zm2 4h1v1H8v-1zm0 2h1v1H8v-1z"/><path d="M7 11h1v1H7v-1zM6 8h1v1H6V8z"/><path d="M6 10h1v1H6v-1zm1-3h1v1H7V7z"/><path d="M8,8h1v1H8V8z"/></g><g fill="#414040"><path d="M18,1h1v4h-1V1z"/><path d="M17,5h1v2h-1V5z"/><path d="M16 7h1v1h-1V7zm-2-7h4v1h-4V0zm-3 5h1v1h-1V5z"/><path d="M10,1H9v1H8v1h1v10H8v1h1v1h1V7h1V6h-1V1z"/><path d="M7,3h1v1H7V3z"/><path d="M6 4h1v1H6V4zm7-3h1v2h-1V1z"/><path d="M12 3h1v2h-1V3zm3 5h1v1h-1V8zm-8 4h1v1H7v-1z"/><path d="M6,11h1v1H6V11z"/><path d="M5,5h1v6H5V5z"/></g></svg>