<svg xmlns="http://www.w3.org/2000/svg" viewBox="0 0 24 27"><path d="M4,12v4h1v1h4v-1h2v-1h1v-1h1v-1h1V8h5V7h-1V6h-1V5h-1V4h-1V3H9v1H8v1H7v1H6v1H5v1h5v1H9v1H7v1H5v1H4z" fill="#2a2a2a"/><g fill="#de37e4"><path d="M8 16H7v-1h1v1z"/><path d="M7 15H6v-1h1v1z"/><path d="M6 14H5v-1h1v1zm5-8h-1V5h1v1zm3 0h-1V5h1v1z"/></g><g fill="#303030"><path d="M9 15H8v-1h1v1z"/><path d="M8 14H7v-1h1v1z"/><path d="M9 13H8v-1h1v1zm2-6h-1V6h1v1zM9 7H8V6h1v1z"/><path d="M10,6H9V5h1V6z"/><path d="M11 5h-1V4h1v1zm4 2h-1V6h1v1zm2 0h-1V6h1v1z"/><path d="M16 6h-1V5h1v1zm-3-1h-1V4h1v1z"/><path d="M15 5h-1V4h1v1zm-3 1h-1V5h1v1z"/><path d="M13,7h-1V6h1V7z"/></g><g fill="#414040"><path d="M9 17H5v-1h4v1z"/><path d="M11 16H9v-1h2v1z"/><path d="M12 15h-1v-1h1v1zm-7 1H4v-4h1v4zm5-6H9V9h1v1z"/><path d="M10 8v1h1V8h8V7h-1V6h-1v1H7V6H6v1H5v1h5z"/><path d="M8,6H7V5h1V6z"/><path d="M9 5H8V4h1v1zm-2 7H5v-1h2v1z"/><path d="M9 11H7v-1h2v1zm4 3h-1v-1h1v1zm4-8h-1V5h1v1z"/><path d="M16,5h-1V4h1V5z"/><path d="M15,4H9V3h6V4z"/></g></svg>