<svg xmlns="http://www.w3.org/2000/svg" viewBox="0 0 24 27"><path d="M19,12v-1h-2v-1h-2V9h-1V8h5V7h-1V6h-1V5h-1V4h-1V3H9v1H8v1H7v1H6v1H5v1h5v5h1v1h1v1h1v1h2v1h4v-1h1v-4H19z" fill="#2a2a2a"/><g fill="#de37e4"><path d="M16,15h1v1h-1V15z"/><path d="M17,14h1v1h-1V14z"/><path d="M18 13h1v1h-1v-1zm-5-8h1v1h-1V5zm-3 0h1v1h-1V5z"/></g><g fill="#303030"><path d="M15,14h1v1h-1V14z"/><path d="M16,13h1v1h-1V13z"/><path d="M15 12h1v1h-1v-1zm-2-6h1v1h-1V6zm2 0h1v1h-1V6z"/><path d="M14,5h1v1h-1V5z"/><path d="M13 4h1v1h-1V4zM9 6h1v1H9V6zM7 6h1v1H7V6z"/><path d="M8 5h1v1H8V5zm3-1h1v1h-1V4z"/><path d="M9 4h1v1H9V4zm3 1h1v1h-1V5z"/><path d="M11,6h1v1h-1V6z"/></g><g fill="#414040"><path d="M15,16h4v1h-4V16z"/><path d="M13,15h2v1h-2V15z"/><path d="M12 14h1v1h-1v-1zm7-2h1v4h-1v-4zm-5-3h1v1h-1V9z"/><path d="M19 8V7h-1V6h-1v1H7V6H6v1H5v1h8v1h1V8h5z"/><path d="M16,5h1v1h-1V5z"/><path d="M15 4h1v1h-1V4zm2 7h2v1h-2v-1z"/><path d="M15 10h2v1h-2v-1zm-4 3h1v1h-1v-1zM7 5h1v1H7V5z"/><path d="M8,4h1v1H8V4z"/><path d="M9,3h6v1H9V3z"/></g></svg>