<svg xmlns="http://www.w3.org/2000/svg" viewBox="0 0 15 14"><path d="M14 9V8h-2V7h-2V6H9V5h5V4h-1V3h-1V2h-1V1h-1V0H4v1H3v1H2v1H1v1H0v1h5v5h1v1h1v1h1v1h2v1h4v-1h1V9z" fill="#2a2a2a"/><g fill="#de37e4"><path d="M11 12h1v1h-1z"/><path d="M12 11h1v1h-1z"/><path d="M13 10h1v1h-1zM8 2h1v1H8zM5 2h1v1H5z"/></g><g fill="#303030"><path d="M10 11h1v1h-1z"/><path d="M11 10h1v1h-1z"/><path d="M10 9h1v1h-1zM8 3h1v1H8zm2 0h1v1h-1z"/><path d="M9 2h1v1H9z"/><path d="M8 1h1v1H8zM4 3h1v1H4zM2 3h1v1H2z"/><path d="M3 2h1v1H3zm3-1h1v1H6z"/><path d="M4 1h1v1H4zm3 1h1v1H7z"/><path d="M6 3h1v1H6z"/></g><g fill="#414040"><path d="M10 13h4v1h-4z"/><path d="M8 12h2v1H8z"/><path d="M7 11h1v1H7zm7-2h1v4h-1zM9 6h1v1H9z"/><path d="M14 5V4h-1V3h-1v1H2V3H1v1H0v1h8v1h1V5z"/><path d="M11 2h1v1h-1z"/><path d="M10 1h1v1h-1zm2 7h2v1h-2z"/><path d="M10 7h2v1h-2zm-4 3h1v1H6zM2 2h1v1H2z"/><path d="M3 1h1v1H3z"/><path d="M4 0h6v1H4z"/></g></svg>