<svg xmlns="http://www.w3.org/2000/svg" viewBox="0 0 24 27"><path d="M10 0H6v1H5v4h1v2h1v1h1v1h1v1h5v5h1v-1h1v-1h1v-1h1v-1h1V5h-1V4h-1V3h-1V2h-1V1h-1v5h-1V5h-1V3h-1V1h-1V0z" fill="#2a2a2a"/><g fill="#de37e4"><path d="M7,4H6V3h1V4z"/><path d="M8,3H7V2h1V3z"/><path d="M9 2H8V1h1v1zm8 5h-1V6h1v1zm0 3h-1V9h1v1z"/></g><g fill="#303030"><path d="M8,5H7V4h1V5z"/><path d="M9,4H8V3h1V4z"/><path d="M10 5H9V4h1v1zm6 2h-1V6h1v1zm0-2h-1V4h1v1z"/><path d="M17,6h-1V5h1V6z"/><path d="M18 7h-1V6h1v1zm-2 4h-1v-1h1v1zm0 2h-1v-1h1v1z"/><path d="M17 12h-1v-1h1v1zm1-3h-1V8h1v1z"/><path d="M18 11h-1v-1h1v1zm-1-3h-1V7h1v1z"/><path d="M16,9h-1V8h1V9z"/></g><g fill="#414040"><path d="M6,5H5V1h1V5z"/><path d="M7,7H6V5h1V7z"/><path d="M8 8H7V7h1v1zm2-7H6V0h4v1zm3 5h-1V5h1v1z"/><path d="M14,6h-1v1h1v8h1v-1h1v-1h-1V3h1V2h-1V1h-1V6z"/><path d="M17,4h-1V3h1V4z"/><path d="M18 5h-1V4h1v1zm-7-2h-1V1h1v2z"/><path d="M12 5h-1V3h1v2zM9 9H8V8h1v1zm8 4h-1v-1h1v1z"/><path d="M18 12h-1v-1h1v1z"/><path d="M19 11h-1V5h1v6z"/></g></svg>