<svg xmlns="http://www.w3.org/2000/svg" viewBox="0 0 15 14"><path d="M1 9V8h2V7h2V6h1V5H1V4h1V3h1V2h1V1h1V0h6v1h1v1h1v1h1v1h1v1h-5v5H9v1H8v1H7v1H5v1H1v-1H0V9z" fill="#2a2a2a"/><g fill="#de37e4"><path d="M3 12h1v1H3z"/><path d="M2 11h1v1H2z"/><path d="M1 10h1v1H1zm5-8h1v1H6zm3 0h1v1H9z"/></g><g fill="#303030"><path d="M4 11h1v1H4z"/><path d="M3 10h1v1H3z"/><path d="M4 9h1v1H4zm2-6h1v1H6zM4 3h1v1H4z"/><path d="M5 2h1v1H5z"/><path d="M6 1h1v1H6zm4 2h1v1h-1zm2 0h1v1h-1z"/><path d="M11 2h1v1h-1zM8 1h1v1H8z"/><path d="M10 1h1v1h-1zM7 2h1v1H7z"/><path d="M8 3h1v1H8z"/></g><g fill="#414040"><path d="M1 13h4v1H1z"/><path d="M5 12h2v1H5z"/><path d="M7 11h1v1H7zM0 9h1v4H0zm5-3h1v1H5z"/><path d="M1 5V4h1V3h1v1h10V3h1v1h1v1H7v1H6V5z"/><path d="M3 2h1v1H3z"/><path d="M4 1h1v1H4zM1 8h2v1H1z"/><path d="M3 7h2v1H3zm5 3h1v1H8zm4-8h1v1h-1z"/><path d="M11 1h1v1h-1z"/><path d="M5 0h6v1H5z"/></g></svg>