<svg xmlns="http://www.w3.org/2000/svg" viewBox="0 0 50 26"><path d="M49,3V2h-4V1h-1V0h-2v12h1v-1h1v-1h1V9h2V8h2V7h1V3H49z" fill="#2a2a2a"/><path d="M48 5h1v1h-1V5zm-6-3h1v1h-1V2z" fill="#de37e4"/><g fill="#414040"><path d="M47 3v1h1v1h-6V4h4V3h1z"/><path d="M45,2h1v1h-1V2z"/><path d="M44,1h1v1h-1V1z"/><path d="M42,0h2v1h-2V0z"/></g><g fill="#303030"><path d="M46,5h1v1h-1V5z"/><path d="M45 6h1v1h-1V6zm-3-3h1v1h-1V3z"/><path d="M43,2h1v1h-1V2z"/><path d="M42 1h1v1h-1V1zm2 2h1v1h-1V3z"/></g></svg>