<svg xmlns="http://www.w3.org/2000/svg" viewBox="0 0 50 26"  xmlns:v="https://vecta.io/nano"><g fill="#de37e4"><path d="M46 12h1v1h-1z"/><path d="M47 11h1v1h-1z"/><path d="M48 10h1v1h-1zm-6-8h1v1h-1z"/></g><g fill="#303030"><path d="M45 11h1v1h-1z"/><path d="M46 10h1v1h-1z"/><path d="M45 9h1v1h-1zm-3-6h1v1h-1zm2 0h1v1h-1z"/><path d="M43 2h1v1h-1z"/><path d="M42 1h1v1h-1z"/></g><g fill="#414040"><path d="M47 3v1h1v1h-6V4h4V3z"/><path d="M45 2h1v1h-1z"/><path d="M44 1h1v1h-1z"/><path d="M42 0h2v1h-2z"/></g><g fill="#2a2a2a"><path d="M46 11h1v1h-1z"/><path d="M42 5v7h1v1h2v1h4v-1h1V9h-1V8h-2V7h-2V6h-1V5h-2zm3 7v-1h1v-1h-1V9h1v1h1v1h1v-1h1v1h-1v1h-1v1h-1v-1h-1zm-2-9h1v1h-1zm2 0h1v1h-1z"/><path d="M44 2h1v1h-1z"/><path d="M43 1h1v1h-1z"/></g></svg>