<svg xmlns="http://www.w3.org/2000/svg" viewBox="0 0 50 26"  xmlns:v="https://vecta.io/nano"><path d="M1 5h1v1H1zm6-3h1v1H7z" fill="#de37e4"/><g fill="#2a2a2a"><path d="M7 4V3H6V2H1v1H0v4h1v1h2v1h2v1h1v1h1v1h1V4H7zM1 5h1V4h1V3h1v1h1v1H4v1h1v1H4V6H3V5H2v1H1V5z"/><path d="M6 1h1v1H6z"/></g><g fill="#414040"><path d="M3 3v1H2v1h6V4H4V3z"/><path d="M4 2h1v1H4z"/><path d="M5 1h1v1H5z"/><path d="M6 0h2v1H6z"/></g><g fill="#303030"><path d="M3 5h1v1H3z"/><path d="M4 6h1v1H4zm3-3h1v1H7z"/><path d="M6 2h1v1H6z"/><path d="M7 1h1v1H7zM5 3h1v1H5z"/></g></svg>