<svg xmlns="http://www.w3.org/2000/svg" viewBox="0 0 50 26"><path d="M41 0v1h-1v1h-1v1h-1v1h-1v1h-1v1h-1v1h-2v1h-1v1h-1v1h-1v1h-1v1h-1v1h-6v-1h-1v-1h-1v-1h-1V9h-1V8h-1V7h-2V6h-1V5h-1V4h-1V3h-1V2h-1V1H9V0H7.5v12H8v14h4v-1h5v1h5v-1h6v1h5v-1h5v1h4V12h.5V0H41z" fill="#2a2a2a"/><g fill="#303030"><path d="M18 19h1v1h-1v-1zm0 2h1v1h-1v-1zm0-4h1v1h-1v-1zm-2 1h1v1h-1v-1zm2-3h1v1h-1v-1zm0 8h1v1h-1v-1zm-2-7h1v1h-1v-1zm4 2h1v1h-1v-1zm9 6h1v1h-1v-1zm-9-8h1v1h-1v-1zm9 6h1v1h-1v-1zm-9 2h1v1h-1v-1zm0-4h1v1h-1v-1zm0 2h1v1h-1v-1zm-8 0h1v1h-1v-1zm-2-7h1v1h-1v-1zm19 5h1v1h-1v-1zm-19-3h1v1h-1v-1zm2 3h1v1h-1v-1zm-2-1h1v1h-1v-1zm0 4h1v1h-1v-1zm0-2h1v1h-1v-1zm4 2h1v1h-1v-1zm0-6h1v1h-1v-1zm0 2h1v1h-1v-1zm0-4h1v1h-1v-1zm2 7h1v1h-1v-1zm-4-6h1v1h-1v-1zm2 5h1v1h-1v-1zm-2-3h1v1h-1v-1zm4 2h1v1h-1v-1zm21 2h1v1h-1v-1zm0-2h1v1h-1v-1zm-2 1h1v1h-1v-1zm0-2h1v1h-1v-1zm0-2h1v1h-1v-1zm2 1h1v1h-1v-1zm-2-3h1v1h-1v-1zm2 1h1v1h-1v-1zm2 3h1v1h-1v-1zm0-4h1v1h-1v-1zm-10 3h1v1h-1v-1zm10 5h1v1h-1v-1zm0-2h1v1h-1v-1zm0-4h1v1h-1v-1zm-10-1h1v1h-1v-1zm2 1h1v1h-1v-1zm0-2h1v1h-1v-1zm0 8h1v1h-1v-1zm0-4h1v1h-1v-1zm0 2h1v1h-1v-1zm2 1h1v1h-1v-1zm0-5h1v2h-1v-2zm2 6h1v1h-1v-1zm-2-3h1v1h-1v-1zm-23-9h1v1h-1v-1zm30-8h1v1h-1V3zM10 13h1v1h-1v-1zm29 0h1v1h-1v-1zm0-2h1v1h-1v-1zm-17 4h1v2h-1v1h1v7h4v-7h1v-1h-1v-2h1v-2h-6v2zm-10-1h1v1h-1v-1zm23-1h1v1h-1v-1zm-21 0h1v1h-1v-1zm19 1h1v2h-1v-2zm4-2h1v1h-1v-1zm-21 2h1v1h-1v-1zm-4-2h1v1h-1v-1zm25 2h1v1h-1v-1zM9 3h1v1H9V3z"/><path d="M41 2h1v1h-1V2zM8 2h1v1H8V2z"/></g><g fill="#414040"><path d="M24,23h1v1h-1V23z"/><path d="M25,22h1v1h-1V22z"/><path d="M24,21h1v1h-1V21z"/><path d="M25,20h1v1h-1V20z"/><path d="M24,19h1v1h-1V19z"/><path d="M25,18h1v1h-1V18z"/><path d="M24,17h1v1h-1V17z"/><path d="M25,16h1v1h-1V16z"/><path d="M24 15h1v1h-1v-1zm2-1h1v1h-1v-1z"/><path d="M23 14h1v1h-1v-1zm5-2h1v1h-1v-1z"/><path d="M21 12h1v1h-1v-1zm8-1h1v1h-1v-1z"/><path d="M20 11h1v1h-1v-1zm10-1h1v1h-1v-1z"/><path d="M19 10h1v1h-1v-1zm12-1h1v1h-1V9z"/><path d="M18 9h1v1h-1V9zm14-1h1v1h-1V8z"/><path d="M17 8h1v1h-1V8zm16-1h2v1h-2V7z"/><path d="M15 7h2v1h-2V7zm20-1h1v1h-1V6z"/><path d="M14 6h1v1h-1V6zm22-1h1v1h-1V5z"/><path d="M13 5h1v1h-1V5zm24-1h1v1h-1V4z"/><path d="M12 4h1v1h-1V4zm26-1h1v1h-1V3z"/><path d="M11 3h1v1h-1V3zm28-1h1v1h-1V2z"/><path d="M10 2h1v1h-1V2zm30-1h1v1h-1V1z"/><path d="M9 1h1v1H9V1zm32-1h1v1h-1V0z"/><path d="M8,0h1v1H8V0z"/></g><path d="M34,16h1v1h-1V16z" fill="#ecd3fc"/><g fill="#de37e4"><path d="M34,17h1v1h-1V17z"/><path d="M35 16h1v1h-1v-1zm-2 0h1v1h-1v-1z"/><path d="M34 15h1v1h-1v-1zm-10-1h2v1h-2v-1z"/></g></svg>