<svg xmlns="http://www.w3.org/2000/svg" viewBox="0 0 50 26"><path d="M12 4V3h-1V2h-1V1H9V0H7.5v12H8v14h4v-1h5v1h5v-1h6v1h5v-1h5v1h4V12h.5V0H41v1h-1v1h-1v1h-1v1H12z" fill="#2a2a2a"/><g fill="#303030"><path d="M29 24h1v1h-1v-1zm-9 0h1v1h-1v-1zm19-1h1v1h-1v-1zm-4 0h1v1h-1v-1zm-4 0h1v1h-1v-1zm-4 0h1v1h-1v-1zm-5 0h1v1h-1v-1zm-4 0h1v1h-1v-1zm-4 0h1v1h-1v-1zm-4 0h1v1h-1v-1zm27-1h1v1h-1v-1zm-4 0h1v1h-1v-1zm-4 0h1v1h-1v-1zm-9 0h1v1h-1v-1zm-4 0h1v1h-1v-1zm-4 0h1v1h-1v-1zm27-1h1v1h-1v-1zm-4 0h1v1h-1v-1zm-4 0h1v1h-1v-1zm-4 0h1v1h-1v-1zm-5 0h1v1h-1v-1zm-4 0h1v1h-1v-1zm-4 0h1v1h-1v-1zm-4 0h1v1h-1v-1zm27-1h1v1h-1v-1zm-4 0h1v1h-1v-1zm-4 0h1v1h-1v-1zm-9 0h1v1h-1v-1zm-4 0h1v1h-1v-1zm-4 0h1v1h-1v-1zm27-1h1v1h-1v-1zm-4 0h1v1h-1v-1zm-4 0h1v1h-1v-1zm-4 0h1v1h-1v-1zm-5 0h1v1h-1v-1zm-4 0h1v1h-1v-1zm-4 0h1v1h-1v-1zm-4 0h1v1h-1v-1zm27-1h1v1h-1v-1zm-8 0h1v1h-1v-1zm-9 0h1v1h-1v-1zm-4 0h1v1h-1v-1zm-4 0h1v1h-1v-1zm27-1h1v1h-1v-1zm-4 0h1v1h-1v-1zm-2 1v1h1v-1-1h-1v1zm-2-1h1v1h-1v-1zm-4 0h1v1h-1v-1zm-5 0h1v1h-1v-1zm-4 0h1v1h-1v-1zm-4 0h1v1h-1v-1zm-4 0h1v1h-1v-1zm27-1h1v1h-1v-1zm-8 0h1v1h-1v-1zm-9 0h1v1h-1v-1zm-4 0h1v1h-1v-1zm-4 0h1v1h-1v-1zm27-1h1v1h-1v-1zm-4 0h1v1h-1v-1zm-4 0h1v1h-1v-1zm-4 0h1v1h-1v-1zm-5 0h1v1h-1v-1zm-4 0h1v1h-1v-1zm-4 0h1v1h-1v-1zm-4 0h1v1h-1v-1zm27-1h1v1h-1v-1zm-4 1v1h1v-1-1h-1v1zm-4-1h1v1h-1v-1zm-9 0h1v1h-1v-1zm-4 0h1v1h-1v-1zm-4 0h1v1h-1v-1zm27-1h1v1h-1v-1zm-4 0h1v1h-1v-1zm-4 0h1v1h-1v-1zm-4 0h1v1h-1v-1zm-5 0h1v1h-1v-1zm-4 0h1v1h-1v-1zm-4 0h1v1h-1v-1zm-4 0h1v1h-1v-1zm27-1h1v1h-1v-1zm-4 0h1v1h-1v-1zm-4 0h1v1h-1v-1zm-9 0h1v1h-1v-1zm-4 0h1v1h-1v-1zm-4 0h1v1h-1v-1zm27-1h1v1h-1v-1zm-4 0h1v1h-1v-1zm-4 0h1v1h-1v-1zm-13 0h1v1h-1v-1zm-4 0h1v1h-1v-1zm-4 0h1v1h-1v-1zm2-1h1v1h-1v-1zm27-1h1v1h-1V9zM10 9h1v1h-1V9zm2-1h1v1h-1V8zm27-1h1v1h-1V7zM10 7h1v1h-1V7zm30-4h1v1h-1V3z"/><path d="M9 3h1v1H9V3zm32-1h1v1h-1V2z"/><path d="M8 2h1v1H8V2zm8 8h1v1h-1v-1zm-2-1h1v1h-1V9zm2-1h1v1h-1V8zm-2-1h1v1h-1V7zm6 3h1v1h-1v-1zm2-1h1v1h-1V9zm-4 0h1v1h-1V9zm2-1h1v1h-1V8zm2-1h1v1h-1V7zm-4 0h1v1h-1V7zm9 2h1v1h-1V9zm0-2h1v1h-1V7zm2 3h1v1h-1v-1zm2-1h1v1h-1V9zm-2-1h1v1h-1V8zm2-1h1v1h-1V7zm6 3h1v1h-1v-1zm-4 0h1v1h-1v-1zm2-1h1v1h-1V9zm2-1h1v1h-1V8zm-4 0h1v1h-1V8zm2-1h1v1h-1V7zm-13 4h1v1h-1v-1zm5 0h1v1h-1v-1z"/></g><g fill="#414040"><path d="M38 3h1v1h-1V3zM11 3h1v1h-1V3z"/><path d="M39 2h1v1h-1V2zM10 2h1v1h-1V2z"/><path d="M40 1h1v1h-1V1zM9 1h1v1H9V1z"/><path d="M41 0h1v1h-1V0zM8 0h1v1H8V0zm4 4h26v1H12V4z"/></g></svg>