<svg xmlns="http://www.w3.org/2000/svg" viewBox="0 0 34 26"><path d="M4 4V3H3V2H2V1H1V0H0v26h4v-1h5v1h5v-1h6v1h5v-1h5v1h4V0h-1v1h-1v1h-1v1h-1v1z" fill="#2a2a2a"/><g fill="#303030"><path d="M21 24h1v1h-1zm-9 0h1v1h-1zm19-1h1v1h-1zm-4 0h1v1h-1zm-4 0h1v1h-1zm-4 0h1v1h-1zm-5 0h1v1h-1zm-4 0h1v1h-1zm-4 0h1v1H6zm-4 0h1v1H2zm27-1h1v1h-1zm-4 0h1v1h-1zm-4 0h1v1h-1zm-9 0h1v1h-1zm-4 0h1v1H8zm-4 0h1v1H4zm27-1h1v1h-1zm-4 0h1v1h-1zm-4 0h1v1h-1zm-4 0h1v1h-1zm-5 0h1v1h-1zm-4 0h1v1h-1zm-4 0h1v1H6zm-4 0h1v1H2zm27-1h1v1h-1zm-4 0h1v1h-1zm-4 0h1v1h-1zm-9 0h1v1h-1zm-4 0h1v1H8zm-4 0h1v1H4zm27-1h1v1h-1zm-4 0h1v1h-1zm-4 0h1v1h-1zm-4 0h1v1h-1zm-5 0h1v1h-1zm-4 0h1v1h-1zm-4 0h1v1H6zm-4 0h1v1H2zm27-1h1v1h-1zm-8 0h1v1h-1zm-9 0h1v1h-1zm-4 0h1v1H8zm-4 0h1v1H4zm27-1h1v1h-1zm-4 0h1v1h-1zm-2 1v1h1v-1-1h-1zm-2-1h1v1h-1zm-4 0h1v1h-1zm-5 0h1v1h-1zm-4 0h1v1h-1zm-4 0h1v1H6zm-4 0h1v1H2zm27-1h1v1h-1zm-8 0h1v1h-1zm-9 0h1v1h-1zm-4 0h1v1H8zm-4 0h1v1H4zm27-1h1v1h-1zm-4 0h1v1h-1zm-4 0h1v1h-1zm-4 0h1v1h-1zm-5 0h1v1h-1zm-4 0h1v1h-1zm-4 0h1v1H6zm-4 0h1v1H2zm27-1h1v1h-1zm-4 1v1h1v-1-1h-1zm-4-1h1v1h-1zm-9 0h1v1h-1zm-4 0h1v1H8zm-4 0h1v1H4zm27-1h1v1h-1zm-4 0h1v1h-1zm-4 0h1v1h-1zm-4 0h1v1h-1zm-5 0h1v1h-1zm-4 0h1v1h-1zm-4 0h1v1H6zm-4 0h1v1H2zm27-1h1v1h-1zm-4 0h1v1h-1zm-4 0h1v1h-1zm-9 0h1v1h-1zm-4 0h1v1H8zm-4 0h1v1H4zm27-1h1v1h-1zm-4 0h1v1h-1zm-4 0h1v1h-1zm-13 0h1v1h-1zm-4 0h1v1H6zm-4 0h1v1H2zm2-1h1v1H4zm27-1h1v1h-1zM2 9h1v1H2zm2-1h1v1H4zm27-1h1v1h-1zM2 7h1v1H2zm30-4h1v1h-1z"/><path d="M1 3h1v1H1zm32-1h1v1h-1z"/><path d="M0 2h1v1H0zm8 8h1v1H8zM6 9h1v1H6zm2-1h1v1H8zM6 7h1v1H6zm6 3h1v1h-1zm2-1h1v1h-1zm-4 0h1v1h-1zm2-1h1v1h-1zm2-1h1v1h-1zm-4 0h1v1h-1zm9 2h1v1h-1zm0-2h1v1h-1zm2 3h1v1h-1zm2-1h1v1h-1zm-2-1h1v1h-1zm2-1h1v1h-1zm6 3h1v1h-1zm-4 0h1v1h-1zm2-1h1v1h-1zm2-1h1v1h-1zm-4 0h1v1h-1zm2-1h1v1h-1zm-13 4h1v1h-1zm5 0h1v1h-1z"/></g><g fill="#414040"><path d="M30 3h1v1h-1zM3 3h1v1H3z"/><path d="M31 2h1v1h-1zM2 2h1v1H2z"/><path d="M32 1h1v1h-1zM1 1h1v1H1z"/><path d="M33 0h1v1h-1zM0 0h1v1H0zm4 4h26v1H4z"/></g></svg>