<svg xmlns="http://www.w3.org/2000/svg" viewBox="0 0 50 26"><path d="M44,0v1h1v1h1v1h1v1h1v1h-4v1h1v1h2v1h2v1h1v4h-1v1h-4v-1h-2v-1h-1.5V0H44z" fill="#2a2a2a"/><g fill="#de37e4"><path d="M47 13h-1v-1h1v1z"/><path d="M48 12h-1v-1h1v1z"/></g><g fill="#303030"><path d="M46 12h-1v-1h1v1z"/><path d="M47 11h-1v-1h1v1z"/><path d="M46 10h-1V9h1v1zm-3-6h-1V3h1v1zm2 0h-1V3h1v1z"/><path d="M44,3h-2.5V2H44V3z"/><path d="M43,2h-1V1h1V2z"/></g><g fill="#414040"><path d="M46,3v1h-4v1h6V4h-1V3H46z"/><path d="M46,3h-1V2h1V3z"/><path d="M45,2h-1V1h1V2z"/><path d="M44,1h-2.5V0H44V1z"/></g><path d="M49 11h-1v-1h1v1zm-6-8h-1V2h1v1z" fill="#de37e4"/></svg>