<svg xmlns="http://www.w3.org/2000/svg" viewBox="0 0 14 15"><path d="M9 1H8v2H7v2H6v1H5V1H4v1H3v1H2v1H1v1H0v6h1v1h1v1h1v1h1v1h1v-5h5V9h1V8h1V7h1V5h1V1h-1V0H9z" fill="#2a2a2a"/><g fill="#de37e4"><path d="M12 3h1v1h-1z"/><path d="M11 2h1v1h-1z"/><path d="M10 1h1v1h-1zM2 6h1v1H2zm0 3h1v1H2z"/></g><g fill="#303030"><path d="M11 4h1v1h-1z"/><path d="M10 3h1v1h-1z"/><path d="M9 4h1v1H9zM3 6h1v1H3zm0-2h1v1H3z"/><path d="M2 5h1v1H2z"/><path d="M1 6h1v1H1zm2 4h1v1H3zm0 2h1v1H3z"/><path d="M2 11h1v1H2zM1 8h1v1H1z"/><path d="M1 10h1v1H1zm1-3h1v1H2z"/><path d="M3 8h1v1H3z"/></g><g fill="#414040"><path d="M13 1h1v4h-1z"/><path d="M12 5h1v2h-1z"/><path d="M11 7h1v1h-1zM9 0h4v1H9zM6 5h1v1H6z"/><path d="M5 1H4v1H3v1h1v10H3v1h1v1h1V7h1V6H5z"/><path d="M2 3h1v1H2z"/><path d="M1 4h1v1H1zm7-3h1v2H8z"/><path d="M7 3h1v2H7zm3 5h1v1h-1zm-8 4h1v1H2z"/><path d="M1 11h1v1H1z"/><path d="M0 5h1v6H0z"/></g></svg>