<svg xmlns="http://www.w3.org/2000/svg" viewBox="0 0 14 15"><path d="M5 1h1v2h1v2h1v1h1V1h1v1h1v1h1v1h1v1h1v6h-1v1h-1v1h-1v1h-1v1H9v-5H4V9H3V8H2V7H1V5H0V1h1V0h4z" fill="#2a2a2a"/><g fill="#de37e4"><path d="M1 3h1v1H1z"/><path d="M2 2h1v1H2z"/><path d="M3 1h1v1H3zm8 5h1v1h-1zm0 3h1v1h-1z"/></g><g fill="#303030"><path d="M2 4h1v1H2z"/><path d="M3 3h1v1H3z"/><path d="M4 4h1v1H4zm6 2h1v1h-1zm0-2h1v1h-1z"/><path d="M11 5h1v1h-1z"/><path d="M12 6h1v1h-1zm-2 4h1v1h-1zm0 2h1v1h-1z"/><path d="M11 11h1v1h-1zm1-3h1v1h-1z"/><path d="M12 10h1v1h-1zm-1-3h1v1h-1z"/><path d="M10 8h1v1h-1z"/></g><g fill="#414040"><path d="M0 1h1v4H0z"/><path d="M1 5h1v2H1z"/><path d="M2 7h1v1H2zM1 0h4v1H1zm6 5h1v1H7z"/><path d="M9 1h1v1h1v1h-1v10h1v1h-1v1H9V7H8V6h1z"/><path d="M11 3h1v1h-1z"/><path d="M12 4h1v1h-1zM5 1h1v2H5z"/><path d="M6 3h1v2H6zM3 8h1v1H3zm8 4h1v1h-1z"/><path d="M12 11h1v1h-1z"/><path d="M13 5h1v6h-1z"/></g></svg>