<svg xmlns="http://www.w3.org/2000/svg" viewBox="0 0 24 26"><path d="M0 26h3v-1h3v1h4v-1h4v1h4v-1h3v1h3V10h-1V9h-1V8h-1V7h-1-1V6h-1V5h-1V4h-1V3h-1V2h-1V1h-1V0h-1-1v1h-1v1H9v1H8v1H0z" fill="#2a2a2a"/><g fill="#303030"><path d="M14 23h1v1h-1zm4 0h1v1h-1zm4 0h1v1h-1zm-6-1h1v1h-1zm4 0h1v1h-1zm-6-1h1v1h-1zm4 0h1v1h-1zm4 0h1v1h-1zm-6-1h1v1h-1zm4 0h1v1h-1zm-6-1h1v1h-1zm4 0h1v1h-1zm4 0h1v1h-1zm-6-1h1v1h-1zm4 0h1v1h-1zm-6-1h1v1h-1zm4 0h1v1h-1zm4 0h1v1h-1zm-6-1h1v1h-1zm4 0h1v1h-1zm-6-1h1v1h-1zm4 0h1v1h-1zm4 0h1v1h-1zm-6-1h1v1h-1zm4 0h1v1h-1zm-6-1h1v1h-1zm4 0h1v1h-1zm-2-1h1v1h-1zm-2-1h1v1h-1zm-1-8h1v1h-1z"/><path d="M12 2h-1v1h1 1V2zM1 23h1v1H1zm4 0h1v1H5zm4 0h1v1H9zm-6-1h1v1H3zm4 0h1v1H7zm-6-1h1v1H1zm4 0h1v1H5zm4 0h1v1H9zm-6-1h1v1H3zm4 0h1v1H7zm-6-1h1v1H1zm4 0h1v1H5zm4 0h1v1H9zm-6-1h1v1H3zm4 0h1v1H7zm-6-1h1v1H1zm4 0h1v1H5zm4 0h1v1H9zm-6-1h1v1H3zm4 0h1v1H7zm-6-1h1v1H1zm4 0h1v1H5zm4 0h1v1H9zm-6-1h1v1H3zm4 0h1v1H7zm-6-1h1v1H1zm4 0h1v1H5zm4 0h1v1H9zm-6-1h1v1H3zm4 0h1v1H7zm-6-1h1v1H1z"/><path d="M5 11h1v1H5zm4 0h1v1H9zm-2-1h1v1H7zm2-1h1v1H9zM7 8h1v1H7zm2-1h1v1H9zm1-4h1v1h-1zm-7 7h1v1H3zm2-1h1v1H5zM3 8h1v1H3zm2-1h1v1H5zM1 9h1v1H1zm0-2h1v1H1z"/></g><g fill="#414040"><path d="M23 10h1v1h-1z"/><path d="M22 9h1v1h-1z"/><path d="M21 8h1v1h-1z"/><path d="M20 7h-1v1h1 1V7z"/><path d="M18 6h1v1h-1z"/><path d="M17 5h1v1h-1z"/><path d="M16 4h1v1h-1z"/><path d="M15 3h1v1h-1z"/><path d="M14 2h1v1h-1z"/><path d="M13 1h1v1h-1z"/><path d="M12 0h-1v1h1 1V0zM8 3h1v1H8z"/><path d="M9 2h1v1H9z"/><path d="M10 1h1v1h-1zM6 4H5 4 3 2 1 0v1h1 1 1 1 1 1 1 1V4H7z"/></g></svg>