<svg xmlns="http://www.w3.org/2000/svg" viewBox="0 0 24 27"><path d="M0 27h3v-1h3v1h4v-1h4v1h4v-1h3v1h3V11h-1v-1h-1V9h-1V8h-1-1V7h-1V6h-1V5h-1V4h-1V3h-1V2h-1V1h-1-1v1h-1v1H9v1H8v1H0v22z" fill="#2a2a2a"/><g fill="#303030"><path d="M14 24h1v1h-1v-1zm4 0h1v1h-1v-1zm4 0h1v1h-1v-1zm-6-1h1v1h-1v-1zm4 0h1v1h-1v-1zm-6-1h1v1h-1v-1zm4 0h1v1h-1v-1zm4 0h1v1h-1v-1zm-6-1h1v1h-1v-1zm4 0h1v1h-1v-1zm-6-1h1v1h-1v-1zm4 0h1v1h-1v-1zm4 0h1v1h-1v-1zm-6-1h1v1h-1v-1zm4 0h1v1h-1v-1zm-6-1h1v1h-1v-1zm4 0h1v1h-1v-1zm4 0h1v1h-1v-1zm-6-1h1v1h-1v-1zm4 0h1v1h-1v-1zm-6-1h1v1h-1v-1zm4 0h1v1h-1v-1zm4 0h1v1h-1v-1zm-6-1h1v1h-1v-1zm4 0h1v1h-1v-1zm-6-1h1v1h-1v-1zm4 0h1v1h-1v-1zm-2-1h1v1h-1v-1zm-2-1h1v1h-1v-1zm-1-8h1v1h-1V4z"/><path d="M12 3h-1v1h1 1V3h-1zM1 24h1v1H1v-1zm4 0h1v1H5v-1zm4 0h1v1H9v-1zm-6-1h1v1H3v-1zm4 0h1v1H7v-1zm-6-1h1v1H1v-1zm4 0h1v1H5v-1zm4 0h1v1H9v-1zm-6-1h1v1H3v-1zm4 0h1v1H7v-1zm-6-1h1v1H1v-1zm4 0h1v1H5v-1zm4 0h1v1H9v-1zm-6-1h1v1H3v-1zm4 0h1v1H7v-1zm-6-1h1v1H1v-1zm4 0h1v1H5v-1zm4 0h1v1H9v-1zm-6-1h1v1H3v-1zm4 0h1v1H7v-1zm-6-1h1v1H1v-1zm4 0h1v1H5v-1zm4 0h1v1H9v-1zm-6-1h1v1H3v-1zm4 0h1v1H7v-1zm-6-1h1v1H1v-1zm4 0h1v1H5v-1zm4 0h1v1H9v-1zm-6-1h1v1H3v-1zm4 0h1v1H7v-1zm-6-1h1v1H1v-1z"/><path d="M5 12h1v1H5v-1zm4 0h1v1H9v-1zm-2-1h1v1H7v-1zm2-1h1v1H9v-1zM7 9h1v1H7V9zm2-1h1v1H9V8zm1-4h1v1h-1V4zm-7 7h1v1H3v-1zm2-1h1v1H5v-1zM3 9h1v1H3V9zm2-1h1v1H5V8zm-4 2h1v1H1v-1zm0-2h1v1H1V8z"/></g><g fill="#414040"><path d="M23,11h1v1h-1V11z"/><path d="M22,10h1v1h-1V10z"/><path d="M21,9h1v1h-1V9z"/><path d="M20,8h-1v1h1h1V8H20z"/><path d="M18,7h1v1h-1V7z"/><path d="M17,6h1v1h-1V6z"/><path d="M16,5h1v1h-1V5z"/><path d="M15,4h1v1h-1V4z"/><path d="M14,3h1v1h-1V3z"/><path d="M13,2h1v1h-1V2z"/><path d="M12 1h-1v1h1 1V1h-1zM8 4h1v1H8V4z"/><path d="M9,3h1v1H9V3z"/><path d="M10 2h1v1h-1V2zM6 5H5 4 3 2 1 0v1h1 1 1 1 1 1 1 1V5H7 6z"/></g></svg>