<svg xmlns="http://www.w3.org/2000/svg" viewBox="0 0 24 26"><path d="M0 26h3v-1h3v1h4v-1h4v1h4v-1h3v1h3V4h-8V3h-1V2h-1V1h-1V0h-1-1v1h-1v1H9v1H8v1H7v1H6v1H5v1H4 3v1H2v1H1v1H0z" fill="#2a2a2a"/><g fill="#303030"><path d="M9 23h1v1H9zm-4 0h1v1H5zm-4 0h1v1H1zm6-1h1v1H7zm-4 0h1v1H3zm6-1h1v1H9zm-4 0h1v1H5zm-4 0h1v1H1zm6-1h1v1H7zm-4 0h1v1H3zm6-1h1v1H9zm-4 0h1v1H5zm-4 0h1v1H1zm6-1h1v1H7zm2-1h1v1H9zm-4 0h1v1H5zm-2 1v1h1v-1-1H3zm-2-1h1v1H1zm6-1h1v1H7zm2-1h1v1H9zm-4 0h1v1H5zm-4 0h1v1H1zm6-1h1v1H7zm-4 1v1h1v-1-1H3zm6-2h1v1H9zm-4 0h1v1H5zm2-1h1v1H7zm2-1h1v1H9zm1-8h1v1h-1zm12 20h1v1h-1zm-4 0h1v1h-1zm-4 0h1v1h-1zm6-1h1v1h-1zm-4 0h1v1h-1zm6-1h1v1h-1zm-4 0h1v1h-1zm-4 0h1v1h-1zm6-1h1v1h-1zm-4 0h1v1h-1zm6-1h1v1h-1zm-4 0h1v1h-1zm-4 0h1v1h-1zm6-1h1v1h-1zm-4 0h1v1h-1zm6-1h1v1h-1zm-4 0h1v1h-1zm-4 0h1v1h-1zm6-1h1v1h-1zm-4 0h1v1h-1zm6-1h1v1h-1zm-4 0h1v1h-1zm-4 0h1v1h-1zm6-1h1v1h-1zm-4 0h1v1h-1zm6-1h1v1h-1zm-4 0h1v1h-1zm-4 0h1v1h-1zm6-1h1v1h-1zm-4 0h1v1h-1zm6-1h1v1h-1zm-4 0h1v1h-1zm-4 0h1v1h-1zm2-1h1v1h-1zm-2-1h1v1h-1zm2-1h1v1h-1zm-2-1h1v1h-1zm-1-4h1v1h-1z"/><path d="M12 2h-1v1h1 1V2zm8 8h1v1h-1zm-2-1h1v1h-1zm2-1h1v1h-1zm-2-1h1v1h-1zm4 2h1v1h-1zm0-2h1v1h-1z"/></g><g fill="#414040"><path d="M0 10h1v1H0z"/><path d="M1 9h1v1H1z"/><path d="M2 8h1v1H2z"/><path d="M3 7v1h1 1V7H4z"/><path d="M5 6h1v1H5z"/><path d="M6 5h1v1H6z"/><path d="M7 4h1v1H7z"/><path d="M8 3h1v1H8z"/><path d="M9 2h1v1H9z"/><path d="M10 1h1v1h-1zm5 2h1v1h-1z"/><path d="M14 2h1v1h-1z"/><path d="M13 1h1v1h-1z"/><path d="M12 0h-1v1h1 1V0zm4 4h8v1h-8z"/></g><path d="M5 16v-1H4v1H3v1h1v1h1v-1h1v-1z" fill="#de37e4"/><path d="M4 16h1v1H4z" fill="#ecd3fc"/></svg>