<svg xmlns="http://www.w3.org/2000/svg" viewBox="0 0 8 14"><path d="M2 0v1h1v1h1v1h1v1h1v1H2v1h1v1h2v1h2v1h1v4H7v1H3v-1H1v-1H0V0z" fill="#2a2a2a"/><g fill="#de37e4"><path d="M5 13H4v-1h1v1z"/><path d="M6 12H5v-1h1v1z"/><path d="M7 11H6v-1h1v1zM1 3H0V2h1v1z"/></g><g fill="#303030"><path d="M4 12H3v-1h1v1z"/><path d="M5 11H4v-1h1v1z"/><path d="M4 10H3V9h1v1zM1 4H0V3h1v1zm2 0H2V3h1v1z"/><path d="M2,3H1V2h1V3z"/><path d="M1,2H0V1h1V2z"/></g><g fill="#414040"><path d="M4,3v1H0v1h6V4H5V3H4z"/><path d="M4,3H3V2h1V3z"/><path d="M3,2H2V1h1V2z"/><path d="M2,1H0V0h2V1z"/></g></svg>