<svg xmlns="http://www.w3.org/2000/svg" viewBox="0 0 50 26"  enable-background="new" xmlns:v="https://vecta.io/nano"><path d="M34 16h1v1h-1z" fill="#ecd3fc"/><g fill="#de37e4"><path d="M34 17h1v1h-1z"/><path d="M35 16h1v1h-1zm-2 0h1v1h-1z"/><path d="M34 15h1v1h-1zm-10-1h2v1h-2z"/></g><g fill="#303030"><path d="M29 24h1v1h-1zm-9 0h1v1h-1zm19-1h1v1h-1zm-4 0h1v1h-1zm-4 0h1v1h-1zm-13 0h1v1h-1zm-4 0h1v1h-1zm-4 0h1v1h-1zm27-1h1v1h-1zm-4 0h1v1h-1zm-4 0h1v1h-1zm-9 0h1v1h-1zm-4 0h1v1h-1zm-4 0h1v1h-1zm27-1h1v1h-1zm-4 0h1v1h-1zm-4 0h1v1h-1zm-13 0h1v1h-1zm-4 0h1v1h-1zm-4 0h1v1h-1zm27-1h1v1h-1zm-4 0h1v1h-1zm-4 0h1v1h-1zm-9 0h1v1h-1zm-4 0h1v1h-1zm-4 0h1v1h-1zm27-1h1v1h-1zm-4 0h1v1h-1zm-4 0h1v1h-1zm-13 0h1v1h-1zm-4 0h1v1h-1zm-4 0h1v1h-1zm27-1h1v1h-1zm-8 0h1v1h-1zm-9 0h1v1h-1zm-4 0h1v1h-1zm-4 0h1v1h-1zm27-1h1v1h-1zm-4 0h1v1h-1zm-2 0h1v2h-1zm-2 0h1v1h-1zm-13 0h1v1h-1zm-4 0h1v1h-1zm-4 0h1v1h-1zm27-1h1v1h-1zm-8 0h1v1h-1zm-9 0h1v1h-1zm-4 0h1v1h-1zm-4 0h1v1h-1zm27-1h1v1h-1zm-4 0h1v1h-1zm-4 0h1v1h-1zm-6 0v1h1v1h-1v1h1v1h-1v1h1v1h-1v1h1v1h-1v1h-1v-1h1v-1h-1v-1h1v-1h-1v-1h1v-1h-1v-1h1v-1h-1v-1h-1v2h-1v1h1v7h4v-7h1v-1h-1v-2zm-7 0h1v1h-1zm-4 0h1v1h-1zm-4 0h1v1h-1z"/><path d="M37 14h1v1h-1zm-4 0h1v2h-1zm-17 0h1v1h-1zm-4 0h1v1h-1zm27-1h1v1h-1zm-4 0h1v1h-1zm-13 0v2h1v-1h4v1h1v-2zm-8 0h1v1h-1zm-4 0h1v1h-1zm27-1h1v1h-1zm-25 0h1v1h-1zm27-1h1v1h-1zm-29 0h1v1h-1zm30-8h1v1h-1z"/><path d="M9 3h1v1H9zm32-1h1v1h-1z"/><path d="M8 2h1v1H8z"/></g><g fill="#2a2a2a"><path d="M22 13h-1v-1h-1v-1h-1v-1h-1V9h-1V8h-2V7h-1V6h-1V5h-1V4h-1V3h-1v1H9V3H8v23h4v-1h5v1h5v-1h1v-7h-1v-1h1v-2h-1v-2zm-3 3h-1v-1h1v1zm0 2h-1v-1h1v1zm2 3h-1v-1h1v1zm0 2h-1v-1h1v1zm-2 1h-1v-1h1v1zm-6-1h-1v-1h1v1zm-2 1h-1v-1h1v1zm-1-3h1v1h-1v-1zm0-2h1v1h-1v-1zm0-2h1v1h-1v-1zm0-2h1v1h-1v-1zm0-2h1v1h-1v-1zm0-2h1v1h-1v-1zm7 4h-1v-1h1v1zm0 2h-1v-1h1v1zm0 2h-1v-1h1v1zm2 3h-1v-1h1v1zm-2-1h-1v-1h1v1zm-4 0h-1v-1h1v1zm-1-3h1v1h-1v-1zm0-2h1v1h-1v-1zm0-2h1v1h-1v-1zm0-2h1v1h-1v-1zm3 2h-1v-1h1v1zm0 2h-1v-1h1v1zm0 2h-1v-1h1v1zm-1 1h1v1h-1v-1zm0 2h1v1h-1v-1zm2 1h1v1h-1v-1zm3-2h-1v-1h1v1zm-5 4v-1h1v1h-1zm6 1v-1h1v1h-1zm1-6h-1v-1h1v1zm-1-2v-1h1v1h-1zM40 4V3h-1v1h-1v1h-1v1h-1v1h-1v1h-2v1h-1v1h-1v1h-1v1h-1v1h-1v2h-1v2h1v1h-1v7h1v1h5v-1h5v1h4V3h-1v1h-1zm0 8h-1v-1h1v1zm0 2h-1v-1h1v1zm0 2h-1v-1h1v1zm0 2h-1v-1h1v1zm0 2h-1v-1h1v1zm0 2h-1v-1h1v1zm0 2h-1v-1h1v1zm-6-1h-1v-1h1v1zm-2 1h-1v-1h1v1zm-3-2h1v1h-1v-1zm0-2h1v1h-1v-1zm2-1h1v1h-1v-1zm0-2h1v1h-1v-1zm7-4h-1v-1h1v1zm0 2h-1v-1h1v1zm0 2h-1v-1h1v1zm0 2h-1v-1h1v1zm0 2h-1v-1h1v1zm-4 0h-1v-1h1v1zm-2 1h-1v-1h1v1zm1-8h1v1h2v3h-2v1h-1v-5zm3 0h-1v-1h1v1zm-1 5h1v1h-1v-1zm-4-4h1v1h-1v-1zm4 6h1v1h-1v-1zm2 1h1v1h-1v-1zm-8-6h1v1h-1v-1zm1 2v1h-1v-1h1zm-1 7v-1h1v1h-1zm6-1v-1h1v1h-1z"/><path d="M40 2h1v1h-1zM9 2h1v1H9z"/><path d="M41 1h1v1h-1zM8 1h1v1H8z"/></g><g fill="#414040"><path d="M24 23h1v1h-1z"/><path d="M25 22h1v1h-1z"/><path d="M24 21h1v1h-1z"/><path d="M25 20h1v1h-1z"/><path d="M24 19h1v1h-1z"/><path d="M25 18h1v1h-1z"/><path d="M24 17h1v1h-1z"/><path d="M25 16h1v1h-1z"/><path d="M24 15h1v1h-1zm2-1h1v1h-1z"/><path d="M23 14h1v1h-1zm5-2h1v1h-1z"/><path d="M21 12h1v1h-1zm8-1h1v1h-1z"/><path d="M20 11h1v1h-1zm10-1h1v1h-1z"/><path d="M19 10h1v1h-1zm12-1h1v1h-1z"/><path d="M18 9h1v1h-1zm14-1h1v1h-1z"/><path d="M17 8h1v1h-1zm16-1h2v1h-2z"/><path d="M15 7h2v1h-2zm20-1h1v1h-1z"/><path d="M14 6h1v1h-1zm22-1h1v1h-1z"/><path d="M13 5h1v1h-1zm24-1h1v1h-1z"/><path d="M12 4h1v1h-1zm26-1h1v1h-1z"/><path d="M11 3h1v1h-1zm28-1h1v1h-1z"/><path d="M10 2h1v1h-1zm30-1h1v1h-1z"/><path d="M9 1h1v1H9zm32-1h1v1h-1z"/><path d="M8 0h1v1H8z"/></g></svg>