<svg xmlns="http://www.w3.org/2000/svg" viewBox="0 0 24 27"><path d="M0 27h3v-1h3v1h4v-1h4v1h4v-1h3v1h3V5h-8V4h-1V3h-1V2h-1V1h-1-1v1h-1v1H9v1H8v1H7v1H6v1H5v1H4 3v1H2v1H1v1H0v16z" fill="#2a2a2a"/><g fill="#303030"><path d="M9 24h1v1H9v-1zm-4 0h1v1H5v-1zm-4 0h1v1H1v-1zm6-1h1v1H7v-1zm-4 0h1v1H3v-1zm6-1h1v1H9v-1zm-4 0h1v1H5v-1zm-4 0h1v1H1v-1zm6-1h1v1H7v-1zm-4 0h1v1H3v-1zm6-1h1v1H9v-1zm-4 0h1v1H5v-1zm-4 0h1v1H1v-1zm6-1h1v1H7v-1zm2-1h1v1H9v-1zm-4 0h1v1H5v-1zm-2 1v1h1v-1-1H3v1zm-2-1h1v1H1v-1zm6-1h1v1H7v-1zm2-1h1v1H9v-1zm-4 0h1v1H5v-1zm-4 0h1v1H1v-1zm6-1h1v1H7v-1zm-4 1v1h1v-1-1H3v1zm6-2h1v1H9v-1zm-4 0h1v1H5v-1zm2-1h1v1H7v-1zm2-1h1v1H9v-1zm1-8h1v1h-1V4zm12 20h1v1h-1v-1zm-4 0h1v1h-1v-1zm-4 0h1v1h-1v-1zm6-1h1v1h-1v-1zm-4 0h1v1h-1v-1zm6-1h1v1h-1v-1zm-4 0h1v1h-1v-1zm-4 0h1v1h-1v-1zm6-1h1v1h-1v-1zm-4 0h1v1h-1v-1zm6-1h1v1h-1v-1zm-4 0h1v1h-1v-1zm-4 0h1v1h-1v-1zm6-1h1v1h-1v-1zm-4 0h1v1h-1v-1zm6-1h1v1h-1v-1zm-4 0h1v1h-1v-1zm-4 0h1v1h-1v-1zm6-1h1v1h-1v-1zm-4 0h1v1h-1v-1zm6-1h1v1h-1v-1zm-4 0h1v1h-1v-1zm-4 0h1v1h-1v-1zm6-1h1v1h-1v-1zm-4 0h1v1h-1v-1zm6-1h1v1h-1v-1zm-4 0h1v1h-1v-1zm-4 0h1v1h-1v-1zm6-1h1v1h-1v-1zm-4 0h1v1h-1v-1zm6-1h1v1h-1v-1zm-4 0h1v1h-1v-1zm-4 0h1v1h-1v-1zm2-1h1v1h-1v-1zm-2-1h1v1h-1v-1zm2-1h1v1h-1V9zm-2-1h1v1h-1V8zm-1-4h1v1h-1V4z"/><path d="M12 3h-1v1h1 1V3h-1zm8 8h1v1h-1v-1zm-2-1h1v1h-1v-1zm2-1h1v1h-1V9zm-2-1h1v1h-1V8zm4 2h1v1h-1v-1zm0-2h1v1h-1V8z"/></g><g fill="#414040"><path d="M0,11h1v1H0V11z"/><path d="M1,10h1v1H1V10z"/><path d="M2,9h1v1H2V9z"/><path d="M3,8v1h1h1V8H4H3z"/><path d="M5,7h1v1H5V7z"/><path d="M6,6h1v1H6V6z"/><path d="M7,5h1v1H7V5z"/><path d="M8,4h1v1H8V4z"/><path d="M9,3h1v1H9V3z"/><path d="M10 2h1v1h-1V2zm5 2h1v1h-1V4z"/><path d="M14,3h1v1h-1V3z"/><path d="M13,2h1v1h-1V2z"/><path d="M12 1h-1v1h1 1V1h-1zm4 4h8v1h-8V5z"/></g><path d="M5,17v-1H4v1H3v1h1v1h1v-1h1v-1H5z" fill="#de37e4"/><path d="M4,17h1v1H4V17z" fill="#ecd3fc"/></svg>