<svg xmlns="http://www.w3.org/2000/svg" viewBox="0 0 50 26"><path d="M8.5,0v12H7v1H5v1H1v-1H0V9h1V8h2V7h2V6h1V5H2V4h1V3h1V2h1V1h1V0H8.5z" fill="#2a2a2a"/><g fill="#de37e4"><path d="M3,12h1v1H3V12z"/><path d="M2,11h1v1H2V11z"/></g><g fill="#303030"><path d="M4,11h1v1H4V11z"/><path d="M3,10h1v1H3V10z"/><path d="M4 9h1v1H4V9zm3-6h1v1H7V3zM5 3h1v1H5V3z"/><path d="M6,2h2.5v1H6V2z"/><path d="M7,1h1v1H7V1z"/></g><g fill="#414040"><path d="M3,3v1H2v1h6V4H4V3H3z"/><path d="M4,2h1v1H4V2z"/><path d="M5,1h1v1H5V1z"/><path d="M6,0h2.5v1H6V0z"/></g><path d="M1 10h1v1H1v-1zm6-8h1v1H7V2z" fill="#de37e4"/></svg>