<svg xmlns="http://www.w3.org/2000/svg" viewBox="0 0 50 26"  xmlns:v="https://vecta.io/nano"><g fill="#de37e4"><path d="M3 12h1v1H3z"/><path d="M2 11h1v1H2z"/><path d="M1 10h1v1H1zm6-8h1v1H7z"/></g><g fill="#303030"><path d="M4 11h1v1H4z"/><path d="M3 10h1v1H3z"/><path d="M4 9h1v1H4zm3-6h1v1H7zM5 3h1v1H5z"/><path d="M6 2h1v1H6z"/><path d="M7 1h1v1H7z"/></g><g fill="#414040"><path d="M3 3v1H2v1h6V4H4V3z"/><path d="M4 2h1v1H4z"/><path d="M5 1h1v1H5z"/><path d="M6 0h2v1H6z"/></g><g fill="#2a2a2a"><path d="M3 11h1v1H3z"/><path d="M6 5v1H5v1H3v1H1v1H0v4h1v1h4v-1h2v-1h1V5H6zm-2 7v1H3v-1H2v-1H1v-1h1v1h1v-1h1V9h1v1H4v1h1v1H4zm2-9h1v1H6zM4 3h1v1H4z"/><path d="M5 2h1v1H5z"/><path d="M6 1h1v1H6z"/></g></svg>