<svg xmlns="http://www.w3.org/2000/svg" viewBox="0 0 14 28"  enable-background="new" xmlns:v="https://vecta.io/nano"><path d="M10 26h1v1h-1zm-3 0h1v1H7z" fill="#c66afb"/><path d="M9 15h1v1H9z" fill="#ad31eb"/><path d="M8 15h1v1H8z" fill="#c462fd"/><path d="M9 14h1v1H9z" fill="#c66afb"/><path d="M8 14h1v1H8z" fill="#dda8fc"/><g fill="#393939"><path d="M8 27h1v1H8zm3-1v1h-1v1h2v-2zm-5 0h1v2H6z"/><path d="M11 26v-1H7v1h2v1h1v-1zm0-9v-4H7v4h4zm-3-3h2v2H8v-2z"/></g><path d="M8 7h5v5H8zM5 7h2v5H5z" fill="#b5b5b5"/><path d="M8 17h1v8H8zM8 5h2v1H8z" fill="#303030"/><path d="M7 7h1v5H7zM4 3H3v1H2v1H1v9h1v1h1v1h1v-3h1V6H4z" fill="#d0cece"/><g fill="#454444"><path d="M9 27h1v1H9zm-2 0h1v1H7z"/><path d="M8 26h1v1H8zm1-9h1v8H9zm-4-5v1H4v3H3v-1H2v-1H1V5h1V4h1V3h1v3h1v1h8V6H6V4H5V1h1V0H4v1H3v1H2v1H1v1H0v11h1v1h1v1h1v1h1v1h2v-1H5v-3h1v-2h5v2h1v-2h1v-1z"/><path d="M13 7h1v5h-1z"/></g></svg>