<svg xmlns="http://www.w3.org/2000/svg" viewBox="0 0 14 28"><path d="M0 7v5h1v1h1v2h1v2h1v8H3v1H2v2h6v-2H7v-1H6v-8h1v-4h1v2h1v3H8v1h2v-1h1v-1h1v-1h1v-1h1V4h-1V3h-1V2h-1V1h-1V0H8v1h1v3H8v2H6V5H4v1H1v1z" fill="#454444"/><path d="M1 7v5h8v1h1v3h1v-1h1v-1h1V5h-1V4h-1V3h-1v3H9v1z" fill="#d0cece"/><path d="M6 12H1V7h5v5zm3 0H7V7h2v5z" fill="#b5b5b5"/><g fill="#393939"><path d="M6 28H5v-1h1v1zm-4-2v2h2v-1H3v-1H2zm6 2H7v-2h1v2z"/><path d="M4 26v1h1v-1h2v-1H3v1h1zm3-9v-4H3v4h4z"/></g><path d="M6 25H5v-8h1v8zM6 6H4V5h2v1z" fill="#303030"/><path d="M4 27H3v-1h1v1zm3 0H6v-1h1v1z" fill="#c66afb"/><path d="M5 16H4v-1h1v1z" fill="#ad31eb"/><path d="M6 16H5v-1h1v1z" fill="#c462fd"/><path d="M5 15H4v-1h1v1z" fill="#c66afb"/><path d="M6 15H5v-1h1v1z" fill="#dda8fc"/></svg>