<svg xmlns="http://www.w3.org/2000/svg" viewBox="0 0 14 28"  xmlns:v="https://vecta.io/nano"><path d="M10 26h1v1h-1v-1zm-3 0h1v1H7v-1z" fill="#c66afb"/><path d="M9,15h1v1H9V15z" fill="#ad31eb"/><path d="M8,15h1v1H8V15z" fill="#c462fd"/><path d="M9,14h1v1H9V14z" fill="#c66afb"/><path d="M8,14h1v1H8V14z" fill="#dda8fc"/><path d="M8 27h1v1H8v-1zm3-1v1h-1v1h2v-2h-1zm-5 0h1v2H6v-2z" fill="#393939"/><path d="M11 26v-1H7v1h2v1h1v-1h1zm0-9v-4H7v4h4zm-3-3h2v2H8v-2z" fill="#303030"/><path d="M8 7h5v5H8V7zM5 7h2v5H5V7z" fill="#323232"/><path d="M8 17h1v8H8v-8zM8 5h2v1H8V5z" fill="#303030"/><path d="M7 7h1v5H7V7zM4 3H3v1H2v1H1v9h1v1h1v1h1v-3h1V6H4V3z" fill="#3d3b3b"/><g fill="#303030"><path d="M7,27h1v1H7V27z"/><path d="M8 26h1v1H8v-1zM5 12v1H4v3H3v-1H2v-1H1V5h1V4h1V3h1v3h1v1h8V6H6V4H5V1h1V0H4v1H3v1H2v1H1v1H0v11h1v1h1v1h1v1h1v1h2v-1H5v-3h1v-2h5v2h1v-2h1v-1H5z"/></g><path d="M13,7h1v5h-1V7z" fill="#454444"/><path d="M9 17h1v8H9z" fill="#3d3b3b"/><path d="M9 27h1v1H9z" fill="#303030"/></svg>