<svg xmlns="http://www.w3.org/2000/svg" viewBox="0 0 42 29"><path d="M2 17h2v12H2zm36 0h2v12h-2zM5 17h2v8H5zm30 0h2v8h-2z" fill="#502d16"/><path d="M2 19h2v2H2v-2zm0 4h2v2H2v-2zm0 4h2v2H2v-2zm3-6h2v2H5v-2zm33-2h2v2h-2v-2zm0 4h2v2h-2v-2zm0 4h2v2h-2v-2zm-3-6h2v2h-2v-2z" fill="#a05a2c"/><path d="M40 6V4h-2V2h-4V0H8v2H4v2H2v2H0v11h2v2h38v-2h2V6z" fill="maroon"/><path d="M38 6V4h-4V2H8v2H4v2H2v11h38V6z" fill="red"/><path d="M0 6v11h2v2h38v-2h2V6z" fill="#ff0"/><path d="M0 12v5h2v2h38v-2h2v-5z" fill="#0a0"/><path d="M40 6h2v6h-2V6zM0 6h2v6H0V6z" fill="#d4aa00"/><g fill="green"><path d="M2,17h38v2H2V17z"/><path d="M40 12h2v5h-2v-5zM0 12h2v5H0v-5z"/></g></svg>