<svg xmlns="http://www.w3.org/2000/svg" viewBox="0 0 32 27"><path d="M2 6V4h2V2h1V0h22v2h1v2h2v2h2v11h-2v10h-2v-8h-1v6h-2v-6h-1v8h-2v-8h-1v8h-2v-8h-1v6h-2v-6h-1v8h-2v-8h-1v6h-2v-6H2v-2H0V6h2z" fill="maroon"/><path d="M32 6v6h-2V6h2zM2 6v6H0V6h2z" fill="#d4aa00"/><g fill="green"><path d="M30 17v2H2v-2h28z"/><path d="M2 12v5H0v-5h2zm28 0h2v5h-2v-5z"/></g><path d="M3 12h27v5H2v-5h1z" fill="#0a0"/><path d="M30 6v6H2V6h28z" fill="#ff0"/><path d="M5 4V2h22v2h1v2H4V4h1z" fill="red"/><path d="M12 19v6h-2v-6h2zm3 0v8h-2v-8h2zm9 0v8h-2v-8h2zm-6 0v6h-2v-6h2zm3 0v8h-2v-8h2zm6 0v6h-2v-6h2zm3 0v8h-2v-8h2z" fill="#502d16"/><path d="M12 21v2h-2v-2h2zm3-2v2h-2v-2h2zm0 4v2h-2v-2h2zm9-4v2h-2v-2h2zm0 4v2h-2v-2h2zm-6-2v2h-2v-2h2zm3-2v2h-2v-2h2zm0 4v2h-2v-2h2zm6-2v2h-2v-2h2zm3-2v2h-2v-2h2zm0 4v2h-2v-2h2z" fill="#a05a2c"/></svg>