<svg xmlns="http://www.w3.org/2000/svg" viewBox="0 0 42 29"  xmlns:v="https://vecta.io/nano"><path d="M2 19h2v2H2zm0 4h2v2H2zm0 4h2v2H2zm3-6h2v2H5zm33-2h2v2h-2zm0 4h2v2h-2zm0 4h2v2h-2zm-3-6h2v2h-2z" fill="#a05a2c"/><path d="M2 21h2v2H2zm3-2h2v2H5zm-3 6h2v2H2zm3-2h2v2H5zm33-2h2v2h-2zm0 4h2v2h-2zm-3-6h2v2h-2zm0 4h2v2h-2z" fill="#502d16"/><path d="M2 6h38v6H2z" fill="#ff0"/><path d="M40 6h2v6h-2zM0 6h2v6H0z" fill="#d4aa00"/><g fill="maroon"><path d="M2 4h2v2H2zm36 0h2v2h-2z"/><path d="M34 2h4v2h-4zM4 2h4v2H4z"/><path d="M8 0h26v2H8z"/></g><path d="M34 4V2H8v2H4v2h34V4z" fill="red"/><path d="M2 12h38v5H2z" fill="#0a0"/><g fill="green"><path d="M2 17h38v2H2z"/><path d="M40 12h2v5h-2zM0 12h2v5H0z"/></g></svg>