<svg xmlns="http://www.w3.org/2000/svg" viewBox="0 0 40 21"><path d="M25 7H15V6h-3V5h-2V4H9V3H8V2H7V1H3v20h34V9h.5V1H33v1h-1v1h-1v1h-1v1h-2v1h-3v1z" fill="#d4aa00"/><g fill="#ff0"><path d="M21 12h1v1h-1v-1zm-2 3h2v1h-2v-1z"/><path d="M21 14h1v1h-1v-1zm-3 0h1v1h-1v-1zm0-2h1v1h-1v-1zm7-5v1H15V7h-3V5v15h16V7h-3zm-2 4v1h1v6h-1v-1h-1v1h-1v-1h-2v1h-1v-1h-1v1h-1v-6h1v-1h1v-1h4v1h1z"/></g><path d="M23 12v-1h-1v-1h-4v1h-1v1h-1v6h1v-1h1v1h1v-1h2v1h1v-1h1v1h1v-6h-1zm-5 0h1v1h-1v-1zm4 3h-1v1h-2v-1h-1v-1h1v1h2v-1h1v1zm0-2h-1v-1h1v1z" fill="green"/><path d="M8,3V2H7V1H2.5v8H3v12h9V5h-2V4H9V3H8z" fill="#2d5016"/><path d="M8,4V3H7V2H2.5v6H4v12h8V6h-2V5H9V4H8z" fill="green"/><path d="M33 1v1h-1v1h-1v1h-1v1h-2v16h9V9h.5V1H33z" fill="#a00"/><path d="M31,4v1h-1v1h-2v14h8V8h1.5V2H33v1h-1v1H31z" fill="red"/><path d="M7 2h1v1H7z" fill="#2d5016"/></svg>