<svg xmlns="http://www.w3.org/2000/svg" viewBox="0 0 40 19"  enable-background="new" xmlns:v="https://vecta.io/nano"><g fill="#2d5016"><path d="M4 18V7H3v12h9v-1zM3 0h4v1H3z"/><path d="M7 1h2v1H7z"/><path d="M9 2h3v1H9z"/></g><g fill="#d4aa00"><path d="M15 4h10v1H15zm-3 14h16v1H12z"/><path d="M12 3h3v1h-3zm13 0h3v1h-3z"/></g><path d="M33 1v1h-2v1h-3v15h8V7h1V1z" fill="red"/><g fill="#a00"><path d="M36 18h-8v1h9V7h-1zM33 0h4v1h-4zm-5 2h3v1h-3z"/><path d="M31 1h2v1h-2z"/></g><g fill="#ff0"><path d="M21 9h1v1h-1zm-2 3h2v1h-2z"/><path d="M21 11h1v1h-1zm-3 0h1v1h-1zm0-2h1v1h-1zm7-5v1H15V4h-3v14h16V4h-3zm-2 4v1h1v6h-1v-1h-1v1h-1v-1h-2v1h-1v-1h-1v1h-1V9h1V8h1V7h4v1h1z"/></g><path d="M23 9V8h-1V7h-4v1h-1v1h-1v6h1v-1h1v1h1v-1h2v1h1v-1h1v1h1V9h-1zm-1 1h-1V9h1v1zm-3-1v1h-1V9h1zm0 4v-1h-1v-1h1v1h2v-1h1v1h-1v1h-2zM9 3V2H7V1H3v6h1v11h8V3z" fill="green"/></svg>