<svg xmlns="http://www.w3.org/2000/svg" viewBox="0 0 40 19"  xmlns:v="https://vecta.io/nano"><path d="M33 0v1h-2v1h-3v1h-3v1H15V3h-3V2H9V1H7V0H3v19h34V0z" fill="#d4aa00"/><g fill="#ff0"><path d="M21 9h1v1h-1V9zm-2 3h2v1h-2v-1z"/><path d="M21 11h1v1h-1v-1zm-3 0h1v1h-1v-1zm0-2h1v1h-1V9zm7-5v1H15V4h-3v14h16V4h-3zm-2 4v1h1v6h-1v-1h-1v1h-1v-1h-2v1h-1v-1h-1v1h-1V9h1V8h1V7h4v1h1z"/></g><path d="M23 9V8h-1V7h-4v1h-1v1h-1v6h1v-1h1v1h1v-1h2v1h1v-1h1v1h1V9h-1zm-5 0h1v1h-1V9zm4 3h-1v1h-2v-1h-1v-1h1v1h2v-1h1v1zm0-2h-1V9h1v1z" fill="green"/><path d="M9 2V1H7V0H3v19h9V2z" fill="#2d5016"/><path d="M9,3V2H7V1H3v6h1v11h8V3H9z" fill="green"/><path d="M33 0v1h-2v1h-3v17h9V0z" fill="#a00"/><path d="M33,1v1h-2v1h-3v15h8V7h1V1H33z" fill="red"/></svg>