<svg xmlns="http://www.w3.org/2000/svg" viewBox="0 0 36 19"><path d="M34 13V5h1V1h1V0H4v1h1v4h1v8H5v1H4v1H3v1H2v1H1v1H0v1h9v-1h2v-1h2v-1h2v-1h2v-1h2v-1z" fill="#c8c8c8"/><g fill="#2f2f2f"><path d="M1 17h1v1H1z"/><path d="M0 18h1v1H0zm2-2h1v1H2z"/><path d="M3 15h1v1H3z"/><path d="M4 14h1v1H4z"/><path d="M5 13h1v1H5z"/></g><path d="M34 12v1H19v1h-2v1h-2v1h-2v1h-2v1H9v1H1v-1h1v-1h1v-1h1v-1h1v-1h1v-2z"/><path d="M6 11h28v1H6z" fill="orange"/><path d="M33 11V5h1V1H6v4h1v6z" fill="#fff"/><path d="M7 2v1h0 0 1v1h1v1h1v4H9v1H8v1H7V8h1V6H7V5H6V2z" fill="#0000b9"/></svg>