<svg xmlns="http://www.w3.org/2000/svg" viewBox="0 0 36 19"><path d="M2 13V5H1V1H0V0h32v1h-1v4h-1v8h1v1h1v1h1v1h1v1h1v1h1v1h-9v-1h-2v-1h-2v-1h-2v-1h-2v-1h-2v-1z" fill="#c8c8c8"/><g fill="#2f2f2f"><path d="M34 17h1v1h-1z"/><path d="M35 18h1v1h-1zm-2-2h1v1h-1z"/><path d="M32 15h1v1h-1z"/><path d="M31 14h1v1h-1z"/><path d="M30 13h1v1h-1z"/></g><path d="M2 12v1h15v1h2v1h2v1h2v1h2v1h2v1h8v-1h-1v-1h-1v-1h-1v-1h-1v-1h-1v-2z"/><path d="M2 11h28v1H2z" fill="orange"/><path d="M3 11V5H2V1h28v4h-1v6z" fill="#fff"/><path d="M29 2v1h0 0-1v1h-1v1h-1v4h1v1h1v1h1V8h-1V6h1V5h1V2z" fill="#0000b9"/></svg>