<svg xmlns="http://www.w3.org/2000/svg" viewBox="0 0 46 20"><path d="M6 12v2h1v1h1v1h1v1h1v1h1v1h3v1h18v-1h3v-1h1v-1h1v-1h1v-1h1v-1h1v-2z"/><path d="M4 12v-2H2V8H0V6h4V4h4V2h4V0h22v2h4v2h4v2h4v2h-2v2h-2v2z" fill="#fff"/><g fill="#c8c8c8"><path d="M1,7V6H0v2h2V7H1z"/><path d="M3,9V8H2v2h2V9H3z"/><path d="M5 10H4v2h2v-1H5v-1zm36 1h-1v1h2v-2h-1v1zm4-5v1h-1v1h2V6h-1z"/><path d="M43,9h-1v1h2V8h-1V9z"/></g><g fill="#2f2f2f"><path d="M10 17h1v1h-1v-1zm25 0h1v1h-1v-1z"/><path d="M11 18h1v1h-1v-1zm23 0h1v1h-1v-1zM8 15h1v1H8v-1z"/><path d="M7,14h1v1H7V14z"/><path d="M7 12H6v2h1v-2zm31 2h1v1h-1v-1z"/><path d="M39 12v2h1v-2h-1zm-2 3h1v1h-1v-1z"/><path d="M9 16h1v1H9v-1zm27 0h1v1h-1v-1z"/></g><path d="M27 4V3h-1V2h-1V1h-4v1h-1v1h-1v1h-1v4h1v1h1v1h1v1h4v-1h1V9h1V8h1V4h-1zm-3-1v1h1v1h1v2h-1v1h-1v1h-2V8h-1V7h-1V5h1V4h1V3h2z" fill="#0000b9"/><path d="M6,11v1h34v-1H6z" fill="orange"/></svg>