<svg xmlns="http://www.w3.org/2000/svg" viewBox="0 0 10 28"><path d="M5 1v1H0v9h5v-1h4.5V1z" fill="green"/><path d="M5 1h1v9H5z" fill="#2d5016"/><g fill="#ffb81c"><path d="M6,6h1v1H6V6z"/><path d="M7,7h1v1H7V7z"/><path d="M8 8h1v1H8V8zM4 6h1v1H4V6z"/><path d="M3,7h1v1H3V7z"/><path d="M2,8h1v1H2V8z"/><path d="M1,9h1v1H1V9z"/><path d="M0 10h1v1H0v-1zm6-6h1v1H6V4z"/><path d="M7,3h1v1H7V3z"/><path d="M8 2h1v1H8V2zM0 2h1v1H0V2zm3 3h1v1H3V5z"/><path d="M2,4h1v1H2V4z"/><path d="M1,3h1v1H1V3z"/></g><path d="M8 3v1H7v1H6v1h1v1h1v1h1V3H8zM3 5H2V4H1V3H0v7h1V9h1V8h1V7h1V6H3V5z"/><path d="M5,5h1v1H5V5z" fill="#d4aa00"/><path d="M9,0h1v28H9V0z" fill="gray"/><path d="M9,0h1v1H9V0z" fill="#4d4d4d"/></svg>