<svg xmlns="http://www.w3.org/2000/svg" viewBox="0 0 10 28"><path d="M.5 1v9H5v1h5V2H5V1H.5z" fill="green"/><path d="M5 10H4V1h1v9z" fill="#2d5016"/><g fill="#ffb81c"><path d="M4,7H3V6h1V7z"/><path d="M3,8H2V7h1V8z"/><path d="M2 9H1V8h1v1zm4-2H5V6h1v1z"/><path d="M7,8H6V7h1V8z"/><path d="M8,9H7V8h1V9z"/><path d="M9 10H8V9h1v1z"/><path d="M10 11H9v-1h1v1zM4 5H3V4h1v1z"/><path d="M3,4H2V3h1V4z"/><path d="M2 3H1V2h1v1zm8 0H9V2h1v1zM7 6H6V5h1v1z"/><path d="M8,5H7V4h1V5z"/><path d="M9,4H8V3h1V4z"/></g><path d="M1 3v5h1V7h1V6h1V5H3V4H2V3H1zm6 3H6v1h1v1h1v1h1v1h1V3H9v1H8v1H7v1z"/><path d="M5,6H4V5h1V6z" fill="#d4aa00"/><path d="M1,28H0V0h1V28z" fill="gray"/><path d="M1,1H0V0h1V1z" fill="#4d4d4d"/></svg>