<svg xmlns="http://www.w3.org/2000/svg" viewBox="0 0 10 28"  xmlns:v="https://vecta.io/nano"><path d="M9 0h1v1H9z" fill="#4d4d4d"/><path d="M9 1h1v27H9z" fill="gray"/><g fill="#ffb81c"><path d="M6 6h1v1H6z"/><path d="M7 7h1v1H7z"/><path d="M8 8h1v1H8z"/></g><path d="M5 5h1v1H5z" fill="#d4aa00"/><g fill="#ffb81c"><path d="M4 6h1v1H4z"/><path d="M3 7h1v1H3z"/><path d="M2 8h1v1H2z"/><path d="M1 9h1v1H1z"/><path d="M0 10h1v1H0z"/></g><path d="M5 1h1v4H5zm0 5h1v4H5z" fill="#2d5016"/><path d="M6 1v3h1V3h1V2h1V1zm2 7H7V7H6v3h3V9H8zM4 8H3v1H2v1H1v1h4V7H4zM1 2v1h1v1h1v1h1v1h1V2z" fill="green"/><g fill="#ffb81c"><path d="M6 4h1v1H6z"/><path d="M7 3h1v1H7z"/><path d="M8 2h1v1H8zM0 2h1v1H0zm3 3h1v1H3z"/><path d="M2 4h1v1H2z"/><path d="M1 3h1v1H1z"/></g><path d="M8 3v1H7v1H6v1h1v1h1v1h1V3z" fill="#28170b"/><path d="M3 5H2V4H1V3H0v7h1V9h1V8h1V7h1V6H3z"/></svg>