<svg xmlns="http://www.w3.org/2000/svg" viewBox="0 0 24 34"><path d="M.998 8V6h2V4h2V2h4V0h6v2h4v2h2v2h2v2h1v22h-8v-2h-8v2h-3v2h-1v1h-2v1h-2v-5h3v-1h1v-1h2V13h-2v-1h-1v-1h-3V8h1z" fill="#d8d800"/><g transform="translate(8.998 25)"><linearGradient id="A" gradientUnits="userSpaceOnUse" x1="-2163.009" y1="-406.199" x2="-2139.009" y2="-406.199" gradientTransform="matrix(3.928500e-11 -0.875 -0.2727 -1.224500e-11 -116.2686 -1886.6331)"><stop offset="0" stop-color="#e3dedb"/><stop offset="1" stop-color="#e3dedb" stop-opacity="0"/></linearGradient><path d="M-3 2h1v-18h-7V5h3V4h1V3h2z" fill="url(#A)"/><path d="M1-24v1H0v1h-3v1h-1v1h-1v1h-1v1h-1v1h-1v2h2v1h1v1h2v1h1V1v1h-1v1h-2v1h-1v1h-2v3h1V7h2V5h1V4h2V3h1V2h9v2h6v-21h-1v-1h-1v-1h-1v-1h-1v-1H9v-1H6v-1H5v-1H1z" fill="#ff0"/><path d="M-6-15v1h-3v-1h3zm1 1v1h-1v-1h1zm2 1v1h-2v-1h2zm1 1V2h-1v-14h1zM-3 3h-2V2h2v1zm-2 1h-1V3h1v1zm-1 1h-3V4h3v1z"/></g></svg>