<svg xmlns="http://www.w3.org/2000/svg" viewBox="0 0 24 34"><path d="M23,8V6h-2V4h-2V2h-4V0H9v2H5v2H3v2H1v2H0v22h8v-2h8v2h3v2h1v1h2v1h2v-5h-3v-1h-1v-1h-2V13h2v-1h1v-1h3V8H23z" fill="#d8d800"/><g transform="translate(8.998 25)"><linearGradient id="A" gradientUnits="userSpaceOnUse" x1="-2899.953" y1="-4686.707" x2="-2877.095" y2="-4686.707" gradientTransform="matrix(0 -0.875 -0.2727 0 -1266.5652 -2531.5063)"><stop offset="0" stop-color="#e3dedb"/><stop offset="1" stop-color="#e3dedb" stop-opacity="0"/></linearGradient><path d="M9 2H8v-14h1v-1h2v-1h1v-1h3V5h-3V4h-1V3H9V2z" fill="url(#A)"/><path d="M5-24v1h1v1h3v1h1v1h1v1h1v1h1v1h1v2h-2v1h-1v1H9v1H8V1v1h1v1h2v1h1v1h2v3h-1V7h-2V5h-1V4H8V3H7V2h-9v2h-6v-21h1v-1h1v-1h1v-1h1v-1h1v-1h3v-1h1v-1h4z" fill="#ff0"/><path d="M15-15v1h-3v-1h3zm-3 1v1h-1v-1h1zm-1 1v1H9v-1h2zm-2 1V2H8v-14h1zM9 2h2v1H9V2zm2 1h1v1h-1V3zm1 1h3v1h-3V4z"/></g></svg>