<svg xmlns="http://www.w3.org/2000/svg" viewBox="0 0 34 34"><linearGradient id="A" gradientUnits="userSpaceOnUse" x1="17" y1="31.624" x2="17" y2="8.796"><stop offset="0" stop-color="#e1e1e1"/><stop offset="1" stop-color="#fff" stop-opacity="0"/></linearGradient><path d="M29 13v14h-2v1h-2v1h-2v2H11v-2H9v-1H7v-1H5V13h2v-1h2v-1h2V9h12v2h2v1h2v1h2z" fill="url(#A)"/><path d="M32 8V6h-2V4h-4V2h-4V0H12v2H8v2H4v2H2v2H0v20h3v4h1v1h5v1h16v-1h5v-1h1v-4h3V8h-2zm-9 21v2H11v-2H9v-1H7v-1H5V13h2v-1h2v-1h2V9h12v2h2v1h2v1h2v14h-2v1h-2v1h-2z" fill="#d8d800"/><path d="M13 1v1h-1v1H9v1H8v1H5v1H4v1H3v1H2v1H1v17h1v1h2v4h1v1h4v1h16v-1h4v-1h1v-4h2v-1h1V9h-1V8h-1V7h-1V6h-1V5h-3V4h-1V3h-3V2h-1V1h-8zm8 9v1h1v1h3v1h2v1h1v12h-1v1h-2v1h-2v1h-2v1h-8v-1h-2v-1H9v-1H7v-1H6V14h1v-1h2v-1h3v-1h1v-1h8z" fill="#ff0"/><g fill="#fff"><path d="M24 4h1v1h-1V4zm2 1h1v1h-1V5zm2 1h1v1h-1V6z"/><path d="M28,8V7h-2V6h-2V5h-2V4h-3v1h2v1h1v1h2v1h2v1h4V8H28z"/></g><path d="M12 11h1v-1h8v1h1v1h3v-1h-2V9H11v2H9v1h3v-1zM7 27h2v1H7v-1z"/><path d="M25 12h2v1h-2v-1zm0 15h2v1h-2v-1zM6 26V14h1v-1H5v14h2v-1H6z"/><path d="M7 12h2v1H7v-1zm2 16h2v1H9v-1z"/><path d="M27 13v1h1v12h-1v1h2V13h-2zm-6 17h-8v-1h-2v2h12v-2h-2v1z"/><path d="M23,28h2v1h-2V28z"/></svg>