<svg xmlns="http://www.w3.org/2000/svg" viewBox="0 0 24 34"><linearGradient id="A" gradientUnits="userSpaceOnUse" x1="-2890.955" y1="-4661.722" x2="-2868.097" y2="-4661.722" gradientTransform="matrix(3.928452e-11 -0.875 0.2727 1.224330e-11 1274.7498 -2498.6331)"><stop offset="0" stop-color="#e3dedb"/><stop offset="1" stop-color="#e3dedb" stop-opacity="0"/></linearGradient><path d="M6 28H4v1H3v1H0V10h3v1h1v1h2v1h1v14H6v1z" fill="url(#A)"/><path d="M1 8V6h2V4h2V2h4V0h6v2h4v2h2v2h2v2h1v22h-8v-2H8v2H5v2H4v1H2v1H0v-5h3v-1h1v-1h2V13H4v-1H3v-1H0V8h1z" fill="#d8d800"/><path d="M9.998 1v1h-1v1h-3v1h-1v1h-1v1h-1v1h-1v1h-1v2h2v1h1v1h2v1h1v13 1h-1v1h-2v1h-1v1h-2v3h1v-1h2v-2h1v-1h2v-1h1v-1h9v2h6V8h-1V7h-1V6h-1V5h-1V4h-1V3h-3V2h-1V1h-4z" fill="#ff0"/><path d="M2.998 10v1h-3v-1h3zm1 1v1h-1v-1h1zm2 1v1h-2v-1h2zm1 1v14h-1V13h1zm-1 15h-2v-1h2v1zm-2 1h-1v-1h1v1zm-1 1h-3v-1h3v1z"/></svg>