<svg xmlns="http://www.w3.org/2000/svg" viewBox="0 0 34 34"  xmlns:v="https://vecta.io/nano"><path d="M12.98 1v1h-1v1h-3v1h-1v1h-3v1h-1v1h-1v1h-1v1h-1v17h1v1h2v4h1v1h4v1h16v-1h4v-1h1v-4h2v-1h1V9h-1V8h-1V7h-1V6h-1V5h-3V4h-1V3h-3V2h-1V1c0 0-8 0-8 0zm10 8v2h2v1h2v1h2v14h-2v1h-2v1h-2v2h-12v-2h-2v-1h-2v-1h-2V13h2v-1h2v-1h2V9h12z" fill="#ff0"/><path d="M11.98 0v2h1V1h8v1h1V0h-10zm10 2v1h3v1h1V2h-4zm4 2v1h3v1h1V4h-4zm4 2v1h1v1h1V6h-2zm2 2v1h1v17h-1v1h-2v4h-1v1h-4v1h5v-1h1v-4h3V8c0 0-2 0-2 0zm-7 25h-16v1h16v-1zm-16 0v-1h-4v-1h-1v-4h-2v-1h-1V9h1V8h-2v20h3v4h1v1h5zm-7-25h1V7h1V6h-2v2zm2-2h1V5h3V4h-4v2zm4-2h1V3h3V2h-4v2z" fill="#d8d800"/><g fill="#fff"><path d="M23.98 4h1v1h-1zm2 1h1v1h-1zm2 1h1v1h-1z"/><path d="M27.98 8V7h-2V6h-2V5h-2V4h-3v1h2v1h1v1h2v1h2v1h4V8z"/></g><path d="M12 12v-1h1v-1h8v1h1v1h3v-1h-2V9H11v2H9v1z"/><path d="M25 12h2v1h-2zM7 27h2v1H7z"/><path d="M6 26V14h1v-1h2v-1H7v1H5v14h2v-1zm19 1h2v1h-2z"/><path d="M9 28h2v1H9zm18-15v1h1v12h-1v1h2V13z"/><path d="M23 29h-2v1h-8v-1h-2v2h12v-2h2v-1h-2z"/><linearGradient id="A" gradientUnits="userSpaceOnUse" x1="17.02" y1="30.567" x2="17.02" y2="9.815"><stop offset="0" stop-color="#e1e1e1"/><stop offset="1" stop-color="#fff" stop-opacity="0"/></linearGradient><path d="M13 11v-1h8v1h1v1h3v1h2v1h1v12h-1v1h-2v1h-2v1h-2v1h-8v-1h-2v-1H9v-1H7v-1H6V14h1v-1h2v-1h3v-1z" fill="url(#A)"/></svg>