<svg xmlns="http://www.w3.org/2000/svg" viewBox="0 0 50 24"  xmlns:v="https://vecta.io/nano"><path d="M7.98 3v6h1v13h3v-2h5v2h5v-2h6v2h5v-2h5v2h3V9h1V3h-3v4h-1v1h-5v1h-7v9h-2V9h-7V8h-5V7h-1V3h-3z" fill="#ff0"/><path d="M30.98 9h5v5h-5z" fill="#f60"/><path d="M31.98 10v1h1v-1h-1zm1 1v1h1v-1h-1zm1 0h1v-1h-1v1zm0 1v1h1v-1h-1zm-1 0h-1v1h1v-1z" fill="#fff"/><path d="M11.98 20v2h5v-2h-5zm5 2v2h5v-2h-5zm5 0h6v-2h-6v2zm6 0v2h5v-2h-5zm5 0h5v-2h-5v2zm-25 1v1h4v-1h-4zm30 0v1h4v-1h-4z"/><path d="M7.98 2v1h3v4h1v1h5V7h-4V6h-1V2h-4zm9 6v1h16V8h-16zm16 0h5V7h1V3h3V2h-4v4h-1v1h-4v1zm-25 1v14h4v-1h-3V9h-1zm33 0v13h-3v1h4V9h-1z" fill="#d8d800"/><g fill="#252525"><path d="M24 9h1v1h-1z"/><path d="M25 10h1v1h-1z"/><path d="M24 11h1v1h-1z"/><path d="M25 12h1v1h-1z"/><path d="M24 13h1v1h-1z"/><path d="M25 14h1v1h-1z"/><path d="M24 15h1v1h-1z"/><path d="M25 16h1v1h-1z"/><path d="M24 17h1v1h-1z"/></g><path d="M25 9h1v1h-1z"/><path d="M24 10h1v1h-1z"/><path d="M25 11h1v1h-1z"/><path d="M24 12h1v1h-1z"/><path d="M25 13h1v1h-1z"/><path d="M24 14h1v1h-1z"/><path d="M25 15h1v1h-1zm0 2h1v1h-1z"/><path d="M24 16h1v1h-1z"/></svg>