<svg xmlns="http://www.w3.org/2000/svg" viewBox="0 0 50 24"><path d="M38 2v2H12V2H7.5v1H8v21h4v-2h5v2h5v-2h6v2h5v-2h5v2h4V3h.5V2H38z" fill="#d8d800"/><path d="M39,3v2H11V3H7.5v7H9v12h24v-2h5v2h3V10h1.5V3H39z" fill="#ff0"/><path d="M17 22h5v2h-5v-2zm11 0h5v2h-5v-2z"/><path d="M8 23h4v1H8v-1zm14-3h6v2h-6v-2zm16 3h4v1h-4v-1zm-5-3h5v2h-5v-2zm-21 0h5v2h-5v-2z"/><path d="M29,8V7h-1V6h-1V5h-4v1h-1v1h-1v1h-1v11h1v1h8v-1h1V8H29z" fill="#333"/><path d="M21,8h8v11h-8V8z" fill="#4d4d4d"/><path d="M22,7h6v12h-6V7z" fill="#666"/><path d="M23,6h4v13h-4V6z" fill="#999"/><path d="M24,6v13h2V6H24z" fill="#d3d3d3"/></svg>