<svg xmlns="http://www.w3.org/2000/svg" viewBox="0 0 50 24"><path d="M38,2v4h-1v1h-4v1H17V7h-4V6h-1V2H8v22h4v-2h5v2h5v-2h6v2h5v-2h5v2h4V2H38z" fill="#ff0"/><path d="M31,9h5v5h-5V9z" fill="#f60"/><path d="M32 10v1h1v-1h-1zm1 1v1h1v-1h-1zm1 0h1v-1h-1v1zm0 1v1h1v-1h-1zm-1 0h-1v1h1v-1z" fill="#fff"/><path d="M12 20v2h5v-2h-5zm5 2v2h5v-2h-5zm5 0h6v-2h-6v2zm6 0v2h5v-2h-5zm5 0h5v-2h-5v2zM8 23v1h4v-1H8zm30 0v1h4v-1h-4z"/><path d="M8 2v1h3v4h1v1h5V7h-4V6h-1V2H8zm9 6v1h16V8H17zm16 0h5V7h1V3h3V2h-4v4h-1v1h-4v1zM8 9v14h4v-1H9V9H8zm33 0v13h-3v1h4V9h-1z" fill="#d8d800"/><path d="M24 9h2v9h-2z"/><g fill="#252525"><path d="M24,9h1v1h-1V9z"/><path d="M25,10h1v1h-1V10z"/><path d="M24,11h1v1h-1V11z"/><path d="M25,12h1v1h-1V12z"/><path d="M24,13h1v1h-1V13z"/><path d="M25,14h1v1h-1V14z"/><path d="M24,15h1v1h-1V15z"/><path d="M25,16h1v1h-1V16z"/><path d="M24,17h1v1h-1V17z"/></g></svg>