<svg xmlns="http://www.w3.org/2000/svg" viewBox="0 0 31 27"><path d="M2 11v-1h2V8h1V7h2V6h1V5h9v2h7v4h1V9h1V8h3v1h1v2h1v11h-1v1h-5v-1h-1v5h-3v-2h-3v2h-4v-2h-4v2H6v-2H3v2H0V11h2z" fill="#d8d800"/><g transform="matrix(-1 0 0 1 46 13)"><path d="M30-5h-7v17h2v-2h3v2h17V-1h-1v-1h-2v-1h-1v-2h-3v-2h-8v2z" fill="#ff0"/><path d="M40 10v2h3v-2h-3zm-4 2v2h4v-2h-4zm0-2h-4v2h4v-2zm-8 2v2h4v-2h-4zm0-2h-3v2h3v-2zm15 3v1h3v-1h-3zm-21 0v1h3v-1h-3z"/></g><path d="M25 11V9h1V8h3v1h1v2h1v11h-1v1h-5v-1h-1V11h1z" fill="#1a1a1a"/><path d="M26 9v2h-1v11h5V11h-1V9h-2-1z" fill="#333"/><path d="M29,11h1v11h-1V11z" fill="#999"/><path d="M28,9h1v13h-1V9z" fill="#666"/><path d="M27,9h1v13h-1V9z" fill="#4d4d4d"/><path d="M1,12h1v4H1V12z" fill="#f60"/></svg>