<svg xmlns="http://www.w3.org/2000/svg" viewBox="0 0 31 22"><path d="M2 6V5h2V3h1V2h2V1h1V0h9v2h7v4h1V4h1V3h3v1h1v2h1v11h-1v1h-5v-1h-1v5h-3v-2h-3v2h-4v-2h-4v2H6v-2H3v2H0V6h2z" fill="#d8d800"/><g transform="matrix(-1 0 0 1 46 13)"><path d="M30-10h-7V7h2V5h3v2h17V-6h-1v-1h-2v-1h-1v-2h-3v-2h-8v2z" fill="#ff0"/><path d="M40 5v2h3V5h-3zm-4 2v2h4V7h-4zm0-2h-4v2h4V5zm-8 2v2h4V7h-4zm0-2h-3v2h3V5zm15 3v1h3V8h-3zM22 8v1h3V8h-3z"/></g><path d="M25 6V4h1V3h3v1h1v2h1v11h-1v1h-5v-1h-1V6h1z" fill="#1a1a1a"/><path d="M26 4v2h-1v11h5V6h-1V4h-2-1z" fill="#333"/><path d="M29 6h1v11h-1z" fill="#999"/><path d="M28 4h1v13h-1z" fill="#666"/><path d="M27 4h1v13h-1z" fill="#4d4d4d"/><path d="M1 7h1v4H1V7z" fill="#f60"/></svg>