<svg xmlns="http://www.w3.org/2000/svg" viewBox="0 0 31 22"><path d="M29 6V5h-2V3h-1V2h-2V1h-1V0h-9v2H7v4H6V4H5V3H2v1H1v2H0v11h1v1h5v-1h1v5h3v-2h3v2h4v-2h4v2h4v-2h3v2h3V6h-2z" fill="#d8d800"/><g transform="matrix(-1 0 0 1 46 13)"><path d="M31-12h-8v2h-3v2h-1v1h-2v1h-1V7h17V5h3v2h2v-17h-7v-2z" fill="#ff0"/><path d="M18 5v2h3V5h-3zm3 2v2h4V7h-4zm4 0h4V5h-4v2zm4 0v2h4V7h-4zm4 0h3V5h-3v2zM15 8v1h3V8h-3zm21 0v1h3V8h-3z"/></g><path d="M6 6V4H5V3H2v1H1v2H0v11h1v1h5v-1h1V6H6z" fill="#1a1a1a"/><path d="M5,4v2h1v11H1V6h1V4h2H5z" fill="#333"/><path d="M1 6h1v11H1z" fill="#999"/><path d="M2 4h1v13H2z" fill="#666"/><path d="M3 4h1v13H3z" fill="#4d4d4d"/></svg>