<svg xmlns="http://www.w3.org/2000/svg" viewBox="0 0 34 22"><path d="M30 0v2H4V0H0v22h4v-2h5v2h5v-2h6v2h5v-2h5v2h4V0h-4z" fill="#d8d800"/><path d="M31 1v2H3V1H0v7h1v12h24v-2h5v2h3V8h1V1h-3z" fill="#ff0"/><path d="M9 20h5v2H9zm11 0h5v2h-5z"/><path d="M0 21h4v1H0zm14-3h6v2h-6zm16 3h4v1h-4zm-5-3h5v2h-5zM4 18h5v2H4z"/><path d="M21 6V5h-1V4h-1V3h-4v1h-1v1h-1v1h-1v11h1v1h8v-1h1V6h-1z" fill="#333"/><path d="M13 6h8v11h-8z" fill="#4d4d4d"/><path d="M14 5h6v12h-6z" fill="#666"/><path d="M15 4h4v13h-4z" fill="#999"/><path d="M16 4v13h2V4h-2z" fill="#d3d3d3"/></svg>