<svg xmlns="http://www.w3.org/2000/svg" viewBox="0 0 31 27"><path d="M29 11v-1h-2V8h-1V7h-2V6h-1V5h-9v2H7v4H6V9H5V8H2v1H1v2H0v11h1v1h5v-1h1v5h3v-2h3v2h4v-2h4v2h4v-2h3v2h3V11h-2z" fill="#d8d800"/><g transform="matrix(-1 0 0 1 46 13)"><path d="M31-7h-8v2h-3v2h-1v1h-2v1h-1v13h17v-2h3v2h2V-5h-7V-7z" fill="#ff0"/><path d="M18 10v2h3v-2h-3zm3 2v2h4v-2h-4zm4 0h4v-2h-4v2zm4 0v2h4v-2h-4zm4 0h3v-2h-3v2zm-18 1v1h3v-1h-3zm21 0v1h3v-1h-3z"/></g><path d="M6,11V9H5V8H2v1H1v2H0v11h1v1h5v-1h1V11H6z" fill="#1a1a1a"/><path d="M5,9v2h1v11H1V11h1V9h2H5z" fill="#333"/><path d="M1,11h1v11H1V11z" fill="#999"/><path d="M2,9h1v13H2V9z" fill="#666"/><path d="M3,9h1v13H3V9z" fill="#4d4d4d"/></svg>