<svg xmlns="http://www.w3.org/2000/svg" viewBox="0 0 24 18"><style><![CDATA[.H{fill:#e8dc21}.I{fill:#2234cb}.J{fill:#d322e8}.K{fill:#8a22b4}.L{fill:#1ce4a3}.M{fill:#f122ad}.N{fill:#ba911c}]]></style><path d="M24 18H0V0h17v1h2v1h2v1h2v1h1z" fill="#c5221c"/><path d="M24 5h-1V4h-2V3h-2V2h-2V1H1v16h23V5zm-2 4h-4V8h4v1zM5 12h1v1H5v-1z" fill="#f1221c"/><g fill="#36622e"><path d="M4 8H3v1H2v1h2V9h1V7H4z"/><path d="M5 6h1v1H5zM3 6h1v1H3z"/></g><g fill="#5f7c22"><path d="M4 8h1v1H4z"/><path d="M3 9h1v1H3zm0-3h1v1H3z"/></g><path d="M17 5V4h-1v3h2V5z" fill="#367f2e"/><g fill="#36a72e"><path d="M16 6h1v1h-1zm0-2h1v1h-1z"/><path d="M17 5h1v1h-1z"/></g><path d="M13 5V4h1v3h-2V5z" fill="#367f2e"/><g fill="#36a72e"><path d="M13 6h1v1h-1zm0-2h1v1h-1z"/><path d="M12 5h1v1h-1z"/></g><g fill="#369c2e"><path d="M22 9h1v1h-1z"/><path d="M20 11h-1v2h2v-1h1v-2h-2z"/></g><g fill="#5f7c35"><path d="M19 11h1v1h-1z"/><path d="M20 12h1v1h-1zm0-2h1v1h-1z"/><path d="M21 11h1v1h-1z"/></g><g fill="#369c2e"><path d="M7 9h1v1H7z"/><path d="M10 11h1v2H9v-1H8v-2h2z"/></g><g fill="#5f7c35"><path d="M10 11h1v1h-1z"/><path d="M10 12H9v1h1v-1m-1-2h1v1H9z"/><path d="M8 11h1v1H8z"/></g><path d="M10 3h1v1h-1z" class="H"/><path d="M9 4h1v1H9z" class="I"/><path d="M6 4h1v1H6z" class="J"/><path d="M5 13h1v1H5z" class="H"/><path d="M1 13h1v1H1zm0-2h1v1H1z" fill="#a322d4"/><path d="M11 2h1v1h-1z" class="I"/><path d="M13 10h1v1h-1z" fill="#1c62a3"/><path d="M9 2h1v1H9z" class="I"/><g class="J"><path d="M7 3h1v1H7z"/><path d="M6 2h1v1H6z"/></g><path d="M5 11h1v1H5z" class="H"/><path d="M12 11h1v1h-1z" class="L"/><path d="M11 4h1v1h-1z" class="I"/><path d="M12 9h1v1h-1z" class="L"/><path d="M5 3h1v1H5z" class="J"/><g class="H"><path d="M1 4h1v1H1z"/><path d="M2 3h1v1H2z"/><path d="M1 2h1v1H1zm3 10h1v1H4zm2 0h1v1H6z"/></g><path d="M10 14h1v1h-1zm-2 0h1v1H8z" class="K"/><path d="M9 15h1v1H9z" fill="#cec81c"/><path d="M10 16h1v1h-1zm-2 0h1v1H8z" class="K"/><path d="M19 3h1v1h-1z" class="H"/><path d="M20 4h1v1h-1z" class="I"/><path d="M20 7h1v1h-1z" class="M"/><path d="M21 7h1v1h-1z" fill="#8a22a0"/><g class="M"><path d="M21 6h1v1h-1z"/><path d="M22 7h1v1h-1z"/></g><path d="M14 1h2v1h-2z" fill="#b782c2"/><path d="M18 2h1v1h-1z" class="I"/><path d="M16 13h1v1h-1z" class="N"/><path d="M17 11h1v1h-1z" class="H"/><path d="M18 4h1v1h-1z" class="I"/><path d="M17 9h1v1h-1zm6 3h1v1h-1z" class="H"/><path d="M19 14h1v1h-1zm2 0h1v1h-1z" class="K"/><path d="M20 15h1v1h-1z" fill="#cec81c"/><path d="M16 15h1v1h-1z" class="N"/><path d="M19 16h1v1h-1zm2 0h1v1h-1z" class="K"/><path d="M14 11h1v1h-1zm0-2h1v1h-1z" class="L"/><path d="M5 16v-1H3v2h3v-1z" fill="#18742e"/><g fill="#0e982e"><path d="M4 15h1v1H4z"/><path d="M3 16h1v1H3zm2 0h1v1H5z"/></g><path d="M14 14v-1h-1v1h-1v1h1v1h1v-1h1v-1z" class="J"/><path d="M13 14h1v1h-1z" class="N"/><path d="M9 7V6H8v1H7v1h1v1h1V8h1V7z" class="M"/><path d="M8 7h1v1H8z" fill="#8a22a0"/></svg>