<svg xmlns="http://www.w3.org/2000/svg" viewBox="0 0 24 19"><style><![CDATA[.W{fill:#e8dc21}.X{fill:#2234cb}.Y{fill:#d322e8}.Z{fill:#8a22b4}.a{fill:#1ce4a3}.b{fill:#f122ad}.c{fill:#ba911c}]]></style><path d="M0 5h1V4h2V3h2V2h2V1h17v18H0V5z" fill="#c5221c"/><path d="M0 18h23V2H7v1H5v1H3v1H1v1H0v12zm2-9h4v1H2V9zm17 5h-1v-1h1v1z" fill="#f1221c"/><g fill="#36622e"><path d="M20,8h-1v2h1v1h2v-1h-1V9h-1V8z"/><path d="M19 8h-1V7h1v1zm2 0h-1V7h1v1z"/></g><g fill="#5f7c22"><path d="M20 10h-1V9h1v1z"/><path d="M21 11h-1v-1h1v1zm0-3h-1V7h1v1z"/></g><path d="M6,6v2h2V5H7v1H6z" fill="#367f2e"/><g fill="#36a72e"><path d="M8 8H7V7h1v1zm0-2H7V5h1v1z"/><path d="M7,7H6V6h1V7z"/></g><path d="M12 6v2h-2V5h1v1h1z" fill="#367f2e"/><g fill="#36a72e"><path d="M11 8h-1V7h1v1zm0-2h-1V5h1v1z"/><path d="M12,7h-1V6h1V7z"/></g><g fill="#369c2e"><path d="M2 11H1v-1h1v1z"/><path d="M4,11H2v2h1v1h2v-2H4V11z"/></g><g fill="#5f7c35"><path d="M5 13H4v-1h1v1z"/><path d="M4 14H3v-1h1v1zm0-2H3v-1h1v1z"/><path d="M3 13H2v-1h1v1z"/></g><g fill="#369c2e"><path d="M17 11h-1v-1h1v1z"/><path d="M14,11h2v2h-1v1h-2v-2h1V11z"/></g><g fill="#5f7c35"><path d="M14 13h-1v-1h1v1z"/><path d="M14 13v1h1v-1h-1m1-1h-1v-1h1v1z"/><path d="M16 13h-1v-1h1v1z"/></g><path d="M14,5h-1V4h1V5z" class="W"/><path d="M15,6h-1V5h1V6z" class="X"/><path d="M18,6h-1V5h1V6z" class="Y"/><path d="M19 15h-1v-1h1v1z" class="W"/><path d="M23 15h-1v-1h1v1zm0-2h-1v-1h1v1z" fill="#a322d4"/><path d="M13,4h-1V3h1V4z" class="X"/><path d="M11 12h-1v-1h1v1z" fill="#1c62a3"/><path d="M15,4h-1V3h1V4z" class="X"/><g class="Y"><path d="M17,5h-1V4h1V5z"/><path d="M18,4h-1V3h1V4z"/></g><path d="M19 13h-1v-1h1v1z" class="W"/><path d="M12 13h-1v-1h1v1z" class="a"/><path d="M13,6h-1V5h1V6z" class="X"/><path d="M12 11h-1v-1h1v1z" class="a"/><path d="M19,5h-1V4h1V5z" class="Y"/><g class="W"><path d="M23,6h-1V5h1V6z"/><path d="M22,5h-1V4h1V5z"/><path d="M23 4h-1V3h1v1zm-3 10h-1v-1h1v1zm-2 0h-1v-1h1v1z"/></g><path d="M14 16h-1v-1h1v1zm2 0h-1v-1h1v1z" class="Z"/><path d="M15 17h-1v-1h1v1z" fill="#cec81c"/><path d="M14 18h-1v-1h1v1zm2 0h-1v-1h1v1z" class="Z"/><path d="M5,5H4V4h1V5z" class="W"/><path d="M4,6H3V5h1V6z" class="X"/><path d="M4,9H3V8h1V9z" class="b"/><path d="M3,9H2V8h1V9z" fill="#8a22a0"/><g class="b"><path d="M3,8H2V7h1V8z"/><path d="M2,9H1V8h1V9z"/></g><path d="M10,3H8V2h2V3z" fill="#b782c2"/><path d="M6,4H5V3h1V4z" class="X"/><path d="M8 15H7v-1h1v1z" class="c"/><path d="M7 13H6v-1h1v1z" class="W"/><path d="M6,6H5V5h1V6z" class="X"/><path d="M7 11H6v-1h1v1zm-6 3H0v-1h1v1z" class="W"/><path d="M5 16H4v-1h1v1zm-2 0H2v-1h1v1z" class="Z"/><path d="M4 17H3v-1h1v1z" fill="#cec81c"/><path d="M8 17H7v-1h1v1z" class="c"/><path d="M5 18H4v-1h1v1zm-2 0H2v-1h1v1z" class="Z"/><path d="M10 13H9v-1h1v1zm0-2H9v-1h1v1z" class="a"/><path d="M18,17v1h3v-2h-2v1H18z" fill="#18742e"/><g fill="#0e982e"><path d="M20 17h-1v-1h1v1z"/><path d="M21 18h-1v-1h1v1zm-2 0h-1v-1h1v1z"/></g><path d="M9,15v1h1v1h1v-1h1v-1h-1v-1h-1v1H9z" class="Y"/><path d="M11 16h-1v-1h1v1z" class="c"/><path d="M14,8v1h1v1h1V9h1V8h-1V7h-1v1H14z" class="b"/><path d="M16,9h-1V8h1V9z" fill="#8a22a0"/></svg>