<svg xmlns="http://www.w3.org/2000/svg" viewBox="0 0 24 18"><style><![CDATA[.H{fill:#e8dc21}.I{fill:#2234cb}.J{fill:#d322e8}.K{fill:#8a22b4}.L{fill:#1ce4a3}.M{fill:#f122ad}.N{fill:#ba911c}]]></style><path d="M0 18h24V0H7v1H5v1H3v1H1v1H0z" fill="#c5221c"/><path d="M0 17h23V1H7v1H5v1H3v1H1v1H0v12zm2-9h4v1H2V8zm17 5h-1v-1h1v1z" fill="#f1221c"/><g fill="#36622e"><path d="M20 8h1v1h1v1h-2V9h-1V7h1z"/><path d="M18 6h1v1h-1zm2 0h1v1h-1z"/></g><g fill="#5f7c22"><path d="M19 8h1v1h-1z"/><path d="M20 9h1v1h-1zm0-3h1v1h-1z"/></g><path d="M7 5V4h1v3H6V5z" fill="#367f2e"/><g fill="#36a72e"><path d="M7 6h1v1H7zm0-2h1v1H7z"/><path d="M6 5h1v1H6z"/></g><path d="M11 5V4h-1v3h2V5z" fill="#367f2e"/><g fill="#36a72e"><path d="M10 6h1v1h-1zm0-2h1v1h-1z"/><path d="M11 5h1v1h-1z"/></g><g fill="#369c2e"><path d="M1 9h1v1H1z"/><path d="M4 11h1v2H3v-1H2v-2h2z"/></g><g fill="#5f7c35"><path d="M4 11h1v1H4z"/><path d="M3 12h1v1H3zm0-2h1v1H3z"/><path d="M2 11h1v1H2z"/></g><g fill="#369c2e"><path d="M16 9h1v1h-1z"/><path d="M14 11h-1v2h2v-1h1v-2h-2z"/></g><g fill="#5f7c35"><path d="M13 11h1v1h-1z"/><path d="M14 12h1v1h-1v-1m0-2h1v1h-1z"/><path d="M15 11h1v1h-1z"/></g><path d="M13 3h1v1h-1z" class="H"/><path d="M14 4h1v1h-1z" class="I"/><path d="M17 4h1v1h-1z" class="J"/><path d="M18 13h1v1h-1z" class="H"/><path d="M22 13h1v1h-1zm0-2h1v1h-1z" fill="#a322d4"/><path d="M12 2h1v1h-1z" class="I"/><path d="M10 10h1v1h-1z" fill="#1c62a3"/><path d="M14 2h1v1h-1z" class="I"/><g class="J"><path d="M16 3h1v1h-1z"/><path d="M17 2h1v1h-1z"/></g><path d="M18 11h1v1h-1z" class="H"/><path d="M11 11h1v1h-1z" class="L"/><path d="M12 4h1v1h-1z" class="I"/><path d="M11 9h1v1h-1z" class="L"/><path d="M18 3h1v1h-1z" class="J"/><g class="H"><path d="M22 4h1v1h-1z"/><path d="M21 3h1v1h-1z"/><path d="M22 2h1v1h-1zm-3 10h1v1h-1zm-2 0h1v1h-1z"/></g><path d="M13 14h1v1h-1zm2 0h1v1h-1z" class="K"/><path d="M14 15h1v1h-1z" fill="#cec81c"/><path d="M13 16h1v1h-1zm2 0h1v1h-1z" class="K"/><path d="M4 3h1v1H4z" class="H"/><path d="M3 4h1v1H3z" class="I"/><path d="M3 7h1v1H3z" class="M"/><path d="M2 7h1v1H2z" fill="#8a22a0"/><g class="M"><path d="M2 6h1v1H2z"/><path d="M1 7h1v1H1z"/></g><path d="M8 1h2v1H8z" fill="#b782c2"/><path d="M5 2h1v1H5z" class="I"/><path d="M7 13h1v1H7z" class="N"/><path d="M6 11h1v1H6z" class="H"/><path d="M5 4h1v1H5z" class="I"/><path d="M6 9h1v1H6zm-6 3h1v1H0z" class="H"/><path d="M4 14h1v1H4zm-2 0h1v1H2z" class="K"/><path d="M3 15h1v1H3z" fill="#cec81c"/><path d="M7 15h1v1H7z" class="N"/><path d="M4 16h1v1H4zm-2 0h1v1H2z" class="K"/><path d="M9 11h1v1H9zm0-2h1v1H9z" class="L"/><path d="M19 16v-1h2v2h-3v-1z" fill="#18742e"/><g fill="#0e982e"><path d="M19 15h1v1h-1z"/><path d="M20 16h1v1h-1zm-2 0h1v1h-1z"/></g><path d="M10 14v-1h1v1h1v1h-1v1h-1v-1H9v-1z" class="J"/><path d="M10 14h1v1h-1z" class="N"/><path d="M15 7V6h1v1h1v1h-1v1h-1V8h-1V7z" class="M"/><path d="M15 7h1v1h-1z" fill="#8a22a0"/></svg>