<svg xmlns="http://www.w3.org/2000/svg" viewBox="0 0 34 18"><style><![CDATA[.I{fill:#e8dc21}.J{fill:#2234cb}.K{fill:#f122ad}.L{fill:#a322d4}.M{fill:#1ce4a3}.N{fill:#8a22b4}.O{fill:#369c2e}.P{fill:#5f7c35}]]></style><path d="M0 0h34v18H0z" fill="#1ca4b4"/><path d="M33,8h1V1H0v7h1v9h32V8z" fill="#20c7db"/><path d="M18 13h1v1h-1zm0-2h1v1h-1z" class="L"/><path d="M29 3h1v1h-1z" class="I"/><path d="M28 4h1v1h-1z" class="J"/><path d="M25 3h1v1h-1zm-1 10h1v1h-1z" class="I"/><path d="M20 13h1v1h-1zm0-2h1v1h-1z" class="L"/><path d="M19 9h1v1h-1z" class="K"/><path d="M19 12h1v1h-1z" fill="#f122a4"/><path d="M30 2h1v1h-1z" class="J"/><path d="M32 10h1v1h-1z" fill="#1c62a3"/><path d="M28 2h1v1h-1z" class="J"/><path d="M24 11h1v1h-1z" class="I"/><path d="M31 11h1v1h-1z" class="M"/><path d="M30 4h1v1h-1z" class="J"/><path d="M31 9h1v1h-1z" class="M"/><path d="M23 12h1v1h-1zm2 0h1v1h-1z" class="I"/><path d="M29 14h1v1h-1zm-2 0h1v1h-1z" class="N"/><path d="M28 15h1v1h-1z" fill="#cec81c"/><path d="M32 13v1h-1v1h1v1h1v-3z" fill="#d322e8"/><path d="M29 16h1v1h-1zm-2 0h1v1h-1z" class="N"/><path d="M15 13h1v1h-1zm0-2h1v1h-1z" class="L"/><path d="M4 3h1v1H4z" class="I"/><path d="M5 4h1v1H5z" class="J"/><g class="O"><path d="M7 3h1v1H7z"/><path d="M8 4h1v1H8z"/></g><path d="M9 13h1v1H9z" class="I"/><path d="M13 13h1v1h-1zm0-2h1v1h-1z" class="L"/><path d="M14 12h1v1h-1z" fill="#f122a4"/><path d="M14 3h1v1h-1z" class="I"/><g class="K"><path d="M11 3h1v1h-1z"/><path d="M12 4h1v1h-1z"/></g><path d="M19 3h1v1h-1z" class="I"/><g class="K"><path d="M21 4h1v1h-1z"/><path d="M22 3h1v1h-1z"/></g><path d="M3 2h1v1H3z" class="J"/><path d="M1 10h1v1H1z" fill="#1c62a3"/><path d="M5 2h1v1H5z" class="J"/><path d="M9 2h1v1H9z" class="I"/><path d="M16 1h2v1h-2z" class="O"/><path d="M9 11h1v1H9zm5-4h1v1h-1zm5 0h1v1h-1z" class="I"/><path d="M14 9h1v1h-1z" class="K"/><path d="M2 11h1v1H2z" class="M"/><path d="M3 4h1v1H3z" class="J"/><path d="M2 9h1v1H2z" class="M"/><path d="M10 12h1v1h-1zm-2 0h1v1H8z" class="I"/><path d="M4 14h1v1H4zm2 0h1v1H6z" class="N"/><path d="M5 15h1v1H5z" fill="#cec81c"/><path d="M4 16h1v1H4zm2 0h1v1H6z" class="N"/><path d="M2 5V4H1v3h2V5z" fill="#367f2e"/><g fill="#36a72e"><path d="M1 6h1v1H1zm0-2h1v1H1z"/><path d="M2 5h1v1H2z"/></g><g class="O"><path d="M26 9h1v1h-1z"/><path d="M29 11h1v2h-2v-1h-1v-2h2z"/></g><g class="P"><path d="M29 11h1v1h-1z"/><path d="M28 12h1v1h-1zm0-2h1v1h-1z"/><path d="M27 11h1v1h-1z"/></g><g class="O"><path d="M7 9h1v1H7z"/><path d="M5 11H4v2h2v-1h1v-2H5z"/></g><g class="P"><path d="M4 11h1v1H4z"/><path d="M5 12h1v1H5v-1m0-2h1v1H5z"/><path d="M6 11h1v1H6z"/></g><path d="M10 16v-1h2v2H9v-1z" fill="#18742e"/><g fill="#0e982e"><path d="M10 15h1v1h-1z"/><path d="M11 16h1v1h-1zm-2 0h1v1H9z"/></g><path d="M32 5V4h1v3h-2V5z" fill="#367f2e"/><g fill="#36a72e"><path d="M32 6h1v1h-1zm0-2h1v1h-1z"/><path d="M31 5h1v1h-1z"/></g><path d="M24 16v-1h-2v2h3v-1z" fill="#18742e"/><g fill="#0e982e"><path d="M23 15h1v1h-1z"/><path d="M22 16h1v1h-1zm2 0h1v1h-1z"/></g><g fill="#36622e"><path d="M9 6h1v1H9z"/><path d="M12 8h1v2h-2V9h-1V7h2z"/></g><g class="P"><path d="M12 8h1v1h-1z"/><path d="M11 9h1v1h-1zm0-2h1v1h-1z"/><path d="M10 8h1v1h-1z"/></g><g fill="#36622e"><path d="M24 6h1v1h-1z"/><path d="M22 8h-1v2h2V9h1V7h-2z"/></g><g class="P"><path d="M21 8h1v1h-1z"/><path d="M22 9h1v1h-1zm0-2h1v1h-1z"/><path d="M23 8h1v1h-1z"/></g><path d="M27 7V6h1v1h1v1h-1v1h-1V8h-1V7z" class="K"/><path d="M27 7h1v1h-1z" fill="#8a22a0"/><path d="M6 7V6h1v1h1v1H7v1H6V8H5V7z" class="K"/><path d="M6 7h1v1H6z" fill="#8a22a0"/><path d="M19 16v-1h-1v2h2v-1z" fill="#6822bc"/><path d="M18 16h1v1h-1z" fill="#84861c"/><path d="M15 16v-1h1v2h-2v-1z" fill="#6822bc"/><path d="M15 16h1v1h-1z" fill="#84861c"/><path d="M32 14h1v1h-1z" fill="#ba911c"/><path d="M2 16v-1h1v-1H2v-1H1v3z" fill="#d322e8"/><path d="M1 14h1v1H1z" fill="#ba911c"/></svg>