<svg xmlns="http://www.w3.org/2000/svg" viewBox="0 0 40 19"><style><![CDATA[.I{fill:#e8dc21}.J{fill:#2234cb}.K{fill:#f122ad}.L{fill:#a322d4}.M{fill:#1ce4a3}.N{fill:#8a22b4}.O{fill:#369c2e}.P{fill:#5f7c35}]]></style><path d="M3,1h34v18H3V1z" fill="#1ca4b4"/><path d="M36,9h1V2H3v7h1v9h32V9z" fill="#20c7db"/><path d="M21 14h1v1h-1v-1zm0-2h1v1h-1v-1z" class="L"/><path d="M32,4h1v1h-1V4z" class="I"/><path d="M31,5h1v1h-1V5z" class="J"/><path d="M28 4h1v1h-1V4zm-1 10h1v1h-1v-1z" class="I"/><path d="M23 14h1v1h-1v-1zm0-2h1v1h-1v-1z" class="L"/><path d="M22,10h1v1h-1V10z" class="K"/><path d="M22,13h1v1h-1V13z" fill="#f122a4"/><path d="M33,3h1v1h-1V3z" class="J"/><path d="M35,11h1v1h-1V11z" fill="#1c62a3"/><path d="M31,3h1v1h-1V3z" class="J"/><path d="M27,12h1v1h-1V12z" class="I"/><path d="M34,12h1v1h-1V12z" class="M"/><path d="M33,5h1v1h-1V5z" class="J"/><path d="M34,10h1v1h-1V10z" class="M"/><path d="M26 13h1v1h-1v-1zm2 0h1v1h-1v-1z" class="I"/><path d="M32 15h1v1h-1v-1zm-2 0h1v1h-1v-1z" class="N"/><path d="M31,16h1v1h-1V16z" fill="#cec81c"/><path d="M35,14v1h-1v1h1v1h1v-3H35z" fill="#d322e8"/><path d="M32 17h1v1h-1v-1zm-2 0h1v1h-1v-1z" class="N"/><path d="M18 14h1v1h-1v-1zm0-2h1v1h-1v-1z" class="L"/><path d="M7,4h1v1H7V4z" class="I"/><path d="M8,5h1v1H8V5z" class="J"/><g class="O"><path d="M10,4h1v1h-1V4z"/><path d="M11,5h1v1h-1V5z"/></g><path d="M12,14h1v1h-1V14z" class="I"/><path d="M16 14h1v1h-1v-1zm0-2h1v1h-1v-1z" class="L"/><path d="M17,13h1v1h-1V13z" fill="#f122a4"/><path d="M17,4h1v1h-1V4z" class="I"/><g class="K"><path d="M14,4h1v1h-1V4z"/><path d="M15,5h1v1h-1V5z"/></g><path d="M22,4h1v1h-1V4z" class="I"/><g class="K"><path d="M24,5h1v1h-1V5z"/><path d="M25,4h1v1h-1V4z"/></g><path d="M6,3h1v1H6V3z" class="J"/><path d="M4,11h1v1H4V11z" fill="#1c62a3"/><path d="M8,3h1v1H8V3z" class="J"/><path d="M12,3h1v1h-1V3z" class="I"/><path d="M19,2h2v1h-2V2z" class="O"/><path d="M12 12h1v1h-1v-1zm5-4h1v1h-1V8zm5 0h1v1h-1V8z" class="I"/><path d="M17,10h1v1h-1V10z" class="K"/><path d="M5,12h1v1H5V12z" class="M"/><path d="M6,5h1v1H6V5z" class="J"/><path d="M5,10h1v1H5V10z" class="M"/><path d="M13 13h1v1h-1v-1zm-2 0h1v1h-1v-1z" class="I"/><path d="M7 15h1v1H7v-1zm2 0h1v1H9v-1z" class="N"/><path d="M8,16h1v1H8V16z" fill="#cec81c"/><path d="M7 17h1v1H7v-1zm2 0h1v1H9v-1z" class="N"/><path d="M5,6V5H4v3h2V6H5z" fill="#367f2e"/><g fill="#36a72e"><path d="M4 7h1v1H4V7zm0-2h1v1H4V5z"/><path d="M5,6h1v1H5V6z"/></g><g class="O"><path d="M29,10h1v1h-1V10z"/><path d="M32 12h1v2h-2v-1h-1v-2h2v1z"/></g><g class="P"><path d="M32,12h1v1h-1V12z"/><path d="M31 13h1v1h-1v-1zm0-2h1v1h-1v-1z"/><path d="M30,12h1v1h-1V12z"/></g><g class="O"><path d="M10,10h1v1h-1V10z"/><path d="M8 12H7v2h2v-1h1v-2H8v1z"/></g><g class="P"><path d="M7,12h1v1H7V12z"/><path d="M8 13h1v1H8v-1m0-2h1v1H8v-1z"/><path d="M9,12h1v1H9V12z"/></g><path d="M13 17v-1h2v2h-3v-1h1z" fill="#18742e"/><g fill="#0e982e"><path d="M13,16h1v1h-1V16z"/><path d="M14 17h1v1h-1v-1zm-2 0h1v1h-1v-1z"/></g><path d="M35 6V5h1v3h-2V6h1z" fill="#367f2e"/><g fill="#36a72e"><path d="M35 7h1v1h-1V7zm0-2h1v1h-1V5z"/><path d="M34,6h1v1h-1V6z"/></g><path d="M27,17v-1h-2v2h3v-1H27z" fill="#18742e"/><g fill="#0e982e"><path d="M26,16h1v1h-1V16z"/><path d="M25 17h1v1h-1v-1zm2 0h1v1h-1v-1z"/></g><g fill="#36622e"><path d="M12,7h1v1h-1V7z"/><path d="M15,9h1v2h-2v-1h-1V8h2V9z"/></g><g class="P"><path d="M15,9h1v1h-1V9z"/><path d="M14 10h1v1h-1v-1zm0-2h1v1h-1V8z"/><path d="M13,9h1v1h-1V9z"/></g><g fill="#36622e"><path d="M27,7h1v1h-1V7z"/><path d="M25,9h-1v2h2v-1h1V8h-2V9z"/></g><g class="P"><path d="M24,9h1v1h-1V9z"/><path d="M25 10h1v1h-1v-1zm0-2h1v1h-1V8z"/><path d="M26,9h1v1h-1V9z"/></g><path d="M30 8V7h1v1h1v1h-1v1h-1V9h-1V8h1z" class="K"/><path d="M30,8h1v1h-1V8z" fill="#8a22a0"/><path d="M9,8V7h1v1h1v1h-1v1H9V9H8V8H9z" class="K"/><path d="M9,8h1v1H9V8z" fill="#8a22a0"/><path d="M22,17v-1h-1v2h2v-1H22z" fill="#6822bc"/><path d="M21,17h1v1h-1V17z" fill="#84861c"/><path d="M18 17v-1h1v2h-2v-1h1z" fill="#6822bc"/><path d="M18,17h1v1h-1V17z" fill="#84861c"/><path d="M35,15h1v1h-1V15z" fill="#ba911c"/><path d="M5,17v-1h1v-1H5v-1H4v3H5z" fill="#d322e8"/><path d="M4,15h1v1H4V15z" fill="#ba911c"/></svg>