<svg xmlns="http://www.w3.org/2000/svg" viewBox="0 0 24 19"><style><![CDATA[.W{fill:#e8dc21}.X{fill:#2234cb}.Y{fill:#d322e8}.Z{fill:#8a22b4}.a{fill:#1ce4a3}.b{fill:#f122ad}.c{fill:#ba911c}]]></style><path d="M24,19H0V1h17v1h2v1h2v1h2v1h1V19z" fill="#1ca4b4"/><path d="M24 6h-1V5h-2V4h-2V3h-2V2H1v16h23V6zm-2 4h-4V9h4v1zM5 13h1v1H5v-1z" fill="#20c7db"/><g fill="#36622e"><path d="M4,9H3v1H2v1h2v-1h1V8H4V9z"/><path d="M5 7h1v1H5V7zM3 7h1v1H3V7z"/></g><g fill="#5f7c22"><path d="M4,9h1v1H4V9z"/><path d="M3 10h1v1H3v-1zm0-3h1v1H3V7z"/></g><path d="M17,6V5h-1v3h2V6H17z" fill="#367f2e"/><g fill="#36a72e"><path d="M16 7h1v1h-1V7zm0-2h1v1h-1V5z"/><path d="M17,6h1v1h-1V6z"/></g><path d="M13 6V5h1v3h-2V6h1z" fill="#367f2e"/><g fill="#36a72e"><path d="M13 7h1v1h-1V7zm0-2h1v1h-1V5z"/><path d="M12,6h1v1h-1V6z"/></g><g fill="#369c2e"><path d="M22,10h1v1h-1V10z"/><path d="M20 12h-1v2h2v-1h1v-2h-2v1z"/></g><g fill="#5f7c35"><path d="M19,12h1v1h-1V12z"/><path d="M20 13h1v1h-1v-1zm0-2h1v1h-1v-1z"/><path d="M21,12h1v1h-1V12z"/></g><g fill="#369c2e"><path d="M7,10h1v1H7V10z"/><path d="M10 12h1v2H9v-1H8v-2h2v1z"/></g><g fill="#5f7c35"><path d="M10,12h1v1h-1V12z"/><path d="M10 13H9v1h1v-1m-1-2h1v1H9v-1z"/><path d="M8,12h1v1H8V12z"/></g><path d="M10,4h1v1h-1V4z" class="W"/><path d="M9,5h1v1H9V5z" class="X"/><path d="M6,5h1v1H6V5z" class="Y"/><path d="M5,14h1v1H5V14z" class="W"/><path d="M1 14h1v1H1v-1zm0-2h1v1H1v-1z" fill="#a322d4"/><path d="M11,3h1v1h-1V3z" class="X"/><path d="M13,11h1v1h-1V11z" fill="#1c62a3"/><path d="M9,3h1v1H9V3z" class="X"/><g class="Y"><path d="M7,4h1v1H7V4z"/><path d="M6,3h1v1H6V3z"/></g><path d="M5,12h1v1H5V12z" class="W"/><path d="M12,12h1v1h-1V12z" class="a"/><path d="M11,5h1v1h-1V5z" class="X"/><path d="M12,10h1v1h-1V10z" class="a"/><path d="M5,4h1v1H5V4z" class="Y"/><g class="W"><path d="M1,5h1v1H1V5z"/><path d="M2,4h1v1H2V4z"/><path d="M1 3h1v1H1V3zm3 10h1v1H4v-1zm2 0h1v1H6v-1z"/></g><path d="M10 15h1v1h-1v-1zm-2 0h1v1H8v-1z" class="Z"/><path d="M9,16h1v1H9V16z" fill="#cec81c"/><path d="M10 17h1v1h-1v-1zm-2 0h1v1H8v-1z" class="Z"/><path d="M19,4h1v1h-1V4z" class="W"/><path d="M20,5h1v1h-1V5z" class="X"/><path d="M20,8h1v1h-1V8z" class="b"/><path d="M21,8h1v1h-1V8z" fill="#8a22a0"/><g class="b"><path d="M21,7h1v1h-1V7z"/><path d="M22,8h1v1h-1V8z"/></g><path d="M14,2h2v1h-2V2z" fill="#b782c2"/><path d="M18,3h1v1h-1V3z" class="X"/><path d="M16,14h1v1h-1V14z" class="c"/><path d="M17,12h1v1h-1V12z" class="W"/><path d="M18,5h1v1h-1V5z" class="X"/><path d="M17 10h1v1h-1v-1zm6 3h1v1h-1v-1z" class="W"/><path d="M19 15h1v1h-1v-1zm2 0h1v1h-1v-1z" class="Z"/><path d="M20,16h1v1h-1V16z" fill="#cec81c"/><path d="M16,16h1v1h-1V16z" class="c"/><path d="M19 17h1v1h-1v-1zm2 0h1v1h-1v-1z" class="Z"/><path d="M14 12h1v1h-1v-1zm0-2h1v1h-1v-1z" class="a"/><path d="M5,17v-1H3v2h3v-1H5z" fill="#18742e"/><g fill="#0e982e"><path d="M4,16h1v1H4V16z"/><path d="M3 17h1v1H3v-1zm2 0h1v1H5v-1z"/></g><path d="M14,15v-1h-1v1h-1v1h1v1h1v-1h1v-1H14z" class="Y"/><path d="M13,15h1v1h-1V15z" class="c"/><path d="M9,8V7H8v1H7v1h1v1h1V9h1V8H9z" class="b"/><path d="M8,8h1v1H8V8z" fill="#8a22a0"/></svg>