<svg xmlns="http://www.w3.org/2000/svg" viewBox="0 0 12 18"><path d="M11 7V6h-1V5H3v1H2v1H1v7h1v2h1v1h2v1h3v-1h2v-1h1v-2h1V7z" fill="#511f17"/><path d="M9 9h1v1H9V9zm-7 4h1v-3H2v3zm2-1h1v-2H4v2zm2 2h1v-3H6v3zm2-3h1v1H8v-1zm2 0v2h1v-2h-1zm-6 5h1v-3H4v3zm4-1h1v-2H8v2zm-2 2h1v-2H6v2z" fill="#7a500c"/><path d="M10 7V6H3v1H2v1h1v1h7V8h1V7z" fill="#955c4b"/><path d="M3 7h7v1H3z" fill="#fff"/><g fill="#ff89ff"><path d="M2 0h1v1H2z"/><path d="M1 1h1v1H1zm2 0h1v2H3z"/><path d="M0 2h1v1H0zm4 1h1v2H4z"/><path d="M5 5h1v2H5z"/><path d="M6 7h1v1H6z"/></g></svg>