<svg xmlns="http://www.w3.org/2000/svg" viewBox="0 0 12 18"><path d="M0,7v7h1v2h1v1h2v1h3v-1h2v-1h1v-2h1V7h-1V6H9V5H2v1H1v1H0z" fill="#511f17"/><path d="M3 10H2V9h1v1zm7 0H9v3h1v-3zm-2 0H7v2h1v-2zm-2 1H5v3h1v-3zm-2 1H3v-1h1v1zm-3-1v2h1v-2H1zm7 2H7v3h1v-3zm-4 0H3v2h1v-2zm2 2H5v2h1v-2z" fill="#7a500c"/><path d="M1,7v1h1v1h7V8h1V7H9V6H2v1H1z" fill="#955c4b"/><path d="M9,8H2V7h7V8z" fill="#fff"/><g fill="#ff89ff"><path d="M10,1H9V0h1V1z"/><path d="M11 2h-1V1h1v1zM9 3H8V1h1v2z"/><path d="M12 3h-1V2h1v1zM8 5H7V3h1v2z"/><path d="M7,7H6V5h1V7z"/><path d="M6,8H5V7h1V8z"/></g></svg>