<svg xmlns="http://www.w3.org/2000/svg" viewBox="0 0 16 26"  xmlns:v="https://vecta.io/nano"><path d="M8 1v2h2V1H8zM6 3h1V1H6v2z" fill="#1c8dd7"/><path d="M6,0v1h1v2h1V1h2V0H6z" fill="#2e9ddb"/><path d="M10 4V3H6v7h5V4h-1zM6 20v5h5v-5H6zm-1-7v4h6v-4H5z" fill="#40e9ff"/><path d="M5 4v1H4v5h2V4H5zM4 20v5h2v-5H4zm1-7H4v4h1v-4z" fill="#66f4ff"/><path d="M3 11v2h11v-2H3zm0 7v2h11v-2H3z" fill="#0dbbff"/><path d="M13 7V6h-1V5h-1v5h4V7h-2zm-2 13v5h2v-1h1v-1h1v-3h-4zm0-7v4h4v-4h-4zm-9 7h1v-2H2v2zm0-7h1v-2H2v2z" fill="#00d5e5"/><path d="M3 6v1H2v3h2V6H3zM2 20v4h1v1h1v-5H2zm0-7v4h2v-4H2z" fill="#b3f6ff"/><path d="M1 23h1v-3H1v3zm0-6h1v-4H1v4zM1 7v3h1V7H1z" fill="#fff"/><g fill="#1ca9d7"><path d="M15 23h1v-3h-1v3zm0-6h1v-4h-1v4z"/><path d="M15 7v3h1V7h-1zm-1 16h1v1h-1v-1z"/><path d="M13 6v1h2V6h-2zm0 18h1v1h-1v-1zM1 17v3h1v-2h12v2h1v-3H1zm0-7v3h1v-2h12v2h1v-3H1z"/><path d="M12 5h1v1h-1V5zM3 25v1h10v-1H3z"/><path d="M11,4h1v1h-1V4z"/><path d="M10 3h1v1h-1V3zM5 3h1v1H5V3z"/><path d="M4,4h1v1H4V4z"/><path d="M3 5h1v1H3V5zM2 24h1v1H2v-1z"/><path d="M3 7V6H1v1h2zM1 23h1v1H1v-1z"/><path d="M1 20H0v3h1v-3zm0-7H0v4h1v-4zm0-6H0v3h1V7z"/></g></svg>