<svg xmlns="http://www.w3.org/2000/svg" viewBox="0 0 16 26"><path d="M16 10V7h-1V6h-2V5h-1V4h-1V3h-1V0H6v3H5v1H4v1H3v1H1v1H0v3h1v3H0v4h1v3H0v3h1v1h1v1h1v1h10v-1h1v-1h1v-1h1v-3h-1v-3h1v-4h-1v-3z" fill="#1ca9d7"/><path d="M13 7V6h-1V5h-1V4h-1V3H6v1H5v1H4v1H3v1H1v3h14V7zM1 13h14v4H1z" fill="#40e9ff"/><path d="M2 11h12v2H2zm0 7h12v2H2z" fill="#0dbbff"/><path d="M1 20v3h1v1h1v1h10v-1h1v-1h1v-3z" fill="#40e9ff"/><path d="M6 0h4v3H6z" fill="#1c8dd7"/><path d="M6,0v1h1v2h1V1h2V0H6z" fill="#2e9ddb"/><path d="M5 4v1H4v5h2V4H5zM4 20v5h2v-5H4zm1-7H4v4h1v-4z" fill="#66f4ff"/><path d="M13 7V6h-1V5h-1v5h4V7h-2zm-2 13v5h2v-1h1v-1h1v-3h-4zm0-7v4h4v-4h-4zm-9 7h1v-2H2v2zm0-7h1v-2H2v2z" fill="#00d5e5"/><path d="M3 6v1H2v3h2V6H3zM2 20v4h1v1h1v-5H2zm0-7v4h2v-4H2z" fill="#b3f6ff"/><path d="M1 23h1v-3H1v3zm0-6h1v-4H1v4zM1 7v3h1V7H1z" fill="#fff"/></svg>