<svg xmlns="http://www.w3.org/2000/svg" viewBox="0 0 16 26"><path d="M1 10v3H0v4h1v3H0v3h1v1h1v1h1v1h10v-1h1v-1h1v-1h1v-3h-1v-3h1v-4h-1v-3h1V7h-1V6h-2V5h-1V4h-1V3h-1V0H6v3H5v1H4v1H3v1H1v1H0v3h1z" fill="#1ca9d7"/><path d="M1 7v3h14V7h-2V6h-1V5h-1V4h-1V3H6v1H5v1H4v1H3v1H1zm14 10H1v-4h14v4z" fill="#40e9ff"/><path d="M14 13H2v-2h12v2zm0 7H2v-2h12v2z" fill="#0dbbff"/><path d="M1,20v3h1v1h1v1h10v-1h1v-1h1v-3H1z" fill="#40e9ff"/><path d="M10,3H6V0h4V3z" fill="#1c8dd7"/><path d="M6,0v1h2v2h1V1h1V0H6z" fill="#2e9ddb"/><path d="M10 4v6h2V5h-1V4h-1zm0 16v5h2v-5h-2zm1-3h1v-4h-1v4z" fill="#66f4ff"/><path d="M1 7v3h4V5H4v1H3v1H1zm0 13v3h1v1h1v1h2v-5H1zm0-7v4h4v-4H1zm13 5h-1v2h1v-2zm0-7h-1v2h1v-2z" fill="#00d5e5"/><path d="M12 6v4h2V7h-1V6h-1zm0 14v5h1v-1h1v-4h-2zm0-7v4h2v-4h-2z" fill="#b3f6ff"/><path d="M15 20h-1v3h1v-3zm0-7h-1v4h1v-4zm-1-6v3h1V7h-1z" fill="#fff"/></svg>