<svg xmlns="http://www.w3.org/2000/svg" viewBox="0 0 40 23"><path d="M35 1v1h-2v1h-2v1h-2v1h-4v1h-3v1h-4V6h-3V5h-4V4H9V3H7V2H5V1H2.5v8H3v14h4v-2h5v2h5v-2h6v2h5v-2h5v2h4V9h.5V1H35z" fill="#c8c8c8"/><g fill="#fff"><path d="M17 13h-1v-1h-1v-1h-1v-1h-2V9h-1V8H9V7H7V6H6V5H5V3H4v17h15v-5h-1v-1h-1v-1zm-9-2h3v2H8v-2zm-1 8v-5h5v5H7zm16-6v-1h1v-1h1v-1h1V9h2V8h1V7h2V6h2V5h1V3h-1v1h-2v1h-2v1h-4v1h-2v2h-1v1h-1v4h1v-1h1z"/><path d="M18 9h-1V7h-2V6h-4V5H9V4H7V3H6v2h1v1h2v1h2v1h1v1h2v1h1v1h1v1h1v1h1v1h1v-4h-1V9zm17-4h-1v1h-1v1h-2v1h-2v1h-1v1h-2v1h-1v1h-1v1h-1v1h-1v1h-2v1h1v1h-1v1h1v1h-1v1h16V3h-1v2zm-3 5v1h-3v-1h3zm-5 9v-6h1v-1h5v1h1v6h-7z"/></g><path d="M32,12h1v1h-1V12z" fill="#698bd9"/><path d="M32,13h1v1h-1V13z" fill="#e2e5f3"/><path d="M30,13h1v1h-1V13z" fill="#45322f"/><path d="M31,13h1v1h-1V13z" fill="#d9c6b2"/><path d="M28,12h1v1h-1V12z" fill="#76946f"/><path d="M29,12h1v1h-1V12z" fill="#cad4e4"/><path d="M18 7v1h1v6h2V8h1V7h-4zm12 9h1v1h-1v-1z"/><g fill="#ddd9d6"><path d="M30,14h1v2h-1V14z"/><path d="M31,16v1h-1v-1h-1v2h3v-2H31z"/></g><path d="M33,13h1v1h-1V13z" fill="#556592"/><path d="M30,12h1v1h-1V12z" fill="#5666bc"/><path d="M29,13h1v1h-1V13z" fill="#f6d435"/><path d="M28,13h1v1h-1V13z" fill="#e6bf8f"/><path d="M31,12h1v1h-1V12z" fill="#c23e3f"/><path d="M27,13h1v1h-1V13z" fill="#f75457"/><path d="M7 15v1h5v-1H7zm19-8h1v1h-1V7zM13 7h1v1h-1V7zm7 11h1v1h-1v-1zm0-2h1v1h-1v-1z" fill="orange"/></svg>