<svg xmlns="http://www.w3.org/2000/svg" viewBox="0 0 40 23"  xmlns:v="https://vecta.io/nano"><path d="M32 12h1v1h-1z" fill="#698bd9"/><path d="M32 13h1v1h-1z" fill="#e2e5f3"/><path d="M30 13h1v1h-1z" fill="#45322f"/><path d="M31 13h1v1h-1z" fill="#d9c6b2"/><path d="M28 12h1v1h-1z" fill="#76946f"/><path d="M29 12h1v1h-1z" fill="#cad4e4"/><path d="M18 7v1h1v6h2V8h1V7zm12 9h1v1h-1z"/><g fill="#ddd9d6"><path d="M30 14h1v2h-1z"/><path d="M31 16v1h-1v-1h-1v2h3v-2z"/></g><path d="M33 13h1v1h-1z" fill="#556592"/><path d="M30 12h1v1h-1z" fill="#5666bc"/><path d="M29 13h1v1h-1z" fill="#f6d435"/><path d="M28 13h1v1h-1z" fill="#e6bf8f"/><path d="M31 12h1v1h-1z" fill="#c23e3f"/><path d="M27 13h1v1h-1z" fill="#f75457"/><path d="M7 15v1h5v-1zm19-8h1v1h-1zM13 7h1v1h-1zm7 11h1v1h-1zm0-2h1v1h-1z" fill="orange"/><g fill="#fff"><path d="M17 13h-1v-1h-1v-1h-1v-1h-2V9h-1V8H9V7H7V6H6V5H5V3H4v17h15v-5h-1v-1h-1v-1zm-9-2h3v2H8v-2zm-1 8v-5h5v5H7zm16-6v-1h1v-1h1v-1h1V9h2V8h1V7h2V6h2V5h1V3h-1v1h-2v1h-2v1h-4v1h-2v2h-1v1h-1v4h1v-1h1zm4-6v1h-1V7h1z"/><path d="M18 9h-1V7h-2V6h-4V5H9V4H7V3H6v2h1v1h2v1h2v1h1v1h2v1h1v1h1v1h1v1h1v1h1v-4h-1V9zm-5-1V7h1v1h-1zm22-3h-1v1h-1v1h-2v1h-2v1h-1v1h-2v1h-1v1h-1v1h-1v1h-1v1h-2v1h1v1h-1v1h1v1h-1v1h16V3h-1v2zm-3 5v1h-3v-1h3zm-5 9v-6h1v-1h5v1h1v6h-7z"/></g><g fill="#c8c8c8"><path d="M6 5h1v1H6z"/><path d="M9 7V6H7v1z"/><path d="M11 8V7H9v1zm0-3V4H9v1z"/><path d="M14 10V9h-2v1zm1-4V5h-4v1zm-3 9v-1H7v1zm4-3h1v1h-1z"/><path d="M11 8h1v1h-1zm22-1V6h-2v1z"/><path d="M31 8V7h-2v1zm1 3v-1h-3v1z"/><path d="M29 4v1h2V4zm-1 4h1v1h-1z"/><path d="M23 12h1v1h-1zm5-2V9h-2v1zm-5-4h-1v2h-1v2h1V9h1V7h2V6zm-6 1v2h1v1h1V8h-1V6h-3v1z"/><path d="M22 13h1v1h-1zm-5 0h1v1h-1zm8-8v1h4V5zm6-2v1h2V3zm-6 7h1v1h-1zM9 4V3H7v1zm5 6h1v1h-1zm-2 9v-3H7v3z"/><path d="M34 19v-5h-3v2h1v2h-3v-2h1v-2h-3v5zM33 5h1v1h-1zm-18 6h1v1h-1zm-4 2v-2H8v2z"/><path d="M24 11h1v1h-1zM3 23h4v-2h5v2h5v-2h6v2h5v-2h5v2h4V1h-2v1h-2v1h1v2h1V3h1v17H20v-5h2v-1h-4v1h1v5H4V3h1v2h1V3h1V2H5V1H3z"/></g></svg>