<svg xmlns="http://www.w3.org/2000/svg" viewBox="0 0 24 23"><path d="M24,23h-3v-2h-3v2h-4v-2h-4v2H6v-2H3v2H0V5h3V4h2V3h2V2h2V1h15V23z" fill="#c8c8c8"/><g fill="#fff"><path d="M3,8V7h2V6h2V5h1V3H7v1H5v1H3v1H0v1h1v1H0v1h2V8H3z"/><path d="M9 5H8v1H7v1H5v1H3v1H2v1H0v10h10V3H9v2zm-3 5v1H3v-1h3zm-5 9v-6h1v-1h5v1h1v6H1zM11 2h12v18H11V2z"/></g><path d="M6,12h1v1H6V12z" fill="#698bd9"/><path d="M6,13h1v1H6V13z" fill="#e2e5f3"/><path d="M4,13h1v1H4V13z" fill="#45322f"/><path d="M5,13h1v1H5V13z" fill="#d9c6b2"/><path d="M2,12h1v1H2V12z" fill="#76946f"/><path d="M0,7h1v1H0V7z" fill="orange"/><path d="M3,12h1v1H3V12z" fill="#cad4e4"/><path d="M5,16v-2H4v2H3v2h3v-2H5z" fill="#ddd9d6"/><path d="M7,13h1v1H7V13z" fill="#556592"/><path d="M4,12h1v1H4V12z" fill="#5666bc"/><path d="M3,13h1v1H3V13z" fill="#f6d435"/><path d="M2,13h1v1H2V13z" fill="#e6bf8f"/><path d="M5,12h1v1H5V12z" fill="#c23e3f"/><path d="M1,13h1v1H1V13z" fill="#f75457"/><path d="M4,16h1v1H4V16z"/></svg>