<svg xmlns="http://www.w3.org/2000/svg" viewBox="0 0 14 19"><path d="M0,5v2h1v1h1v1h1v1h1v1h1v7H2v1h7v-1H6v-7h1v-1h1V9h1V8h1V7h1V5H0z" fill="#ccc"/><path d="M1,6v1h1v1h1v1h1v1h1v1h1v-1h1V9h1V8h1V7h1V6H1z" fill="#fff"/><g fill="#502d16"><path d="M5 10H4V9h1v1z"/><path d="M6,9H5V8h1V9z"/><path d="M7,8H6V7h1V8z"/><path d="M8,7H7V6h1V7z"/></g><path d="M2,7v1h1v1h1v1h1v1h1v-1h1V9h1V8h1V7H2z" opacity=".6" fill="#afe"/><path d="M10,7H1V6h9V7z" opacity=".6" fill="#e6e6e6"/><path d="M11,1v2h2V1H11z" fill="#668000"/><path d="M13,2h-1V1h1V2z" fill="#a0af5f"/><path d="M9,3v2h2V3H9z" fill="#668000"/><path d="M11,4h-1V3h1V4z" fill="#a0af5f"/><path d="M14,1h-1V0h1V1z" fill="#502d16"/></svg>