<svg xmlns="http://www.w3.org/2000/svg" viewBox="0 0 14 19"><path d="M3 5v2h1v1h1v1h1v1h1v1h1v7H5v1h7v-1H9v-7h1v-1h1V9h1V8h1V7h1V5z" fill="#ccc"/><path d="M4,6v1h1v1h1v1h1v1h1v1h1v-1h1V9h1V8h1V7h1V6H4z" fill="#fff"/><g fill="#502d16"><path d="M9,9h1v1H9V9z"/><path d="M8,8h1v1H8V8z"/><path d="M7,7h1v1H7V7z"/><path d="M6,6h1v1H6V6z"/></g><path d="M5,7v1h1v1h1v1h1v1h1v-1h1V9h1V8h1V7H5z" opacity=".6" fill="#afe"/><path d="M4,6h9v1H4V6z" opacity=".6" fill="#e6e6e6"/><path d="M1,1v2h2V1H1z" fill="#668000"/><path d="M1,1h1v1H1V1z" fill="#a0af5f"/><path d="M3,3v2h2V3H3z" fill="#668000"/><path d="M3,3h1v1H3V3z" fill="#a0af5f"/><path d="M0 0h1v1H0z" fill="#502d16"/></svg>