<svg xmlns="http://www.w3.org/2000/svg" viewBox="0 0 12 29"><path d="M1 8v2h1v10h1v3h1v2h1v1H4v1H3v1h1v1h5v-1h1v-1H9v-1H8v-1h1v-2h1v-3h1v-9h1V9h-1V8H8v1H6V8H3V7H2v1z" fill="#ff2b87"/><path d="M5,6v2h1v1h2V8h1V6H8V5H6v1H5z" fill="#f20030"/><path d="M3 12v8h1v3h1v2h1v2H5v1h3v-1H7v-2h1v-2h1v-1H8v-7h1v5h1v-8H9v1H4v-1H3zm2 3h1v7H5v-7z" fill="#ff6daa"/><path d="M1 8v2h1v1h1v2h1v10h1v-9h2v9h1v-9h1v-1h1v-1h1v-1h1V9h-1V8H8v1H6V8H3V7H2v1z" fill="#ff9ec8"/><path d="M8 7H7V6h1v1zM2 8v2h1v2h1v1h5v-1h1v-1h1V9H9V8H8v1H6V8H2zm3 4v-1h2v-1h1v1H7v1H5z" fill="#fafffe"/><g fill="#ff2b87"><path d="M0 0h2v1H0z"/><path d="M2 1h1v3H2z"/><path d="M3 4h1v4H3z"/><path d="M4 8h1v2H4z"/></g></svg>