<svg xmlns="http://www.w3.org/2000/svg" viewBox="0 0 12 29"><path d="M10 8V7H9v1H6v1H4V8H1v1H0v2h1v9h1v3h1v2h1v1H3v1H2v1h1v1h5v-1h1v-1H8v-1H7v-1h1v-2h1v-3h1V10h1V8z" fill="#ff2b87"/><path d="M6,6V5H4v1H3v2h1v1h2V8h1V6H6z" fill="#f20030"/><path d="M8 12v1H3v-1H2v8h1v-5h1v7H3v1h1v2h1v2H4v1h3v-1H6v-2h1v-2h1v-3h1v-8H8zM7 22H6v-7h1v7z" fill="#ff6daa"/><path d="M10 8V7H9v1H6v1H4V8H1v1H0v2h1v1h1v1h1v1h1v9h1v-9h2v9h1V13h1v-2h1v-1h1V8z" fill="#ff9ec8"/><path d="M4 6h1v1H4V6zm2 2v1H4V8H3v1H1v2h1v1h1v1h5v-1h1v-2h1V8H6zm-1 4v-1H4v-1h1v1h2v1H5z" fill="#fafffe"/><g fill="#ff2b87"><path d="M10 0h2v1h-2z"/><path d="M9 1h1v3H9z"/><path d="M8 4h1v4H8z"/><path d="M7 8h1v2H7z"/></g></svg>