<svg xmlns="http://www.w3.org/2000/svg" viewBox="0 0 54 29"  xmlns:v="https://vecta.io/nano"><path d="M48 14v1h2v-1zm0-5v4h2V9zM4 14v1h2v-1zm0-5v4h2V9z" fill="#f5e6fd"/><path d="M51 10V9h-1v2h1v1h-1v3h1v-1h1v-4zm-4 0h-1v4h1v1h1v-3h-1v-1h1V9h-1zM7 9H6v2h1v1H6v3h1v-1h1v-4H7zm-4 1H2v4h1v1h1v-3H3v-1h1V9H3z" fill="#edd3fd"/><path d="M48 17v1h2v-1zm0-9v1h2V8zM4 8v1h2V8z" fill="#64438e"/><path d="M46 17v-1h-1v2h3v-1zm6 0h-2v1h3v-2h-1zm-6-7h1V9h1V8h-3v6h1zm4 3h-2v1h2zm-3-2h1v1h-1zm3 0h1v1h-1zm0-3v1h1v1h1v4h1V8zM8 17H2v-1H1v2h8v-2H8zm-4-3h2v-1H4zm-2-4h1V9h1V8H1v6h1zm4 1h1v1H6zm-3 0h1v1H3zm3-3v1h1v1h1v4h1V8z" fill="#523775"/><g fill="#a4b6d1"><path d="M48 18v1h2v-1zM47 6h1v1h-1z"/><path d="M46 5h1v1h-1zm4 3V7h-2v1zM4 18v1h2v-1zM6 6h1v1H6z"/><path d="M7 5h1v1H7zM4 7v1h2V7z"/></g><path d="M46 18v1h2v-1zm4 0v1h2v-1zM48 8V7h-2v1zm2-1v1h2V7zM6 18v1h2v-1zm-4 0v1h2v-1zM6 7v1h2V7zM2 7v1h2V7z" fill="#8c9cb3"/><path d="M44 12v2h1v-2zM9 12h1v2H9z" fill="#a60020"/><g fill="#c72629"><path d="M51 14v1h-1v2h2v-1h2v-2zM3 14H0v2h2v1h2v-2H3zm44 1v-1h-3V7h-1V5h-2v2h1v10h-7v-1H19v1h-7V7h1V5h-2v2h-1v7H7v1H6v2h2v-1h2v13h2V19h8v-1h14v1h8v10h2V16h2v1h2v-2z"/><path d="M41 3h-2V2h-3V1h-5V0h-8v1h-5v1h-3v1h-2v2h2V4h3V3h5V2h8v1h5v1h3v1h2z"/></g><path d="M48 15v2h2v-2zm-3 4h-1v9h1v-2h1v-5h-1zM9 21H8v5h1v2h1v-9H9zm-5-6v2h2v-2zm38-8h-1V5h-2V4h-3V3h-5V2h-8v1h-5v1h-3v1h-2v2h-1v10h7v-1h16v1h7z" fill="#ee3338"/><g fill="#fff"><path d="M32 8V7h-1v1h-2V7h-1v6h1V9h2v3h1v-1h2v-1h-2V9h3V8z"/><path d="M31 7V6h-2v1zm-6 1h-2V7h-1v1h-3v1h3v1h-2v1h2v1h1V9h2v4h1V7h-1z"/><path d="M25 7V6h-2v1zm-9-1v1h-1v2h1V8h1V7h1V6z"/></g></svg>