<svg xmlns="http://www.w3.org/2000/svg" viewBox="0 0 33 27"><path d="M30 15V4h-2V2h-2V1h-4V0H6v1H4v2H2v2H0v21h2v1h2v-2h1v-1h1v1h1v1h1v1h8v-1h1v-1h2v-2h2v-5h8v-1h4v-2h-3z" fill="#e0022b"/><path d="M12 18h2v2h-2z" fill="#660100"/><g fill="#fff"><path d="M28 7v1h-3v1h3v1h-2v1h2v1h1V9h1V8h-1V7h-1z"/><path d="M29 6h1v1h-1z"/></g><g fill="#ee3338"><path d="M15 17h-1v-1h-2v1h-1v1h-1v2h1v1h1v1h2v-1h1v-1h1v-2h-1v-1zm-1 2v1h-2v-2h2v1zM29 7h1v1h-1z"/><path d="M28 6V4h-2V3h-4V2h-5v1h1v7h1v2h-1v1h-1v1h-6v-1h-1v-1H9v-2h1V3h1V2H6v1H4v2H2v20h2v-1h1v-1h1v1h1v1h10v-2h2v-6h2v-1h5v-1h4V9h-1v3h-1v-1h-2v-1h2V9h-3V8h3V7h1V6h-1zM17 19v2h-1v1h-1v1h-4v-1h-1v-1H9v-4h1v-1h1v-1h4v1h1v1h1v2z"/></g><path d="M17 3V2h-2V0h-1v2h-3v1h-1v7h1v2h-1v1h1v1h6v-1h1v-1h-1v-2h1V3h-1z" fill="#a4b6d1"/><path d="M11 13v1h5v-1h-5zm4-11V1h-1v1h-3v1h5V2h-1z" fill="#8c9cb3"/><path d="M10 3v7h1v2h-1v1h8v-1h-1v-2h1V3h-8z" fill="#523775"/><g fill="#edd3fd"><path d="M15 11v1h2v-1h-2zm1-7v1h-1v4h2V8h1V4h-2zm1 3h-1V6h1v1z"/><path d="M17 9h1v1h-1zm-6 2v1h2v-1h-2zm1-7h-2v6h1V9h2V5h-1V4z"/></g><path d="M17 12h1v1h-1zm0-9h1v1h-1zm-1 3h1v1h-1z" fill="#64438e"/><path d="M11 9v2h6V9h-6z" fill="#a60020"/><path d="M10 10h1V4h-1v6zm7-6v4h1V4h-1zm0 5h1v1h-1z" fill="#f5e6fd"/></svg>