<svg xmlns="http://www.w3.org/2000/svg" viewBox="0 0 33 27"><path d="M3 15V4h2V2h2V1h4V0h16v1h2v2h2v2h2v21h-2v1h-2v-2h-1v-1h-1v1h-1v1h-1v1h-8v-1h-1v-1h-2v-2h-2v-5H4v-1H0v-2h3z" fill="#e0022b"/><path d="M19 18h2v2h-2z" fill="#660100"/><g fill="#fff"><path d="M5 7v1h3v1H5v1h2v1H5v1H4V9H3V8h1V7h1z"/><path d="M3 6h1v1H3z"/></g><g fill="#ee3338"><path d="M18 18h-1v2h1v1h1v1h2v-1h1v-1h1v-2h-1v-1h-1v-1h-2v1h-1v1zm1 0h2v2h-2v-1-1zM3 7h1v1H3z"/><path d="M4 6v1h1v1h3v1H5v1h2v1H5v1H4V9H3v6h4v1h5v1h2v6h2v2h10v-1h1v-1h1v1h1v1h2V5h-2V3h-2V2h-5v1h1v7h1v2h-1v1h-1v1h-6v-1h-1v-1h-1v-2h1V3h1V2h-5v1H7v1H5v2H4zm12 11h1v-1h1v-1h4v1h1v1h1v4h-1v1h-1v1h-4v-1h-1v-1h-1v-2-2z"/></g><path d="M16 3V2h2V0h1v2h3v1h1v7h-1v2h1v1h-1v1h-6v-1h-1v-1h1v-2h-1V3h1z" fill="#a4b6d1"/><path d="M22 13v1h-5v-1h5zM18 2V1h1v1h3v1h-5V2h1z" fill="#8c9cb3"/><path d="M23 3v7h-1v2h1v1h-8v-1h1v-2h-1V3h8z" fill="#523775"/><g fill="#edd3fd"><path d="M18 11v1h-2v-1h2zm-3-7v4h1v1h2V5h-1V4h-2zm1 2h1v1h-1V6z"/><path d="M15 9h1v1h-1zm7 2v1h-2v-1h2zm-1-7h2v6h-1V9h-2V5h1V4z"/></g><path d="M15 12h1v1h-1zm0-9h1v1h-1zm1 3h1v1h-1z" fill="#64438e"/><path d="M22 9v2h-6V9h6z" fill="#a60020"/><path d="M23 10h-1V4h1v6zm-7-6v4h-1V4h1zm-1 5h1v1h-1z" fill="#f5e6fd"/></svg>