<svg xmlns="http://www.w3.org/2000/svg" viewBox="0 0 54 29"><path d="M52 8V7h-4V6h-1v1h-1v1h-1v10h1v1h6v-1h1V8zM8 7H7V6H6v1H2v1H1v10h1v1h6v-1h1V8H8z" fill="#8c9cb3"/><g fill="#a4b6d1"><path d="M48 18v1h2v-1h-2zM47 6h1v1h-1V6z"/><path d="M46 5h1v1h-1V5zm4 3V7h-2v1h2zM4 18v1h2v-1H4zM6 6h1v1H6V6z"/><path d="M7 5h1v1H7V5zM4 7v1h2V7H4z"/></g><path d="M1 8v10h8V8H1zm44 0v10h8V8h-8z" fill="#523775"/><path d="M4 8h2v1H4zm44 9h2v1h-2zm0-9h2v1h-2zM4 17h2v1H4z" fill="#64438e"/><path d="M51 10V9h-4v1h-1v4h1v1h4v-1h1v-4h-1zm-4 2v-1h1v1h-1zm3 2h-2v-1h2v1zm1-2h-1v-1h1v1zM7 10V9H3v1H2v4h1v1h4v-1h1v-4H7zm-4 2v-1h1v1H3zm3 2H4v-1h2v1zm1-2H6v-1h1v1z" fill="#edd3fd"/><path d="M48 14v1h2v-1h-2zm0-5v4h2V9h-2zM4 14v1h2v-1H4zm0-5v4h2V9H4z" fill="#f5e6fd"/><path d="M51 14v1h-4v-1h-2v-2h-1V7h-1V5h-2V3h-2V2h-3V1h-5V0h-8v1h-5v1h-3v1h-2v2h-2v2h-1v5H9v2H7v1H3v-1H0v2h2v1h6v-1h2v3H9v2H8v5h1v2h1v1h2V19h8v-1h14v1h8v10h2v-1h1v-2h1v-5h-1v-2h-1v-3h2v1h6v-1h2v-2z" fill="#c72629"/><path d="M44 12v2h1v-2h-1zM9 12h1v2H9v-2z" fill="#a60020"/><path d="M48 15v2h2v-2h-2zm-3 4h-1v9h1v-2h1v-5h-1v-2zM9 21H8v5h1v2h1v-9H9v2zm-5-6v2h2v-2H4zm38-8h-1V5h-2V4h-3V3h-5V2h-8v1h-5v1h-3v1h-2v2h-1v10h7v-1h16v1h7V7z" fill="#ee3338"/><g fill="#fff"><path d="M32,8V7h-1v1h-2V7h-1v6h1V9h2v3h1v-1h2v-1h-2V9h3V8H32z"/><path d="M31 7V6h-2v1h2zm-6 1h-2V7h-1v1h-3v1h3v1h-2v1h2v1h1V9h2v4h1V7h-1v1z"/><path d="M25 7V6h-2v1h2zm-9-1v1h-1v2h1V8h1V7h1V6h-2z"/></g></svg>