<svg xmlns="http://www.w3.org/2000/svg" viewBox="0 0 42 24"  xmlns:v="https://vecta.io/nano"><path d="M34 4h4v1h-4zm-2 2v1h-1v1h-1v1h-2v1h-6v9h15V9h1V6zm-4 14v1h7v2h1v-3zm-13 0v3h2v-2h8v2h2v-3zm5-1v-9h-6V9h-2V8h-1V7h-1V6H4v3h1v10h15zm-7-5h-3v-1h1v-1h1v-1h1v3zm-7 6v3h1v-2h7v-1zM4 4h4v1H4z"/><path d="M35 3h3v1h-3zm1 17h1v3h-1zM33 5h5v1h-5zm-6 15h1v3h-1zm-13 0h1v3h-1zm-2-8h-1v1h-1v1h3v-3h-1zM4 5h5v1H4zm1 15h1v3H5zM4 3h3v1H4z" fill="#fff"/><g fill="#bababa"><path d="M35 2h3v1h-3z"/><path d="M34 3h1v1h-1z"/><path d="M33 4h1v1h-1z"/><path d="M32 5h1v1h-1z"/><path d="M31 6h1v1h-1z"/><path d="M30 7h1v1h-1z"/><path d="M28 8h2v1h-2z"/><path d="M38 9h-1v10H22v-9h6V9H14v1h6v9H5V9H4v15h4v-2h5v2h5v-2h6v2h5v-2h5v2h4V9zm-1 11v3h-2v-2h-7v2h-3v-2h-8v2h-3v-2H7v2H5v-3h32z"/><path d="M13 8h-1v1h2V8z"/><path d="M11 7h1v1h-1z"/><path d="M10 6h1v1h-1z"/><path d="M9 5h1v1H9z"/><path d="M8 4h1v1H8z"/><path d="M7 3h1v1H7z"/><path d="M4 2h3v1H4z"/></g></svg>