<svg xmlns="http://www.w3.org/2000/svg" viewBox="0 0 42 24"><path d="M35 2v1h-1v1h-1v1h-1v1h-1v1h-1v1h-2v1H14V8h-2V7h-1V6h-1V5H9V4H8V3H7V2H4v22h4v-2h5v2h5v-2h6v2h5v-2h5v2h4V2z" fill="#bababa"/><path d="M34 4h4v1h-4V4zm-2 2v1h-1v1h-1v1h-2v1h-6v9h15V9h1V6h-6zm-4 14v1h7v2h1v-3h-8zm-13 0v3h2v-2h8v2h2v-3H15zm5-1v-9h-6V9h-2V8h-1V7h-1V6H4v3h1v10h15zM6 20v3h1v-2h7v-1H6zM4 4h4v1H4V4z"/><path d="M35 3h3v1h-3V3zm1 17h1v3h-1v-3zM33 5h5v1h-5V5zm-6 15h1v3h-1v-3zm-13 0h1v3h-1v-3zm-2-8h-1v1h-1v1h3v-3h-1v1zM4 5h5v1H4V5zm1 15h1v3H5v-3zM4 3h3v1H4V3z" fill="#fff"/></svg>