<svg xmlns="http://www.w3.org/2000/svg" viewBox="0 0 10 18"><path d="M3.1 17.9v-1h-1v-1h-1v-1h-1v-3.8h1v-1h1v-1h1V2.9h-1v-.8h2v-2h1.8v2h2v.8h-1v6.2h1v1h1v1h1v3.8h-1v1h-1v1h-1v1z" fill="red"/><path d="M5.8.2v2h2v.5h-1v6.5h1v1h1v1h1v3.5h-1v1.1h-1v1h-1v1H3.2v-1h-1v-1h-1v-1h-1v-3.5h1v-1.1h1v-1h1V2.8h-1v-.6h2v-2h1.6M6 0H4v2H2v1h1v6H2v1H1v1H0v4h1v1h1v1h1v1h4v-1h1v-1h1v-1h1v-4H9v-1H8V9H7V3h1V2H6V0z"/><path d="M4 0v2h2V0H4zm0 3v1h2V3H4z" fill="#b37740"/><path d="M7,10V9H6V4H4v5H3v1H2v1h6v-1H7z" fill="#bcf5e9"/><g fill="#ff8585"><path d="M7,12v3h1v-3H7z"/><path d="M6,15h1v1H6V15z"/></g><g fill="#ff4a4a"><path d="M8 12v3h1v-3H8zm-1 0H3v2h1v1h1v1h1v-1h1v-3z"/><path d="M7,15h1v1H7V15z"/></g><path d="M1,11v4h1v1h1v1h4v-1H5v-1H4v-1H3v-2h6v-1H1z" fill="red"/><path d="M4,3h2v6h1V3h1V2H2v1h1v6h1V3z"/><path d="M2 9h1v1H2V9zm5 0h1v1H7V9z"/><path d="M1 10h1v1H1v-1zm7 0h1v1H8v-1z"/><path d="M9 11v4h1v-4H9zm-8 0H0v4h1v-4z"/><path d="M1 15h1v1H1v-1zm7 0h1v1H8v-1z"/><path d="M2 16h1v1H2v-1zm5 0h1v1H7v-1z"/><path d="M3,17v1h4v-1H3z"/></svg>