<svg xmlns="http://www.w3.org/2000/svg" viewBox="0 0 10 18"  xmlns:v="https://vecta.io/nano"><path d="M4 0v2h2V0zm0 3v1h2V3z" fill="#b37740"/><path d="M7 10V9H6V4H4v5H3v1H2v1h6v-1z" fill="#bcf5e9"/><g fill="#ff8585"><path d="M7 12v3h1v-3z"/><path d="M6 15h1v1H6z"/></g><g fill="#ff4a4a"><path d="M8 12v3h1v-3zm-1 0H3v2h1v1h1v1h1v-1h1z"/><path d="M7 15h1v1H7z"/></g><path d="M1 11v4h1v1h1v1h4v-1H5v-1H4v-1H3v-2h6v-1z" fill="red"/><path d="M4 3h2v6h1V3h1V2H2v1h1v6h1z"/><path d="M2 9h1v1H2zm5 0h1v1H7z"/><path d="M1 10h1v1H1zm7 0h1v1H8z"/><path d="M9 11v4h1v-4zm-8 0H0v4h1z"/><path d="M1 15h1v1H1zm7 0h1v1H8z"/><path d="M2 16h1v1H2zm5 0h1v1H7z"/><path d="M3 17v1h4v-1z"/></svg>