<svg xmlns="http://www.w3.org/2000/svg" viewBox="0 0 10 14"><path d="M2.1 13.9v-1h-1v-1h-1V8.1h1v-1h1V2.9h-1v-.8h7.8v.8h-1v4.2h1v1h1v3.8h-1v1h-1v1z" fill="#be00af"/><path d="M8.8 2.2v.5h-1v4.5h1v1h1v3.5h-1v1.1h-1v1H2.2v-1h-1v-1h-1V8.2h1v-1h1V2.8h-1v-.6h7.6M9 2H1v1h1v4H1v1H0v4h1v1h1v1h6v-1h1v-1h1V8H9V7H8V3h1V2z"/><path d="M5,4V3H3v3h2V5H4V4H5z" fill="#b1d0ea"/><path d="M6,3v1H5v1h1v1h1V3H6z" fill="#6ea8d8"/><g fill="#fa34f3"><path d="M4 1h1v1H4V1zm0 3h1v1H4V4z"/><path d="M5 3h1v1H5V3zm1-3h1v1H6V0zm0 5H5v1H3v2H2v3h1v1h3v-1h1V8H6V5z"/></g><g fill="#be00af"><path d="M8,8V7H7V6H6v2h1v3H6v1H3v-1H2V8H1v4h1v1h6v-1h1V8H8z"/><path d="M2,7h1v1H2V7z"/></g><path d="M1 7h1v1H1V7zm0 5h1v1H1v-1z"/><path d="M3 3h4v4h1V3h1V2H1v1h1v4h1V3zM0 8h1v4H0V8zm9 0h1v4H9V8z"/><path d="M8 12h1v1H8v-1zm0-5h1v1H8V7z"/><path d="M2,13h6v1H2V13z"/></svg>