<svg xmlns="http://www.w3.org/2000/svg" viewBox="0 0 10 14"  xmlns:v="https://vecta.io/nano"><path d="M5 4V3H3v3h2V5H4V4z" fill="#b1d0ea"/><path d="M6 3v1H5v1h1v1h1V3z" fill="#6ea8d8"/><g fill="#fa34f3"><path d="M4 1h1v1H4zm0 3h1v1H4z"/><path d="M5 3h1v1H5zm1-3h1v1H6zm0 5H5v1H3v2H2v3h1v1h3v-1h1V8H6z"/></g><g fill="#be00af"><path d="M8 8V7H7V6H6v2h1v3H6v1H3v-1H2V8H1v4h1v1h6v-1h1V8z"/><path d="M2 7h1v1H2z"/></g><path d="M1 7h1v1H1zm0 5h1v1H1z"/><path d="M3 3h4v4h1V3h1V2H1v1h1v4h1zM0 8h1v4H0zm9 0h1v4H9z"/><path d="M8 12h1v1H8zm0-5h1v1H8z"/><path d="M2 13h6v1H2z"/></svg>