<svg xmlns="http://www.w3.org/2000/svg" viewBox="0 0 8 15"><path d="M7 5V3H6V2H5V1H4V0H2v9H1v1H0v2h1v1h1v1h1v1h2v-1h1v-1h1v-2h1V5H7z" fill="#002de4"/><g fill="#1973ff"><path d="M3 11H1v1h1v1h1v1h2v-1H4v-1H3v-1zm3-7V3H5V2H4V1H3v2h1v1h2z"/><path d="M6 5H4V4H3v2h1v1h3V5H6z"/><path d="M3 8v1h1v1h3V8H4V7H3v1z"/><path d="M3 10h1v1H3z"/><path d="M2 9h1v1H2zm3 3h1v-1H4v1h1z"/></g><g fill="#9dc3ff"><path d="M6 4V3H5V2H4v2h2zM4 5v2h3V5H4zm0 3v2h3V8H4z"/><path d="M3 10h1v1H3z"/><path d="M6 12v-1H4v1h2z"/></g></svg>