<svg xmlns="http://www.w3.org/2000/svg" viewBox="0 0 8 15"><path d="M1 5V3h1V2h1V1h1V0h2v9h1v1h1v2H7v1H6v1H5v1H3v-1H2v-1H1v-2H0V5h1z" fill="#002de4"/><g fill="#1973ff"><path d="M5 11h2v1H6v1H5v1H3v-1h1v-1h1v-1zM2 4V3h1V2h1V1h1v2H4v1H2z"/><path d="M2 5h2V4h1v2H4v1H1V5h1z"/><path d="M5 8v1H4v1H1V8h3V7h1v1z"/><path d="M4 10h1v1H4z"/><path d="M5 9h1v1H5zm-2 3H2v-1h2v1H3z"/></g><g fill="#9dc3ff"><path d="M2 4V3h1V2h1v2H2zm2 1v2H1V5h3zm0 3v2H1V8h3z"/><path d="M4 10h1v1H4z"/><path d="M2 12v-1h2v1H2z"/></g></svg>