<svg xmlns="http://www.w3.org/2000/svg" viewBox="0 0 26 15"><path d="M7 9H6V0H4v1H3v1H2v1H1v2H0v6h1v2h1v1h1v1h2v-1h1v-1h1v-1h1v-2H7V9zm18-4V3h-1V2h-1V1h-1V0h-2v9h-1v1h-1v2h1v1h1v1h1v1h2v-1h1v-1h1v-2h1V5h-1z" fill="#002de4"/><g fill="#1973ff"><path d="M5 11v1H4v1H3v1h2v-1h1v-1h1v-1H5zm0-8V1H4v1H3v1H2v1h2V3h1z"/><path d="M5 6V4H4v1H1v2h3V6h1z"/><path d="M5 9V7H4v1H1v2h3V9h1z"/><path d="M4 10h1v1H4z"/><path d="M5 9h1v1H5zm-2 2H2v1h2v-1H3zm18 0h-2v1h1v1h1v1h2v-1h-1v-1h-1v-1zm3-7V3h-1V2h-1V1h-1v2h1v1h2z"/><path d="M24 5h-2V4h-1v2h1v1h3V5h-1z"/><path d="M21 8v1h1v1h3V8h-3V7h-1v1z"/><path d="M21 10h1v1h-1z"/><path d="M20 9h1v1h-1zm3 3h1v-1h-2v1h1z"/></g><g fill="#9dc3ff"><path d="M3 7h1V5H1v2h2zm1-3V2H3v1H2v1h2zm0 4H1v2h3V8z"/><path d="M4 10h1v1H4z"/><path d="M2 11v1h2v-1H2zm22-7V3h-1V2h-1v2h2zm0 1h-2v2h3V5h-1zm-1 3h-1v2h3V8h-2z"/><path d="M21 10h1v1h-1z"/><path d="M23 12h1v-1h-2v1h1z"/></g></svg>