<svg xmlns="http://www.w3.org/2000/svg" viewBox="0 0 50 31"><path d="M19 11h-1v-1h-1V9h-1V8h-1V7h-1V5h-1V3h-1V1h-1V0h-1v1H9v1H8v2H7v2H6v2H5v2H4v2H3v2H2v2H1v3H0v11h1v1h1v-1h1v-3h1v-1h1v-1h3v1h1v1h1v3h1v1h1v-1h1v-6h1v1h1v-1h1v-8h3v-1h1v-3h-1v-1zm30 8v-3h-1v-2h-1v-2h-1v-2h-1V8h-1V6h-1V4h-1V2h-1V1h-1V0h-1v1h-1v2h-1v2h-1v2h-1v1h-1v1h-1v1h-1v1h-1v1h-1v3h1v1h3v8h1v1h1v-1h1v6h1v1h1v-1h1v-3h1v-1h1v-1h3v1h1v1h1v3h1v1h1v-1h1V19h-1z" fill="#002de4"/><g fill="#9dc3ff"><path d="M1 20v10h1V19H1v1zm11-5v9h1V14h-1v1zm-2-3V7H9v2H8v2H7v2H6v2H5v2H4v2H3v7h1v-1h1v-1h3v1h1V14h1v-2z"/><path d="M3 17H2v2h1v-2z"/><path d="M4 16v-1H3v2h1v-1z"/><path d="M5 14v-1H4v2h1v-1z"/><path d="M6 12v-1H5v2h1v-1z"/><path d="M7 10V9H6v2h1v-1z"/><path d="M8 8V7H7v2h1V8z"/><path d="M9 6h1V5h1v9h1V7h1V5h-1V3h-1V1h-1v2H9v2H8v2h1V6z"/><path d="M11 23v-9h-1v13h1v3h1v-6h-1v-1zm7-12h-1v-1h-1V9h-1V8h-1V7h-1v7h1v10h1v-8h1v-1h3v-3h-1v-1zm30 8v11h1V19h-1zm-9-4v9h-1v6h1v-3h1V14h-1v1z"/><path d="M46 18v-1h-1v-2h-1v-2h-1v-2h-1V9h-1V7h-1v7h1v11h1v-1h3v1h1v1h1v-7h-1v-1z"/><path d="M48 17h-1v2h1v-2z"/><path d="M46 17h1v-2h-1v2z"/><path d="M45 15h1v-2h-1v2z"/><path d="M44 13h1v-2h-1v2z"/><path d="M43 11h1V9h-1v2z"/><path d="M42 9h1V7h-1v2z"/><path d="M38 8v6h1V5h1v1h1v1h1V5h-1V3h-1V1h-1v2h-1v2h-1v2h1v1z"/><path d="M38 22v-8h-1v10h1v-2z"/><path d="M37 12V7h-1v1h-1v1h-1v1h-1v1h-1v1h-1v3h3v1h1v8h1V14h1v-2z"/></g><g fill="#1973ff"><path d="M12 3h-1v2h1V3zM4 18v1h1v-2H4v1z"/><path d="M5 16v1h1v-2H5v1z"/><path d="M6 14v1h1v-2H6v1z"/><path d="M7 12v1h1v-2H7v1z"/><path d="M8 10v1h1V9H8v1zm7 5h1v1h-1zM9 7h1v1H9zM1 27v1h1v-2H1v1zm6-3h1v-1H5v1h2z"/><path d="M8 24h1v1H8zm5-19h-1v2h1V5zm-1 18h1v1h-1zm-1 5h1v1h-1z"/><path d="M3 20v6h1v-1h1v-1H4v-5H3v1zm11 2h1v1h-1zM13 7h1v1h-1zm2 2h1v1h-1z"/><path d="M16 10h1v1h-1z"/><path d="M17 11h1v1h-1z"/><path d="M18 12h1v1h-1zm-5 1h1v1h-1zm-3 13h1v1h-1zm4-18h1v1h-1zm32 9h-1v2h1v-2z"/><path d="M45 15h-1v2h1v-2z"/><path d="M44 13h-1v2h1v-2z"/><path d="M43 11h-1v2h1v-2z"/><path d="M42 9h-1v2h1V9zm-8 6h1v1h-1zm6-8h1v1h-1zm8 19v2h1v-2h-1zm-4-3h-2v1h3v-1h-1z"/><path d="M41 24h1v1h-1zM39 4V3h-1v2h1V4z"/><path d="M38 6V5h-1v2h1V6zm-1 17h1v1h-1zm1 5h1v1h-1zm8-8v4h-1v1h1v1h1v-7h-1v1z"/><path d="M35 22h1v1h-1zm1-15h1v1h-1zm-2 2h1v1h-1z"/><path d="M33 10h1v1h-1z"/><path d="M32 11h1v1h-1z"/><path d="M31 12h1v1h-1zm5 1h1v1h-1zm3 13h1v1h-1zM35 8h1v1h-1z"/></g><path d="M10 1h1v1h-1zm1 28h1v1h-1zm3-6h1v1h-1zM1 29v1h1v-2H1v1zM39 1h1v1h-1zm-1 28h1v1h-1zm-3-6h1v1h-1zm13 5v2h1v-2h-1z" fill="#fff"/></svg>