<svg xmlns="http://www.w3.org/2000/svg" viewBox="0 0 20 31"><path d="M1 12v-1h1v-1h1V9h1V8h1V7h1V5h1V3h1V1h1V0h1v1h1v1h1v2h1v2h1v2h1v2h1v2h1v2h1v2h1v3h1v11h-1v1h-1v-1h-1v-3h-1v-1h-1v-1h-3v1h-1v1h-1v3H9v1H8v-1H7v-6H6V14H5v1H4v1H1v-1H0v-3h1z" fill="#002de4"/><g fill="#1973ff"><path d="M19 20v10h-1V19h1v1zM8 15v10H7V14h1v1zm2-3V7h1v2h1v2h1v2h1v2h1v2h1v2h1v7h-1v-1h-1v-1h-3v1h-1V14h-1v-2z"/><path d="M17 17h1v2h-1v-2z"/><path d="M16 16v-1h1v2h-1v-1z"/><path d="M15 14v-1h1v2h-1v-1z"/><path d="M14 12v-1h1v2h-1v-1z"/><path d="M13 10V9h1v2h-1v-1z"/><path d="M12 8V7h1v2h-1V8z"/><path d="M11 6h-1V5H9v9H8V7H7V5h1V3h1V1h1v2h1v2h1v2h-1V6z"/><path d="M2 12v-1h1v-1h1V9h1V8h1V7h1v7H6v-1H5v1H4v1H1v-3h1zm7 12V14h1v13H9v3H8v-5h1v-1z"/></g><g fill="#9dc3ff"><path d="M19 20v6h-1v-7h1v1zM8 15v8H7v-9h1v1zm2 0v11H9v2H8v-3h1V14h1v1z"/><path d="M10 12V8h1v3h1v2h1v2h1v2h1v2h1v5h-1v-1h-3v1h-1V14h-1v-2zm8 6v1h-1v-2h1v1z"/><path d="M17 16v1h-1v-2h1v1z"/><path d="M16 14v1h-1v-2h1v1z"/><path d="M15 12v1h-1v-2h1v1z"/><path d="M14 10v1h-1V9h1v1z"/><path d="M13 8v1h-1V7h1v1z"/><path d="M9 3V1h1v2h1v2h1v2h-1V6h-1V5H9V3z"/><path d="M8 12V5h1v9H8v-2zm-6 1v-1h1v-1h1v-1h1V9h1V8h1v5H6v-1H5v1H4v1H3v1H1v-2h1z"/></g><path d="M9 1h1v1H9zM8 29h1v1H8zm11 1h-1v-2h1v2z" fill="#fff"/></svg>