<svg xmlns="http://www.w3.org/2000/svg" viewBox="0 0 20 31"><path d="M19 12v-1h-1v-1h-1V9h-1V8h-1V7h-1V5h-1V3h-1V1h-1V0h-1v1H9v1H8v2H7v2H6v2H5v2H4v2H3v2H2v2H1v3H0v11h1v1h1v-1h1v-3h1v-1h1v-1h3v1h1v1h1v3h1v1h1v-1h1v-6h1V14h1v1h1v1h3v-1h1v-3h-1z" fill="#002de4"/><g fill="#1973ff"><path d="M1 20v10h1V19H1v1zm11-5v10h1V14h-1v1zm-2-3V7H9v2H8v2H7v2H6v2H5v2H4v2H3v7h1v-1h1v-1h3v1h1V14h1v-2z"/><path d="M3 17H2v2h1v-2z"/><path d="M4 16v-1H3v2h1v-1z"/><path d="M5 14v-1H4v2h1v-1z"/><path d="M6 12v-1H5v2h1v-1z"/><path d="M7 10V9H6v2h1v-1z"/><path d="M8 8V7H7v2h1V8z"/><path d="M9 6h1V5h1v9h1V7h1V5h-1V3h-1V1h-1v2H9v2H8v2h1V6z"/><path d="M18 12v-1h-1v-1h-1V9h-1V8h-1V7h-1v7h1v-1h1v1h1v1h3v-3h-1zm-7 12V14h-1v13h1v3h1v-5h-1v-1z"/></g><g fill="#9dc3ff"><path d="M1 20v6h1v-7H1v1zm11-5v8h1v-9h-1v1zm-2 0v11h1v2h1v-3h-1V14h-1v1z"/><path d="M10 12V8H9v3H8v2H7v2H6v2H5v2H4v5h1v-1h3v1h1V14h1v-2zm-8 6v1h1v-2H2v1z"/><path d="M3 16v1h1v-2H3v1z"/><path d="M4 14v1h1v-2H4v1z"/><path d="M5 12v1h1v-2H5v1z"/><path d="M6 10v1h1V9H6v1z"/><path d="M7 8v1h1V7H7v1z"/><path d="M11 3V1h-1v2H9v2H8v2h1V6h1V5h1V3z"/><path d="M12 12V5h-1v9h1v-2zm6 1v-1h-1v-1h-1v-1h-1V9h-1V8h-1v5h1v-1h1v1h1v1h1v1h2v-2h-1z"/></g><path d="M10 1h1v1h-1zm1 28h1v1h-1zM1 30h1v-2H1v2z" fill="#fff"/></svg>