<svg xmlns="http://www.w3.org/2000/svg" viewBox="0 0 26 14"><path d="M25 0v1h-1v2h-1v1h-1v2h-1v1h-1v2h-1v4h2v1h4V8h1V0z" fill="#002de4"/><path d="M24 3v1h-1v3h2V3zm-2 5V7h-1v2h-1v3h2v1h2V8h-1z" fill="#1973ff"/><path d="M24 3v1h-1v3h1V5h1V3zm-2 4h-1v2h-1v3h1v-1h1V9h1V8h-1z" fill="#9dc3ff"/><path d="M1 0v1h1v2h1v1h1v2h1v1h1v2h1v4H5v1H1V8H0V0z" fill="#002de4"/><path d="M2 3v1h1v3H1V3zm2 5V7h1v2h1v3H4v1H2V8h1z" fill="#1973ff"/><path d="M2 3v1h1v3H2V5H1V3zm2 4h1v2h1v3H5v-1H4V9H3V8h1z" fill="#9dc3ff"/></svg>