<?xml version="1.0" encoding="utf-8"?>
<!-- Generator: Adobe Illustrator 25.2.1, SVG Export Plug-In . SVG Version: 6.00 Build 0)  -->
<svg version="1.1" id="Layer_1" xmlns:v="https://vecta.io/nano"
	 xmlns="http://www.w3.org/2000/svg" xmlns:xlink="http://www.w3.org/1999/xlink" x="0px" y="0px" viewBox="0 0 40 20"
	 style="enable-background:new 0 0 40 20;" xml:space="preserve">
<style type="text/css">
	.st0{fill:#501E87;}
	.st1{fill:#824EE2;}
	.st2{fill:#FFFFFF;}
</style>
<g>
	<path class="st0" d="M3,20h34V0h-2v1h-1v1h-1v1h-1v1h-1v1h-1v1h-8v1h-4V6h-8V5H9V4H8V3H7V2H6V1H5V0H3V20z"/>
	<path class="st1" d="M35,2h-1v1h-1v1h-1v1h-1v1h-1v1h-8v1h-4V7h-8V6H9V5H8V4H7V3H6V2H5V1H4v18h32V1h-1V2z"/>
	<path class="st0" d="M33,10h-1V7h-1v4h3v-1H33z M32,12h-1v1h2v1h-2v3h3v-1h-2v-1h2v-3h-1H32z M7,12H6v1h2v1H6v3h3v-1H7v-1h2v-3H8H7
		z M7,10V7H6v4h3v-1H8H7z"/>
	<path class="st2" d="M27,13v-1h-1v-1h-1v-1h-3v1h-1v1h-2v1h-1v1h-3v-1h-1v-3h1V9h3v1h1v1h1V9h-1V8h-1V7h-3v1h-1v1h-1v1h-1v3h1v1h1
		v1h1v1h3v-1h1v-1h2v-1h1v-1h3v1h1v3h-1v1h-3v-1h-1v-1h-1v2h1v1h1v1h3v-1h1v-1h1v-1h1v-3H27z"/>
</g>
</svg>
