<svg xmlns="http://www.w3.org/2000/svg" viewBox="0 0 40 21"><path d="M3,21h34V1h-2v1h-1v1h-1v1h-1v1h-1v1h-1v1h-8v1h-4V7h-8V6H9V5H8V4H7V3H6V2H5V1H3V21z" fill="#501e87"/><path d="M35,3h-1v1h-1v1h-1v1h-1v1h-1v1h-8v1h-4V8h-8V7H9V6H8V5H7V4H6V3H5V2H4v18h32V2h-1V3z" fill="#824ee2"/><path d="M33 11h-1V8h-1v4h3v-1h-1zm-1 2h-1v1h2v1h-2v3h3v-1h-2v-1h2v-3h-2zM7 13H6v1h2v1H6v3h3v-1H7v-1h2v-3H7zm0-2V8H6v4h3v-1H7z" fill="#501e87"/><path d="M27 14v-1h-1v-1h-1v-1h-3v1h-1v1h-2v1h-1v1h-3v-1h-1v-3h1v-1h3v1h1v1h1v-2h-1V9h-1V8h-3v1h-1v1h-1v1h-1v3h1v1h1v1h1v1h3v-1h1v-1h2v-1h1v-1h3v1h1v3h-1v1h-3v-1h-1v-1h-1v2h1v1h1v1h3v-1h1v-1h1v-1h1v-3h-1z" fill="#fff"/></svg>