<svg xmlns="http://www.w3.org/2000/svg" viewBox="0 0 40 20"><path d="M3,20h34V0h-2v1h-1v1h-1v1h-1v1h-1v1h-1v1h-8v1h-4V6h-8V5H9V4H8V3H7V2H6V1H5V0H3V20z" fill="#501e87"/><path d="M35,2h-1v1h-1v1h-1v1h-1v1h-1v1h-8v1h-4V7h-8V6H9V5H8V4H7V3H6V2H5V1H4v18h32V1h-1V2z" fill="#824ee2"/><path d="M33 10h-1V7h-1v4h3v-1h-1zm-1 2h-1v1h2v1h-2v3h3v-1h-2v-1h2v-3h-2zM7 12H6v1h2v1H6v3h3v-1H7v-1h2v-3H7zm0-2V7H6v4h3v-1H7z" fill="#501e87"/><path d="M27 13v-1h-1v-1h-1v-1h-3v1h-1v1h-2v1h-1v1h-3v-1h-1v-3h1V9h3v1h1v1h1V9h-1V8h-1V7h-3v1h-1v1h-1v1h-1v3h1v1h1v1h1v1h3v-1h1v-1h2v-1h1v-1h3v1h1v3h-1v1h-3v-1h-1v-1h-1v2h1v1h1v1h3v-1h1v-1h1v-1h1v-3h-1z" fill="#fff"/></svg>