<svg xmlns="http://www.w3.org/2000/svg" viewBox="0 0 24 17"><path d="M23 5V4h-1V3h-1V2h-1V1h-7V0h-2v1H4v1H3v1H2v1H1v1H0v12h24V5h-1z" fill="#501e87"/><g fill="#824ee2"><path d="M0 11h1v1H0zm23-5V5h-1V4h-1V3h-1V2h-6v1h1v1h1v1h1v1h1v1h1v1h1v8h4v-1h-2v-5h1v4h1V6h-1zM6 7V6h1V5h1V4h1V3h1V2H4v1H3v1H2v1H1v1H0v4h2v3H1v1h1v1H0v1h4V8h1V7h1z"/><path d="M18 7h-1V6h-1V5h-1V4h-1V3h-1V2h-2v1h-1v1H9v1H8v1H7v1H6v1H5v8h14V8h-1V7z"/></g><path d="M17.2 10.8V10h-.8v-.8h-.8v-.8h-2.2v.8h-.8v.8h-1.5v.8h-.8v.8H8.1v-.8h-.8V8.6h.8v-.8h2.2v.8h.8v.8h.9V7.9h-.8V7h-.8v-.8H8.2V7h-.8v.8h-.8v.8H6v2.2h.8v.8h.8v.8h.8v.6h2.2v-.8h.8v-.8h1.5v-.8h.8V10h2.2v.8h.8V13h-.8v.8h-2.2V13h-.8v-.8H12v1.5h.8v.8h.8v.8h2.2v-.8h.8v-.8h.8V13h.6v-2.2h-.8z" fill="#fff"/></svg>