<svg xmlns="http://www.w3.org/2000/svg" viewBox="0 0 42 17"><path d="M41 15h-7V8h-1V7h-1V6h-1V5h-1V4h-1V3h-1V2h-3V1h-7V0h-2v1H9v1H6v1H5v1H4v1H3v1H2v1H1v1H0v9h42v-2h-1z" fill="#501e87"/><g fill="#824ee2"><path d="M32 8V7h-1V6h-1V5h-1V4h-1V3h-3V2h-6v1h1v1h1v1h1v1h1v1h1v1h1v8h8V8h-1zm-4 7h-1v-5h1v4h1v1h-1zm4-4v2h-1v1h1v1h-2v-3h1v-1h-1v-1h2v1zM11 7V6h1V5h1V4h1V3h1V2H9v1H6v1H5v1H4v1H3v1H2v1H1v8h8V8h1V7h1zm-8 8H2v-5h1v4h1v1H3zm3 0H5v-3h1v-1H5v-1h2v3H6v1h1v1H6z"/><path d="M23 7h-1V6h-1V5h-1V4h-1V3h-1V2h-2v1h-1v1h-1v1h-1v1h-1v1h-1v1h-1v8h14V8h-1V7z"/></g><path d="M22.2 10.8V10h-.8v-.8h-.8v-.8h-2.2v.8h-.8v.8h-1.5v.8h-.8v.8h-2.2v-.8h-.8V8.6h.8v-.8h2.2v.8h.8v.8h.9V7.9h-.8V7h-.8v-.8h-2.2V7h-.8v.8h-.8v.8H11v2.2h.8v.8h.8v.8h.8v.6h2.2v-.8h.8v-.8h1.5v-.8h.8V10h2.2v.8h.8V13h-.8v.8h-2.2V13h-.8v-.8H17v1.5h.8v.8h.8v.8h2.2v-.8h.8v-.8h.8V13h.6v-2.2h-.8z" fill="#fff"/></svg>