<svg xmlns="http://www.w3.org/2000/svg" viewBox="0 0 42 17"><path d="M41 8V7h-1V6h-1V5h-1V4h-1V3h-1V2h-3V1h-7V0h-2v1h-7v1h-3v1h-1v1h-1v1h-1v1h-1v1H9v1H8v7H0v2h42V8z" fill="#501e87"/><g fill="#824ee2"><path d="M40 8V7h-1V6h-1V5h-1V4h-1V3h-3V2h-6v1h1v1h1v1h1v1h1v1h1v1h1v8h8V8h-1zM19 7V6h1V5h1V4h1V3h1V2h-6v1h-3v1h-1v1h-1v1h-1v1h-1v1H9v8h8V8h1V7h1z"/><path d="M31 7h-1V6h-1V5h-1V4h-1V3h-1V2h-2v1h-1v1h-1v1h-1v1h-1v1h-1v1h-1v8h14V8h-1z"/></g><path d="M30.2 10.8V10h-.7v-.8h-.7v-.7h-2.3v.7h-.7v.8h-1.6v.8h-.7v.7h-2.3v-.7h-.7V8.5h.7v-.7h2.3v.7h.7v.7h.8V7.8h-.8V7h-.7v-.8h-2.3V7h-.7v.8h-.7v.7H19v2.3h.8v.7h.7v.7h.7v.8h2.3v-.8h.7v-.7h1.6v-.7h.7V10h2.3v.8h.7V13h-.7v.8h-2.3V13h-.7v-.8H25v1.6h.8v.7h.7v.7h2.3v-.7h.7v-.7h.7V13h.8v-2.2z" fill="#fff"/><path d="M13 10v1h1v1h-1v3h2v-1h-1v-1h1v-3h-1zm26 0h-1v1h1v1h-1v3h2v-1h-1v-1h1v-3zm-28 3v-3h-1v5h2v-1h-1zm25 0v-3h-1v5h2v-1h-1z" fill="#501e87"/></svg>