<svg xmlns="http://www.w3.org/2000/svg" viewBox="0 0 40 21"><path d="M3,1v20h34V1h-2v1h-1v1h-1v1h-1v1h-1v1h-1v1h-8v1h-4V7h-8V6H9V5H8V4H7V3H6V2H5V1H3z" fill="#7d7d7d"/><path d="M35,3h-1v1h-1v1h-1v1h-1v1h-1v1h-8v1h-4V8h-8V7H9V6H8V5H7V4H6V3H5V2H4v18h32V2h-1V3z"/><g fill="#f90"><path d="M22.2 9.6h.6v.6h-.6v-.6z"/><path d="M20.9 12.7h.7v-1.3h.6v-1.2h-.6v.6h-.7v.6h-.6v.7h-.6v.6h-.6v.6h-.6v.6h-.6v.6h-.6v.6h1.8v1.2h-.6v1.3h-.6v1.2h.6v-.6h.6v-.6h.6v-.7h.6v-.6h.6v-.6h.7v-.6h.6v-.6h.6v-.6h-1.9c0 0 0-1.2 0-1.2z"/><path d="M17.3 18.8h.6v.6h-.6v-.6z"/></g><path d="M32 9v2h-1V9h-1v5h1v-2h1v2h1V9h-1zm-5 6h-1v5.1h3V15h-2zm1 2v2h-1v-3h1v1zm-1-8h-1v3h2v1h-2v1h3v-3h-2v-1h2V9h-2zm4 6h-1v1h1v4.1h1V16h1v-1h-2zm-19 0h-1v5.1h1V18h2v-3h-2zm1 2h-1v-1h1v1zm-1-8h-1v5h1v-4h1v4h1V9h-2zM8 9H7v3h2v1H7v1h3v-3H8v-1h2V9H8zm0 6H7v5.1h1V18h1v2.1h1V15H8zm1 2H8v-1h1v1z" fill="#7d7d7d"/></svg>