<svg xmlns="http://www.w3.org/2000/svg" viewBox="0 0 40 20"><path d="M3,0v20h34V0h-2v1h-1v1h-1v1h-1v1h-1v1h-1v1h-8v1h-4V6h-8V5H9V4H8V3H7V2H6V1H5V0H3z" fill="#7d7d7d"/><path d="M35,2h-1v1h-1v1h-1v1h-1v1h-1v1h-8v1h-4V7h-8V6H9V5H8V4H7V3H6V2H5V1H4v18h32V1h-1V2z"/><g fill="#f90"><path d="M22.2 8.6h.6v.6h-.6v-.6z"/><path d="M20.9 11.7h.7v-1.3h.6V9.2h-.6v.6h-.7v.6h-.6v.7h-.6v.6h-.6v.6h-.6v.6h-.6v.6h-.6v.6h1.8v1.2h-.6v1.3h-.6v1.2h.6v-.6h.6v-.6h.6v-.7h.6v-.6h.6v-.6h.7v-.6h.6v-.6h.6v-.6h-1.9v-1.2z"/><path d="M17.3 17.8h.6v.6h-.6v-.6z"/></g><path d="M32 8v2h-1V8h-1v5h1v-2h1v2h1V8h-1zm-5 6h-1v5.1h3V14h-2zm1 2v2h-1v-3h1v1zm-1-8h-1v3h2v1h-2v1h3v-3h-2V9h2V8h-2zm4 6h-1v1h1v4.1h1V15h1v-1h-2zm-19 0h-1v5.1h1V17h2v-3h-2zm1 2h-1v-1h1v1zm-1-8h-1v5h1V9h1v4h1V8h-2zM8 8H7v3h2v1H7v1h3v-3H8V9h2V8H8zm0 6H7v5.1h1V17h1v2.1h1V14H8zm1 2H8v-1h1v1z" fill="#7d7d7d"/></svg>