<?xml version="1.0" encoding="utf-8"?>
<!-- Generator: Adobe Illustrator 25.2.1, SVG Export Plug-In . SVG Version: 6.00 Build 0)  -->
<svg version="1.1" id="Layer_1" xmlns:v="https://vecta.io/nano"
	 xmlns="http://www.w3.org/2000/svg" xmlns:xlink="http://www.w3.org/1999/xlink" x="0px" y="0px" viewBox="0 0 40 20"
	 style="enable-background:new 0 0 40 20;" xml:space="preserve">
<style type="text/css">
	.st0{fill:#7D7D7D;}
	.st1{fill:#FF9900;}
</style>
<g>
	<path class="st0" d="M3,0v20h34V0h-2v1h-1v1h-1v1h-1v1h-1v1h-1v1h-8v1h-4V6h-8V5H9V4H8V3H7V2H6V1H5V0H3z"/>
	<path d="M35,2h-1v1h-1v1h-1v1h-1v1h-1v1h-8v1h-4V7h-8V6H9V5H8V4H7V3H6V2H5V1H4v18h32V1h-1V2z"/>
	<g>
		<path class="st1" d="M22.2,8.6h0.6v0.6h-0.6V8.6z"/>
		<path class="st1" d="M20.9,11.7h0.7v-1.3h0.6V9.2h-0.6v0.6h-0.7v0.6h-0.6v0.7h-0.6v0.6h-0.6v0.6h-0.6v0.6h-0.6v0.6h-0.6v0.6h1.8
			v1.2h-0.6v1.3h-0.6v1.2h0.6v-0.6h0.6v-0.6h0.6v-0.7h0.6v-0.6h0.6v-0.6h0.7v-0.6h0.6v-0.6h0.6v-0.6h-1.9v-0.6V11.7z"/>
		<path class="st1" d="M17.3,17.8h0.6v0.6h-0.6V17.8z"/>
	</g>
	<path class="st0" d="M32,8v2h-1V8h-1v5h1v-2h1v2h1V8H32z M27,14h-1v5.1h3V14H27z M28,16v2h-1v-3h1V16z M27,8h-1v3h2v1h-2v1h3v-3h-2
		V9h2V8h-1H27z M31,14h-1v1h1v4.1h1V15h1v-1h-1H31z M12,14h-1v5.1h1V17h2v-3H12z M13,16h-1v-1h1V16z M12,8h-1v5h1V9h1v4h1V8h-1H12z
		 M8,8H7v3h2v1H7v1h3v-3H8V9h2V8H9H8z M8,14H7v5.1h1V17h1v2.1h1V14H8z M9,16H8v-1h1V16z"/>
</g>
</svg>
