<svg xmlns="http://www.w3.org/2000/svg" viewBox="0 0 42 17"><path d="M41 8V7h-1V6h-1V5h-1V4h-1V3h-1V2h-3V1h-7V0h-2v1h-7v1h-3v1h-1v1h-1v1h-1v1h-1v1H9v1H8v7H0v2h42V8z" fill="#7d7d7d"/><path d="M40 8V7h-1V6h-1V5h-1V4h-1V3h-3V2h-6v1h1v1h1v1h1v1h1v1h1v1h1v8h8V8zM19 7V6h1V5h1V4h1V3h1V2h-6v1h-3v1h-1v1h-1v1h-1v1h-1v1H9v8h8V8h1V7z"/><path d="M31 7h-1V6h-1V5h-1V4h-1V3h-1V2h-2v1h-1v1h-1v1h-1v1h-1v1h-1v1h-1v8h14V8h-1z"/><g fill="#f90"><path d="M26.8 5.2h.6v.6h-.6z"/><path d="M25.6 8.3h.6V7.1h.6V5.8h-.6v.6h-.6v.7h-.7v.6h-.6v.6h-.6v.6h-.6v.6h-.6v.6h-.6v.6h1.8v1.2h-.6v1.3h-.6v1.2h.6v-.6h.6v-.6h.6v-.6h.6v-.7h.7v-.6h.6v-.6h.6v-.6h.6v-.6h-1.8v-.6z"/><path d="M21.9 14.4h.6v.6h-.6z"/></g></svg>