<svg xmlns="http://www.w3.org/2000/svg" viewBox="0 0 42 17"><path d="M34 15V8h-1V7h-1V6h-1V5h-1V4h-1V3h-1V2h-3V1h-7V0h-2v1H9v1H6v1H5v1H4v1H3v1H2v1H1v1H0v9h42v-2h-8z" fill="#7d7d7d"/><path d="M32 8V7h-1V6h-1V5h-1V4h-1V3h-3V2h-6v1h1v1h1v1h1v1h1v1h1v1h1v8h8V8h-1zM11 7V6h1V5h1V4h1V3h1V2H9v1H6v1H5v1H4v1H3v1H2v1H1v8h8V8h1V7h1z"/><path d="M23 7h-1V6h-1V5h-1V4h-1V3h-1V2h-2v1h-1v1h-1v1h-1v1h-1v1h-1v1h-1v8h14V8h-1V7z"/><g fill="#f90"><path d="M18.8 5.2h.6v.6h-.6z"/><path d="M17.6 8.3h.6v-.6-.6h.6v-.7-.6h-.6v.6h-.6v.7h-.7v.6h-.6v.6h-.6v.6h-.6v.6h-.6v.6h-.6v.6h.6.6.6v.6.6h-.6v.7.6h-.6v.6.6h.6v-.6h.6v-.6h.6v-.6h.6v-.7h.7v-.6h.6v-.6h.6v-.6h.6v-.6h-.6-.6-.6v-.6z"/><path d="M13.9 14.4h.6v.6h-.6z"/></g></svg>