<svg xmlns="http://www.w3.org/2000/svg" viewBox="0 0 24 17"><path d="M23 5V4h-1V3h-1V2h-1V1h-7V0h-2v1H4v1H3v1H2v1H1v1H0v12h24V5h-1z" fill="#7d7d7d"/><path d="M23 6V5h-1V4h-1V3h-1V2h-6v1h1v1h1v1h1v1h1v1h1v1h1v8h4V6h-1zM6 7V6h1V5h1V4h1V3h1V2H4v1H3v1H2v1H1v1H0v10h4V8h1V7h1z"/><path d="M18 7h-1V6h-1V5h-1V4h-1V3h-1V2h-2v1h-1v1H9v1H8v1H7v1H6v1H5v8h14V8h-1V7z"/><path d="M13.8 5.2h.6v.6h-.6zm-1.2 3.1h.6V7.1h.6V5.9h-.6v.6h-.6v.6H12v.6h-.6v.6h-.6v.6h-.6v.6h-.6v.6H9v.6h1.8v1.2h-.6v1.2h-.6v1.2h.6v-.6h.6v-.6h.6v-.6h.6v-.6h.6v-.6h.6v-.6h.6v-.6h.6v-.6h-1.8V8.3zm-3.7 6.1h.6v.6h-.6z" fill="#f90"/></svg>