<svg xmlns="http://www.w3.org/2000/svg" viewBox="0 0 7 14"><path d="M0 3v1h1v1h1v1h1v2H2v1H1v3h1v1h1v1h1v-1h1v-1h1V9H5V8H4V6h1V5h1V4h1V3H6V2H5V1H4V0H3v1H2v1H1v1H0zm3 6h1v3H3V9z"/><path d="M2 3V2h1V1h1v1h1v1h1v1H5v1H4v1H3V5H2V4H1V3z" fill="#b132ff"/><g fill="#ffc03c"><path d="M4 9h1v3H4V9zM3 9v3H2V9h1z"/><path d="M3 8h1v1H3zm0 4h1v1H3z"/></g><g fill="#c260ff"><path d="M4 4v2H3V4h1z"/><path d="M4 2h1v1h1v1H4V2z"/></g><path d="M2 3V2h1v2H1V3h1z" fill="#edd3fd"/><g fill="#dea8ff"><path d="M3 1h1v3H3V1z"/><path d="M2 4h1v1H2z"/></g><path d="M3 9v3H2V9h1z" fill="#ffe600"/></svg>