<svg xmlns="http://www.w3.org/2000/svg" viewBox="0 0 8 14"  xmlns:v="https://vecta.io/nano"><path d="M6 6V5h1V4h1V3H7V2H6V1H5V0H3v1H2v1H1v1H0v1h1v1h1v1h1v1H2v1H1v1H0v3h1v1h1v1h4v-1h1v-1h1V9H7V8H6V7H5V6h1zm0 7H2v-1H1V9h1V8h4v1h1v3H6v1z"/><path d="M6 3V2H5V1H3v1H2v1H1v1h1v1h1v1h2V5h1V4h1V3z" fill="#b132ff"/><path d="M3 1v1H2v1H1v1h3V1z" fill="#c260ff"/><path d="M6 3V2H5V1H4v3h3V3z" fill="#edd3fd"/><path d="M5 4H4v2h1V5h1V4z" fill="#d596fb"/><g fill="#ffe600"><path d="M2 10V9H1v3h1v-1z"/><path d="M4 9h2V8H2v1h1z"/><path d="M6 9v3h1V9z"/><path d="M4 12H2v1h4v-1H5z"/></g><g fill="#ffc03c"><path d="M2 10V9H1v3h1v-1z"/><path d="M4 9V8H2v1h1zm-1 4h1v-1H2v1z"/></g></svg>