<svg xmlns="http://www.w3.org/2000/svg" viewBox="0 0 7 14"><path d="M6 3V2H5V1H4V0H3v1H2v1H1v1H0v1h1v1h1v1h1v2H2v1H1v3h1v1h1v1h1v-1h1v-1h1V9H5V8H4V6h1V5h1V4h1V3H6zm-2 9H3V9h1v3z"/><path d="M5 3V2H4V1H3v1H2v1H1v1h1v1h1v1h1V5h1V4h1V3z" fill="#b132ff"/><g fill="#ffc03c"><path d="M3 9H2v3h1V9zm1 0v3h1V9H4z"/><path d="M3 8h1v1H3zm0 4h1v1H3z"/></g><g fill="#c260ff"><path d="M3 4v2h1V4H3z"/><path d="M3 2H2v1H1v1h2V2z"/></g><path d="M5 3V2H4v2h2V3H5z" fill="#edd3fd"/><g fill="#dea8ff"><path d="M4 1H3v3h1V1z"/><path d="M4 4h1v1H4z"/></g><path d="M4 9v3h1V9H4z" fill="#ffe600"/></svg>