<svg xmlns="http://www.w3.org/2000/svg" viewBox="0 0 34 12"  xmlns:v="https://vecta.io/nano"><g fill="#ffc03c"><path d="M19 9V8h-1V7h-2v1h-1v1h-2v1h2v1h1v1h2v-1h1v-1h2V9h-1zM4 4h1v1H4z"/><path d="M3 3h1v1H3z"/><path d="M2 2h1v1H2z"/><path d="M1 1h1v1H1z"/><path d="M0 0h1v1H0zm5 5h1v1H5z"/><path d="M7 6H6v1h2V6z"/><path d="M9 7H8v1h2V7zm20-3h1v1h-1z"/><path d="M30 3h1v1h-1z"/><path d="M31 2h1v1h-1z"/><path d="M32 1h1v1h-1z"/><path d="M33 0h1v1h-1zm-5 5h1v1h-1z"/><path d="M26 6v1h2V6h-1z"/><path d="M24 7v1h2V7h-1z"/><path d="M22 8h-1v1h3V8h-1zM12 8h-2v1h3V8z"/></g><path d="M18 9V8h-2v1h-1v1h1v1h2v-1h1V9z" fill="#ffeabe"/><path d="M17 9h-1v1h2V9z" fill="#64438e"/></svg>