<svg xmlns="http://www.w3.org/2000/svg" xmlns:xlink="http://www.w3.org/1999/xlink" viewBox="0 0 34 45"><path d="M32 8V6h-2V4h-4V2h-4V0H12v2H8v2H4v2H2v2H0v37h34V8h-2z" fill="#9300d7"/><path d="M30 8V6h-4V4h-4V2H12v2H8v2H4v2H2v36h30V8h-2z" fill="#ac27ff"/><g fill="#c260ff"><path d="M30 9h-1v1h2V9h-1z"/><path d="M31 8h1v1h-1zm0 2h1v1h-1zm0 2h1v1h-1zm0 2h1v1h-1z"/><path d="M31 16h1v1h-1zm0 2h1v1h-1zm-2-6h2v-1h-2v1zm0 2h2v-1h-2v1z"/><path d="M29 16h2v-1h-2v1zm0 2h2v-1h-2v1zm0 2h2v-1h-2v1zM27 9h2V8h-2v1z"/><path d="M27 11h2v-1h-2v1zm0 2h2v-1h-2v1zm0 2h2v-1h-2v1zm0 2h2v-1h-2v1z"/><path d="M27 19h2v-1h-2v1zm-2-9h2V9h-2v1zm0 2h2v-1h-2v1zm0 2h2v-1h-2v1z"/><path d="M25 16h2v-1h-2v1zm0 2h2v-1h-2v1zm0 2h2v-1h-2v1zM24 9h1V8h-2v1h1z"/><path d="M23 11h2v-1h-2v1zm0 2h2v-1h-2v1zm0 2h2v-1h-2v1zm0 2h2v-1h-2v1z"/><path d="M23 19h2v-1h-2v1zm-1-9h1V9h-2v1h1zm-1 2h2v-1h-2v1zm0 2h2v-1h-2v1z"/><path d="M21 16h2v-1h-2v1zm0 2h2v-1h-2v1zm0 2h2v-1h-2v1zM19 9h2V8h-2v1z"/><path d="M20 11h1v-1h-2v1h1zm-1 2h2v-1h-2v1zm0 2h2v-1h-2v1zm0 2h2v-1h-2v1z"/><path d="M19 19h2v-1h-2v1zm-2-9h2V9h-2v1zm1 2h1v-1h-2v1h1zm-1 2h2v-1h-2v1z"/><path d="M17 16h2v-1h-2v1zm0 2h2v-1h-2v1zm0 2h2v-1h-2v1zm0-12h-2v1h2V8z"/><path d="M17 10h-2v1h2v-1zm0 2h-2v1h2v-1zm0 2h-2v1h2v-1zm0 2h-2v1h2v-1z"/><path d="M17 18h-2v1h2v-1zm-2-9h-2v1h2V9zm0 2h-2v1h2v-1zm0 2h-2v1h2v-1z"/><path d="M15 15h-2v1h2v-1zm0 2h-2v1h2v-1zm0 2h-2v1h2v-1zM13 8h-2v1h2V8z"/><path d="M13 10h-2v1h2v-1zm0 2h-2v1h2v-1zm0 2h-2v1h2v-1zm0 2h-2v1h2v-1z"/><path d="M13 18h-2v1h2v-1zm-2-9H9v1h2V9zm0 2H9v1h2v-1zm0 2H9v1h2v-1z"/><path d="M11 15H9v1h2v-1zm0 2H9v1h2v-1zm0 2H9v1h2v-1zM9 8H7v1h2V8z"/><path d="M9 10H7v1h2v-1zm0 2H7v1h2v-1zm0 2H7v1h2v-1zm0 2H7v1h2v-1z"/><path d="M9 18H7v1h2v-1zM7 9H5v1h2V9zm0 2H5v1h2v-1zm0 2H5v1h2v-1z"/><path d="M7 15H5v1h2v-1zm0 2H5v1h2v-1zm0 2H5v1h2v-1zM5 8H3v1h2V8zm0 2H3v1h2v-1zm24-3h1v1h-1z"/><path d="M29 6h-2v1h2V6z"/><path d="M26 8h1V7h-2v1h1z"/><path d="M23 7h2V6h-2v1z"/><path d="M21 8h2V7h-2v1z"/><path d="M20 7h1V6h-2v1h1z"/><path d="M18 8h1V7h-2v1h1z"/><path d="M17 6h-2v1h2V6z"/><path d="M15 7h-2v1h2V7z"/><path d="M13 6h-2v1h2V6z"/><path d="M11 7H9v1h2V7z"/><path d="M9 6H7v1h2V6zm16-1h1v1h-1z"/><path d="M25 4h-2v1h2V4z"/><path d="M22 6h1V5h-2v1h1z"/><path d="M19 5h2V4h-2v1z"/><path d="M17 6h2V5h-2v1z"/><path d="M17 4h-2v1h2V4z"/><path d="M15 5h-2v1h2V5z"/><path d="M13 4h-2v1h2V4zm8-1h1v1h-1z"/><path d="M21 2h-2v1h2V2z"/><path d="M18 4h1V3h-2v1h1z"/><path d="M17 2h-2v1h2V2z"/><path d="M15 3h-2v1h2V3z"/><path d="M12 2h1v1h-1zm-1 3H9v1h2V5z"/><path d="M8 4h1v1H8zM7 7H5v1h2V7z"/><path d="M4 6h1v1H4zm1 6H3v1h2v-1zm0 2H3v1h2v-1zm0 2H3v1h2v-1zm0 2H3v1h2v-1z"/><use href="#B"/><path d="M29 22h2v-1h-2v1z"/><path d="M27 21h2v-1h-2v1z"/><path d="M25 22h2v-1h-2v1z"/><path d="M23 21h2v-1h-2v1z"/><path d="M21 22h2v-1h-2v1z"/><path d="M19 21h2v-1h-2v1z"/><path d="M17 22h2v-1h-2v1z"/><path d="M17 20h-2v1h2v-1z"/><path d="M15 21h-2v1h2v-1z"/><path d="M13 20h-2v1h2v-1z"/><path d="M11 21H9v1h2v-1z"/><path d="M9 20H7v1h2v-1z"/><path d="M7 21H5v1h2v-1z"/><path d="M5 20H3v1h2v-1z"/><use href="#B" y="2"/><path d="M29 24h2v-1h-2v1z"/><path d="M27 23h2v-1h-2v1z"/><path d="M25 24h2v-1h-2v1z"/><path d="M23 23h2v-1h-2v1z"/><path d="M21 24h2v-1h-2v1z"/><path d="M19 23h2v-1h-2v1z"/><path d="M17 24h2v-1h-2v1z"/><path d="M17 22h-2v1h2v-1z"/><path d="M15 23h-2v1h2v-1z"/><path d="M13 22h-2v1h2v-1z"/><path d="M11 23H9v1h2v-1z"/><path d="M9 22H7v1h2v-1z"/><path d="M7 23H5v1h2v-1z"/><path d="M5 22H3v1h2v-1z"/><use href="#B" y="4"/><path d="M29 26h2v-1h-2v1z"/><path d="M27 25h2v-1h-2v1z"/><path d="M25 26h2v-1h-2v1z"/><path d="M23 25h2v-1h-2v1z"/><path d="M21 26h2v-1h-2v1z"/><path d="M19 25h2v-1h-2v1z"/><path d="M17 26h2v-1h-2v1z"/><path d="M17 24h-2v1h2v-1z"/><path d="M15 25h-2v1h2v-1z"/><path d="M13 24h-2v1h2v-1z"/><path d="M11 25H9v1h2v-1z"/><path d="M9 24H7v1h2v-1z"/><path d="M7 25H5v1h2v-1z"/><path d="M5 24H3v1h2v-1z"/><use href="#B" y="6"/><path d="M29 28h2v-1h-2v1z"/><path d="M27 27h2v-1h-2v1z"/><path d="M25 28h2v-1h-2v1z"/><path d="M23 27h2v-1h-2v1z"/><path d="M21 28h2v-1h-2v1z"/><path d="M19 27h2v-1h-2v1z"/><path d="M17 28h2v-1h-2v1z"/><path d="M17 26h-2v1h2v-1z"/><path d="M15 27h-2v1h2v-1z"/><path d="M13 26h-2v1h2v-1z"/><path d="M11 27H9v1h2v-1z"/><path d="M9 26H7v1h2v-1z"/><path d="M7 27H5v1h2v-1z"/><path d="M5 26H3v1h2v-1z"/><use href="#B" y="8"/><path d="M29 30h2v-1h-2v1z"/><path d="M27 29h2v-1h-2v1z"/><path d="M25 30h2v-1h-2v1z"/><path d="M23 29h2v-1h-2v1z"/><path d="M21 30h2v-1h-2v1z"/><path d="M19 29h2v-1h-2v1z"/><path d="M17 30h2v-1h-2v1z"/><path d="M17 28h-2v1h2v-1z"/><path d="M15 29h-2v1h2v-1z"/><path d="M13 28h-2v1h2v-1z"/><path d="M11 29H9v1h2v-1z"/><path d="M9 28H7v1h2v-1z"/><path d="M7 29H5v1h2v-1z"/><path d="M5 28H3v1h2v-1z"/><use href="#B" y="10"/><path d="M29 32h2v-1h-2v1z"/><path d="M27 31h2v-1h-2v1z"/><path d="M25 32h2v-1h-2v1z"/><path d="M23 31h2v-1h-2v1z"/><path d="M21 32h2v-1h-2v1z"/><path d="M19 31h2v-1h-2v1z"/><path d="M17 32h2v-1h-2v1z"/><path d="M17 30h-2v1h2v-1z"/><path d="M15 31h-2v1h2v-1z"/><path d="M13 30h-2v1h2v-1z"/><path d="M11 31H9v1h2v-1z"/><path d="M9 30H7v1h2v-1z"/><path d="M7 31H5v1h2v-1z"/><path d="M5 30H3v1h2v-1z"/><use href="#B" y="12"/><path d="M29 34h2v-1h-2v1z"/><path d="M27 33h2v-1h-2v1z"/><path d="M25 34h2v-1h-2v1z"/><path d="M23 33h2v-1h-2v1z"/><path d="M21 34h2v-1h-2v1z"/><path d="M19 33h2v-1h-2v1z"/><path d="M17 34h2v-1h-2v1z"/><path d="M17 32h-2v1h2v-1z"/><path d="M15 33h-2v1h2v-1z"/><path d="M13 32h-2v1h2v-1z"/><path d="M11 33H9v1h2v-1z"/><path d="M9 32H7v1h2v-1z"/><path d="M7 33H5v1h2v-1z"/><path d="M5 32H3v1h2v-1z"/><use href="#B" y="14"/><path d="M29 36h2v-1h-2v1z"/><path d="M27 35h2v-1h-2v1z"/><path d="M25 36h2v-1h-2v1z"/><path d="M23 35h2v-1h-2v1z"/><path d="M21 36h2v-1h-2v1z"/><path d="M19 35h2v-1h-2v1z"/><path d="M17 36h2v-1h-2v1z"/><path d="M17 34h-2v1h2v-1z"/><path d="M15 35h-2v1h2v-1z"/><path d="M13 34h-2v1h2v-1z"/><path d="M11 35H9v1h2v-1z"/><path d="M9 34H7v1h2v-1z"/><path d="M7 35H5v1h2v-1z"/><path d="M5 34H3v1h2v-1z"/><use href="#B" y="16"/><path d="M29 38h2v-1h-2v1z"/><path d="M27 37h2v-1h-2v1z"/><path d="M25 38h2v-1h-2v1z"/><path d="M23 37h2v-1h-2v1z"/><path d="M21 38h2v-1h-2v1z"/><path d="M19 37h2v-1h-2v1z"/><path d="M18 37h-1v1h2v-1h-1z"/><path d="M16 36h-1v1h2v-1h-1z"/><path d="M14 37h-1v1h2v-1h-1z"/><path d="M13 36h-2v1h2v-1z"/><path d="M11 37H9v1h2v-1z"/><path d="M9 36H7v1h2v-1z"/><path d="M7 37H5v1h2v-1z"/><path d="M5 36H3v1h2v-1z"/><use href="#B" y="18"/><path d="M29 40h2v-1h-2v1z"/><path d="M27 39h2v-1h-2v1z"/><path d="M25 40h2v-1h-2v1z"/><path d="M23 39h2v-1h-2v1z"/><path d="M22 39h-1v1h2v-1h-1z"/><path d="M20 38h-1v1h2v-1h-1z"/><path d="M18 39h-1v1h2v-1h-1z"/><path d="M16 38h-1v1h2v-1h-1z"/><path d="M14 39h-1v1h2v-1h-1z"/><path d="M12 38h-1v1h2v-1h-1z"/><path d="M10 39H9v1h2v-1h-1z"/><path d="M9 38H7v1h2v-1z"/><path d="M7 39H5v1h2v-1z"/><path d="M5 38H3v1h2v-1z"/><use href="#B" y="20"/><path d="M29 42h2v-1h-2v1z"/><path d="M27 41h2v-1h-2v1z"/><path d="M26 41h-1v1h2v-1h-1z"/><path d="M24 40h-1v1h2v-1h-1z"/><path d="M22 41h-1v1h2v-1h-1z"/><path d="M20 40h-1v1h2v-1h-1z"/><path d="M18 41h-1v1h2v-1h-1z"/><path d="M16 40h-1v1h2v-1h-1z"/><path d="M14 41h-1v1h2v-1h-1z"/><path d="M12 40h-1v1h2v-1h-1z"/><path d="M10 41H9v1h2v-1h-1z"/><path d="M8 40H7v1h2v-1H8z"/><path d="M6 41H5v1h2v-1H6z"/><path d="M5 40H3v1h2v-1z"/><use href="#B" y="22"/><path d="M29 44h2v-1h-2v1z"/><path d="M28 42h-1v1h2v-1h-1z"/><path d="M25 44h2v-1h-2v1z"/><path d="M24 42h-1v1h2v-1h-1z"/><path d="M21 44h2v-1h-2v1z"/><path d="M20 42h-1v1h2v-1h-1z"/><path d="M17 44h2v-1h-2v1z"/><path d="M16 42h-1v1h2v-1h-1z"/><path d="M13 44h2v-1h-2v1z"/><path d="M12 42h-1v1h2v-1h-1z"/><path d="M9 44h2v-1H9v1z"/><path d="M8 42H7v1h2v-1H8z"/><path d="M5 44h2v-1H5v1z"/><path d="M4 42H3v1h2v-1H4z"/><path d="M2 43h1v1H2zm0-26h1v1H2zm0-2h1v1H2zm0-2h1v1H2zm0-2h1v1H2zm0-2h1v1H2z"/></g><defs ><path id="B" d="M2 19h1v1H2zm29 1h1v1h-1z"/></defs></svg>