<svg xmlns="http://www.w3.org/2000/svg" viewBox="0 0 26 45"><path d="M25 9V7h-1V6h-2V4h-2V2h-4V0h-6v2H6v2H4v2H2v2H1v2H0v35h17V19h1v-1h2v-1h2v-1h2v-1h1v-1h1V9h-1z" fill="#ffa207"/><path d="M24 9V7h-2V6h-2V4h-4V2h-6v2H6v2H4v2H2v2H1v34h15V18h2v-1h2v-1h2v-1h2v-1h1V9h-1z" fill="#ffc03c"/><g fill="#ffa207"><path d="M23 8h1V7h-2v1h1z"/><path d="M21 7h1V6h-2v1h1zm2 3h1V9h-2v1h1z"/><path d="M20 8v1h2V8h-2zm3 3h-1v1h2v-1h-1z"/><path d="M24 10h1v1h-1zm-3 0h-1v1h2v-1h-1z"/><path d="M18 9v1h2V9h-2zm0 2v1h2v-1h-2zm6 1h1v1h-1z"/><path d="M22 13v1h2v-1h-2z"/><path d="M20 12v1h2v-1h-2z"/><path d="M18 13v1h2v-1h-2z"/><path d="M20 14v1h2v-1h-2z"/><path d="M18 15v1h2v-1h-2zM1 12h1v1H1zm15 0v1h2v-1h-2zM1 10h1v1H1zm15 0v1h2v-1h-2zm1-1h1V8h-2v1h1zm0-2h1V6h-2v1h1zm-2-3h1V3h-2v1h1z"/><path d="M15 6h1V5h-2v1h1zm0 2h1V7h-2v1h1zm0 2h1V9h-2v1h1zm-1 1v1h2v-1h-2zm0 2v1h2v-1h-2zm0 2v1h2v-1h-2zm0 2v1h2v-1h-2zm1 3h1v-1h-2v1h1zm0 2h1v-1h-2v1h1zm0 2h1v-1h-2v1h1zm0 2h1v-1h-2v1h1zm0 2h1v-1h-2v1h1zm0 2h1v-1h-2v1h1zm0 2h1v-1h-2v1h1zm0 2h1v-1h-2v1h1zm0 2h1v-1h-2v1h1zm0 2h1v-1h-2v1h1zm0 2h1v-1h-2v1h1zm0 2h1v-1h-2v1h1zm0 2h1v-1h-2v1h1zM12 4V3h-2v1h2zm0 2V5h-2v1h2zm0 2V7h-2v1h2zm0 2V9h-2v1h2zm0 2v-1h-2v1h2zm-2 1v1h2v-1h-2zm0 2v1h2v-1h-2zm0 2v1h2v-1h-2zm0 2v1h2v-1h-2zm0 2v1h2v-1h-2zm0 2v1h2v-1h-2zm0 2v1h2v-1h-2z"/><path d="M10 27v1h2v-1h-2zm0 2v1h2v-1h-2zm0 2v1h2v-1h-2zm0 2v1h2v-1h-2zm0 2v1h2v-1h-2zm0 2v1h2v-1h-2zm0 2v1h2v-1h-2zm0 2v1h2v-1h-2zm0 2v1h2v-1h-2zm4-40V2h-2v1h2zm0 2V4h-2v1h2zm0 2V6h-2v1h2zm0 2V8h-2v1h2zm0 2v-1h-2v1h2zm-2 1v1h2v-1h-2zm0 2v1h2v-1h-2z"/><path d="M12 16v1h2v-1h-2zm0 2v1h2v-1h-2zm0 2v1h2v-1h-2zm0 2v1h2v-1h-2zm0 2v1h2v-1h-2zm0 2v1h2v-1h-2zm0 2v1h2v-1h-2zm0 2v1h2v-1h-2zm0 2v1h2v-1h-2zm0 2v1h2v-1h-2zm0 2v1h2v-1h-2zm0 2v1h2v-1h-2zm0 2v1h2v-1h-2zm0 2v1h2v-1h-2zM8 6V5H6v1h2zm0 2V7H6v1h2zm0 2V9H6v1h2zm0 2v-1H6v1h2zm0 2v-1H6v1h2zm0 2v-1H6v1h2zm0 2v-1H6v1h2zm0 2v-1H6v1h2zm0 2v-1H6v1h2zm0 2v-1H6v1h2zm0 2v-1H6v1h2zm0 2v-1H6v1h2zm0 2v-1H6v1h2zm0 2v-1H6v1h2zm0 2v-1H6v1h2zm0 2v-1H6v1h2zm0 2v-1H6v1h2zm0 2v-1H6v1h2z"/><path d="M7 41H6v1h2v-1H7zm-1 2v1h2v-1H6zM5 6H4v1h2V6H5zm1 3V8H4v1h2zm0 2v-1H4v1h2zm0 2v-1H4v1h2zm0 2v-1H4v1h2zm0 2v-1H4v1h2zm0 2v-1H4v1h2zm0 2v-1H4v1h2zm0 2v-1H4v1h2zm0 2v-1H4v1h2zm0 2v-1H4v1h2zm0 2v-1H4v1h2zm0 2v-1H4v1h2zm0 2v-1H4v1h2z"/><path d="M6 35v-1H4v1h2zm0 2v-1H4v1h2zm0 2v-1H4v1h2zm0 2v-1H4v1h2zm-1 1H4v1h2v-1H5zm5-37V4H8v1h2zm0 2V6H8v1h2zm0 2V8H8v1h2zm0 2v-1H8v1h2zm0 2v-1H8v1h2zm-2 1v1h2v-1H8zm0 2v1h2v-1H8zm0 2v1h2v-1H8zm0 2v1h2v-1H8zm0 2v1h2v-1H8zm0 2v1h2v-1H8zm0 2v1h2v-1H8zm0 2v1h2v-1H8zm0 2v1h2v-1H8zm0 2v1h2v-1H8zm0 2v1h2v-1H8zm0 2v1h2v-1H8zm0 2v1h2v-1H8zm0 2v1h2v-1H8zm1 2H8v1h2v-1H9zM4 10V9H2v1h2zm0 2v-1H2v1h2zm0 2v-1H2v1h2zm0 2v-1H2v1h2zm0 2v-1H2v1h2zm0 2v-1H2v1h2zm0 2v-1H2v1h2z"/><path d="M4 24v-1H2v1h2zm0 2v-1H2v1h2zm0 2v-1H2v1h2zm0 2v-1H2v1h2zm0 2v-1H2v1h2zm0 2v-1H2v1h2zm0 2v-1H2v1h2zm0 2v-1H2v1h2zm0 2v-1H2v1h2zm0 2v-1H2v1h2zm-2 1v1h2v-1H2zM17 5h1V4h-2v1h1z"/><path d="M19 8h1V7h-2v1h1zm0-2h1V5h-2v1h1zM1 14h1v1H1zm0 2h1v1H1zm0 2h1v1H1zm0 2h1v1H1zm0 4h1v1H1zm0 2h1v1H1zm0-4h1v1H1zm15-8v1h2v-1h-2zm0 2v1h2v-1h-2zM1 28h1v1H1zm0 2h1v1H1zm0 2h1v1H1zm0 2h1v1H1zm0 2h1v1H1zm0 2h1v1H1zm0 2h1v1H1zm0 2h1v1H1z"/></g></svg>