<svg xmlns="http://www.w3.org/2000/svg" viewBox="0 0 26 45"><path d="M25 10V8h-1V6h-2V4h-2V2h-4V0h-6v2H6v2H4v2H2v1H1v2H0v9h1v1h2v1h2v1h2v1h1v23h18V10h-1z" fill="#ffa207"/><path d="M24 10V8h-2V6h-2V4h-4V2h-6v2H6v2H4v1H2v2H1v9h2v1h2v1h2v1h2v23h16V10h-1z" fill="#ffc03c"/><g fill="#ffa207"><path d="M3 7H2v1h2V7H3z"/><path d="M6 7V6H4v1h2zm-2 3V9H2v1h2z"/><path d="M6 9V8H4v1h2zm-5 1h1v1H1z"/><path d="M4 12v-1H2v1h2z"/><path d="M6 11v-1H4v1h2z"/><path d="M8 10V9H6v1h2zm0 2v-1H6v1h2zm-7 0h1v1H1z"/><path d="M4 14v-1H2v1h2z"/><path d="M6 13v-1H4v1h2z"/><path d="M8 14v-1H6v1h2z"/><path d="M6 15v-1H4v1h2z"/><path d="M7 15H6v1h2v-1H7zm-6-1h1v1H1z"/><path d="M4 16v-1H2v1h2z"/><path d="M5 16H4v1h2v-1H5z"/><path d="M3 17H2v1h2v-1H3z"/><path d="M1 16h1v1H1zm6 1H6v1h2v-1H7zm17-5h1v1h-1zm-14 1v-1H8v1h2zm14-3h1v1h-1zm-14 1v-1H8v1h2zm0-2V8H8v1h2zm0-2V6H8v1h2z"/><path d="M12 4V3h-2v1h2zm0 2V5h-2v1h2zm0 2V7h-2v1h2zm0 2V9h-2v1h2zm0 2v-1h-2v1h2zm-1 1h-1v1h2v-1h-1zm0 2h-1v1h2v-1h-1zm0 2h-1v1h2v-1h-1zm0 2h-1v1h2v-1h-1zm1 3v-1h-2v1h2zm0 2v-1h-2v1h2zm0 2v-1h-2v1h2zm0 2v-1h-2v1h2zm0 2v-1h-2v1h2zm0 2v-1h-2v1h2zm0 2v-1h-2v1h2zm0 2v-1h-2v1h2zm0 2v-1h-2v1h2zm0 2v-1h-2v1h2zm0 2v-1h-2v1h2zm-2 1v1h2v-1h-2zm5-39h1V3h-2v1h1zm0 2h1V5h-2v1h1zm0 2h1V7h-2v1h1zm-1 1v1h2V9h-2zm1 3h1v-1h-2v1h1zm-1 1v1h2v-1h-2zm0 2v1h2v-1h-2zm1 2h-1v1h2v-1h-1zm1 3v-1h-2v1h2zm0 2v-1h-2v1h2zm0 2v-1h-2v1h2z"/><path d="M16 26v-1h-2v1h2zm0 2v-1h-2v1h2zm0 2v-1h-2v1h2zm0 2v-1h-2v1h2zm0 2v-1h-2v1h2zm0 2v-1h-2v1h2zm0 2v-1h-2v1h2zm0 2v-1h-2v1h2zm-1 1h-1v1h2v-1h-1zm-1 2v1h2v-1h-2zm0-40V2h-2v1h2zm0 2V4h-2v1h2zm0 2V6h-2v1h2zm0 2V8h-2v1h2zm-2 1v1h2v-1h-2zm2 3v-1h-2v1h2z"/><path d="M13 14h-1v1h2v-1h-1zm0 2h-1v1h2v-1h-1zm0 2h-1v1h2v-1h-1zm1 3v-1h-2v1h2zm0 2v-1h-2v1h2zm0 2v-1h-2v1h2zm0 2v-1h-2v1h2zm0 2v-1h-2v1h2zm0 2v-1h-2v1h2zm0 2v-1h-2v1h2zm0 2v-1h-2v1h2zm0 2v-1h-2v1h2zm0 2v-1h-2v1h2zm0 2v-1h-2v1h2zm-1 1h-1v1h2v-1h-1zm6-36h1V5h-2v1h1zm-1 1v1h2V7h-2zm1 3h1V9h-2v1h1zm-1 1v1h2v-1h-2zm0 2v1h2v-1h-2zm0 2v1h2v-1h-2zm0 2v1h2v-1h-2zm0 2v1h2v-1h-2zm0 2v1h2v-1h-2zm0 2v1h2v-1h-2zm0 2v1h2v-1h-2zm0 2v1h2v-1h-2zm0 2v1h2v-1h-2zm0 2v1h2v-1h-2zm0 2v1h2v-1h-2zm0 2v1h2v-1h-2zm0 2v1h2v-1h-2z"/><path d="M18 39v1h2v-1h-2zm1 2h-1v1h2v-1h-1zm-1 2v1h2v-1h-2zm3-36h1V6h-2v1h1zm0 2h1V8h-2v1h1zm0 1h-1v1h2v-1h-1zm-1 2v1h2v-1h-2zm0 2v1h2v-1h-2zm0 2v1h2v-1h-2zm0 2v1h2v-1h-2zm0 2v1h2v-1h-2zm0 2v1h2v-1h-2zm0 2v1h2v-1h-2zm0 2v1h2v-1h-2zm0 2v1h2v-1h-2zm0 2v1h2v-1h-2z"/><path d="M20 32v1h2v-1h-2zm0 2v1h2v-1h-2zm0 2v1h2v-1h-2zm0 2v1h2v-1h-2zm0 2v1h2v-1h-2zm1 2h-1v1h2v-1h-1zM17 5h1V4h-2v1h1zm0 2h1V6h-2v1h1zm-1 1v1h2V8h-2zm1 3h1v-1h-2v1h1zm-1 1v1h2v-1h-2zm0 2v1h2v-1h-2zm0 2v1h2v-1h-2zm0 2v1h2v-1h-2zm0 2v1h2v-1h-2zm0 2v1h2v-1h-2zm0 2v1h2v-1h-2zm0 2v1h2v-1h-2zm0 2v1h2v-1h-2zm0 2v1h2v-1h-2zm0 2v1h2v-1h-2zm0 2v1h2v-1h-2zm0 2v1h2v-1h-2zm0 2v1h2v-1h-2zm1 2h-1v1h2v-1h-1zm0 2h-1v1h2v-1h-1zm6-32h1V9h-2v1h1zm0 1h-1v1h2v-1h-1zm-1 2v1h2v-1h-2zm0 2v1h2v-1h-2zm0 2v1h2v-1h-2zm0 2v1h2v-1h-2z"/><path d="M22 21v1h2v-1h-2zm0 2v1h2v-1h-2zm0 2v1h2v-1h-2zm0 2v1h2v-1h-2zm0 2v1h2v-1h-2zm0 2v1h2v-1h-2zm0 2v1h2v-1h-2zm0 2v1h2v-1h-2zm0 2v1h2v-1h-2zm0 2v1h2v-1h-2zm0 2v1h2v-1h-2zm0 2v1h2v-1h-2zM10 5V4H8v1h2zM8 8V7H6v1h2z"/><path d="M8 6V5H6v1h2zm16 8h1v1h-1zm0 2h1v1h-1zm0 2h1v1h-1zm0 2h1v1h-1zm0 4h1v1h-1zm0 2h1v1h-1zm0-4h1v1h-1zM9 14H8v1h2v-1H9zm0 2H8v1h2v-1H9zm-2 3H6v1h2v-1H7z"/><path d="M5 18H4v1h2v-1H5zm4 0H8v1h2v-1H9zm0 2H8v1h2v-1H9zm0 4h1v1H9zm0 2h1v1H9zm15 2h1v1h-1zM9 28h1v1H9zm15 2h1v1h-1zM9 30h1v1H9zm15 2h1v1h-1zM9 32h1v1H9zm15 2h1v1h-1zM9 34h1v1H9zm15 2h1v1h-1zM9 36h1v1H9zm15 2h1v1h-1zM9 38h1v1H9zm15 2h1v1h-1zM9 40h1v1H9zm15 2h1v1h-1zM9 42h1v1H9zm0-20h1v1H9z"/></g></svg>