<svg xmlns="http://www.w3.org/2000/svg" viewBox="0 0 24 12"><path d="M1 0v2h2v2h2V3h4V1h6V0h2v2h2v2h2v2h2v2h1v4H0V0h1z" fill="#ffc03c"/><path d="M1 3v1h1v1h1v2H2v1H1v1H0V3h1z" fill="#ffd781"/><path d="M24 11v1H0v-1h24z" fill="#ff9e00"/><path d="M5 10h1v1H5zm-2 0h1v1H3zm-1 0v1H0v-1h2zm5 0h1v1H7zm2 0h1v1H9zm2 0h1v1h-1zm2 0h1v1h-1zm10 0h1v1h-1zm-2 0h1v1h-1zm-2 0h1v1h-1zm-2 0h1v1h-1zm-2 0h1v1h-1z" fill="#ffeabe"/><path d="M9 3V1h6v1h-2v2h-2v2H9v2H7V6H5V3h4z" fill="#5f0087"/><path d="M1 4v1h1v2H1v1H0V4h1z" fill="#ffeabe"/><path d="M1 5v2H0V5h1z" fill="#5f0087"/><path d="M0 5h1v1H0z" fill="#8237a1"/></svg>