<svg xmlns="http://www.w3.org/2000/svg" viewBox="0 0 34 12"><path d="M33 8h-1V6h-2V5h-2V4h-2V2h-4V0H12v2H8v2H6v1H4v1H2v2H1v3h32z" fill="#5f0087"/><path d="M33 0h-1v2h-2v2h-2v2h-2v2h-2V6h-2V4h-2V2h-2V0h-2v2h-2v2h-2v2h-2v2H8V6H6V4H4V2H2V0H0v12h34V0z" fill="#ffc03c"/><g fill="#ffd781"><path d="M18 4V3h-2v1h1zm-3 1h-1v2h1V6z"/><path d="M15 4h1v1h-1zm4 1v2h1V5z"/><path d="M18 4h1v1h-1zm-3 3h1v1h-1zm3 0h1v1h-1z"/><path d="M16 8v1h2V8h-1z"/></g><path d="M33 11H0v1h34v-1z" fill="#ff9e00"/><g fill="#ffeabe"><path d="M16 5h-1v2h1V6zm2 1v1h1V5h-1z"/><path d="M18 5V4h-2v1h1zm-2 2v1h2V7h-1zm-5 3h1v1h-1zm2 0h1v1h-1zm4 0h-2v1h4v-1h-1zm3 0h1v1h-1zM9 10h1v1H9zm-2 0h1v1H7zm-2 0h1v1H5zm17 0h1v1h-1zm2 0h1v1h-1zm2 0h1v1h-1zm2 0h1v1h-1zm4 0h1v1h-1zm-2 0h1v1h-1zM3 10h1v1H3zm-2 0h1v1H1z"/></g><path d="M17 5h-1v2h2V5z" fill="#5f0087"/><path d="M17 5h-1v1h2V5z" fill="#8237a1"/></svg>