<svg xmlns="http://www.w3.org/2000/svg" viewBox="0 0 24 12"><path d="M23 0v2h-2v2h-2V3h-4V1H9V0H7v2H5v2H3v2H1v2H0v4h24V0h-1z" fill="#ffc03c"/><path d="M23 3v1h-1v1h-1v2h1v1h1v1h1V3h-1z" fill="#ffd781"/><path d="M0 11v1h24v-1H0z" fill="#ff9e00"/><path d="M18 10h1v1h-1zm2 0h1v1h-1zm2 0v1h2v-1h-2zm-6 0h1v1h-1zm-2 0h1v1h-1zm-2 0h1v1h-1zm-2 0h1v1h-1zM0 10h1v1H0zm2 0h1v1H2zm2 0h1v1H4zm2 0h1v1H6zm2 0h1v1H8z" fill="#ffeabe"/><path d="M15 3V1H9v1h2v2h2v2h2v2h2V6h2V3h-4z" fill="#5f0087"/><path d="M23 4v1h-1v2h1v1h1V4h-1z" fill="#ffeabe"/><path d="M23 5v2h1V5h-1z" fill="#5f0087"/><path d="M23 5h1v1h-1z" fill="#8237a1"/></svg>