<svg xmlns="http://www.w3.org/2000/svg" viewBox="0 0 34 12"><path d="M32 0v2h-2v2h-4V2h-4V0H12v2H8v2H4V2H2V0H0v12h34V0h-2z" fill="#ffc03c"/><path d="M14 0h-2v2H8v2H6v2h2v2h2V6h2V4h2V2h2V0h-2zm13 4h-1V2h-4V0h-4v2h2v2h2v2h2v2h2V6h2V4h-1z" fill="#5f0087"/><path d="M33 11v-1h-1v1h-1v-1h-1v1h-1v-1h-1v1h-1v-1h-1v1h-1v-1h-1v1h-1v-1h-1v1h-1v-1h-1v1h-1v-1h-4v1h-1v-1h-1v1h-1v-1h-1v1h-1v-1H9v1H8v-1H7v1H6v-1H5v1H4v-1H3v1H2v-1H1v1H0v1h34v-1h-1z" fill="#ffeabe"/><path d="M0 11v1h34v-1H0z" fill="#ff9e00"/></svg>