<svg xmlns="http://www.w3.org/2000/svg" viewBox="0 0 20 8"  xmlns:v="https://vecta.io/nano"><g fill="#fff"><path d="M5,1h1v1H5V1z"/><path d="M4 2h1v2H4V2zM2 1h1v1H2V1z"/><path d="M6,2v3H5v1H3V5H2V2H1v4h1v1h4V6h1V2H6z"/></g><path d="M5,4H4V2h1V1H3v1H2v3h1v1h2V5h1V2H5V4z" fill="#00a5ff"/><g fill="#0000b9"><path d="M1,1h1v1H1V1z"/><path d="M1,2H0v4h1V2z"/><path d="M1 6h1v1H1V6zm5-5h1v1H6V1z"/><path d="M6 1V0H2v1h4zM2 7v1h4V7H2z"/></g><g fill="#fff"><path d="M17,1h1v1h-1V1z"/><path d="M16 2h1v2h-1V2zm-2-1h1v1h-1V1z"/><path d="M18,2v3h-1v1h-2V5h-1V2h-1v4h1v1h4V6h1V2H18z"/></g><path d="M17 2v2h-1V2h1V1h-2v1h-1v3h1v1h2V5h1V2h-1z" fill="#00a5ff"/><g fill="#0000b9"><path d="M13,1h1v1h-1V1z"/><path d="M13,2h-1v4h1V2z"/><path d="M13 6h1v1h-1V6zm5-5h1v1h-1V1z"/><path d="M19 2v4h1V2h-1zm-1-1V0h-4v1h4zm-4 6v1h4V7h-4z"/><path d="M18 6h1v1h-1V6zM7 6h1V2H7v4z"/><path d="M6,6h1v1H6V6z"/></g></svg>