<?xml version="1.0" encoding="utf-8"?>
<!-- Generator: Adobe Illustrator 25.2.1, SVG Export Plug-In . SVG Version: 6.00 Build 0)  -->
<svg version="1.1" id="Layer_1" xmlns:v="https://vecta.io/nano"
	 xmlns="http://www.w3.org/2000/svg" xmlns:xlink="http://www.w3.org/1999/xlink" x="0px" y="0px" viewBox="0 0 44 25"
	 style="enable-background:new 0 0 44 25;" xml:space="preserve">
<style type="text/css">
	.st0{fill:#3C0055;}
	.st1{fill:#FFFFFF;}
	.st2{fill:#5F0087;}
	.st3{fill:#FFC03C;}
	.st4{fill:#FF9E00;}
	.st5{fill:#00C8FF;}
	.st6{fill:#440000;}
</style>
<g>
	<path class="st0" d="M39,4h-2v1h-1v1h-1v1h-1v2h-2v1H12V9h-1V8h-1V7H9V6H8V5H7V4H5v7v14h4v-2h5v2h5v-2h6v2h5v-2h5v2h4V4z"/>
	<path class="st1" d="M18,11v1h-1v-2h1V9h-6v2h-1V9h1V8h-1V7h-1v2H9V7h1V6H9V5H8V4H7V3H5v8h2v2h2v2h8v-2h2v-3h-1V11z M13,10h1v2h-1
		V10z M6,6V5h1v2H6V6z M7,9V8h1v2H7V9z M9,11v-1h1v2H9V11z M11,14v-2h1v2H11z M13,14v-1h1v1H13z M15,13v-2h1v2H15z M37,3v1h-1v1h-1
		v1h-1v1h1v2h-1V7h-1v1h-1v1h1v2h-1V9h-6v1h1v2h-1v-2h-1v3h2v2h8v-2h2v-2h2V3H37z M31,10v2h-1v-2H31z M28,12v-1h1v2h-1V12z M30,14
		v-1h1v1H30z M32,14v-2h1v2H32z M34,12v-2h1v2H34z M36,10V8h1v2H36z M38,6v1h-1V5h1V6z"/>
	<path class="st2" d="M10,8V7H9v2h1V8z M35,8V7h-1v2h1V8z M16,12v-1h-1v2h1V12z M17,11v1h1v-2h-1V11z M29,12v-1h-1v2h1V12z M7,6V5H6
		v2h1V6z M7,9v1h1V8H7V9z M33,13v-1h-1v2h1V13z M12,13v-1h-1v2h1V13z M12,10V9h-1v2h1V10z M14,11v-1h-1v2h1V11z M37,6v1h1V5h-1V6z
		 M33,10V9h-1v2h1V10z M31,11v-1h-1v2h1V11z M27,11v-1h-1v2h1V11z M37,9V8h-1v2h1V9z M10,11v-1H9v2h1V11z M13,13h1v1h-1V13z M30,13
		h1v1h-1V13z M35,11v-1h-1v2h1V11z M37,14h-1v1h-1v1h-8v7h3v-2h5v2h3V13h-1V14z M15,16H9v-1H8v-1H7v-1H6v10h3v-2h5v2h3v-7h-1H15z"/>
	<path class="st3" d="M43,24v-2h-1v-4h-1v-4h-1v-3h-1v14h5v-1H43z M4,12v2H3v4H2v4H1v2H0v1h5V11H4V12z M40,3V0h-1v1h-1v1h-1v1h2H40z
		 M6,1H5V0H4v3h3V2H6V1z"/>
	<path class="st4" d="M39,25h1V11h-1V25z M43,24h1v1h-1V24z M41,19v6h1v-7h-1V19z M4,12v13h1V11H4V12z M39,1v2h1V0h-1V1z M4,3h1V0H4
		V3z M0,24h1v1H0V24z M2,19v6h1v-7H2V19z"/>
	<path class="st5" d="M24,10h-5v3h6v-3H24z"/>
	<path class="st3" d="M26,13h-9v4h10v-4H26z M25,19h-8v6h2v-2h6v2h2v-6h-1H25z"/>
	<path class="st6" d="M26,17h-9v2h10v-2H26z"/>
</g>
</svg>
