<svg xmlns="http://www.w3.org/2000/svg" viewBox="0 0 30 25"><path d="M6 9V8h1V7h1V6h1V5h1V4h1V3h3V0h1v1h2v1h8v1h1v7h1v5h1v5h2v5H14v-2h-4v2H6v-2H3v2H0V9h6z" fill="#3c0055"/><path d="M1 13v12H0V13h1z" fill="#ffc03c"/><path d="M1 12H0v1h1v2h8v-2h2v-2h2V3h-2v1h-1v1H9v1H8v1h1v2H8V7H7v1H6v1h1v2H6V9H0v1h1v2zm4 0H4v-2h1v2zm7-5h-1V5h1v1 1zm-1 3h-1V8h1v1 1zm-2 2H8v-2h1v1 1zm-3 2v-2h1v2H6zm-2 0v-1h1v1H4zm-2-3h1v2H2v-1-1z" fill="#fff"/><path d="M8 8V7h1v2H8V8zm-6 4v-1h1v2H2v-1zm-1-2v2H0v-2h1zm10-4V5h1v2h-1V6zm0 3v1h-1V8h1v1zm-5 4v-1h1v2H6v-1zm0-3V9h1v2H6v-1zm-2 1v-1h1v2H4v-1zm4 0v-1h1v2H8v-1zm-4 2h1v1H4zm5 3v-1h1v-1h1v-1h1v-2h1v10h-3v2H6v-2H3v2H1v-7h8z" fill="#5f0087"/><path d="M15 0v1h2v1h8v1h1v7h1v5h1v5h2v5H14V0h1z" fill="#ff9e00"/><g fill="#ffc03c"><path d="M24 19v-3h1v5h-1v-2zm0-9V4h-1V3h2v8h-1v-1z"/><path d="M23 14v-3h1v5h-1v-2zm1 8v2h-1v-3h1v1z"/><path d="M22 19v-3h1v5h-1v-2zm0-17h1v1h-1z"/><path d="M21 14v-3h1v5h-1v-2zm1 8v2h-1v-3h1v1z"/><path d="M21 3h1v1h-1zm-1 16v-3h1v5h-1v-2z"/><path d="M20 2h1v1h-1zm-1 12v-3h1v5h-1v-2z"/><path d="M20 22v2h-1v-3h1v1zM19 3h1v1h-1z"/><path d="M18 19v-3h1v5h-1v-2zm0-17h1v1h-1z"/><path d="M17 14v-3h1v5h-1v-2zm1 8v2h-1v-3h1v1zM17 3h1v1h-1z"/><path d="M16 2V1h1v2h-1V2zm0 17v-3h1v5h-1v-2zm7-13v5h-1V4h1v2zm-2 0v5h-1V4h1v2z"/><path d="M19 6v5h-1V4h1v2zm-3 16v2h-1v-3h1v1zm0-10v4h-1v-5h1v1zm-1-9h1v1h-1z"/><path d="M15 18v3h-1v-5h1v2zm0-12v5h-1V4h1v2zm2-1v6h-1V4h1v1zm8 10v-4h1v5h-1v-1zm1 7v2h-1v-3h1v1z"/><path d="M26 19v-3h1v5h-1v-2z"/><path d="M29 21v3h-2v-3h2zM15 0v3h-1V0h1z"/></g><path d="M0 17h1v2H0z" fill="#400"/></svg>