<svg xmlns="http://www.w3.org/2000/svg" viewBox="0 0 30 25"><path d="M0 9v16h3v-2h3v2h4v-2h4v2h16v-5h-2v-5h-1v-5h-1V3h-1V2h-8V1h-2V0h-1v3h-3v1h-1v1H9v1H8v1H7v1H6v1H0z" fill="#3c0055"/><path d="M0 13v12h1V13H0z" fill="#ffc03c"/><path d="M1 12H0v1h1v2h8v-2h2v-2h2V3h-2v1h-1v1H9v1H8v1h1v2H8V7H7v1H6v1h1v2H6V9H0v1h1v2zm4 0H4v-2h1v2zm7-5h-1V5h1v1 1zm-1 3h-1V8h1v1 1zm-2 2H8v-2h1v1 1zm-3 2v-2h1v2H6zm-2 0v-1h1v1H4zm-2-3h1v2H2v-1-1z" fill="#fff"/><path d="M8 9h1V7H8v1 1zm-6 4h1v-2H2v1 1zm-2-3v2h1v-2H0zm11-3h1V5h-1v1 1zm0 1h-1v2h1V9 8zm-5 6h1v-2H6v1 1zm0-3h1V9H6v1 1zm-2 1h1v-2H4v1 1zm4 0h1v-2H8v1 1zm-3 2H4v-1h1v1zm-4 2v7h2v-2h3v2h4v-2h3V11h-1v2h-1v1h-1v1H9v1H1z" fill="#5f0087"/><path d="M14 0v25h16v-5h-2v-5h-1v-5h-1V3h-1V2h-8V1h-2V0h-1z" fill="#ff9e00"/><g fill="#ffc03c"><path d="M24 21h1v-5h-1v3 2zm0-10h1V3h-2v1h1v6 1z"/><path d="M23 16h1v-5h-1v3 2zm1 5h-1v3h1v-2-1z"/><path d="M22 21h1v-5h-1v3 2zm1-18h-1V2h1v1z"/><path d="M21 16h1v-5h-1v3 2zm1 5h-1v3h1v-2-1z"/><path d="M22 4h-1V3h1v1zm-2 17h1v-5h-1v3 2z"/><path d="M21 3h-1V2h1v1zm-2 13h1v-5h-1v3 2z"/><path d="M20 21h-1v3h1v-2-1zm0-17h-1V3h1v1z"/><path d="M18 21h1v-5h-1v3 2zm1-18h-1V2h1v1z"/><path d="M17 16h1v-5h-1v3 2zm1 5h-1v3h1v-2-1zm0-17h-1V3h1v1z"/><path d="M16 3h1V1h-1v1 1zm0 18h1v-5h-1v3 2zm7-17h-1v7h1V6 4zm-2 0h-1v7h1V6 4z"/><path d="M19 4h-1v7h1V6 4zm-3 17h-1v3h1v-2-1zm0-10h-1v5h1v-4-1zm0-7h-1V3h1v1z"/><path d="M15 16h-1v5h1v-3-2zm0-12h-1v7h1V6 4zm2 0h-1v7h1V5 4zm8 12h1v-5h-1v4 1zm1 5h-1v3h1v-2-1z"/><path d="M26 21h1v-5h-1v3 2z"/><path d="M27 21v3h2v-3h-2zM14 0v3h1V0h-1z"/></g><path d="M1 19H0v-2h1v2z" fill="#400"/></svg>