<svg xmlns="http://www.w3.org/2000/svg" viewBox="0 0 46 25"><path d="M6,3v22h4v-2h5v2h5v-2h6v2h5v-2h5v2h4V3H6z" fill="#3c0055"/><path d="M7,4v19h3v-2h5v2h5v-2h5v2h6v-2h5v2h3V4H7z" fill="#5f0087"/><path d="M44,20v-5h-1v-5h-1V5h-1V0h-1v1h-1v1H7V1H6V0H5v5H4v5H3v5H2v5H0v5h46v-5H44z" fill="#ff9e00"/><g fill="#ffc03c"><path d="M40 22v2h1v-3h-1v1zm0-17h1v1h-1V5zm0 11h1v-5h-1v2 3z"/><path d="M40 16h-1v5h1v-2-3zm-1-5h1V6h-1v2 3z"/><path d="M39 11h-1v5h1v-2-3zm-1-6v1h1V4h-1v1z"/><path d="M37 7v4h1V6h-1v1zm-1 15v2h1v-3h-1v1z"/><path d="M37 6V4h-1v2h1zm-1 10h-1v5h1v-2-3z"/><path d="M35 11h-1v5h1v-2-3zm-1 11v2h1v-3h-1v1z"/><path d="M34 16h-1v5h1v-2-3zm0-10h-1v5h1V9 6z"/><path d="M33 11h-1v5h1v-2-3zm-1 11v2h1v-3h-1v1zm1-16V4h-1v2h1zm9 10h-1v5h1v-2-3z"/><path d="M42 22v2h1v-3h-1v1zm2-1v3h1v-3h-1zM6 16H5v5h1v-2-3zm0-6V6H5v5h1v-1z"/><path d="M7 11H6v5h1v-2-3zM6 22v2h1v-3H6v1z"/><path d="M7 5V4H6v2h1V5zm1 11H7v5h1v-2-3z"/><path d="M8,10V6H7v5h1V10z"/><path d="M9 11H8v5h1v-2-3zM8 22v2h1v-3H8v1z"/><path d="M9 6V4H8v2h1zm1 10H9v5h1v-2-3z"/><path d="M10,6H9v5h1V9V6z"/><path d="M11 11h-1v5h1v-2-3zm-1 11v2h1v-3h-1v1z"/><path d="M11 6V4h-1v2h1zm1 10h-1v5h1v-2-3z"/><path d="M12,6h-1v5h1V9V6z"/><path d="M13 11h-1v5h1v-2-3zm-1 11v2h1v-3h-1v1z"/><path d="M13 6V4h-1v2h1zm1 10h-1v5h1v-2-3z"/><path d="M14 6h-1v5h1V9 6zm0 16v2h1v-3h-1v1zm2 0v2h1v-3h-1v1zm2 0v2h1v-3h-1v1zm2 0v2h1v-3h-1v1zm2 0v2h1v-3h-1v1zm2 0v2h1v-3h-1v1zm2 0v2h1v-3h-1v1z"/><path d="M28 22v2h1v-3h-1v1zm-12-6h-1v5h1v-2-3zm2 0h-1v5h1v-2-3zm2 0h-1v5h1v-2-3z"/><path d="M22 16h-1v5h1v-2-3zm2 0h-1v5h1v-2-3zm2 0h-1v5h1v-2-3zm2 0h-1v5h1v-2-3zm4 0h-1v5h1v-2-3zm-17-5h-1v5h1v-2-3zm2 0h-1v5h1v-2-3zm2 0h-1v5h1v-2-3z"/><path d="M27 11h-1v5h1v-2-3zm4 0h-1v5h1v-2-3zM16 6h-1v5h1V9 6zm2 0h-1v5h1V9 6z"/><path d="M20 6h-1v5h1V9 6zm2 0h-1v5h1V9 6zm4 0h-1v5h1V9 6zm4 0h-1v5h1V9 6z"/><path d="M32 6h-1v5h1V9 6zM15 6V4h-1v2h1zm2 0V4h-1v2h1zm2 0V4h-1v2h1zm2 0V4h-1v2h1zm2 0V4h-1v2h1zm2 0V4h-1v2h1zm4 0V4h-1v2h1z"/><path d="M31 6V4h-1v2h1zM5 15v-4H4v5h1v-1zm-1 7v2h1v-3H4v1z"/><path d="M4 16H3v5h1v-2-3z"/><path d="M2 22v2h1v-3H2v1zm36 0v2h1v-3h-1v1z"/><path d="M38 16h-1v5h1v-2-3z"/><path d="M37 11h-1v5h1v-2-3z"/><path d="M36,6h-1v5h1V9V6z"/><path d="M35 6V4h-1v2h1zm4-3h1v1h-1V3z"/><path d="M37 3h1v1h-1V3zm-2 0h1v1h-1V3zm-2 0h1v1h-1V3zM5 3h1v1H5V3zm2 0h1v1H7V3zm2 0h1v1H9V3zm2 0h1v1h-1V3zm2 0h1v1h-1V3zm2 0h1v1h-1V3zm2 0h1v1h-1V3zm2 0h1v1h-1V3zm2 0h1v1h-1V3zm2 0h1v1h-1V3zm2 0h1v1h-1V3zm2 0h1v1h-1V3zm2 0h1v1h-1V3z"/><path d="M31 3h1v1h-1V3zM6 2h1v1H6V2zm2 0h1v1H8V2zm2 0h1v1h-1V2zm2 0h1v1h-1V2zm29 0V0h-1v3h1V2zm-3 0h1v1h-1V2zm-2 0h1v1h-1V2z"/><path d="M34 2h1v1h-1V2zm-2 0h1v1h-1V2zm-2 0h1v1h-1V2zm-2 0h1v1h-1V2zm-2 0h1v1h-1V2zm-2 0h1v1h-1V2zm-2 0h1v1h-1V2zm-2 0h1v1h-1V2zm-2 0h1v1h-1V2zm-2 0h1v1h-1V2zm-2 0h1v1h-1V2zm16 20v2h1v-3h-1v1z"/><path d="M30 16h-1v5h1v-2-3z"/><path d="M29 11h-1v5h1v-2-3z"/><path d="M28,6h-1v5h1V9V6z"/><path d="M27 6V4h-1v2h1zm-4 5h-1v5h1v-2-3zm2 0h-1v5h1v-2-3zm-4 0h-1v5h1v-2-3z"/><path d="M24 6h-1v5h1V9 6zM5 0v2h1V0H5z"/></g></svg>