<svg xmlns="http://www.w3.org/2000/svg" viewBox="0 0 44 25"><path d="M39 4h-2v1h-1v1h-1v1h-1v2h-2v1H12V9h-1V8h-1V7H9V6H8V5H7V4H5v21h4v-2h5v2h5v-2h6v2h5v-2h5v2h4V4z" fill="#3c0055"/><path d="M18 11v1h-1v-2h1V9h-6v2h-1V9h1V8h-1V7h-1v2H9V7h1V6H9V5H8V4H7V3H5v8h2v2h2v2h8v-2h2v-3h-1v1zm-5-1h1v2h-1v-2zM6 6V5h1v2H6V6zm1 3V8h1v2H7V9zm2 2v-1h1v2H9v-1zm2 3v-2h1v2h-1zm2 0v-1h1v1h-1zm2-1v-2h1v2h-1zM37 3v1h-1v1h-1v1h-1v1h1v2h-1V7h-1v1h-1v1h1v2h-1V9h-6v1h1v2h-1v-2h-1v3h2v2h8v-2h2v-2h2V3h-2zm-6 7v2h-1v-2h1zm-3 2v-1h1v2h-1v-1zm2 2v-1h1v1h-1zm2 0v-2h1v2h-1zm2-2v-2h1v2h-1zm2-2V8h1v2h-1zm2-4v1h-1V5h1v1z" fill="#fff"/><path d="M10 8V7H9v2h1V8zm25 0V7h-1v2h1V8zm-19 4v-1h-1v2h1v-1zm1-1v1h1v-2h-1v1zm12 1v-1h-1v2h1v-1zM7 6V5H6v2h1V6zm0 3v1h1V8H7v1zm26 4v-1h-1v2h1v-1zm-21 0v-1h-1v2h1v-1zm0-3V9h-1v2h1v-1zm2 1v-1h-1v2h1v-1zm23-5v1h1V5h-1v1zm-4 4V9h-1v2h1v-1zm-2 1v-1h-1v2h1v-1zm-4 0v-1h-1v2h1v-1zm10-2V8h-1v2h1V9zm-27 2v-1H9v2h1v-1zm3 2h1v1h-1v-1zm17 0h1v1h-1v-1zm5-2v-1h-1v2h1v-1zm2 3h-1v1h-1v1h-8v7h3v-2h5v2h3V13h-1v1zm-22 2H9v-1H8v-1H7v-1H6v10h3v-2h5v2h3v-7h-2z" fill="#5f0087"/><path d="M43 24v-2h-1v-4h-1v-4h-1v-3h-1v14h5v-1h-1zM4 12v2H3v4H2v4H1v2H0v1h5V11H4v1zm36-9V0h-1v1h-1v1h-1v1h3zM6 1H5V0H4v3h3V2H6V1z" fill="#ffc03c"/><path d="M39 25h1V11h-1v14zm4-1h1v1h-1v-1zm-2-5v6h1v-7h-1v1zM4 12v13h1V11H4v1zM39 1v2h1V0h-1v1zM4 3h1V0H4v3zM0 24h1v1H0v-1zm2-5v6h1v-7H2v1z" fill="#ff9e00"/><path d="M24,10h-5v3h6v-3H24z" fill="#00c8ff"/><path d="M26 13h-9v4h10v-4h-1zm-1 6h-8v6h2v-2h6v2h2v-6h-2z" fill="#ffc03c"/><path d="M26,17h-9v2h10v-2H26z" fill="#400"/></svg>