<svg xmlns="http://www.w3.org/2000/svg" viewBox="0 0 30 25"><path d="M24,9V8h-1V7h-1V6h-1V5h-1V4h-1V3h-3V0h-1v1h-2v1H5v1H4v7H3v5H2v5H0v5h16v-2h4v2h4v-2h3v2h3V9H24z" fill="#3c0055"/><path d="M29,13v12h1V13H29z" fill="#ffc03c"/><path d="M29 10h1V9h-6v2h-1V9h1V8h-1V7h-1v2h-1V7h1V6h-1V5h-1V4h-1V3h-2v8h2v2h2v2h8v-2h1v-1h-1v-2zm-4 0h1v2h-1v-2zm-7-4V5h1v2h-1V6zm1 3V8h1v2h-1V9zm2 2v-1h1v2h-1v-1zm2 3v-2h1v2h-1zm2 0v-1h1v1h-1zm3-2v1h-1v-2h1v1z" fill="#fff"/><path d="M22 8V7h-1v2h1V8zm6 4v-1h-1v2h1v-1zm1-2v2h1v-2h-1zM19 6V5h-1v2h1V6zm0 3v1h1V8h-1v1zm5 4v-1h-1v2h1v-1zm0-3V9h-1v2h1v-1zm2 1v-1h-1v2h1v-1zm-4 0v-1h-1v2h1v-1zm3 2h1v1h-1v-1zm-4 3v-1h-1v-1h-1v-1h-1v-2h-1v10h3v2h4v-2h3v2h2v-7h-8z" fill="#5f0087"/><path d="M15,0v1h-2v1H5v1H4v7H3v5H2v5H0v5h16V0H15z" fill="#ff9e00"/><g fill="#ffc03c"><path d="M6 19v-3H5v5h1v-2zm0-9V4h1V3H5v8h1v-1z"/><path d="M7 14v-3H6v5h1v-2zm-1 8v2h1v-3H6v1z"/><path d="M8 19v-3H7v5h1v-2zM7 2h1v1H7V2z"/><path d="M9 14v-3H8v5h1v-2zm-1 8v2h1v-3H8v1z"/><path d="M8 3h1v1H8V3zm2 16v-3H9v5h1v-2z"/><path d="M9 2h1v1H9V2zm2 12v-3h-1v5h1v-2z"/><path d="M10 22v2h1v-3h-1v1zm0-19h1v1h-1V3z"/><path d="M12 19v-3h-1v5h1v-2zM11 2h1v1h-1V2z"/><path d="M13 14v-3h-1v5h1v-2zm-1 8v2h1v-3h-1v1zm0-19h1v1h-1V3z"/><path d="M14 2V1h-1v2h1V2zm0 17v-3h-1v5h1v-2zM7 6v5h1V4H7v2zm2 0v5h1V4H9v2z"/><path d="M11 6v5h1V4h-1v2zm3 16v2h1v-3h-1v1zm0-10v4h1v-5h-1v1zm0-9h1v1h-1V3z"/><path d="M15 18v3h1v-5h-1v2zm0-12v5h1V4h-1v2zm-2-1v6h1V4h-1v1zM5 15v-4H4v5h1v-1zm-1 7v2h1v-3H4v1z"/><path d="M4,19v-3H3v5h1V19z"/><path d="M1 21v3h2v-3H1zM15 0v3h1V0h-1z"/></g><path d="M29,17h1v2h-1V17z" fill="#400"/></svg>