<svg xmlns="http://www.w3.org/2000/svg" viewBox="0 0 20 22"><path d="M19 6V5h-1V4h-3V2h1V1h-1V0h-2v1h-2V0H9v1H7V0H5v1H4v1h1v2H2v1H1v1H0v2h1v1h1v1H1v4h1v1h1v1H2v1H1v2h1v1H1v2h18v-2h-1v-1h1v-2h-1v-1h-1v-1h1v-1h1v-4h-1V9h1V8h1V6h-1z"/><path d="M18 7V5h-5v1h-1v1H8V6H7V5H2v2H1v1h1v1h1v1H2v4h1v1h1v2H2v2h1v1H2v1h4v-2h1v2h6v-2h1v2h4v-1h-1v-1h1v-2h-2v-2h1v-1h1v-4h-1V9h1V8h1V7h-1z" fill="#ff96ff"/><path d="M13 1v1h-2V1H9v1H7V1H5v1h1v2h2v2h4V4h2V2h1V1h-2z" fill="#ff9600"/><path d="M5 1v1h2V1H5zm4 0v1h2V1H9zm4 0v1h2V1h-2z" fill="#ffe600"/><path d="M6 2v2h8V2H6z" fill="#ffc03c"/></svg>