<svg xmlns="http://www.w3.org/2000/svg" viewBox="0 0 19 22"><path d="M18 6V5h-1V4h-4V2h1V1h-1V0h-2v1h-1V0H8v1H7V0H5v1H4v1h1v2h1v2H3v1H2v1H1v1H0v5h1v1h1v2H1v4h1v1h15v-2h-1v-1h-2v-4h3v-1h1v-1h-1v-2h1v-1h-1V9h1V8h1V6h-1z"/><g fill="#fff"><path d="M14 8V7h-3v1h1v1h5V8h-3z"/><path d="M17 7h1v1h-1z"/></g><path d="M6 11h11v-1H5v4h12v-1H6v-2z" fill="#ef1e26"/><path d="M12 5v1h5V5h-5zm2 15h-1v-5H5v-1H4v-4h1V9h6V8h-1V7H3v1H2v1H1v5h1v1h1v2H2v4h7v-2H6v-1H5v-1h1v1h3v1h1v2h6v-1h-2z" fill="#ff96ff"/><path d="M11 1v1h-1V1H8v1H7V1H5v1h1v2h1v2h4V4h1V2h1V1h-2z" fill="#ff9600"/><path d="M5 1v1h2V1H5zm3 0v1h2V1H8zm3 0v1h2V1h-2z" fill="#ffe600"/><path d="M6 2v2h6V2H6z" fill="#ffc03c"/></svg>