<svg xmlns="http://www.w3.org/2000/svg" viewBox="0 0 19 22"><path d="M1 6V5h1V4h4V2H5V1h1V0h2v1h1V0h2v1h1V0h2v1h1v1h-1v2h-1v2h3v1h1v1h1v1h1v5h-1v1h-1v2h1v4h-1v1H2v-2h1v-1h2v-4H2v-1H1v-1h1v-2H1v-1h1V9H1V8H0V6h1z"/><g fill="#fff"><path d="M5 8V7h3v1H7v1H2V8h3z"/><path d="M1 7h1v1H1z"/></g><path d="M13 11H2v-1h12v4H2v-1h11v-2z" fill="#ef1e26"/><path d="M7 5v1H2V5h5zM5 20h1v-5h8v-1h1v-4h-1V9H8V8h1V7h7v1h1v1h1v5h-1v1h-1v2h1v4h-7v-2h3v-1h1v-1h-1v1h-3v1H9v2H3v-1h2z" fill="#ff96ff"/><path d="M8 1v1h1V1h2v1h1V1h2v1h-1v2h-1v2H8V4H7V2H6V1h2z" fill="#ff9600"/><path d="M14 1v1h-2V1h2zm-3 0v1H9V1h2zM8 1v1H6V1h2z" fill="#ffe600"/><path d="M13 2v2H7V2h6z" fill="#ffc03c"/></svg>