<svg xmlns="http://www.w3.org/2000/svg" viewBox="0 0 25 22"><path d="M1 6V5h1V4h4V2H5V1h1V0h2v1h1V0h2v1h1V0h2v1h1v1h-1v2h-1v2h3v1h1v1h1V7h1V6h1v1h1v1h1v1h1v2h1v2h1v7h-1v1h-1v-1h-1v-2h-1v-1h-1v1h-1v1h-1v2h-1v1H2v-2h1v-1h2v-4H2v-1H1v-1h1v-2H1v-1h1V9H1V8H0V6z"/><g fill="#51ffa8"><path d="M2 5h5v1H2zm4 10h8v-1h1v-4h-1V9H8V8h1V7h7v1h1v1h2v1h1v1h1v3h1v3h-1v-2h-1v-2h-1v-2h-1v2h1v5h-1v-4h-1v1h-1v2h1v4h-7v-2h3v-1h1v-1h-1v1h-3v1H9v2H3v-1h3v-5zm18 4v1h-1v-6h1v5z"/><path d="M22 11h1v3h-1z"/><path d="M21 10h-1V9h-1V7h1v1h1v1h1v2h-1v-1z"/></g><path d="M13 11H2v-1h12v4H2v-1h11z" fill="#ef1e26"/><g fill="#fff"><path d="M5 7h3v1H7v1H2V8h3z"/><path d="M1 7h1v1H1zm18 0h1v1h-1zm4 12h1v1h-1zm-5-2h1v1h-1z"/></g><path d="M8 1v1h1V1h2v1h1V1h2v1h-1v2h-1v2H8V4H7V2H6V1z" fill="#ff9600"/><path d="M8 1v1h1V1h2v1h1V1h2v1h-1v2h-1v2H8V4H7V2H6V1z" fill="#ffc03c"/><path d="M12 1h2v1h-2zM9 1h2v1H9zM6 1h2v1H6z" fill="#ffe600"/><path d="M8 4h4v2H8z" fill="#ff9600"/><path d="M7 2h6v2H7z" fill="#ffc03c"/></svg>