<svg xmlns="http://www.w3.org/2000/svg" viewBox="0 0 26 22"><path d="M4 22v-2h1v-1H4v-1H3v2H2v1H1v-1H0v-6h1v-2h1v-2h1V9h1V8H3V6h1V5h1V4h3V2H7V1h1V0h2v1h2V0h2v1h2V0h2v1h1v1h-1v2h3v1h1v1h1v2h-1v1h1v1h1v2h1v2h1v6h-1v1h-1v-1h-1v-2h-1v1h-1v1h1v2z"/><g fill="#51ffa8"><path d="M24 15h1v4h-1z"/><path d="M23 12h1v3h-1zM5 18h1v1H5zm1-8v1H5v1H4v3H3v2h1v-1h1v-2h1v-2h1v-1h1v-1zM4 7h1v1H4z"/><path d="M20 19h-1v-1h-1v-2h-1v-3h1v2h1v3h1v-4h-1v-2h-1v-1h-1v-1h1V9h1V8h1V7h1V5h-5v1h-1v1h-4V6h-1V5H5v2h1v1h1v1h1v1h1v1H8v1H7v2H6v4h1v-3h1v-2h1v3H8v2H7v1H6v1H5v1h4v-2h1v2h6v-2h1v2h4v-1h-1z"/><path d="M21 7h1v1h-1zm-1 11h1v1h-1zm2-6h-1v-1h-1v-1h-2v1h1v1h1v2h1v2h1v1h1v-2h-1zM3 12h1v-1h1v-1h1V8H5v1H4v1H3z"/><path d="M21 8h-1v2h1v1h1v1h1v-2h-1V9h-1zM1 15h1v4H1z"/><path d="M2 12h1v3H2z"/></g><path d="M24 19h1v1h-1zM1 19h1v1H1zm21-3h1v1h-1zM3 16h1v1H3zm18-9h1v1h-1zM4 7h1v1H4z" fill="#fff"/><path d="M16 1v1h-2V1h-2v1h-2V1H8v1h1v2h2v2h4V4h2V2h1V1z" fill="#ff9600"/><path d="M16,1v1h-2V1h-2v1h-2V1H8v1h1v2h2v2h4V4h2V2h1V1H16z" fill="#ffc03c"/><path d="M8 1v1h2V1H8zm4 0v1h2V1h-2zm5 0h-1v1h2V1h-1z" fill="#ffe600"/><path d="M11,4v2h4V4H11z" fill="#ff9600"/><path d="M9,2v2h8V2H9z" fill="#ffc03c"/></svg>