<svg xmlns="http://www.w3.org/2000/svg" viewBox="0 0 25 22"><path d="M24 6V5h-1V4h-4V2h1V1h-1V0h-2v1h-1V0h-2v1h-1V0h-2v1h-1v1h1v2h1v2H9v1H8v1H7V7H6V6H5v1H4v1H3v1H2v2H1v2H0v7h1v1h1v-1h1v-2h1v-1h1v1h1v1h1v2h1v1h15v-2h-1v-1h-2v-4h3v-1h1v-1h-1v-2h1v-1h-1V9h1V8h1V6z"/><g fill="#51ffa8"><path d="M18 5h5v1h-5zm1 10h-8v-1h-1v-4h1V9h6V8h-1V7H9v1H8v1H6v1H5v1H4v3H3v3h1v-2h1v-2h1v-2h1v2H6v5h1v-4h1v1h1v2H8v4h7v-2h-3v-1h-1v-1h1v1h3v1h1v2h6v-1h-3v-5zM1 19v1h1v-6H1v5z"/><path d="M2 11h1v3H2z"/><path d="M4 10h1V9h1V7H5v1H4v1H3v2h1v-1z"/></g><path d="M12 11h11v-1H11v4h12v-1H12z" fill="#ef1e26"/><g fill="#fff"><path d="M20 7h-3v1h1v1h5V8h-3z"/><path d="M23 7h1v1h-1zM5 7h1v1H5zM1 19h1v1H1zm5-2h1v1H6z"/></g><path d="M17 1v1h-1V1h-2v1h-1V1h-2v1h1v2h1v2h4V4h1V2h1V1z" fill="#ff9600"/><path d="M17 1v1h-1V1h-2v1h-1V1h-2v1h1v2h1v2h4V4h1V2h1V1z" fill="#ffc03c"/><path d="M11 1h2v1h-2zm3 0h2v1h-2zm3 0h2v1h-2z" fill="#ffe600"/><path d="M13 4h4v2h-4z" fill="#ff9600"/><path d="M12 2h6v2h-6z" fill="#ffc03c"/></svg>