<svg xmlns="http://www.w3.org/2000/svg" viewBox="0 0 8 13"><g fill="#bebebc"><path d="M2,0v1h2V0H2z"/><path d="M5,3V1H4v2H0v1h1v8h1v1h4v-1h1V4h1V3H5z"/></g><g fill="#0f0"><path d="M6 4v2H5V5H4V4h2zm0 4v3H5v-1H4V8h2z"/><path d="M4 8H2V5h1v1h1v2zm-1 3h1v1H2v-2h1v1z"/></g><g fill="#fff"><path d="M5 6v2H4V6h1zm0 6H4v-1h1v1z"/><path d="M4 6H3V5h1v1zm0 5H3v-1h1v1z"/><path d="M3 5H2V4h1v1zm0 5H2V8h1v2z"/></g><g fill="#0af"><path d="M6 6v2H5V6h1zm0 6H5v-1h1v1z"/><path d="M5 6H4V5h1v1zm0 5H4v-1h1v1z"/><path d="M4 5H3V4h1v1zm0 5H3V8h1v2z"/></g></svg>