<svg xmlns="http://www.w3.org/2000/svg" viewBox="0 0 24 23"><path d="M0,23h4v-2h2v2h4v-2h4v2h4v-2h3v2h3V1H10v1H8v1H6v1H5v1H2v1H0V23z" fill="#640000"/><path d="M0 8v13h1v-4h2v4h1v-4h1v4h1V7H5v1H4v1h1v2H4V9H3v2H1V8H0zm4 7h1v1H4v-1zm0-3h1v2H4v-2zm-3 3h2v1H1v-1zm0-3h2v2H1v-2zm8-9H7v18h1v-4h1v4h1v-4h5v4h1v-4h1v4h1V2h-1v1h-1V2h-1v1h-2V1h-1v2h-2V2H9v1zm7 12h1v1h-1v-1zm0-3h1v2h-1v-2zm0-3h1v2h-1V9zm0-2h1v1h-1V7zm0-3h1v2h-1V4zm-1 2h-2V4h2v2zm0 2h-2V7h2v1zm-2 7h2v1h-2v-1zm0-3h2v2h-2v-2zm-3 3h2v1h-2v-1zm0-3h2v2h-2v-2zm0-3h5v2h-5V9zm0-2h2v1h-2V7zm0-3h2v2h-2V4zM8 15h1v1H8v-1zm0-3h1v2H8v-2zm0-3h1v2H8V9zm0-2h1v1H8V7zm1-3v2H8V4h1zm11-2h-1v19h1v-4h1v4h1v-4h2v-1h-2v-1h2v-1h-2v-2h2V2h-1v1h-1V2h-1v1h-1V2zm2 7h1v2h-1V9zm0-2h1v1h-1V7zm0-3h1v2h-1V4zm-2 11h1v1h-1v-1zm0-3h1v2h-1v-2zm0-3h1v2h-1V9zm0-2h1v1h-1V7zm0-3h1v2h-1V4z" fill="red"/><g fill="#e9eef2"><path d="M8 4h1v2H8V4zm0 3h1v1H8V7zM6 3h1v1H6V3zm2-1h1v1H8V2zm2-1h1v1h-1V1zM1 15h2v1H1v-1zm3 0h1v1H4v-1zm4 0h1v1H8v-1z"/><path d="M8 12h1v2H8v-2zM2 6V5h3V4h1v2H5v1H4v1H3v1H2V8H1V7H0V6h2zm8 6h2v2h-2v-2zm0 7h2v2h-2v-2zm0-15h2v2h-2V4zm0 11h2v1h-2v-1zm0-8h2v1h-2V7zm-6 5h1v2H4v-2zm-3 7h2v2H1v-2zm3 0h1v2H4v-2zm-3-7h2v2H1v-2zm15-8h1v2h-1V4zm0 3h1v1h-1V7zm4 8h1v1h-1v-1zm-4 0h1v1h-1v-1zm6 0h2v1h-2v-1zm-6-3h1v2h-1v-2zm6 0h2v2h-2v-2zm-2-5h1v1h-1V7zm2 0h1v1h-1V7zm-2-3h1v2h-1V4zm2 0h1v2h-1V4zm-2-2h1v1h-1V2zm2 0h1v1h-1V2zm-2 10h1v2h-1v-2zm-7 3h2v1h-2v-1zm0 4h2v2h-2v-2zm7 0h1v2h-1v-2zm2 0h2v2h-2v-2zM13 4h2v2h-2V4zm0 8h2v2h-2v-2zm0-5h2v1h-2V7z"/></g></svg>