<svg xmlns="http://www.w3.org/2000/svg" viewBox="0 0 24 22"><path d="M24,5h-2V4h-3V3h-1V2h-2V1h-2V0H0v22h3v-2h3v2h4v-2h4v2h4v-2h2v2h4V5z" fill="#640000"/><path d="M23 7v3h-2V8h-1v2h-1V8h1V7h-1V6h-1v14h1v-4h1v4h1v-4h2v4h1V7h-1zm-3 8h-1v-1h1v1zm0-2h-1v-2h1v2zm3 2h-2v-1h2v1zm0-2h-2v-2h2v2zM15 1h-1v1h-2V0h-1v2H9V1H8v1H7V1H6v19h1v-4h1v4h1v-4h5v4h1v-4h1v4h1V2h-2V1zM8 15H7v-1h1v1zm0-2H7v-2h1v2zm0-3H7V8h1v2zm0-3H7V6h1v1zm0-2H7V3h1v2zm1-2h2v2H9V3zm0 3h2v1H9V6zm2 9H9v-1h2v1zm0-2H9v-2h2v2zm3 2h-2v-1h2v1zm0-2h-2v-2h2v2zm0-3H9V8h5v2zm0-3h-2V6h2v1zm0-2h-2V3h2v2zm2 10h-1v-1h1v1zm0-2h-1v-2h1v2zm0-3h-1V8h1v2zm0-3h-1V6h1v1zm0-4v2h-1V3h1zM4 2H3V1H2v1H1V1H0v10h2v2H0v1h2v1H0v1h2v4h1v-4h1v4h1V1H4v1zm-2 8H1V8h1v2zm0-3H1V6h1v1zm0-2H1V3h1v2zm2 10H3v-1h1v1zm0-2H3v-2h1v2zm0-3H3V8h1v2zm0-3H3V6h1v1zm0-2H3V3h1v2z" fill="red"/><g fill="#e9eef2"><path d="M15 3h1v2h-1zm0 3h1v1h-1zm2-4h1v1h-1zm-2-1h1v1h-1zm-2-1h1v1h-1zm8 14h2v1h-2zm-2 0h1v1h-1zm-4 0h1v1h-1z"/><path d="M15 11h1v2h-1zm7-6V4h-3V3h-1v2h1v1h1v1h1v1h1V7h1V6h1V5zm-10 6h2v2h-2zm0 7h2v2h-2zm0-15h2v2h-2zm0 11h2v1h-2zm0-8h2v1h-2zm7 5h1v2h-1zm2 7h2v2h-2zm-2 0h1v2h-1zm2-7h2v2h-2zM7 3h1v2H7zm0 3h1v1H7zm-4 8h1v1H3zm4 0h1v1H7zm-7 0h2v1H0zm7-3h1v2H7zm-7 0h2v2H0zm3-5h1v1H3zM1 6h1v1H1zm2-3h1v2H3zM1 3h1v2H1zm2-2h1v1H3zM1 1h1v1H1zm2 10h1v2H3zm6 3h2v1H9zm0 4h2v2H9zm-6 0h1v2H3zm-3 0h2v2H0zM9 3h2v2H9zm0 8h2v2H9zm0-5h2v1H9z"/></g></svg>