<svg xmlns="http://www.w3.org/2000/svg" viewBox="0 0 24 22"><path d="M15 0v1h2v1h2v1.1h2V4h2v1h1v17h-3v-2h-3v2h-4v-2h-4v2H6v-2H3v2H0V0h15z" fill="#0064b4"/><path d="M15 0v1h2v1h2v1.1h2V4h2v1h1v8h-1v7h-2v-2h-3v2h-4v-2h-4v2H6v-2H3v2H1v-4H0V0h15z" fill="#0af"/><path d="M15 0v1h2v1h2v1.1h2V4h2v1h1v8h-1v-2h-2v-1h-5v1h-1v2h-1v3h-4v-3H9v-2H8v-1H2v1h1v1h1v4H0V0h15z"/><g fill="#ffbe00"><path d="M13 13v1h-2v-1h2zm-2-5V7h2v3h-2V8zM1 11h1v1H0V9h1v2z"/><path d="M3 13v1H0v-1h2v-1h1v1zM0 1v2h1V2h2v1H1v1H0v3h1V5h1v2H1v2h2V7h1v2h4v1h1v1h1v2h1v-1h2v1h1v-2h1v-1h1V7h-1V4h1v3h1v2h2V7h-1V5h1v2h1v2h1v1h1V7h1v3h1V5h-1V4h-4V3h-2V2h-2V1H0zm9 6H8V4h1v2 1zm1 3V7h1V3H9V2h2v1h2v4h1v3h-1v1h-2v-1h-1z"/></g><g fill="#ff0096"><path d="M21 5h2v1h-2z"/><path d="M23 6h1v1h-1z"/></g><g fill="#0000be"><path d="M21 4h2v1h-2z"/><path d="M23 5h1v1h-1z"/></g><path d="M23 7h1v3h-1z" fill="#fff"/></svg>