<svg xmlns="http://www.w3.org/2000/svg" viewBox="0 0 24 22"><path d="M9 0v1H7v1H5v1.1H3V4H1v1H0v17h3v-2h3v2h4v-2h4v2h4v-2h3v2h3V0H9z" fill="#0064b4"/><path d="M9 0v1H7v1H5v1.1H3V4H1v1H0v8h1v7h2v-2h3v2h4v-2h4v2h4v-2h3v2h2v-4h1V0H9z" fill="#0af"/><path d="M9 0v1H7v1H5v1.1H3V4H1v1H0v8h1v-2h2v-1h5v1h1v2h1v3h4v-3h1v-2h1v-1h6v1h-1v1h-1v4h4V0H9z"/><g fill="#ffbe00"><path d="M11 13v1h2v-1h-2zm2-5V7h-2v3h2V8zm10 3h-1v1h2V9h-1v2z"/><path d="M21 13v1h3v-1h-2v-1h-1v1zM9 1v1H7v1H5v1H1v1H0v5h1V7h1v3h1V9h1V7h1V5h1v2H5v2h2V7h1V4h1v3H8v3h1v1h1v2h1v-1h2v1h1v-2h1v-1h1V9h4V7h1v2h2V7h-1V5h1v2h1V4h-1V3h-2V2h2v1h1V1H9zm6 5V4h1v3h-1V6zm-2 4v1h-2v-1h-1V7h1V3h2V2h2v1h-2v4h1v3h-1z"/></g><g fill="#ff0096"><path d="M1 5h2v1H1z"/><path d="M0 6h1v1H0z"/></g><g fill="#0000be"><path d="M1 4h2v1H1z"/><path d="M0 5h1v1H0z"/></g><path d="M0 7h1v3H0z" fill="#fff"/></svg>