<svg xmlns="http://www.w3.org/2000/svg" viewBox="0 0 42 24"><path d="M38 2h-3v1h-2v1h-2v1h-2v1h-2v1h-2v2h-2v1h-1v1h-2v-1h-1V9h-2V7h-2V6h-2V5h-2V4H9V3H7V2H4v22h4v-2h5v2h5v-2h6v2h5v-2h5v2h4V2z" fill="#0064b4"/><path d="M36 17v-2h-1v-2h-1v-1h-5v1h-2v2h-1v2h-1v1h-1v1h-2v1h2v2h5v-2h5v2h3v-4h-1v-1zm-18 2v-1h-1v-1h-1v-2h-1v-2h-2v-1H8v1H7v2H6v3H5v4h3v-2h5v2h5v-2h2v-1h-2z" fill="#0af"/><g fill="#ff0096"><path d="M14,7h-1v1h2V7H14z"/><path d="M15 8v1h2V8h-2zm13-1h-1v1h2V7h-1z"/><path d="M25,8v1h2V8H25z"/></g><g fill="#0000be"><path d="M14,6h-1v1h2V6H14z"/><path d="M15 7v1h2V7h-2zm13-1h-1v1h2V6h-1z"/><path d="M25,7v1h2V7H25z"/></g><g fill="#ffbe00"><path d="M5 10V9H4v3h1v-2zm-1 5h1v1H4v-1z"/><path d="M20 12v1h2v-1h-2zm-7-4V6h-2V5H9V4H7V3H4v2h1v4h1v3H5v1H4v1h1v1h1v-2h1v-1h1V9H7V6h1v3h1v2h2V9h-1V7h1v2h1v2h1v1h1V9h1V8h-2z"/><path d="M19,11v-1h-2v1h1v1h2v-1H19z"/><path d="M16 9h1v1h-1V9zm21-6h-2v1h-2v1h-2v1h-2v2h-2v1h1v3h1v-1h1V9h1V7h1v2h-1v2h2V9h1V6h1v3h-1v3h1v1h1v2h1v-1h1v-1h-1v-1h-1V9h1V5h1V3h-1z"/><path d="M37 11v1h1V9h-1v2zm0 4h1v1h-1v-1zm-16-1h-1v-1h-3v-1h-1v3h1v-1h2v1h-2v2h1v-1h6v1h1v-2h-2v-1h2v1h1v-3h-1v1h-3v1h-1zm4-5h1v1h-1V9z"/><path d="M23,10v1h-1v1h2v-1h1v-1H23z"/></g><g fill="#fff"><path d="M17 12h1v1h-1v-1zm3 6v1h2v-1h-2z"/><path d="M19 17v-1h-1v2h2v-1h-1zm-2-7h-1V9h-1v3h2v-2zm7 2h1v1h-1v-1z"/><path d="M26 9v1h-1v2h2V9h-1zm-3 8h-1v1h2v-2h-1v1z"/></g><path d="M7,12h1v1H7V12z"/><path d="M6 14v1h1v-2H6v1zM5 7V5H4v4h1V7z"/><path d="M6,11V9H5v3h1V11z"/><path d="M4 12h1v1H4v-1zm0 2h1v1H4v-1z"/><path d="M5 16H4v2h2v-3H5v1zm12-5h1v1h-1v-1zM8 7V6H7v3h1V7z"/><path d="M12 11V9h-1v2H9V9H8v3h5v-1h-1zm5 4h-1v2h1v-2z"/><path d="M17 17h1v1h-1v-1zm-1-4v-1h-1V9h-1v3h-1v1h2v2h1v-2zm-5-7h2V5h-2v1z"/><path d="M10 5h1V4H9v1h1z"/><path d="M8 4h1V3H7v1h1zm11 6h1v1h-1v-1z"/><path d="M18 9h-1v1h2V9h-1zm4 9v1h2v-1h-2zm-3 0h-1v1h2v-1h-1zM7 3V2H4v1h3zm4 4h-1v2h1V7zm8 8v-1h-2v1h2zm0-2h1v-1h-2v1h1z"/><path d="M20 13v1h2v-1h-2zM35 2v1h3V2h-3zm-1 10h1v1h-1v-1z"/><path d="M36 13h-1v2h1v-2zm0-3v2h1V9h-1v1z"/><path d="M37 12h1v1h-1v-1zm0 2h1v1h-1v-1z"/><path d="M36 16v2h2v-2h-1v-1h-1v1zm-4-8V7h-1v2h1V8zm-4 3V9h-1v3h-1v3h1v-2h2v-1h-1v-1zm-4 0h1v1h-1v-1zm13-5v3h1V5h-1v1zm-2 2V6h-1v3h1V8z"/><path d="M34 10V9h-1v2h-2V9h-1v2h-1v1h5v-2zm-9 6v1h1v-2h-1v1z"/><path d="M24 17h1v1h-1v-1zm0-3h-1v1h2v-1h-1zm7-8V5h-2v1h2z"/><path d="M31,4v1h2V4H31z"/><path d="M33 3v1h2V3h-2zM23 13h1v-1h-2v1h1zm-1-3h1v1h-1v-1z"/><path d="M25 10V9h-2v1h2zm-3 2v-1h-2v1h2zm0 6v-1h1v-1h-4v1h1v1h2zm-2 1v1h2v-1h-2z"/></svg>