<svg xmlns="http://www.w3.org/2000/svg" viewBox="0 0 24 23"><path d="M9,1v1H7v1H5v1.1H3V5H1v1H0v17h3v-2h3v2h4v-2h4v2h4v-2h3v2h3V1H9z" fill="#0064b4"/><path d="M9,1v1H7v1H5v1.1H3V5H1v1H0v8h1v7h2v-2h3v2h4v-2h4v2h4v-2h3v2h2v-4h1V1H9z" fill="#0af"/><path d="M9,1v1H7v1H5v1.1H3V5H1v1H0v8h1v-2h2v-1h5v1h1v2h1v3h4v-3h1v-2h1v-1h6v1h-1v1h-1v4h4V1H9z"/><g fill="#ffbe00"><path d="M11 14v1h2v-1h-2zm2-5V8h-2v3h2V9zm10 3h-1v1h2v-3h-1v2z"/><path d="M21 14v1h3v-1h-2v-1h-1v1zM9 2v1H7v1H5v1H1v1H0v5h1V8h1v3h1v-1h1V8h1V6h1v2H5v2h2V8h1V5h1v3H8v3h1v1h1v2h1v-1h2v1h1v-2h1v-1h1v-1h4V8h1v2h2V8h-1V6h1v2h1V5h-1V4h-2V3h2v1h1V2H9zm6 5V5h1v3h-1V7zm-2 4v1h-2v-1h-1V8h1V4h2V3h2v1h-2v4h1v3h-1z"/></g><g fill="#ff0096"><path d="M1,6h2v1H1V6z"/><path d="M0,7h1v1H0V7z"/></g><g fill="#0000be"><path d="M1,5h2v1H1V5z"/><path d="M0,6h1v1H0V6z"/></g><path d="M0,8h1v3H0V8z" fill="#fff"/></svg>