<svg xmlns="http://www.w3.org/2000/svg" viewBox="0 0 24 23"><path d="M15,1v1h2v1h2v1.1h2V5h2v1h1v17h-3v-2h-3v2h-4v-2h-4v2H6v-2H3v2H0V1H15z" fill="#0064b4"/><path d="M15,1v1h2v1h2v1.1h2V5h2v1h1v8h-1v7h-2v-2h-3v2h-4v-2h-4v2H6v-2H3v2H1v-4H0V1H15z" fill="#0af"/><path d="M15,1v1h2v1h2v1.1h2V5h2v1h1v8h-1v-2h-2v-1h-5v1h-1v2h-1v3h-4v-3H9v-2H8v-1H2v1h1v1h1v4H0V1H15z"/><g fill="#ffbe00"><path d="M13 14v1h-2v-1h2zm-2-5V8h2v3h-2V9zM1 12h1v1H0v-3h1v2z"/><path d="M3 14v1H0v-1h2v-1h1v1zM0 2v2h1V3h2v1H1v1H0v3h1V6h1v2H1v2h2V8h1v2h4v1h1v1h1v2h1v-1h2v1h1v-2h1v-1h1V8h-1V5h1v3h1v2h2V8h-1V6h1v2h1v2h1v1h1V8h1v3h1V6h-1V5h-4V4h-2V3h-2V2H0zm9 6H8V5h1v2 1zm1 3V8h1V4H9V3h2v1h2v4h1v3h-1v1h-2v-1h-1z"/></g><g fill="#ff0096"><path d="M21,6h2v1h-2V6z"/><path d="M23,7h1v1h-1V7z"/></g><g fill="#0000be"><path d="M21,5h2v1h-2V5z"/><path d="M23,6h1v1h-1V6z"/></g><path d="M23,8h1v3h-1V8z" fill="#fff"/></svg>