<?xml version="1.0" encoding="utf-8"?>
<!-- Generator: Adobe Illustrator 25.2.1, SVG Export Plug-In . SVG Version: 6.00 Build 0)  -->
<svg version="1.1" id="Layer_1" xmlns:v="https://vecta.io/nano"
	 xmlns="http://www.w3.org/2000/svg" xmlns:xlink="http://www.w3.org/1999/xlink" x="0px" y="0px" viewBox="0 0 42 22"
	 style="enable-background:new 0 0 42 22;" xml:space="preserve">
<style type="text/css">
	.st0{fill:#0064B4;}
	.st1{fill:#00AAFF;}
	.st2{fill:#FF0096;}
	.st3{fill:#0000BE;}
	.st4{fill:#FFBE00;}
	.st5{fill:#FFFFFF;}
</style>
<g>
	<path class="st0" d="M38,0h-3v1h-2v1h-2v1h-2v1h-2v1h-2v2h-2v1h-1v1h-2V8h-1V7h-2V5h-2V4h-2V3h-2V2H9V1H7V0H4v22h4v-2h5v2h5v-2h6v2
		h5v-2h5v2h4V0z"/>
	<path class="st1" d="M36,15v-2h-1v-2h-1v-1h-5v1h-2v2h-1v2h-1v1h-1v1h-2v1h2v2h5v-2h5v2h3v-4h-1V15z M18,17v-1h-1v-1h-1v-2h-1v-2
		h-2v-1H8v1H7v2H6v3H5v4h3v-2h5v2h5v-2h2v-1H18z"/>
	<g>
		<path class="st2" d="M14,5h-1v1h2V5H14z"/>
		<path class="st2" d="M15,6v1h2V6H15z M28,5h-1v1h2V5H28z"/>
		<path class="st2" d="M25,6v1h2V6H25z"/>
	</g>
	<g>
		<path class="st3" d="M14,4h-1v1h2V4H14z"/>
		<path class="st3" d="M15,5v1h2V5H15z M28,4h-1v1h2V4H28z"/>
		<path class="st3" d="M25,5v1h2V5H25z"/>
	</g>
	<g>
		<path class="st4" d="M5,8V7H4v3h1V8z M4,13h1v1H4V13z"/>
		<path class="st4" d="M20,10v1h2v-1H20z M13,6V4h-2V3H9V2H7V1H4v2h1v4h1v3H5v1H4v1h1v1h1v-2h1v-1h1V7H7V4h1v3h1v2h2V7h-1V5h1v2h1v2
			h1v1h1V7h1V6H13z"/>
		<path class="st4" d="M19,9V8h-2v1h1v1h2V9H19z"/>
		<path class="st4" d="M16,7h1v1h-1V7z M37,1h-2v1h-2v1h-2v1h-2v2h-2v1h1v3h1V9h1V7h1V5h1v2h-1v2h2V7h1V4h1v3h-1v3h1v1h1v2h1v-1h1
			v-1h-1v-1h-1V7h1V3h1V1H37z"/>
		<path class="st4" d="M37,9v1h1V7h-1V9z M37,13h1v1h-1V13z M21,12h-1v-1h-3v-1h-1v3h1v-1h2v1h-2v2h1v-1h6v1h1v-2h-2v-1h2v1h1v-3h-1
			v1h-3v1H21z M25,7h1v1h-1V7z"/>
		<path class="st4" d="M23,8v1h-1v1h2V9h1V8H23z"/>
	</g>
	<g>
		<path class="st5" d="M17,10h1v1h-1V10z M20,16v1h2v-1H20z"/>
		<path class="st5" d="M19,15v-1h-1v2h2v-1H19z M17,8h-1V7h-1v3h2V8z M24,10h1v1h-1V10z"/>
		<path class="st5" d="M26,7v1h-1v2h2V7H26z M23,15h-1v1h2v-2h-1V15z"/>
	</g>
	<path d="M7,10h1v1H7V10z"/>
	<path d="M6,12v1h1v-2H6V12z M5,5V3H4v4h1V5z"/>
	<path d="M6,9V7H5v3h1V9z"/>
	<path d="M4,10h1v1H4V10z M4,12h1v1H4V12z"/>
	<path d="M5,14H4v2h2v-3H5V14z M17,9h1v1h-1V9z M8,5V4H7v3h1V5z"/>
	<path d="M12,9V7h-1v2H9V7H8v3h5V9H12z M17,13h-1v2h1V13z"/>
	<path d="M17,15h1v1h-1V15z M16,11v-1h-1V7h-1v3h-1v1h2v2h1V11z M11,4h2V3h-2V4z"/>
	<path d="M10,3h1V2H9v1H10z"/>
	<path d="M8,2h1V1H7v1H8z M19,8h1v1h-1V8z"/>
	<path d="M18,7h-1v1h2V7H18z M22,16v1h2v-1H22z M19,16h-1v1h2v-1H19z M7,1V0H4v1H7z M11,5h-1v2h1V5z M19,13v-1h-2v1H19z M19,11h1v-1
		h-2v1H19z"/>
	<path d="M20,11v1h2v-1H20z M35,0v1h3V0H35z M34,10h1v1h-1V10z"/>
	<path d="M36,11h-1v2h1V11z M36,8v2h1V7h-1V8z"/>
	<path d="M37,10h1v1h-1V10z M37,12h1v1h-1V12z"/>
	<path d="M36,14v2h2v-2h-1v-1h-1V14z M32,6V5h-1v2h1V6z M28,9V7h-1v3h-1v3h1v-2h2v-1h-1V9z M24,9h1v1h-1V9z M37,4v3h1V3h-1V4z M35,6
		V4h-1v3h1V6z"/>
	<path d="M34,8V7h-1v2h-2V7h-1v2h-1v1h5V8z M25,14v1h1v-2h-1V14z"/>
	<path d="M24,15h1v1h-1V15z M24,12h-1v1h2v-1H24z M31,4V3h-2v1H31z"/>
	<path d="M31,2v1h2V2H31z"/>
	<path d="M33,1v1h2V1H33z M23,11h1v-1h-2v1H23z M22,8h1v1h-1V8z"/>
	<path d="M25,8V7h-2v1H25z M22,10V9h-2v1H22z M22,16v-1h1v-1h-4v1h1v1H22z M20,17v1h2v-1H20z"/>
</g>
</svg>
