<svg xmlns="http://www.w3.org/2000/svg" viewBox="0 0 38 28"><path d="M2 28v-1H1v-1H0V10h2V8h2V6h2V4h3V2h3V0h14v2h3v2h3v2h2v2h2v2h2v16h-1v1h-1v1z" fill="#f6748a"/><path d="M5 11v1h1v-1-1H5zm0 4v1h1v-1-1H5zm0 4v1h1v-1-1H5zM8 5v1h1V5 4H8zm0 4v1h1V9 8H8zm0 4v1h1v-1-1H8zm3-10v1h1V3 2h-1zm3 0v1h1V3 2h-1zm-3 4v1h1V7 6h-1zm0 4v1h1v-1-1h-1zM5 23v1h1v-1-1H5zm0 4v1h1v-1-1H5zM2 13v1h1v-1-1H2zm0 4v1h1v-1-1H2zm0 4v1h1v-1-1H2zm0 4v1h1v-1-1H2zm6-8v1h1v-1-1H8zm0 4v1h1v-1-1H8zm0 4v1h1v-1-1H8zm6-18v1h1V7 6h-1zm0 4v1h1v-1-1h-1zm0 4v1h1v-1-1h-1zm0 4v1h1v-1-1h-1zm0 4v1h1v-1-1h-1zm0 4v1h1v-1-1h-1zm3-24v1h1V3 2h-1zm0 4v1h1V7 6h-1zm0 4v1h1v-1-1h-1zm0 4v1h1v-1-1h-1zm0 4v1h1v-1-1h-1zm0 4v1h1v-1-1h-1zm0 4v1h1v-1-1h-1zm6-24v1h1V3 2h-1zm0 4v1h1V7 6h-1zm0 4v1h1v-1-1h-1zm0 4v1h1v-1-1h-1zm0 4v1h1v-1-1h-1zm0 4v1h1v-1-1h-1zm0 4v1h1v-1-1h-1zM20 3v1h1V3 2h-1zm0 4v1h1V7 6h-1zm0 4v1h1v-1-1h-1zm0 4v1h1v-1-1h-1zm0 4v1h1v-1-1h-1zm0 4v1h1v-1-1h-1zm0 4v1h1v-1-1h-1zm-9-12v1h1v-1-1h-1zm0 4v1h1v-1-1h-1zm0 4v1h1v-1-1h-1zm0 4v1h1v-1-1h-1zM29 5v1h1V5 4h-1zm0 4v1h1V9 8h-1zm-3-6v1h1V3 2h-1zm0 4v1h1V7 6h-1zm0 4v1h1v-1-1h-1zm0 4v1h1v-1-1h-1zm0 4v1h1v-1-1h-1zm0 4v1h1v-1-1h-1zm0 4v1h1v-1-1h-1zm6-16v1h1v-1-1h-1zm0 4v1h1v-1-1h-1zm0 4v1h1v-1-1h-1zm0 4v1h1v-1-1h-1zm0 4v1h1v-1-1h-1zm3-15v1 1h1v-1-1zm0 5v1h1v-1-1h-1zm0 4v1h1v-1-1h-1zm0 4v1h1v-1-1h-1zm-6-12v1h1v-1-1h-1zm0 4v1h1v-1-1h-1zm0 4v1h1v-1-1h-1zm0 4v1h1v-1-1h-1z" fill="#8dc3c0"/><path d="M5 9v1h1V9 8H5zm0 4v1h1v-1-1H5zm0 4v1h1v-1-1H5zm0 4v1h1v-1-1H5zM8 7v1h1V7 6H8zm0 4v1h1v-1-1H8zm0 4v1h1v-1-1H8zm3-10v1h1V5 4h-1zm3-4v1h1V1 0h-1zm-3 8v1h1V9 8h-1zm0 4v1h1v-1-1h-1zM5 25v1h1v-1-1H5zM2 11v1h1v-1-1H2zm0 4v1h1v-1-1H2zm0 4v1h1v-1-1H2zm0 4v1h1v-1-1H2zm0 4v1h1v-1-1H2zm6-8v1h1v-1-1H8zm0 4v1h1v-1-1H8zm0 4v1h1v-1-1H8zm6-22v1h1V5 4h-1zm0 4v1h1V9 8h-1zm0 4v1h1v-1-1h-1zm0 4v1h1v-1-1h-1zm0 4v1h1v-1-1h-1zm0 4v1h1v-1-1h-1zm3-24v1h1V1 0h-1zm0 4v1h1V5 4h-1zm0 4v1h1V9 8h-1zm0 4v1h1v-1-1h-1zm0 4v1h1v-1-1h-1zm0 4v1h1v-1-1h-1zm0 4v1h1v-1-1h-1zm6-24v1h1V1 0h-1zm0 4v1h1V5 4h-1zm0 4v1h1V9 8h-1zm0 4v1h1v-1-1h-1zm0 4v1h1v-1-1h-1zm0 4v1h1v-1-1h-1zm0 4v1h1v-1-1h-1zM20 1v1h1V1 0h-1zm0 4v1h1V5 4h-1zm0 4v1h1V9 8h-1zm0 4v1h1v-1-1h-1zm0 4v1h1v-1-1h-1zm0 4v1h1v-1-1h-1zm0 4v1h1v-1-1h-1zm-9-8v1h1v-1-1h-1zm0 4v1h1v-1-1h-1zm0 4v1h1v-1-1h-1zM29 7v1h1V7 6h-1zm0 4v1h1v-1-1h-1zm-3-6v1h1V5 4h-1zm0 4v1h1V9 8h-1zm0 4v1h1v-1-1h-1zm0 4v1h1v-1-1h-1zm0 4v1h1v-1-1h-1zm0 4v1h1v-1-1h-1zm6-16v1h1V9 8h-1zm0 4v1h1v-1-1h-1zm0 4v1h1v-1-1h-1zm0 4v1h1v-1-1h-1zm0 4v1h1v-1-1h-1zm3-15v1 1h1v-1-1zm0 5v1h1v-1-1h-1zm0 4v1h1v-1-1h-1zm0 4v1h1v-1-1h-1zm0 4v1h1v-1-1h-1zm-6-12v1h1v-1-1h-1zm0 4v1h1v-1-1h-1zm0 4v1h1v-1-1h-1zm0 4v1h1v-1-1h-1z" fill="#027073"/><path d="M0 14v1 1h1 1v-1-1H1zm0 4v1 1h1 1v-1-1H1zm0 4v1 1h1 1v-1-1H1zm0-12v1 1h1 1v-1-1H1zm3 6v1 1h1 1v-1-1H4zm0 4v1 1h1 1v-1-1H4zM3 8v1 1h1 1V9 8H4zm0 4v1 1h1 1v-1-1H4zm3 6v1 1h1 1v-1-1H7zm0 4v1 1h1 1v-1-1H7zm0 4v1 1h1 1v-1-1H7zm-3-2v1 1h1 1v-1-1H4zM6 6v1 1h1 1V7 6H7zm0 4v1 1h1 1v-1-1H7zm0 4v1 1h1 1v-1-1H7zM9 4v1 1h1 1V5 4h-1zm0 4v1 1h1 1V9 8h-1zm0 4v1 1h1 1v-1-1h-1zm0 4v1 1h1 1v-1-1h-1zm0 4v1 1h1 1v-1-1h-1zm0 4v1 1h1 1v-1-1h-1zm3-22v1 1h1 1V3 2h-1zm0 4v1 1h1 1V7 6h-1zm3-4v1 1h1 1V3 2h-1zm0 4v1 1h1 1V7 6h-1zm0 4v1 1h1 1v-1-1h-1zm0 4v1 1h1 1v-1-1h-1zm0 4v1 1h1 1v-1-1h-1zm0 4v1 1h1 1v-1-1h-1zm0 4v1 1h1 1v-1-1h-1zm6 0v1 1h1 1v-1-1h-1zM18 2v1 1h1 1V3 2h-1zm0 4v1 1h1 1V7 6h-1zm0 4v1 1h1 1v-1-1h-1zm0 4v1 1h1 1v-1-1h-1zm0 4v1 1h1 1v-1-1h-1zm0 4v1 1h1 1v-1-1h-1zm0 4v1 1h1 1v-1-1h-1zm3-24v1 1h1 1V3 2h-1zm0 4v1 1h1 1V7 6h-1zm0 4v1 1h1 1v-1-1h-1zm0 4v1 1h1 1v-1-1h-1zm0 4v1 1h1 1v-1-1h-1zm0 4v1 1h1 1v-1-1h-1zm-9-12v1 1h1 1v-1-1h-1zm0 4v1 1h1 1v-1-1h-1zm0 4v1 1h1 1v-1-1h-1zm0 4v1 1h1 1v-1-1h-1zm0 4v1 1h1 1v-1-1h-1zM27 4v1 1h1 1V5 4h-1zm0 4v1 1h1 1V9 8h-1zm0 4v1 1h1 1v-1-1h-1zm0 4v1 1h1 1v-1-1h-1zm0 4v1 1h1 1v-1-1h-1zm0 4v1 1h1 1v-1-1h-1zM24 2v1 1h1 1V3 2h-1zm0 4v1 1h1 1V7 6h-1zm0 4v1 1h1 1v-1-1h-1zm0 4v1 1h1 1v-1-1h-1zm0 4v1 1h1 1v-1-1h-1zm0 4v1 1h1 1v-1-1h-1zm0 4v1 1h1 1v-1-1h-1zm12-12v1 1h1 1v-1-1h-1zm0 4v1 1h1 1v-1-1h-1zM1 26h1v1H1zm35 0h1v1h-1zm0-4v1 1h1 1v-1-1h-1zm1-12h-1v1 1h1 1v-1-1zm-4 6v1 1h1 1v-1-1h-1zm0 4v1 1h1 1v-1-1h-1zm0-12v1 1h1 1V9 8h-1zm0 4v1 1h1 1v-1-1h-1zm0 12v1 1h1 1v-1-1h-1zM30 6v1 1h1 1V7 6h-1zm0 4v1 1h1 1v-1-1h-1zm0 4v1 1h1 1v-1-1h-1zm0 4v1 1h1 1v-1-1h-1zm0 4v1 1h1 1v-1-1h-1zm0 4v1 1h1 1v-1-1h-1z" fill="#c10359"/></svg>