<svg xmlns="http://www.w3.org/2000/svg" viewBox="0 0 23 28"><path d="M0 28h11v-1h2v-5h2v-4h1v-2h3V8h4V6h-2V4h-2V2h-4V0H9v2H5v2H3v2H1v2H0z" fill="#f6748a"/><path d="M14 11v-1h-1v1 1h1zm0-4V6h-1v1 1h1zm0 8v-1h-1v1 1h1zm-1 3v1 1h1 1v-1-1h-1zm3-13v1h1V5 4h-1zm0 4v1h1V9 8h-1zm0 4v1h1v-1-1h-1zm-6 0v1h1v-1-1h-1zm0 4v1h1v-1-1h-1zm0 4v1h1v-1-1h-1zm0 4v1h1v-1-1h-1zm9-20v1h1V5 4h-1zm2 1v1 1h1V7 6zM5 13v1h1v-1-1H5zm0 4v1h1v-1-1H5zm0 4v1h1v-1-1H5zm0 4v1h1v-1-1H5zM0 13v1h1v-1-1H0zm10-4v1h1V9 8h-1zm4-6V2h-1v1 1h1zM5 9v1h1V9 8H5zm5-4v1h1V5 4h-1zm0-4v1h1V1 0h-1zM5 5v1h1V5 4H5zM0 9v1h1V9 8H0zm0 8v1h1v-1-1H0zm0 4v1h1v-1-1H0zm0 4v1h1v-1-1H0z" fill="#8dc3c0"/><g fill="#c10359"><path d="M8 16h1 1v-1-1H9 8v1zm0 4h1 1v-1-1H9 8v1zm0 4h1 1v-1-1H9 8v1zm0-12h1 1v-1-1H9 8v1zm3 4v1 1h1 1v-1-1h-1zm0 4v1 1h1 1v-1-1h-1zm0-12v1 1h1 1V9 8h-1zm0 4v1 1h1 1v-1-1h-1zm0 12v2h1 1v-2h-1zm3-18v1 1h1 1V7 6h-1zm0 4v1 1h1 1v-1-1h-1zm0 4v1 1h1 1v-1-1h-1zm3-10v1 1h1 1V5 4h-1zm0 4v1 1h1 1V9 8h-1zm0 4v1 1h1 1v-1-1h-1zm3-6v1 1h1V7 6z"/><path d="M3 16h1 1v-1-1H4 3v1zm0 4h1 1v-1-1H4 3v1zm0 4h1 1v-1-1H4 3v1zm0-12h1 1v-1-1H4 3v1zm3 4v1 1h1 1v-1-1H7zm0 4v1 1h1 1v-1-1H7zm0-8v1 1h1 1v-1-1H7zm0 12v1 1h1 1v-1-1H7z"/><path d="M1 16v1 1h1 1v-1-1H2zm0 4v1 1h1 1v-1-1H2zm0-8v1 1h1 1v-1-1H2zm7-4h1 1V7 6H9 8v1z"/><path d="M3 6v1 1h1 1V7 6H4zm3 2v1 1h1 1V9 8H7zm8-6v1 1h1 1V3 2h-1zM8 2v1 1h1 1V3 2H9z"/><path d="M11 4v1 1h1 1V5 4h-1zm0-4v1 1h1 1V1 0h-1zM6 4v1 1h1 1V5 4H7zM1 8v1 1h1 1V9 8H2zm0 16v1 1h1 1v-1-1H2zm7 4h1 1v-1-1H9 8v1z"/><path d="M3 28h1 1v-1-1H4 3v1z"/></g><path d="M14 9V8h-1v1 1h1zm0 4v-1h-1v1 1h1zm0 4v-1h-1v1 1h1zm-1 3v1 1h1 1v-1-1h-1zm3-13v1h1V7 6h-1zm0 4v1h1v-1-1h-1zm0 4v1h1v-1-1h-1zm-6-4v1h1v-1-1h-1zm0 4v1h1v-1-1h-1zm0 4v1h1v-1-1h-1zm0 4v1h1v-1-1h-1zm0 4v1h1v-1-1h-1zm9-21v1 1h1V7 6zM5 11v1h1v-1-1H5zm0 4v1h1v-1-1H5zm0 4v1h1v-1-1H5zm0 4v1h1v-1-1H5zm0 4v1h1v-1-1H5zM0 11v1h1v-1-1H0zm10-4v1h1V7 6h-1zM5 7v1h1V7 6H5zm11-4v1h1V3 2h-1zm-6 0v1h1V3 2h-1zM5 3v1h1V3 2H5zm9 2V4h-1v1 1h1zm0-4V0h-1v1 1h1zM0 15v1h1v-1-1H0zm0 4v1h1v-1-1H0zm0 4v1h1v-1-1H0zm0 4v1h1v-1-1H0z" fill="#027073"/></svg>