<svg xmlns="http://www.w3.org/2000/svg" viewBox="0 0 23 28"><path d="M23 28H12v-1h-2v-5H8v-4H7v-2H4V8H0V6h2V4h2V2h4V0h6v2h4v2h2v2h2v2h1z" fill="#f6748a"/><path d="M9 11v-1h1v1 1H9zm0-4V6h1v1 1H9zm0 8v-1h1v1 1H9zm1 3v1 1H9 8v-1-1h1zM7 5v1H6V5 4h1zm0 4v1H6V9 8h1zm0 4v1H6v-1-1h1zm6 0v1h-1v-1-1h1zm0 4v1h-1v-1-1h1zm0 4v1h-1v-1-1h1zm0 4v1h-1v-1-1h1zM4 5v1H3V5 4h1zM2 6v1 1H1V7 6zm16 7v1h-1v-1-1h1zm0 4v1h-1v-1-1h1zm0 4v1h-1v-1-1h1zm0 4v1h-1v-1-1h1zm5-12v1h-1v-1-1h1zM13 9v1h-1V9 8h1zM9 3V2h1v1 1H9zm9 6v1h-1V9 8h1zm-5-4v1h-1V5 4h1zm0-4v1h-1V1 0h1zm5 4v1h-1V5 4h1zm5 4v1h-1V9 8h1zm0 8v1h-1v-1-1h1zm0 4v1h-1v-1-1h1zm0 4v1h-1v-1-1h1z" fill="#8dc3c0"/><g fill="#c10359"><path d="M15 16h-1-1v-1-1h1 1v1zm0 4h-1-1v-1-1h1 1v1zm0 4h-1-1v-1-1h1 1v1zm0-12h-1-1v-1-1h1 1v1zm-3 4v1 1h-1-1v-1-1h1zm0 4v1 1h-1-1v-1-1h1zm0-12v1 1h-1-1V9 8h1zm0 4v1 1h-1-1v-1-1h1zm0 12v2h-1-1v-2h1zM9 6v1 1H8 7V7 6h1zm0 4v1 1H8 7v-1-1h1zm0 4v1 1H8 7v-1-1h1zM6 4v1 1H5 4V5 4h1zm0 4v1 1H5 4V9 8h1zm0 4v1 1H5 4v-1-1h1zM3 6v1 1H2V7 6z"/><path d="M20 16h-1-1v-1-1h1 1v1zm0 4h-1-1v-1-1h1 1v1zm0 4h-1-1v-1-1h1 1v1zm0-12h-1-1v-1-1h1 1v1zm-3 4v1 1h-1-1v-1-1h1zm0 4v1 1h-1-1v-1-1h1zm0-8v1 1h-1-1v-1-1h1zm0 12v1 1h-1-1v-1-1h1z"/><path d="M22 16v1 1h-1-1v-1-1h1zm0 4v1 1h-1-1v-1-1h1zm0-8v1 1h-1-1v-1-1h1zm-7-4h-1-1V7 6h1 1v1z"/><path d="M20 6v1 1h-1-1V7 6h1zm-3 2v1 1h-1-1V9 8h1zM9 2v1 1H8 7V3 2h1zm6 0v1 1h-1-1V3 2h1z"/><path d="M12 4v1 1h-1-1V5 4h1zm0-4v1 1h-1-1V1 0h1zm5 4v1 1h-1-1V5 4h1zm5 4v1 1h-1-1V9 8h1zm0 16v1 1h-1-1v-1-1h1zm-7 4h-1-1v-1-1h1 1v1z"/><path d="M20 28h-1-1v-1-1h1 1v1z"/></g><path d="M9 9V8h1v1 1H9zm0 4v-1h1v1 1H9zm0 4v-1h1v1 1H9zm1 3v1 1H9 8v-1-1h1zM7 7v1H6V7 6h1zm0 4v1H6v-1-1h1zm0 4v1H6v-1-1h1zm6-4v1h-1v-1-1h1zm0 4v1h-1v-1-1h1zm0 4v1h-1v-1-1h1zm0 4v1h-1v-1-1h1zm0 4v1h-1v-1-1h1zM4 6v1 1H3V7 6zm14 5v1h-1v-1-1h1zm0 4v1h-1v-1-1h1zm0 4v1h-1v-1-1h1zm0 4v1h-1v-1-1h1zm0 4v1h-1v-1-1h1zm5-16v1h-1v-1-1h1zM13 7v1h-1V7 6h1zm5 0v1h-1V7 6h1zM7 3v1H6V3 2h1zm6 0v1h-1V3 2h1zm5 0v1h-1V3 2h1zM9 5V4h1v1 1H9zm0-4V0h1v1 1H9zm14 14v1h-1v-1-1h1zm0 4v1h-1v-1-1h1zm0 4v1h-1v-1-1h1zm0 4v1h-1v-1-1h1z" fill="#027073"/></svg>