<svg xmlns="http://www.w3.org/2000/svg" viewBox="0 0 38 27"  xmlns:v="https://vecta.io/nano"><path d="M37 10h-1V8h-2V6h-2V4h-3V2h-3V0H12v2H9v2H6v2H4v2H2v2H0v16h1v1h4v-5h2v-4h1v-2h3v-2h3V6h2V4h2V3h1v1h3v2h2v2h2v2h3v2h3v2h1v13h4v-1h1V10h-1z" fill="#f6748a"/><path d="M6 11v-1H5v2h1v-1zm0 4v-1H5v2h1v-1zm-1 3v2h2v-2H5zM8 5v1h1V4H8v1zm0 4v1h1V8H8v1zm0 4v1h1v-2H8v1zm3-10v1h1V2h-1v1zm3 0v1h1V2h-1v1zm-3 4v1h1V6h-1v1zm0 4v1h1v-2h-1v1zm-9 2v1h1v-2H2v1zm0 4v1h1v-2H2v1zm0 4v1h1v-2H2v1zm0 4v1h1v-2H2v1zM16 1v1h1V0h-1v1zm7 4v1h1V4h-1v1zm0-4v1h1V0h-1v1zm-4 2v1h1V2h-1v1zm2-2v1h1V0h-1v1zm8 4v1h1V4h-1v1zm0 4v1h1V8h-1v1zm-3-6v1h1V2h-1v1zm0 4v1h1V6h-1v1zm9 1v2h1V8h-1zm-3-2v2h2V6h-2zm0 5v1h1v-2h-1v1zm3 2v1h1v-2h-1v1zm0 4v1h1v-2h-1v1zm0 4v1h1v-2h-1v1zm0 4v1h1v-2h-1v1z" fill="#8dc3c0"/><path d="M6 9V8H5v2h1V9zm0 4v-1H5v2h1v-1zm0 4v-1H5v2h1v-1zm-1 3v2h2v-2H5zM8 7v1h1V6H8v1zm0 4v1h1v-2H8v1zm0 4v1h1v-2H8v1zm3-10v1h1V4h-1v1zm3-4v1h1V0h-1v1zm-3 8v1h1V8h-1v1zm0 4v1h1v-2h-1v1zm-9-2v1h1v-2H2v1zm0 4v1h1v-2H2v1zm0 4v1h1v-2H2v1zm0 4v1h1v-2H2v1zm0 3h1v1H2v-1zM14 5v1h1V4h-1v1zm2-2v1h1V2h-1v1zm7 0v1h1V2h-1v1zm-5-1h1v1h-1V2zm2-1v1h1V0h-1v1zm9 6v1h1V6h-1v1zm0 4v1h1v-2h-1v1zm-3-6v1h1V4h-1v1zm0 4v1h1V8h-1v1zm6 0v1h1V8h-1v1zm0 4v1h1v-2h-1v1zm3-3v2h1v-2h-1zm0 5v1h1v-2h-1v1zm0 4v1h1v-2h-1v1zm0 4v1h1v-2h-1v1zm0 3h1v1h-1v-1z" fill="#027073"/><g fill="#c10359"><path d="M0 14v2h2v-2H0zm0 4v2h2v-2H0zm0 4v2h2v-2H0zm0-12v2h2v-2H0zm3 6v2h2v-2H3zm0 4v2h2v-2H3zM3 8v2h2V8H3zm0 4v2h2v-2H3zM15 1v1h1V0h-1v1zM3 24v2h2v-2H3zM6 6v2h2V6H6zm0 4v2h2v-2H6zm0 4v2h2v-2H6zM9 4v2h2V4H9zm0 4v2h2V8H9zm0 4v2h2v-2H9zm3-10v2h2V2h-2zm0 4v2h2V6h-2zm3-1v1h1V4h-1v1zm2-2v1h1V2h-1v1z"/><path d="M18 1v1h1V0h-1v1zm4 5h1V4h-1v2zm0-5v1h1V0h-1v1z"/><path d="M21 3v1h1V2h-1v1zm-9 7v2h2v-2h-2zm15-6v2h2V4h-2zm0 4v2h2V8h-2zm-3-6v2h2V2h-2zm0 4v2h2V6h-2zm12 8v2h2v-2h-2zm0 4v2h2v-2h-2zM1 26h1v1H1v-1zm35 0h1v1h-1v-1zm0-4v2h2v-2h-2zm1-12h-1v2h2v-2h-1zm-4 6v2h2v-2h-2zm0 4v2h2v-2h-2zm0-12v2h2V8h-2zm0 4v2h2v-2h-2zm0 12v2h2v-2h-2zM30 6v2h2V6h-2zm0 4v2h2v-2h-2z"/></g></svg>