<svg xmlns="http://www.w3.org/2000/svg" viewBox="0 0 40 21"><path d="M3 21h34V1h-3v1h-1v1h-1v1h-1v1h-1v1h-1v1h-2v1h-2v1h-3v1h-4V9h-3V8h-2V7h-2V6h-1V5H9V4H8V3H7V2H6V1H3z" fill="#fe73a9"/><path d="M4 20V2h2v1h1v1h1v1h1v1h1v1h1v1h2v1h2v1h3v1h4v-1h3V9h2V8h2V7h1V6h1V5h1V4h1V3h1V2h2v18z" fill="#fe98c0"/><g fill="#fff"><path d="M13.5 12v1h1v5h1v-6z"/><path d="M12.5 13h1v5h-1z"/><path d="M10.5 12v6h1v-5h1v-1zm6 0h1v6h-1zm2 0v6h1v-2h1v2h1v-6h-3zm2 3h-1v-2h1v2zm8-3h1v6h-1zm-3 0v1h1v5h1v-6z"/><path d="M24.5 13h1v5h-1z"/><path d="M22.5 12v6h1v-5h1v-1z"/></g></svg>