<svg xmlns="http://www.w3.org/2000/svg" xmlns:xlink="http://www.w3.org/1999/xlink" width="195" height="195" fill="none"><path d="M97.42 194.064c53.589 0 97.032-43.443 97.032-97.032S151.009 0 97.42 0 .388 43.443.388 97.032s43.443 97.032 97.032 97.032z" fill="#22dff0"/><g fill="#000"><path d="M20.733 101.731v2.185h2.195v2.196 2.184 2.196 2.184 2.196h2.185v-2.196-2.184-2.196-2.184-2.196-2.185h-2.185-2.195zm-7.657-17.52H10.88v2.185 2.195 2.185h2.195 2.185v2.195 2.185h-2.185-2.195v2.195h2.195 2.185 2.195v-2.195-2.185-2.195-2.185H15.26h-2.185v-2.195h2.185 2.195v-2.185H15.26h-2.185zm8.76 0H19.64v2.185h2.195 2.185v2.195 2.185h-2.185-2.195v2.195 2.185 2.195h2.195 2.185 2.195v-2.195H24.02h-2.185v-2.185h2.185 2.195v-2.195-2.185-2.195-2.185H24.02h-2.185zm10.945 0h-2.185H28.4v2.185 2.195 2.185 2.195 2.185 2.195h2.195v-2.195-2.185-2.195-2.185-2.195h2.185v2.195 2.185 2.195 2.185 2.195h2.195v-2.195-2.185-2.195-2.185-2.195-2.185H32.78zm129.28 0h-2.195v2.185 2.195 2.185 2.195 2.185 2.195h2.195v-2.195-2.185h2.185v-2.195h-2.185v-2.185-2.195h2.185v2.195 2.185h2.195v-2.185-2.195-2.185h-2.195-2.185z"/><path d="M164.245 97.351h2.195v-2.195-2.185h-2.195v2.185 2.195zm17.52-10.955v2.195 2.185 2.195 2.185h2.195v-2.185-2.195-2.185-2.195h-2.195z"/><path d="M179.58 92.971v-2.195-2.185-2.195h2.185v-2.185h-2.185-2.195v2.185 2.195 2.185 2.195 2.185 2.195h2.195 2.185v-2.195h-2.185v-2.185zm-8.76-8.76h-2.195v2.185 2.195 2.185 2.195 2.185 2.195h2.195v-2.195-2.185-2.195-2.185-2.195h2.185v2.195 2.185 2.195 2.185 2.195h2.195v-2.195-2.185-2.195-2.185-2.195-2.185h-2.195-2.185zm-2.195 17.52v2.185h2.195v2.196 2.184 2.196 2.184 2.196h2.185v-2.196-2.184-2.196-2.184-2.196-2.185h-2.185-2.195zM18.816 63.712h2.741v2.741h-2.741v-2.741z"/></g><path d="M16.074 69.185h2.741v2.741h-2.741v-2.741zm10.966 0h2.742v2.741H27.04v-2.741z" fill="#197fb7"/><path d="M18.816 69.185v2.741 2.741h2.741v-2.741-2.741-2.731h-2.741v2.731zm5.483-2.731v2.731 2.741 2.741h2.741v-2.741-2.741-2.731h-2.741z" fill="#1caace"/><path d="M18.816 74.668h2.741v2.741h-2.741v-2.741z" fill="#000"/><use href="#B" fill="#fff"/><g fill="#000"><path d="M24.298 74.668h2.741v2.741h-2.741v-2.741zm0-10.955h2.741v2.741h-2.741v-2.741z"/><path d="M21.557 60.971h2.741v2.741h-2.741v-2.741zm0 16.438h2.741v2.741h-2.741v-2.741zm5.483-10.955h2.742v2.741H27.04v-2.741zm-10.966 0h2.741v2.741h-2.741v-2.741z"/><path d="M29.781 69.185h2.741v2.741h-2.741v-2.741zm-16.449 0h2.741v2.741h-2.741v-2.741z"/><path d="M27.04 71.926h2.742v2.741H27.04v-2.741zm-10.966 0h2.741v2.741h-2.741v-2.741zM167.8 63.712h2.742v2.741H167.8v-2.741z"/></g><path d="M165.069 69.185h2.742v2.741h-2.742v-2.741zm10.956 0h2.741v2.741h-2.741v-2.741z" fill="#197fb7"/><path d="M167.8 69.185v2.741 2.741h2.742v-2.741-2.741-2.731H167.8v2.731zm5.483-2.731v2.731 2.741 2.741h2.742v-2.741-2.741-2.731h-2.742z" fill="#1caace"/><path d="M167.8 74.668h2.742v2.741H167.8v-2.741z" fill="#000"/><use href="#B" x="148.985" fill="#fff"/><g fill="#000"><path d="M173.283 74.668h2.742v2.741h-2.742v-2.741zm0-10.955h2.742v2.741h-2.742v-2.741z"/><path d="M170.542 60.971h2.741v2.741h-2.741v-2.741zm0 16.438h2.741v2.741h-2.741v-2.741zm5.483-10.955h2.741v2.741h-2.741v-2.741zm-10.956 0h2.742v2.741h-2.742v-2.741z"/><path d="M178.766 69.185h2.742v2.741h-2.742v-2.741zm-16.438 0h2.741v2.741h-2.741v-2.741z"/><path d="M176.025 71.926h2.741v2.741h-2.741v-2.741zm-10.956 0h2.742v2.741h-2.742v-2.741zm-73.121 90.766h-2.195v2.195 2.185h2.195v-2.185-2.195zm2.185 2.195v2.185h2.195v-2.185-2.195h-2.195v2.195z"/><path d="M91.948 167.072h2.185v2.185h-2.185v-2.185zm-2.195 4.38v2.195 2.185h2.195v-2.185-2.195-2.185h-2.195v2.185zm4.38 2.195v2.185h2.195v-2.185-2.195-2.185h-2.195v2.185 2.195zm6.576-10.955h-2.185v2.185 2.185 2.185 2.184 2.185 2.185h2.185v-2.154-2.185h2.185 2.185v-2.184-2.185-2.206-2.185h-2.185-2.185v-.01zm2.185 4.38v2.185h-2.185v-2.185-2.185h2.185v2.185zm-1.557-25.188v2.607h2.608v2.618 2.608 2.607 2.607 2.608h2.607v-2.608-2.607-2.607-2.608-2.618-2.607h-2.607-2.608zm-31.309 0H67.42v2.607h2.608v2.618 2.608 2.607 2.607 2.608h2.607v-2.608-2.607-2.607-2.608-2.618h2.607v-2.607h-2.607-2.607zm-10.43 6.524v2.607h2.607 2.608v-2.607h-2.608-2.607zm73.039 0h-2.607v2.607h2.607 2.607v-2.607h-2.607z"/><use href="#A"/><use href="#A" x="10.44"/><use href="#A" x="-31.299"/><path d="M90.896 154.931v-2.607h2.607 2.608v-2.607-2.608-2.607-2.608h-2.608-2.607-2.607v2.608 2.607 2.608 2.607 2.607 2.608h2.607v-2.608zm0-7.822v-2.607h2.607v2.607 2.608h-2.607v-2.608zm60.631-31.856h-5.153-5.153V110.1h5.153v-5.153h5.153v-5.153-5.153-5.153-5.153-5.153h-5.153-5.153-5.153v-5.153-5.153-5.153-5.153-5.153-5.153-5.153h-5.153v-5.153h-5.153v-5.153h-5.153-5.153v-5.153h-5.153-5.153v-5.153h-5.153-5.153-5.153v5.153h-5.153-5.153v5.153h-5.153-5.153v5.153h-5.153v5.153h-5.153v5.153 5.153 5.153 5.153 5.153 5.153 5.153h-5.153-5.153-5.153v5.153 5.153 5.153 5.153 5.153h5.153v5.153h5.153v5.153h-5.153-5.153-5.153v5.153 5.153 5.153h5.153v5.153h5.153 5.153 5.153 5.153 5.153 5.153 5.153 5.153 5.153 5.153 5.153 5.153 5.153 5.153 5.153 5.153 5.153 5.153 5.153 5.153 5.153v-5.153h5.153v-5.153-5.153-5.153h-5.153z"/></g><g fill="#22dff0"><path d="M69.078 89.488h5.153v5.153h5.153v5.153h5.153v5.153h5.153v5.153h5.153v5.153h5.153V110.1h5.153v-5.153h5.153v-5.153h5.153v-5.153h5.153v-5.153h5.153v-5.153h5.153v-5.153-5.153-5.153-5.153-5.153-5.153-5.153-5.153h-5.153v-5.153h-5.153-5.153v-5.153h-5.153-5.153v-5.153h-5.153-5.153-5.153v5.153h-5.153-5.153v5.153h-5.153-5.153v5.153h-5.153v5.153 5.153 5.153 5.153 5.153 5.153 5.153 5.153h5.153v5.153zm-5.153 30.918h-5.153-5.153-5.153-5.153v5.153 5.153h5.153 5.153 5.153 5.153 5.153v-5.153h-5.153v-5.153z"/><path d="M146.374 120.406h-5.153-5.153-5.153v5.153h-5.153v5.153h5.153 5.153 5.153 5.153 5.153v-5.153-5.153h-5.153zm-51.53 0v-5.153h-5.153V110.1h-5.153v-5.153h-5.153v-5.153h-5.153v-5.153h-5.153v-5.153h-5.153v-5.153h-5.153-5.153-5.153v5.153 5.153 5.153 5.153h5.153v5.153h5.153v5.153h5.153v5.153h5.153v5.153h5.153v5.153h5.153 5.153v-5.153h5.153v-5.153h5.153z"/><path d="M130.915 120.406v-5.153h5.153V110.1h5.153v-5.153h5.153v-5.153-5.153-5.153-5.153h-5.153-5.153-5.153v5.153h-5.153v5.153h-5.153v5.153h-5.153v5.153h-5.153v5.153h-5.153v5.153h-5.153v5.153h-5.153v5.153h-5.153v5.153h5.153 5.153 5.153 5.153 5.153 5.153v-5.153h5.153v-5.153h5.153z"/></g><g fill="#fff"><path d="M94.844 53.416v-5.153-5.153-5.153-5.153-5.153h-5.153v5.153h-5.153-5.153v5.153h5.153 5.153v5.153 5.153 5.153 5.153 5.153 5.153 5.153 5.153 5.153 5.153h5.153v-5.153-5.153-5.153-5.153-5.153h5.153V58.57h-5.153v-5.153zM89.691 94.64h5.153v5.153h-5.153V94.64z"/><path d="M69.078 37.957v5.153h5.153 5.153v-5.153h-5.153-5.153z"/><path d="M63.925 48.263v5.153 5.153h5.153v-5.153-5.153-5.153h-5.153v5.153zm-20.612 72.143h5.153v5.153h-5.153v-5.153zm103.061 0h5.153v5.153h-5.153v-5.153zM63.925 89.488v-5.153h-5.153-5.153-5.153v5.153h5.153v5.153h5.153v-5.153h5.153z"/><use href="#C"/><use href="#D"/><path d="M69.078 104.947h5.153v5.153h-5.153v-5.153zm77.296-20.612h-5.153-5.153-5.153v5.153h5.153v5.153h5.153v-5.153h5.153v-5.153z"/><use href="#C" x="72.143"/><use href="#D" x="61.837"/><use href="#C" x="61.837" y="10.306"/></g><g fill="#135b97"><path d="M105.15 104.947h5.153v-5.153h5.153v-5.153h5.153v-5.153-5.153-5.153-5.153h-5.153v5.153h-5.153v5.153h-5.153v5.153h-5.153v5.153h-5.153v5.153 5.153 5.153 5.153h5.153V110.1h5.153v-5.153zm-46.378 15.459h5.153v5.153h-5.153v-5.153z"/><path d="M63.925 125.559h5.153v5.153h-5.153v-5.153zm66.99-5.153h5.153v5.153h-5.153v-5.153z"/><path d="M125.762 125.559h5.153v5.153h-5.153v-5.153zm-46.377-10.306h-5.153-5.153v5.153h5.153v5.153h5.153v5.153h5.153v-5.153-5.153h-5.153v-5.153zm46.378 0h-5.153-5.153v5.153h-5.153v5.153h-5.153v5.153h5.153 5.153v-5.153h5.153v-5.153h5.153v-5.153z"/></g><g fill="#197fb7"><path d="M105.15 74.029h5.153v5.153h5.153v-5.153h5.153v5.153 5.153 5.153h5.153v-5.153-5.153-5.153-5.153-5.153-5.153h-5.153-5.153v5.153h-5.153-5.153-5.153v5.153h5.153v5.153z"/><path d="M99.997 89.488h5.153v-5.153h5.153v-5.153h-5.153v-5.153h-5.153v-5.153h-5.153v5.153 5.153 5.153 5.153 5.153h5.153v-5.153zm-15.459-5.153h-5.153v-5.153h-5.153v-5.153h-5.153v5.153 5.153 5.153h5.153v5.153h5.153v5.153h5.153v5.153h5.153v-5.153-5.153-5.153h-5.153v-5.153zm-41.224 41.224h5.153v5.153h-5.153v-5.153zm103.061 0h5.153v5.153h-5.153v-5.153zm-77.296-10.306h5.153V110.1h-5.153v-5.153h-5.153-5.153v5.153h5.153v5.153h5.153zm0 5.153h5.153v5.153h-5.153v-5.153z"/><path d="M79.385 110.1h5.153v5.153h-5.153V110.1zm-5.153 15.459h5.153v5.153h-5.153v-5.153z"/><path d="M84.538 115.253h5.153v5.153h-5.153v-5.153zm41.225-10.306v5.153h-5.153v5.153h5.153 5.153V110.1h5.153v-5.153h-5.153-5.153zm-5.153 15.459h5.153v5.153h-5.153v-5.153zM110.303 110.1h5.153v5.153h-5.153V110.1z"/><path d="M115.456 125.559h5.153v5.153h-5.153v-5.153zm-10.306-10.306h5.153v5.153h-5.153v-5.153z"/><use href="#C" x="41.225" y="25.765"/><use href="#C" x="36.072" y="30.918"/></g><g fill="#1caace"><path d="M125.762 68.876v5.153 5.153 5.153h5.153v-5.153-5.153-5.153-5.153-5.153h-5.153v5.153 5.153z"/><path d="M110.303 63.723h5.153V58.57h5.153 5.153v-5.153-5.153-5.153h-5.153-5.153v-5.153h-5.153-5.153v-5.153h-5.153-5.153v5.153 5.153 5.153 5.153 5.153h5.153v5.153h5.153 5.153zm-5.153 10.306h5.153v5.153h-5.153v-5.153z"/><use href="#C" x="41.225" y="-25.765"/><path d="M94.844 63.723h5.153v5.153h-5.153v-5.153zM84.538 84.335v5.153h5.153v-5.153-5.153-5.153h-5.153v-5.153h-5.153v5.153h-5.153v5.153h5.153v5.153h5.153z"/><path d="M79.385 68.876v-5.153h-5.153V58.57h-5.153v5.153 5.153 5.153h5.153v-5.153h5.153z"/><path d="M63.925 79.182v5.153h5.153v-5.153-5.153h-5.153v5.153zm-15.459 41.224h5.153v5.153h-5.153v-5.153z"/><path d="M53.619 125.559h5.153v5.153h-5.153v-5.153zm87.602-5.153h5.153v5.153h-5.153v-5.153z"/><path d="M136.068 125.559h5.153v5.153h-5.153v-5.153zm-72.143-20.612v-5.153h-5.153v-5.153h-5.153v5.153 5.153 5.153h5.153v-5.153h5.153z"/><path d="M58.772 110.1h5.153v5.153h-5.153V110.1z"/><path d="M63.925 115.253h5.153v5.153h-5.153v-5.153zm5.153-15.459h5.153v5.153h-5.153v-5.153z"/><path d="M74.231 104.947h5.153v5.153h-5.153v-5.153zm10.306 5.153h5.153v5.153h-5.153V110.1z"/><path d="M89.691 115.253h5.153v5.153h-5.153v-5.153zm41.224-5.153h5.153v5.153h-5.153V110.1z"/><path d="M125.762 115.253h5.153v5.153h-5.153v-5.153zm-5.153-15.459h5.153v5.153h-5.153v-5.153z"/><path d="M115.456 104.947h5.153v5.153h-5.153v-5.153zM105.15 110.1h5.153v5.153h-5.153V110.1z"/><path d="M89.691 125.559h5.153v5.153h-5.153v-5.153zm10.306-10.306h5.153v5.153h-5.153v-5.153z"/><path d="M94.844 120.406h5.153v5.153h-5.153v-5.153zm46.377-15.459v-5.153-5.153h-5.153v5.153h-5.153v5.153h5.153v5.153h5.153v-5.153z"/></g><defs><path id="A" d="M111.766 141.884h-2.607v2.607 2.608 2.607 2.608 2.607 2.608h2.607 2.608 2.607v-2.608-2.607-2.608-2.607-2.608-2.607h-2.607-2.608zm2.608 5.225v2.608 2.607 2.607h-2.608v-2.607-2.607-2.608-2.607h2.608v2.607z"/><path id="B" d="M21.557 63.712v2.741 2.731 2.741 2.741 2.741h2.741v-2.741-2.741-2.741-2.731-2.741h-2.741z"/><path id="C" d="M58.772 94.641h5.153v5.153h-5.153v-5.153z"/><path id="D" d="M63.925 89.488h5.153v5.153h-5.153v-5.153zm0 10.306h5.153v5.153h-5.153v-5.153z"/></defs></svg>