<svg xmlns="http://www.w3.org/2000/svg" viewBox="0 0 40 23"><path d="M35 1v1h-2v3h-3v1h-1v1h-6V6h-1v1h-1v1h-2V7h-1V6h-1v1h-5V6h-1V5h-1V4H7V2H5V1H3h-.5v8H3v14h4v-2h5v2h5v-2h6v2h5v-2h5v2h4V9h.5V1H35z" fill="#262743"/><path d="M19 10h1v1h-1v-1zm0 4h1v1h-1v-1zm11-4h3v1h-3v-1zm-20 2h1v1h-1v-1zm9 6h1v1h-1v-1z" fill="#ffe2c1"/><g fill="#e9eef2"><path d="M7 4h1v2H7V4zm0 3h1v1H7V7zm7 8h2v1h-2v-1zm-2 0h1v1h-1v-1zm5 0h1v1h-1v-1zM7 15h1v1H7v-1zm0-3h1v2H7v-2zm25-8h1v2h-1V4zm0 3h1v1h-1V7zm-4-2h-3v1h-2v1h1v1h1v1h1V8h1V7h2V6h1V5h1V4h-3v1zM9 3h1v1H9V3zm23 12h1v1h-1v-1zm-8 0h2v1h-2v-1zm-2 0h1v1h-1v-1zm5 0h1v1h-1v-1zm-3-3h2v2h-2v-2z"/><path d="M22 7h1v1h-1V7zm-7-1V5h-3V4h-2v1h1v1h1v1h1v1h1v1h1V8h1V7h1V6h-2z"/><path d="M17 7h1v1h-1V7zm5 5h1v2h-1v-2zm-5 0h1v2h-1v-2zM4 12h2v2H4v-2zm0 7h2v2H4v-2zM4 4h2v2H4V4zm0 11h2v1H4v-1zm0-8h2v1H4V7zm27-4h1v1h-1V3zm-4 9h1v2h-1v-2zm-15 0h1v2h-1v-2zm2 7h2v2h-2v-2zm-2 0h1v2h-1v-2zm22-4h2v1h-2v-1zm0 4h2v2h-2v-2zm-10 0h2v2h-2v-2zm3 0h1v2h-1v-2zm7-15h2v2h-2V4zm0 8h2v2h-2v-2zm0-5h2v1h-2V7zm-20 5h2v2h-2v-2z"/></g><path d="M18 8h-2v3h-2V9h-1v2h-1V9h1V8h-1V7h-1v12h1v-2h1v4h1v-4h2v4h1v-4h1v2h1V7h-1v1zm-2 4v2h-2v-2h2zm-4 0h1v2h-1v-2zm0 4v-1h1v1h-1zm2 0v-1h2v1h-2zm4 0h-1v-1h1v1zm0-2h-1v-2h1v2zm0-3h-1V9h1v2zm10-3h-1v1h1v2h-1V9h-1v2h-2V8h-2V7h-1v12h1v-2h1v4h1v-4h2v4h1v-4h1v2h1V7h-1v1zm-2 4v2h-2v-2h2zm-4-3h1v2h-1V9zm0 3h1v2h-1v-2zm0 4v-1h1v1h-1zm2 0v-1h2v1h-2zm4 0h-1v-1h1v1zm0-2h-1v-2h1v2zM3 9h3v2H4v1h2v2H4v1h2v1H4v1h2v4h1v-4h1v2h1V3H7V2H6v1H4V1H3v8zm3-5v2H4V4h2zM4 8V7h2v1H4zm4 8H7v-1h1v1zm0-2H7v-2h1v2zm0-3H7V9h1v2zm0-3H7V7h1v1zm0-2H7V4h1v2zm29-5h-1v2h-2V2h-1v1h-1v1h1v2h-1V4h-1v6h1V9h1v5h-1v-3h-1v8h1v-2h1v4h1v-4h2v-1h-2v-1h2v-1h-2v-2h2v-1h-2V9h3V1zm-4 15h-1v-1h1v1zm1-12h2v2h-2V4zm-2 4V7h1v1h-1zm4 0h-2V7h2v1z" fill="#2c629e"/></svg>