<svg xmlns="http://www.w3.org/2000/svg" viewBox="0 0 24 22"><path d="M0,22h4v-2h2v2h4v-2h4v2h4v-2h3v2h3V0H10v1H8v1H6v1H5v1H2v1H0V22z" fill="#262743"/><path d="M0 7v13h1v-4h2v4h1v-4h1v4h1V6H5v1H4v1h1v2H4V8H3v2H1V7H0zm4 7h1v1H4v-1zm0-3h1v2H4v-2zm-3 3h2v1H1v-1zm0-3h2v2H1v-2zm8-9H7v18h1v-4h1v4h1v-4h5v4h1v-4h1v4h1V1h-1v1h-1V1h-1v1h-2V0h-1v2h-2V1H9v1zm7 12h1v1h-1v-1zm0-3h1v2h-1v-2zm0-3h1v2h-1V8zm0-2h1v1h-1V6zm0-3h1v2h-1V3zm-1 2h-2V3h2v2zm0 2h-2V6h2v1zm-2 7h2v1h-2v-1zm0-3h2v2h-2v-2zm-3 3h2v1h-2v-1zm0-3h2v2h-2v-2zm0-3h5v2h-5V8zm0-2h2v1h-2V6zm0-3h2v2h-2V3zM8 14h1v1H8v-1zm0-3h1v2H8v-2zm0-3h1v2H8V8zm0-2h1v1H8V6zm1-3v2H8V3h1zm11-2h-1v19h1v-4h1v4h1v-4h2v-1h-2v-1h2v-1h-2v-2h2V1h-1v1h-1V1h-1v1h-1V1zm2 7h1v2h-1V8zm0-2h1v1h-1V6zm0-3h1v2h-1V3zm-2 11h1v1h-1v-1zm0-3h1v2h-1v-2zm0-3h1v2h-1V8zm0-2h1v1h-1V6zm0-3h1v2h-1V3z" fill="#2c629e"/><g fill="#e9eef2"><path d="M8 3h1v2H8zm0 3h1v1H8zM6 2h1v1H6zm2-1h1v1H8zm2-1h1v1h-1zM1 14h2v1H1zm3 0h1v1H4zm4 0h1v1H8z"/><path d="M8 11h1v2H8zM2 5V4h3V3h1v2H5v1H4v1H3v1H2V7H1V6H0V5zm8 6h2v2h-2zm0 7h2v2h-2zm0-15h2v2h-2zm0 11h2v1h-2zm0-8h2v1h-2zm-6 5h1v2H4zm-3 7h2v2H1zm3 0h1v2H4zm-3-7h2v2H1zm15-8h1v2h-1zm0 3h1v1h-1zm4 8h1v1h-1zm-4 0h1v1h-1zm6 0h2v1h-2zm-6-3h1v2h-1zm6 0h2v2h-2zm-2-5h1v1h-1zm2 0h1v1h-1zm-2-3h1v2h-1zm2 0h1v2h-1zm-2-2h1v1h-1zm2 0h1v1h-1zm-2 10h1v2h-1zm-7 3h2v1h-2zm0 4h2v2h-2zm7 0h1v2h-1zm2 0h2v2h-2zM13 3h2v2h-2zm0 8h2v2h-2zm0-5h2v1h-2z"/></g></svg>