<svg xmlns="http://www.w3.org/2000/svg" viewBox="0 0 24 23"><path d="M24,6h-2V5h-3V4h-1V3h-2V2h-2V1H0v22h3v-2h3v2h4v-2h4v2h4v-2h2v2h4V6z" fill="#262743"/><path d="M23 8v3h-2V9h-1v2h-1V9h1V8h-1V7h-1v14h1v-4h1v4h1v-4h2v4h1V8h-1zm-3 8h-1v-1h1v1zm0-2h-1v-2h1v2zm3 2h-2v-1h2v1zm0-2h-2v-2h2v2zM15 2h-1v1h-2V1h-1v2H9V2H8v1H7V2H6v19h1v-4h1v4h1v-4h5v4h1v-4h1v4h1V3h-2V2zM8 16H7v-1h1v1zm0-2H7v-2h1v2zm0-3H7V9h1v2zm0-3H7V7h1v1zm0-2H7V4h1v2zm1-2h2v2H9V4zm0 3h2v1H9V7zm2 9H9v-1h2v1zm0-2H9v-2h2v2zm3 2h-2v-1h2v1zm0-2h-2v-2h2v2zm0-3H9V9h5v2zm0-3h-2V7h2v1zm0-2h-2V4h2v2zm2 10h-1v-1h1v1zm0-2h-1v-2h1v2zm0-3h-1V9h1v2zm0-3h-1V7h1v1zm0-4v2h-1V4h1zM4 3H3V2H2v1H1V2H0v10h2v2H0v1h2v1H0v1h2v4h1v-4h1v4h1V2H4v1zm-2 8H1V9h1v2zm0-3H1V7h1v1zm0-2H1V4h1v2zm2 10H3v-1h1v1zm0-2H3v-2h1v2zm0-3H3V9h1v2zm0-3H3V7h1v1zm0-2H3V4h1v2z" fill="#2c629e"/><g fill="#e9eef2"><path d="M15 4h1v2h-1V4zm0 3h1v1h-1V7zm2-4h1v1h-1V3zm-2-1h1v1h-1V2zm-2-1h1v1h-1V1zm8 14h2v1h-2v-1zm-2 0h1v1h-1v-1zm-4 0h1v1h-1v-1z"/><path d="M15 12h1v2h-1v-2zm7-6V5h-3V4h-1v2h1v1h1v1h1v1h1V8h1V7h1V6h-2zm-10 6h2v2h-2v-2zm0 7h2v2h-2v-2zm0-15h2v2h-2V4zm0 11h2v1h-2v-1zm0-8h2v1h-2V7zm7 5h1v2h-1v-2zm2 7h2v2h-2v-2zm-2 0h1v2h-1v-2zm2-7h2v2h-2v-2zM7 4h1v2H7V4zm0 3h1v1H7V7zm-4 8h1v1H3v-1zm4 0h1v1H7v-1zm-7 0h2v1H0v-1zm7-3h1v2H7v-2zm-7 0h2v2H0v-2zm3-5h1v1H3V7zM1 7h1v1H1V7zm2-3h1v2H3V4zM1 4h1v2H1V4zm2-2h1v1H3V2zM1 2h1v1H1V2zm2 10h1v2H3v-2zm6 3h2v1H9v-1zm0 4h2v2H9v-2zm-6 0h1v2H3v-2zm-3 0h2v2H0v-2zM9 4h2v2H9V4zm0 8h2v2H9v-2zm0-5h2v1H9V7z"/></g></svg>