<svg xmlns="http://www.w3.org/2000/svg" width="195" height="195" fill="none"><path d="M97.032 194.064c53.589 0 97.032-43.443 97.032-97.032S150.621 0 97.032 0 0 43.443 0 97.032s43.443 97.032 97.032 97.032z" fill="#c689fa"/><g fill="#000"><path d="M20.344 106.884v2.196h2.185v2.185 2.195 2.185 2.195 2.185h2.195v-2.185-2.195-2.185-2.195-2.185-2.196h-2.195-2.185zm-7.668-17.52h-2.185v2.195 2.185 2.195h2.185 2.195v2.185 2.196h-2.195-2.185v2.184h2.185 2.195 2.185v-2.184-2.196-2.185-2.195h-2.185-2.195v-2.185h2.195 2.185v-2.195h-2.185-2.195zm8.76 0h-2.185v2.195h2.185 2.195v2.185 2.195h-2.195-2.185v2.185 2.196 2.184h2.185 2.195 2.185v-2.184h-2.185-2.195v-2.196h2.195 2.185v-2.185-2.195-2.185-2.195h-2.185-2.195zm10.955 0h-2.195-2.185v2.195 2.185 2.195 2.185 2.196 2.184h2.185v-2.184-2.196-2.185-2.195-2.185h2.195v2.185 2.195 2.185 2.196 2.184h2.185v-2.184-2.196-2.185-2.195-2.185-2.195h-2.185zm129.269 0h-2.185v2.195 2.185 2.195 2.185 2.196 2.184h2.185v-2.184-2.196h2.196v-2.185h-2.196v-2.195-2.185h2.196v2.185 2.195h2.184v-2.195-2.185-2.195h-2.184-2.196z"/><path d="M163.857 102.504h2.184v-2.184-2.196h-2.184v2.196 2.184zm17.52-10.945v2.185 2.195 2.185 2.196h2.185v-2.196-2.185-2.195-2.185h-2.185z"/><path d="M179.182 98.124v-2.185-2.195-2.185h2.195v-2.195h-2.195-2.185v2.195 2.185 2.195 2.185 2.195 2.185h2.185 2.195v-2.185h-2.195v-2.195zm-8.76-8.76h-2.185v2.195 2.185 2.195 2.185 2.195 2.185h2.185v-2.185-2.195-2.185-2.195-2.185h2.195v2.185 2.195 2.185 2.195 2.185h2.185v-2.185-2.195-2.185-2.195-2.185-2.195h-2.185-2.195zM18.427 68.865h2.741v2.741h-2.741v-2.741z"/></g><path d="M15.686 74.348h2.741v2.742h-2.741v-2.742zm10.955 0h2.741v2.742h-2.741v-2.742z" fill="#8a32ec"/><path d="M18.427 74.348v2.741 2.741h2.741v-2.74-2.741-2.741h-2.741v2.741zm5.473-2.741v2.741 2.741 2.741h2.742v-2.74-2.741-2.741H23.9z" fill="#a04af3"/><path d="M18.427 79.831h2.741v2.741h-2.741v-2.741z" fill="#000"/><path d="M21.169 68.865v2.741 2.741 2.742 2.741 2.731H23.9v-2.731-2.741-2.742-2.741-2.741h-2.731z" fill="#fff"/><g fill="#000"><path d="M23.9 79.831h2.742v2.741H23.9v-2.741zm0-10.966h2.742v2.741H23.9v-2.741z"/><path d="M21.169 66.124h2.741v2.741h-2.741v-2.741zm-.01 16.438H23.9v2.741h-2.741v-2.741zm5.483-10.955h2.741v2.742h-2.741v-2.742zm-10.955 0h2.741v2.742h-2.741v-2.742z"/><path d="M29.383 74.348h2.741v2.742h-2.741v-2.742zm-16.438 0h2.741v2.742h-2.741v-2.742z"/><path d="M26.641 77.09h2.741v2.741h-2.741V77.09zm-10.955 0h2.741v2.741h-2.741V77.09zm151.726-8.224h2.742v2.741h-2.742v-2.741z"/></g><path d="M164.671 74.348h2.741v2.742h-2.741v-2.742zm10.965 0h2.742v2.742h-2.742v-2.742z" fill="#8a32ec"/><path d="M167.412 74.348v2.741 2.741h2.742v-2.74-2.741-2.741h-2.742v2.741zm5.483-2.741v2.741 2.741 2.741h2.741v-2.74-2.741-2.741h-2.741z" fill="#a04af3"/><path d="M167.412 79.831h2.742v2.741h-2.742v-2.741z" fill="#000"/><path d="M170.154 68.865v2.741 2.741 2.742 2.741 2.731h2.741v-2.731-2.741-2.742-2.741-2.741h-2.741z" fill="#fff"/><g fill="#000"><path d="M172.895 79.831h2.741v2.741h-2.741v-2.741zm0-10.966h2.741v2.741h-2.741v-2.741z"/><path d="M170.154 66.124h2.741v2.741h-2.741v-2.741zm0 16.438h2.741v2.741h-2.741v-2.741zm5.482-10.955h2.742v2.742h-2.742v-2.742zm-10.965 0h2.741v2.742h-2.741v-2.742z"/><path d="M178.368 74.348h2.741v2.742h-2.741v-2.742zm-16.439 0h2.742v2.742h-2.742v-2.742zm-83.52 103.133h2.195v-2.195-2.185h-2.195v2.185 2.195zm6.575-13.14h-2.185v2.185 2.185 2.185 2.185 2.184 2.185h2.185v-2.185-2.184h2.185v2.184 2.185h2.185v-2.185-2.184-2.185-2.185-2.185-2.185h-2.185-2.185zm2.185 4.38v2.185h-2.185v-2.185-2.185h2.185v2.185zm6.575-4.38h-2.195v2.185 2.195 2.185 2.195 2.185 2.195h2.195v-2.195-2.185h2.185v-2.195h-2.185v-2.185-2.195h2.185v2.195 2.185h2.195v-2.185-2.195-2.185h-2.195-2.185z"/><path d="M95.929 177.481h2.195v-2.195-2.185h-2.195v2.185 2.195zm4.38-10.955v2.195 2.185 2.195 2.185 2.195h2.195v-2.195-2.185-2.195-2.185-2.195-2.185h-2.195v2.185zm6.575-2.185h-2.195v2.185h2.195v2.195 2.185 2.195 2.185 2.195h2.185v-2.195-2.185-2.195-2.185-2.195h2.196v-2.185h-2.196-2.185zm10.946 0v2.185 2.195 2.185h2.195v-2.185-2.195-2.185h-2.195zm-2.185 2.185v-2.185h-2.196v2.185 2.195 2.185h2.196v-2.185-2.195z"/><path d="M115.645 173.101v2.185 2.195h2.185v-2.195-2.185-2.195h-2.185v2.195zm35.494-57.848h-5.153-5.153V110.1h5.153v-5.153h5.153v-5.153-5.153-5.153-5.153-5.153h-5.153-5.153-5.153v-5.153-5.153-5.153-5.153-5.153-5.153-5.153h-5.153v-5.153h-5.153v-5.153h-5.153-5.153v-5.153h-5.154-5.153v-5.153h-5.153-5.153-5.153v5.153h-5.153-5.153v5.153h-5.153-5.153v5.153h-5.153v5.153h-5.153v5.153 5.153 5.153 5.153 5.153 5.153 5.153h-5.153-5.153-5.153v5.153 5.153 5.153 5.153 5.153h5.153v5.153h5.153v5.153h-5.153-5.153-5.153v5.153 5.153 5.153h5.153v5.153h5.153 5.153 5.153 5.153 5.153 5.153 5.153 5.153 5.153 5.153 5.153 5.153 5.153 5.154 5.153 5.153 5.153 5.153 5.153 5.153 5.153v-5.153h5.153v-5.153-5.153-5.153h-5.153z"/></g><g fill="#7611db"><path d="M68.69 89.488h5.153v5.153h5.153v5.153h5.153v5.153h5.153v5.153h5.153v5.153h5.153V110.1h5.153v-5.153h5.153v-5.153h5.154v-5.153h5.153v-5.153h5.153v-5.153h5.153v-5.153-5.153-5.153-5.153-5.153-5.153-5.153-5.153h-5.153v-5.153h-5.153-5.153v-5.153h-5.154-5.153v-5.153h-5.153-5.153-5.153v5.153h-5.153-5.153v5.153h-5.153-5.153v5.153h-5.153v5.153 5.153 5.153 5.153 5.153 5.153 5.153 5.153h5.153v5.153zm-5.153 30.918h-5.153-5.153-5.153-5.153v5.153 5.153h5.153 5.153 5.153 5.153 5.153v-5.153h-5.153v-5.153z"/><path d="M145.986 120.406h-5.153-5.153-5.153v5.153h-5.153v5.153h5.153 5.153 5.153 5.153 5.153v-5.153-5.153h-5.153zm-51.531 0v-5.153h-5.153V110.1h-5.153v-5.153h-5.153v-5.153h-5.153v-5.153H68.69v-5.153h-5.153v-5.153h-5.153-5.153-5.153v5.153 5.153 5.153 5.153h5.153v5.153h5.153v5.153h5.153v5.153h5.153v5.153h5.153v5.153h5.153 5.153v-5.153h5.153v-5.153h5.153z"/><path d="M130.527 120.406v-5.153h5.153V110.1h5.153v-5.153h5.153v-5.153-5.153-5.153-5.153h-5.153-5.153-5.153v5.153h-5.153v5.153h-5.153v5.153h-5.153v5.153h-5.153v5.153h-5.154v5.153h-5.153v5.153h-5.153v5.153h-5.153v5.153h5.153 5.153 5.153 5.154 5.153 5.153v-5.153h5.153v-5.153h5.153z"/></g><g fill="#fff"><path d="M89.302 27.651h5.153v5.153h-5.153v-5.153zM68.69 37.957v5.153h5.153 5.153v-5.153h-5.153-5.153z"/><path d="M78.996 32.804v5.153h5.153 5.153v-5.153h-5.153-5.153zM63.537 43.11h5.153v5.153h-5.153V43.11zm-20.612 77.296h5.153v5.153h-5.153v-5.153zm103.061 0h5.153v5.153h-5.153v-5.153zM63.537 89.488v-5.153h-5.153-5.153-5.153v5.153h5.153v5.153h5.153v-5.153h5.153z"/><path d="M58.384 94.641h5.153v5.153h-5.153v-5.153z"/><path d="M63.537 89.488h5.153v5.153h-5.153v-5.153zm0 10.306h5.153v5.153h-5.153v-5.153z"/><path d="M68.69 104.947h5.153v5.153H68.69v-5.153zm77.296-20.612h-5.153-5.153-5.153v5.153h5.153v5.153h5.153v-5.153h5.153v-5.153z"/><path d="M130.527 94.641h5.153v5.153h-5.153v-5.153z"/><path d="M125.374 89.488h5.153v5.153h-5.153v-5.153zm0 10.306h5.153v5.153h-5.153v-5.153z"/><path d="M120.221 104.947h5.153v5.153h-5.153v-5.153z"/></g><g fill="#c689fa"><path d="M104.761 104.947h5.153v-5.153h5.154v-5.153h5.153v-5.153-5.153h-5.153v-5.153h-5.154v-5.153h-5.153-5.153-5.153v5.153 5.153 5.153 5.153 5.153 5.153 5.153 5.153h5.153V110.1h5.153v-5.153zm-46.377 15.459h5.153v5.153h-5.153v-5.153z"/><path d="M63.537 125.559h5.153v5.153h-5.153v-5.153zm66.99-5.153h5.153v5.153h-5.153v-5.153z"/><path d="M125.374 125.559h5.153v5.153h-5.153v-5.153zm-46.378-10.306h-5.153-5.153v5.153h5.153v5.153h5.153v5.153h5.153v-5.153-5.153h-5.153v-5.153zm46.378 0h-5.153-5.153v5.153h-5.154v5.153h-5.153v5.153h5.153 5.154v-5.153h5.153v-5.153h5.153v-5.153z"/></g><g fill="#a04af3"><path d="M104.761 74.029h5.154v5.153h5.153v5.153h5.153v5.153h5.153v-5.153h5.153v-5.153-5.153-5.153h-5.153v-5.153h-5.153V58.57h-5.153v-5.153h-5.153-5.154v-5.153h-5.153-5.153v5.153 5.153 5.153 5.153 5.153h5.153 5.153z"/><path d="M94.455 110.1v-5.153-5.153-5.153-5.153-5.153-5.153-5.153h-5.153-5.153v5.153h-5.153v5.153h-5.153v5.153 5.153h5.153v5.153h5.153v5.153h5.153v5.153h5.153zm-51.53 15.459h5.153v5.153h-5.153v-5.153zm103.061 0h5.153v5.153h-5.153v-5.153zM68.69 115.253h5.153V110.1H68.69v-5.153h-5.153-5.153v5.153h5.153v5.153h5.153zm0 5.153h5.153v5.153H68.69v-5.153zM78.996 110.1h5.153v5.153h-5.153V110.1z"/><path d="M73.843 125.559h5.153v5.153h-5.153v-5.153zm10.306-10.306h5.153v5.153h-5.153v-5.153zm41.225-10.306v5.153h-5.153v5.153h5.153 5.153V110.1h5.153v-5.153h-5.153-5.153zm-5.153 15.459h5.153v5.153h-5.153v-5.153z"/><path d="M109.915 110.1h5.153v5.153h-5.153V110.1zm5.153 15.459h5.153v5.153h-5.153v-5.153z"/><path d="M104.761 115.253h5.154v5.153h-5.154v-5.153z"/><path d="M99.608 120.406h5.153v5.153h-5.153v-5.153z"/><path d="M94.455 125.559h5.153v5.153h-5.153v-5.153z"/></g><g fill="#8a32ec"><path d="M115.068 58.57h5.153v5.153h5.153v5.153h5.153v-5.153-5.153-5.153-5.153h-5.153V43.11h-5.153-5.153v-5.153h-5.154-5.153v-5.153h-5.153-5.153v5.153 5.153 5.153h5.153 5.153v5.153h5.153 5.154v5.153z"/><path d="M89.302 53.417h-5.153-5.153v5.153h-5.153v5.153H68.69v5.153h-5.153v5.153 5.153 5.153h5.153v5.153h5.153v-5.153h5.153v-5.153h5.153v-5.153h5.153 5.153v-5.153-5.153-5.153-5.153-5.153h-5.153v5.153zm-41.224 66.99h5.153v5.153h-5.153v-5.153z"/><path d="M53.231 125.559h5.153v5.153h-5.153v-5.153zm87.602-5.153h5.153v5.153h-5.153v-5.153z"/><path d="M135.68 125.559h5.153v5.153h-5.153v-5.153zm-72.143-20.612v-5.153h-5.153v-5.153h-5.153v5.153 5.153 5.153h5.153v-5.153h5.153z"/><path d="M58.384 110.1h5.153v5.153h-5.153V110.1z"/><path d="M63.537 115.253h5.153v5.153h-5.153v-5.153zm5.153-15.459h5.153v5.153H68.69v-5.153z"/><path d="M73.843 104.947h5.153v5.153h-5.153v-5.153zm10.306 5.153h5.153v5.153h-5.153V110.1z"/><path d="M89.302 115.253h5.153v5.153h-5.153v-5.153zm41.225-5.153h5.153v5.153h-5.153V110.1z"/><path d="M125.374 115.253h5.153v5.153h-5.153v-5.153zm-5.153-15.459h5.153v5.153h-5.153v-5.153z"/><path d="M115.068 104.947h5.153v5.153h-5.153v-5.153zm-10.307 5.153h5.153v5.153h-5.153V110.1z"/><path d="M89.302 125.559h5.153v5.153h-5.153v-5.153zm10.306-10.306h5.153v5.153h-5.153v-5.153z"/><path d="M94.455 120.406h5.153v5.153h-5.153v-5.153zm46.378-15.459v-5.153-5.153h-5.153v5.153h-5.153v5.153h5.153v5.153h5.153v-5.153z"/></g><path d="M102.357 147.215v2.607 2.608 2.607 2.618h2.608v-2.618-2.607-2.608-2.607-2.608V142h-2.608-2.617v2.607h2.617v2.608zM68.44 142h-2.608v2.607h2.608v2.608 2.607 2.608 2.607 2.618h2.607v-2.618-2.607-2.608-2.607-2.608h2.608V142h-2.608-2.607zM58 148.524v2.607h2.618 2.608v-2.607h-2.608H58zm74.5-.024h-2.607v2.607h2.607 2.618V148.5H132.5zm-19.785 9.155h2.607v-2.607-2.608-2.618-2.607-2.608V142h-2.607-2.608-2.607v2.607 2.608 2.607 2.608 2.607 2.618h2.607 2.608zm-2.608-5.225v-2.608-2.607-2.608h2.608v2.608 2.607 2.608 2.607h-2.608v-2.607zm-28.619 5.225h2.607v-2.607-2.608-2.618-2.607-2.608V142h-2.607-2.608-2.618v2.607 2.608 2.607 2.608 2.607 2.618h2.607 2.618zm-2.618-5.225v-2.608-2.607-2.608h2.608v2.608 2.607 2.608 2.607H78.87v-2.607zM89.31 142h-2.607v2.607 2.608 2.607 2.608 2.607 2.618h2.607v-2.607-2.608h2.607 2.608v-2.618-2.607-2.608V142h-2.608-2.607zm2.607 5.215v2.607H89.31v-2.607-2.608h2.607v2.608zm31.298 10.44h2.607v-2.607-2.608-2.618-2.607-2.608V142h-2.607-2.608H118v2.607 2.608 2.607 2.608 2.607 2.618h2.607 2.608zm-2.608-5.225v-2.608-2.607-2.608h2.608v2.608 2.607 2.608 2.607h-2.608v-2.607zm55.029-75.34h2.742v2.741h-2.742V77.09zm-10.965 0h2.741v2.741h-2.741V77.09zm-88.447 87.251h-2.195v2.185 2.195 2.185 2.195 2.185 2.195h2.195v-2.195-2.185h2.185v-2.195h-2.185v-2.185-2.195h2.185v2.195 2.185h2.195v-2.185-2.195-2.185h-2.195-2.185zm98.341-44.201h-2.185-2.195H168v-2.195-2.185-2.195-2.185h2.185 2.195v-2.195h-2.195H168V107h2.185 2.195 2.185v2.185 2.195 2.185h-2.185-2.195v2.195 2.185h2.195 2.185v2.195z" fill="#000"/></svg>