<svg xmlns="http://www.w3.org/2000/svg" width="195" height="195" fill="none"><path d="M97.032 194.064c53.589 0 97.032-43.443 97.032-97.032S150.621 0 97.032 0 0 43.443 0 97.032s43.443 97.032 97.032 97.032z" fill="#f041f8"/><g fill="#000"><path d="M101.357 147.215v2.607 2.608 2.607 2.618h2.608v-2.618-2.607-2.608-2.607-2.608V142h-2.608-2.617v2.607h2.617v2.608zM67.44 142h-2.608v2.607h2.608v2.608 2.607 2.608 2.607 2.618h2.607v-2.618-2.607-2.608-2.607-2.608h2.608V142h-2.608-2.607zM57 148.524v2.607h2.618 2.608v-2.607h-2.608H57zm74.5-.024h-2.607v2.607h2.607 2.618V148.5H131.5zm-19.785 9.155h2.607v-2.607-2.608-2.618-2.607-2.608V142h-2.607-2.608-2.607v2.607 2.608 2.607 2.608 2.607 2.618h2.607 2.608zm-2.608-5.225v-2.608-2.607-2.608h2.608v2.608 2.607 2.608 2.607h-2.608v-2.607zm-28.619 5.225h2.607v-2.607-2.608-2.618-2.607-2.608V142h-2.607-2.608-2.618v2.607 2.608 2.607 2.608 2.607 2.618h2.607 2.618zm-2.618-5.225v-2.608-2.607-2.608h2.608v2.608 2.607 2.608 2.607H77.87v-2.607zM88.31 142h-2.607v2.607 2.608 2.607 2.608 2.607 2.618h2.607v-2.607-2.608h2.607 2.608v-2.618-2.607-2.608V142h-2.608-2.607zm2.607 5.215v2.607H88.31v-2.607-2.608h2.607v2.608zm31.298 10.44h2.607v-2.607-2.608-2.618-2.607-2.608V142h-2.607-2.608H117v2.607 2.608 2.607 2.608 2.607 2.618h2.607 2.608zm-2.608-5.225v-2.608-2.607-2.608h2.608v2.608 2.607 2.608 2.607h-2.608v-2.607zm-99.263-50.699v2.196h2.185v2.184 2.196 2.185 2.195 2.185h2.195v-2.185-2.195-2.185-2.196-2.184-2.196h-2.195-2.185zm-7.668-17.52h-2.185v2.195 2.185 2.195h2.185 2.195v2.185 2.195h-2.195-2.185v2.185h2.185 2.195 2.185v-2.185-2.195-2.185-2.195h-2.185-2.195v-2.185h2.195 2.185v-2.195h-2.185-2.195zm8.76 0h-2.185v2.195h2.185 2.195v2.185 2.195h-2.195-2.185v2.185 2.195 2.185h2.185 2.195 2.185v-2.185h-2.185-2.195v-2.195h2.195 2.185v-2.185-2.195-2.185-2.195h-2.185-2.195zm10.955 0h-2.195-2.185v2.195 2.185 2.195 2.185 2.195 2.185h2.185v-2.185-2.195-2.185-2.195-2.185h2.195v2.185 2.195 2.185 2.195 2.185h2.185v-2.185-2.195-2.185-2.195-2.185-2.195h-2.185zm129.269 0h-2.185v2.195 2.185 2.195 2.185 2.195 2.185h2.185v-2.185-2.195h2.195v-2.185h-2.195v-2.195-2.185h2.195v2.185 2.195h2.185v-2.195-2.185-2.195h-2.185-2.195z"/><path d="M163.857 97.351h2.184v-2.185-2.195h-2.184v2.195 2.185zm17.52-10.945v2.185 2.195 2.185 2.195h2.185v-2.195-2.185-2.195-2.185h-2.185z"/><path d="M179.182 92.971v-2.185-2.195-2.185h2.195v-2.195h-2.195-2.185v2.195 2.185 2.195 2.185 2.195 2.185h2.185 2.195v-2.185h-2.195v-2.195zm-8.761-8.76h-2.184v2.195 2.185 2.195 2.185 2.195 2.185h2.184v-2.185-2.195-2.185-2.195-2.185h2.196v2.185 2.195 2.185 2.195 2.185h2.185v-2.185-2.195-2.185-2.195-2.185-2.195h-2.185-2.196zM18.427 63.712h2.741v2.741h-2.741v-2.741z"/></g><path d="M15.686 69.195h2.741v2.741h-2.741v-2.741zm10.955 0h2.741v2.741h-2.741v-2.741z" fill="#d11c84"/><path d="M18.427 69.195v2.741 2.741h2.741v-2.741-2.741-2.741h-2.741v2.741zm5.473-2.741v2.741 2.741 2.741h2.741v-2.741-2.741-2.741H23.9z" fill="#da25c0"/><path d="M18.427 74.678h2.741v2.741h-2.741v-2.741z" fill="#000"/><path d="M21.169 63.712v2.741 2.741 2.741 2.742 2.731H23.9v-2.731-2.742-2.741-2.741-2.741h-2.731z" fill="#fff"/><g fill="#000"><path d="M23.9 74.678h2.741v2.741H23.9v-2.741zm0-10.966h2.741v2.741H23.9v-2.741z"/><path d="M21.169 60.971h2.741v2.741h-2.741v-2.741zm-.01 16.438H23.9v2.741h-2.741v-2.741zm5.483-10.955h2.741v2.741h-2.741v-2.741zm-10.955 0h2.741v2.741h-2.741v-2.741z"/><path d="M29.383 69.195h2.741v2.741h-2.741v-2.741zm-16.438 0h2.741v2.741h-2.741v-2.741z"/><path d="M26.641 71.937h2.741v2.742h-2.741v-2.742zm-10.955 0h2.741v2.742h-2.741v-2.742zm151.726-8.224h2.742v2.741h-2.742v-2.741z"/></g><path d="M164.671 69.195h2.741v2.741h-2.741v-2.741zm10.965 0h2.742v2.741h-2.742v-2.741z" fill="#d11c84"/><path d="M167.412 69.195v2.741 2.741h2.742v-2.741-2.741-2.741h-2.742v2.741zm5.483-2.741v2.741 2.741 2.741h2.741v-2.741-2.741-2.741h-2.741z" fill="#da25c0"/><path d="M167.412 74.678h2.742v2.741h-2.742v-2.741z" fill="#000"/><path d="M170.154 63.712v2.741 2.741 2.741 2.742 2.731h2.741v-2.731-2.742-2.741-2.741-2.741h-2.741z" fill="#fff"/><g fill="#000"><path d="M172.895 74.678h2.741v2.741h-2.741v-2.741zm0-10.966h2.741v2.741h-2.741v-2.741z"/><path d="M170.154 60.971h2.741v2.741h-2.741v-2.741zm0 16.438h2.741v2.741h-2.741v-2.741zm5.482-10.955h2.742v2.741h-2.742v-2.741zm-10.965 0h2.741v2.741h-2.741v-2.741z"/><path d="M178.367 69.195h2.742v2.741h-2.742v-2.741zm-16.438 0h2.742v2.741h-2.742v-2.741z"/><path d="M175.636 71.937h2.742v2.741h-2.742v-2.741zm-10.965 0h2.741v2.741h-2.741v-2.741zm-88.375 92.951v2.195h2.195v-2.195-2.185h-2.195v2.185z"/><path d="M74.111 164.887v-2.185h-2.195v2.185 2.195 2.185 2.195 2.185 2.196h2.195v-2.196-2.185-2.195h2.185v-2.185h-2.185v-2.195z"/><path d="M76.296 173.647v2.196h2.195v-2.196-2.185-2.195h-2.195v2.195 2.185zm4.38-8.76v2.195 2.185 2.195 2.185 2.196h2.195v-2.196-2.185-2.195-2.185-2.195-2.185h-2.195v2.185zm6.575-2.185h-2.195v2.185 2.195 2.185 2.195 2.185 2.196h2.195v-2.196-2.185-2.195-2.185-2.195h2.185v2.195 2.185 2.195 2.185 2.196h2.195v-2.196-2.185-2.195-2.185-2.195-2.185h-2.195-2.185zm8.76 0h-2.195v2.185 2.195 2.185h2.195 2.185v2.195 2.185h-2.185-2.195v2.196h2.195 2.185 2.196v-2.196-2.185-2.195-2.185h-2.196-2.185v-2.195h2.185 2.196v-2.185h-2.196-2.185zm21.746 0h-2.185v2.185 2.185 2.185 2.205 2.185 2.185h2.185v-2.185-2.185h2.185 2.185v-2.184-2.185-2.185-2.206h-2.185-2.185zm2.185 4.38v2.185h-2.185v-2.185-2.185h2.185v2.185zm-12.985-2.195v2.195 2.185h-2.185v-2.185-2.195-2.185h-2.196v2.185 2.195 2.185 2.195 2.185 2.196h2.196v-2.196-2.185h2.185v2.185 2.196h2.195v-2.196-2.185-2.195-2.185-2.195-2.185h-2.195v2.185zm4.38 0v2.195 2.185 2.195 2.185 2.196h2.195v-2.196-2.185-2.195-2.185-2.195-2.185h-2.195v2.185zm39.802-49.624h-5.153-5.153v-5.153h5.153v-5.153h5.153v-5.153-5.153-5.153-5.153-5.153h-5.153-5.153-5.153v-5.153-5.153-5.153-5.153-5.153-5.153-5.153h-5.153v-5.153h-5.153v-5.153h-5.153-5.154v-5.153h-5.153-5.153v-5.153h-5.153-5.153-5.153v5.153h-5.153-5.153v5.153h-5.153-5.153v5.153h-5.153v5.153h-5.153v5.153 5.153 5.153 5.153 5.153 5.153 5.153h-5.153-5.153-5.153v5.153 5.153 5.153 5.153 5.153h5.153v5.153h5.153v5.153h-5.153-5.153-5.153v5.153 5.153 5.153h5.153v5.154h5.153 5.153 5.153 5.153 5.153 5.153 5.153 5.153 5.153 5.153 5.153 5.153 5.153 5.153 5.154 5.153 5.153 5.153 5.153 5.153 5.153v-5.154h5.153v-5.153-5.153-5.153h-5.153z"/></g><g fill="#f041f8"><path d="M68.69 89.498h5.153v5.153h5.153v5.153h5.153v5.153h5.153v5.153h5.153v5.153h5.153v-5.153h5.153v-5.153h5.153v-5.153h5.153v-5.153h5.154v-5.153h5.153v-5.153h5.153v-5.153-5.153-5.153-5.153-5.153-5.153-5.153-5.153h-5.153v-5.153h-5.153-5.154v-5.153h-5.153-5.153v-5.153h-5.153-5.153-5.153v5.153h-5.153-5.153v5.153h-5.153-5.153v5.153h-5.153v5.153 5.153 5.153 5.153 5.153 5.153 5.153 5.153h5.153v5.153zm-5.153 30.918h-5.153-5.153-5.153-5.153v5.153 5.153h5.153 5.153 5.153 5.153 5.153v-5.153h-5.153v-5.153z"/><path d="M145.986 120.416h-5.153-5.153-5.153v5.153h-5.153v5.153h5.153 5.153 5.153 5.153 5.153v-5.153-5.153h-5.153zm-51.531 0v-5.153h-5.153v-5.153h-5.153v-5.153h-5.153v-5.153h-5.153v-5.153H68.69v-5.153h-5.153v-5.153h-5.153-5.153-5.153v5.153 5.153 5.153 5.153h5.153v5.153h5.153v5.153h5.153v5.153h5.153v5.153h5.153v5.153h5.153 5.153v-5.153h5.153v-5.153h5.153z"/><path d="M130.527 120.416v-5.153h5.153v-5.153h5.153v-5.153h5.153v-5.153-5.153-5.153-5.153h-5.153-5.153-5.153v5.153h-5.153v5.153h-5.153v5.153h-5.153v5.153h-5.154v5.153h-5.153v5.153h-5.153v5.153h-5.153v5.153h-5.153v5.153h5.153 5.153 5.153 5.153 5.154 5.153v-5.153h5.153v-5.153h5.153z"/></g><g fill="#fff"><path d="M89.302 32.815h-5.153-5.153v5.153h5.153 5.153v5.153 5.153 5.153 5.153 5.153 5.153h5.153v-5.153-5.153-5.153-5.153-5.153-5.153-5.153-5.153h-5.153v5.153zm0 56.683h5.153v5.153h-5.153v-5.153z"/><path d="M68.69 37.968v5.153h5.153 5.153v-5.153h-5.153-5.153z"/><path d="M63.537 43.121h5.153v5.153h-5.153v-5.153zm-20.612 77.295h5.153v5.153h-5.153v-5.153zm103.061 0h5.153v5.153h-5.153v-5.153zM63.537 89.498v-5.153h-5.153-5.153-5.153v5.153h5.153v5.153h5.153v-5.153h5.153z"/><path d="M58.384 94.651h5.153v5.153h-5.153v-5.153z"/><path d="M63.537 89.498h5.153v5.153h-5.153v-5.153zm0 10.306h5.153v5.153h-5.153v-5.153z"/><path d="M68.69 104.957h5.153v5.153H68.69v-5.153zm77.296-20.612h-5.153-5.153-5.153v5.153h5.153v5.153h5.153v-5.153h5.153v-5.153z"/><path d="M130.527 94.651h5.153v5.153h-5.153v-5.153z"/><path d="M125.374 89.498h5.153v5.153h-5.153v-5.153zm0 10.306h5.153v5.153h-5.153v-5.153z"/><path d="M120.221 104.957h5.153v5.153h-5.153v-5.153z"/></g><g fill="#c40e50"><path d="M104.761 104.957h5.153v-5.153h5.153v-5.153h5.154v-5.153h5.153v-5.153-5.153-5.153-5.153h-5.153v5.153h-5.154v5.153h-5.153v5.153h-5.153v5.153h-5.153v5.153h-5.153v5.153 5.153 5.153 5.153h5.153v-5.153h5.153v-5.153zm-46.377 15.459h5.153v5.153h-5.153v-5.153z"/><path d="M63.537 125.569h5.153v5.153h-5.153v-5.153zm66.99-5.153h5.153v5.153h-5.153v-5.153z"/><path d="M125.374 125.569h5.153v5.153h-5.153v-5.153zm-46.378-10.306h-5.153-5.153v5.153h5.153v5.153h5.153v5.153h5.153v-5.153-5.153h-5.153v-5.153zm46.378 0h-5.153-5.153v5.153h-5.154v5.153h-5.153v5.153h5.153 5.154v-5.153h5.153v-5.153h5.153v-5.153z"/></g><g fill="#d11c84"><path d="M125.374 79.192v5.153h5.153v-5.153-5.153-5.153h-5.153v5.153 5.153z"/><path d="M99.608 89.498h5.153v-5.153h5.154v-5.153h5.153v-5.153h5.153v-5.153h5.153v-5.153-5.153-5.153-5.153-5.153h-5.153v5.153h-5.153v5.153h-5.153v5.153h-5.154v5.153h-5.153v5.153h-5.153v5.153 5.153 5.153 5.153 5.153h5.153v-5.153z"/><path d="M94.455 110.11v-5.153-5.153-5.153h-5.153v-5.153h-5.153v-5.153h-5.153v-5.153h-5.153v-5.153H68.69v5.153 5.153 5.153h5.153v5.153h5.153v5.153h5.153v5.153h5.153v5.153h5.153zm-51.53 15.459h5.153v5.153h-5.153v-5.153zm103.061 0h5.153v5.153h-5.153v-5.153zM68.69 115.263h5.153v-5.153H68.69v-5.153h-5.153-5.153v5.153h5.153v5.153h5.153zm0 5.153h5.153v5.153H68.69v-5.153zm10.306-10.306h5.153v5.153h-5.153v-5.153z"/><path d="M73.843 125.569h5.153v5.153h-5.153v-5.153zm10.306-10.306h5.153v5.153h-5.153v-5.153zm41.225-10.306v5.153h-5.153v5.153h5.153 5.153v-5.153h5.153v-5.153h-5.153-5.153zm-5.153 15.459h5.153v5.153h-5.153v-5.153z"/><path d="M109.915 110.11h5.153v5.153h-5.153v-5.153zm5.153 15.459h5.153v5.153h-5.153v-5.153z"/><path d="M104.761 115.263h5.154v5.153h-5.154v-5.153z"/><path d="M99.608 120.416h5.153v5.153h-5.153v-5.153z"/><path d="M94.455 125.569h5.153v5.153h-5.153v-5.153z"/></g><g fill="#da25c0"><path d="M130.527 63.733V58.58v-5.153-5.153h-5.153v5.153 5.153 5.153 5.153h5.153v-5.153zm-15.46-15.459h5.153v-5.153h-5.153v-5.153h-5.153-5.153v-5.153h-5.153-5.153v5.153 5.153 5.153 5.153 5.153 5.153 5.153h5.153v-5.153h5.153V58.58h5.153v-5.153h5.153v-5.153z"/><path d="M89.302 63.733h-5.153V58.58h-5.153v-5.153h-5.153v-5.153H68.69v5.153 5.153 5.153 5.153 5.153h5.153v5.153h5.153v5.153h5.153v5.153h5.153 5.153v-5.153-5.153-5.153-5.153h-5.153v-5.153z"/><path d="M63.537 79.192v5.153h5.153v-5.153-5.153h-5.153v5.153zm-15.459 41.224h5.153v5.153h-5.153v-5.153z"/><path d="M53.231 125.569h5.153v5.153h-5.153v-5.153zm87.602-5.153h5.153v5.153h-5.153v-5.153z"/><path d="M135.68 125.569h5.153v5.153h-5.153v-5.153zm-72.143-20.612v-5.153h-5.153v-5.153h-5.153v5.153 5.153 5.153h5.153v-5.153h5.153z"/><path d="M58.384 110.11h5.153v5.153h-5.153v-5.153z"/><path d="M63.537 115.263h5.153v5.153h-5.153v-5.153zm5.153-15.459h5.153v5.153H68.69v-5.153z"/><path d="M73.843 104.957h5.153v5.153h-5.153v-5.153zm10.306 5.153h5.153v5.153h-5.153v-5.153z"/><path d="M89.302 115.263h5.153v5.153h-5.153v-5.153zm41.225-5.153h5.153v5.153h-5.153v-5.153z"/><path d="M125.374 115.263h5.153v5.153h-5.153v-5.153zm-5.154-15.459h5.154v5.153h-5.154v-5.153z"/><path d="M115.067 104.957h5.153v5.153h-5.153v-5.153zm-10.306 5.153h5.153v5.153h-5.153v-5.153z"/><path d="M89.302 125.569h5.153v5.153h-5.153v-5.153zm10.306-10.306h5.153v5.153h-5.153v-5.153z"/><path d="M94.455 120.416h5.153v5.153h-5.153v-5.153zm46.378-15.459v-5.153-5.153h-5.153v5.153h-5.153v5.153h5.153v5.153h5.153v-5.153z"/></g><path d="M174.565 115.14h-2.185-2.195H168v-2.195-2.185-2.195-2.185h2.185 2.195v-2.195h-2.195H168V102h2.185 2.195 2.185v2.185 2.195 2.185h-2.185-2.195v2.195 2.185h2.195 2.185v2.195z" fill="#000"/></svg>