<svg xmlns="http://www.w3.org/2000/svg" width="195" height="195" fill="none"><path d="M97.032 194.064c53.589 0 97.032-43.443 97.032-97.032S150.621 0 97.032 0 0 43.443 0 97.032s43.443 97.032 97.032 97.032z" fill="#22dff0"/><g fill="#000"><path d="M20.344 101.731v2.185h2.195v2.196 2.184 2.196 2.184 2.196h2.185v-2.196-2.184-2.196-2.184-2.196-2.185H22.54h-2.195zm-7.658-17.52h-2.195v2.185 2.195 2.185h2.195 2.185v2.195 2.185h-2.185-2.195v2.195h2.195 2.185 2.195v-2.195-2.185-2.195-2.185h-2.195-2.185v-2.195h2.185 2.195v-2.185h-2.195-2.185zm8.76 0h-2.195v2.185h2.195 2.185v2.195 2.185h-2.185-2.195v2.195 2.185 2.195h2.195 2.185 2.195v-2.195h-2.195-2.185v-2.185h2.185 2.195v-2.195-2.185-2.195-2.185h-2.195-2.185zm10.945 0h-2.185-2.195v2.185 2.195 2.185 2.195 2.185 2.195h2.195v-2.195-2.185-2.195-2.185-2.195h2.185v2.195 2.185 2.195 2.185 2.195h2.195v-2.195-2.185-2.195-2.185-2.195-2.185h-2.195zm129.28 0h-2.196v2.185 2.195 2.185 2.195 2.185 2.195h2.196v-2.195-2.185h2.185v-2.195h-2.185v-2.185-2.195h2.185v2.195 2.185h2.195v-2.185-2.195-2.185h-2.195-2.185z"/><path d="M163.857 97.351h2.195v-2.195-2.185h-2.195v2.185 2.195zm17.52-10.955v2.195 2.185 2.195 2.185h2.195v-2.185-2.195-2.185-2.195h-2.195z"/><path d="M179.192 92.971v-2.195-2.185-2.195h2.185v-2.185h-2.185-2.195v2.185 2.195 2.185 2.195 2.185 2.195h2.195 2.185v-2.195h-2.185v-2.185zm-8.76-8.76h-2.195v2.185 2.195 2.185 2.195 2.185 2.195h2.195v-2.195-2.185-2.195-2.185-2.195h2.185v2.195 2.185 2.195 2.185 2.195h2.195v-2.195-2.185-2.195-2.185-2.195-2.185h-2.195-2.185zM18.427 63.712h2.741v2.741h-2.741v-2.741z"/></g><path d="M15.686 69.185h2.741v2.741h-2.741v-2.741zm10.966 0h2.741v2.741h-2.741v-2.741z" fill="#197fb7"/><path d="M18.427 69.185v2.741 2.741h2.741v-2.741-2.741-2.731h-2.741v2.731zm5.483-2.731v2.731 2.741 2.741h2.741v-2.741-2.741-2.731H23.91z" fill="#1caace"/><path d="M18.427 74.668h2.741v2.741h-2.741v-2.741z" fill="#000"/><path d="M21.169 63.712v2.741 2.731 2.741 2.741 2.741h2.741v-2.741-2.741-2.741-2.731-2.741h-2.741z" fill="#fff"/><g fill="#000"><path d="M23.91 74.668h2.741v2.741H23.91v-2.741zm0-10.955h2.741v2.741H23.91v-2.741z"/><path d="M21.169 60.971h2.741v2.741h-2.741v-2.741zm0 16.438h2.741v2.741h-2.741v-2.741zm5.483-10.955h2.741v2.741h-2.741v-2.741zm-10.966 0h2.741v2.741h-2.741v-2.741z"/><path d="M29.393 69.185h2.741v2.741h-2.741v-2.741zm-16.449 0h2.741v2.741h-2.741v-2.741z"/><path d="M26.652 71.926h2.741v2.741h-2.741v-2.741zm-10.966 0h2.741v2.741h-2.741v-2.741zm151.726-8.214h2.742v2.741h-2.742v-2.741z"/></g><path d="M164.681 69.185h2.741v2.741h-2.741v-2.741zm10.955 0h2.742v2.741h-2.742v-2.741z" fill="#197fb7"/><path d="M167.412 69.185v2.741 2.741h2.742v-2.741-2.741-2.731h-2.742v2.731zm5.483-2.731v2.731 2.741 2.741h2.741v-2.741-2.741-2.731h-2.741z" fill="#1caace"/><path d="M167.412 74.668h2.742v2.741h-2.742v-2.741z" fill="#000"/><path d="M170.154 63.712v2.741 2.731 2.741 2.741 2.741h2.741v-2.741-2.741-2.741-2.731-2.741h-2.741z" fill="#fff"/><g fill="#000"><path d="M172.895 74.668h2.741v2.741h-2.741v-2.741zm0-10.955h2.741v2.741h-2.741v-2.741z"/><path d="M170.154 60.971h2.741v2.741h-2.741v-2.741zm0 16.438h2.741v2.741h-2.741v-2.741zm5.482-10.955h2.742v2.741h-2.742v-2.741zm-10.955 0h2.741v2.741h-2.741v-2.741z"/><path d="M178.378 69.185h2.741v2.741h-2.741v-2.741zm-16.438 0h2.741v2.741h-2.741v-2.741z"/><path d="M175.636 71.926h2.742v2.741h-2.742v-2.741zm-10.955 0h2.741v2.741h-2.741v-2.741zm-73.122 90.766h-2.195v2.195 2.185h2.195v-2.185-2.195zm2.185 2.195v2.185h2.195v-2.185-2.195h-2.195v2.195z"/><path d="M91.559 167.072h2.185v2.185h-2.185v-2.185zm-2.195 4.38v2.195 2.185h2.195v-2.185-2.195-2.185h-2.195v2.185zm4.38 2.195v2.185h2.195v-2.185-2.195-2.185h-2.195v2.185 2.195zm6.576-10.955h-2.185v2.185 2.185 2.185 2.184 2.185 2.185h2.185v-2.154-2.185h2.184 2.185v-2.185-2.184-2.206-2.185h-2.185-2.184v-.01zm2.184 4.38v2.185h-2.184v-2.185-2.185h2.184v2.185zm-1.556-25.188v2.607h2.608v2.618 2.608 2.607 2.607 2.608h2.607v-2.608-2.607-2.607-2.608-2.618-2.607h-2.607-2.608zm-31.31 0H67.03v2.607h2.608v2.618 2.608 2.607 2.607 2.608h2.607v-2.608-2.607-2.607-2.608-2.618h2.608v-2.607h-2.608-2.607zm-10.43 6.524v2.607h2.608 2.607v-2.607h-2.607-2.608zm73.039 0h-2.608v2.607h2.608 2.607v-2.607h-2.607zm-20.869-6.524h-2.608v2.607 2.608 2.607 2.608 2.607 2.608h2.608 2.607 2.608v-2.608-2.607-2.608-2.607-2.608-2.607h-2.608-2.607zm2.607 5.225v2.608 2.607 2.607h-2.607v-2.607-2.607-2.608-2.607h2.607v2.607zm7.833-5.225h-2.607v2.607 2.608 2.607 2.608 2.607 2.608h2.607 2.607 2.608v-2.608-2.607-2.608-2.607-2.608-2.607h-2.608-2.607zm2.607 5.225v2.608 2.607 2.607h-2.607v-2.607-2.607-2.608-2.607h2.607v2.607zm-44.347-5.225H77.47v2.607 2.608 2.607 2.608 2.607 2.608h2.608 2.607 2.607v-2.608-2.607-2.608-2.607-2.608-2.607h-2.607-2.607zm2.607 5.225v2.608 2.607 2.607h-2.607v-2.607-2.607-2.608-2.607h2.607v2.607zm7.823 7.822v-2.607h2.608 2.607v-2.607-2.608-2.607-2.608h-2.607-2.608-2.607v2.608 2.607 2.608 2.607 2.607 2.608h2.607v-2.608zm0-7.822v-2.607h2.608v2.607 2.608h-2.608v-2.608zm60.631-31.856h-5.153-5.153V110.1h5.153v-5.153h5.153v-5.153-5.153-5.153-5.153-5.153h-5.153-5.153-5.153v-5.153-5.153-5.153-5.153-5.153-5.153-5.153h-5.153v-5.153h-5.153v-5.153h-5.153-5.153v-5.153h-5.154-5.153v-5.153h-5.153-5.153-5.153v5.153h-5.153-5.153v5.153h-5.153-5.153v5.153h-5.153v5.153h-5.153v5.153 5.153 5.153 5.153 5.153 5.153 5.153h-5.153-5.153-5.153v5.153 5.153 5.153 5.153 5.153h5.153v5.153h5.153v5.153h-5.153-5.153-5.153v5.153 5.153 5.153h5.153v5.153h5.153 5.153 5.153 5.153 5.153 5.153 5.153 5.153 5.153 5.153 5.153 5.153 5.153 5.154 5.153 5.153 5.153 5.153 5.153 5.153 5.153v-5.153h5.153v-5.153-5.153-5.153h-5.153z"/></g><g fill="#22dff0"><path d="M68.69 89.488h5.153v5.153h5.153v5.153h5.153v5.153h5.153v5.153h5.153v5.153h5.153V110.1h5.153v-5.153h5.153v-5.153h5.154v-5.153h5.153v-5.153h5.153v-5.153h5.153v-5.153-5.153-5.153-5.153-5.153-5.153-5.153-5.153h-5.153v-5.153h-5.153-5.153v-5.153h-5.154-5.153v-5.153h-5.153-5.153-5.153v5.153h-5.153-5.153v5.153h-5.153-5.153v5.153h-5.153v5.153 5.153 5.153 5.153 5.153 5.153 5.153 5.153h5.153v5.153zm-5.153 30.918h-5.153-5.153-5.153-5.153v5.153 5.153h5.153 5.153 5.153 5.153 5.153v-5.153h-5.153v-5.153z"/><path d="M145.986 120.406h-5.153-5.153-5.153v5.153h-5.153v5.153h5.153 5.153 5.153 5.153 5.153v-5.153-5.153h-5.153zm-51.531 0v-5.153h-5.153V110.1h-5.153v-5.153h-5.153v-5.153h-5.153v-5.153H68.69v-5.153h-5.153v-5.153h-5.153-5.153-5.153v5.153 5.153 5.153 5.153h5.153v5.153h5.153v5.153h5.153v5.153h5.153v5.153h5.153v5.153h5.153 5.153v-5.153h5.153v-5.153h5.153z"/><path d="M130.527 120.406v-5.153h5.153V110.1h5.153v-5.153h5.153v-5.153-5.153-5.153-5.153h-5.153-5.153-5.153v5.153h-5.153v5.153h-5.153v5.153h-5.153v5.153h-5.154v5.153h-5.153v5.153h-5.153v5.153h-5.153v5.153h-5.153v5.153h5.153 5.153 5.153 5.153 5.154 5.153v-5.153h5.153v-5.153h5.153z"/></g><g fill="#fff"><path d="M94.455 53.417v-5.153-5.153-5.153-5.153-5.153h-5.153v5.153h-5.153-5.153v5.153h5.153 5.153v5.153 5.153 5.153 5.153 5.153 5.153 5.153 5.153 5.153 5.153h5.153v-5.153-5.153-5.153-5.153-5.153h5.153V58.57h-5.153v-5.153zm-5.153 41.224h5.153v5.153h-5.153v-5.153z"/><path d="M68.69 37.957v5.153h5.153 5.153v-5.153h-5.153-5.153z"/><path d="M63.537 48.264v5.153 5.153h5.153v-5.153-5.153-5.153h-5.153v5.153zm-20.612 72.143h5.153v5.153h-5.153v-5.153zm103.061 0h5.153v5.153h-5.153v-5.153zM63.537 89.488v-5.153h-5.153-5.153-5.153v5.153h5.153v5.153h5.153v-5.153h5.153z"/><path d="M58.384 94.641h5.153v5.153h-5.153v-5.153z"/><path d="M63.537 89.488h5.153v5.153h-5.153v-5.153zm0 10.306h5.153v5.153h-5.153v-5.153z"/><path d="M68.69 104.947h5.153v5.153H68.69v-5.153zm77.296-20.612h-5.153-5.153-5.153v5.153h5.153v5.153h5.153v-5.153h5.153v-5.153z"/><path d="M130.527 94.641h5.153v5.153h-5.153v-5.153z"/><path d="M125.374 89.488h5.153v5.153h-5.153v-5.153zm0 10.306h5.153v5.153h-5.153v-5.153z"/><path d="M120.221 104.947h5.153v5.153h-5.153v-5.153z"/></g><g fill="#135b97"><path d="M104.761 104.947h5.153v-5.153h5.154v-5.153h5.153v-5.153-5.153-5.153-5.153h-5.153v5.153h-5.154v5.153h-5.153v5.153h-5.153v5.153h-5.153v5.153 5.153 5.153 5.153h5.153V110.1h5.153v-5.153zm-46.377 15.459h5.153v5.153h-5.153v-5.153z"/><path d="M63.537 125.559h5.153v5.153h-5.153v-5.153zm66.99-5.153h5.153v5.153h-5.153v-5.153z"/><path d="M125.374 125.559h5.153v5.153h-5.153v-5.153zm-46.378-10.306h-5.153-5.153v5.153h5.153v5.153h5.153v5.153h5.153v-5.153-5.153h-5.153v-5.153zm46.378 0h-5.153-5.153v5.153h-5.154v5.153h-5.153v5.153h5.153 5.154v-5.153h5.153v-5.153h5.153v-5.153z"/></g><g fill="#197fb7"><path d="M104.761 74.029h5.153v5.153h5.154v-5.153h5.153v5.153 5.153 5.153h5.153v-5.153-5.153-5.153-5.153-5.153-5.153h-5.153-5.153v5.153h-5.154-5.153-5.153v5.153h5.153v5.153z"/><path d="M99.608 89.488h5.153v-5.153h5.153v-5.153h-5.153v-5.153h-5.153v-5.153h-5.153v5.153 5.153 5.153 5.153 5.153h5.153v-5.153zm-15.459-5.153h-5.153v-5.153h-5.153v-5.153H68.69v5.153 5.153 5.153h5.153v5.153h5.153v5.153h5.153v5.153h5.153v-5.153-5.153-5.153h-5.153v-5.153zm-41.224 41.224h5.153v5.153h-5.153v-5.153zm103.061 0h5.153v5.153h-5.153v-5.153zM68.69 115.253h5.153V110.1H68.69v-5.153h-5.153-5.153v5.153h5.153v5.153h5.153zm0 5.153h5.153v5.153H68.69v-5.153z"/><path d="M78.996 110.1h5.153v5.153h-5.153V110.1zm-5.153 15.459h5.153v5.153h-5.153v-5.153z"/><path d="M84.149 115.253h5.153v5.153h-5.153v-5.153zm41.225-10.306v5.153h-5.153v5.153h5.153 5.153V110.1h5.153v-5.153h-5.153-5.153zm-5.153 15.459h5.153v5.153h-5.153v-5.153zM109.914 110.1h5.154v5.153h-5.154V110.1z"/><path d="M115.068 125.559h5.153v5.153h-5.153v-5.153zm-10.307-10.306h5.153v5.153h-5.153v-5.153z"/><path d="M99.608 120.406h5.153v5.153h-5.153v-5.153z"/><path d="M94.455 125.559h5.153v5.153h-5.153v-5.153z"/></g><g fill="#1caace"><path d="M125.374 68.876v5.153 5.153 5.153h5.153v-5.153-5.153-5.153-5.153-5.153h-5.153v5.153 5.153z"/><path d="M109.914 63.723h5.154V58.57h5.153 5.153v-5.153-5.153-5.153h-5.153-5.153v-5.153h-5.154-5.153v-5.153h-5.153-5.153v5.153 5.153 5.153 5.153 5.153h5.153v5.153h5.153 5.153zm-5.153 10.306h5.153v5.153h-5.153v-5.153z"/><path d="M99.608 68.876h5.153v5.153h-5.153v-5.153z"/><path d="M94.455 63.723h5.153v5.153h-5.153v-5.153zM84.149 84.335v5.153h5.153v-5.153-5.153-5.153h-5.153v-5.153h-5.153v5.153h-5.153v5.153h5.153v5.153h5.153z"/><path d="M78.996 68.876v-5.153h-5.153V58.57H68.69v5.153 5.153 5.153h5.153v-5.153h5.153z"/><path d="M63.537 79.182v5.153h5.153v-5.153-5.153h-5.153v5.153zm-15.459 41.224h5.153v5.153h-5.153v-5.153z"/><path d="M53.231 125.559h5.153v5.153h-5.153v-5.153zm87.602-5.153h5.153v5.153h-5.153v-5.153z"/><path d="M135.68 125.559h5.153v5.153h-5.153v-5.153zm-72.143-20.612v-5.153h-5.153v-5.153h-5.153v5.153 5.153 5.153h5.153v-5.153h5.153z"/><path d="M58.384 110.1h5.153v5.153h-5.153V110.1z"/><path d="M63.537 115.253h5.153v5.153h-5.153v-5.153zm5.153-15.459h5.153v5.153H68.69v-5.153z"/><path d="M73.843 104.947h5.153v5.153h-5.153v-5.153zm10.306 5.153h5.153v5.153h-5.153V110.1z"/><path d="M89.302 115.253h5.153v5.153h-5.153v-5.153zm41.225-5.153h5.153v5.153h-5.153V110.1z"/><path d="M125.374 115.253h5.153v5.153h-5.153v-5.153zm-5.153-15.459h5.153v5.153h-5.153v-5.153z"/><path d="M115.068 104.947h5.153v5.153h-5.153v-5.153zm-10.307 5.153h5.153v5.153h-5.153V110.1z"/><path d="M89.302 125.559h5.153v5.153h-5.153v-5.153zm10.306-10.306h5.153v5.153h-5.153v-5.153z"/><path d="M94.455 120.406h5.153v5.153h-5.153v-5.153zm46.378-15.459v-5.153-5.153h-5.153v5.153h-5.153v5.153h5.153v5.153h5.153v-5.153z"/></g><path d="M174.565 115.14h-2.185-2.195H168v-2.195-2.185-2.195-2.185h2.185 2.195v-2.195h-2.195H168V102h2.185 2.195 2.185v2.185 2.195 2.185h-2.185-2.195v2.195 2.185h2.195 2.185v2.195z" fill="#000"/></svg>