<svg xmlns="http://www.w3.org/2000/svg" width="321" height="320" fill="none"><path d="M160.27 320c88.366 0 160-71.634 160-160S248.636 0 160.27 0 .271 71.634.271 160 71.905 320 160.27 320z" fill="#3720c5"/><path d="M70 183.437h11.313v22.625h11.313v11.312h11.312v11.313h22.626V240h67.874v-11.313h22.625v-11.313h11.313v-11.312h11.312v-22.625H251v-67.875h-11.313V92.937h-11.312V81.625h-11.313V70.313h-22.625V59h-67.874v11.313h-22.626v11.313H92.625v11.312H81.313v22.625H70v67.875z" fill="#003c82"/><path d="M81 183.857h11.357v22.572h11.357v11.286h22.715V229h68.142v-11.285h22.714v-11.286h11.357v-22.572H240v-67.714h-11.358V93.571h-11.357V82.286h-22.714V71h-68.142v11.286h-22.715v11.286H92.357v22.572H81v67.714z" fill="#00d2ff"/><g fill="#00e1ff"><path d="M228 93.334h-11.334V82H194v11.334h11.334v11.334h11.332V116H228V93.334zm.7 22.666H240v67.8h-11.3V116zM127 217.7h67.8V229H127v-11.3z"/><path d="M216.666 184v11.333h-11.332v11.334H194V218h22.666v-11.333H228V184h-11.334z"/></g><g fill="#006eb4"><path d="M115 194.7h12V206h-12v-11.3zM115 93h12v11.3h-12V93zm-11 12h11v11h-11v-11z"/><path d="M93 116h11v68H93v-68z"/><path d="M104 183.7h11.25V195H104v-11.3zM126.5 82H194v11.3h-67.5V82z"/></g><g fill="#b9ffff"><path d="M206 105h11v11.25h-11V105zm0 78.75h11V195h-11v-11.25z"/><path d="M216.777 116H228v68.001h-11.223V116zM127 206.667h67.333V218H127v-11.333zm67-11.967h12V206h-12v-11.3zM194 93h12v11.3h-12V93z"/></g><path d="M127 195h67v11h-67v-11z" fill="#cd00c3"/><path d="M104 161h113v17H104v-17z" fill="#f500eb"/><path d="M206 110v-5.667h-11.375V93h-68.25v11.333H115V110h91z" fill="#00d2ff"/><path d="M115.3 110v5.75H104V133h113v-17.25h-11.3V110h-90.4z" fill="#00e1ff"/><path d="M104 133h113v28H104v-28z" fill="#00f0ff"/><path d="M104 178v5.667h11.3V195h79.1 11.3v-11.333H217V178H104z" fill="#d719cd"/><g fill="#fff"><path d="M146 179h31v14h-31v-14zm31.079-44.694h13.884V179h-13.884v-44.694zm-45.042 0h13.884V179h-13.884v-44.694zm1.862-6.865h5.769v-1.919h1.936v-4.762h-5.77v1.92h3.834v2.842h-5.769v-7.603h7.705v-1.883h-7.705v1.883H132v7.603h1.899v1.919zm16.788-9.522V116h-5.733v1.919h-1.935v7.603h1.935v1.919h5.77v-1.919h1.935v-7.603h-1.972zm0 7.603h-5.733v-7.603h5.77v7.603h-.037zm36.442-9.486h-1.899v1.883 2.841h-5.769v-4.724h-1.899v11.405h1.899v-4.761h5.769v4.761h1.936l-.037-11.405zm1.936 0H191v11.405h-1.935v-11.405zm-15.337 1.883h1.936v1.919h-1.936v-1.919zM168.007 127h6.014v-1.851H176v-1.816h-1.979v1.816h-6.014v-7.333h6.014V116h-6.014v1.816h-1.979v7.333h1.979V127zM154 116v1.816h3.996V127h2.019v-9.184h3.996V116H154zm28.882-90h2.889v2.889h-2.889V26zm-2.889 2.932h2.889v5.778h-2.889v-5.778z"/><path d="M177.104 34.709h2.889v5.778h-2.889v-5.778z"/><path d="M174.216 40.488h2.889v2.889h-2.889v-2.889zm-72.438 0h-2.889v-8.667H96v11.598h8.667V31.821h-2.889v8.667zm5.82-11.556v14.487h8.668V34.71h-2.89v5.778h-2.889V28.932h5.779V26h-8.668v2.932zm11.557 14.487h8.709V26.043h-8.709v17.376zm2.931-14.487h2.889V40.53h-2.889V28.932zm8.667 0h2.889v14.487h2.932V28.932h2.889V26h-8.71v2.932zm20.266 11.556h-5.778V28.932h5.778V26h-8.667v17.419h8.667v-2.931zm5.82-4.333h2.889v7.265h2.889V26h-2.889v7.265h-2.889V26h-2.889v17.419h2.889v-7.265zM165.506 26h2.889v17.377h-2.889V26zm26.086 17.419h8.71v-2.931h-5.821v-4.333h5.821v-2.889h-5.821v-4.334h5.821V26h-8.71v17.419zM220.567 26v7.265h-2.889V26h-2.931v17.419h2.931v-7.265h2.889v7.265h2.889V26h-2.889zm-17.376 2.932h2.889v14.487h2.889V28.932h2.889V26h-8.667v2.932zm-72.438 234.612h9.007v4.504h-9.007v-4.504zm49.665 0h9.007v4.504h-9.007v-4.504zm-31.609-11.301h-4.504v27.063h13.553v-4.503h-9.049v-22.56zm13.553 27.063h4.503v-9.007h9.05v-18.056h-13.553v27.063zm4.503-22.559h4.504v9.007h-4.504v-9.007zm-30.504 44.949h-2.804v-13.978h-2.804v16.74h8.412v-16.74h-2.804v13.978zm5.565 2.762h2.804v-13.936h2.804v13.936h2.804v-16.74h-8.412v16.74zm11.216-16.74h2.805V304.5h-2.805v-16.782zm5.566 16.74h8.37v-2.762h-5.566v-11.174h5.566v-2.804h-8.37v16.74zm13.978-16.74h-2.804v16.74h8.412v-2.762h-5.608v-13.978zm13.977 5.566h-2.804v-5.566h-2.804v8.37h2.804v8.37h2.804v-8.37h2.804v-8.37h-2.804v5.566z"/></g><path d="M35.476 154.5v2.201h-6.665V154.5h6.665zm-8.866 2.201h2.201v11.098H26.61v-11.098zm2.201 11.098h6.665V170h2.201v2.201h-2.201V170h-6.665v-2.201zm8.866 0h-2.201v-11.098h2.201v11.098zM39.87 154.5h8.866v2.201H39.87V154.5zm11.067 2.201v4.433h-2.201v-4.433h2.201zm-2.201 4.433v2.232h-6.665v-2.232h6.665zm-8.866 2.232h2.201v4.433h8.866V170H39.87v-6.634zm223.281-8.866h8.866v2.201h-8.866V154.5zm11.067 2.201v4.433h-2.201v-4.433h2.201zm-2.201 4.433v2.232h-6.665v-2.232h6.665zm-8.866 2.232h2.201v4.433h8.866V170h-11.067v-6.634zM278.612 170v-2.201h6.665V170h-6.665zm-2.201-13.299h2.201v11.098h-2.201v-11.098zm8.866-2.201v2.201h-6.665V154.5h6.665zm0 2.201h2.201v11.098h-2.201v-11.098zm4.394-2.201h8.866v2.201h-8.866V154.5zm11.067 2.201v4.433h-2.201v-4.433h2.201zm-2.201 4.433v2.232h-6.665v-2.232h6.665zm-8.866 2.232h2.201v4.433h8.866V170h-11.067v-6.634zm13.26-8.866h4.433V170h-2.232v-13.299h-2.201V154.5z" fill="#00e1ff"/></svg>