<svg width="321" height="320" viewBox="0 0 321 320" fill="none" xmlns="http://www.w3.org/2000/svg">
<path d="M160.27 320C248.636 320 320.27 248.366 320.27 160C320.27 71.6344 248.636 0 160.27 0C71.905 0 0.270508 71.6344 0.270508 160C0.270508 248.366 71.905 320 160.27 320Z" fill="#3720C5"/>
<path d="M70 183.437H81.3125V206.062H92.625V217.374H103.937V228.687H126.563V240H194.437V228.687H217.062V217.374H228.375V206.062H239.687V183.437H251V115.562H239.687V92.9374H228.375V81.625H217.062V70.3125H194.437V59H126.563V70.3125H103.937V81.625H92.625V92.9374H81.3125V115.562H70V183.437Z" fill="#003C82"/>
<path d="M81 183.857H92.3571V206.429H103.714V217.715H126.429V229H194.571V217.715H217.285V206.429H228.642V183.857H240V116.143H228.642V93.5714H217.285V82.2858H194.571V71H126.429V82.2858H103.714V93.5714H92.3571V116.143H81V183.857Z" fill="#00D2FF"/>
<path d="M228 93.3335H216.666V82H194V93.3335H205.334V104.667H216.666V116H228V93.3335Z" fill="#00E1FF"/>
<path d="M228.7 116H240V183.8H228.7V116ZM127 217.7H194.8V229H127V217.7Z" fill="#00E1FF"/>
<path d="M216.666 184V195.333H205.334V206.667H194V218H216.666V206.667H228V184H216.666Z" fill="#00E1FF"/>
<path d="M115 194.7H127V206H115V194.7ZM115 93H127V104.3H115V93Z" fill="#006EB4"/>
<path d="M104 105H115V116H104V105Z" fill="#006EB4"/>
<path d="M93 116H104V184H93V116Z" fill="#006EB4"/>
<path d="M104 183.7H115.25V195H104V183.7ZM126.5 82H194V93.3H126.5V82Z" fill="#006EB4"/>
<path d="M206 105H217V116.25H206V105ZM206 183.75H217V195H206V183.75Z" fill="#B9FFFF"/>
<path d="M216.777 116H228V184.001H216.777V116ZM127 206.667H194.333V218H127V206.667Z" fill="#B9FFFF"/>
<path d="M194 194.7H206V206H194V194.7ZM194 93H206V104.3H194V93Z" fill="#B9FFFF"/>
<path d="M127 195H194V206H127V195Z" fill="#CD00C3"/>
<path d="M104 161H217V178H104V161Z" fill="#F500EB"/>
<path d="M206 110V104.333H194.625V93H126.375V104.333H115V110H206Z" fill="#00D2FF"/>
<path d="M115.3 110V115.75H104V133H217V115.75H205.7V110H115.3Z" fill="#00E1FF"/>
<path d="M104 133H217V161H104V133Z" fill="#00F0FF"/>
<path d="M104 178V183.667H115.3V195H194.4H205.7V183.667H217V178H104Z" fill="#D719CD"/>
<path d="M146 179H177V193H146V179Z" fill="white"/>
<path d="M177.079 134.306H190.963V179H177.079V134.306ZM132.037 134.306H145.921V179H132.037V134.306ZM133.899 127.441H139.668V125.522H141.604V120.76H135.834V122.68H139.668V125.522H133.899V117.919H141.604V116.036H133.899V117.919H132V125.522H133.899V127.441ZM150.687 117.919V116H144.954V117.919H143.019V125.522H144.954V127.441H150.724V125.522H152.659V117.919H150.687ZM150.687 125.522H144.954V117.919H150.724V125.522H150.687ZM187.129 116.036H185.23V117.919V120.76H179.461V116.036H177.562V127.441H179.461V122.68H185.23V127.441H187.166L187.129 116.036ZM189.065 116.036H191V127.441H189.065V116.036ZM173.728 117.919H175.664V119.838H173.728V117.919Z" fill="white"/>
<path d="M168.007 127H174.021V125.149H176V123.333H174.021V125.149H168.007V117.816H174.021V116H168.007V117.816H166.028V125.149H168.007V127ZM154 116V117.816H157.996V127H160.015V117.816H164.011V116H154Z" fill="white"/>
<path d="M182.882 26H185.771V28.889H182.882V26ZM179.993 28.9315H182.882V34.7095H179.993V28.9315Z" fill="white"/>
<path d="M177.104 34.709H179.993V40.487H177.104V34.709Z" fill="white"/>
<path d="M174.216 40.4875H177.105V43.3765H174.216V40.4875ZM101.778 40.4875H98.889V31.8205H96V43.419H104.667V31.8205H101.778V40.4875ZM107.598 28.9315V43.419H116.266V34.7095H113.376V40.4875H110.487V28.9315H116.266V26H107.598V28.9315ZM119.155 43.419H127.864V26.0425H119.155V43.419ZM122.086 28.9315H124.975V40.53H122.086V28.9315ZM130.753 28.9315H133.642V43.419H136.574V28.9315H139.463V26H130.753V28.9315ZM151.019 40.4875H145.241V28.9315H151.019V26H142.352V43.419H151.019V40.4875ZM156.839 36.154H159.728V43.419H162.617V26H159.728V33.265H156.839V26H153.95V43.419H156.839V36.154ZM165.506 26H168.395V43.3765H165.506V26ZM191.592 43.419H200.302V40.4875H194.481V36.154H200.302V33.265H194.481V28.9315H200.302V26H191.592V43.419ZM220.567 26V33.265H217.678V26H214.747V43.419H217.678V36.154H220.567V43.419H223.456V26H220.567ZM203.191 28.9315H206.08V43.419H208.969V28.9315H211.858V26H203.191V28.9315ZM130.753 263.544H139.76V268.048H130.753V263.544ZM180.418 263.544H189.425V268.048H180.418V263.544ZM148.809 252.243H144.305V279.306H157.858V274.803H148.809V252.243ZM162.362 279.306H166.865V270.299H175.915V252.243H162.362V279.306ZM166.865 256.747H171.369V265.754H166.865V256.747ZM136.361 301.696H133.557V287.718H130.753V304.458H139.165V287.718H136.361V301.696ZM141.926 304.458H144.73V290.522H147.534V304.458H150.338V287.718H141.926V304.458ZM153.142 287.718H155.947V304.5H153.142V287.718ZM158.708 304.458H167.078V301.696H161.512V290.522H167.078V287.718H158.708V304.458ZM172.686 287.718H169.882V304.458H178.294V301.696H172.686V287.718ZM186.663 293.284H183.859V287.718H181.055V296.088H183.859V304.458H186.663V296.088H189.467V287.718H186.663V293.284Z" fill="white"/>
<path d="M35.4764 154.5V156.701H28.8114V154.5H35.4764ZM26.6104 156.701H28.8114V167.799H26.6104V156.701ZM28.8114 167.799H35.4764V170H37.6774V172.201H35.4764V170H28.8114V167.799ZM37.6774 167.799H35.4764V156.701H37.6774V167.799ZM39.8701 154.5H48.7361V156.701H39.8701V154.5ZM50.9371 156.701V161.134H48.7361V156.701H50.9371ZM48.7361 161.134V163.366H42.0711V161.134H48.7361ZM39.8701 163.366H42.0711V167.799H50.9371V170H39.8701V163.366ZM263.151 154.5H272.017V156.701H263.151V154.5ZM274.218 156.701V161.134H272.017V156.701H274.218ZM272.017 161.134V163.366H265.352V161.134H272.017ZM263.151 163.366H265.352V167.799H274.218V170H263.151V163.366ZM278.612 170V167.799H285.277V170H278.612ZM276.411 156.701H278.612V167.799H276.411V156.701ZM285.277 154.5V156.701H278.612V154.5H285.277ZM285.277 156.701H287.478V167.799H285.277V156.701ZM289.671 154.5H298.537V156.701H289.671V154.5ZM300.738 156.701V161.134H298.537V156.701H300.738ZM298.537 161.134V163.366H291.872V161.134H298.537ZM289.671 163.366H291.872V167.799H300.738V170H289.671V163.366ZM302.931 154.5H307.364V170H305.132V156.701H302.931V154.5Z" fill="#00E1FF"/>
</svg>
