<svg width="195" height="195" viewBox="0 0 195 195" fill="none" xmlns="http://www.w3.org/2000/svg">
<path d="M97.0318 194.064C150.621 194.064 194.064 150.621 194.064 97.0318C194.064 43.4426 150.621 0 97.0318 0C43.4426 0 0 43.4426 0 97.0318C0 150.621 43.4426 194.064 97.0318 194.064Z" fill="#C689FA"/>
<path d="M20.3442 106.884V109.08H22.5291V111.265V113.46V115.645V117.84V120.025H24.7243V117.84V115.645V113.46V111.265V109.08V106.884H22.5291H20.3442ZM12.6765 89.3641H10.4916V91.5593V93.7442V95.9394H12.6765H14.8717V98.1243V100.32H12.6765H10.4916V102.504H12.6765H14.8717H17.0566V100.32V98.1243V95.9394V93.7442H14.8717H12.6765V91.5593H14.8717H17.0566V89.3641H14.8717H12.6765ZM21.4367 89.3641H19.2518V91.5593H21.4367H23.6319V93.7442V95.9394H21.4367H19.2518V98.1243V100.32V102.504H21.4367H23.6319H25.8168V100.32H23.6319H21.4367V98.1243H23.6319H25.8168V95.9394V93.7442V91.5593V89.3641H23.6319H21.4367ZM32.392 89.3641H30.1969H28.012V91.5593V93.7442V95.9394V98.1243V100.32V102.504H30.1969V100.32V98.1243V95.9394V93.7442V91.5593H32.392V93.7442V95.9394V98.1243V100.32V102.504H34.5769V100.32V98.1243V95.9394V93.7442V91.5593V89.3641H32.392ZM161.661 89.3641H159.476V91.5593V93.7442V95.9394V98.1243V100.32V102.504H161.661V100.32V98.1243H163.857V95.9394H161.661V93.7442V91.5593H163.857V93.7442V95.9394H166.041V93.7442V91.5593V89.3641H163.857H161.661Z" fill="black"/>
<path d="M163.857 102.504H166.041V100.32V98.1243H163.857V100.32V102.504ZM181.377 91.5593V93.7442V95.9394V98.1243V100.32H183.562V98.1243V95.9394V93.7442V91.5593H181.377Z" fill="black"/>
<path d="M179.182 98.1242V95.9393V93.7441V91.5592H181.377V89.364H179.182H176.997V91.5592V93.7441V95.9393V98.1242V100.319V102.504H179.182H181.377V100.319H179.182V98.1242ZM170.422 89.364H168.237V91.5592V93.7441V95.9393V98.1242V100.319V102.504H170.422V100.319V98.1242V95.9393V93.7441V91.5592H172.617V93.7441V95.9393V98.1242V100.319V102.504H174.802V100.319V98.1242V95.9393V93.7441V91.5592V89.364H172.617H170.422ZM18.4273 68.8652H21.1687V71.6067H18.4273V68.8652Z" fill="black"/>
<path d="M15.6859 74.3481H18.4273V77.0896H15.6859V74.3481ZM26.6413 74.3481H29.3827V77.0896H26.6413V74.3481Z" fill="#8A32EC"/>
<path d="M18.4273 74.3481V77.0895V79.8309H21.1687V77.0895V74.3481V71.6067H18.4273V74.3481ZM23.8998 71.6067V74.3481V77.0895V79.8309H26.6413V77.0895V74.3481V71.6067H23.8998Z" fill="#A04AF3"/>
<path d="M18.4273 79.8309H21.1687V82.5724H18.4273V79.8309Z" fill="black"/>
<path d="M21.1687 68.8652V71.6067V74.3481V77.0895V79.8309V82.562H23.8998V79.8309V77.0895V74.3481V71.6067V68.8652H21.1687Z" fill="white"/>
<path d="M23.8998 79.8309H26.6413V82.5723H23.8998V79.8309ZM23.8998 68.8652H26.6413V71.6067H23.8998V68.8652Z" fill="black"/>
<path d="M21.1687 66.1239H23.9101V68.8653H21.1687V66.1239ZM21.1584 82.5621H23.8998V85.3035H21.1584V82.5621ZM26.6413 71.6067H29.3827V74.3482H26.6413V71.6067ZM15.6859 71.6067H18.4273V74.3482H15.6859V71.6067Z" fill="black"/>
<path d="M29.3827 74.3481H32.1241V77.0896H29.3827V74.3481ZM12.9445 74.3481H15.6859V77.0896H12.9445V74.3481Z" fill="black"/>
<path d="M26.6413 77.0895H29.3827V79.8309H26.6413V77.0895ZM15.6859 77.0895H18.4273V79.8309H15.6859V77.0895ZM167.412 68.8652H170.154V71.6067H167.412V68.8652Z" fill="black"/>
<path d="M164.671 74.3481H167.412V77.0896H164.671V74.3481ZM175.636 74.3481H178.378V77.0896H175.636V74.3481Z" fill="#8A32EC"/>
<path d="M167.412 74.3481V77.0895V79.8309H170.154V77.0895V74.3481V71.6067H167.412V74.3481ZM172.895 71.6067V74.3481V77.0895V79.8309H175.636V77.0895V74.3481V71.6067H172.895Z" fill="#A04AF3"/>
<path d="M167.412 79.8309H170.154V82.5724H167.412V79.8309Z" fill="black"/>
<path d="M170.154 68.8652V71.6067V74.3481V77.0895V79.8309V82.562H172.895V79.8309V77.0895V74.3481V71.6067V68.8652H170.154Z" fill="white"/>
<path d="M172.895 79.8309H175.636V82.5723H172.895V79.8309ZM172.895 68.8652H175.636V71.6067H172.895V68.8652Z" fill="black"/>
<path d="M170.154 66.1239H172.895V68.8653H170.154V66.1239ZM170.154 82.5621H172.895V85.3035H170.154V82.5621ZM175.636 71.6067H178.378V74.3482H175.636V71.6067ZM164.671 71.6067H167.412V74.3482H164.671V71.6067Z" fill="black"/>
<path d="M178.368 74.3481H181.109V77.0896H178.368V74.3481ZM161.929 74.3481H164.671V77.0896H161.929V74.3481Z" fill="black"/>
<path d="M78.4088 177.481H80.6039V175.286V173.101H78.4088V175.286V177.481ZM84.984 164.341H82.7991V166.526V168.711V170.896V173.081V175.265V177.45H84.984V175.265V173.081H87.1689V175.265V177.45H89.3538V175.265V173.081V170.896V168.711V166.526V164.341H87.1689H84.984ZM87.1689 168.721V170.906H84.984V168.721V166.536H87.1689V168.721ZM93.7442 164.341H91.549V166.526V168.721V170.906V173.101V175.286V177.481H93.7442V175.286V173.101H95.9291V170.906H93.7442V168.721V166.526H95.9291V168.721V170.906H98.1243V168.721V166.526V164.341H95.9291H93.7442Z" fill="black"/>
<path d="M95.9291 177.481H98.1243V175.286V173.101H95.9291V175.286V177.481ZM100.309 166.526V168.721V170.906V173.101V175.286V177.481H102.504V175.286V173.101V170.906V168.721V166.526V164.341H100.309V166.526ZM106.884 164.341H104.689V166.526H106.884V168.721V170.906V173.101V175.286V177.481H109.069V175.286V173.101V170.906V168.721V166.526H111.265V164.341H109.069H106.884ZM117.83 164.341V166.526V168.721V170.906H120.025V168.721V166.526V164.341H117.83ZM115.645 166.526V164.341H113.449V166.526V168.721V170.906H115.645V168.721V166.526Z" fill="black"/>
<path d="M115.645 173.101V175.286V177.481H117.83V175.286V173.101V170.906H115.645V173.101ZM151.139 115.253H145.986H140.833V110.1H145.986V104.947H151.139V99.7939V94.6408V89.4878V84.3347V79.1817H145.986H140.833H135.68V74.0286V68.8756V63.7225V58.5695V53.4164V48.2634V43.1103H130.527V37.9573H125.374V32.8043H120.221H115.068V27.6512H109.914H104.761V22.4982H99.6084H94.4553H89.3023V27.6512H84.1493H78.9962V32.8043H73.8432H68.6901V37.9573H63.5371V43.1103H58.384V48.2634V53.4164V58.5695V63.7225V68.8756V74.0286V79.1817H53.231H48.0779H42.9249V84.3347V89.4878V94.6408V99.7939V104.947H48.0779V110.1H53.231V115.253H48.0779H42.9249H37.7719V120.406V125.559V130.712H42.9249V135.865H48.0779H53.231H58.384H63.5371H68.6901H73.8432H78.9962H84.1493H89.3023H94.4553H99.6084H104.761H109.914H115.068H120.221H125.374H130.527H135.68H140.833H145.986H151.139V130.712H156.292V125.559V120.406V115.253H151.139Z" fill="black"/>
<path d="M68.6901 89.4878H73.8432V94.6408H78.9962V99.7939H84.1493V104.947H89.3023V110.1H94.4553V115.253H99.6084V110.1H104.761V104.947H109.914V99.7939H115.068V94.6408H120.221V89.4878H125.374V84.3347H130.527V79.1817V74.0287V68.8756V63.7226V58.5695V53.4165V48.2634V43.1104H125.374V37.9573H120.221H115.068V32.8043H109.914H104.761V27.6512H99.6084H94.4553H89.3023V32.8043H84.1493H78.9962V37.9573H73.8432H68.6901V43.1104H63.5371V48.2634V53.4165V58.5695V63.7226V68.8756V74.0287V79.1817V84.3347H68.6901V89.4878ZM63.5371 120.406H58.384H53.231H48.0779H42.9249V125.559V130.712H48.0779H53.231H58.384H63.5371H68.6901V125.559H63.5371V120.406Z" fill="#7611DB"/>
<path d="M145.986 120.406H140.833H135.68H130.527V125.559H125.374V130.712H130.527H135.68H140.833H145.986H151.139V125.559V120.406H145.986ZM94.4554 120.406V115.253H89.3023V110.1H84.1493V104.947H78.9962V99.7939H73.8432V94.6408H68.6902V89.4878H63.5371V84.3347H58.3841H53.231H48.078V89.4878V94.6408V99.7939V104.947H53.231V110.1H58.3841V115.253H63.5371V120.406H68.6902V125.559H73.8432V130.712H78.9962H84.1493V125.559H89.3023V120.406H94.4554Z" fill="#7611DB"/>
<path d="M130.527 120.406V115.253H135.68V110.1H140.833V104.947H145.986V99.7939V94.6408V89.4878V84.3347H140.833H135.68H130.527V89.4878H125.374V94.6408H120.221V99.7939H115.068V104.947H109.915V110.1H104.761V115.253H99.6084V120.406H94.4554V125.559H89.3023V130.712H94.4554H99.6084H104.761H109.915H115.068H120.221V125.559H125.374V120.406H130.527Z" fill="#7611DB"/>
<path d="M89.3023 27.6512H94.4554V32.8043H89.3023V27.6512ZM68.6902 37.9573V43.1104H73.8432H78.9962V37.9573H73.8432H68.6902Z" fill="white"/>
<path d="M78.9962 32.8043V37.9574H84.1493H89.3023V32.8043H84.1493H78.9962ZM63.5371 43.1104H68.6902V48.2635H63.5371V43.1104ZM42.9249 120.406H48.078V125.559H42.9249V120.406ZM145.986 120.406H151.139V125.559H145.986V120.406ZM63.5371 89.4878V84.3348H58.3841H53.231H48.078V89.4878H53.231V94.6409H58.3841V89.4878H63.5371Z" fill="white"/>
<path d="M58.3841 94.6409H63.5371V99.7939H58.3841V94.6409Z" fill="white"/>
<path d="M63.5371 89.4878H68.6902V94.6408H63.5371V89.4878ZM63.5371 99.7939H68.6902V104.947H63.5371V99.7939Z" fill="white"/>
<path d="M68.6902 104.947H73.8432V110.1H68.6902V104.947ZM145.986 84.3347H140.833H135.68H130.527V89.4878H135.68V94.6408H140.833V89.4878H145.986V84.3347Z" fill="white"/>
<path d="M130.527 94.6409H135.68V99.7939H130.527V94.6409Z" fill="white"/>
<path d="M125.374 89.4878H130.527V94.6408H125.374V89.4878ZM125.374 99.7939H130.527V104.947H125.374V99.7939Z" fill="white"/>
<path d="M120.221 104.947H125.374V110.1H120.221V104.947Z" fill="white"/>
<path d="M104.761 104.947H109.914V99.7939H115.068V94.6409H120.221V89.4878V84.3348H115.068V79.1817H109.914V74.0287H104.761H99.6084H94.4554V79.1817V84.3348V89.4878V94.6409V99.7939V104.947V110.1V115.253H99.6084V110.1H104.761V104.947ZM58.384 120.406H63.5371V125.559H58.384V120.406Z" fill="#C689FA"/>
<path d="M63.5371 125.559H68.6901V130.712H63.5371V125.559ZM130.527 120.406H135.68V125.559H130.527V120.406Z" fill="#C689FA"/>
<path d="M125.374 125.559H130.527V130.712H125.374V125.559ZM78.9962 115.253H73.8432H68.6901V120.406H73.8432V125.559H78.9962V130.712H84.1493V125.559V120.406H78.9962V115.253ZM125.374 115.253H120.221H115.068V120.406H109.914V125.559H104.761V130.712H109.914H115.068V125.559H120.221V120.406H125.374V115.253Z" fill="#C689FA"/>
<path d="M104.761 74.0287H109.915V79.1817H115.068V84.3347H120.221V89.4878H125.374V84.3347H130.527V79.1817V74.0287V68.8756H125.374V63.7226H120.221V58.5695H115.068V53.4165H109.915H104.761V48.2634H99.6084H94.4554V53.4165V58.5695V63.7226V68.8756V74.0287H99.6084H104.761Z" fill="#A04AF3"/>
<path d="M94.4554 110.1V104.947V99.7939V94.6409V89.4878V84.3348V79.1817V74.0287H89.3023H84.1493V79.1817H78.9962V84.3348H73.8432V89.4878V94.6409H78.9962V99.7939H84.1493V104.947H89.3023V110.1H94.4554ZM42.9249 125.559H48.078V130.712H42.9249V125.559ZM145.986 125.559H151.139V130.712H145.986V125.559ZM68.6902 115.253H73.8432V110.1H68.6902V104.947H63.5371H58.3841V110.1H63.5371V115.253H68.6902ZM68.6902 120.406H73.8432V125.559H68.6902V120.406ZM78.9962 110.1H84.1493V115.253H78.9962V110.1Z" fill="#A04AF3"/>
<path d="M73.8432 125.559H78.9962V130.712H73.8432V125.559ZM84.1493 115.253H89.3023V120.406H84.1493V115.253ZM125.374 104.947V110.1H120.221V115.253H125.374H130.527V110.1H135.68V104.947H130.527H125.374ZM120.221 120.406H125.374V125.559H120.221V120.406Z" fill="#A04AF3"/>
<path d="M109.915 110.1H115.068V115.253H109.915V110.1ZM115.068 125.559H120.221V130.712H115.068V125.559Z" fill="#A04AF3"/>
<path d="M104.761 115.253H109.915V120.406H104.761V115.253Z" fill="#A04AF3"/>
<path d="M99.6084 120.406H104.761V125.559H99.6084V120.406Z" fill="#A04AF3"/>
<path d="M94.4554 125.559H99.6084V130.712H94.4554V125.559Z" fill="#A04AF3"/>
<path d="M115.068 58.5695H120.221V63.7226H125.374V68.8756H130.527V63.7226V58.5695V53.4165V48.2635H125.374V43.1104H120.221H115.068V37.9574H109.914H104.761V32.8043H99.6084H94.4553V37.9574V43.1104V48.2635H99.6084H104.761V53.4165H109.914H115.068V58.5695Z" fill="#8A32EC"/>
<path d="M89.3023 53.4165H84.1492H78.9962V58.5695H73.8431V63.7226H68.6901V68.8756H63.537V74.0287V79.1817V84.3347H68.6901V89.4878H73.8431V84.3347H78.9962V79.1817H84.1492V74.0287H89.3023H94.4553V68.8756V63.7226V58.5695V53.4165V48.2634H89.3023V53.4165ZM48.0779 120.406H53.231V125.559H48.0779V120.406Z" fill="#8A32EC"/>
<path d="M53.231 125.559H58.384V130.712H53.231V125.559ZM140.833 120.406H145.986V125.559H140.833V120.406Z" fill="#8A32EC"/>
<path d="M135.68 125.559H140.833V130.712H135.68V125.559ZM63.537 104.947V99.7939H58.384V94.6409H53.231V99.7939V104.947V110.1H58.384V104.947H63.537Z" fill="#8A32EC"/>
<path d="M58.384 110.1H63.537V115.253H58.384V110.1Z" fill="#8A32EC"/>
<path d="M63.537 115.253H68.6901V120.406H63.537V115.253ZM68.6901 99.7939H73.8431V104.947H68.6901V99.7939Z" fill="#8A32EC"/>
<path d="M73.8431 104.947H78.9962V110.1H73.8431V104.947ZM84.1492 110.1H89.3023V115.253H84.1492V110.1Z" fill="#8A32EC"/>
<path d="M89.3023 115.253H94.4553V120.406H89.3023V115.253ZM130.527 110.1H135.68V115.253H130.527V110.1Z" fill="#8A32EC"/>
<path d="M125.374 115.253H130.527V120.406H125.374V115.253ZM120.221 99.7939H125.374V104.947H120.221V99.7939Z" fill="#8A32EC"/>
<path d="M115.068 104.947H120.221V110.1H115.068V104.947ZM104.761 110.1H109.914V115.253H104.761V110.1Z" fill="#8A32EC"/>
<path d="M89.3023 125.559H94.4553V130.712H89.3023V125.559ZM99.6084 115.253H104.761V120.406H99.6084V115.253Z" fill="#8A32EC"/>
<path d="M94.4553 120.406H99.6084V125.559H94.4553V120.406ZM140.833 104.947V99.7939V94.6409H135.68V99.7939H130.527V104.947H135.68V110.1H140.833V104.947Z" fill="#8A32EC"/>
<path d="M108.357 148.215V150.822V153.43V156.037V158.655H110.965V156.037V153.43V150.822V148.215V145.607V143H108.357H105.74V145.607H108.357V148.215ZM74.4401 143H71.8326V145.607H74.4401V148.215V150.822V153.43V156.037V158.655H77.0475V156.037V153.43V150.822V148.215V145.607H79.655V143H77.0475H74.4401ZM64 149.524V152.131H66.6177H69.2252V149.524H66.6177H64ZM126.61 149.524H124.002V152.131H126.61H129.227V149.524H126.61ZM118.787 158.655H121.395V156.048V153.44V150.822V148.215V145.607V143H118.787H116.18H113.572V145.607V148.215V150.822V153.43V156.037V158.655H116.18H118.787ZM116.18 153.43V150.822V148.215V145.607H118.787V148.215V150.822V153.43V156.037H116.18V153.43ZM87.4876 158.655H90.095V156.048V153.44V150.822V148.215V145.607V143H87.4876H84.8801H82.2624V145.607V148.215V150.822V153.43V156.037V158.655H84.8698H87.4876ZM84.8698 153.43V150.822V148.215V145.607H87.4773V148.215V150.822V153.43V156.037H84.8698V153.43ZM95.3099 143H92.7025V145.607V148.215V150.822V153.43V156.037V158.655H95.3099V156.048V153.44H97.9173H100.525V150.822V148.215V145.607V143H97.9173H95.3099ZM97.9173 148.215V150.822H95.3099V148.215V145.607H97.9173V148.215Z" fill="black"/>
<path d="M175.636 77.0896H178.378V79.831H175.636V77.0896ZM164.671 77.0896H167.412V79.831H164.671V77.0896ZM76.2239 164.341H74.0287V166.526V168.721V170.906V173.101V175.286V177.481H76.2239V175.286V173.101H78.4088V170.906H76.2239V168.721V166.526H78.4088V168.721V170.906H80.604V168.721V166.526V164.341H78.4088H76.2239Z" fill="black"/>
<path d="M168 107V109.195H172.37V112.472H168V114.668H172.37V117.945H168V120.14H174.575V107H168Z" fill="black"/>
</svg>
