<svg width="195" height="195" viewBox="0 0 195 195" fill="none" xmlns="http://www.w3.org/2000/svg">
<path d="M97.0318 194.064C150.621 194.064 194.064 150.621 194.064 97.0318C194.064 43.4426 150.621 0 97.0318 0C43.4426 0 0 43.4426 0 97.0318C0 150.621 43.4426 194.064 97.0318 194.064Z" fill="#22DFF0"/>
<path d="M20.3443 101.731V103.916H22.5395V106.112V108.296V110.492V112.676V114.872H24.7243V112.676V110.492V108.296V106.112V103.916V101.731H22.5395H20.3443ZM12.6868 84.2111H10.4916V86.396V88.5911V90.776H12.6868H14.8717V92.9712V95.1561H12.6868H10.4916V97.3513H12.6868H14.8717H17.0669V95.1561V92.9712V90.776V88.5911H14.8717H12.6868V86.396H14.8717H17.0669V84.2111H14.8717H12.6868ZM21.447 84.2111H19.2518V86.396H21.447H23.6319V88.5911V90.776H21.447H19.2518V92.9712V95.1561V97.3513H21.447H23.6319H25.8271V95.1561H23.6319H21.447V92.9712H23.6319H25.8271V90.776V88.5911V86.396V84.2111H23.6319H21.447ZM32.3921 84.2111H30.2072H28.012V86.396V88.5911V90.776V92.9712V95.1561V97.3513H30.2072V95.1561V92.9712V90.776V88.5911V86.396H32.3921V88.5911V90.776V92.9712V95.1561V97.3513H34.5873V95.1561V92.9712V90.776V88.5911V86.396V84.2111H32.3921ZM161.672 84.2111H159.476V86.396V88.5911V90.776V92.9712V95.1561V97.3513H161.672V95.1561V92.9712H163.857V90.776H161.672V88.5911V86.396H163.857V88.5911V90.776H166.052V88.5911V86.396V84.2111H163.857H161.672Z" fill="black"/>
<path d="M163.857 97.3514H166.052V95.1562V92.9713H163.857V95.1562V97.3514ZM181.377 86.396V88.5912V90.7761V92.9713V95.1562H183.572V92.9713V90.7761V88.5912V86.396H181.377Z" fill="black"/>
<path d="M179.192 92.9713V90.7761V88.5912V86.396H181.377V84.2111H179.192H176.997V86.396V88.5912V90.7761V92.9713V95.1562V97.3514H179.192H181.377V95.1562H179.192V92.9713ZM170.432 84.2111H168.237V86.396V88.5912V90.7761V92.9713V95.1562V97.3514H170.432V95.1562V92.9713V90.7761V88.5912V86.396H172.617V88.5912V90.7761V92.9713V95.1562V97.3514H174.812V95.1562V92.9713V90.7761V88.5912V86.396V84.2111H172.617H170.432ZM18.4273 63.7123H21.1687V66.4537H18.4273V63.7123Z" fill="black"/>
<path d="M15.6859 69.1848H18.4273V71.9262H15.6859V69.1848ZM26.6516 69.1848H29.393V71.9262H26.6516V69.1848Z" fill="#197FB7"/>
<path d="M18.4273 69.1847V71.9261V74.6676H21.1687V71.9261V69.1847V66.4536H18.4273V69.1847ZM23.9102 66.4536V69.1847V71.9261V74.6676H26.6516V71.9261V69.1847V66.4536H23.9102Z" fill="#1CAACE"/>
<path d="M18.4273 74.6676H21.1687V77.409H18.4273V74.6676Z" fill="black"/>
<path d="M21.1687 63.7123V66.4537V69.1848V71.9262V74.6677V77.4091H23.9102V74.6677V71.9262V69.1848V66.4537V63.7123H21.1687Z" fill="white"/>
<path d="M23.9102 74.6677H26.6516V77.4091H23.9102V74.6677ZM23.9102 63.7123H26.6516V66.4537H23.9102V63.7123Z" fill="black"/>
<path d="M21.1687 60.9708H23.9101V63.7122H21.1687V60.9708ZM21.1687 77.409H23.9101V80.1505H21.1687V77.409ZM26.6516 66.4537H29.393V69.1951H26.6516V66.4537ZM15.6859 66.4537H18.4273V69.1951H15.6859V66.4537Z" fill="black"/>
<path d="M29.393 69.1848H32.1344V71.9262H29.393V69.1848ZM12.9445 69.1848H15.6859V71.9262H12.9445V69.1848Z" fill="black"/>
<path d="M26.6516 71.9262H29.393V74.6677H26.6516V71.9262ZM15.6859 71.9262H18.4273V74.6677H15.6859V71.9262ZM167.412 63.7123H170.154V66.4537H167.412V63.7123Z" fill="black"/>
<path d="M164.681 69.1848H167.422V71.9262H164.681V69.1848ZM175.636 69.1848H178.378V71.9262H175.636V69.1848Z" fill="#197FB7"/>
<path d="M167.412 69.1847V71.9261V74.6676H170.154V71.9261V69.1847V66.4536H167.412V69.1847ZM172.895 66.4536V69.1847V71.9261V74.6676H175.636V71.9261V69.1847V66.4536H172.895Z" fill="#1CAACE"/>
<path d="M167.412 74.6676H170.154V77.409H167.412V74.6676Z" fill="black"/>
<path d="M170.154 63.7123V66.4537V69.1848V71.9262V74.6677V77.4091H172.895V74.6677V71.9262V69.1848V66.4537V63.7123H170.154Z" fill="white"/>
<path d="M172.895 74.6677H175.636V77.4091H172.895V74.6677ZM172.895 63.7123H175.636V66.4537H172.895V63.7123Z" fill="black"/>
<path d="M170.154 60.9708H172.895V63.7122H170.154V60.9708ZM170.154 77.409H172.895V80.1505H170.154V77.409ZM175.636 66.4537H178.378V69.1951H175.636V66.4537ZM164.681 66.4537H167.422V69.1951H164.681V66.4537Z" fill="black"/>
<path d="M178.378 69.1848H181.119V71.9262H178.378V69.1848ZM161.94 69.1848H164.681V71.9262H161.94V69.1848Z" fill="black"/>
<path d="M175.636 71.9261H178.378V74.6676H175.636V71.9261ZM164.681 71.9261H167.422V74.6676H164.681V71.9261ZM91.5593 162.692H89.3641V164.887V167.072H91.5593V164.887V162.692ZM93.7442 164.887V167.072H95.9394V164.887V162.692H93.7442V164.887Z" fill="black"/>
<path d="M91.5593 167.072H93.7442V169.257H91.5593V167.072ZM89.3641 171.452V173.647V175.832H91.5593V173.647V171.452V169.267H89.3641V171.452ZM93.7442 173.647V175.832H95.9394V173.647V171.452V169.267H93.7442V171.452V173.647ZM100.32 162.692H98.1346V164.877V167.062V169.247V171.431V173.616V175.801H100.32V173.647V171.462H102.504H104.689V169.277V167.093V164.887V162.702H102.504H100.32V162.692ZM102.504 167.072V169.257H100.32V167.072V164.887H102.504V167.072Z" fill="black"/>
<path d="M151.139 115.253H145.986H140.833V110.1H145.986V104.947H151.139V99.7938V94.6408V89.4878V84.3347V79.1817H145.986H140.833H135.68V74.0286V68.8756V63.7225V58.5695V53.4164V48.2634V43.1104H130.527V37.9573H125.374V32.8043H120.221H115.068V27.6512H109.914H104.761V22.4982H99.6084H94.4553H89.3023V27.6512H84.1493H78.9962V32.8043H73.8432H68.6901V37.9573H63.5371V43.1104H58.384V48.2634V53.4164V58.5695V63.7225V68.8756V74.0286V79.1817H53.231H48.0779H42.9249V84.3347V89.4878V94.6408V99.7938V104.947H48.0779V110.1H53.231V115.253H48.0779H42.9249H37.7719V120.406V125.559V130.712H42.9249V135.865H48.0779H53.231H58.384H63.5371H68.6901H73.8432H78.9962H84.1493H89.3023H94.4553H99.6084H104.761H109.914H115.068H120.221H125.374H130.527H135.68H140.833H145.986H151.139V130.712H156.292V125.559V120.406V115.253H151.139Z" fill="black"/>
<path d="M68.6901 89.4878H73.8432V94.6408H78.9962V99.7939H84.1493V104.947H89.3023V110.1H94.4553V115.253H99.6084V110.1H104.761V104.947H109.914V99.7939H115.068V94.6408H120.221V89.4878H125.374V84.3347H130.527V79.1817V74.0287V68.8756V63.7226V58.5695V53.4165V48.2634V43.1104H125.374V37.9573H120.221H115.068V32.8043H109.914H104.761V27.6512H99.6084H94.4553H89.3023V32.8043H84.1493H78.9962V37.9573H73.8432H68.6901V43.1104H63.5371V48.2634V53.4165V58.5695V63.7226V68.8756V74.0287V79.1817V84.3347H68.6901V89.4878ZM63.5371 120.406H58.384H53.231H48.0779H42.9249V125.559V130.712H48.0779H53.231H58.384H63.5371H68.6901V125.559H63.5371V120.406Z" fill="#22DFF0"/>
<path d="M145.986 120.406H140.833H135.68H130.527V125.559H125.374V130.712H130.527H135.68H140.833H145.986H151.139V125.559V120.406H145.986ZM94.4553 120.406V115.253H89.3023V110.1H84.1492V104.947H78.9962V99.7939H73.8432V94.6408H68.6901V89.4878H63.5371V84.3347H58.384H53.231H48.0779V89.4878V94.6408V99.7939V104.947H53.231V110.1H58.384V115.253H63.5371V120.406H68.6901V125.559H73.8432V130.712H78.9962H84.1492V125.559H89.3023V120.406H94.4553Z" fill="#22DFF0"/>
<path d="M130.527 120.406V115.253H135.68V110.1H140.833V104.947H145.986V99.7939V94.6408V89.4878V84.3347H140.833H135.68H130.527V89.4878H125.374V94.6408H120.221V99.7939H115.068V104.947H109.914V110.1H104.761V115.253H99.6084V120.406H94.4553V125.559H89.3023V130.712H94.4553H99.6084H104.761H109.914H115.068H120.221V125.559H125.374V120.406H130.527Z" fill="#22DFF0"/>
<path d="M94.4553 53.4165V48.2634V43.1104V37.9573V32.8043V27.6512H89.3023V32.8043H84.1492H78.9962V37.9573H84.1492H89.3023V43.1104V48.2634V53.4165V58.5695V63.7226V68.8756V74.0287V79.1817V84.3347V89.4878H94.4553V84.3347V79.1817V74.0287V68.8756V63.7226H99.6084V58.5695H94.4553V53.4165ZM89.3023 94.6408H94.4553V99.7939H89.3023V94.6408Z" fill="white"/>
<path d="M68.6901 37.9573V43.1103H73.8432H78.9962V37.9573H73.8432H68.6901Z" fill="white"/>
<path d="M63.5371 48.2634V53.4164V58.5695H68.6901V53.4164V48.2634V43.1104H63.5371V48.2634ZM42.9249 120.406H48.0779V125.559H42.9249V120.406ZM145.986 120.406H151.139V125.559H145.986V120.406ZM63.5371 89.4878V84.3347H58.384H53.231H48.0779V89.4878H53.231V94.6408H58.384V89.4878H63.5371Z" fill="white"/>
<path d="M58.384 94.6409H63.5371V99.7939H58.384V94.6409Z" fill="white"/>
<path d="M63.5371 89.4878H68.6901V94.6408H63.5371V89.4878ZM63.5371 99.7939H68.6901V104.947H63.5371V99.7939Z" fill="white"/>
<path d="M68.6901 104.947H73.8432V110.1H68.6901V104.947ZM145.986 84.3347H140.833H135.68H130.527V89.4878H135.68V94.6408H140.833V89.4878H145.986V84.3347Z" fill="white"/>
<path d="M130.527 94.6409H135.68V99.7939H130.527V94.6409Z" fill="white"/>
<path d="M125.374 89.4878H130.527V94.6408H125.374V89.4878ZM125.374 99.7939H130.527V104.947H125.374V99.7939Z" fill="white"/>
<path d="M120.221 104.947H125.374V110.1H120.221V104.947Z" fill="white"/>
<path d="M104.761 104.947H109.914V99.7939H115.068V94.6409H120.221V89.4878V84.3348V79.1817V74.0287H115.068V79.1817H109.914V84.3348H104.761V89.4878H99.6084V94.6409H94.4554V99.7939V104.947V110.1V115.253H99.6084V110.1H104.761V104.947ZM58.384 120.406H63.5371V125.559H58.384V120.406Z" fill="#135B97"/>
<path d="M63.5371 125.559H68.6901V130.712H63.5371V125.559ZM130.527 120.406H135.68V125.559H130.527V120.406Z" fill="#135B97"/>
<path d="M125.374 125.559H130.527V130.712H125.374V125.559ZM78.9962 115.253H73.8432H68.6901V120.406H73.8432V125.559H78.9962V130.712H84.1492V125.559V120.406H78.9962V115.253ZM125.374 115.253H120.221H115.068V120.406H109.914V125.559H104.761V130.712H109.914H115.068V125.559H120.221V120.406H125.374V115.253Z" fill="#135B97"/>
<path d="M104.761 74.0286H109.914V79.1816H115.068V74.0286H120.221V79.1816V84.3347V89.4877H125.374V84.3347V79.1816V74.0286V68.8755V63.7225V58.5695H120.221H115.068V63.7225H109.914H104.761H99.6084V68.8755H104.761V74.0286Z" fill="#197FB7"/>
<path d="M99.6084 89.4878H104.761V84.3347H109.914V79.1817H104.761V74.0287H99.6084V68.8756H94.4553V74.0287V79.1817V84.3347V89.4878V94.6408H99.6084V89.4878ZM84.1492 84.3347H78.9962V79.1817H73.8432V74.0287H68.6901V79.1817V84.3347V89.4878H73.8432V94.6408H78.9962V99.7939H84.1492V104.947H89.3023V99.7939V94.6408V89.4878H84.1492V84.3347ZM42.9249 125.559H48.0779V130.712H42.9249V125.559ZM145.986 125.559H151.139V130.712H145.986V125.559ZM68.6901 115.253H73.8432V110.1H68.6901V104.947H63.5371H58.384V110.1H63.5371V115.253H68.6901ZM68.6901 120.406H73.8432V125.559H68.6901V120.406Z" fill="#197FB7"/>
<path d="M78.9962 110.1H84.1492V115.253H78.9962V110.1ZM73.8431 125.559H78.9962V130.712H73.8431V125.559Z" fill="#197FB7"/>
<path d="M84.1493 115.253H89.3023V120.406H84.1493V115.253ZM125.374 104.947V110.1H120.221V115.253H125.374H130.527V110.1H135.68V104.947H130.527H125.374ZM120.221 120.406H125.374V125.559H120.221V120.406ZM109.914 110.1H115.068V115.253H109.914V110.1Z" fill="#197FB7"/>
<path d="M115.068 125.559H120.221V130.712H115.068V125.559ZM104.761 115.253H109.914V120.406H104.761V115.253Z" fill="#197FB7"/>
<path d="M99.6084 120.406H104.761V125.559H99.6084V120.406Z" fill="#197FB7"/>
<path d="M94.4553 125.559H99.6084V130.712H94.4553V125.559Z" fill="#197FB7"/>
<path d="M125.374 68.8757V74.0287V79.1818V84.3348H130.527V79.1818V74.0287V68.8757V63.7226V58.5696H125.374V63.7226V68.8757Z" fill="#1CAACE"/>
<path d="M109.914 63.7226H115.068V58.5695H120.221H125.374V53.4165V48.2635V43.1104H120.221H115.068V37.9574H109.914H104.761V32.8043H99.6084H94.4554V37.9574V43.1104V48.2635V53.4165V58.5695H99.6084V63.7226H104.761H109.914ZM104.761 74.0287H109.914V79.1817H104.761V74.0287Z" fill="#1CAACE"/>
<path d="M99.6084 68.8756H104.761V74.0287H99.6084V68.8756Z" fill="#1CAACE"/>
<path d="M94.4554 63.7227H99.6084V68.8757H94.4554V63.7227ZM84.1493 84.3348V89.4879H89.3023V84.3348V79.1818V74.0287H84.1493V68.8757H78.9962V74.0287H73.8432V79.1818H78.9962V84.3348H84.1493Z" fill="#1CAACE"/>
<path d="M78.9962 68.8757V63.7226H73.8432V58.5696H68.6901V63.7226V68.8757V74.0287H73.8432V68.8757H78.9962Z" fill="#1CAACE"/>
<path d="M63.5371 79.1817V84.3348H68.6901V79.1817V74.0287H63.5371V79.1817ZM48.0779 120.406H53.231V125.559H48.0779V120.406Z" fill="#1CAACE"/>
<path d="M53.231 125.559H58.384V130.712H53.231V125.559ZM140.833 120.406H145.986V125.559H140.833V120.406Z" fill="#1CAACE"/>
<path d="M135.68 125.559H140.833V130.712H135.68V125.559ZM63.5371 104.947V99.7939H58.384V94.6409H53.231V99.7939V104.947V110.1H58.384V104.947H63.5371Z" fill="#1CAACE"/>
<path d="M58.384 110.1H63.5371V115.253H58.384V110.1Z" fill="#1CAACE"/>
<path d="M63.5371 115.253H68.6901V120.406H63.5371V115.253ZM68.6901 99.7939H73.8432V104.947H68.6901V99.7939Z" fill="#1CAACE"/>
<path d="M73.8432 104.947H78.9962V110.1H73.8432V104.947ZM84.1493 110.1H89.3023V115.253H84.1493V110.1Z" fill="#1CAACE"/>
<path d="M89.3023 115.253H94.4554V120.406H89.3023V115.253ZM130.527 110.1H135.68V115.253H130.527V110.1Z" fill="#1CAACE"/>
<path d="M125.374 115.253H130.527V120.406H125.374V115.253ZM120.221 99.7939H125.374V104.947H120.221V99.7939Z" fill="#1CAACE"/>
<path d="M115.068 104.947H120.221V110.1H115.068V104.947ZM104.761 110.1H109.914V115.253H104.761V110.1Z" fill="#1CAACE"/>
<path d="M89.3023 125.559H94.4554V130.712H89.3023V125.559ZM99.6084 115.253H104.761V120.406H99.6084V115.253Z" fill="#1CAACE"/>
<path d="M94.4554 120.406H99.6084V125.559H94.4554V120.406ZM140.833 104.947V99.7939V94.6409H135.68V99.7939H130.527V104.947H135.68V110.1H140.833V104.947Z" fill="#1CAACE"/>
<path d="M107.357 147.215V149.822V152.43V155.037V157.655H109.965V155.037V152.43V149.822V147.215V144.607V142H107.357H104.74V144.607H107.357V147.215ZM73.4401 142H70.8326V144.607H73.4401V147.215V149.822V152.43V155.037V157.655H76.0475V155.037V152.43V149.822V147.215V144.607H78.655V142H76.0475H73.4401ZM63 148.524V151.131H65.6177H68.2252V148.524H65.6177H63ZM125.61 148.524H123.002V151.131H125.61H128.227V148.524H125.61ZM117.787 157.655H120.395V155.048V152.44V149.822V147.215V144.607V142H117.787H115.18H112.572V144.607V147.215V149.822V152.43V155.037V157.655H115.18H117.787ZM115.18 152.43V149.822V147.215V144.607H117.787V147.215V149.822V152.43V155.037H115.18V152.43ZM86.4876 157.655H89.095V155.048V152.44V149.822V147.215V144.607V142H86.4876H83.8801H81.2624V144.607V147.215V149.822V152.43V155.037V157.655H83.8698H86.4876ZM83.8698 152.43V149.822V147.215V144.607H86.4773V147.215V149.822V152.43V155.037H83.8698V152.43ZM94.3099 142H91.7025V144.607V147.215V149.822V152.43V155.037V157.655H94.3099V155.048V152.44H96.9173H99.5248V149.822V147.215V144.607V142H96.9173H94.3099ZM96.9173 147.215V149.822H94.3099V147.215V144.607H96.9173V147.215Z" fill="black"/>
<path d="M168 102V104.195H172.37V107.472H168V109.668H172.37V112.945H168V115.14H174.575V102H168Z" fill="black"/>
</svg>
