<svg xmlns="http://www.w3.org/2000/svg" viewBox="0 0 12 16"><path d="M11 5V4h-1V3H9V2H8V1H7V0H5v1H4v1H3v1H2v1H1v1H0v6h1v1h1v1h1v1h1v1h1v1h2v-1h1v-1h1v-1h1v-1h1v-1h1V5z" fill="#339cf0"/><g fill="#dcdcdc"><path d="M5,11v-1H4v2H3v1h1v1h1v1h1v-4H5z"/><path d="M3 9h1v1H3V9zm-1 2h1v1H2v-1z"/><path d="M2,9h1V8H2V7H1v4h1V9z"/></g><g fill="#f5f5f5"><path d="M10,7v1H9v1h1v2h1V7H10z"/><path d="M8 9h1v1H8V9zm1 2h1v1H9v-1z"/><path d="M8,10H7v1H6v4h1v-1h1v-1h1v-1H8V10z"/></g><g fill="#b9b9b9"><path d="M10,6h1v1h-1V6z"/><path d="M9,7h1v1H9V7z"/><path d="M8 8h1v1H8V8zM3 8h1v1H3V8z"/><path d="M4,9h1v1H4V9z"/><path d="M5 10v1h2v-1H5zM2 7h1v1H2V7z"/><path d="M1 6h1v1H1V6zm6 3h1v1H7V9z"/></g><path d="M10,5V4H9V3H8V2H7V1H5v1H4v1H3v1H2v1H1v1h1v1h1v1h1v1h1v1h2V9h1V8h1V7h1V6h1V5H10z" fill="#fff"/><path d="M5 7h1v1H5zM3 5h1v1H3z"/><path d="M4 6h1v1H4zm1-3h1v1H5z"/><path d="M4 4h1v1H4z"/></svg>