<svg xmlns="http://www.w3.org/2000/svg" viewBox="0 0 12 16"  xmlns:v="https://vecta.io/nano"><g fill="#dcdcdc"><path d="M5,11v-1H4v2H3v1h1v1h1v1h1v-4H5z"/><path d="M3 9h1v1H3V9zm-1 2h1v1H2v-1z"/><path d="M2,9h1V8H2V7H1v4h1V9z"/></g><g fill="#f5f5f5"><path d="M10,7v1H9v1h1v2h1V7H10z"/><path d="M8 9h1v1H8V9zm1 2h1v1H9v-1z"/><path d="M8,10H7v1H6v4h1v-1h1v-1h1v-1H8V10z"/></g><g fill="#339cf0"><path d="M8 2h1v1H8V2zM7 1V0H5v1h2z"/><path d="M7 1h1v1H7V1zm2 2h1v1H9V3z"/><path d="M10,4h1v1h-1V4z"/><path d="M11 5v6h1V5h-1zm-8 8h1v1H3v-1z"/><path d="M4 14h1v1H4v-1zm-2-2h1v1H2v-1z"/><path d="M1,11h1v1H1V11z"/><path d="M1 5H0v6h1V5zm4 10v1h2v-1H5zm3-2h1v1H8v-1z"/><path d="M7 14h1v1H7v-1zm2-2h1v1H9v-1z"/><path d="M10 11h1v1h-1v-1zM2 3h1v1H2V3z"/><path d="M1 4h1v1H1V4zm2-2h1v1H3V2z"/><path d="M4 1h1v1H4V1zM3 12h1v-2H3V9H2v2h1v1zm7-1V9H9v1H8v2h1v-1h1z"/></g><g fill="#b9b9b9"><path d="M10,6h1v1h-1V6z"/><path d="M9,7h1v1H9V7z"/><path d="M8 8h1v1H8V8zM3 8h1v1H3V8z"/><path d="M4,9h1v1H4V9z"/><path d="M5 10v1h2v-1H5zM2 7h1v1H2V7z"/><path d="M1 6h1v1H1V6zm6 3h1v1H7V9z"/></g><path d="M10 5V4H9V3H8V2H7V1H5v1H4v1H3v1H2v1H1v1h1v1h1v1h1v1h1v1h2V9h1V8h1V7h1V6h1V5h-1zM4 7V6H3V5h1V4h1V3h1v1H5v1H4v1h1v1h1v1H5V7H4z" fill="#fff"/><path d="M3 5h1v1H3V5zm2 2h1v1H5V7z"/><path d="M5 3h1v1H5V3zM4 6h1v1H4V6z"/><path d="M4,4h1v1H4V4z"/></svg>