<svg width="195" height="195" viewBox="0 0 195 195" fill="none" xmlns="http://www.w3.org/2000/svg">
<path d="M97.0318 194.064C150.621 194.064 194.064 150.621 194.064 97.0318C194.064 43.4426 150.621 0 97.0318 0C43.4426 0 0 43.4426 0 97.0318C0 150.621 43.4426 194.064 97.0318 194.064Z" fill="#F041F8"/>
<path d="M20.3442 101.731V103.927H22.5291V106.111V108.307V110.492V112.687V114.872H24.7243V112.687V110.492V108.307V106.111V103.927V101.731H22.5291H20.3442ZM12.6765 84.2111H10.4916V86.4063V88.5911V90.7863H12.6765H14.8717V92.9712V95.1664H12.6765H10.4916V97.3513H12.6765H14.8717H17.0565V95.1664V92.9712V90.7863V88.5911H14.8717H12.6765V86.4063H14.8717H17.0565V84.2111H14.8717H12.6765ZM21.4366 84.2111H19.2517V86.4063H21.4366H23.6318V88.5911V90.7863H21.4366H19.2517V92.9712V95.1664V97.3513H21.4366H23.6318H25.8167V95.1664H23.6318H21.4366V92.9712H23.6318H25.8167V90.7863V88.5911V86.4063V84.2111H23.6318H21.4366ZM32.392 84.2111H30.1968H28.0119V86.4063V88.5911V90.7863V92.9712V95.1664V97.3513H30.1968V95.1664V92.9712V90.7863V88.5911V86.4063H32.392V88.5911V90.7863V92.9712V95.1664V97.3513H34.5769V95.1664V92.9712V90.7863V88.5911V86.4063V84.2111H32.392ZM161.661 84.2111H159.476V86.4063V88.5911V90.7863V92.9712V95.1664V97.3513H161.661V95.1664V92.9712H163.856V90.7863H161.661V88.5911V86.4063H163.856V88.5911V90.7863H166.041V88.5911V86.4063V84.2111H163.856H161.661Z" fill="black"/>
<path d="M163.857 97.3513H166.041V95.1664V92.9712H163.857V95.1664V97.3513ZM181.377 86.4062V88.5911V90.7863V92.9712V95.1664H183.562V92.9712V90.7863V88.5911V86.4062H181.377Z" fill="black"/>
<path d="M179.182 92.9713V90.7864V88.5912V86.4063H181.377V84.2111H179.182H176.997V86.4063V88.5912V90.7864V92.9713V95.1665V97.3514H179.182H181.377V95.1665H179.182V92.9713ZM170.421 84.2111H168.237V86.4063V88.5912V90.7864V92.9713V95.1665V97.3514H170.421V95.1665V92.9713V90.7864V88.5912V86.4063H172.617V88.5912V90.7864V92.9713V95.1665V97.3514H174.802V95.1665V92.9713V90.7864V88.5912V86.4063V84.2111H172.617H170.421ZM18.4273 63.7123H21.1687V66.4537H18.4273V63.7123Z" fill="black"/>
<path d="M15.6859 69.1951H18.4273V71.9365H15.6859V69.1951ZM26.6412 69.1951H29.3827V71.9365H26.6412V69.1951Z" fill="#D11C84"/>
<path d="M18.4273 69.1952V71.9366V74.678H21.1687V71.9366V69.1952V66.4537H18.4273V69.1952ZM23.8998 66.4537V69.1952V71.9366V74.678H26.6412V71.9366V69.1952V66.4537H23.8998Z" fill="#DA25C0"/>
<path d="M18.4273 74.678H21.1687V77.4194H18.4273V74.678Z" fill="black"/>
<path d="M21.1687 63.7123V66.4537V69.1951V71.9365V74.678V77.4091H23.8998V74.678V71.9365V69.1951V66.4537V63.7123H21.1687Z" fill="white"/>
<path d="M23.8998 74.678H26.6412V77.4194H23.8998V74.678ZM23.8998 63.7123H26.6412V66.4537H23.8998V63.7123Z" fill="black"/>
<path d="M21.1687 60.9708H23.9101V63.7122H21.1687V60.9708ZM21.1584 77.409H23.8998V80.1505H21.1584V77.409ZM26.6412 66.4537H29.3827V69.1951H26.6412V66.4537ZM15.6859 66.4537H18.4273V69.1951H15.6859V66.4537Z" fill="black"/>
<path d="M29.3826 69.1951H32.1241V71.9365H29.3826V69.1951ZM12.9444 69.1951H15.6858V71.9365H12.9444V69.1951Z" fill="black"/>
<path d="M26.6412 71.9365H29.3827V74.678H26.6412V71.9365ZM15.6859 71.9365H18.4273V74.678H15.6859V71.9365ZM167.412 63.7123H170.154V66.4537H167.412V63.7123Z" fill="black"/>
<path d="M164.671 69.1951H167.412V71.9365H164.671V69.1951ZM175.636 69.1951H178.378V71.9365H175.636V69.1951Z" fill="#D11C84"/>
<path d="M167.412 69.1952V71.9366V74.678H170.154V71.9366V69.1952V66.4537H167.412V69.1952ZM172.895 66.4537V69.1952V71.9366V74.678H175.636V71.9366V69.1952V66.4537H172.895Z" fill="#DA25C0"/>
<path d="M167.412 74.678H170.154V77.4194H167.412V74.678Z" fill="black"/>
<path d="M170.154 63.7123V66.4537V69.1951V71.9365V74.678V77.4091H172.895V74.678V71.9365V69.1951V66.4537V63.7123H170.154Z" fill="white"/>
<path d="M172.895 74.678H175.636V77.4194H172.895V74.678ZM172.895 63.7123H175.636V66.4537H172.895V63.7123Z" fill="black"/>
<path d="M170.154 60.9708H172.895V63.7122H170.154V60.9708ZM170.154 77.409H172.895V80.1505H170.154V77.409ZM175.636 66.4537H178.378V69.1951H175.636V66.4537ZM164.671 66.4537H167.412V69.1951H164.671V66.4537Z" fill="black"/>
<path d="M178.367 69.1951H181.109V71.9365H178.367V69.1951ZM161.929 69.1951H164.671V71.9365H161.929V69.1951Z" fill="black"/>
<path d="M175.636 71.9365H178.378V74.6779H175.636V71.9365ZM164.671 71.9365H167.412V74.6779H164.671V71.9365ZM108.77 147.109V149.717V152.324V154.931V157.549H111.378V154.931V152.324V149.717V147.109V144.502V141.894H108.77H106.153V144.502H108.77V147.109ZM74.8531 141.894H72.2457V144.502H74.8531V147.109V149.717V152.324V154.931V157.549H77.4606V154.931V152.324V149.717V147.109V144.502H80.068V141.894H77.4606H74.8531ZM64.4131 148.418V151.025H67.0308H69.6382V148.418H67.0308H64.4131ZM127.023 148.418H124.415V151.025H127.023H129.64V148.418H127.023ZM119.2 157.549H121.808V154.942V152.334V149.717V147.109V144.502V141.894H119.2H116.593H113.985V144.502V147.109V149.717V152.324V154.931V157.549H116.593H119.2ZM116.593 152.324V149.717V147.109V144.502H119.2V147.109V149.717V152.324V154.931H116.593V152.324ZM87.9006 157.549H90.5081V154.942V152.334V149.717V147.109V144.502V141.894H87.9006H85.2932H82.6754V144.502V147.109V149.717V152.324V154.931V157.549H85.2829H87.9006ZM85.2829 152.324V149.717V147.109V144.502H87.8903V147.109V149.717V152.324V154.931H85.2829V152.324ZM95.723 141.894H93.1155V144.502V147.109V149.717V152.324V154.931V157.549H95.723V154.942V152.334H98.3304H100.938V149.717V147.109V144.502V141.894H98.3304H95.723ZM98.3304 147.109V149.717H95.723V147.109V144.502H98.3304V147.109ZM76.296 164.887V167.082H78.4912V164.887V162.702H76.296V164.887Z" fill="black"/>
<path d="M74.1111 164.887V162.702H71.9159V164.887V167.082V169.267V171.462V173.647V175.843H74.1111V173.647V171.462V169.267H76.296V167.082H74.1111V164.887Z" fill="black"/>
<path d="M76.296 173.647V175.843H78.4912V173.647V171.462V169.267H76.296V171.462V173.647ZM80.676 164.887V167.082V169.267V171.462V173.647V175.843H82.8712V173.647V171.462V169.267V167.082V164.887V162.702H80.676V164.887ZM87.2513 162.702H85.0561V164.887V167.082V169.267V171.462V173.647V175.843H87.2513V173.647V171.462V169.267V167.082V164.887H89.4362V167.082V169.267V171.462V173.647V175.843H91.6314V173.647V171.462V169.267V167.082V164.887V162.702H89.4362H87.2513ZM96.0115 162.702H93.8163V164.887V167.082V169.267H96.0115H98.1964V171.462V173.647H96.0115H93.8163V175.843H96.0115H98.1964H100.392V173.647V171.462V169.267V167.082H98.1964H96.0115V164.887H98.1964H100.392V162.702H98.1964H96.0115ZM117.757 162.702H115.572V164.887V167.072V169.257V171.462V173.647V175.832H117.757V173.647V171.462H119.942H122.127V169.278V167.093V164.908V162.702H119.942H117.757ZM119.942 167.082V169.267H117.757V167.082V164.897H119.942V167.082ZM106.957 164.887V167.082V169.267H104.772V167.082V164.887V162.702H102.576V164.887V167.082V169.267V171.462V173.647V175.843H104.772V173.647V171.462H106.957V173.647V175.843H109.152V173.647V171.462V169.267V167.082V164.887V162.702H106.957V164.887ZM111.337 164.887V167.082V169.267V171.462V173.647V175.843H113.532V173.647V171.462V169.267V167.082V164.887V162.702H111.337V164.887ZM151.139 115.263H145.986H140.833V110.11H145.986V104.957H151.139V99.8042V94.6512V89.4981V84.3451V79.192H145.986H140.833H135.68V74.039V68.886V63.7329V58.5799V53.4268V48.2738V43.1207H130.527V37.9677H125.374V32.8146H120.221H115.067V27.6616H109.914H104.761V22.5085H99.6083H94.4553H89.3022V27.6616H84.1492H78.9962V32.8146H73.8431H68.6901V37.9677H63.537V43.1207H58.384V48.2738V53.4268V58.5799V63.7329V68.886V74.039V79.192H53.2309H48.0779H42.9248V84.3451V89.4981V94.6512V99.8042V104.957H48.0779V110.11H53.2309V115.263H48.0779H42.9248H37.7718V120.416V125.569V130.722H42.9248V135.876H48.0779H53.2309H58.384H63.537H68.6901H73.8431H78.9962H84.1492H89.3022H94.4553H99.6083H104.761H109.914H115.067H120.221H125.374H130.527H135.68H140.833H145.986H151.139V130.722H156.292V125.569V120.416V115.263H151.139Z" fill="black"/>
<path d="M68.6901 89.4982H73.8431V94.6512H78.9962V99.8043H84.1492V104.957H89.3022V110.11H94.4553V115.263H99.6083V110.11H104.761V104.957H109.914V99.8043H115.067V94.6512H120.221V89.4982H125.374V84.3451H130.527V79.1921V74.039V68.886V63.7329V58.5799V53.4268V48.2738V43.1208H125.374V37.9677H120.221H115.067V32.8147H109.914H104.761V27.6616H99.6083H94.4553H89.3022V32.8147H84.1492H78.9962V37.9677H73.8431H68.6901V43.1208H63.537V48.2738V53.4268V58.5799V63.7329V68.886V74.039V79.1921V84.3451H68.6901V89.4982ZM63.537 120.416H58.384H53.2309H48.0779H42.9248V125.569V130.723H48.0779H53.2309H58.384H63.537H68.6901V125.569H63.537V120.416Z" fill="#F041F8"/>
<path d="M145.986 120.416H140.833H135.68H130.527V125.569H125.374V130.722H130.527H135.68H140.833H145.986H151.139V125.569V120.416H145.986ZM94.4553 120.416V115.263H89.3023V110.11H84.1493V104.957H78.9962V99.8042H73.8432V94.6512H68.6901V89.4981H63.5371V84.3451H58.384H53.231H48.0779V89.4981V94.6512V99.8042V104.957H53.231V110.11H58.384V115.263H63.5371V120.416H68.6901V125.569H73.8432V130.722H78.9962H84.1493V125.569H89.3023V120.416H94.4553Z" fill="#F041F8"/>
<path d="M130.527 120.416V115.263H135.68V110.11H140.833V104.957H145.986V99.8042V94.6512V89.4981V84.3451H140.833H135.68H130.527V89.4981H125.374V94.6512H120.221V99.8042H115.068V104.957H109.914V110.11H104.761V115.263H99.6084V120.416H94.4553V125.569H89.3023V130.722H94.4553H99.6084H104.761H109.914H115.068H120.221V125.569H125.374V120.416H130.527Z" fill="#F041F8"/>
<path d="M89.3023 32.8145H84.1493H78.9962V37.9676H84.1493H89.3023V43.1206V48.2737V53.4267V58.5798V63.7328V68.8859H94.4554V63.7328V58.5798V53.4267V48.2737V43.1206V37.9676V32.8145V27.6615H89.3023V32.8145ZM89.3023 89.498H94.4554V94.6511H89.3023V89.498Z" fill="white"/>
<path d="M68.6902 37.9677V43.1207H73.8432H78.9963V37.9677H73.8432H68.6902Z" fill="white"/>
<path d="M63.5371 43.1206H68.6902V48.2737H63.5371V43.1206ZM42.9249 120.416H48.078V125.569H42.9249V120.416ZM145.986 120.416H151.139V125.569H145.986V120.416ZM63.5371 89.498V84.345H58.3841H53.231H48.078V89.498H53.231V94.6511H58.3841V89.498H63.5371Z" fill="white"/>
<path d="M58.3841 94.6511H63.5371V99.8042H58.3841V94.6511Z" fill="white"/>
<path d="M63.5371 89.498H68.6902V94.6511H63.5371V89.498ZM63.5371 99.8041H68.6902V104.957H63.5371V99.8041Z" fill="white"/>
<path d="M68.6902 104.957H73.8432V110.11H68.6902V104.957ZM145.986 84.345H140.833H135.68H130.527V89.498H135.68V94.6511H140.833V89.498H145.986V84.345Z" fill="white"/>
<path d="M130.527 94.6511H135.68V99.8042H130.527V94.6511Z" fill="white"/>
<path d="M125.374 89.498H130.527V94.6511H125.374V89.498ZM125.374 99.8041H130.527V104.957H125.374V99.8041Z" fill="white"/>
<path d="M120.221 104.957H125.374V110.11H120.221V104.957Z" fill="white"/>
<path d="M104.761 104.957H109.914V99.8043H115.067V94.6512H120.221V89.4982H125.374V84.3451V79.1921V74.039V68.886H120.221V74.039H115.067V79.1921H109.914V84.3451H104.761V89.4982H99.6083V94.6512H94.4553V99.8043V104.957V110.11V115.263H99.6083V110.11H104.761V104.957ZM58.384 120.416H63.537V125.569H58.384V120.416Z" fill="#C40E50"/>
<path d="M63.5371 125.569H68.6901V130.722H63.5371V125.569ZM130.527 120.416H135.68V125.569H130.527V120.416Z" fill="#C40E50"/>
<path d="M125.374 125.57H130.527V130.723H125.374V125.57ZM78.9962 115.263H73.8431H68.6901V120.416H73.8431V125.57H78.9962V130.723H84.1492V125.57V120.416H78.9962V115.263ZM125.374 115.263H120.221H115.068V120.416H109.914V125.57H104.761V130.723H109.914H115.068V125.57H120.221V120.416H125.374V115.263Z" fill="#C40E50"/>
<path d="M125.374 79.1921V84.3451H130.527V79.1921V74.039V68.886H125.374V74.039V79.1921Z" fill="#D11C84"/>
<path d="M99.6084 89.4981H104.761V84.3451H109.915V79.192H115.068V74.039H120.221V68.886H125.374V63.7329V58.5799V53.4268V48.2738V43.1207H120.221V48.2738H115.068V53.4268H109.915V58.5799H104.761V63.7329H99.6084V68.886H94.4554V74.039V79.192V84.3451V89.4981V94.6512H99.6084V89.4981Z" fill="#D11C84"/>
<path d="M94.4554 110.11V104.957V99.8043V94.6512H89.3023V89.4982H84.1493V84.3452H78.9962V79.1921H73.8432V74.0391H68.6902V79.1921V84.3452V89.4982H73.8432V94.6512H78.9962V99.8043H84.1493V104.957H89.3023V110.11H94.4554ZM42.9249 125.57H48.078V130.723H42.9249V125.57ZM145.986 125.57H151.139V130.723H145.986V125.57ZM68.6902 115.263H73.8432V110.11H68.6902V104.957H63.5371H58.3841V110.11H63.5371V115.263H68.6902ZM68.6902 120.416H73.8432V125.57H68.6902V120.416ZM78.9962 110.11H84.1493V115.263H78.9962V110.11Z" fill="#D11C84"/>
<path d="M73.8432 125.569H78.9962V130.722H73.8432V125.569ZM84.1493 115.263H89.3023V120.416H84.1493V115.263ZM125.374 104.957V110.11H120.221V115.263H125.374H130.527V110.11H135.68V104.957H130.527H125.374ZM120.221 120.416H125.374V125.569H120.221V120.416Z" fill="#D11C84"/>
<path d="M109.915 110.11H115.068V115.263H109.915V110.11ZM115.068 125.569H120.221V130.723H115.068V125.569Z" fill="#D11C84"/>
<path d="M104.761 115.263H109.915V120.416H104.761V115.263Z" fill="#D11C84"/>
<path d="M99.6084 120.416H104.761V125.569H99.6084V120.416Z" fill="#D11C84"/>
<path d="M94.4554 125.569H99.6084V130.723H94.4554V125.569Z" fill="#D11C84"/>
<path d="M130.527 63.7328V58.5798V53.4268V48.2737H125.374V53.4268V58.5798V63.7328V68.8859H130.527V63.7328ZM115.067 48.2737H120.22V43.1207H115.067V37.9676H109.914H104.761V32.8146H99.6083H94.4552V37.9676V43.1207V48.2737V53.4268V58.5798V63.7328V68.8859H99.6083V63.7328H104.761V58.5798H109.914V53.4268H115.067V48.2737Z" fill="#DA25C0"/>
<path d="M89.3022 63.7328H84.1492V58.5798H78.9961V53.4267H73.8431V48.2737H68.69V53.4267V58.5798V63.7328V68.8859V74.0389H73.8431V79.192H78.9961V84.345H84.1492V89.498H89.3022H94.4553V84.345V79.192V74.0389V68.8859H89.3022V63.7328Z" fill="#DA25C0"/>
<path d="M63.537 79.192V84.345H68.69V79.192V74.0389H63.537V79.192ZM48.0779 120.416H53.2309V125.569H48.0779V120.416Z" fill="#DA25C0"/>
<path d="M53.2309 125.569H58.3839V130.722H53.2309V125.569ZM140.833 120.416H145.986V125.569H140.833V120.416Z" fill="#DA25C0"/>
<path d="M135.68 125.569H140.833V130.722H135.68V125.569ZM63.537 104.957V99.8042H58.3839V94.6511H53.2309V99.8042V104.957V110.11H58.3839V104.957H63.537Z" fill="#DA25C0"/>
<path d="M58.3839 110.11H63.537V115.263H58.3839V110.11Z" fill="#DA25C0"/>
<path d="M63.537 115.263H68.69V120.416H63.537V115.263ZM68.69 99.8042H73.8431V104.957H68.69V99.8042Z" fill="#DA25C0"/>
<path d="M73.8431 104.957H78.9961V110.11H73.8431V104.957ZM84.1491 110.11H89.3022V115.263H84.1491V110.11Z" fill="#DA25C0"/>
<path d="M89.3022 115.263H94.4553V120.416H89.3022V115.263ZM130.527 110.11H135.68V115.263H130.527V110.11Z" fill="#DA25C0"/>
<path d="M125.374 115.263H130.527V120.416H125.374V115.263ZM120.22 99.8042H125.374V104.957H120.22V99.8042Z" fill="#DA25C0"/>
<path d="M115.067 104.957H120.22V110.11H115.067V104.957ZM104.761 110.11H109.914V115.263H104.761V110.11Z" fill="#DA25C0"/>
<path d="M89.3022 125.569H94.4553V130.722H89.3022V125.569ZM99.6083 115.263H104.761V120.416H99.6083V115.263Z" fill="#DA25C0"/>
<path d="M94.4552 120.416H99.6083V125.569H94.4552V120.416ZM140.833 104.957V99.8042V94.6511H135.68V99.8042H130.527V104.957H135.68V110.11H140.833V104.957Z" fill="#DA25C0"/>
<path d="M172.37 102V108.575H170.195V102H168V110.77H172.37V115.14H174.575V102H172.37Z" fill="black"/>
</svg>
