<svg width="227" height="295" viewBox="0 0 227 295" fill="none" xmlns="http://www.w3.org/2000/svg">
<path d="M196.966 176.796V166.976H206.786V157.156H216.607V108.056H187.146V39.315H177.326V29.495H167.506V19.6749H147.866V9.85476H128.226V0.034668H98.7654V9.85476H79.1252V19.6749H59.485V29.495H49.6649V39.315H39.8448V108.056H10.3845V157.156H20.2046V166.976H30.0247V176.796H0.564453V206.257H10.3845V216.077H20.2046V245.341H30.0247V255.161H39.8448V284.621H49.6649V294.441H177.326V284.621H187.146V255.161H196.966V245.341H206.786V216.077H216.607V206.257H226.427V176.796H196.966Z" fill="black"/>
<path d="M49.6649 255.18V284.64H177.326V255.18H49.6649Z" fill="#C300FF"/>
<path d="M30.0245 215.9V245.36H196.966V215.9H30.0245Z" fill="#FED223"/>
<path d="M85.7635 263.764H77.8878V277.315H80.0678V271.639H85.4689V277.315H87.6489V271.345H85.7635V269.734H87.6489V265.649H85.7635V263.764ZM85.4689 269.44H80.0678V265.944H85.4689V269.44Z" fill="white"/>
<path d="M98.4517 263.763H92.4614V265.649H90.5759V277.315H92.756V271.639H98.1571V277.315H100.337V265.649H98.4517V263.763ZM92.7363 265.943H98.1374V269.439H92.7363V265.943Z" fill="white"/>
<path d="M111.12 263.763H103.244V277.315H105.424V271.639H110.825V277.315H113.005V271.344H111.12V269.734H113.005V265.649H111.12V263.763ZM110.825 269.439H105.424V265.943H110.825V269.439Z" fill="white"/>
<path d="M115.911 265.943H117.797V275.135H115.911V277.315H121.882V275.135H119.997V265.943H121.882V263.763H115.911V265.943Z" fill="white"/>
<path d="M124.789 265.943H128.599V277.315H130.76V265.943H134.55V263.763H124.789V265.943Z" fill="white"/>
<path d="M145.058 263.763V269.439H143.153V271.344H141.562V269.439H139.657V263.763H137.477V269.734H139.362V271.639H141.267V277.315H143.447V271.639H145.352V269.734H147.238V263.763H145.058Z" fill="white"/>
<path d="M59.4851 127.696H69.3052V137.516H79.1253V147.336H88.9454V157.156H98.7655V166.976H108.586V176.796H118.406V166.976H128.226V157.156H138.046V147.336H147.866V137.516H157.686V127.696H167.506V117.876H177.326V39.3148H167.506V29.4947H147.866V19.6746H128.226V9.85449H98.7655V19.6746H79.1253V29.4947H59.4851V39.3148H49.665V117.876H59.4851V127.696ZM49.665 186.616H10.3846V206.256H59.4851V196.436H49.665V186.616Z" fill="#FEB423"/>
<path d="M206.787 186.616H177.327V196.436H167.507V206.256H216.607V186.616H206.787ZM108.586 186.616V176.796H98.7659V166.976H88.9458V157.156H79.1257V147.336H69.3056V137.516H59.4855V127.696H49.6654V117.875H20.2051V157.156H30.0252V166.976H39.8453V176.796H49.6654V186.616H59.4855V196.436H69.3056V206.256H88.9458V196.436H98.7659V186.616H108.586Z" fill="#FEB423"/>
<path d="M177.327 186.616V176.796H187.147V166.976H196.967V157.156H206.787V117.875H177.327V127.696H167.506V137.516H157.686V147.336H147.866V157.156H138.046V166.976H128.226V176.796H118.406V186.616H108.586V196.436H98.7657V206.256H157.686V196.436H167.506V186.616H177.327Z" fill="#FEB423"/>
<path d="M98.7658 9.85498H108.586V19.6751H98.7658V9.85498ZM59.4854 29.4952V39.3153H79.1256V29.4952H59.4854Z" fill="white"/>
<path d="M79.1256 19.6753V29.4954H98.7658V19.6753H79.1256ZM49.6653 39.3155H59.4854V49.1356H49.6653V39.3155ZM10.3849 186.617H20.205V196.437H10.3849V186.617ZM206.787 186.617H216.607V196.437H206.787V186.617ZM49.6653 127.696V117.876H20.205V127.696H30.0251V137.516H39.8452V127.696H49.6653Z" fill="white"/>
<path d="M39.845 137.516H49.6651V147.336H39.845V137.516Z" fill="white"/>
<path d="M49.6652 127.696H59.4853V137.516H49.6652V127.696ZM49.6652 147.336H59.4853V157.157H49.6652V147.336Z" fill="white"/>
<path d="M59.4854 157.156H69.3055V166.976H59.4854V157.156ZM206.787 117.876H177.327V127.696H187.147V137.516H196.967V127.696H206.787V117.876Z" fill="white"/>
<path d="M177.326 137.516H187.146V147.336H177.326V137.516Z" fill="white"/>
<path d="M167.507 127.696H177.327V137.516H167.507V127.696ZM167.507 147.336H177.327V157.157H167.507V147.336Z" fill="white"/>
<path d="M157.686 157.156H167.507V166.976H157.686V157.156Z" fill="white"/>
<path d="M128.226 157.156H138.046V147.336H147.866V137.516H157.686V117.876H147.866V108.055H138.046V98.2354H108.585V176.796H118.405V166.976H128.226V157.156ZM39.8447 186.616H49.6648V196.436H39.8447V186.616Z" fill="#FEE433"/>
<path d="M49.6645 196.436H59.4846V206.256H49.6645V196.436ZM177.326 186.616H187.146V196.436H177.326V186.616Z" fill="#FEE433"/>
<path d="M167.506 196.437H177.326V206.257H167.506V196.437ZM79.1248 176.796H59.4846V186.616H69.3047V196.437H79.1248V206.257H88.9449V186.616H79.1248V176.796ZM167.506 176.796H147.866V186.616H138.045V196.437H128.225V206.257H147.866V196.437H157.686V186.616H167.506V176.796Z" fill="#FEE433"/>
<path d="M128.226 98.2352H138.046V108.055H147.866V117.875H157.686V127.696H167.506V117.875H177.327V88.4151H167.506V78.5951H157.686V68.775H147.866V58.9549H128.226V49.1348H108.586V98.2352H128.226Z" fill="#FED223"/>
<path d="M108.586 166.976V98.2354H88.9457V108.055H79.1256V117.876H69.3055V137.516H79.1256V147.336H88.9457V157.156H98.7658V166.976H108.586ZM10.3849 196.436H20.205V206.256H10.3849V196.436ZM206.787 196.436H216.607V206.256H206.787V196.436ZM59.4854 176.796H69.3055V166.976H59.4854V157.156H39.8452V166.976H49.6653V176.796H59.4854ZM59.4854 186.616H69.3055V196.436H59.4854V186.616ZM79.1256 166.976H88.9457V176.796H79.1256V166.976Z" fill="#FED223"/>
<path d="M69.3056 196.436H79.1257V206.256H69.3056V196.436ZM88.9458 176.796H98.7659V186.616H88.9458V176.796ZM167.507 157.156V166.976H157.686V176.796H177.327V166.976H187.147V157.156H167.507ZM157.686 186.616H167.507V196.436H157.686V186.616Z" fill="#FED223"/>
<path d="M138.046 166.976H147.866V176.796H138.046V166.976ZM147.866 196.436H157.686V206.256H147.866V196.436Z" fill="#FED223"/>
<path d="M128.226 176.796H138.046V186.616H128.226V176.796Z" fill="#FED223"/>
<path d="M118.406 186.616H128.226V196.436H118.406V186.616Z" fill="#FED223"/>
<path d="M108.586 196.436H118.406V206.256H108.586V196.436Z" fill="#FED223"/>
<path d="M147.865 68.7753H157.685V78.5954H167.505V88.4155H177.326V49.1351H167.505V39.315H147.865V29.4949H128.225V19.6748H108.585V49.1351H128.225V58.9552H147.865V68.7753Z" fill="#FEC223"/>
<path d="M98.7649 58.9553H79.1247V68.7754H69.3046V78.5955H59.4845V88.4156H49.6644V117.876H59.4845V127.696H69.3046V117.876H79.1247V108.056H88.9448V98.2357H108.585V49.1353H98.7649V58.9553ZM20.2041 186.617H30.0242V196.437H20.2041V186.617Z" fill="#FEC223"/>
<path d="M30.0243 196.437H39.8444V206.257H30.0243V196.437ZM196.966 186.617H206.786V196.437H196.966V186.617Z" fill="#FEC223"/>
<path d="M187.146 196.437H196.966V206.257H187.146V196.437ZM49.6645 157.156V147.336H39.8444V137.516H30.0243V166.976H39.8444V157.156H49.6645Z" fill="#FEC223"/>
<path d="M39.8445 166.976H49.6646V176.796H39.8445V166.976Z" fill="#FEC223"/>
<path d="M49.6642 176.796H59.4843V186.616H49.6642V176.796ZM59.4843 147.336H69.3044V157.156H59.4843V147.336Z" fill="#FEC223"/>
<path d="M69.3046 157.156H79.1247V166.976H69.3046V157.156ZM88.9448 166.976H98.7649V176.796H88.9448V166.976Z" fill="#FEC223"/>
<path d="M98.7647 176.796H108.585V186.616H98.7647V176.796ZM177.325 166.976H187.146V176.796H177.325V166.976Z" fill="#FEC223"/>
<path d="M167.506 176.796H177.326V186.616H167.506V176.796ZM157.685 147.336H167.506V157.156H157.685V147.336Z" fill="#FEC223"/>
<path d="M147.865 157.156H157.686V166.976H147.865V157.156ZM128.225 166.976H138.045V176.796H128.225V166.976Z" fill="#FEC223"/>
<path d="M98.7647 196.437H108.585V206.257H98.7647V196.437ZM118.405 176.796H128.225V186.616H118.405V176.796Z" fill="#FEC223"/>
<path d="M108.585 186.617H118.405V196.437H108.585V186.617ZM196.966 157.156V137.516H187.146V147.336H177.326V157.156H187.146V166.976H196.966V157.156Z" fill="#FEC223"/>
<path d="M41.5928 226.093H39.8252V235.305H41.5928V237.092H49.0169V235.049H41.8482V226.349H49.0169V224.306H41.5928V226.093ZM57.6978 229.668H52.5717V224.306H50.5488V237.092H52.5717V231.73H57.6978V237.092H59.7208V224.306H57.6978V229.668Z" fill="black"/>
<path d="M68.6763 224.306H63.0397V226.093H61.2524V237.092H63.2753V231.73H68.4014V237.092H70.4244V226.093H68.6371V224.306H68.6763ZM63.2949 226.349H68.4211V229.688H63.2949V226.349Z" fill="black"/>
<path d="M79.3804 224.306H73.7437V226.093H71.9565V237.092H73.9794V231.73H79.1055V237.092H81.1285V226.093H79.3412V224.306H79.3804ZM73.999 226.349H79.1251V229.688H73.999V226.349Z" fill="black"/>
<path d="M93.4427 226.093H91.6359V227.9H89.8486V229.668H88.297V227.9H86.5294V226.093H84.7225V224.306H82.6996V237.092H84.7225V228.156H86.274V229.923H88.0417V231.73H90.1039V229.923H91.8912V228.156H93.4427V237.092H95.4657V224.306H93.4427V226.093ZM104.402 224.306H96.9976V237.072H99.0205V231.71H104.402V229.904H106.189V226.093H104.402V224.306ZM104.147 229.668H99.0205V226.329H104.147V229.668ZM107.702 226.349H109.489V235.049H107.702V237.092H113.319V235.049H111.531V226.349H113.319V224.306H107.702V226.349ZM122.255 224.306H116.618V226.093H114.831V235.305H116.618V237.092H122.255V235.305H124.042V226.093H122.255V224.306ZM122 235.049H116.874V226.329H122V235.049ZM132.723 231.475H131.172V229.668H129.384V227.9H127.597V224.306H125.554V237.092H127.597V229.923H129.149V231.73H130.916V233.498H132.723V237.092H134.746V224.306H132.723V231.475ZM145.214 226.093H143.447V229.923H145.214V231.73H150.596V235.049H143.447V237.092H150.851V235.305H152.638V231.475H150.851V229.668H145.47V226.349H152.638V224.306H145.214V226.093ZM154.151 226.349H161.319V227.9H159.512V229.668H157.745V231.475H155.938V233.262H154.151V237.092H163.342V235.049H156.193V233.498H158V231.73H159.768V229.923H161.575V228.156H163.342V224.306H154.151V226.349ZM172.043 231.475H170.491V229.668H168.704V227.9H166.897V224.306H164.874V237.092H166.897V229.923H168.449V231.73H170.236V233.498H172.043V237.092H174.066V224.306H172.043V231.475ZM182.747 224.306V226.349H184.534V237.092H186.596V224.306H182.747Z" fill="black"/>
</svg>
