<svg width="227" height="295" viewBox="0 0 227 295" fill="none" xmlns="http://www.w3.org/2000/svg">
<path d="M197.273 176.777V166.957H207.093V157.137H216.913V108.036H187.452V39.2955H177.632V29.4754H167.812V19.6553H148.172V9.83523H128.532V0.0151367H99.0716V9.83523H79.4314V19.6553H59.7912V29.4754H49.9711V39.2955H40.151V108.036H10.6907V157.137H20.5108V166.957H30.3309V176.777H0.870605V206.237H10.6907V216.057H20.5108V245.321H30.3309V255.141H40.151V284.602H49.9711V294.422H177.632V284.602H187.452V255.141H197.273V245.321H207.093V216.057H216.913V206.237H226.733V176.777H197.273Z" fill="black"/>
<path d="M59.7908 127.677H69.6109V137.497H79.431V147.317H89.2511V157.137H99.0712V166.957H108.891V176.777H118.711V166.957H128.531V157.137H138.352V147.317H148.172V137.497H157.992V127.677H167.812V117.857H177.632V39.2957H167.812V29.4756H148.172V19.6555H128.531V9.83545H99.0712V19.6555H79.431V29.4756H59.7908V39.2957H49.9707V117.857H59.7908V127.677ZM49.9707 186.597H10.6903V206.237H59.7908V196.417H49.9707V186.597Z" fill="#FEE433"/>
<path d="M207.092 186.597H177.632V196.417H167.812V206.237H216.912V186.597H207.092ZM108.891 186.597V176.777H99.0711V166.957H89.2511V157.137H79.431V147.317H69.6109V137.497H59.7908V127.677H49.9707V117.856H20.5104V157.137H30.3305V166.957H40.1506V176.777H49.9707V186.597H59.7908V196.417H69.6109V206.237H89.2511V196.417H99.0711V186.597H108.891Z" fill="#FEE433"/>
<path d="M177.632 186.597V176.777H187.452V166.957H197.272V157.137H207.093V117.856H177.632V127.677H167.812V137.497H157.992V147.317H148.172V157.137H138.352V166.957H128.532V176.777H118.712V186.597H108.892V196.417H99.0715V206.237H157.992V196.417H167.812V186.597H177.632Z" fill="#FEE433"/>
<path d="M99.0717 19.6555H79.4315V29.4756H99.0717V88.3962H108.892V9.83545H99.0717V19.6555ZM99.0717 127.677H108.892V137.497H99.0717V127.677Z" fill="white"/>
<path d="M59.7911 29.4756V39.2957H79.4313V29.4756H59.7911Z" fill="white"/>
<path d="M49.9711 39.2959H59.7912V49.116H49.9711V39.2959ZM10.6907 186.597H20.5108V196.417H10.6907V186.597ZM207.093 186.597H216.913V196.417H207.093V186.597ZM49.9711 127.677V117.857H20.5108V127.677H30.3309V137.497H40.151V127.677H49.9711Z" fill="white"/>
<path d="M40.1508 137.497H49.9709V147.317H40.1508V137.497Z" fill="white"/>
<path d="M49.9709 127.677H59.791V137.497H49.9709V127.677ZM49.9709 147.317H59.791V157.137H49.9709V147.317Z" fill="white"/>
<path d="M59.7911 157.137H69.6112V166.957H59.7911V157.137ZM207.093 117.856H177.632V127.677H187.452V137.497H197.272V127.677H207.093V117.856Z" fill="white"/>
<path d="M177.632 137.497H187.452V147.317H177.632V137.497Z" fill="white"/>
<path d="M167.812 127.677H177.632V137.497H167.812V127.677ZM167.812 147.317H177.632V157.137H167.812V147.317Z" fill="white"/>
<path d="M157.992 157.137H167.812V166.957H157.992V157.137Z" fill="white"/>
<path d="M128.532 157.137H138.352V147.317H148.172V137.496H157.992V127.676H167.812V88.396H157.992V98.2161H148.172V108.036H138.352V117.856H128.532V127.676H118.712V137.496H108.892V176.777H118.712V166.957H128.532V157.137ZM40.1509 186.597H49.971V196.417H40.1509V186.597Z" fill="#FEB423"/>
<path d="M49.9716 196.417H59.7917V206.237H49.9716V196.417ZM177.633 186.597H187.453V196.417H177.633V186.597Z" fill="#FEB423"/>
<path d="M167.812 196.417H177.632V206.237H167.812V196.417ZM79.4314 176.777H59.7913V186.597H69.6114V196.417H79.4314V206.237H89.2515V186.597H79.4314V176.777ZM167.812 176.777H148.172V186.597H138.352V196.417H128.532V206.237H148.172V196.417H157.992V186.597H167.812V176.777Z" fill="#FEB423"/>
<path d="M167.812 108.036V117.856H177.632V88.396H167.812V108.036Z" fill="#FEC223"/>
<path d="M118.712 127.676H128.532V117.856H138.352V108.036H148.172V98.216H157.992V88.3959H167.812V39.2954H157.992V49.1155H148.172V58.9356H138.352V68.7557H128.532V78.5758H118.712V88.3959H108.892V137.496H118.712V127.676Z" fill="#FEC223"/>
<path d="M108.892 166.956V137.496H99.0715V127.676H89.2514V117.856H79.4313V108.036H69.6112V98.2158H59.7912V127.676H69.6112V137.496H79.4313V147.316H89.2514V157.136H99.0715V166.956H108.892ZM10.6907 196.417H20.5108V206.237H10.6907V196.417ZM207.093 196.417H216.913V206.237H207.093V196.417ZM59.7912 176.777H69.6112V166.956H59.7912V157.136H40.151V166.956H49.9711V176.777H59.7912ZM59.7912 186.597H69.6112V196.417H59.7912V186.597ZM79.4313 166.956H89.2514V176.777H79.4313V166.956Z" fill="#FEC223"/>
<path d="M69.6113 196.417H79.4314V206.237H69.6113V196.417ZM89.2515 176.777H99.0716V186.597H89.2515V176.777ZM167.812 157.137V166.957H157.992V176.777H177.632V166.957H187.452V157.137H167.812ZM157.992 186.597H167.812V196.417H157.992V186.597Z" fill="#FEC223"/>
<path d="M138.352 166.957H148.172V176.777H138.352V166.957ZM148.172 196.417H157.992V206.237H148.172V196.417Z" fill="#FEC223"/>
<path d="M128.532 176.777H138.352V186.597H128.532V176.777Z" fill="#FEC223"/>
<path d="M118.712 186.597H128.532V196.417H118.712V186.597Z" fill="#FEC223"/>
<path d="M108.892 196.417H118.712V206.237H108.892V196.417Z" fill="#FEC223"/>
<path d="M177.632 78.5758V49.1156H167.812V88.3959H177.632V78.5758ZM148.171 49.1156H157.992V39.2955H148.171V29.4754H128.531V19.6553H108.891V88.3959H118.711V78.5758H128.531V68.7558H138.351V58.9357H148.171V49.1156Z" fill="#FED223"/>
<path d="M99.0709 78.576H89.2508V68.7559H79.4307V58.9358H69.6106V49.1157H59.7905V98.2162H69.6106V108.036H79.4307V117.856H89.2508V127.676H108.891V88.3961H99.0709V78.576Z" fill="#FED223"/>
<path d="M49.9705 108.036V117.856H59.7906V98.2158H49.9705V108.036ZM20.5103 186.597H30.3303V196.417H20.5103V186.597Z" fill="#FED223"/>
<path d="M30.3304 196.417H40.1505V206.237H30.3304V196.417ZM197.272 186.597H207.092V196.417H197.272V186.597Z" fill="#FED223"/>
<path d="M187.452 196.417H197.272V206.237H187.452V196.417ZM49.9706 157.137V147.317H40.1505V137.497H30.3304V166.957H40.1505V157.137H49.9706Z" fill="#FED223"/>
<path d="M40.1506 166.957H49.9707V176.777H40.1506V166.957Z" fill="#FED223"/>
<path d="M49.9703 176.777H59.7904V186.597H49.9703V176.777ZM59.7904 147.316H69.6105V157.137H59.7904V147.316Z" fill="#FED223"/>
<path d="M69.6107 157.137H79.4308V166.957H69.6107V157.137ZM89.2509 166.957H99.071V176.777H89.2509V166.957Z" fill="#FED223"/>
<path d="M99.0709 176.777H108.891V186.597H99.0709V176.777ZM177.632 166.957H187.452V176.777H177.632V166.957Z" fill="#FED223"/>
<path d="M167.812 176.777H177.632V186.597H167.812V176.777ZM157.992 147.316H167.812V157.137H157.992V147.316Z" fill="#FED223"/>
<path d="M148.172 157.137H157.992V166.957H148.172V157.137ZM128.531 166.957H138.352V176.777H128.531V166.957Z" fill="#FED223"/>
<path d="M99.0709 196.417H108.891V206.237H99.0709V196.417ZM118.711 176.777H128.531V186.597H118.711V176.777Z" fill="#FED223"/>
<path d="M108.891 186.597H118.711V196.417H108.891V186.597ZM197.272 157.137V137.497H187.452V147.317H177.632V157.137H187.452V166.957H197.272V157.137Z" fill="#FED223"/>
<path d="M49.9711 255.161V284.621H177.632V255.161H49.9711Z" fill="#FF00FF"/>
<path d="M30.3307 215.88V245.341H197.272V215.88H30.3307Z" fill="#FED223"/>
<path d="M81.3363 265.629H79.4311V267.534H77.5456V269.42H75.9352V263.744H73.7551V277.295H75.9352V271.619H77.5456V273.505H79.4311V275.41H81.3363V277.295H83.5163V275.115H81.6309V273.21H79.7257V271.325H77.8402V269.714H79.7257V267.829H81.6309V265.924H83.5163V263.744H81.3363V265.629Z" fill="white"/>
<path d="M86.4233 265.924H88.3088V275.115H86.4233V277.295H92.3939V275.115H90.5085V265.924H92.3939V263.744H86.4233V265.924Z" fill="white"/>
<path d="M102.901 271.325H101.271V269.42H99.4054V267.534H97.4806V263.744H95.3202V277.295H97.4806V269.714H99.1108V271.619H100.977V273.505H102.901V277.295H105.062V263.744H102.901V271.325Z" fill="white"/>
<path d="M109.874 265.629H107.988V269.714H109.874V271.619H115.569V275.115H107.988V277.295H115.864V275.41H117.749V271.325H115.864V269.42H110.168V265.924H117.749V263.744H109.874V265.629Z" fill="white"/>
<path d="M128.237 269.42H122.836V263.744H120.656V277.295H122.836V271.619H128.237V277.295H130.417V263.744H128.237V269.42Z" fill="white"/>
<path d="M133.324 265.924H135.209V275.115H133.324V277.295H139.294V275.115H137.409V265.924H139.294V263.744H133.324V265.924Z" fill="white"/>
<path d="M150.097 265.629V263.744H142.221V277.295H144.401V271.619H150.097V269.714H151.982V265.629H150.097ZM149.802 269.42H144.401V265.924H149.802V269.42Z" fill="white"/>
<path d="M41.8985 226.074H40.1309V235.285H41.8985V237.072H49.3225V235.03H42.1539V226.329H49.3225V224.287H41.8985V226.074ZM58.0034 229.648H52.8774V224.287H50.8348V237.072H52.8774V231.711H58.0034V237.072H60.0264V224.287H58.0034V229.648Z" fill="black"/>
<path d="M68.963 224.287H63.3459V226.074H61.5586V237.072H63.5816V231.711H68.7076V237.072H70.7306V226.074H68.9433V224.287H68.963ZM63.5816 226.329H68.7076V229.668H63.5816V226.329Z" fill="black"/>
<path d="M79.6866 224.287H74.0498V226.074H72.2626V237.072H74.2856V231.711H79.4116V237.072H81.4346V226.074H79.6473V224.287H79.6866ZM74.3051 226.329H79.4312V229.668H74.3051V226.329Z" fill="black"/>
<path d="M93.7294 226.074H91.9422V227.881H90.1549V229.648H88.6033V227.881H86.816V226.074H85.0288V224.287H82.9862V237.072H85.0288V228.136H86.5803V229.904H88.3479V231.711H90.4102V229.904H92.1778V228.136H93.7294V237.072H95.772V224.287H93.7294V226.074ZM104.708 224.287H97.3039V237.053H99.3269V231.691H104.708V229.884H106.496V226.074H104.708V224.287ZM104.453 229.648H99.3269V226.31H104.453V229.648ZM108.008 226.329H109.795V235.03H108.008V237.072H113.625V235.03H111.838V226.329H113.625V224.287H108.008V226.329ZM122.561 224.287H116.924V226.074H115.137V235.285H116.924V237.072H122.561V235.285H124.348V226.074H122.561V224.287ZM122.306 235.03H117.18V226.31H122.306V235.03ZM133.029 231.455H131.478V229.648H129.691V227.881H127.884V224.287H125.861V237.072H127.884V229.904H129.435V231.711H131.223V233.478H133.029V237.072H135.052V224.287H133.029V231.455Z" fill="black"/>
<path d="M145.52 226.074H143.733V229.904H145.52V231.711H150.901V235.03H143.733V237.072H151.157V235.285H152.924V231.455H151.157V229.648H145.775V226.329H152.924V224.287H145.52V226.074Z" fill="black"/>
<path d="M154.457 226.329H161.625V227.881H159.819V229.648H158.031V231.455H156.244V233.243H154.457V237.072H163.648V235.03H156.48V233.478H158.287V231.711H160.074V229.904H161.881V228.136H163.648V224.287H154.457V226.329ZM172.349 231.455H170.778V229.648H169.01V227.881H167.203V224.287H165.18V237.072H167.203V229.904H168.755V231.711H170.542V233.478H172.349V237.072H174.372V224.287H172.349V231.455ZM183.053 224.287V226.329H184.84V237.072H186.883V224.287H183.053Z" fill="black"/>
</svg>
