<svg xmlns="http://www.w3.org/2000/svg" viewBox="0 0 38 13"  xmlns:v="https://vecta.io/nano"><path d="M30 5V4h-2V3h-2V2h-4v1h-2v1h-2v1h-2V4h-2V3h-2V2H8v1H6v1H4v1H0v4h4v1h2v1h2v1h4v-1h2v-1h2V9h2v1h2v1h2v1h4v-1h2v-1h2V9h4V5h-4zm-4 3v1h-1v1h-2V9h-1V8h-1V6h1V5h1V4h2v1h1v1h1v2h-1zM12 8v1h-1v1H9V9H8V8H7V6h1V5h1V4h2v1h1v1h1v2h-1z" fill="#a73796"/><g fill="#7d0064"><path d="M26,2v1h2V2H26z"/><path d="M28 3v1h2V3h-2zm-6-2v1h4V1h-4z"/><path d="M20 2v1h2V2h-2zm-8 0v1h2V2h-2z"/><path d="M8,1v1h4V1H8z"/><path d="M6,2v1h2V2H6z"/><path d="M4,3v1h2V3H4z"/><path d="M0 4v1h4V4H0zm16 0v1h2V4h-2z"/><path d="M14 3v1h2V3h-2zm4 0v1h2V3h-2zM8 12v1h4v-1H8z"/><path d="M6,11v1h2v-1H6z"/><path d="M4,10v1h2v-1H4z"/><path d="M0 9v1h4V9H0zm12 2v1h2v-1h-2zm8 0v1h2v-1h-2z"/><path d="M22,12v1h4v-1H22z"/><path d="M26,11v1h2v-1H26z"/><path d="M28,10v1h2v-1H28z"/><path d="M30 9v1h4V9h-4zm-16 1v1h2v-1h-2z"/><path d="M16,9v1h2V9H16z"/><path d="M18 10v1h2v-1h-2zm18-2h2V6h-2v2z"/><path d="M36 0v2h-2v2h-4v1h4v1h2V4h2V0h-2zM25 8V6h-2v2h2zM11 8V6H9v2h2z"/></g><path d="M26 6V5h-1V4h-2v1h-1v1h-1v2h1v1h1v1h2V9h1V8h1V6h-1zm-3 2V6h2v2h-2zM12 5h-1V4H9v1H8v1H7v2h1v1h1v1h2V9h1V8h1V6h-1V5zm-1 3H9V6h2v2z" fill="#fff"/></svg>