<svg width="227" height="295" viewBox="0 0 227 295" fill="none" xmlns="http://www.w3.org/2000/svg">
<path d="M216.198 176.762H196.558V166.942H206.378V157.122H216.198V108.021H186.738V39.2804H176.918V29.4603H167.098V19.6402H147.458V9.8201H127.817V0H98.3572V9.8201H78.717V19.6402H59.0768V29.4603H49.2567V39.2804H39.4366V108.021H9.97635V157.122H19.7964V166.942H29.6165V176.762H0.15625V206.222H9.97635V216.042H19.7964V245.326H29.6165V255.146H39.4366V284.606H49.2567V294.426H176.918V284.606H186.738V255.146H196.558V245.326H206.378V216.042H216.198V206.222H226.018V176.762H216.198Z" fill="black"/>
<path d="M49.2568 255.146V284.606H176.918V255.146H49.2568Z" fill="#22DFF0"/>
<path d="M29.6165 215.865V245.326H196.558V215.865H29.6165Z" fill="#FED223"/>
<path d="M108.512 267.519H106.606V269.405H105.016V267.519H103.091V263.729H100.93V267.814H102.796V269.699H104.721V271.31H102.796V273.195H100.93V277.28H103.091V273.49H105.016V271.604H106.606V273.49H108.512V277.28H110.692V273.195H108.806V271.31H106.881V269.699H108.806V267.814H110.692V263.729H108.512V267.519Z" fill="black"/>
<path d="M121.474 265.614V263.729H113.598V277.28H115.778V271.604H121.474V269.699H123.36V265.614H121.474ZM121.179 269.405H115.778V265.909H121.179V269.405Z" fill="black"/>
<path d="M59.0775 127.661H68.8976V137.482H78.7177V147.302H88.5378V157.122H98.3579V166.942H108.178V176.762H117.998V166.942H127.818V157.122H137.638V147.302H147.458V137.482H157.278V127.661H167.099V117.841H176.919V39.2806H167.099V29.4605H147.458V19.6404H127.818V9.82031H98.3579V19.6404H78.7177V29.4605H59.0775V39.2806H49.2574V117.841H59.0775V127.661ZM49.2574 186.582H9.97705V206.222H59.0775V196.402H49.2574V186.582Z" fill="#FEE433"/>
<path d="M206.379 186.582H176.919V196.402H167.099V206.222H216.199V186.582H206.379ZM108.178 186.582V176.762H98.3579V166.942H88.5378V157.122H78.7177V147.302H68.8976V137.481H59.0775V127.661H49.2574V117.841H19.7971V157.122H29.6172V166.942H39.4373V176.762H49.2574V186.582H59.0775V196.402H68.8976V206.222H88.5378V196.402H98.3579V186.582H108.178Z" fill="#FEE433"/>
<path d="M176.919 186.582V176.762H186.739V166.942H196.559V157.122H206.379V117.841H176.919V127.661H167.099V137.481H157.278V147.302H147.458V157.122H137.638V166.942H127.818V176.762H117.998V186.582H108.178V196.402H98.3579V206.222H157.278V196.402H167.099V186.582H176.919Z" fill="#FEE433"/>
<path d="M108.178 58.9208V9.82031H98.3577V19.6404H78.7175V29.4605H98.3577V127.661H108.178V78.561H117.998V68.7409H108.178V58.9208ZM98.3577 137.482H108.178V147.302H98.3577V137.482Z" fill="white"/>
<path d="M59.0771 29.4604V39.2805H78.7173V29.4604H59.0771Z" fill="white"/>
<path d="M49.2569 49.1009V68.741H59.077V39.2808H49.2569V49.1009ZM9.97656 186.582H19.7967V196.402H9.97656V186.582ZM206.378 186.582H216.199V196.402H206.378V186.582ZM49.2569 127.662V117.842H19.7967V127.662H29.6168V137.482H39.4368V127.662H49.2569Z" fill="white"/>
<path d="M39.4368 137.481H49.2569V147.302H39.4368V137.481Z" fill="white"/>
<path d="M49.2573 127.662H59.0774V137.482H49.2573V127.662ZM49.2573 147.302H59.0774V157.122H49.2573V147.302Z" fill="white"/>
<path d="M59.0771 157.122H68.8972V166.942H59.0771V157.122ZM206.379 117.841H176.918V127.661H186.738V137.482H196.558V127.661H206.379V117.841Z" fill="white"/>
<path d="M176.918 137.481H186.739V147.302H176.918V137.481Z" fill="white"/>
<path d="M167.098 127.662H176.918V137.482H167.098V127.662ZM167.098 147.302H176.918V157.122H167.098V147.302Z" fill="white"/>
<path d="M157.278 157.122H167.098V166.942H157.278V157.122Z" fill="white"/>
<path d="M127.818 157.122H137.638V147.302H147.458V137.482H157.278V98.2012H147.458V108.021H137.638V117.841H127.818V127.661H117.998V137.482H108.178V176.762H117.998V166.942H127.818V157.122ZM39.437 186.582H49.2571V196.402H39.437V186.582Z" fill="#FEB423"/>
<path d="M49.2563 196.402H59.0764V206.222H49.2563V196.402ZM176.918 186.582H186.738V196.402H176.918V186.582Z" fill="#FEB423"/>
<path d="M167.098 196.402H176.918V206.222H167.098V196.402ZM78.7171 176.762H59.0769V186.582H68.897V196.402H78.7171V206.222H88.5372V186.582H78.7171V176.762ZM167.098 176.762H147.458V186.582H137.638V196.402H127.818V206.222H147.458V196.402H157.278V186.582H167.098V176.762Z" fill="#FEB423"/>
<path d="M127.817 98.201H137.638V108.021H147.458V98.201H157.278V127.661H167.098V68.7407H147.458V78.5608H117.997V88.3809H127.817V98.201Z" fill="#FEC223"/>
<path d="M117.998 127.661H127.818V117.841H137.638V108.021H127.818V98.201H117.998V88.3809H108.178V137.481H117.998V127.661ZM88.5373 117.841H78.7172V108.021H68.8971V98.201H59.077V127.661H68.8971V137.481H78.7172V147.301H88.5373V157.122H98.3574V127.661H88.5373V117.841ZM9.97656 196.402H19.7967V206.222H9.97656V196.402ZM206.378 196.402H216.199V206.222H206.378V196.402ZM59.077 176.762H68.8971V166.942H59.077V157.122H39.4368V166.942H49.2569V176.762H59.077ZM59.077 186.582H68.8971V196.402H59.077V186.582Z" fill="#FEC223"/>
<path d="M78.7168 166.942H88.5369V176.762H78.7168V166.942ZM68.8967 196.402H78.7168V206.222H68.8967V196.402Z" fill="#FEC223"/>
<path d="M88.5371 176.762H98.3572V186.582H88.5371V176.762ZM167.098 157.122V166.942H157.278V176.762H176.918V166.942H186.738V157.122H167.098ZM157.278 186.582H167.098V196.402H157.278V186.582ZM137.638 166.942H147.458V176.762H137.638V166.942Z" fill="#FEC223"/>
<path d="M147.458 196.402H157.278V206.222H147.458V196.402ZM127.818 176.762H137.638V186.582H127.818V176.762Z" fill="#FEC223"/>
<path d="M117.997 186.582H127.817V196.402H117.997V186.582Z" fill="#FEC223"/>
<path d="M108.177 196.402H117.998V206.222H108.177V196.402Z" fill="#FEC223"/>
<path d="M167.098 88.3809V117.841H176.918V68.7407H167.098V88.3809Z" fill="#FED223"/>
<path d="M137.638 78.5607H147.458V68.7406H167.098V39.2803H147.458V29.4602H127.818V19.6401H108.178V68.7406H117.998V78.5607H137.638ZM127.818 98.2009H137.638V108.021H127.818V98.2009Z" fill="#FED223"/>
<path d="M117.997 88.3809H127.817V98.201H117.997V88.3809Z" fill="#FED223"/>
<path d="M108.177 78.5605H117.997V88.3806H108.177V78.5605ZM88.5372 117.841V127.661H98.3573V98.2007H88.5372V88.3806H78.7171V98.2007H68.897V108.021H78.7171V117.841H88.5372Z" fill="#FED223"/>
<path d="M78.7173 88.3809V78.5608H68.8972V68.7407H59.0771V98.201H68.8972V88.3809H78.7173Z" fill="#FED223"/>
<path d="M49.2567 108.021V117.841H59.0768V98.2007H49.2567V108.021ZM19.7964 186.582H29.6165V196.402H19.7964V186.582Z" fill="#FED223"/>
<path d="M29.6162 196.402H39.4363V206.222H29.6162V196.402ZM196.558 186.582H206.378V196.402H196.558V186.582Z" fill="#FED223"/>
<path d="M186.738 196.402L196.558 206.222H186.738V196.402ZM49.2564 157.122V147.302H39.4363V137.481H29.6162V166.942H39.4363V157.122H49.2564Z" fill="#FED223"/>
<path d="M39.4368 166.941H49.2569V176.762H39.4368V166.941Z" fill="#FED223"/>
<path d="M49.2566 176.762H59.0767V186.582H49.2566V176.762ZM59.0767 147.301H68.8968V157.121H59.0767V147.301Z" fill="#FED223"/>
<path d="M68.897 157.122H78.7171V166.942H68.897V157.122ZM88.5372 166.942H98.3573V176.762H88.5372V166.942Z" fill="#FED223"/>
<path d="M98.3569 176.762H108.177V186.582H98.3569V176.762ZM176.918 166.941H186.738V176.762H176.918V166.941Z" fill="#FED223"/>
<path d="M167.098 176.762H176.918V186.582H167.098V176.762ZM157.278 147.301H167.098V157.121H157.278V147.301Z" fill="#FED223"/>
<path d="M147.457 157.122H157.277V166.942H147.457V157.122ZM127.817 166.942H137.637V176.762H127.817V166.942Z" fill="#FED223"/>
<path d="M98.3569 196.402H108.177V206.222H98.3569V196.402ZM117.997 176.762H127.817V186.582H117.997V176.762Z" fill="#FED223"/>
<path d="M108.178 186.582H117.998V196.402H108.178V186.582ZM196.559 157.122V137.481H186.738V147.302H176.918V157.122H186.738V166.942H196.559V157.122Z" fill="#FED223"/>
<path d="M41.1852 226.059H39.3979V235.27H41.1852V237.057H48.5896V235.015H41.4209V226.314H48.5896V224.271H41.1852V226.059ZM57.2705 229.633H52.1445V224.271H50.1215V237.057H52.1445V231.695H57.2705V237.057H59.3132V224.271H57.2705V229.633Z" fill="black"/>
<path d="M68.2488 224.271H62.612V226.059H60.8247V237.057H62.8477V231.695H67.9737V237.057H69.9967V226.059H68.2094V224.271H68.2488ZM62.8673 226.314H67.9934V229.653H62.8673V226.314Z" fill="black"/>
<path d="M78.9723 224.271H73.3356V226.059H71.5483V237.057H73.5712V231.695H78.6974V237.057H80.7203V226.059H78.9331V224.271H78.9723ZM73.5712 226.314H78.6974V229.653H73.5712V226.314Z" fill="black"/>
<path d="M93.0161 226.059H91.2092V227.866H89.422V229.633H87.8704V227.866H86.1028V226.059H84.2959V224.271H82.2729V237.057H84.2959V228.121H85.8474V229.889H87.6347V231.695H89.6772V229.889H91.4645V228.121H93.0161V237.057H95.0391V224.271H93.0161V226.059Z" fill="black"/>
<path d="M103.974 224.271H96.5701V237.038H98.5931V231.676H103.974V229.869H105.762V226.039H103.974V224.271ZM103.739 229.633H98.6126V226.294H103.739V229.633Z" fill="black"/>
<path d="M107.294 226.314H109.061V235.015H107.294V237.057H112.891V235.015H111.124V226.314H112.891V224.271H107.294V226.314Z" fill="black"/>
<path d="M121.828 224.271H116.191V226.059H114.404V235.27H116.191V237.057H121.828V235.27H123.615V226.059H121.828V224.271ZM121.592 235.015H116.466V226.294H121.592V235.015Z" fill="black"/>
<path d="M132.296 231.44H130.744V229.633H128.977V227.866H127.17V224.271H125.147V237.057H127.17V229.889H128.721V231.695H130.489V233.463H132.296V237.057H134.338V224.271H132.296V231.44Z" fill="black"/>
<path d="M144.787 226.059H143.019V229.889H144.787V231.695H150.188V235.015H143.019V237.057H150.424V235.27H152.211V231.44H150.424V229.633H145.042V226.314H152.211V224.271H144.787V226.059Z" fill="black"/>
<path d="M153.743 226.314H160.892V227.866H159.085V229.633H157.317V231.44H155.511V233.227H153.743V237.057H162.934V235.015H155.766V233.463H157.573V231.695H159.34V229.889H161.147V228.121H162.934V224.271H153.743V226.314ZM171.615 231.44H170.064V229.633H168.277V227.866H166.489V224.271H164.447V237.057H166.489V229.889H168.041V231.695H169.809V233.463H171.615V237.057H173.638V224.271H171.615V231.44ZM182.339 224.271V226.314H184.107V237.057H186.169V224.271H182.339Z" fill="black"/>
</svg>
