<svg width="227" height="295" viewBox="0 0 227 295" fill="none" xmlns="http://www.w3.org/2000/svg">
<path d="M196.563 176.796V166.976H206.383V157.156H216.203V108.056H186.743V39.315H176.922V29.495H167.102V19.6749H147.462V9.85476H127.822V0.034668H98.3617V9.85476H78.7215V19.6749H59.0813V29.495H49.2612V39.315H39.4411V108.056H9.98086V157.156H19.801V166.976H29.6211V176.796H0.160767V206.257H9.98086V216.077H19.801V245.341H29.6211V255.161H39.4411V284.621H49.2612V294.441H176.922V284.621H186.743V255.161H196.563V245.341H206.383V216.077H216.203V206.257H226.023V176.796H196.563Z" fill="black"/>
<path d="M49.2614 255.18V284.64H176.923V255.18H49.2614Z" fill="#C300FF"/>
<path d="M29.621 215.9V245.36H196.563V215.9H29.621Z" fill="#F7F5F5"/>
<path d="M85.3599 263.764H77.4843V277.315H79.6642V271.639H85.0653V277.315H87.2454V271.345H85.3599V269.734H87.2454V265.649H85.3599V263.764ZM85.0653 269.44H79.6642V265.944H85.0653V269.44Z" fill="white"/>
<path d="M98.0282 263.763H92.0379V265.649H90.1525V277.315H92.3325V271.639H97.7336V277.315H99.9136V265.649H98.0282V263.763ZM92.3325 265.943H97.7336V269.439H92.3325V265.943Z" fill="white"/>
<path d="M110.696 263.763H102.82V277.315H105V271.639H110.401V277.315H112.581V271.344H110.696V269.734H112.581V265.649H110.696V263.763ZM110.401 269.439H105V265.943H110.401V269.439Z" fill="white"/>
<path d="M115.488 265.943H117.374V275.135H115.488V277.315H121.459V275.135H119.573V265.943H121.459V263.763H115.488V265.943ZM124.385 265.943H128.176V277.315H130.336V265.943H134.127V263.763H124.385V265.943Z" fill="white"/>
<path d="M144.634 263.763V269.439H142.729V271.344H141.138V269.439H139.233V263.763H137.053V269.734H138.938V271.639H140.843V277.315H143.023V271.639H144.929V269.734H146.814V263.763H144.634Z" fill="white"/>
<path d="M59.0816 127.696H68.9017V137.516H78.7217V147.336H88.5418V157.156H98.3619V166.976H108.182V176.796H118.002V166.976H127.822V157.156H137.642V147.336H147.462V137.516H157.283V127.696H167.103V117.876H176.923V39.3148H167.103V29.4947H147.462V19.6746H127.822V9.85449H98.3619V19.6746H78.7217V29.4947H59.0816V39.3148H49.2615V117.876H59.0816V127.696ZM49.2615 186.616H9.98108V206.256H59.0816V196.436H49.2615V186.616Z" fill="#C0C0C0"/>
<path d="M206.384 186.616H176.923V196.436H167.103V206.256H216.204V186.616H206.384ZM108.183 186.616V176.796H98.3625V166.976H88.5424V157.156H78.7223V147.336H68.9022V137.516H59.0821V127.696H49.262V117.875H19.8017V157.156H29.6218V166.976H39.4419V176.796H49.262V186.616H59.0821V196.436H68.9022V206.256H88.5424V196.436H98.3625V186.616H108.183Z" fill="#C0C0C0"/>
<path d="M176.923 186.616V176.796H186.743V166.976H196.563V157.156H206.383V117.875H176.923V127.696H167.103V137.516H157.283V147.336H147.463V157.156H137.643V166.976H127.823V176.796H118.002V186.616H108.182V196.436H98.3623V206.256H157.283V196.436H167.103V186.616H176.923Z" fill="#C0C0C0"/>
<path d="M98.3619 9.85498H108.182V19.6751H98.3619V9.85498ZM59.0815 29.4952V39.3153H78.7217V29.4952H59.0815Z" fill="white"/>
<path d="M78.7217 19.6753V29.4954H98.3619V19.6753H78.7217ZM49.2615 39.3155H59.0816V49.1356H49.2615V39.3155ZM9.98108 186.617H19.8012V196.437H9.98108V186.617ZM206.383 186.617H216.203V196.437H206.383V186.617ZM49.2615 127.696V117.876H19.8012V127.696H29.6213V137.516H39.4414V127.696H49.2615Z" fill="white"/>
<path d="M39.4412 137.516H49.2613V147.336H39.4412V137.516Z" fill="white"/>
<path d="M49.2614 127.696H59.0814V137.516H49.2614V127.696ZM49.2614 147.336H59.0814V157.157H49.2614V147.336Z" fill="white"/>
<path d="M59.0815 157.156H68.9016V166.976H59.0815V157.156ZM206.383 117.876H176.923V127.696H186.743V137.516H196.563V127.696H206.383V117.876Z" fill="white"/>
<path d="M176.922 137.516H186.743V147.336H176.922V137.516Z" fill="white"/>
<path d="M167.103 127.696H176.923V137.516H167.103V127.696ZM167.103 147.336H176.923V157.157H167.103V147.336Z" fill="white"/>
<path d="M157.283 157.156H167.103V166.976H157.283V157.156Z" fill="white"/>
<path d="M127.822 157.156H137.642V147.336H147.462V137.516H157.282V117.876H147.462V108.055H137.642V98.2354H108.182V176.796H118.002V166.976H127.822V157.156ZM39.4412 186.616H49.2613V196.436H39.4412V186.616Z" fill="#F7F5F5"/>
<path d="M49.261 196.436H59.0811V206.256H49.261V196.436ZM176.922 186.616H186.742V196.436H176.922V186.616Z" fill="#F7F5F5"/>
<path d="M167.102 196.437H176.922V206.257H167.102V196.437ZM78.7214 176.796H59.0812V186.616H68.9013V196.437H78.7214V206.257H88.5415V186.616H78.7214V176.796ZM167.102 176.796H147.462V186.616H137.642V196.437H127.822V206.257H147.462V196.437H157.282V186.616H167.102V176.796Z" fill="#F7F5F5"/>
<path d="M127.822 98.2352H137.642V108.055H147.462V117.875H157.283V127.696H167.103V117.875H176.923V88.4151H167.103V78.5951H157.283V68.775H147.462V58.9549H127.822V49.1348H108.182V98.2352H127.822Z" fill="#EEE9E9"/>
<path d="M108.182 166.976V98.2354H88.5418V108.055H78.7217V117.876H68.9017V137.516H78.7217V147.336H88.5418V157.156H98.3619V166.976H108.182ZM9.98108 196.436H19.8012V206.256H9.98108V196.436ZM206.383 196.436H216.203V206.256H206.383V196.436ZM59.0816 176.796H68.9017V166.976H59.0816V157.156H39.4414V166.976H49.2615V176.796H59.0816ZM59.0816 186.616H68.9017V196.436H59.0816V186.616ZM78.7217 166.976H88.5418V176.796H78.7217V166.976Z" fill="#EEE9E9"/>
<path d="M68.9017 196.436H78.7218V206.256H68.9017V196.436ZM88.5419 176.796H98.362V186.616H88.5419V176.796ZM167.103 157.156V166.976H157.283V176.796H176.923V166.976H186.743V157.156H167.103ZM157.283 186.616H167.103V196.436H157.283V186.616Z" fill="#EEE9E9"/>
<path d="M137.642 166.976H147.462V176.796H137.642V166.976ZM147.462 196.436H157.282V206.256H147.462V196.436Z" fill="#EEE9E9"/>
<path d="M127.822 176.796H137.642V186.616H127.822V176.796Z" fill="#EEE9E9"/>
<path d="M118.002 186.616H127.822V196.436H118.002V186.616Z" fill="#EEE9E9"/>
<path d="M108.182 196.436H118.002V206.256H108.182V196.436Z" fill="#EEE9E9"/>
<path d="M147.462 68.7753H157.282V78.5954H167.102V88.4155H176.922V49.1351H167.102V39.315H147.462V29.4949H127.822V19.6748H108.181V49.1351H127.822V58.9552H147.462V68.7753Z" fill="#DAD6D6"/>
<path d="M98.3614 58.9553H78.7212V68.7754H68.9011V78.5955H59.081V88.4156H49.2609V117.876H59.081V127.696H68.9011V117.876H78.7212V108.056H88.5413V98.2357H108.182V49.1353H98.3614V58.9553ZM19.8007 186.617H29.6208V196.437H19.8007V186.617Z" fill="#DAD6D6"/>
<path d="M29.6208 196.437H39.4409V206.257H29.6208V196.437ZM196.562 186.617H206.383V196.437H196.562V186.617Z" fill="#DAD6D6"/>
<path d="M186.742 196.437H196.562V206.257H186.742V196.437ZM49.261 157.156V147.336H39.4409V137.516H29.6208V166.976H39.4409V157.156H49.261Z" fill="#DAD6D6"/>
<path d="M39.441 166.976H49.2611V176.796H39.441V166.976Z" fill="#DAD6D6"/>
<path d="M49.2608 176.796H59.0809V186.616H49.2608V176.796ZM59.0809 147.336H68.901V157.156H59.0809V147.336Z" fill="#DAD6D6"/>
<path d="M68.9012 157.156H78.7213V166.976H68.9012V157.156ZM88.5414 166.976H98.3615V176.796H88.5414V166.976Z" fill="#DAD6D6"/>
<path d="M98.3613 176.796H108.181V186.616H98.3613V176.796ZM176.922 166.976H186.742V176.796H176.922V166.976Z" fill="#DAD6D6"/>
<path d="M167.102 176.796H176.922V186.616H167.102V176.796ZM157.282 147.336H167.102V157.156H157.282V147.336Z" fill="#DAD6D6"/>
<path d="M147.462 157.156H157.282V166.976H147.462V157.156ZM127.822 166.976H137.642V176.796H127.822V166.976Z" fill="#DAD6D6"/>
<path d="M98.3613 196.437H108.181V206.257H98.3613V196.437ZM118.001 176.796H127.822V186.616H118.001V176.796Z" fill="#DAD6D6"/>
<path d="M108.181 186.617H118.002V196.437H108.181V186.617ZM196.562 157.156V137.516H186.742V147.336H176.922V157.156H186.742V166.976H196.562V157.156Z" fill="#DAD6D6"/>
<path d="M72.2597 223.265H63.5395V225.642H71.9651V229.57H65.6214V231.691H63.5395V238.29H74.3416V235.894H65.916V231.985H72.2597V229.864H74.3416V225.347H72.2597V223.265ZM84.8688 227.468H76.1485V238.29H78.525V229.864H84.5742V238.29H86.9506V229.57H84.8688V227.468Z" fill="black"/>
<path d="M97.1834 227.468H90.8593V229.55H88.7774V236.188H90.8593V238.27H99.5795V223.245H97.203V227.468H97.1834ZM91.1342 229.864H97.1834V235.913H91.1342V229.864Z" fill="black"/>
<path d="M111.874 225.347H109.792V229.864H111.874V231.985H118.218V235.894H109.792V238.29H118.512V236.188H120.594V231.691H118.512V229.57H112.169V225.642H120.594V223.265H111.874V225.347ZM122.401 225.642H130.827V227.468H128.706V229.57H126.604V231.691H124.483V233.773H122.401V238.29H133.203V235.894H124.778V234.067H126.899V231.985H129V229.864H131.121V227.763H133.203V223.265H122.401V225.642ZM143.436 231.691H141.609V229.57H139.508V227.468H137.387V223.265H135.01V238.29H137.387V229.864H139.213V231.985H141.315V234.067H143.436V238.29H145.812V223.265H143.436V231.691ZM156.045 223.265V225.642H158.127V238.29H160.542V223.265H156.045Z" fill="black"/>
</svg>
