<svg width="227" height="295" viewBox="0 0 227 295" fill="none" xmlns="http://www.w3.org/2000/svg">
<path d="M196.939 176.777V166.957H206.759V157.137H216.579V108.036H187.118V39.2955H177.298V29.4754H167.478V19.6553H147.838V9.83523H128.198V0.0151367H98.7376V9.83523H79.0974V19.6553H59.4572V29.4754H49.6371V39.2955H39.817V108.036H10.3567V157.137H20.1768V166.957H29.9969V176.777H0.536621V206.237H10.3567V216.057H20.1768V245.321H29.9969V255.141H39.817V284.602H49.6371V294.422H177.298V284.602H187.118V255.141H196.939V245.321H206.759V216.057H216.579V206.237H226.399V176.777H196.939Z" fill="black"/>
<path d="M59.4573 127.677H69.2774V137.497H79.0975V147.317H88.9176V157.137H98.7377V166.957H108.558V176.777H118.378V166.957H128.198V157.137H138.018V147.317H147.838V137.497H157.658V127.677H167.478V117.857H177.298V39.2957H167.478V29.4756H147.838V19.6555H128.198V9.83545H98.7377V19.6555H79.0975V29.4756H59.4573V39.2957H49.6372V117.857H59.4573V127.677ZM49.6372 186.597H10.3568V206.237H59.4573V196.417H49.6372V186.597Z" fill="#EEE9E9"/>
<path d="M206.758 186.597H177.298V196.417H167.478V206.237H216.578V186.597H206.758ZM108.557 186.597V176.777H98.7372V166.957H88.9171V157.137H79.097V147.317H69.2769V137.497H59.4568V127.677H49.6367V117.856H20.1764V157.137H29.9965V166.957H39.8166V176.777H49.6367V186.597H59.4568V196.417H69.2769V206.237H88.9171V196.417H98.7372V186.597H108.557Z" fill="#EEE9E9"/>
<path d="M177.298 186.597V176.777H187.118V166.957H196.938V157.137H206.758V117.856H177.298V127.677H167.478V137.497H157.658V147.317H147.838V157.137H138.017V166.957H128.197V176.777H118.377V186.597H108.557V196.417H98.7371V206.237H157.658V196.417H167.478V186.597H177.298Z" fill="#EEE9E9"/>
<path d="M98.7372 19.6555H79.097V29.4756H98.7372V88.3962H108.557V9.83545H98.7372V19.6555ZM98.7372 127.677H108.557V137.497H98.7372V127.677Z" fill="white"/>
<path d="M59.4567 29.4756V39.2957H79.0969V29.4756H59.4567Z" fill="white"/>
<path d="M49.6366 39.2959H59.4567V49.116H49.6366V39.2959ZM10.3562 186.597H20.1763V196.417H10.3562V186.597ZM206.758 186.597H216.578V196.417H206.758V186.597ZM49.6366 127.677V117.857H20.1763V127.677H29.9964V137.497H39.8165V127.677H49.6366Z" fill="white"/>
<path d="M39.8163 137.497H49.6364V147.317H39.8163V137.497Z" fill="white"/>
<path d="M49.6365 127.677H59.4566V137.497H49.6365V127.677ZM49.6365 147.317H59.4566V157.137H49.6365V147.317Z" fill="white"/>
<path d="M59.4567 157.137H69.2768V166.957H59.4567V157.137ZM206.758 117.856H177.298V127.677H187.118V137.497H196.938V127.677H206.758V117.856Z" fill="white"/>
<path d="M177.298 137.497H187.118V147.317H177.298V137.497Z" fill="white"/>
<path d="M167.478 127.677H177.298V137.497H167.478V127.677ZM167.478 147.317H177.298V157.137H167.478V147.317Z" fill="white"/>
<path d="M157.658 157.137H167.478V166.957H157.658V157.137Z" fill="white"/>
<path d="M128.198 157.137H138.018V147.317H147.838V137.496H157.658V127.676H167.478V88.396H157.658V98.2161H147.838V108.036H138.018V117.856H128.198V127.676H118.378V137.496H108.558V176.777H118.378V166.957H128.198V157.137ZM39.8169 186.597H49.637V196.417H39.8169V186.597Z" fill="#C0C0C0"/>
<path d="M49.6366 196.417H59.4567V206.237H49.6366V196.417ZM177.298 186.597H187.118V196.417H177.298V186.597Z" fill="#C0C0C0"/>
<path d="M167.478 196.417H177.298V206.237H167.478V196.417ZM79.097 176.777H59.4568V186.597H69.2769V196.417H79.097V206.237H88.9171V186.597H79.097V176.777ZM167.478 176.777H147.838V186.597H138.018V196.417H128.197V206.237H147.838V196.417H157.658V186.597H167.478V176.777Z" fill="#C0C0C0"/>
<path d="M167.478 108.036V117.856H177.298V88.396H167.478V108.036Z" fill="#DAD6D6"/>
<path d="M118.377 127.676H128.197V117.856H138.018V108.036H147.838V98.216H157.658V88.3959H167.478V39.2954H157.658V49.1155H147.838V58.9356H138.018V68.7557H128.197V78.5758H118.377V88.3959H108.557V137.496H118.377V127.676Z" fill="#DAD6D6"/>
<path d="M108.557 166.956V137.496H98.7371V127.676H88.917V117.856H79.0969V108.036H69.2768V98.2158H59.4567V127.676H69.2768V137.496H79.0969V147.316H88.917V157.136H98.7371V166.956H108.557ZM10.3562 196.417H20.1763V206.237H10.3562V196.417ZM206.758 196.417H216.578V206.237H206.758V196.417ZM59.4567 176.777H69.2768V166.956H59.4567V157.136H39.8165V166.956H49.6366V176.777H59.4567ZM59.4567 186.597H69.2768V196.417H59.4567V186.597ZM79.0969 166.956H88.917V176.777H79.0969V166.956Z" fill="#DAD6D6"/>
<path d="M69.2769 196.417H79.097V206.237H69.2769V196.417ZM88.917 176.777H98.7371V186.597H88.917V176.777ZM167.478 157.137V166.957H157.658V176.777H177.298V166.957H187.118V157.137H167.478ZM157.658 186.597H167.478V196.417H157.658V186.597Z" fill="#DAD6D6"/>
<path d="M138.017 166.957H147.837V176.777H138.017V166.957ZM147.837 196.417H157.658V206.237H147.837V196.417Z" fill="#DAD6D6"/>
<path d="M128.197 176.777H138.017V186.597H128.197V176.777Z" fill="#DAD6D6"/>
<path d="M118.377 186.597H128.198V196.417H118.377V186.597Z" fill="#DAD6D6"/>
<path d="M108.557 196.417H118.377V206.237H108.557V196.417Z" fill="#DAD6D6"/>
<path d="M177.299 78.5758V49.1156H167.479V88.3959H177.299V78.5758ZM147.838 49.1156H157.659V39.2955H147.838V29.4754H128.198V19.6553H108.558V88.3959H118.378V78.5758H128.198V68.7558H138.018V58.9357H147.838V49.1156Z" fill="#F7F5F5"/>
<path d="M98.7379 78.576H88.9178V68.7559H79.0977V58.9358H69.2776V49.1157H59.4575V98.2162H69.2776V108.036H79.0977V117.856H88.9178V127.676H108.558V88.3961H98.7379V78.576Z" fill="#F7F5F5"/>
<path d="M49.6375 108.036V117.856H59.4576V98.2158H49.6375V108.036ZM20.1772 186.597H29.9973V196.417H20.1772V186.597Z" fill="#F7F5F5"/>
<path d="M29.9974 196.417H39.8175V206.237H29.9974V196.417ZM196.939 186.597H206.759V196.417H196.939V186.597Z" fill="#F7F5F5"/>
<path d="M187.119 196.417H196.939V206.237H187.119V196.417ZM49.6376 157.137V147.317H39.8175V137.497H29.9974V166.957H39.8175V157.137H49.6376Z" fill="#F7F5F5"/>
<path d="M39.8176 166.957H49.6377V176.777H39.8176V166.957Z" fill="#F7F5F5"/>
<path d="M49.6373 176.777H59.4574V186.597H49.6373V176.777ZM59.4574 147.316H69.2775V157.137H59.4574V147.316Z" fill="#F7F5F5"/>
<path d="M69.2777 157.137H79.0978V166.957H69.2777V157.137ZM88.9179 166.957H98.738V176.777H88.9179V166.957Z" fill="#F7F5F5"/>
<path d="M98.7379 176.777H108.558V186.597H98.7379V176.777ZM177.299 166.957H187.119V176.777H177.299V166.957Z" fill="#F7F5F5"/>
<path d="M167.479 176.777H177.299V186.597H167.479V176.777ZM157.659 147.316H167.479V157.137H157.659V147.316Z" fill="#F7F5F5"/>
<path d="M147.839 157.137H157.659V166.957H147.839V157.137ZM128.198 166.957H138.019V176.777H128.198V166.957Z" fill="#F7F5F5"/>
<path d="M98.7379 196.417H108.558V206.237H98.7379V196.417ZM118.378 176.777H128.198V186.597H118.378V176.777Z" fill="#F7F5F5"/>
<path d="M108.558 186.597H118.378V196.417H108.558V186.597ZM196.939 157.137V137.497H187.119V147.317H177.299V157.137H187.119V166.957H196.939V157.137Z" fill="#F7F5F5"/>
<path d="M49.6371 255.161V284.621H177.298V255.161H49.6371Z" fill="#FF00FF"/>
<path d="M29.9972 215.88V245.341H196.939V215.88H29.9972Z" fill="#F7F5F5"/>
<path d="M81.0028 265.629H79.0977V267.534H77.2122V269.42H75.6017V263.744H73.4216V277.295H75.6017V271.619H77.2122V273.505H79.0977V275.41H81.0028V277.295H83.1828V275.115H81.2974V273.21H79.3923V271.325H77.5068V269.714H79.3923V267.829H81.2974V265.924H83.1828V263.744H81.0028V265.629Z" fill="white"/>
<path d="M86.0894 265.924H87.9748V275.115H86.0894V277.295H92.06V275.115H90.1745V265.924H92.06V263.744H86.0894V265.924Z" fill="white"/>
<path d="M102.568 271.325H100.938V269.42H99.0717V267.534H97.147V263.744H94.9866V277.295H97.147V269.714H98.7771V271.619H100.643V273.505H102.568V277.295H104.748V263.744H102.568V271.325Z" fill="white"/>
<path d="M109.54 265.629H107.655V269.714H109.54V271.619H115.236V275.115H107.655V277.295H115.53V275.41H117.416V271.325H115.53V269.42H109.835V265.924H117.416V263.744H109.54V265.629Z" fill="white"/>
<path d="M127.904 269.42H122.503V263.744H120.323V277.295H122.503V271.619H127.904V277.295H130.084V263.744H127.904V269.42Z" fill="white"/>
<path d="M132.991 265.924H134.876V275.115H132.991V277.295H138.961V275.115H137.095V265.924H138.961V263.744H132.991V265.924Z" fill="white"/>
<path d="M149.763 265.629V263.744H141.887V277.295H144.067V271.619H149.763V269.714H151.648V265.629H149.763ZM149.468 269.42H144.067V265.924H149.468V269.42Z" fill="white"/>
<path d="M72.6359 223.246H63.9156V225.622H72.3413V229.55H66.0171V231.671H63.9156V238.27H74.7374V235.874H66.3117V231.966H72.6359V229.845H74.7374V225.328H72.6359V223.246ZM85.2449 227.449H76.5246V238.27H78.9207V229.845H84.9503V238.27H87.3464V229.55H85.2449V227.449ZM97.5593 227.449H91.2351V229.531H89.1533V236.169H91.2351V238.251H99.9554V223.226H97.5593V227.449ZM91.5297 235.874V229.825H97.5789V235.874H91.5297ZM112.27 225.328H110.168V229.845H112.27V231.966H118.594V235.874H110.168V238.27H118.889V236.169H120.99V231.671H118.889V229.55H112.564V225.622H120.99V223.246H112.27V225.328ZM122.777 225.622H131.203V227.449H129.082V229.55H127V231.671H124.879V233.753H122.777V238.27H133.599V235.874H125.173V234.048H127.295V231.966H129.376V229.845H131.498V227.743H133.599V223.246H122.777V225.622ZM143.812 231.671H141.985V229.55H139.904V227.449H137.782V223.246H135.386V238.27H137.782V229.845H139.609V231.966H141.691V234.048H143.812V238.27H146.208V223.246H143.812V231.671Z" fill="black"/>
<path d="M156.421 223.246V225.622H158.522V238.27H160.938V223.246H156.421Z" fill="black"/>
</svg>
