<svg width="227" height="295" viewBox="0 0 227 295" fill="none" xmlns="http://www.w3.org/2000/svg">
<path d="M216.774 176.762H197.134V166.942H206.954V157.122H216.774V108.021H187.314V39.2804H177.494V29.4603H167.674V19.6402H148.033V9.8201H128.393V0H98.9329V9.8201H79.2927V19.6402H59.6525V29.4603H49.8324V39.2804H40.0123V108.021H10.552V157.122H20.3721V166.942H30.1922V176.762H0.731934V206.222H10.552V216.042H20.3721V245.326H30.1922V255.146H40.0123V284.606H49.8324V294.426H177.494V284.606H187.314V255.146H197.134V245.326H206.954V216.042H216.774V206.222H226.594V176.762H216.774Z" fill="black"/>
<path d="M49.833 255.146V284.606H177.494V255.146H49.833Z" fill="#22DFF0"/>
<path d="M30.1926 215.865V245.326H197.134V215.865H30.1926Z" fill="#F7F5F5"/>
<path d="M109.088 267.519H107.183V269.405H105.592V267.519H103.687V263.729H101.507V267.814H103.392V269.699H105.297V271.31H103.392V273.195H101.507V277.28H103.687V273.49H105.592V271.604H107.183V273.49H109.088V277.28H111.268V273.195H109.382V271.31H107.477V269.699H109.382V267.814H111.268V263.729H109.088V267.519Z" fill="black"/>
<path d="M122.05 265.614V263.729H114.175V277.28H116.355V271.604H122.05V269.699H123.936V265.614H122.05ZM121.756 269.405H116.355V265.909H121.756V269.405Z" fill="black"/>
<path d="M59.6527 127.661H69.4728V137.482H79.2929V147.302H89.113V157.122H98.9331V166.942H108.753V176.762H118.573V166.942H128.393V157.122H138.213V147.302H148.034V137.482H157.854V127.661H167.674V117.841H177.494V39.2806H167.674V29.4605H148.034V19.6404H128.393V9.82031H98.9331V19.6404H79.2929V29.4605H59.6527V39.2806H49.8326V117.841H59.6527V127.661ZM49.8326 186.582H10.5522V206.222H59.6527V196.402H49.8326V186.582Z" fill="#EEE9E9"/>
<path d="M206.955 186.582H177.495V196.402H167.674V206.222H216.775V186.582H206.955ZM108.754 186.582V176.762H98.9338V166.942H89.1137V157.122H79.2936V147.302H69.4735V137.481H59.6534V127.661H49.8333V117.841H20.373V157.122H30.1931V166.942H40.0132V176.762H49.8333V186.582H59.6534V196.402H69.4735V206.222H89.1137V196.402H98.9338V186.582H108.754Z" fill="#EEE9E9"/>
<path d="M177.494 186.582V176.762H187.314V166.942H197.135V157.122H206.955V117.841H177.494V127.661H167.674V137.481H157.854V147.302H148.034V157.122H138.214V166.942H128.394V176.762H118.574V186.582H108.754V196.402H98.9336V206.222H157.854V196.402H167.674V186.582H177.494Z" fill="#EEE9E9"/>
<path d="M108.754 58.9208V9.82031H98.9334V19.6404H79.2932V29.4605H98.9334V127.661H108.754V78.561H118.574V68.7409H108.754V58.9208ZM98.9334 137.482H108.754V147.302H98.9334V137.482Z" fill="white"/>
<path d="M59.6528 29.4604V39.2805H79.293V29.4604H59.6528Z" fill="white"/>
<path d="M49.8326 49.1009V68.741H59.6527V39.2808H49.8326V49.1009ZM10.5522 186.582H20.3723V196.402H10.5522V186.582ZM206.954 186.582H216.774V196.402H206.954V186.582ZM49.8326 127.662V117.842H20.3723V127.662H30.1924V137.482H40.0125V127.662H49.8326Z" fill="white"/>
<path d="M40.0125 137.481H49.8325V147.302H40.0125V137.481Z" fill="white"/>
<path d="M49.833 127.662H59.6531V137.482H49.833V127.662ZM49.833 147.302H59.6531V157.122H49.833V147.302Z" fill="white"/>
<path d="M59.6528 157.122H69.4729V166.942H59.6528V157.122ZM206.954 117.841H177.494V127.661H187.314V137.482H197.134V127.661H206.954V117.841Z" fill="white"/>
<path d="M177.494 137.481H187.314V147.302H177.494V137.481Z" fill="white"/>
<path d="M167.674 127.662H177.494V137.482H167.674V127.662ZM167.674 147.302H177.494V157.122H167.674V147.302Z" fill="white"/>
<path d="M157.854 157.122H167.674V166.942H157.854V157.122Z" fill="white"/>
<path d="M128.393 157.122H138.213V147.302H148.034V137.482H157.854V98.2012H148.034V108.021H138.213V117.841H128.393V127.661H118.573V137.482H108.753V176.762H118.573V166.942H128.393V157.122ZM40.0125 186.582H49.8325V196.402H40.0125V186.582Z" fill="#C0C0C0"/>
<path d="M49.8333 196.402H59.6533V206.222H49.8333V196.402ZM177.494 186.582H187.315V196.402H177.494V186.582Z" fill="#C0C0C0"/>
<path d="M167.674 196.402H177.494V206.222H167.674V196.402ZM79.2933 176.762H59.6531V186.582H69.4732V196.402H79.2933V206.222H89.1134V186.582H79.2933V176.762ZM167.674 176.762H148.034V186.582H138.214V196.402H128.394V206.222H148.034V196.402H157.854V186.582H167.674V176.762Z" fill="#C0C0C0"/>
<path d="M128.393 98.201H138.213V108.021H148.033V98.201H157.853V127.661H167.673V68.7407H148.033V78.5608H118.573V88.3809H128.393V98.201Z" fill="#DAD6D6"/>
<path d="M118.573 127.661H128.393V117.841H138.213V108.021H128.393V98.201H118.573V88.3809H108.753V137.481H118.573V127.661ZM89.113 117.841H79.2929V108.021H69.4728V98.201H59.6527V127.661H69.4728V137.481H79.2929V147.301H89.113V157.122H98.9331V127.661H89.113V117.841ZM10.5522 196.402H20.3723V206.222H10.5522V196.402ZM206.954 196.402H216.774V206.222H206.954V196.402ZM59.6527 176.762H69.4728V166.942H59.6527V157.122H40.0125V166.942H49.8326V176.762H59.6527ZM59.6527 186.582H69.4728V196.402H59.6527V186.582Z" fill="#DAD6D6"/>
<path d="M79.2928 166.942H89.1128V176.762H79.2928V166.942ZM69.4727 196.402H79.2928V206.222H69.4727V196.402Z" fill="#DAD6D6"/>
<path d="M89.113 176.762H98.9331V186.582H89.113V176.762ZM167.674 157.122V166.942H157.854V176.762H177.494V166.942H187.314V157.122H167.674ZM157.854 186.582H167.674V196.402H157.854V186.582ZM138.214 166.942H148.034V176.762H138.214V166.942Z" fill="#DAD6D6"/>
<path d="M148.034 196.402H157.854V206.222H148.034V196.402ZM128.394 176.762H138.214V186.582H128.394V176.762Z" fill="#DAD6D6"/>
<path d="M118.573 186.582H128.393V196.402H118.573V186.582Z" fill="#DAD6D6"/>
<path d="M108.753 196.402H118.574V206.222H108.753V196.402Z" fill="#DAD6D6"/>
<path d="M167.674 88.3809V117.841H177.494V68.7407H167.674V88.3809Z" fill="#F7F5F5"/>
<path d="M138.214 78.5607H148.034V68.7406H167.674V39.2803H148.034V29.4602H128.394V19.6401H108.754V68.7406H118.574V78.5607H138.214ZM128.394 98.2009H138.214V108.021H128.394V98.2009Z" fill="#F7F5F5"/>
<path d="M118.573 88.3809H128.394V98.201H118.573V88.3809Z" fill="#F7F5F5"/>
<path d="M108.754 78.5605H118.574V88.3806H108.754V78.5605ZM89.1133 117.841V127.661H98.9334V98.2007H89.1133V88.3806H79.2932V98.2007H69.4731V108.021H79.2932V117.841H89.1133Z" fill="#F7F5F5"/>
<path d="M79.2935 88.3809V78.5608H69.4734V68.7407H59.6533V98.201H69.4734V88.3809H79.2935Z" fill="#F7F5F5"/>
<path d="M49.8328 108.021V117.841H59.6529V98.2007H49.8328V108.021ZM20.3726 186.582H30.1927V196.402H20.3726V186.582Z" fill="#F7F5F5"/>
<path d="M30.1924 196.402H40.0125V206.222H30.1924V196.402ZM197.134 186.582H206.954V196.402H197.134V186.582Z" fill="#F7F5F5"/>
<path d="M187.314 196.402L197.134 206.222H187.314V196.402ZM49.8326 157.122V147.302H40.0125V137.481H30.1924V166.942H40.0125V157.122H49.8326Z" fill="#F7F5F5"/>
<path d="M40.0129 166.941H49.833V176.762H40.0129V166.941Z" fill="#F7F5F5"/>
<path d="M49.8328 176.762H59.6529V186.582H49.8328V176.762ZM59.6529 147.301H69.473V157.121H59.6529V147.301Z" fill="#F7F5F5"/>
<path d="M69.4731 157.122H79.2932V166.942H69.4731V157.122ZM89.1133 166.942H98.9334V176.762H89.1133V166.942Z" fill="#F7F5F5"/>
<path d="M98.9331 176.762H108.753V186.582H98.9331V176.762ZM177.494 166.941H187.314V176.762H177.494V166.941Z" fill="#F7F5F5"/>
<path d="M167.674 176.762H177.494V186.582H167.674V176.762ZM157.854 147.301H167.674V157.121H157.854V147.301Z" fill="#F7F5F5"/>
<path d="M148.034 157.122H157.854V166.942H148.034V157.122ZM128.393 166.942H138.213V176.762H128.393V166.942Z" fill="#F7F5F5"/>
<path d="M98.9331 196.402H108.753V206.222H98.9331V196.402ZM118.573 176.762H128.393V186.582H118.573V176.762Z" fill="#F7F5F5"/>
<path d="M108.754 186.582H118.574V196.402H108.754V186.582ZM197.135 157.122V137.481H187.315V147.302H177.495V157.122H187.315V166.942H197.135V157.122Z" fill="#F7F5F5"/>
<path d="M72.8311 223.23H64.1108V225.607H72.5365V229.535H66.1927V231.656H64.1108V238.255H74.9129V235.859H66.4873V231.951H72.8311V229.83H74.9129V225.312H72.8311V223.23Z" fill="black"/>
<path d="M85.4414 227.434H76.7212V238.255H79.0977V229.83H85.1468V238.255H87.5233V229.535H85.4414V227.434Z" fill="black"/>
<path d="M97.7552 227.434H91.431V229.515H89.3491V236.154H91.431V238.236H100.151V223.211H97.7747V227.434H97.7552ZM91.7059 235.859V229.81H97.7552V235.859H91.7059Z" fill="black"/>
<path d="M112.446 225.312H110.364V229.83H112.446V231.951H118.79V235.859H110.364V238.255H119.084V236.154H121.166V231.656H119.084V229.535H112.74V225.607H121.166V223.23H112.446V225.312ZM122.973 225.607H131.399V227.433H129.278V229.535H127.176V231.656H125.055V233.738H122.973V238.255H133.775V235.859H125.35V234.033H127.471V231.951H129.572V229.83H131.693V227.728H133.775V223.23H122.973V225.607Z" fill="black"/>
<path d="M144.008 231.656H142.181V229.535H140.079V227.433H137.958V223.23H135.582V238.255H137.958V229.83H139.785V231.951H141.886V234.033H144.008V238.255H146.384V223.23H144.008V231.656Z" fill="black"/>
<path d="M156.616 223.23V225.607H158.698V238.255H161.114V223.23H156.616Z" fill="black"/>
</svg>
