<svg width="227" height="295" viewBox="0 0 227 295" fill="none" xmlns="http://www.w3.org/2000/svg">
<path d="M197.383 176.796V166.976H207.203V157.156H217.023V108.056H187.563V39.315H177.743V29.495H167.923V19.6749H148.283V9.85476H128.642V0.034668H99.182V9.85476H79.5418V19.6749H59.9017V29.495H50.0816V39.315H40.2615V108.056H10.8012V157.156H20.6213V166.976H30.4414V176.796H0.981079V206.257H10.8012V216.077H20.6213V245.341H30.4414V255.161H40.2615V284.621H50.0816V294.441H177.743V284.621H187.563V255.161H197.383V245.341H207.203V216.077H217.023V206.257H226.843V176.796H197.383Z" fill="black"/>
<path d="M50.0813 255.18V284.64H177.743V255.18H50.0813Z" fill="#C300FF"/>
<path d="M30.4414 215.9V245.36H197.383V215.9H30.4414Z" fill="#E1924C"/>
<path d="M75.1812 223.265H66.4609V225.642H74.8866V229.57H66.4609V231.985H74.8866V235.894H66.4609V238.29H75.1812V236.188H77.263V231.691H75.1812V229.864H77.263V225.347H75.1812V223.265Z" fill="black"/>
<path d="M81.1523 229.569H79.0704V238.29H81.4469V229.864H85.6695V227.468H81.1523V229.569Z" fill="black"/>
<path d="M95.8822 227.468H89.5581V229.55H87.4762V236.188H89.5581V238.27H98.2783V223.245H95.8822V227.468ZM89.8527 229.864H95.9018V235.913H89.8527V229.864Z" fill="black"/>
<path d="M110.592 225.347H108.491V229.864H110.592V231.985H116.917V235.894H108.491V238.29H117.211V236.188H119.313V231.691H117.211V229.57H110.887V225.642H119.313V223.265H110.592V225.347ZM121.1 225.642H129.526V227.468H127.404V229.57H125.323V231.691H123.201V233.773H121.1V238.29H131.922V235.894H123.496V234.067H125.617V231.985H127.699V229.864H129.82V227.763H131.922V223.265H121.1V225.642ZM142.135 231.691H140.308V229.57H138.226V227.468H136.105V223.265H133.709V238.29H136.105V229.864H137.932V231.985H140.013V234.067H142.135V238.29H144.531V223.265H142.135V231.691ZM154.744 223.265V225.642H156.845V238.29H159.261V223.265H154.744Z" fill="black"/>
<path d="M86.1799 263.764H78.3042V277.315H80.4843V271.639H85.8853V277.315H88.0654V271.345H86.1799V269.734H88.0654V265.649H86.1799V263.764ZM85.8853 269.44H80.4646V265.944H85.8657V269.44H85.8853Z" fill="white"/>
<path d="M98.8478 263.763H92.8575V265.649H90.972V277.315H93.1521V271.639H98.5532V277.315H100.733V265.649H98.8478V263.763ZM93.1521 265.943H98.5532V269.439H93.1521V265.943Z" fill="white"/>
<path d="M111.516 263.763H103.64V277.315H105.82V271.639H111.221V277.315H113.401V271.344H111.516V269.734H113.401V265.649H111.516V263.763ZM111.221 269.439H105.82V265.943H111.221V269.439Z" fill="white"/>
<path d="M116.308 265.943H118.194V275.135H116.308V277.315H122.279V275.135H120.393V265.943H122.279V263.763H116.308V265.943Z" fill="white"/>
<path d="M125.205 265.943H128.995V277.315H131.156V265.943H134.966V263.763H125.205V265.943Z" fill="white"/>
<path d="M145.454 263.763V269.439H143.549V271.344H141.958V269.439H140.053V263.763H137.873V269.734H139.758V271.639H141.663V277.315H143.844V271.639H145.749V269.734H147.634V263.763H145.454Z" fill="white"/>
<path d="M59.9015 127.696H69.7216V137.516H79.5417V147.336H89.3618V157.156H99.1819V166.976H109.002V176.796H118.822V166.976H128.642V157.156H138.462V147.336H148.282V137.516H158.102V127.696H167.923V117.876H177.743V39.3148H167.923V29.4947H148.282V19.6746H128.642V9.85449H99.1819V19.6746H79.5417V29.4947H59.9015V39.3148H50.0814V117.876H59.9015V127.696ZM50.0814 186.616H10.801V206.256H59.9015V196.436H50.0814V186.616Z" fill="#C86300"/>
<path d="M207.203 186.616H177.743V196.436H167.923V206.256H217.023V186.616H207.203ZM109.002 186.616V176.796H99.1821V166.976H89.362V157.156H79.5419V147.336H69.7218V137.516H59.9017V127.696H50.0816V117.875H20.6213V157.156H30.4414V166.976H40.2615V176.796H50.0816V186.616H59.9017V196.436H69.7218V206.256H89.362V196.436H99.1821V186.616H109.002Z" fill="#C86300"/>
<path d="M177.743 186.616V176.796H187.563V166.976H197.383V157.156H207.203V117.875H177.743V127.696H167.923V137.516H158.102V147.336H148.282V157.156H138.462V166.976H128.642V176.796H118.822V186.616H109.002V196.436H99.1819V206.256H158.102V196.436H167.923V186.616H177.743Z" fill="#C86300"/>
<path d="M99.182 9.85449H109.002V19.6746H99.182V9.85449ZM59.9016 29.4947V39.3148H79.5418V29.4947H59.9016Z" fill="white"/>
<path d="M79.5418 19.6748V29.4949H99.182V19.6748H79.5418ZM50.0815 39.315H59.9016V49.1351H50.0815V39.315ZM10.8011 186.616H20.6212V196.437H10.8011V186.616ZM207.203 186.616H217.023V196.437H207.203V186.616ZM50.0815 127.696V117.876H20.6212V127.696H30.4413V137.516H40.2614V127.696H50.0815Z" fill="white"/>
<path d="M40.2617 137.516H50.0818V147.336H40.2617V137.516Z" fill="white"/>
<path d="M50.0814 127.696H59.9015V137.516H50.0814V127.696ZM50.0814 147.336H59.9015V157.156H50.0814V147.336Z" fill="white"/>
<path d="M59.9016 157.156H69.7217V166.976H59.9016V157.156ZM207.203 117.875H177.743V127.696H187.563V137.516H197.383V127.696H207.203V117.875Z" fill="white"/>
<path d="M177.743 137.516H187.563V147.336H177.743V137.516Z" fill="white"/>
<path d="M167.923 127.696H177.743V137.516H167.923V127.696ZM167.923 147.336H177.743V157.156H167.923V147.336Z" fill="white"/>
<path d="M158.103 157.156H167.923V166.976H158.103V157.156Z" fill="white"/>
<path d="M128.642 157.156H138.463V147.336H148.283V137.516H158.103V117.876H148.283V108.055H138.463V98.2354H109.002V176.796H118.822V166.976H128.642V157.156ZM40.2616 186.616H50.0817V196.436H40.2616V186.616Z" fill="#E1924C"/>
<path d="M50.082 196.436H59.9021V206.256H50.082V196.436ZM177.743 186.616H187.563V196.436H177.743V186.616Z" fill="#E1924C"/>
<path d="M167.923 196.437H177.743V206.257H167.923V196.437ZM79.5424 176.796H59.9022V186.616H69.7223V196.437H79.5424V206.257H89.3625V186.616H79.5424V176.796ZM167.923 176.796H148.283V186.616H138.463V196.437H128.643V206.257H148.283V196.437H158.103V186.616H167.923V176.796Z" fill="#E1924C"/>
<path d="M128.642 98.2352H138.462V108.055H148.282V117.875H158.103V127.696H167.923V117.875H177.743V88.4151H167.923V78.5951H158.103V68.775H148.282V58.9549H128.642V49.1348H109.002V98.2352H128.642Z" fill="#DD8334"/>
<path d="M109.002 166.976V98.2354H89.3619V108.055H79.5418V117.876H69.7217V137.516H79.5418V147.336H89.3619V157.156H99.182V166.976H109.002ZM10.8011 196.436H20.6212V206.256H10.8011V196.436ZM207.203 196.436H217.023V206.256H207.203V196.436ZM59.9016 176.796H69.7217V166.976H59.9016V157.156H40.2614V166.976H50.0815V176.796H59.9016ZM59.9016 186.616H69.7217V196.436H59.9016V186.616ZM79.5418 166.976H89.3619V176.796H79.5418V166.976Z" fill="#DD8334"/>
<path d="M69.7218 196.436H79.5419V206.256H69.7218V196.436ZM89.362 176.796H99.1821V186.616H89.362V176.796ZM167.923 157.156V166.976H158.103V176.796H177.743V166.976H187.563V157.156H167.923ZM158.103 186.616H167.923V196.436H158.103V186.616Z" fill="#DD8334"/>
<path d="M138.462 166.976H148.282V176.796H138.462V166.976ZM148.282 196.436H158.102V206.256H148.282V196.436Z" fill="#DD8334"/>
<path d="M128.642 176.796H138.462V186.616H128.642V176.796Z" fill="#DD8334"/>
<path d="M118.822 186.616H128.642V196.436H118.822V186.616Z" fill="#DD8334"/>
<path d="M109.002 196.436H118.822V206.256H109.002V196.436Z" fill="#DD8334"/>
<path d="M148.283 68.7753H158.103V78.5954H167.923V88.4155H177.743V49.1351H167.923V39.315H148.283V29.4949H128.643V19.6748H109.002V49.1351H128.643V58.9552H148.283V68.7753Z" fill="#D86F13"/>
<path d="M99.1822 58.9553H79.542V68.7754H69.7219V78.5955H59.9018V88.4156H50.0817V117.876H59.9018V127.696H69.7219V117.876H79.542V108.056H89.3621V98.2357H109.002V49.1353H99.1822V58.9553ZM20.6215 186.617H30.4416V196.437H20.6215V186.617Z" fill="#D86F13"/>
<path d="M30.4417 196.437H40.2617V206.257H30.4417V196.437ZM197.383 186.617H207.203V196.437H197.383V186.617Z" fill="#D86F13"/>
<path d="M187.563 196.437H197.383V206.257H187.563V196.437ZM50.0818 157.156V147.336H40.2617V137.516H30.4417V166.976H40.2617V157.156H50.0818Z" fill="#D86F13"/>
<path d="M40.2618 166.976H50.0819V176.796H40.2618V166.976Z" fill="#D86F13"/>
<path d="M50.0817 176.796H59.9018V186.616H50.0817V176.796ZM59.9018 147.336H69.7219V157.156H59.9018V147.336Z" fill="#D86F13"/>
<path d="M69.722 157.156H79.5421V166.976H69.722V157.156ZM89.3622 166.976H99.1823V176.796H89.3622V166.976Z" fill="#D86F13"/>
<path d="M99.1821 176.796H109.002V186.616H99.1821V176.796ZM177.743 166.976H187.563V176.796H177.743V166.976Z" fill="#D86F13"/>
<path d="M167.923 176.796H177.743V186.616H167.923V176.796ZM158.103 147.336H167.923V157.156H158.103V147.336Z" fill="#D86F13"/>
<path d="M148.283 157.156H158.103V166.976H148.283V157.156ZM128.643 166.976H138.463V176.796H128.643V166.976Z" fill="#D86F13"/>
<path d="M99.1821 196.437H109.002V206.257H99.1821V196.437ZM118.822 176.796H128.642V186.616H118.822V176.796Z" fill="#D86F13"/>
<path d="M109.002 186.617H118.822V196.437H109.002V186.617ZM197.383 157.156V137.516H187.563V147.336H177.743V157.156H187.563V166.976H197.383V157.156Z" fill="#D86F13"/>
</svg>
