<svg width="227" height="295" viewBox="0 0 227 295" fill="none" xmlns="http://www.w3.org/2000/svg">
<path d="M196.669 176.777V166.957H206.489V157.137H216.309V108.036H186.849V39.2955H177.029V29.4754H167.209V19.6553H147.569V9.83523H127.929V0.0151367H98.4683V9.83523H78.8281V19.6553H59.1879V29.4754H49.3678V39.2955H39.5477V108.036H10.0874V157.137H19.9075V166.957H29.7276V176.777H0.267334V206.237H10.0874V216.057H19.9075V245.321H29.7276V255.141H39.5477V284.602H49.3678V294.422H177.029V284.602H186.849V255.141H196.669V245.321H206.489V216.057H216.309V206.237H226.13V176.777H196.669Z" fill="black"/>
<path d="M59.1877 127.677H69.0078V137.497H78.8279V147.317H88.648V157.137H98.4681V166.957H108.288V176.777H118.108V166.957H127.928V157.137H137.748V147.317H147.569V137.497H157.389V127.677H167.209V117.857H177.029V39.2957H167.209V29.4756H147.569V19.6555H127.928V9.83545H98.4681V19.6555H78.8279V29.4756H59.1877V39.2957H49.3676V117.857H59.1877V127.677ZM49.3676 186.597H10.0872V206.237H59.1877V196.417H49.3676V186.597Z" fill="#DD8334"/>
<path d="M206.49 186.597H177.029V196.417H167.209V206.237H216.31V186.597H206.49ZM108.289 186.597V176.777H98.4687V166.957H88.6486V157.137H78.8285V147.317H69.0084V137.497H59.1883V127.677H49.3682V117.856H19.908V157.137H29.7281V166.957H39.5482V176.777H49.3682V186.597H59.1883V196.417H69.0084V206.237H88.6486V196.417H98.4687V186.597H108.289Z" fill="#DD8334"/>
<path d="M177.029 186.597V176.777H186.849V166.957H196.67V157.137H206.49V117.856H177.029V127.677H167.209V137.497H157.389V147.317H147.569V157.137H137.749V166.957H127.929V176.777H118.109V186.597H108.289V196.417H98.4686V206.237H157.389V196.417H167.209V186.597H177.029Z" fill="#DD8334"/>
<path d="M98.4689 19.6555H78.8287V29.4756H98.4689V88.3962H108.289V9.83545H98.4689V19.6555ZM98.4689 127.677H108.289V137.497H98.4689V127.677Z" fill="white"/>
<path d="M59.1883 29.4756V39.2957H78.8285V29.4756H59.1883Z" fill="white"/>
<path d="M49.3681 39.2959H59.1882V49.116H49.3681V39.2959ZM10.0878 186.597H19.9079V196.417H10.0878V186.597ZM206.49 186.597H216.31V196.417H206.49V186.597ZM49.3681 127.677V117.857H19.9079V127.677H29.728V137.497H39.5481V127.677H49.3681Z" fill="white"/>
<path d="M39.5479 137.497H49.3679V147.317H39.5479V137.497Z" fill="white"/>
<path d="M49.368 127.677H59.1881V137.497H49.368V127.677ZM49.368 147.317H59.1881V157.137H49.368V147.317Z" fill="white"/>
<path d="M59.1883 157.137H69.0084V166.957H59.1883V157.137ZM206.49 117.856H177.029V127.677H186.85V137.497H196.67V127.677H206.49V117.856Z" fill="white"/>
<path d="M177.029 137.497H186.849V147.317H177.029V137.497Z" fill="white"/>
<path d="M167.209 127.677H177.03V137.497H167.209V127.677ZM167.209 147.317H177.03V157.137H167.209V147.317Z" fill="white"/>
<path d="M157.389 157.137H167.209V166.957H157.389V157.137Z" fill="white"/>
<path d="M127.928 157.137H137.748V147.317H147.568V137.496H157.389V127.676H167.209V88.396H157.389V98.2161H147.568V108.036H137.748V117.856H127.928V127.676H118.108V137.496H108.288V176.777H118.108V166.957H127.928V157.137ZM39.5474 186.597H49.3675V196.417H39.5474V186.597Z" fill="#C86300"/>
<path d="M49.3673 196.417H59.1874V206.237H49.3673V196.417ZM177.029 186.597H186.849V196.417H177.029V186.597Z" fill="#C86300"/>
<path d="M167.209 196.417H177.029V206.237H167.209V196.417ZM78.8277 176.777H59.1875V186.597H69.0076V196.417H78.8277V206.237H88.6478V186.597H78.8277V176.777ZM167.209 176.777H147.568V186.597H137.748V196.417H127.928V206.237H147.568V196.417H157.388V186.597H167.209V176.777Z" fill="#C86300"/>
<path d="M167.209 108.036V117.856H177.03V88.396H167.209V108.036Z" fill="#D86F13"/>
<path d="M118.109 127.676H127.929V117.856H137.749V108.036H147.569V98.216H157.389V88.3959H167.209V39.2954H157.389V49.1155H147.569V58.9356H137.749V68.7557H127.929V78.5758H118.109V88.3959H108.289V137.496H118.109V127.676Z" fill="#D86F13"/>
<path d="M108.289 166.956V137.496H98.4686V127.676H88.6485V117.856H78.8284V108.036H69.0083V98.2158H59.1882V127.676H69.0083V137.496H78.8284V147.316H88.6485V157.136H98.4686V166.956H108.289ZM10.0878 196.417H19.9079V206.237H10.0878V196.417ZM206.49 196.417H216.31V206.237H206.49V196.417ZM59.1882 176.777H69.0083V166.956H59.1882V157.136H39.5481V166.956H49.3681V176.777H59.1882ZM59.1882 186.597H69.0083V196.417H59.1882V186.597ZM78.8284 166.956H88.6485V176.777H78.8284V166.956Z" fill="#D86F13"/>
<path d="M69.0085 196.417H78.8286V206.237H69.0085V196.417ZM88.6487 176.777H98.4688V186.597H88.6487V176.777ZM167.209 157.137V166.957H157.389V176.777H177.03V166.957H186.85V157.137H167.209ZM157.389 186.597H167.209V196.417H157.389V186.597Z" fill="#D86F13"/>
<path d="M137.749 166.957H147.569V176.777H137.749V166.957ZM147.569 196.417H157.389V206.237H147.569V196.417Z" fill="#D86F13"/>
<path d="M127.929 176.777H137.749V186.597H127.929V176.777Z" fill="#D86F13"/>
<path d="M118.109 186.597H127.929V196.417H118.109V186.597Z" fill="#D86F13"/>
<path d="M108.289 196.417H118.109V206.237H108.289V196.417Z" fill="#D86F13"/>
<path d="M177.028 78.5758V49.1156H167.208V88.3959H177.028V78.5758ZM147.568 49.1156H157.388V39.2955H147.568V29.4754H127.928V19.6553H108.288V88.3959H118.108V78.5758H127.928V68.7558H137.748V58.9357H147.568V49.1156Z" fill="#E1924C"/>
<path d="M98.4676 78.576H88.6475V68.7559H78.8274V58.9358H69.0074V49.1157H59.1873V98.2162H69.0074V108.036H78.8274V117.856H88.6475V127.676H108.288V88.3961H98.4676V78.576Z" fill="#E1924C"/>
<path d="M49.3673 108.036V117.856H59.1874V98.2158H49.3673V108.036ZM19.907 186.597H29.7271V196.417H19.907V186.597Z" fill="#E1924C"/>
<path d="M29.7272 196.417H39.5473V206.237H29.7272V196.417ZM196.669 186.597H206.489V196.417H196.669V186.597Z" fill="#E1924C"/>
<path d="M186.849 196.417H196.669V206.237H186.849V196.417ZM49.3674 157.137V147.317H39.5473V137.497H29.7272V166.957H39.5473V157.137H49.3674Z" fill="#E1924C"/>
<path d="M39.5474 166.957H49.3675V176.777H39.5474V166.957Z" fill="#E1924C"/>
<path d="M49.3671 176.777H59.1872V186.597H49.3671V176.777ZM59.1872 147.316H69.0073V157.137H59.1872V147.316Z" fill="#E1924C"/>
<path d="M69.0074 157.137H78.8275V166.957H69.0074V157.137ZM88.6476 166.957H98.4677V176.777H88.6476V166.957Z" fill="#E1924C"/>
<path d="M98.4676 176.777H108.288V186.597H98.4676V176.777ZM177.028 166.957H186.848V176.777H177.028V166.957Z" fill="#E1924C"/>
<path d="M167.208 176.777H177.028V186.597H167.208V176.777ZM157.388 147.316H167.208V157.137H157.388V147.316Z" fill="#E1924C"/>
<path d="M147.568 157.137H157.388V166.957H147.568V157.137ZM127.928 166.957H137.748V176.777H127.928V166.957Z" fill="#E1924C"/>
<path d="M98.4676 196.417H108.288V206.237H98.4676V196.417ZM118.108 176.777H127.928V186.597H118.108V176.777Z" fill="#E1924C"/>
<path d="M108.288 186.597H118.108V196.417H108.288V186.597ZM196.669 157.137V137.497H186.849V147.317H177.028V157.137H186.849V166.957H196.669V157.137Z" fill="#E1924C"/>
<path d="M49.3676 255.161V284.621H177.029V255.161H49.3676Z" fill="#FF00FF"/>
<path d="M29.7276 215.88V245.341H196.669V215.88H29.7276Z" fill="#E1924C"/>
<path d="M74.4875 223.246H65.7672V225.622H74.1929V229.55H65.7672V231.966H74.1929V235.874H65.7672V238.27H74.4875V236.169H76.5693V231.671H74.4875V229.845H76.5693V225.327H74.4875V223.246Z" fill="black"/>
<path d="M80.4581 229.55H78.3762V238.27H80.7527V229.845H84.9753V227.449H80.4581V229.55ZM95.1882 227.449H88.8641V229.531H86.7822V236.169H88.8641V238.251H97.5843V223.226H95.1882V227.449ZM89.1587 229.845H95.2079V235.894H89.1587V229.845Z" fill="black"/>
<path d="M109.899 225.327H107.797V229.845H109.899V231.966H116.223V235.874H107.797V238.27H116.517V236.169H118.619V231.671H116.517V229.55H110.193V225.622H118.619V223.246H109.899V225.327Z" fill="black"/>
<path d="M120.406 225.622H128.832V227.449H126.711V229.55H124.629V231.671H122.508V233.753H120.406V238.27H131.228V235.874H122.802V234.048H124.923V231.966H127.005V229.845H129.126V227.743H131.228V223.246H120.406V225.622ZM141.441 231.671H139.614V229.55H137.532V227.449H135.411V223.246H133.015V238.27H135.411V229.845H137.238V231.966H139.32V234.048H141.441V238.27H143.837V223.246H141.441V231.671Z" fill="black"/>
<path d="M154.05 223.246V225.622H156.151V238.27H158.567V223.246H154.05Z" fill="black"/>
<path d="M80.7332 265.629H78.8281V267.534H76.9426V269.42H75.3321V263.744H73.152V277.295H75.3321V271.619H76.9426V273.505H78.8281V275.41H80.7332V277.295H82.9132V275.115H81.0278V273.21H79.1227V271.325H77.2372V269.714H79.1227V267.829H81.0278V265.924H82.9132V263.744H80.7332V265.629Z" fill="white"/>
<path d="M85.8195 265.924H87.705V275.115H85.8195V277.295H91.7901V275.115H89.9046V265.924H91.7901V263.744H85.8195V265.924Z" fill="white"/>
<path d="M102.298 271.325H100.687V269.42H98.802V267.534H96.8772V263.744H94.7168V277.295H96.8772V269.714H98.5074V271.619H100.393V273.505H102.298V277.295H104.478V263.744H102.298V271.325Z" fill="white"/>
<path d="M109.27 265.629H107.385V269.714H109.27V271.619H114.966V275.115H107.385V277.295H115.261V275.41H117.146V271.325H115.261V269.42H109.565V265.924H117.146V263.744H109.27V265.629Z" fill="white"/>
<path d="M127.634 269.42H122.233V263.744H120.053V277.295H122.233V271.619H127.634V277.295H129.814V263.744H127.634V269.42Z" fill="white"/>
<path d="M132.74 265.924H134.606V275.115H132.74V277.295H138.691V275.115H136.825V265.924H138.691V263.744H132.74V265.924Z" fill="white"/>
<path d="M149.493 265.629V263.744H141.617V277.295H143.797V271.619H149.493V269.714H151.378V265.629H149.493ZM149.198 269.42H143.797V265.924H149.198V269.42Z" fill="white"/>
</svg>
