<svg width="227" height="295" viewBox="0 0 227 295" fill="none" xmlns="http://www.w3.org/2000/svg">
<path d="M216.595 176.762H196.955V166.942H206.775V157.122H216.595V108.021H187.135V39.2804H177.315V29.4603H167.495V19.6402H147.855V9.8201H128.214V0H98.7542V9.8201H79.114V19.6402H59.4738V29.4603H49.6537V39.2804H39.8336V108.021H10.3733V157.122H20.1934V166.942H30.0135V176.762H0.553223V206.222H10.3733V216.042H20.1934V245.326H30.0135V255.146H39.8336V284.606H49.6537V294.426H177.315V284.606H187.135V255.146H196.955V245.326H206.775V216.042H216.595V206.222H226.415V176.762H216.595Z" fill="black"/>
<path d="M49.6541 255.146V284.606H177.315V255.146H49.6541Z" fill="#22DFF0"/>
<path d="M30.0146 215.865V245.326H196.956V215.865H30.0146Z" fill="#E1924C"/>
<path d="M74.7554 223.231H66.0352V225.607H74.4608V229.535H66.0352V231.951H74.4608V235.859H66.0352V238.255H74.7554V236.154H76.8569V231.656H74.7554V229.83H76.8569V225.312H74.7554V223.231ZM80.7457 229.535H78.6442V238.255H81.0403V229.83H85.2432V227.434H80.7457V229.535ZM95.4758 227.434H89.1517V229.515H87.0698V236.154H89.1517V238.236H97.8719V223.211H95.4758V227.434ZM89.4266 229.83H95.4758V235.879H89.4266V229.83ZM110.167 225.312H108.085V229.83H110.167V231.951H116.51V235.859H108.085V238.255H116.805V236.154H118.887V231.656H116.805V229.535H110.461V225.607H118.887V223.231H110.167V225.312ZM120.694 225.607H129.119V227.434H126.998V229.535H124.897V231.656H122.776V233.738H120.694V238.255H131.496V235.859H123.07V234.033H125.191V231.951H127.293V229.83H129.414V227.728H131.496V223.231H120.694V225.607Z" fill="black"/>
<path d="M141.708 231.656H139.881V229.535H137.8V227.433H135.678V223.23H133.302V238.255H135.678V229.83H137.505V231.951H139.587V234.033H141.708V238.255H144.104V223.23H141.708V231.656Z" fill="black"/>
<path d="M154.318 223.23V225.607H156.419V238.255H158.835V223.23H154.318Z" fill="black"/>
<path d="M108.909 267.519H107.004V269.405H105.414V267.519H103.508V263.729H101.328V267.814H103.214V269.699H105.119V271.31H103.214V273.195H101.328V277.28H103.508V273.49H105.414V271.604H107.004V273.49H108.909V277.28H111.09V273.195H109.204V271.31H107.299V269.699H109.204V267.814H111.09V263.729H108.909V267.519Z" fill="black"/>
<path d="M121.871 265.614V263.729H113.996V277.28H116.176V271.604H121.871V269.699H123.757V265.614H121.871ZM121.577 269.405H116.176V265.909H121.577V269.405Z" fill="black"/>
<path d="M59.4745 127.661H69.2946V137.482H79.1147V147.302H88.9348V157.122H98.7549V166.942H108.575V176.762H118.395V166.942H128.215V157.122H138.035V147.302H147.855V137.482H157.675V127.661H167.496V117.841H177.316V39.2806H167.496V29.4605H147.855V19.6404H128.215V9.82031H98.7549V19.6404H79.1147V29.4605H59.4745V39.2806H49.6544V117.841H59.4745V127.661ZM49.6544 186.582H10.374V206.222H59.4745V196.402H49.6544V186.582Z" fill="#DD8334"/>
<path d="M206.775 186.582H177.315V196.402H167.495V206.222H216.595V186.582H206.775ZM108.574 186.582V176.762H98.7541V166.942H88.934V157.122H79.1139V147.302H69.2938V137.481H59.4737V127.661H49.6536V117.841H20.1934V157.122H30.0135V166.942H39.8336V176.762H49.6536V186.582H59.4737V196.402H69.2938V206.222H88.934V196.402H98.7541V186.582H108.574Z" fill="#DD8334"/>
<path d="M177.315 186.582V176.762H187.135V166.942H196.955V157.122H206.775V117.841H177.315V127.661H167.495V137.481H157.674V147.302H147.854V157.122H138.034V166.942H128.214V176.762H118.394V186.582H108.574V196.402H98.7539V206.222H157.674V196.402H167.495V186.582H177.315Z" fill="#DD8334"/>
<path d="M108.575 58.9208V9.82031H98.7549V19.6404H79.1147V29.4605H98.7549V127.661H108.575V78.561H118.395V68.7409H108.575V58.9208ZM98.7549 137.482H108.575V147.302H98.7549V137.482Z" fill="white"/>
<path d="M59.4744 29.4604V39.2805H79.1146V29.4604H59.4744Z" fill="white"/>
<path d="M49.6542 49.1009V68.741H59.4743V39.2808H49.6542V49.1009ZM10.3738 186.582H20.1939V196.402H10.3738V186.582ZM206.776 186.582H216.596V196.402H206.776V186.582ZM49.6542 127.662V117.842H20.1939V127.662H30.014V137.482H39.8341V127.662H49.6542Z" fill="white"/>
<path d="M39.834 137.481H49.6541V147.302H39.834V137.481Z" fill="white"/>
<path d="M49.6545 127.662H59.4746V137.482H49.6545V127.662ZM49.6545 147.302H59.4746V157.122H49.6545V147.302Z" fill="white"/>
<path d="M59.4744 157.122H69.2945V166.942H59.4744V157.122ZM206.776 117.841H177.315V127.661H187.136V137.482H196.956V127.661H206.776V117.841Z" fill="white"/>
<path d="M177.316 137.481H187.136V147.302H177.316V137.481Z" fill="white"/>
<path d="M167.495 127.662H177.315V137.482H167.495V127.662ZM167.495 147.302H177.315V157.122H167.495V147.302Z" fill="white"/>
<path d="M157.675 157.122H167.495V166.942H157.675V157.122Z" fill="white"/>
<path d="M128.215 157.122H138.035V147.302H147.855V137.482H157.675V98.2012H147.855V108.021H138.035V117.841H128.215V127.661H118.395V137.482H108.575V176.762H118.395V166.942H128.215V157.122ZM39.8342 186.582H49.6543V196.402H39.8342V186.582Z" fill="#C86300"/>
<path d="M49.6538 196.402H59.4739V206.222H49.6538V196.402ZM177.315 186.582H187.135V196.402H177.315V186.582Z" fill="#C86300"/>
<path d="M167.495 196.402H177.316V206.222H167.495V196.402ZM79.1146 176.762H59.4744V186.582H69.2945V196.402H79.1146V206.222H88.9347V186.582H79.1146V176.762ZM167.495 176.762H147.855V186.582H138.035V196.402H128.215V206.222H147.855V196.402H157.675V186.582H167.495V176.762Z" fill="#C86300"/>
<path d="M128.215 98.201H138.035V108.021H147.855V98.201H157.675V127.661H167.495V68.7407H147.855V78.5608H118.395V88.3809H128.215V98.201Z" fill="#D86F13"/>
<path d="M118.395 127.661H128.215V117.841H138.035V108.021H128.215V98.201H118.395V88.3809H108.575V137.481H118.395V127.661ZM88.9345 117.841H79.1144V108.021H69.2944V98.201H59.4743V127.661H69.2944V137.481H79.1144V147.301H88.9345V157.122H98.7546V127.661H88.9345V117.841ZM10.3738 196.402H20.1939V206.222H10.3738V196.402ZM206.776 196.402H216.596V206.222H206.776V196.402ZM59.4743 176.762H69.2944V166.942H59.4743V157.122H39.8341V166.942H49.6542V176.762H59.4743ZM59.4743 186.582H69.2944V196.402H59.4743V186.582Z" fill="#D86F13"/>
<path d="M79.114 166.942H88.9341V176.762H79.114V166.942ZM69.2939 196.402H79.114V206.222H69.2939V196.402Z" fill="#D86F13"/>
<path d="M88.9343 176.762H98.7544V186.582H88.9343V176.762ZM167.495 157.122V166.942H157.675V176.762H177.315V166.942H187.135V157.122H167.495ZM157.675 186.582H167.495V196.402H157.675V186.582ZM138.035 166.942H147.855V176.762H138.035V166.942Z" fill="#D86F13"/>
<path d="M147.855 196.402H157.675V206.222H147.855V196.402ZM128.215 176.762H138.035V186.582H128.215V176.762Z" fill="#D86F13"/>
<path d="M118.395 186.582H128.215V196.402H118.395V186.582Z" fill="#D86F13"/>
<path d="M108.575 196.402H118.395V206.222H108.575V196.402Z" fill="#D86F13"/>
<path d="M167.495 88.3809V117.841H177.315V68.7407H167.495V88.3809Z" fill="#E1924C"/>
<path d="M138.035 78.5607H147.856V68.7406H167.496V39.2803H147.856V29.4602H128.215V19.6401H108.575V68.7406H118.395V78.5607H138.035ZM128.215 98.2009H138.035V108.021H128.215V98.2009Z" fill="#E1924C"/>
<path d="M118.395 88.3809H128.215V98.201H118.395V88.3809Z" fill="#E1924C"/>
<path d="M108.575 78.5605H118.395V88.3806H108.575V78.5605ZM88.9346 117.841V127.661H98.7547V98.2007H88.9346V88.3806H79.1145V98.2007H69.2944V108.021H79.1145V117.841H88.9346Z" fill="#E1924C"/>
<path d="M79.1148 88.3809V78.5608H69.2947V68.7407H59.4746V98.201H69.2947V88.3809H79.1148Z" fill="#E1924C"/>
<path d="M49.6541 108.021V117.841H59.4742V98.2007H49.6541V108.021ZM20.1938 186.582H30.0139V196.402H20.1938V186.582Z" fill="#E1924C"/>
<path d="M30.0137 196.402H39.8338V206.222H30.0137V196.402ZM196.955 186.582H206.775V196.402H196.955V186.582Z" fill="#E1924C"/>
<path d="M187.135 196.402L196.955 206.222H187.135V196.402ZM49.6539 157.122V147.302H39.8338V137.481H30.0137V166.942H39.8338V157.122H49.6539Z" fill="#E1924C"/>
<path d="M39.8342 166.941H49.6543V176.762H39.8342V166.941Z" fill="#E1924C"/>
<path d="M49.6541 176.762H59.4741V186.582H49.6541V176.762ZM59.4741 147.301H69.2942V157.121H59.4741V147.301Z" fill="#E1924C"/>
<path d="M69.2944 157.122H79.1145V166.942H69.2944V157.122ZM88.9346 166.942H98.7547V176.762H88.9346V166.942Z" fill="#E1924C"/>
<path d="M98.7544 176.762H108.574V186.582H98.7544V176.762ZM177.315 166.941H187.135V176.762H177.315V166.941Z" fill="#E1924C"/>
<path d="M167.496 176.762H177.316V186.582H167.496V176.762ZM157.676 147.301H167.496V157.121H157.676V147.301Z" fill="#E1924C"/>
<path d="M147.855 157.122H157.675V166.942H147.855V157.122ZM128.215 166.942H138.035V176.762H128.215V166.942Z" fill="#E1924C"/>
<path d="M98.7544 196.402H108.574V206.222H98.7544V196.402ZM118.395 176.762H128.215V186.582H118.395V176.762Z" fill="#E1924C"/>
<path d="M108.575 186.582H118.395V196.402H108.575V186.582ZM196.956 157.122V137.481H187.136V147.302H177.316V157.122H187.136V166.942H196.956V157.122Z" fill="#E1924C"/>
</svg>
