<svg width="371" height="371" viewBox="0 0 371 371" fill="none" xmlns="http://www.w3.org/2000/svg">
<path d="M369.393 164.442C367.449 147.296 363.168 130.857 356.883 115.459C349.557 97.5471 339.501 81.069 327.246 66.4763C309.844 45.7952 288.004 28.9832 263.179 17.4936C239.611 6.59334 213.333 0.504883 185.659 0.504883C157.986 0.504883 131.708 6.59334 108.14 17.4936C83.3144 28.9635 61.4745 45.7952 44.0733 66.4763C31.8178 81.0493 21.7621 97.5471 14.4363 115.459C8.13177 130.857 3.85022 147.296 1.92548 164.442C1.13987 171.335 0.74707 178.327 0.74707 185.437C0.74707 194.943 1.47375 204.292 2.84856 213.424C5.46071 230.649 10.4493 247.087 17.4805 262.407C25.7687 280.495 36.885 297.013 50.26 311.389C70.725 333.387 96.5126 350.395 125.541 360.372C144.395 366.853 164.605 370.369 185.64 370.369C206.674 370.369 226.904 366.853 245.739 360.372C274.787 350.395 300.555 333.387 321.02 311.389C334.395 297.013 345.511 280.495 353.799 262.407C360.811 247.087 365.819 230.649 368.431 213.424C369.826 204.292 370.533 194.943 370.533 185.437C370.572 178.347 370.179 171.335 369.393 164.442Z" fill="#FA34F3"/>
<path d="M185.659 0.524414C157.966 0.524414 131.707 6.61287 108.139 17.5132H263.178C239.61 6.61287 213.351 0.524414 185.659 0.524414Z" fill="#FA34F3"/>
<path d="M263.178 17.5132H108.139C83.3134 28.9831 61.4735 45.8147 44.0723 66.4958H327.225C309.843 45.8147 288.003 28.9831 263.178 17.5132Z" fill="#CF15F9"/>
<path d="M356.882 115.459H14.4549C8.15038 130.857 3.86883 147.296 1.94409 164.442H369.412C367.468 147.296 363.186 130.857 356.882 115.459Z" fill="#8F17F9"/>
<path d="M327.245 66.4961H44.0922C31.8367 81.0691 21.7809 97.5669 14.4551 115.479H356.882C349.556 97.5669 339.5 81.0691 327.245 66.4961Z" fill="#AC15F9"/>
<path d="M321.058 311.37H50.2786C70.7436 333.367 96.5312 350.376 125.559 360.353H245.777C274.805 350.376 300.593 333.387 321.058 311.37Z" fill="#37F4F1"/>
<path d="M370.571 185.437C370.571 178.347 370.179 171.335 369.393 164.441H1.92499C1.13939 171.335 0.746582 178.327 0.746582 185.437C0.746582 194.943 1.47326 204.291 2.84807 213.424H368.47C369.864 204.291 370.571 194.943 370.571 185.437Z" fill="#7E18F8"/>
<path d="M368.47 213.424H2.84814C5.46029 230.649 10.4489 247.088 17.4801 262.407H353.838C360.869 247.088 365.858 230.649 368.47 213.424Z" fill="#6D18F8"/>
<path d="M353.838 262.407H17.48C25.7681 280.495 36.8845 297.013 50.2594 311.389H321.039C334.433 296.993 345.55 280.476 353.838 262.407Z" fill="#04B7BD"/>
<path d="M245.778 360.353H125.56C144.415 366.834 164.625 370.349 185.659 370.349C206.714 370.349 226.923 366.834 245.778 360.353Z" fill="#A6EEFE"/>
<path d="M269.13 214.996V205.176H278.95V195.355H288.77V146.255H259.31V77.5143H249.49V67.6942H239.67V57.8741H220.029V48.054H200.389V38.2339H170.929V48.054H151.289V57.8741H131.649V67.6942H121.829V77.5143H112.008V146.255H82.5481V195.355H92.3682V205.176H102.188V214.996H72.728V244.456H82.5481V254.276H92.3682V283.54H102.188V293.36H112.008V322.82H121.829V332.64H249.49V322.82H259.31V293.36H269.13V283.54H278.95V254.276H288.77V244.456H298.59V214.996H269.13Z" fill="black"/>
<path d="M121.829 293.36V322.82H249.49V293.36H121.829Z" fill="#FA34F3"/>
<path d="M102.188 254.08V283.54H269.13V254.08H102.188Z" fill="#CF15F9"/>
<path d="M131.649 165.895H141.469V175.715H151.289V185.535H161.11V195.355H170.93V205.175H180.75V214.995H190.57V205.175H200.39V195.355H210.21V185.535H220.03V175.715H229.85V165.895H239.67V156.075H249.49V77.514H239.67V67.6939H220.03V57.8738H200.39V48.0537H170.93V57.8738H151.289V67.6939H131.649V77.514H121.829V156.075H131.649V165.895ZM121.829 224.815H82.5488V244.456H131.649V234.636H121.829V224.815Z" fill="#8F17F9"/>
<path d="M278.95 224.815H249.49V234.635H239.67V244.456H288.77V224.815H278.95ZM180.749 224.815V214.995H170.929V205.175H161.109V195.355H151.289V185.535H141.469V175.715H131.649V165.895H121.829V156.075H92.3684V195.355H102.188V205.175H112.009V214.995H121.829V224.815H131.649V234.635H141.469V244.456H161.109V234.635H170.929V224.815H180.749Z" fill="#8F17F9"/>
<path d="M249.49 224.815V214.995H259.31V205.175H269.13V195.355H278.95V156.075H249.49V165.895H239.67V175.715H229.85V185.535H220.03V195.355H210.21V205.175H200.389V214.995H190.569V224.815H180.749V234.635H170.929V244.456H229.85V234.635H239.67V224.815H249.49Z" fill="#8F17F9"/>
<path d="M170.929 48.0537H180.749V57.8738H170.929V48.0537ZM131.648 67.6939V77.514H151.288V67.6939H131.648Z" fill="white"/>
<path d="M151.289 57.8735V67.6936H170.929V57.8735H151.289ZM121.828 77.5137H131.648V87.3338H121.828V77.5137ZM82.5479 224.815H92.3679V234.635H82.5479V224.815ZM278.95 224.815H288.77V234.635H278.95V224.815ZM121.828 165.895V156.074H92.3679V165.895H102.188V175.715H112.008V165.895H121.828Z" fill="white"/>
<path d="M112.008 175.715H121.828V185.535H112.008V175.715Z" fill="white"/>
<path d="M121.829 165.895H131.649V175.715H121.829V165.895ZM121.829 185.535H131.649V195.355H121.829V185.535Z" fill="white"/>
<path d="M131.648 195.355H141.468V205.175H131.648V195.355ZM278.95 156.075H249.489V165.895H259.309V175.715H269.13V165.895H278.95V156.075Z" fill="white"/>
<path d="M249.49 175.715H259.31V185.535H249.49V175.715Z" fill="white"/>
<path d="M239.669 165.895H249.489V175.715H239.669V165.895ZM239.669 185.535H249.489V195.355H239.669V185.535Z" fill="white"/>
<path d="M229.849 195.355H239.669V205.175H229.849V195.355Z" fill="white"/>
<path d="M200.39 195.355H210.21V185.535H220.03V175.715H229.85V156.075H220.03V146.255H210.21V136.435H180.749V214.995H190.57V205.175H200.39V195.355ZM112.009 224.815H121.829V234.636H112.009V224.815Z" fill="#FA34F3"/>
<path d="M121.829 234.636H131.649V244.456H121.829V234.636ZM249.49 224.815H259.31V234.636H249.49V224.815Z" fill="#FA34F3"/>
<path d="M239.67 234.635H249.49V244.455H239.67V234.635ZM151.289 214.995H131.649V224.815H141.469V234.635H151.289V244.455H161.109V224.815H151.289V214.995ZM239.67 214.995H220.03V224.815H210.21V234.635H200.39V244.455H220.03V234.635H229.85V224.815H239.67V214.995Z" fill="#FA34F3"/>
<path d="M200.389 136.435H210.209V146.255H220.029V156.075H229.849V165.895H239.669V156.075H249.489V126.615H239.669V116.795H229.849V106.975H220.029V97.1546H200.389V87.3345H180.749V136.435H200.389Z" fill="#CF15F9"/>
<path d="M180.749 205.176V136.435H161.109V146.255H151.289V156.075H141.468V175.715H151.289V185.536H161.109V195.356H170.929V205.176H180.749ZM82.5479 234.636H92.3679V244.456H82.5479V234.636ZM278.95 234.636H288.77V244.456H278.95V234.636ZM131.648 214.996H141.468V205.176H131.648V195.356H112.008V205.176H121.828V214.996H131.648ZM131.648 224.816H141.468V234.636H131.648V224.816ZM151.289 205.176H161.109V214.996H151.289V205.176Z" fill="#CF15F9"/>
<path d="M141.468 234.636H151.288V244.456H141.468V234.636ZM161.108 214.996H170.928V224.816H161.108V214.996ZM239.669 195.355V205.176H229.849V214.996H249.489V205.176H259.309V195.355H239.669ZM229.849 224.816H239.669V234.636H229.849V224.816Z" fill="#CF15F9"/>
<path d="M210.209 205.176H220.029V214.996H210.209V205.176ZM220.029 234.636H229.849V244.456H220.029V234.636Z" fill="#CF15F9"/>
<path d="M200.389 214.996H210.209V224.816H200.389V214.996Z" fill="#CF15F9"/>
<path d="M190.569 224.816H200.389V234.636H190.569V224.816Z" fill="#CF15F9"/>
<path d="M180.749 234.636H190.569V244.456H180.749V234.636Z" fill="#CF15F9"/>
<path d="M220.03 106.975H229.85V116.795H239.67V126.615H249.49V87.3343H239.67V77.5142H220.03V67.6941H200.39V57.874H180.75V87.3343H200.39V97.1544H220.03V106.975Z" fill="#AC15F9"/>
<path d="M170.929 97.1546H151.289V106.975H141.469V116.795H131.649V126.615H121.828V156.075H131.649V165.895H141.469V156.075H151.289V146.255H161.109V136.435H180.749V87.3345H170.929V97.1546ZM92.3682 224.816H102.188V234.636H92.3682V224.816Z" fill="#AC15F9"/>
<path d="M102.188 234.636H112.008V244.456H102.188V234.636ZM269.13 224.815H278.95V234.636H269.13V224.815Z" fill="#AC15F9"/>
<path d="M259.31 234.636H269.13V244.456H259.31V234.636ZM121.828 195.356V185.535H112.008V175.715H102.188V205.176H112.008V195.356H121.828Z" fill="#AC15F9"/>
<path d="M112.009 205.175H121.829V214.995H112.009V205.175Z" fill="#AC15F9"/>
<path d="M121.828 214.995H131.648V224.816H121.828V214.995ZM131.648 185.535H141.469V195.355H131.648V185.535Z" fill="#AC15F9"/>
<path d="M141.469 195.355H151.289V205.176H141.469V195.355ZM161.109 205.176H170.929V214.996H161.109V205.176Z" fill="#AC15F9"/>
<path d="M170.929 214.995H180.749V224.815H170.929V214.995ZM249.489 205.175H259.31V214.995H249.489V205.175Z" fill="#AC15F9"/>
<path d="M239.67 214.995H249.49V224.816H239.67V214.995ZM229.85 185.535H239.67V195.355H229.85V185.535Z" fill="#AC15F9"/>
<path d="M220.029 195.355H229.849V205.176H220.029V195.355ZM200.389 205.176H210.209V214.996H200.389V205.176Z" fill="#AC15F9"/>
<path d="M170.929 234.636H180.749V244.456H170.929V234.636ZM190.569 214.996H200.389V224.816H190.569V214.996Z" fill="#AC15F9"/>
<path d="M180.75 224.816H190.57V234.636H180.75V224.816ZM269.13 195.356V175.715H259.31V185.535H249.49V195.356H259.31V205.176H269.13V195.356Z" fill="#AC15F9"/>
<path d="M149.658 302.001H141.881V315.455H143.963V309.779H149.462V315.455H151.544V309.583H149.658V307.874H151.544V303.887H149.658V302.001ZM149.462 307.677H143.963V304.083H149.462V307.677Z" fill="black"/>
<path d="M162.326 302.001H156.434V303.887H154.549V315.455H156.631V309.779H162.13V315.455H164.212V303.887H162.326V302.001ZM156.631 304.083H162.13V307.677H156.631V304.083Z" fill="black"/>
<path d="M174.994 302.001H169.102V303.887H167.217V315.455H169.299V309.779H174.798V315.455H176.88V303.887H174.994V302.001ZM169.299 304.083H174.798V307.677H169.299V304.083Z" fill="black"/>
<path d="M187.486 309.583H185.757V307.678H183.872V305.792H181.967V302.001H179.885V315.455H181.967V307.874H183.676V309.779H185.561V311.664H187.486V315.455H189.548V302.001H187.486V309.583Z" fill="black"/>
<path d="M200.154 303.887H198.249V305.792H196.363V307.677H194.654V302.001H192.573V315.455H194.654V309.779H196.363V311.664H198.249V313.57H200.154V315.455H202.235V313.373H200.35V311.468H198.445V309.583H196.559V307.874H198.445V305.988H200.35V304.083H202.235V302.001H200.154V303.887Z" fill="black"/>
<path d="M205.24 315.455H214.903V313.373H207.322V309.779H214.903V307.677H207.322V304.083H214.903V302.001H205.24V315.455Z" fill="black"/>
<path d="M225.686 303.887V302.001H217.908V315.455H225.686V313.57H227.571V303.887H225.686ZM225.49 313.373H219.99V304.083H225.49V313.373Z" fill="black"/>
<path d="M130.078 262.525H122.713V275.252H124.697V269.89H130.078V268.083H131.865V264.312H130.078V262.525ZM129.882 267.887H124.697V264.509H129.882V267.887ZM135.42 262.525H133.456V275.252H142.589V273.268H135.42V262.525ZM151.525 262.525H145.947V264.312H144.16V275.252H146.144V269.89H151.329V275.252H153.312V264.312H151.525V262.525ZM146.144 264.509H151.329V267.887H146.144V264.509ZM162.249 262.525H156.671V264.312H154.883V275.252H156.867V269.89H162.052V275.252H164.036V264.312H162.249V262.525ZM156.848 264.509H162.033V267.887H156.848V264.509ZM172.756 267.887H170.949V269.694H169.378V267.887H167.571V262.525H165.607V268.083H167.375V269.89H169.182V275.252H171.146V269.89H172.952V268.083H174.74V262.525H172.756V267.887ZM176.311 275.252H185.444V273.268H178.295V269.89H185.444V267.887H178.295V264.509H185.444V262.525H176.311V275.252ZM194.4 262.525H187.035V275.252H189.018V269.89H194.203V275.252H196.187V269.694H194.4V268.083H196.187V264.312H194.4V262.525ZM194.203 267.887H189.018V264.509H194.203V267.887ZM206.694 264.312H204.907V268.083H206.694V269.89H212.076V273.268H204.907V275.252H212.272V273.464H214.04V269.694H212.272V267.887H206.891V264.509H214.04V262.525H206.694V264.312ZM215.631 264.509H222.799V266.119H220.992V267.887H219.205V269.694H217.418V271.481H215.631V275.252H224.763V273.268H217.614V271.677H219.402V269.89H221.189V268.083H222.996V266.315H224.763V262.525H215.631V264.509ZM233.503 269.694H231.912V267.887H230.125V266.119H228.318V262.525H226.354V275.252H228.318V268.083H229.929V269.89H231.716V271.677H233.503V275.252H235.487V262.525H233.503V269.694ZM244.227 262.525V264.509H246.014V275.252H247.998V262.525H244.227Z" fill="white"/>
</svg>
