<svg xmlns="http://www.w3.org/2000/svg" viewBox="0 0 28 19"><path d="M27 12v-1h-1v-1h-1V9l-.2-.5v-5L25 3V0h-3v1h-1v1h-1v1h-1v1H0v4h19v1h1v1h1v1h1v1h2v7h2v-1h1v-1h1v-5h-1z" fill="#390601"/><g fill="#592f2a"><path d="M22 4V3h1V1h-1v1h-1v1h-1v1h2zm0 4h-2v1h1v1h1v1h1V9h-1V8z"/><path d="M19 4h1v1h-1zm5-3h1v1h-1zm-5 6h1v1h-1z"/><path d="M20 7h1V5h-1v2zm-1-2H0v2h19V5zm5 5h1v1h-1zm2 4h1v1h-1zm0 2h1v1h-1zm0-4h1v1h-1z"/><path d="M25 11h1v1h-1zm0 2h1v1h-1zm0 2h1v1h-1zm0 2h1v1h-1z"/></g><g fill="#846460"><path d="M22 2h1v1h-1z"/><path d="M21 3h1v1h-1zm0 5h1v1h-1z"/><path d="M22 9h1v1h-1zm2-8h1v1h-1zm-3 5V5h-1v2h1V6zm-3 0h1v1h-1zm-2 0h1v1h-1z"/><path d="M17 5h1v1h-1zm-3 1h1v1h-1z"/><path d="M15 5h1v1h-1zm-3 1h1v1h-1z"/><path d="M13 5h1v1h-1zm-3 1h1v1h-1z"/><path d="M11 5h1v1h-1zM8 6h1v1H8z"/><path d="M9 5h1v1H9zM6 6h1v1H6z"/><path d="M7 5h1v1H7zM4 6h1v1H4z"/><path d="M5 5h1v1H5zM2 6h1v1H2z"/><path d="M3 5h1v1H3zM0 6h1v1H0z"/><path d="M1 5h1v1H1zm23 5h1v1h-1zm2 4h1v1h-1zm0 2h1v1h-1zm0-4h1v1h-1z"/><path d="M25 11h1v1h-1zm0 2h1v1h-1zm0 2h1v1h-1zm0 2h1v1h-1z"/></g><path d="M23 3v1h-1v4h1v1h2V3h-2z" fill="#0ff"/><g fill="#fff"><path d="M24 4h1v1h-1z"/><path d="M23 5h1v1h-1zm1 3h-1v1h2V7h-1v1z"/><path d="M22 6h1v1h-1z"/></g></svg>