<svg xmlns="http://www.w3.org/2000/svg" viewBox="0 0 28 19"><path d="M1 12v-1h1v-1h1V9l.2-.5v-5L3 3V0h3v1h1v1h1v1h1v1h19v4H9v1H8v1H7v1H6v1H4v7H2v-1H1v-1H0v-5h1z" fill="#390601"/><g fill="#592f2a"><path d="M6 4V3H5V1h1v1h1v1h1v1H6zm0 4h2v1H7v1H6v1H5V9h1V8z"/><path d="M8 4h1v1H8zM3 1h1v1H3zm5 6h1v1H8z"/><path d="M8 7H7V5h1v2zm1-2h19v2H9V5zm-6 5h1v1H3zm-2 4h1v1H1zm0 2h1v1H1zm0-4h1v1H1z"/><path d="M2 11h1v1H2zm0 2h1v1H2zm0 2h1v1H2zm0 2h1v1H2z"/></g><g fill="#846460"><path d="M5 2h1v1H5z"/><path d="M6 3h1v1H6zm0 5h1v1H6z"/><path d="M5 9h1v1H5zM3 1h1v1H3zm4 5V5h1v2H7V6zm2 0h1v1H9zm2 0h1v1h-1z"/><path d="M10 5h1v1h-1zm3 1h1v1h-1z"/><path d="M12 5h1v1h-1zm3 1h1v1h-1z"/><path d="M14 5h1v1h-1zm3 1h1v1h-1z"/><path d="M16 5h1v1h-1zm3 1h1v1h-1z"/><path d="M18 5h1v1h-1zm3 1h1v1h-1z"/><path d="M20 5h1v1h-1zm3 1h1v1h-1z"/><path d="M22 5h1v1h-1zm3 1h1v1h-1z"/><path d="M24 5h1v1h-1zm3 1h1v1h-1z"/><path d="M26 5h1v1h-1zM3 10h1v1H3zm-2 4h1v1H1zm0 2h1v1H1zm0-4h1v1H1z"/><path d="M2 11h1v1H2zm0 2h1v1H2zm0 2h1v1H2zm0 2h1v1H2z"/></g><path d="M5 3v1h1v4H5v1H3V3h2z" fill="#0ff"/><g fill="#fff"><path d="M3 4h1v1H3z"/><path d="M4 5h1v1H4zm0 3h1v1H3V7h1v1z"/><path d="M5 6h1v1H5z"/></g></svg>