<svg xmlns="http://www.w3.org/2000/svg" viewBox="0 0 34 4"><path d="M0 0v4h34V0H0z" fill="#390601"/><path d="M0 1v2h34V1H0z" fill="#592f2a"/><g fill="#846460"><path d="M23 2h1v1h-1zm-2 0h1v1h-1z"/><path d="M22 1h1v1h-1zm3 1h1v1h-1z"/><path d="M24 1h1v1h-1zm3 1h1v1h-1z"/><path d="M26 1h1v1h-1zm3 1h1v1h-1z"/><path d="M28 1h1v1h-1zm3 1h1v1h-1z"/><path d="M30 1h1v1h-1zm3 1h1v1h-1z"/><path d="M32 1h1v1h-1zM19 2h1v1h-1z"/><path d="M20 1h1v1h-1zm-3 1h1v1h-1z"/><path d="M18 1h1v1h-1zm-3 1h1v1h-1z"/><path d="M16 1h1v1h-1zm-3 1h1v1h-1z"/><path d="M14 1h1v1h-1zm-3 1h1v1h-1z"/><path d="M12 1h1v1h-1zM9 2h1v1H9z"/><path d="M10 1h1v1h-1zM7 2h1v1H7z"/><path d="M8 1h1v1H8zM5 2h1v1H5z"/><path d="M6 1h1v1H6zM3 2h1v1H3z"/><path d="M4 1h1v1H4zM1 2h1v1H1z"/><path d="M2 1h1v1H2zM0 1h1v1H0z"/></g></svg>