<svg xmlns="http://www.w3.org/2000/svg" viewBox="0 0 30 12"><path d="M0 12V2h1V1h3V0h16v1h3v1h1v9h6v1z" fill="#0e0c15"/><path d="M1 11h22V2h-3V1H4v1H1z" fill="#66553b"/><g fill="#51774e"><path d="M6 3V2H5V1H4v2zm10 0V1h-1v1h-1v1zm6-1v1h-1v1h-2v1h-1V4h1V2h1V1h-3v1h1v1h-1v1h-3v1h2v5h-3v1h9v-1h1V9h-2V8h2V6h-1v1h-4V6h4V5h1V2z"/><path d="M13 2h-3V1H7v2h2v2H6V4H5v1H3V4H1v2h1v1H1v2h1V8h1v3h4V9h2V8h1v1h2V8h3V7h-1V5h-1V2zm-1 5h-1V5h1v2zm-2 3h1v1h-1zm-9 0h1v1H1z"/></g><path d="M4 2h2v1H4zM1 4v2h1v1h1V4zm15-1V1h-1v1h-1v1zM9 1h1v1H9zm13 6h1v1h-1zm-6-2v2h2V4h1V2h-1v1h-1v1h-3v1zm-5 2V5H6v1H5v2h3V7zm10-4h2v1h-2zM10 8h2v1h-2zM1 8h1v1H1zm0 2h1v1H1zm16-2v1h-1v1h-3v1h7v-1h-1V9h2V8z" fill="#cab983"/></svg>