<svg xmlns="http://www.w3.org/2000/svg" viewBox="0 0 34 12"><path d="M34 12V5h-2V3h-2V2h-2V0H6v2H4v1H2v2H0v7z"/><path d="M32 6V5h-1V4h-1V3h-1-1V2h-1V1H7v1H6v1H4v1H3v1H2v1H1v5h32V6z" fill="#51774e"/><g fill="#66553b"><path d="M2 5h2v1H2V5zm16 3V6h-2V4h-2v1h1v1h-2V5h-1V4h-1V2H9v1h1v2H9v2h3v1h2V7h1v1h3z"/><path d="M10 10h1V9H9v2h1v-1zM3 9v1h1V8H3V7H2V6H1v2h1v1h1zm25-2h2V6h1V5h-1V3h-1v2h-1v2zm-1-2h-1V4h-1v2h-2V5h1V3h1V1h-2v2h-2v1h-2v1h3v3h1V7h3V6h1V5zm0 4h4v1h-4V9z"/><path d="M32 6v2h-1v1h2V6h-1zm-5 1h1v1h-1V7zm-3 3v1h1V8h-2v2h1zm-4-2h1v2h-1V8zM4 3h2v1H4V3zm23-1h1v1h-1V2zm-7-1h1v2h-1V1z"/></g><path d="M13 5h2v1h-2V5zM9 6H8V5H7V4H6v1H4v1h2v1H5v1h3v3h1V9h2v1h1V7H9V6zM3 9H2v2h2v-1H3V9zm22-5h3V3h-1V1h-2v2h-1v2h-1v1h2V4zm6 6h2v1h-2v-1zm-6 0h2V7h1V5h-1v1h-1v1h-3v1h2v2zm-5-2h-5v1h-1v2h3v-1h3V8zm10-2h2v1h-2V6zM18 5h1V3h1V1h-5v1h-1v1h4v2zM8 3h1V2h2v1h1V1H8v2z" fill="#cab983"/></svg>