<svg xmlns="http://www.w3.org/2000/svg" viewBox="0 0 34 14"><path d="M0 0v14h4v-2h5v2h5v-2h6v2h5v-2h5v2h4V0H0z" fill="#390601"/><g fill="#5e342f"><path d="M14 5v4h-1v1h-3V9H9V4H4v5H3v1H1v2h3v-2h5v2h5v-2h1V4h-1v1zM5 5h3v1H5V5zm0 2h3v1H5V7zm8-2V4h-3v1h3zm0 2V6h-3v1h3zM3 6V4H1v2h2z"/><path d="M13 9V8h-3v1h3zM3 7H1v2h2V7zm21-2V4h-3v1h3zm0 2V6h-3v1h3zm6 1V4h-5v5h-1v1h-3V9h-1V4h-1v6h1v2h5v-2h5v2h3v-2h-2V9h-1V8zm-4-3h3v1h-3V5zm0 2h3v1h-3V7z"/><path d="M31 7v2h2V7h-2zm0-3v2h2V4h-2zm-7 5V8h-3v1h3zm-8-5v6h2V4h-2z"/></g><g fill="#a97955"><path d="M15 3h1V1h-1v2zm-5-2h1v1h-1zm2 0h1v1h-1zm9 0h1v1h-1zm2 0h1v1h-1zM4 1h1v1H4zm2 0h1v1H6zm2 0h1v1H8zM2 1h1v1H2zm27 0h1v1h-1zm-2 0h1v1h-1zm-2 0h1v1h-1z"/><path d="M31 1h1v1h-1zM18 3h1V1h-1v2zM5 2h1v1H5zM3 2h1v1H3zm4 0h1v1H7zm2 0h1v1H9zm4 0h1v1h-1zm15 0h1v1h-1z"/><path d="M26 2h1v1h-1zm-6 0h1v1h-1zm4 0h1v1h-1zM1 2h1v1H1zm31 0h1v1h-1zM22 2h1v1h-1zM11 2h1v1h-1zm19 0h1v1h-1z"/></g></svg>