<svg xmlns="http://www.w3.org/2000/svg" viewBox="0 0 24 14"><path d="M24 0v14h-3v-2h-3v2h-4v-2h-4v2H6v-2H3v2H0V0h24z" fill="#390601"/><g fill="#5e342f"><path d="M2 4v5h1v1h3V9h1V4h2v5h1v1h4V9h1V4h2v5h1v1h3V9h1V4h1v8h-2v-1h-3v1h-4v-1h-4v1H6v-1H3v1H1V4h1zm1 1V4h3v1H3z"/><path d="M3 7V6h3v1H3zm0 2V8h3v1H3zm7 0V7h4v2h-4zm0-3V4h4v2h-4zm8-1V4h3v1h-3zm0 2V6h3v1h-3zm0 2V8h3v1h-3z"/></g><g fill="#a97955"><path d="M5 1h1v1H5zM1 1h1v1H1zm2 0h1v1H3zm8 0h1v1h-1zM9 1h1v1H9zM7 1h1v1H7z"/><path d="M13 1h1v1h-1zm-3 1h1v1h-1z"/><path d="M12 2h1v1h-1zM8 2h1v1H8zM6 2h1v1H6zM2 2h1v1H2zm12 0h1v1h-1zM4 2h1v1H4zm13-1h1v1h-1zm2 0h1v1h-1z"/><path d="M21 1h1v1h-1zm-6 0h1v1h-1z"/><path d="M18 2h1v1h-1zm2 0h1v1h-1zm2 0h1v1h-1zm-6 0h1v1h-1z"/></g></svg>