<svg xmlns="http://www.w3.org/2000/svg" viewBox="0 0 34 14"><path d="M0,0v14h4v-2h5v2h5v-2h6v2h5v-2h5v2h4V0H0z" fill="#390601"/><g fill="#5e342f"><path d="M14 9h-1v1h-3V9H9V4H4v5H3v1H1v2h3v-2h5v2h5v-2h1V4h-1v5zM5 5h3v1H5V5zm0 2h3v1H5V7zm5-3h3v1h-3V4zm0 2h3v1h-3V6zM1 4h2v2H1V4z"/><path d="M10 8h3v1h-3V8zM1 7h2v2H1V7zm20-3h3v1h-3V4zm0 2h3v1h-3V6zm9-2h-5v5h-1v1h-3V9h-1V4h-1v6h1v2h5v-2h5v2h3v-2h-2V9h-1V4zm-4 1h3v1h-3V5zm0 2h3v1h-3V7z"/><path d="M31 7h2v2h-2V7zm0-3h2v2h-2V4zM21 8h3v1h-3V8zm-5-4h2v6h-2V4z"/></g><g fill="#a97955"><path d="M15 1h1v2h-1V1zm-5 0h1v1h-1V1zm2 0h1v1h-1V1zm9 0h1v1h-1V1zm2 0h1v1h-1V1zM4 1h1v1H4V1zm2 0h1v1H6V1zm2 0h1v1H8V1zM2 1h1v1H2V1zm27 0h1v1h-1V1zm-2 0h1v1h-1V1zm-2 0h1v1h-1V1z"/><path d="M31 1h1v1h-1V1zM18 1h1v2h-1V1zM5 2h1v1H5V2zM3 2h1v1H3V2zm4 0h1v1H7V2zm2 0h1v1H9V2zm4 0h1v1h-1V2zm15 0h1v1h-1V2z"/><path d="M26 2h1v1h-1V2zm-6 0h1v1h-1V2zm4 0h1v1h-1V2zM1 2h1v1H1V2zm31 0h1v1h-1V2zM22 2h1v1h-1V2zM11 2h1v1h-1V2zm19 0h1v1h-1V2z"/></g></svg>
