<svg xmlns="http://www.w3.org/2000/svg" viewBox="0 0 24 14"><path d="M0 0v14h3v-2h3v2h4v-2h4v2h4v-2h3v2h3V0H0z" fill="#390601"/><g fill="#5e342f"><path d="M22 4v5h-1v1h-3V9h-1V4h-2v5h-1v1h-4V9H9V4H7v5H6v1H3V9H2V4H1v8h2v-1h3v1h4v-1h4v1h4v-1h3v1h2V4h-1zm-1 1V4h-3v1h3z"/><path d="M21 7V6h-3v1h3zm0 2V8h-3v1h3zm-7 0V7h-4v2h4zm0-3V4h-4v2h4zM6 5V4H3v1h3zm0 2V6H3v1h3zm0 2V8H3v1h3z"/></g><g fill="#a97955"><path d="M18 1h1v1h-1zm4 0h1v1h-1zm-2 0h1v1h-1zm-8 0h1v1h-1zm2 0h1v1h-1zm2 0h1v1h-1z"/><path d="M10 1h1v1h-1zm3 1h1v1h-1z"/><path d="M11 2h1v1h-1zm4 0h1v1h-1zm2 0h1v1h-1zm4 0h1v1h-1zM9 2h1v1H9zm10 0h1v1h-1zM6 1h1v1H6zM4 1h1v1H4z"/><path d="M2 1h1v1H2zm6 0h1v1H8z"/><path d="M5 2h1v1H5zM3 2h1v1H3zM1 2h1v1H1zm6 0h1v1H7z"/></g></svg>