<svg xmlns="http://www.w3.org/2000/svg" viewBox="0 0 34 20"><path d="M34,0h-3v1h-1v1h-1v1h-1v1h-1v1h-1v1h-2v1h-2v1h-3v1h-4V8h-3V7h-2V6H8V5H7V4H6V3H5V2H4V1H3V0H0v20h34V0z" fill="#009696"/><g fill="#00ffe1"><path d="M31 1v1h-1v1h-1v1h-1v1h-1v1h-1v1h-2v1h-2v1h-3v1h-4V9h-3V8h-2V7H8V6H7V5H6V4H5V3H4V2H3V1H1v18h32V1h-2zM21 18h-2v-1h-1v1h-2v-1h-1v1h-2v-5h1v-1h1v-1h4v1h1v1h1v5z"/><path d="M20 13h-1v-1h-4v1h-1v4h1v-1h1v1h2v-1h1v1h1v-4zm-2.5 3h-1v-3h1v3z"/></g><path d="M34 0h-3v1h-1v1h-2v1h-2v1h-2v1h-2v15h12V0zM0 20h12V5h-2V4H8V3H6V2H4V1H3V0H0v20z" fill="#323232"/><path d="M31 1v1h-1v1h-2v1h1v1h1v1h-1v1h-1v1h-1v1h-1v1h-1v1h-1v1h-1v7h10V1h-2zm0 14h-4v-1h4v1z"/><path d="M25 10V9h1V8h1V7h1V6h1V5h-1V4h-2v1h-2v1h-1v5h1v-1h1zM10 5H8V4H6v1H5v1h1v1h1v1h1v1h1v1h1v1h1V6h-1V5z"/><path d="M9 10H8V9H7V8H6V7H5V6H4V5h1V4h1V3H4V2H3V1H1v18h10v-7h-1v-1H9v-1zm-2 5H3v-1h4v1z"/></svg>