<svg xmlns="http://www.w3.org/2000/svg" viewBox="0 0 40 21"><path d="M37,1h-3v1h-1v1h-1v1h-1v1h-1v1h-1v1h-2v1h-2v1h-3v1h-4V9h-3V8h-2V7h-2V6h-1V5H9V4H8V3H7V2H6V1H3v20h34V1z" fill="#009696"/><g fill="#00ffe1"><path d="M34 2v1h-1v1h-1v1h-1v1h-1v1h-1v1h-2v1h-2v1h-3v1h-4v-1h-3V9h-2V8h-2V7h-1V6H9V5H8V4H7V3H6V2H4v18h32V2h-2zM24 19h-2v-1h-1v1h-2v-1h-1v1h-2v-5h1v-1h1v-1h4v1h1v1h1v5z"/><path d="M23 14h-1v-1h-4v1h-1v4h1v-1h1v1h2v-1h1v1h1v-4zm-2.5 3h-1v-3h1v3z"/></g><path d="M37 1h-3v1h-1v1h-2v1h-2v1h-2v1h-2v15h12V1zM3 21h12V6h-2V5h-2V4H9V3H7V2H6V1H3v20z" fill="#323232"/><path d="M34 2v1h-1v1h-2v1h1v1h1v1h-1v1h-1v1h-1v1h-1v1h-1v1h-1v1h-1v7h10V2h-2zm0 14h-4v-1h4v1z"/><path d="M28 11v-1h1V9h1V8h1V7h1V6h-1V5h-2v1h-2v1h-1v5h1v-1h1zM13 6h-2V5H9v1H8v1h1v1h1v1h1v1h1v1h1v1h1V7h-1V6z"/><path d="M12 11h-1v-1h-1V9H9V8H8V7H7V6h1V5h1V4H7V3H6V2H4v18h10v-7h-1v-1h-1v-1zm-2 5H6v-1h4v1z"/></svg>