<svg xmlns="http://www.w3.org/2000/svg" viewBox="0 0 16 13"><path d="M15 3V2h-1V1h-1V0h-2v1h-1v1H6V1H5V0H3v1H2v1H1v1H0v3h1v6h1v1h3v-1h1V9h1V8h2v1h1v3h1v1h3v-1h1V6h1V3h-1z"/><path d="M7 3h2v1H7zm4 8v1h3v-1h-3zm-9 0v1h3v-1H2z" fill="#4b4b4b"/><g fill="#969696"><path d="M11 4V3h3V2h-1V1h-2v1h-1v2H9v1H7V4H6V2H5V1H3v1H2v1H1v3h1v4h3V9h1V8H5V6h2v1h2V6h2V4zM4 5v1H3V5H2V4h1V3h1v1h1v1H4z"/><path d="M12 6h-1v2h-1v1h1v1h3V6h-2z"/><path d="M14 3v3h1V3h-1z"/></g><path d="M6 7h1v1H6zm3 0h1v1H9zm2-3h1v1h-1zm2 0h1v1h-1z" fill="#ff14ff"/><path d="M12 3h1v1h-1zm0 2h1v1h-1zM3 4h1v1H3z" fill="#00ffe1"/></svg>