<svg xmlns="http://www.w3.org/2000/svg" viewBox="0 0 16 13"><path d="M15,3V2h-1V1h-1V0h-2v1h-1v1H6V1H5V0H3v1H2v1H1v1H0v3h1v6h1v1h3v-1h1V9h1V8h2v1h1v3h1v1h3v-1h1V6h1V3H15z"/><path d="M7 3h2v1H7V3zm4 8h3v1h-3v-1zm-9 0h3v1H2v-1z" fill="#4b4b4b"/><path d="M14 3V2h-1V1h-2v1h-1v2H9v1H7V4H6V2H5V1H3v1H2v1H1v3h1v4h3V9h1V8H5V6h2v1h2V6h2v2h-1v1h1v1h3V6h1V3h-1zm-1 2h-1V4h1v1z" fill="#969696"/><path d="M6 7h1v1H6V7zm3 0h1v1H9V7zm2-3h1v1h-1V4zm2 0h1v1h-1V4z" fill="#ff14ff"/><path d="M12 3h1v1h-1V3zm0 2h1v1h-1V5zM3 4h1v1H3V4z" fill="#00ffe1"/><path d="M12,4h1v1h-1V4z"/><path d="M13 3h1v1h-1V3zm0 2h1v1h-1V5zm-2 0h1v1h-1V5zm0-2h1v1h-1V3zM3 3h1v1H3V3z"/><path d="M2 4h1v1H2V4zm2 0h1v1H4V4z"/><path d="M3,5h1v1H3V5z"/></svg>