<svg xmlns="http://www.w3.org/2000/svg" viewBox="0 0 13 15"><g fill="#d3cadf"><path d="M11 1h-1V0h1v1z"/><path d="M10,2H9V1h1V2z"/><path d="M9,3H8V2h1V3z"/><path d="M10,4H9V3h1V4z"/><path d="M11 6h-1V4h1v2zM7 1H6V0h1v1z"/><path d="M6,2H5V1h1V2z"/><path d="M5,3H4V2h1V3z"/><path d="M6,4H5V3h1V4z"/><path d="M7,6H6V4h1V6z"/></g><g fill="#64438e"><path d="M3,5v2H1v1h2v3H1v1h2v2h1v1h8v-1h1V5H3z"/><path d="M0 8v3h1V8H0z"/></g><path d="M12,6H4v8h8V6z" fill="#fff"/><path d="M4,6v8h1V6H4z" fill="#d3cadf"/><path d="M5 8.3v1.8h.8v.9h.9v.9h.8v.9h.9v-.9h.9V11h.8v-.9h.9V8.3h-.9v-.9H8.4v.9h-.8v-.9H5.9v.9H5z" fill="#fa34f3"/><path d="M8.4 12.8h-.9v-.9h.9v.9z" fill="#7e18f8"/><path d="M9.3 11H6.7v.9h2.6V11h0z" fill="#8f17f9"/><path d="M5.8 10.1v.9h4.3v-.9H5.8z" fill="#ac15f9"/><path d="M5 9.2v.9h6v-.9H5z" fill="#cf15f9"/><path d="M5 8.3v.9h6v-.9h-.9v-.9H8.4v.9h-.8v-.9H5.9v.9H5z" fill="#fa34f3"/></svg>