<svg xmlns="http://www.w3.org/2000/svg" viewBox="0 0 29 30"><path d="M19 30h9v-1h1V6h-1V5h-1V4h-1V3h-1V2h-2V1h-2V0H8v1H6v1.01H4v1H3v1H2v1H1V6H0v13h17v9h1v1h1z"/><g fill="#232323"><path d="M18 27h1v1h1v1h1v1h-2v-1h0 0-1v-1h-1v-9h1v8z"/><path d="M17 18v1H0v-1h17z"/></g><g fill="#646464"><path d="M18 19h1v8h-1z"/><path d="M19 27h1v1h-1z"/><path d="M20 28h1v1h-1zm-3-11v1h1v1h-1v-1H0v-1h17z"/></g><path d="M1 13v-1h1v-1h1v-1h1V9H1V8h1V7h1V6h1V5h1V4h1V3h4v1H9v1H8v1H7v1H6v1h3v1H8v1H7v1H6v1H5v1H4v1H3v1H2v1H0v-3h1z" fill="#a000dc"/><path d="M1 13v-1h1v-1h1v-1h1V9H1V8h1V7h1V6h1V5h1V4h1V3h3v1H8v1H7v1H6v1H5v1h3v1H7v1H6v1H5v1H4v1H3v1H2v1H1v1H0v-3h1z" fill="#c02df0"/><g fill="#d778f5"><path d="M0 13h1v1H0z"/><path d="M1 12.01h1v1H1z"/><path d="M2 11.01h1v1H2z"/><path d="M3 10.01h1v1H3zm3-7h1v1H6z"/><path d="M5 4.01h1v1H5z"/><path d="M4 5.01h1v1H4z"/><path d="M3 6.01h1v1H3z"/><path d="M2 7.01h1v1H2zm2 2h1v1H4z"/><path d="M1 8.01h1v1H1z"/></g></svg>