<svg xmlns="http://www.w3.org/2000/svg" viewBox="0 0 29 30"><path d="M10 30H1v-1H0V6h1V5h1V4h1V3h1V2h2V1h2V0h13v1h2v1.01h2v1h1v1h1v1h1V6h1v13H12v9h-1v1h-1z"/><g fill="#232323"><path d="M11 27h-1v1H9v1H8v1h2v-1h0 0 1v-1h1v-9h-1v8z"/><path d="M12 18v1h17v-1H12z"/></g><g fill="#646464"><path d="M10 19h1v8h-1z"/><path d="M9 27h1v1H9z"/><path d="M8 28h1v1H8zm4-11v1h-1v1h1v-1h17v-1H12z"/></g><path d="M28 13v-1h-1v-1h-1v-1h-1V9h3V8h-1V7h-1V6h-1V5h-1V4h-1V3h-4v1h1v1h1v1h1v1h1v1h-3v1h1v1h1v1h1v1h1v1h1v1h1v1h1v1h2v-3h-1z" fill="#a000dc"/><path d="M28 13v-1h-1v-1h-1v-1h-1V9h3V8h-1V7h-1V6h-1V5h-1V4h-1V3h-3v1h1v1h1v1h1v1h1v1h-3v1h1v1h1v1h1v1h1v1h1v1h1v1h1v1h1v-3h-1z" fill="#c02df0"/><g fill="#d778f5"><path d="M28 13h1v1h-1z"/><path d="M27 12.01h1v1h-1z"/><path d="M26 11.01h1v1h-1z"/><path d="M25 10.01h1v1h-1zm-3-7h1v1h-1z"/><path d="M23 4.01h1v1h-1z"/><path d="M24 5.01h1v1h-1z"/><path d="M25 6.01h1v1h-1z"/><path d="M26 7.01h1v1h-1zm-2 2h1v1h-1z"/><path d="M27 8.01h1v1h-1z"/></g></svg>