<?xml version="1.0" encoding="utf-8"?>
<!-- Generator: Adobe Illustrator 25.3.1, SVG Export Plug-In . SVG Version: 6.00 Build 0)  -->
<svg version="1.1" id="Layer_1" xmlns="http://www.w3.org/2000/svg" xmlns:xlink="http://www.w3.org/1999/xlink" x="0px" y="0px"
	 viewBox="0 0 40 30" style="enable-background:new 0 0 40 30;" xml:space="preserve">
<style type="text/css">
	.st0{fill:#232323;}
	.st1{fill:#646464;}
	.st2{fill:#A000DC;}
	.st3{fill:#C02DF0;}
	.st4{fill:#D778F5;}
</style>
<path d="M3,29h1v-1h1v-9h30v9h1v1h1v1h3v-6h-1v-7h-1v-6h-1V7h-2V5h-2V3h-2V2h-4V1h-4V0h-6v1h-4v1H9v1H7v2H5v2H3v4H2v6H1v7H0v6h3V29
	L3,29z"/>
<g>
	<path class="st0" d="M5,18v1h30v-1H5z"/>
	<path class="st0" d="M4,27H3v2h1v-1h1v-9H4V27z"/>
	<path class="st0" d="M2,29H1v1h2v-2H2V29z M38,29v-1h-1v-1h-1v-8h-1v9h1v1h1v1h2v-1H38z"/>
</g>
<g>
	<path class="st1" d="M5,17v1h30v-1H5z"/>
	<path class="st1" d="M35,18h1v1h-1V18z M4,18h1v1H4V18z"/>
	<path class="st1" d="M3,27h1v-8H3V27z M37,27v-8h-1v8H37v1h1v-1H37z"/>
	<path class="st1" d="M2,27h1v1H2V27z M38,28h1v1h-1V28z"/>
	<path class="st1" d="M1,28h1v1H1V28z M39,29h1v1h-1V29z"/>
	<path class="st1" d="M0,29h1v1H0V29z"/>
</g>
<path class="st2" d="M25.5,3v1h-1v1h-1v1h-1v1h-1v1h-1v1h3v1h-1v1h-1v1h-1v1h-1v-1h-1v-1h-1v-1h-1V9h3V8h-1V7h-1V6h-1V5h-1V4h-1V3
	h-4v1h1v1h1v1h1v1h1v1h-3v1h1v1h1v1h1v1h1v1h1v1h1v1h1v1h3v-1h1v-1h1v-1h1v-1h1v-1h1v-1h1V9h1V8h-3V7h1V6h1V5h1V4h1V3H25.5z"/>
<path class="st3" d="M25.5,3v1h-1v1h-1v1h-1v1h-1v1h-1v1h3v1h-1v1h-1v1h-1v1h-1v-1h-1v-1h-1v-1h-1V9h3V8h-1V7h-1V6h-1V5h-1V4h-1V3
	h-3v1h1v1h1v1h1v1h1v1h-3v1h1v1h1v1h1v1h1v1h1v1h1v1h1v1h1v-1h1v-1h1v-1h1v-1h1v-1h1v-1h1V9h1V8h-3V7h1V6h1V5h1V4h1V3H25.5z"/>
<g>
	<path class="st4" d="M19.5,13h1v1h-1V13z"/>
	<path class="st4" d="M18.5,12h1v1h-1V12z"/>
	<path class="st4" d="M17.5,11h1v1h-1V11z"/>
	<path class="st4" d="M16.5,10h1v1h-1V10z M13.5,3h1v1h-1V3z"/>
	<path class="st4" d="M14.5,4h1v1h-1V4z"/>
	<path class="st4" d="M15.5,5h1v1h-1V5z"/>
	<path class="st4" d="M16.5,6h1v1h-1V6z"/>
	<path class="st4" d="M17.5,7h1v1h-1V7z M15.5,9h1v1h-1V9z"/>
	<path class="st4" d="M18.5,8h1v1h-1V8z M20.5,12h1v1h-1V12z"/>
	<path class="st4" d="M21.5,11h1v1h-1V11z"/>
	<path class="st4" d="M22.5,10h1v1h-1V10z M25.5,3h1v1h-1V3z"/>
	<path class="st4" d="M24.5,4h1v1h-1V4z"/>
	<path class="st4" d="M23.5,5h1v1h-1V5z"/>
	<path class="st4" d="M22.5,6h1v1h-1V6z"/>
	<path class="st4" d="M21.5,7h1v1h-1V7z M23.5,9h1v1h-1V9z"/>
	<path class="st4" d="M20.5,8h1v1h-1V8z"/>
</g>
</svg>
