<svg xmlns="http://www.w3.org/2000/svg" viewBox="0 0 34 20" xmlns:v="https://vecta.io/nano"><path d="M31,0v1h-1v1h-1v1h-1v1h-1v1h-1v1h-2v1h-2v1h-3v1h-4V8h-3V7h-2V6H8V5H7V4H6V3H5V2H4V1H3V0H0v20h34V0H31z" fill="#a000dc"/><path d="M31 1v1h-1v1h-1v1h-1v1h-1v1h-1v1h-2v1h-2v1h-3v1h-4V9h-3V8h-2V7H8V6H7V5H6V4H5V3H4V2H3V1H1v18h32V1h-2zm-8.75 9.96h-.55v.55h-.55v.55h-.55v.55h-.55v.55h1.66v.55h-.55v.55h-.55v.55h-.55v.55h-.55v.55h-.55v.55h-.55v.55h-.55v.55H16.2v-.55h-.55v-.55h-.55v-.55h-.55v-.55H14v-.55h-.55v-.55h-.55v-.55h-.6v-.55h1.66v-.55h-.55v-.55h-.55v-.55h-.56v-.55h-.55v-.55h2.21v.55h.55v.55h.55v.55h.55v.55h.55v.55h.55v.55h-1.66v.55h.55v.55h.55v.55h.55v.55h.55v-.55h.55v-.55h.55v-.55h.55v-.55h-1.66v-.55h.55v-.55h.55v-.55h.55v-.55h.55v-.55h.55v-.55h2.21v.55h.05 0z" fill="#d778f5"/><path d="M13 7h-1V6h-1V5h-1V4H8V3H6V2H4V1H3V0H0v20h14V8h-1V7zm18-7v1h-1v1h-2v1h-2v1h-2v1h-1v1h-1v1h-1v1h-1v12h14V0h-3z" fill="#232323"/><path d="M12 7h-1V6h-1V5H8V4H6V3H4V2H3V1H1v18h12V8h-1V7zm19-6v1h-1v1h-2v1h-2v1h-2v1h-1v1h-1v1h-1v11h12V1h-2z"/><path d="M4,8v1h1v1h2V9h1V8H4z" fill="#232323"/><path d="M5,8h2v1H5V8z" fill="#646464"/><path d="M26,8v1h1v1h2V9h1V8H26z" fill="#232323"/><path d="M27,8h2v1h-2V8z" fill="#646464"/><path d="M4 14v1h4v-1H4zm22 0v1h4v-1h-4z" fill="#232323"/><path d="M4 14h1v1H4v-1zm3 0h1v1H7v-1zm22 0h1v1h-1v-1zm-3 0h1v1h-1v-1zm-15 0h1v1h-1v-1zm0-2h1v1h-1v-1zm0 4h1v1h-1v-1zm0-6h1v1h-1v-1zm11 4h1v1h-1v-1zm0-2h1v1h-1v-1zm0 4h1v1h-1v-1zm0-6h1v1h-1v-1z" fill="#646464"/></svg>
