<svg xmlns="http://www.w3.org/2000/svg" viewBox="0 0 24 20"><path d="M1 8V7h1V6h1V5h1V4h2V3h2V2h2V1h1V0h13v20H0V8h1z" fill="#232323"/><path d="M24 1v18H14V1h10zM1 8v11h12V1h-2v1h-1v1H8v1H6v1H4v1H3v1H2v1H1zm5 6h4v1H6v-1zm0-6h4v1H9v1H7V9H6V8z"/><path d="M2 14h1v1H2zm0-2h1v1H2zm0 4h1v1H2zm0-6h1v1H2zm5-2h2v1H7zm2 6h1v1H9zm-3 0h1v1H6z" fill="#646464"/><path d="M23 3v1h1v8h-1v-1h-1v-1h-1V9h-1V8h3V7h-1V6h-1V5h-1V4h-1V3h4z" fill="#a000dc"/><path d="M23 3v1h1v3h-1V6h-1V5h-1V4h-1V3h3zm0 5h1v3h-1v-1h-1V9h-1V8h2z" fill="#c02df0"/><g fill="#d778f5"><path d="M22 3h1v1h-1z"/><path d="M23 4h1v1h-1z"/></g></svg>