<svg xmlns="http://www.w3.org/2000/svg" viewBox="0 0 24 20"><path d="M23 8V7h-1V6h-1V5h-1V4h-2V3h-2V2h-2V1h-1V0H0v20h24V8h-1z" fill="#232323"/><path d="M0 1v18h10V1H0zm22 7V7h-1V6h-1V5h-2V4h-2V3h-2V2h-1V1h-2v18h12V8h-1zm-4 7h-4v-1h4v1zm0-6h-1v1h-2V9h-1V8h4v1z"/><path d="M21 14h1v1h-1zm0-2h1v1h-1zm0 4h1v1h-1zm0-6h1v1h-1zm-6-2h2v1h-2zm-1 6h1v1h-1zm3 0h1v1h-1z" fill="#646464"/><path d="M1 3v1H0v8h1v-1h1v-1h1V9h1V8H1V7h1V6h1V5h1V4h1V3H1z" fill="#a000dc"/><path d="M1 3v1H0v3h1V6h1V5h1V4h1V3H1zm0 5H0v3h1v-1h1V9h1V8H1z" fill="#c02df0"/><g fill="#d778f5"><path d="M1 3h1v1H1z"/><path d="M0 4h1v1H0z"/></g></svg>