<svg xmlns="http://www.w3.org/2000/svg" viewBox="0 0 25 11"><path d="M22 11h3v-1h-4v1h1z"/><path d="M20 9h1v1h-1z"/><path d="M19 8h1v1h-1z"/><path d="M19 6V2h-1v2h-2v1h2v3h1V6z"/><path d="M19 1h1v1h-1zM0 3v1h16V3H0z"/><path d="M22 1h3V0h-5v1h2z"/><path d="M20 1v1h-1v6h1v1h1v1h4V1h-5z" opacity=".75" fill="#a000dc" enable-background="new"/><g fill="#d778f5"><path d="M22 1h1v1h-1zm2 1h1v1h-1z"/><path d="M21 2h1v1h-1zm2 1h1v1h-1z"/><path d="M20 3h1v1h-1zm2 1h1v1h-1z"/><path d="M21 5h1v1h-1z"/><path d="M20 6h1v1h-1zm-1-2h1v1h-1z"/></g></svg>