<svg xmlns="http://www.w3.org/2000/svg" viewBox="0 0 34 11" xmlns:v="https://vecta.io/nano"><path d="M6,9h1v1H6V9z"/><path d="M5,8h1v1H5V8z"/><path d="M5,6V2H4v2H2v1h2v3h1V6z"/><path d="M5 1h1v1H5V1zM0 3v1h2V3H0zm9 7H7v1h4v-1H9z"/><path d="M11,9v1h2V9H11z"/><path d="M13,8h1v1h-1V8z"/><path d="M14 7h1v1h-1V7zm0-6h1v1h-1V1z"/><path d="M8 1h6V0H6v1h2zm19 8h1v1h-1V9z"/><path d="M28 8h1v1h-1V8zm0-7h1v1h-1V1z"/><path d="M30,4V2h-1v6h1V5h2V4H30z"/><path d="M32 3v1h2V3h-2zm-7 7h-2v1h4v-1h-2z"/><path d="M22,9h-1v1h2V9H22z"/><path d="M20,8h1v1h-1V8z"/><path d="M19,7h1v1h-1V7z"/><path d="M19,5V2h-1v2h-2V2h-1v5h1V5h2v2h1V5z"/><path d="M19,1h1v1h-1V1z"/><path d="M22 1h6V0h-8v1h2z"/><path d="M14 1H6v1H5v6h1v1h1v1h4V9h2V8h1V7h1V2h-1V1zm14 1V1h-8v1h-1v5h1v1h1v1h2v1h4V9h1V8h1V2h-1z" opacity=".75" fill="#a000dc" enable-background="new"/><g fill="#d778f5"><path d="M11 1h1v1h-1V1zM8 1h1v1H8V1z"/><path d="M10 2h1v1h-1V2zM7 2h1v1H7V2z"/><path d="M9 3h1v1H9V3zM6 3h1v1H6V3z"/><path d="M8,4h1v1H8V4z"/><path d="M7,5h1v1H7V5z"/><path d="M6 6h1v1H6V6zM5 4h1v1H5V4zm17-3h1v1h-1V1zm3 0h1v1h-1V1z"/><path d="M21 2h1v1h-1V2zm3 0h1v1h-1V2z"/><path d="M20 3h1v1h-1V3zm3 0h1v1h-1V3z"/><path d="M22,4h1v1h-1V4z"/><path d="M21,5h1v1h-1V5z"/><path d="M20 6h1v1h-1V6zm-1-2h1v1h-1V4z"/></g></svg>
