<?xml version="1.0" encoding="utf-8"?>
<!-- Generator: Adobe Illustrator 25.3.1, SVG Export Plug-In . SVG Version: 6.00 Build 0)  -->
<svg version="1.1" id="Layer_1" xmlns="http://www.w3.org/2000/svg" xmlns:xlink="http://www.w3.org/1999/xlink" x="0px" y="0px"
	 viewBox="0 0 18 9" style="enable-background:new 0 0 18 9;" xml:space="preserve">
<style type="text/css">
	.st0{fill:#AAAAAA;}
	.st1{fill:#E1E1E1;}
	.st2{fill:#919191;}
</style>
<path class="st0" d="M17,3V2h-1V1h-2V0h-4v1H8V0H4v1H2v1H1v1H0v6h1V8h1V6h1V5h2V4h8v1h2v1h1v2h1v1h1V3H17z"/>
<g>
	<path class="st1" d="M2,3h1v1H2V3z M4,1v1h2V1H4z"/>
	<path class="st1" d="M3,2h1v1H3V2z M15,3h1v1h-1V3z M12,1v1h2V1H12z"/>
	<path class="st1" d="M14,2h1v1h-1V2z"/>
</g>
<g>
	<path class="st2" d="M7,0h1v1H7V0z"/>
	<path class="st2" d="M10,2V1H8v1H10z M3,4v1h2V4H3z"/>
	<path class="st2" d="M2,5h1v1H2V5z"/>
	<path class="st2" d="M1,8h1V6H1V8z M10,0h1v1h-1V0z M5,3v1h8V3H5z"/>
	<path class="st2" d="M13,4v1h2V4H13z"/>
	<path class="st2" d="M15,5h1v1h-1V5z"/>
	<path class="st2" d="M17,6h-1v2h1V6z M0,8h1v1H0V8z"/>
	<path class="st2" d="M17,8h1v1h-1V8z"/>
</g>
</svg>
