<svg xmlns="http://www.w3.org/2000/svg" viewBox="0 0 18 9" xmlns:v="https://vecta.io/nano"><path d="M17,3V2h-1V1h-2V0h-4v1H8V0H4v1H2v1H1v1H0v6h1V8h1V6h1V5h2V4h8v1h2v1h1v2h1v1h1V3H17z" fill="#aaa"/><g fill="#e1e1e1"><path d="M2 3h1v1H2V3zm2-2v1h2V1H4z"/><path d="M3 2h1v1H3V2zm12 1h1v1h-1V3zm-3-2v1h2V1h-2z"/><path d="M14,2h1v1h-1V2z"/></g><g fill="#919191"><path d="M7,0h1v1H7V0z"/><path d="M10 2V1H8v1h2zM3 4v1h2V4H3z"/><path d="M2,5h1v1H2V5z"/><path d="M1 8h1V6H1v2zm9-8h1v1h-1V0zM5 3v1h8V3H5z"/><path d="M13,4v1h2V4H13z"/><path d="M15,5h1v1h-1V5z"/><path d="M17 6h-1v2h1V6zM0 8h1v1H0V8z"/><path d="M17,8h1v1h-1V8z"/></g></svg>