<svg xmlns="http://www.w3.org/2000/svg" viewBox="0 0 34 39"><path d="M32 8V6h-2V4h-4V2h-4V0H12v2H8v2H4v2H2v2H0v21h2v2h2v2h2v2h2v2h2v2h14v-2h2v-2h2v-2h2v-2h2v-2h2V8h-2z"/><g fill="#fff"><path d="M30 8V6h-4V4h-4V2H12v2H8v2H4v2H2v7h2v2h2v-2h5v2h2v2h2v4h-2v2h2v2h4v-2h2v-2h-2v-4h2v-2h2v-2h5v2h2v-2h2V8h-2zM3 11h2V9h8v2h2v2H9v-2H5v2H3v-2zm28 2h-2v-2h-4v2h-6v-2h2V9h8v2h2v2z"/><path d="M30 19h-9v4h2v2h-2v2h5v-2h2v-2h2v4h-2v2h-2v2h-7v-2h-4v2H8v-2H6v-2H4v-4h2v2h2v2h5v-2h-2v-2h2v-4H4v-2H2v12h2v2h2v2h2v2h2v2h5v-4h4v4h5v-2h2v-2h2v-2h2v-2h2V17h-2v2z"/></g></svg>