<svg xmlns="http://www.w3.org/2000/svg" viewBox="0 0 16 14"><path d="M15 12v-1h-1v-1h1V1h-1V0H2v1H1v9h1v1H1v1H0v2h16v-2h-1z"/><path d="M14 12v-1H2v1H1v1h14v-1h-1z" fill="#646464"/><path d="M2 1v9h12V1H2z" fill="#323232"/><g fill="#969696"><path d="M2 11h1v1H2zm2 0h1v1H4zm2 0h1v1H6zm2 0h1v1H8z"/><path d="M10 11h1v1h-1zm2 0h1v1h-1zM1 12h1v1H1zm2 0h1v1H3z"/><path d="M5 12h1v1H5zm2 0h1v1H7zm2 0h1v1H9zm2 0h1v1h-1zm2 0h1v1h-1z"/></g><path d="M3 4v4h1V3H3v1zm2-1v1h1v1H5v1h1v1H5v1h2V3H5zm3 0v1h1v1H8v1h1v1H8v1h2V3H8zm3 0v1h1v4h1V3h-2z" fill="#0f0"/></svg>