<svg xmlns="http://www.w3.org/2000/svg" viewBox="0 0 44 22"><path d="M36 2v1h-1v1h-1v1h-1v1h-1v1h-1v1h-2v1H15V8h-2V7h-1V6h-1V5h-1V4H9V3H8V2H5v20h34V2h-3z"/><g fill="#0f0"><path d="M7 2h1v1H7zm2 2h1v1H9z"/><path d="M8 3h1v1H8zm2 2h1v1h-1z"/><path d="M11 6h1v1h-1zm3 3h1V8h-2v1h1zm22-7h1v1h-1z"/><path d="M35 3h1v1h-1z"/><path d="M34 4h1v1h-1zm-2 2h1v1h-1z"/><path d="M33 5h1v1h-1zm-17 5h1V9h-2v1h1zm11-1v1h2V9h-2z"/><path d="M29 8v1h2V8h-2zm-15 6v2h1v-3h-1v1z"/><path d="M12 7h1v1h-1zm6 5h-3v1h5v-1h-2zm13-5h1v1h-1zm-3 5h-4v1h5v-1h-1zm-6 2h1v1h-1z"/><path d="M21 13h1v1h-1z"/><path d="M22 12h1v1h-1z"/><path d="M21 11h1v1h-1zm2-2h1v1h-1z"/><path d="M22 10h1v1h-1z"/><path d="M21 9h-1v1h2V9h-1zm-3 0h1v1h-1zm7 0h1v1h-1zm5 5v-1h-1v3h1v-2z"/><path d="M21 15h1v1h-1zm9 1h1v1h-1z"/><path d="M13 16h1v1h-1zm9 0h1v1h-1z"/><path d="M33 17h-2v1h4v-1h-2zm-22 0H9v1h4v-1h-2zm10 0h1v1h-1z"/><path d="M22 18h1v1h-1z"/><path d="M21 19h1v1h-1zm7 2v1h1v-2h-1v1zm-2 0v1h1v-2h-1v1zm-9 0v1h1v-2h-1v1zm-2 0v1h1v-2h-1v1zm23-1v2h1v-2h-1zm-2 1v1h1v-2h-1v1zm-24-1H9v2h5v-2h-2zm21 0h-3v2h5v-2h-2zm-12 1h1v1h-1zm-2 0v1h1v-2h-1v1zm5 0v1h1v-2h-1v1z"/><path d="M22 20h1v1h-1zM7 21v1h1v-2H7v1zm-2 0v1h1v-2H5v1z"/></g></svg>