<svg xmlns="http://www.w3.org/2000/svg" viewBox="0 0 17 19"><path d="M16 2V1h-2V0H3v1H2v1H1v1H0v6h1v4h2v2h4v2h1v1h1v1h7v-1h1V2h-1z" fill="#0a040b"/><g fill="#323232"><path d="M14 2V1H3v1H2v1H1v6h2V7h8v2h2v1h2V9h1V2h-2z"/><path d="M3 9v4h8V9H3z"/><path d="M11 15H8v2h1v1h7v-5h-1v-1h-2v1h-2v2z"/></g><path d="M3 9v4h8V9H3z" fill="#af00ff"/><g fill="#646464"><path d="M14 2V1H3v1h10v1h1v7h1V2h-1z"/><path d="M2 2h1v1H2z"/><path d="M1 4v2h1V3H1v1zm13 9v4h1v-5h-1v1z"/></g><g fill="#0affff"><path d="M11 5H3v2h8V5z"/><path d="M1 7v2h2V7H1zm10 0v2h2V7h-2zm-2 8H8v2h3v-2H9z"/><path d="M11 13v2h2v-2h-2z"/></g><path d="M13 3V2H3v1H2v2h1V4h8v1h1v1h1v1h1V3h-1zm0 13h-1v1h2v-2h-1v1z" fill="#c5c8cf"/><path d="M3 10v2h8v-2H3z" fill="#f0f"/></svg>