<svg xmlns="http://www.w3.org/2000/svg" viewBox="0 0 20 19"><path d="M19 9V8h-1V7h-4v1h-1v1h-2V2h-1V1H8V0H0v15h1v2h1v1h1v1h7v-1h1v-5h2v1h1v1h4v-1h1v-1h1V9h-1z" fill="#0a040b"/><g fill="#323232"><path d="M8 2V1H0v6h5v2h2v1h2V9h1V2H8z"/><path d="M3 9H0v4h5V9H3z"/><path d="M5 15H2v2h1v1h7v-5H9v-1H7v1H5v2z"/></g><path d="M8 2V1H0v3h5v1h1v1h1v1h1v3h1V2H8zm0 11v2H7v1H6v1h3v-5H8v1z" fill="#646464"/><path d="M4 9H0v4h5V9H4z" fill="#af00ff"/><g fill="#0affff"><path d="M5 5H0v2h5V5z"/><path d="M6 7H5v2h2V7H6zm-3 8H2v2h3v-2H3z"/><path d="M5 13v2h2v-2H5z"/></g><path d="M18 9V8h-4v1h-1v1h2v2h-2v1h1v1h4v-1h1V9h-1z" fill="#646464"/><path d="M7 2H0v2h5v1h1v1h1v1h1V3H7V2zm0 14H6v1h2v-2H7v1z" fill="#c5c8cf"/><path d="M4 10H0v2h5v-2H4z" fill="#f0f"/><path d="M18 9V8h-4v1h-1v1h2v2h-2v1h1v1h4v-1h1V9h-1z" fill="#323232"/><path d="M18 10V9h-1V8h-2v1h-1v1h1v2h-1v1h1v1h2v-1h1v-1h1v-2h-1z" fill="#c5c8cf"/><path d="M17 10V9h-2v4h2v-1h1v-2h-1z" fill="#0affff"/><path d="M16 10h-1v2h2v-2h-1z" fill="#f0f"/></svg>