<svg xmlns="http://www.w3.org/2000/svg" viewBox="0 0 20 23"><g fill="#0f0"><path d="M16 18h1v1h-1zm2 1h1v1h-1zm1 3h1v1h-1zM3 18h1v1H3z"/><path d="M1 19h1v1H1zm2 2h1v-2h1V1h10v18h1v2h1v1h1v1H2v-1h1v-1zm-3 1h1v1H0z"/></g><path d="M14 1v22h-1V1h1z" fill="#0ff"/><g fill="#007dff"><path d="M15 1v18h1v2h1v1h1v1h-4V1h1z"/><path d="M16 18h1v1h-1zm2 1h1v1h-1zm1 3h1v1h-1z"/></g><path d="M7 1v22H6V1h1z" fill="#009600"/><path d="M12 1v22h-1V1h1z" fill="#7d00ff"/><path d="M11 1v22h-1V1h1z" fill="#7d0064"/><path d="M13 1v22h-1V1h1z" fill="#32007d"/><path d="M10 1v22H9V1h1z" fill="#f0f"/><path d="M9 1v22H8V1h1z" fill="#ffc800"/><path d="M8 1v22H7V1h1z" fill="#ff0"/><path d="M15 0v2H5V0h10z" fill="#64438e"/></svg>