<svg xmlns="http://www.w3.org/2000/svg" viewBox="0 0 20 23"><g fill="#0f0"><path d="M3 18h1v1H3zm-2 1h1v1H1zm-1 3h1v1H0zm16-4h1v1h-1z"/><path d="M18 19h1v1h-1zm-1 2h-1v-2h-1V1H5v18H4v2H3v1H2v1h16v-1h-1v-1zm2 1h1v1h-1z"/></g><path d="M6 1v22h1V1H6z" fill="#0ff"/><g fill="#007dff"><path d="M5 1v18H4v2H3v1H2v1h4V1H5z"/><path d="M3 18h1v1H3zm-2 1h1v1H1zm-1 3h1v1H0z"/></g><path d="M13 1v22h1V1h-1z" fill="#009600"/><path d="M8 1v22h1V1H8z" fill="#7d00ff"/><path d="M9 1v22h1V1H9z" fill="#7d0064"/><path d="M7 1v22h1V1H7z" fill="#32007d"/><path d="M10 1v22h1V1h-1z" fill="#f0f"/><path d="M11 1v22h1V1h-1z" fill="#ffc800"/><path d="M12 1v22h1V1h-1z" fill="#ff0"/><path d="M5 0v2h10V0H5z" fill="#64438e"/></svg>