<svg xmlns="http://www.w3.org/2000/svg" viewBox="0 0 13 11"><path d="M1 0v1h1v1h1v1h3v1h1V3h4v1h1v1h1v4h-1v1h-1v1H8v-1H7v1H3v-1H1V9H0V0h1z" fill="#0a040b"/><path d="M12 5v4h-1V5h1z" fill="#0affff"/><path d="M1 1v1h1v1h1v1h3v1H5v1H4v1H0V1h1z" fill="#323232"/><path d="M4 8V7h1V6h1V5h1v5H3V9H1V8h3z" fill="#c5c8cf"/><g fill="#646464"><path d="M10 4v6H8V4h2zM4 4h1v1H4zM0 6h1v1H0zm2 0h1v1H2z"/><path d="M1 5h1v1H1z"/><path d="M0 4h1v1H0zm0-2h1v1H0z"/><path d="M1 3h1v1H1z"/><path d="M2 4h1v1H2z"/><path d="M3 5h1v1H3z"/></g><path d="M5 7v3H4V7h1z" fill="#0affff"/><path d="M2 8h1v1H2zm4-2v4H5V6h1z" fill="#646464"/><path d="M10 4v6H9V4h1z" fill="#c5c8cf"/></svg>