<svg xmlns="http://www.w3.org/2000/svg" viewBox="0 0 11 14"><path d="M5 1H4v1H3v4h1v1H3v3H2v1H1v1H0v2h8v-1h1v-1h1v-2h1V6h-1V5h1V2h-1V1H9V0H5v1z" fill="#0a040b"/><g fill="#323232"><path d="M5 2h4V1H5v1zm1 6H5V7H4v3H3v1H2v1H1v2h6V9H6V8z"/><path d="M6 7v1h1v1h1v3h1v-2h1V6H5v1h1zM4 5h6V3H4v2z"/></g><path d="M5 2h4V1H5v1zm3 7h2V8H7v1h1z" fill="#0affff"/><path d="M9 10h1V9H8v1h1zm-1 1h1v1H8zM6 7h4V6H5v1h1zM4 4h6V3H4v1z" fill="#c5c8cf"/><g fill="#646464"><path d="M4 8h1v1H4zm2 4h1v1H6zm2-2h1v1H8zm-2 0h1v1H6z"/><path d="M5 11h1v1H5z"/><path d="M4 12h1v1H4zm-2 0h1v1H2z"/><path d="M3 11h1v1H3z"/><path d="M4 10h1v1H4zm3-2h3V7H6v1h1z"/><path d="M5 9h1v1H5zm0 4h1v1H5zm-2 0h1v1H3zm-2 0h1v1H1zm3-8h6V4H4v1z"/></g></svg>