<svg xmlns="http://www.w3.org/2000/svg" viewBox="0 0 13 11"><path d="M12 0v1h-1v1h-1v1H7v1H6V3H2v1H1v1H0v4h1v1h1v1h3v-1h1v1h4v-1h2V9h1V0h-1z" fill="#0a040b"/><path d="M1 5v4h1V5H1z" fill="#0affff"/><path d="M12 1v1h-1v1h-1v1H7v1h1v1h1v1h4V1h-1z" fill="#323232"/><path d="M9 8V7H8V6H7V5H6v5h4V9h2V8H9z" fill="#c5c8cf"/><g fill="#646464"><path d="M3 4v6h2V4H3zm5 0h1v1H8zm4 2h1v1h-1zm-2 0h1v1h-1z"/><path d="M11 5h1v1h-1z"/><path d="M12 4h1v1h-1zm0-2h1v1h-1z"/><path d="M11 3h1v1h-1z"/><path d="M10 4h1v1h-1z"/><path d="M9 5h1v1H9z"/></g><path d="M8 7v3h1V7H8z" fill="#0affff"/><path d="M10 8h1v1h-1zM7 6v4h1V6H7z" fill="#646464"/><path d="M3 4v6h1V4H3z" fill="#c5c8cf"/></svg>