<svg xmlns="http://www.w3.org/2000/svg" viewBox="0 0 11 14"><path d="M6 1h1v1h1v4H7v1h1v3h1v1h1v1h1v2H3v-1H2v-1H1v-2H0V6h1V5H0V2h1V1h1V0h4v1z" fill="#0a040b"/><g fill="#323232"><path d="M6 2H2V1h4v1zM5 8h1V7h1v3h1v1h1v1h1v2H4V9h1V8z"/><path d="M5 7v1H4v1H3v3H2v-2H1V6h5v1H5zm2-2H1V3h6v2z"/></g><path d="M6 2H2V1h4v1zM3 9H1V8h3v1H3z" fill="#0affff"/><path d="M2 10H1V9h2v1H2zm0 1h1v1H2zm3-4H1V6h5v1H5zm2-3H1V3h6v1z" fill="#c5c8cf"/><g fill="#646464"><path d="M6 8h1v1H6zm-2 4h1v1H4zm-2-2h1v1H2zm2 0h1v1H4z"/><path d="M5 11h1v1H5z"/><path d="M6 12h1v1H6zm2 0h1v1H8z"/><path d="M7 11h1v1H7z"/><path d="M6 10h1v1H6zM4 8H1V7h4v1H4z"/><path d="M5 9h1v1H5zm0 4h1v1H5zm2 0h1v1H7zm2 0h1v1H9zM7 5H1V4h6v1z"/></g></svg>