<svg xmlns="http://www.w3.org/2000/svg" viewBox="0 0 13 11"><path d="M1 11v-1h1V9h1V8h3V7h1v1h4V7h1V6h1V2h-1V1h-1V0H8v1H7V0H3v1H1v1H0v9h1z" fill="#0a040b"/><path d="M12 6V2h-1v4h1z" fill="#0affff"/><path d="M1 10V9h1V8h1V7h3V6H5V5H4V4H0v6h1z" fill="#323232"/><path d="M4 3v1h1v1h1v1h1V1H3v1H1v1h3z" fill="#c5c8cf"/><g fill="#646464"><path d="M10 7V1H8v6h2zM4 6h1v1H4zM0 4h1v1H0zm2 0h1v1H2z"/><path d="M1 5h1v1H1z"/><path d="M0 6h1v1H0zm0 2h1v1H0z"/><path d="M1 7h1v1H1z"/><path d="M2 6h1v1H2z"/><path d="M3 5h1v1H3z"/></g><path d="M5 4V1H4v3h1z" fill="#0affff"/><path d="M2 2h1v1H2zm4 3V1H5v4h1z" fill="#646464"/><path d="M10 7V1H9v6h1z" fill="#c5c8cf"/></svg>