<svg xmlns="http://www.w3.org/2000/svg" viewBox="0 0 14 11"><path d="M13 5V4h-1V3H8v1H7V3H4V2H3V1H2V0H0v8h1v1h1v1h2v1h4v-1h1v1h3v-1h1V9h1V5h-1z" fill="#0a040b"/><g fill="#323232"><path d="M12 5v4h1V5h-1zM6 6V5h1V4H4V3H3V2H2V1H0v6h5V6h1z"/><path d="M7 6H6v1H5v1H2v1h2v1h4V5H7v1zm2-2v6h2V4H9z"/></g><path d="M12 5v4h1V5h-1zM5 8v2h1V7H5v1z" fill="#0affff"/><path d="M4 9v1h1V8H4v1zM2 8h1v1H2zm5-2v4h1V5H7v1zm3-2v6h1V4h-1z" fill="#c5c8cf"/><g fill="#646464"><path d="M5 4h1v1H5zM1 6h1v1H1zm2 2h1v1H3zm0-2h1v1H3z"/><path d="M2 5h1v1H2z"/><path d="M1 4h1v1H1zm0-2h1v1H1z"/><path d="M2 3h1v1H2z"/><path d="M3 4h1v1H3zm3 3v3h1V6H6v1z"/><path d="M4 5h1v1H4zM0 5h1v1H0zm0-2h1v1H0zm0-2h1v1H0zm9 3v6h1V4H9z"/></g></svg>