<svg xmlns="http://www.w3.org/2000/svg" viewBox="0 0 14 11"><path d="M1 5V4h1V3h4v1h1V3h3V2h1V1h1V0h2v8h-1v1h-1v1h-2v1H6v-1H5v1H2v-1H1V9H0V5h1z" fill="#0a040b"/><g fill="#323232"><path d="M2 5v4H1V5h1zm6 1V5H7V4h3V3h1V2h1V1h2v6H9V6H8z"/><path d="M7 6h1v1h1v1h3v1h-2v1H6V5h1v1zM5 4v6H3V4h2z"/></g><path d="M2 5v4H1V5h1zm7 3v2H8V7h1v1z" fill="#0affff"/><path d="M10 9v1H9V8h1v1zm1-1h1v1h-1zM7 6v4H6V5h1v1zM4 4v6H3V4h1z" fill="#c5c8cf"/><g fill="#646464"><path d="M8 4h1v1H8zm4 2h1v1h-1zm-2 2h1v1h-1zm0-2h1v1h-1z"/><path d="M11 5h1v1h-1z"/><path d="M12 4h1v1h-1zm0-2h1v1h-1z"/><path d="M11 3h1v1h-1z"/><path d="M10 4h1v1h-1zM8 7v3H7V6h1v1z"/><path d="M9 5h1v1H9zm4 0h1v1h-1zm0-2h1v1h-1zm0-2h1v1h-1zM5 4v6H4V4h1z"/></g></svg>