<svg xmlns="http://www.w3.org/2000/svg" viewBox="0 0 13 11"><path d="M12 11v-1h-1V9h-1V8H7V7H6v1H2V7H1V6H0V2h1V1h1V0h3v1h1V0h4v1h2v1h1v9h-1z" fill="#0a040b"/><path d="M1 6V2h1v4H1z" fill="#0affff"/><path d="M12 10V9h-1V8h-1V7H7V6h1V5h1V4h4v6h-1z" fill="#323232"/><path d="M9 3v1H8v1H7v1H6V1h4v1h2v1H9z" fill="#c5c8cf"/><g fill="#646464"><path d="M3 7V1h2v6H3zm5-1h1v1H8zm4-2h1v1h-1zm-2 0h1v1h-1z"/><path d="M11 5h1v1h-1z"/><path d="M12 6h1v1h-1zm0 2h1v1h-1z"/><path d="M11 7h1v1h-1z"/><path d="M10 6h1v1h-1z"/><path d="M9 5h1v1H9z"/></g><path d="M8 4V1h1v3H8z" fill="#0affff"/><path d="M10 2h1v1h-1zM7 5V1h1v4H7z" fill="#646464"/><path d="M3 7V1h1v6H3z" fill="#c5c8cf"/></svg>