<svg xmlns="http://www.w3.org/2000/svg" viewBox="0 0 24 19"><path d="M2 8v2h2V4h2v2h3V4h1V2h1V0h2v2h1v2h1v2h3V4h2v6h2V8h2v11h-2v-2h-2v-2h-5v-2H9v2H4v2H2v2H0V8h2z"/><path d="M2,8v2h2v7H2v2H0V8H2z" fill="#191919"/><path d="M4 17H3v-7h1v7zm-2 2H1V8h1v11z"/><path d="M6,4v2h3v9H4V4H6z" fill="#191919"/><path d="M6 15H5V4h1v11zm2 0H7V6h1v9z"/><path d="M22 10V8h2v11h-2v-2h-2v-7h2z" fill="#191919"/><path d="M22 10h-1v7h1v-7zm2-2h-1v11h1V8zm-6-2V4h2v11h-5V6h3z"/><path d="M17 15h-1V6h1v9zm2 0h-1V4h1v11z" fill="#191919"/><path d="M10 4V2h1V0h2v2h1v2h1v9H9V4h1z"/><path d="M13 13h-1V0h1v13zm2 0h-1V4h1v9zm-4 0h-1V2h1v11z" fill="#191919"/></svg>