<svg xmlns="http://www.w3.org/2000/svg" viewBox="0 0 42 28"><path d="M38 6v2h-2V6h-2V4h-4V2h-4V0H16v2h-4v2H8v2H6v2H4V6H0v10h2v2h2v10h2v-2h30v2h2V18h2v-2h2V6z" fill="#0f5a87"/><path d="M34,8V6h-4V4h-4V2H16v2h-4v2H8v2H6v18h30V8H34z" fill="#0fa9c9"/><path d="M16 16h-4v2h-2v4h2v2h4v-2h2v-4h-2v-2zm14 0h-4v2h-2v4h2v2h4v-2h2v-4h-2v-2z" fill="#0f5a87"/><g fill="#fff"><path d="M38 8h2v8h-2V8zM2 8h2v8H2V8zm19.5-1h1v2h-1V7zm-2 0h1v2h-1V7z"/><path d="M22.5 9h1v2h-1V9zm-2-3h1v1h-1V6z"/><path d="M18.5 10h-2v1h1v2h1v-2h2v-1h-1V9h-1v1zm5 1h1v2h-1v-2z"/><path d="M16.5 13h1v2h-1v-2zm8 0h1v2h-1v-2zM12 16h2v2h-2v-2z"/><path d="M10 18h2v2h-2v-2zm16-2h2v2h-2v-2z"/><path d="M24,18h2v2h-2V18z"/></g></svg>