<svg xmlns="http://www.w3.org/2000/svg" viewBox="0 0 46 21"><path d="M37 1v1h-1v1h-1v1h-1v1h-1v1h-1v1h-2v1h-3v1h-8V8h-3V7h-2V6h-1V5h-1V4h-1V3h-1V2H9V1H6v2h1v1h1v1h1v6H8v1H7v1H6v8h34v-8h-1v-1h-1v-1h-1V5h1V4h1V3h1V1h-3z"/><g fill="#7e18f8"><path d="M22 10.3v.7h-.7v1.4h-.7v1.4h-.7v.7H22v1.4h-.7v1.4h-.7v1.4h.7V18h.7v-.7h.7v-.7h.7v-.7h.7v-.7h.7v-.7h.7v-.7h-2.1v-.7h.7v-.7h.7v-.7h.7V11h.7v-.7H22z"/><path d="M19.9 18.7v.7h.7v-.7h-.7z"/></g><path d="M22 10.3v.7h-.7v1.4h3.5v-.7h.7V11h.7v-.7H22z" fill="#fa34f3"/><path d="M23.4 13.8v-.7h.7v-.7h-3.5v1.4h-.7v.7h5.6v-.7c.1 0-1.5 0-2.1 0z" fill="#cf15f9"/><path d="M22 14.5v1.4h2.1v-.7h.7v-.7H22z" fill="#ac15f9"/><path d="M21.3 15.9v1.4h1.4v-.7h.7v-.7h-2.1z" fill="#8f17f9"/></svg>