<svg xmlns="http://www.w3.org/2000/svg" viewBox="0 0 50 20"><path d="M44 14v-2h-2V6h-2V4h-2V2h-2V0H14v2h-2v2h-2v2H8v6H6v2H0v4h2v2h46v-2h2v-4h-6z"/><g fill="#fff"><path d="M30 16h2v-2h-2v2zm-12-2v2h2v-2h-2zm2-8h-2v2h2V6z"/><path d="M29 7h-1V6h-6v1h-1v1h-1v6h1v2h1v-1h1v1h1v-1h2v1h1v-1h1v1h1v-2h1V8h-1V7zm-1 3h-1v1h-1V9h2v1zm-6-1h2v2h-1v-1h-1V9z"/><path d="M30 6v2h2V6h-2z"/></g><g fill="#fcb040"><path d="M40 14v2h10v-2H40zM0 14v2h10v-2H0z"/><path d="M10 6v8h2V6h-2z"/><path d="M12 4v2h2V4h-2zm26 0h-2v2h2V4z"/><path d="M36 2H14v2h22V2zm4 4h-2v8h2V6z"/></g></svg>