<svg xmlns="http://www.w3.org/2000/svg" viewBox="0 0 44 24"><path d="M17 10h-2V8h-2V6h-2V4H9V2H8V0H4v1h1v1h-.5v8H5v14h4v-2h5v2h5V10h-2zM36 0v2h-1v2h-2v2h-2v2h-2v2h-4v14h5v-2h5v2h4V10h.5V2H39V1h1V0h-4z" fill="#3c0000"/><path d="M15 12h-2v-2h-2V8H9V6H7V4H6v18h3v-2h5v2h1v-4h2v-2h-2v-4zm-1 4h-2v-1h2v1zm-6-1h3v1H8v-1zm0-2h1v1H8v-1zm0-2h1v1H8v-1zm3 3h-1v-1h1v1zm2 0h-1v-1h1v1zm-2-2h-1v-1h1v1zm-1 7H8v-1h3v1h-1zm4 0h-2v-1h2v1zM37 4v2h-2v2h-2v2h-2v2h-2v4h-2v2h2v4h1v-2h5v2h3V4h-1zm-1 8h-1v-1h1v1zm0 2h-1v-1h1v1zm0 2h-3v-1h3v1zm-6-1h2v1h-2v-1zm3-2h1v1h-1v-1zm1-2v1h-1v-1h1zm-2 2v1h-1v-1h1zm-1 6h-1v-1h2v1h-1zm3 0h-1v-1h3v1h-2z" fill="#500"/><g fill="#fcb040"><path d="M11 6H9v2h2V6zm-3 7h1v1H8zm1 2H8v1h3v-1H9zm1-2h1v1h-1z"/><path d="M12 13h1v1h-1zm0 2v1h2v-1h-2zm1-7h-2v2h2V8z"/><path d="M15 10h-2v2h2v-2zm-7 1h1v1H8z"/><path d="M9 4H7v2h2V4zm6 8v4h2v-4h-2zm-6 6H8v1h3v-1H9zm3 0v1h2v-1h-2z"/><path d="M15 18v4h2v-4h-2zm-5-7h1v1h-1zM7 2H5v2h2V2zm26 4v2h2V6h-2zm2 7h1v1h-1zm-1 2h-1v1h3v-1h-2zm-1-2h1v1h-1zm-2 0h1v1h-1z"/><path d="M30 15v1h2v-1h-2zm1-7v2h2V8h-2z"/><path d="M29 10v2h2v-2h-2z"/><path d="M27 12v4h2v-4h-2zm8-1h1v1h-1zm0-7v2h2V4h-2zm-1 14h-1v1h3v-1h-2z"/><path d="M30 18v1h2v-1h-2zm-3 0v4h2v-4h-2zm6-7h1v1h-1zm4-9v2h2V2h-2z"/></g></svg>