<svg xmlns="http://www.w3.org/2000/svg" viewBox="0 0 25 24"><path d="M23 8V6h-2V4h-2V2h-1V0H0v1h1v23h3v-2h3v2h4v-2h4v2h4v-2h3v2h3V8h-2z" fill="#3c0000"/><g fill="#fcb040"><path d="M21 6h-2v2h2V6zm-3 7h1v1h-1zm1 2h-1v1h3v-1h-2zm1-2h1v1h-1z"/><path d="M22 13h1v1h-1zm0 2v1h2v-1h-2zm1-7h-2v2h2V8z"/><path d="M24 10h-1v2h2v-2h-1zm-6 1h1v1h-1zm1-7h-2v2h2V4zm0 14h-1v1h3v-1h-2z"/><path d="M22 18v1h2v-1h-2zm-2-7h1v1h-1zm-3-9h-6v2h6V2zM8 2H1v2h9V2H8z"/></g><path d="M24 12h-1v-2h-2V8h-2V6h-2V4h-6v16h4v2h4v-2h3v2h3V12h-1zm-1 2h-1v-1h1v1zm-4-2h-1v-1h1v1zm0 2h-1v-1h1v1zm2 2h-3v-1h3v1zm-1-2v-1h1v1h-1zm1-2h-1v-1h1v1zm-1 7h-2v-1h3v1h-1zm4 0h-2v-1h2v1zm0-3h-2v-1h2v1zM8 4H1v18h3v-2h3v2h3V4H8z" fill="#500"/></svg>