<svg xmlns="http://www.w3.org/2000/svg" viewBox="0 0 25 24"><path d="M2 8V6h2V4h2V2h1V0h18v1h-1v23h-3v-2h-3v2h-4v-2h-4v2H6v-2H3v2H0V8h2z" fill="#3c0000"/><g fill="#fcb040"><path d="M4 6h2v2H4V6zm2 7h1v1H6zm0 2h1v1H4v-1h2zm-2-2h1v1H4z"/><path d="M2 13h1v1H2zm1 2v1H1v-1h2zM2 8h2v2H2V8z"/><path d="M1 10h1v2H0v-2h1zm5 1h1v1H6zm0-7h2v2H6V4zm0 14h1v1H4v-1h2z"/><path d="M3 18v1H1v-1h2zm1-7h1v1H4zm4-9h6v2H8V2zm9 0h7v2h-9V2h2z"/></g><path d="M0 12v10h3v-2h3v2h4v-2h4V4H8v2H6v2H4v2H2v2H1 0zm2 1h1v1H2v-1zm4-2h1v1H6v-1zm0 2h1v1H6v-1zm-2 2h3v1H4v-1zm0-1v-1h1v1H4zm0-3h1v1H4v-1zm0 8v-1h3v1H5 4zm-3-1h2v1H1v-1zm0-3h2v1H1v-1zM17 4h7v18h-3v-2h-3v2h-3V4h2z" fill="#500"/></svg>