<?xml version="1.0" encoding="utf-8"?>
<!-- Generator: Adobe Illustrator 25.3.1, SVG Export Plug-In . SVG Version: 6.00 Build 0)  -->
<svg version="1.1" id="Layer_1" xmlns="http://www.w3.org/2000/svg" xmlns:xlink="http://www.w3.org/1999/xlink" x="0px" y="0px"
	 viewBox="0 0 34 22" style="enable-background:new 0 0 34 22;" xml:space="preserve">
<style type="text/css">
	.st0{fill:#FF0000;}
	.st1{fill:#FFFFFF;}
</style>
<path d="M26,5v1h-2v1h-2l0,0h-1v1h-2v1h-4V8h-2V7h-1l0,0h-2V6H8V5H7V4H6V3H5V2H4V1H3V0H0v22h4v-2h5v2h5v-2h6v2h5v-2h5v2h4V0h-3v1h-1
	v1h-1v1h-1v1h-1v1H26z"/>
<path class="st0" d="M32,1v19h1V1H32z M29,4h-1v1h-1v1h-1v1h-2v1h-2l0,0h-1v1h-2v1h-4V9h-2V8h-1l0,0h-2V7H8V6H7V5H6V4H5V3H4v16h6v1
	h3v-1h8v1h3v-1h6v-2h-5v-1h5V3h-1V4z M1,20h1V1H1V20z"/>
<path d="M18,15.5v1h2v-1H18z M15,13.5h-1v1h2v-2h-1V13.5z M20,12.5h1v1h-1V12.5z"/>
<path d="M18,11.5v1h2v-1H18z M18,13.5v1h2v-1H18z M13,11.5v1h2v-1H13z M13,16.5h3v-1h-2v-1h-1V16.5z"/>
<path d="M20,14.5h1v1h-1V14.5z"/>
<g>
	<path class="st1" d="M32,20h1v1h-1V20z M30,20h1V2h-1V20z M21,20v1h3v-1H21z M1,20h1v1H1V20z M3,20h1V2H3V20z M10,20v1h3v-1H10z"/>
</g>
</svg>
