<svg xmlns="http://www.w3.org/2000/svg" viewBox="0 0 24 22"><path d="M23 6h-1V5h-1V4h-1V3h-1V2h-1V1h-1V0H4v1H3v1H2v1H0v19h3v-2h3v2h2 0 2v-2h4v2h4v-2h3v2h3V6h-1zm-9-3v8h-1v1H9v-1H8V3h1V2h4v1h1z"/><path d="M16 18V1h-1v18h1v-1zm7-11h-1V6h-1V5h-1V4h-1V3h-1V2h-1v17h5v2h2V7h-1zm-10 5v1H9v-1H8v7h6v-7h-1zm2 8v1h2v-1h-2zM8 1h1v1H8zm5 0h1v1h-1zM8 20H7v1h1 0 1v-1zm-1-2V1H6v18h1v-1zM4 2H3v1H2v1H0v17h2v-2h3V1H4v1z" fill="red"/><path d="M15 21h2v-1h-2v1zm2-2h1V2h-1v17zm5 1v1h2v-1h-2zM7 20h2v1H7zm-3-1h1V1H4v18zm-4 2h2v-1H0v1z" fill="#fff"/></svg>