<svg xmlns="http://www.w3.org/2000/svg" viewBox="0 0 34 22"><path d="M26 5v1h-2v1h-2 0-1v1h-2v1h-4V8h-2V7h-1 0-2V6H8V5H7V4H6V3H5V2H4V1H3V0H0v22h4v-2h5v2h5v-2h6v2h5v-2h5v2h4V0h-3v1h-1v1h-1v1h-1v1h-1v1h-1z"/><path d="M32 1v19h1V1h-1zm-3 3h-1v1h-1v1h-1v1h-2v1h-2 0-1v1h-2v1h-4V9h-2V8h-1 0-2V7H8V6H7V5H6V4H5V3H4v16h6v1h3v-1h8v1h3v-1h6v-2h-5v-1h5V3h-1v1zM1 20h1V1H1v19z" fill="red"/><path d="M18 15.5v1h2v-1h-2zm-3-2h-1v1h2v-2h-1v1zm5-1h1v1h-1z"/><path d="M18 11.5v1h2v-1h-2zm0 2v1h2v-1h-2zm-5-2v1h2v-1h-2zm0 5h3v-1h-2v-1h-1v2z"/><path d="M20 14.5h1v1h-1z"/><g fill="#fff"><path d="M32 20h1v1h-1zm-2 0h1V2h-1v18zm-9 0v1h3v-1h-3zM1 20h1v1H1zm2 0h1V2H3v18zm7 0v1h3v-1h-3zm-4-8h1v1H6zm3-3h1v1H9z"/><path d="M8 10h1v1H8z"/><path d="M7 11h1v1H7zm-2 0h1v1H5z"/></g></svg>