<svg xmlns="http://www.w3.org/2000/svg" viewBox="0 0 24 22"><path d="M0 6v16h3v-2h3v2h4v-2h4v2h2 0 2v-2h3v2h3V3h-2V2h-1V1h-1V0H7v1H6v1H5v1H4v1H3v1H2v1H1 0zm11-3V2h4v1h1v8h-1v1h-4v-1h-1V3h1z"/><path d="M8 18V1h1v18H8v-1zM1 7h1V6h1V5h1V4h1V3h1V2h1v17H2v2H0V7h1zm10 5v1h4v-1h1v7h-6v-7h1zm-2 8v1H7v-1h2zm6-19h1v1h-1zm-5 0h1v1h-1zm6 19h1v1h-1 0-1v-1zm1-2V1h1v18h-1v-1zm3-16h1v1h1v1h2v17h-2v-2h-3V1h1v1z" fill="red"/><path d="M9 21H7v-1h2v1zm-2-2H6V2h1v17zm-5 1v1H0v-1h2zm13 0h2v1h-2zm5-1h-1V1h1v18zm4 2h-2v-1h2v1z" fill="#fff"/></svg>