<svg xmlns="http://www.w3.org/2000/svg" viewBox="0 0 34 22"><path d="M8 4V3H6V2H5V1H4V0H0v22h4v-2h5v2h5v-2h6v2h5v-2h5v2h4V0h-4v1h-1v1h-1v1h-2v1h-2v1h-4v1h-6V5h-4V4H8z"/><path d="M31 1h-1v1h-1v1h-1v1h-1 0-1v1h-2v1h-2 0-1 0-1v1h-6V6h-1 0-1 0-2V5H8V4H7h0-1V3H5V2H4V1H3v19h1v-1h6v2h3v-2h8v2h3v-2h6v1h1V1zM21 11h-2v-1h1V8h1v3zm-8-3h5v3h-1V9h-1v2h-1V9h-1v2h-1V8zm19-7v20h1V1h-1zM1 21h1V1H1v20z" fill="red"/><path d="M18 16v1h2v-1h-2zm-3-2h-1v1h2v-2h-1v1zm5-1h1v1h-1z"/><path d="M18 12v1h2v-1h-2zm1 2h-1v1h2v-1h-1zm-5-2h-1v1h2v-1h-1zm-1 4v1h3v-1h-2v-1h-1v1z"/><path d="M20 15h1v1h-1z"/><path d="M32 20h1v1h-1zm-10 0h-1v1h3v-1h-2zm8-19v19h1V1h-1zM1 20h1v1H1zm2 0h1V1H3v19zm8 0h-1v1h3v-1h-2z" fill="#fff"/></svg>