<svg xmlns="http://www.w3.org/2000/svg" viewBox="0 0 12 26"><g fill="#e4c599"><path d="M4,14v-1H2v1h1H4z"/><path d="M5 11H4v2h1v-2zM3 9v1h2V9H3z"/><path d="M3,9H2V8h1V9z"/><path d="M2,8H1V7h1V8z"/><path d="M0,3v4h1V3H0z"/><path d="M2,3H1V2h1V3z"/><path d="M3,2H2V1h1V2z"/><path d="M9 1V0H3v1h4 2zm2 2h-1V2h1v1z"/><path d="M10 2H9V1h1v1zm1 5h1V3h-1v2 2z"/><path d="M11,8h-1V7h1V8z"/><path d="M10,9H9V8h1V9z"/><path d="M7,9v1h2V9H8H7z"/><path d="M5 10v1h2v-1H5zm-3 4H1v2h1v-2z"/><path d="M1 16H0v3h1v-1-2z"/><path d="M2 20H1v-1h1v1z"/><path d="M2,20v1h4v-1H4H2z"/><path d="M7 22H6v-1h1v1z"/><path d="M8 22H7v2h1v-1-1z"/><path d="M7 25H6v-1h1v1z"/><path d="M6 26H5v-1h1v1z"/></g><path d="M5 13H4v-1h1v1zm1-2H5v-1h1v1zm-2-1H3V9h1v1zM2 8H1V7h1v1zM1 6H0V5h1v1zm0-2H0V3h1v1zm2-2H2V1h1v1zm2-1H4V0h1v1zm2 0H6V0h1v1zm2 0H8V0h1v1zm2 2h-1V2h1v1zm1 2h-1V4h1v1zm0 2h-1V6h1v1zm-2 2H9V8h1v1zm-2 1H7V9h1v1zm-5 4H2v-1h1v1zm-1 2H1v-1h1v1zm-1 2H0v-1h1v1zm1 2H1v-1h1v1zm2 1H3v-1h1v1zm2 0H5v-1h1v1zm2 2H7v-1h1v1zm-1 2H6v-1h1v1z" fill="#a97955"/></svg>