<svg xmlns="http://www.w3.org/2000/svg" viewBox="0 0 12 26"><g fill="#a97955"><path d="M3 14H2v-1h2v1H3z"/><path d="M5 13H4v-2h1v2zm0-4v1H3V9h2z"/><path d="M2 8h1v1H2z"/><path d="M1 7h1v1H1z"/><path d="M1 3v4H0V3h1z"/><path d="M1 2h1v1H1z"/><path d="M2 1h1v1H2z"/><path d="M7 1H3V0h6v1H7zm3 1h1v1h-1z"/><path d="M9 1h1v1H9zm2 4V3h1v4h-1V5z"/><path d="M10 7h1v1h-1z"/><path d="M9 8h1v1H9z"/><path d="M8 9h1v1H7V9h1z"/><path d="M7 10v1H5v-1h2zm-5 6H1v-2h1v2z"/><path d="M1 18v1H0v-3h1v2z"/><path d="M1 19h1v1H1z"/><path d="M4 20h2v1H2v-1h2z"/><path d="M6 21h1v1H6z"/><path d="M8 23v1H7v-2h1v1z"/><path d="M6 24h1v1H6z"/><path d="M5 25h1v1H5z"/></g><path d="M3 13h1v1H3zm1-2h1v1H4zm0-2h1v1H4zM2 8h1v1H2zM0 6h1v1H0zm0-2h1v1H0zm1-2h1v1H1zm2-2h1v1H3zm2 0h1v1H5zm2 0h1v1H7zm2 1h1v1H9zm2 2h1v1h-1zm0 2h1v1h-1zm-1 2h1v1h-1zM8 9h1v1H8zm-2 1h1v1H6zm-5 4h1v1H1zm-1 2h1v1H0zm0 2h1v1H0zm2 2h1v1H2zm2 0h1v1H4zm2 1h1v1H6zm1 2h1v1H7zm-2 2h1v1H5z" fill="#e4c599"/></svg>