<svg xmlns="http://www.w3.org/2000/svg" viewBox="0 0 12 26"><g fill="#e4c599"><path d="M9 14h1v-1H8v1h1z"/><path d="M7 13h1v-2H7v2zm0-4v1h2V9H7z"/><path d="M9 8h1v1H9z"/><path d="M10 7h1v1h-1z"/><path d="M11 3v4h1V3h-1z"/><path d="M10 2h1v1h-1z"/><path d="M9 1h1v1H9z"/><path d="M5 1h4V0H3v1h2zM1 2h1v1H1z"/><path d="M2 1h1v1H2zM1 5V3H0v4h1V5z"/><path d="M1 7h1v1H1z"/><path d="M2 8h1v1H2z"/><path d="M4 9H3v1h2V9H4z"/><path d="M5 10v1h2v-1H5zm5 6h1v-2h-1v2z"/><path d="M11 18v1h1v-3h-1v2z"/><path d="M10 19h1v1h-1z"/><path d="M8 20H6v1h4v-1H8z"/><path d="M5 21h1v1H5z"/><path d="M4 23v1h1v-2H4v1z"/><path d="M5 24h1v1H5z"/><path d="M6 25h1v1H6z"/></g><path d="M7 12h1v1H7zm-1-2h1v1H6zm2-1h1v1H8zm2-2h1v1h-1zm1-2h1v1h-1zm0-2h1v1h-1zM9 1h1v1H9zM7 0h1v1H7zM5 0h1v1H5zM3 0h1v1H3zM1 2h1v1H1zM0 4h1v1H0zm0 2h1v1H0zm2 2h1v1H2zm2 1h1v1H4zm5 4h1v1H9zm1 2h1v1h-1zm1 2h1v1h-1zm-1 2h1v1h-1zm-2 1h1v1H8zm-2 0h1v1H6zm-2 2h1v1H4zm1 2h1v1H5z" fill="#a97955"/></svg>