<svg xmlns="http://www.w3.org/2000/svg" viewBox="0 0 50 24"  xmlns:v="https://vecta.io/nano"><g fill="#0f5a87"><path d="M42 6h-2v16h-2v2h4zM12 20h5v2h-5z"/><path d="M33 20h5v2h-5zm-16 2h5v2h-5z"/><path d="M22 20h6v2h-6z"/><path d="M28 22h5v2h-5zM8 24h4v-2h-2V6H8z"/></g><g fill="#0fa9c9"><path d="M10 22h2v-2h5v-2h5v2h6v-2h5v2h5v2h2v-6H10zM42 3h-4v2h-2v2h-6v2h-4v1h1v1h1v1h-1v2h13V6h2z"/><path d="M24 10h2v1h-2zm0 2h2v2h-2z"/><path d="M8 6h2v8h13v-2h-1v-1h1v-1h1V9h-4V7h-6V5h-2V3H8z"/></g><g fill="#fff"><path d="M38 14h2v2h-2zm-11-4h-1v1h-2v-1h-1v1h-1v1h1v2h-1v2h2v-4h2v4h2v-2h-1v-2h1v-1h-1zm-17 4h2v2h-2zm4 0h2v2h-2z"/><path d="M18 14h2v2h-2zm12 0h2v2h-2zm4 0h2v2h-2zM24 9h2v1h-2z"/></g><path d="M24 14v2h2v-2h-2zm-4 0v2h2v-2h-2zm-8 0v2h2v-2h-2zm20 0v2h2v-2h-2zm4 0v2h2v-2h-2zm-8 4v4h5v-4h-5zm-11 0v4h5v-4h-5zm1-2v-2h-2v2h2zm12 0v-2h-2v2h2z" fill="#a73796"/></svg>