<svg xmlns="http://www.w3.org/2000/svg" viewBox="0 0 50 24"><path d="M38 3v2h-2v2h-6v2H20V7h-6V5h-2V3H7.5v7H8v14h4v-2h5v2h5v-2h6v2h5v-2h5v2h4V10h.5V3H38z" fill="#0fa9c9"/><g fill="#0f5a87"><path d="M42.5 6H40v16h-2v2h4V10h.5V6zM12 20h5v2h-5v-2z"/><path d="M33 20h5v2h-5v-2zm-16 2h5v2h-5v-2z"/><path d="M22,20h6v2h-6V20z"/><path d="M28 22h5v2h-5v-2zM8 24h4v-2h-2V6H7.5v4H8v14z"/></g><g fill="#fff"><path d="M27 14v-2h1v-1h-1v-1h-1v1h-2v-1h-1v1h-1v1h1v2H10v2h30v-2H27zm-1 0h-2v-2h2v2z"/><path d="M24,9h2v1h-2V9z"/></g><path d="M24 14v2h2v-2h-2zm-4 0v2h2v-2h-2zm-8 0v2h2v-2h-2zm20 0v2h2v-2h-2zm4 0v2h2v-2h-2zm-8 4v4h5v-4h-5zm-11 0v4h5v-4h-5zm1-2v-2h-2v2h2zm12 0v-2h-2v2h2z" fill="#a73796"/></svg>