<svg xmlns="http://www.w3.org/2000/svg" viewBox="0 0 26 15"><path d="M25 13v-1h-1V5h1V0h-1v1H0v14h3v-2h3v2h4v-2h4v2h12v-2h-1z" fill="#001e6e"/><g fill="#334b8b"><path d="M10 4H1v1h3v4H3v1H1v3h2v-2h3v2h4v-2h2V4h-2zm6 0h-3v7h1v2h4V4h-2zm5 1V4h-2v3h2V5z"/><path d="M22 4v3h-1v1h-2v3h2v2h2V4h-1zM3 7V6H1v3h2V7z"/></g><path d="M18 3h6v2h1V0h-1v2H1v1h17zm7 10v-1h-1V9h-1V8h-1V7h-4v4h-1v1h1v1h-1v1h1v1h8v-2h-1z" fill="#4b2d00"/><g fill="#a97955"><path d="M11 2v1h2V2h-2zM3 2v1h2V2H3zm4 0v1h2V2H7zm16 0h1v1h-1zm-6 0h-2v1h2V2zm4 1V2h-2v1h2zm2 5h-1V7h-3v5h5V9h-1V8zm-6 5h1v1h-1zm0-2h1v1h-1z"/><path d="M18 12h1v1h-1z"/></g><path d="M23 9v3h1V9h-1z" fill="#8b4b1a"/><g fill="#e4c599"><path d="M19 9h1v1h-1zm0 2h1v1h-1zm-2 2h1v1h-1zm0-2h1v1h-1z"/><path d="M18 12h1v1h-1z"/></g></svg>