<svg xmlns="http://www.w3.org/2000/svg" viewBox="0 0 34 14"><path d="M0 0v14h4v-2h4v2h7v-2h4v2h7v-2h4v2h4V0H0z" fill="#001e6e"/><g fill="#334b8b"><path d="M1 3v9h3v-2h5v2h5v-2h2V3H1zm3 6V8H3V4h6v4H8v1H4z"/><path d="M8 8V5H4v3h4zm10-5v7h2v2h5v-2h5v2h3V3H18zm8 6V8h-1V4h6v4h-1v1h-4z"/><path d="M30 8V5h-4v3h4z"/></g><path d="M1 1v1h32V1H1zm24 5h-1v1h-1v1h-1V7h-1V6h-1v6h-1v2h7v-2h-1V6zm-11 5V6h-1v1h-1v1h-1V7h-1V6H9v6H8v2h7v-2h-1v-1z" fill="#4b2d00"/><g fill="#a97955"><path d="M14 1v1h2V1h-2zm6 0h-2v1h2V1zm4 1V1h-2v1h2zM12 1h-2v1h2V1zM6 1v1h2V1H6zM2 1v1h2V1H2zm24 0v1h2V1h-2zm5 0h-1v1h2V1h-1zm-7 6h-1v4h1v-1h1V9h-1V8h1V6h-1v1zm-3-1h-1v2h1v1h-1v1h1v1h1V7h-1V6z"/><path d="M24 11h1v1h-1zm-4 0h1v1h-1zm-7-4h-1v4h1v-1h1V9h-1V8h1V6h-1v1zm-3-1H9v2h1v1H9v1h1v1h1V7h-1V6z"/><path d="M13 11h1v1h-1zm-4 0h1v1H9z"/></g><g fill="#e4c599"><path d="M24 8h1v1h-1zm-4 0h1v1h-1zm4 2h1v1h-1z"/><path d="M23 11h1v1h-1z"/><path d="M22 10h1v1h-1z"/><path d="M21 11h1v1h-1z"/><path d="M20 10h1v1h-1zm2 2h1v1h-1zm-9-4h1v1h-1zM9 8h1v1H9zm4 2h1v1h-1z"/><path d="M12 11h1v1h-1z"/><path d="M11 10h1v1h-1z"/><path d="M10 11h1v1h-1z"/><path d="M9 10h1v1H9zm2 2h1v1h-1z"/></g></svg>