<svg xmlns="http://www.w3.org/2000/svg" viewBox="0 0 34 15"><path d="M20 1V0h-6v1H0v14h4v-2h5v2h5v-2h6v2h5v-2h5v2h4V1H20z" fill="#001e6e"/><g fill="#334b8b"><path d="M14 5V4H4v3H3v1H1v5h3v-2h5v2h5v-2h2V5h-2z"/><path d="M3 5V4H1v3h2V5zm15 1V5h-1v3h1V6zm14-2h-1v3h2V4h-1z"/><path d="M30 6V4H20v1h-1v3h-1v1h-1v2h3v2h5v-2h5v2h3V8h-2V7h-1V6z"/></g><path d="M14 12V7h-1v1h-1v1h-1V8h-1V7H9v6H8v2h7v-2h-1v-1z" fill="#4b2d00"/><path d="M13 7v1h-1v1h-1V8h-1V7H9v6h1v-1h3v1h1V7h-1z" fill="#a97955"/><path d="M11 9v3h1V9h-1z" fill="#8b4b1a"/><path d="M13 9h1v1h-1zM9 9h1v1H9zm4 2h1v1h-1zm-4 0h1v1H9z" fill="#e4c599"/><path d="M25 12V7h-1v1h-1v1h-1V8h-1V7h-1v6h-1v2h7v-2h-1v-1z" fill="#4b2d00"/><path d="M24 7v1h-1v1h-1V8h-1V7h-1v6h1v-1h3v1h1V7h-1z" fill="#a97955"/><path d="M22 9v3h1V9h-1z" fill="#8b4b1a"/><path d="M24 9h1v1h-1zm-4 0h1v1h-1zm4 2h1v1h-1zm-4 0h1v1h-1z" fill="#e4c599"/><path d="M21 2V1h-1V0h-6v1h-1v1H1v1h12v1h1v1h4 0 1 0 1V4h1V3h12V2H21z" fill="#4b2d00"/><path d="M21 2v1h2V2h-2zM11 2v1h2V2h-2zM3 2v1h2V2H3zm4 0v1h2V2H7zm18 0v1h2V2h-2zm4 0v1h2V2h-2zM14 1v3h6V1h-6zm2 2V2h2v1h-2z" fill="#a97955"/><path d="M15 2h1v1h-1zm3 0h1v1h-1z" fill="#e4c599"/></svg>