<svg xmlns="http://www.w3.org/2000/svg" viewBox="0 0 26 15"><path d="M1 13v-1h1V5H1V0h1v1h24v14h-3v-2h-3v2h-4v-2h-4v2H0v-2h1z" fill="#001e6e"/><g fill="#334b8b"><path d="M16 4h9v1h-3v4h1v1h2v3h-2v-2h-3v2h-4v-2h-2V4h2zm-6 0h3v7h-1v2H8V4h2zM5 5V4h2v3H5V5z"/><path d="M4 4v3h1v1h2v3H5v2H3V4h1zm19 3V6h2v3h-2V7z"/></g><path d="M8 3H2v2H1V0h1v2h23v1H8zM1 13v-1h1V9h1V8h1V7h4v4h1v1H8v1h1v1H8v1H0v-2h1z" fill="#4b2d00"/><g fill="#a97955"><path d="M15 2v1h-2V2h2zm8 0v1h-2V2h2zm-4 0v1h-2V2h2zM2 2h1v1H2zm7 0h2v1H9V2zM5 3V2h2v1H5zM3 8h1V7h3v5H2V9h1V8zm5 5h1v1H8zm0-2h1v1H8z"/><path d="M7 12h1v1H7z"/></g><path d="M3 9v3H2V9h1z" fill="#8b4b1a"/><g fill="#e4c599"><path d="M6 9h1v1H6zm0 2h1v1H6zm2 2h1v1H8zm0-2h1v1H8z"/><path d="M7 12h1v1H7z"/></g></svg>