<svg xmlns="http://www.w3.org/2000/svg" viewBox="0 0 40 24"><path d="M37.5 1H37V0H3v1h-.5v17H3v6h4v-1h5v1h5v-1h6v1h5v-1h5v1h4v-6h.5V1z" fill="#4b2d00"/><g fill="#c8c4b7"><path d="M36 10h1v1h-1zm0-10v2h1V0h-1zm-1 6h-1v2h-3v2h-3v2h-3v2h-2v2h1v-1h2v-2h3v-2h3V9h5V6h-2zm1 2h-1V7h1v1zm-2 14v1h2v-1h-2z"/><path d="M34 20v1h2v-1h-2zm1-9v-1h-2v1h2zm-1-9h-1v2h-3v2h-3v2h-3v2h-3v2h-2v-2h-3V8h-3V6h-3V4H7V2H4v3h3v2h3v2h3v2h3v2h2v3h4v-3h2v-2h3V9h3V7h3V5h3V2h-2zM5 4V3h1v1H5zm3 2V5h1v1H8zm3 2V7h1v1h-1zm3 2V9h1v1h-1zm3 2v-1h1v1h-1zm4 2v1h-2v-2h2v1zm2-2h-1v-1h1v1zm3-2h-1V9h1v1zm3-2h-1V7h1v1zm3-2h-1V5h1v1zm3-2h-1V3h1v1zm-5 8v1h2v-1h-2zm-3 2v1h2v-1h-2zm-2 8h1v1h-1zm0-2h1v1h-1zm0-2h1v1h-1zm0-2h1v1h-1zm-2 5h1v1h-1zm0-2h1v1h-1zm0-2h1v1h-1zm-1-9v1h1V7h-1v1zm-2 13h-2v1h4v-1h-2zm0-2h-2v1h4v-1h-2zm0-2h-2v1h4v-1h-2z"/><path d="M21 10V9h-2v1h2zm-2-3v1h2V7h-2zm-2 1v1h1V7h-1v1zm-1 13h1v1h-1zm0-2h1v1h-1zm0-2h1v1h-1zm-1-3v-2h-3v-2H9V8H6V6H3v3h5v2h3v2h3v2h2v1h1v-2h-2zM4 8V7h1v1H4zm10 14h1v1h-1zm0-2h1v1h-1zm0-2h1v1h-1zm0-2h1v1h-1zm-3-2v1h2v-1h-2zm-3-2v1h2v-1H8zm-3-2v1h2v-1H5zM4 22v1h2v-1H4zm0-2v1h2v-1H4zM3 10h1v1H3zm7-8V1H8v1h2zm2-1h1v1h-1zm3 0h1v1h-1zm3 0h1v1h-1zm3 0h1v1h-1zm3 0h1v1h-1zm3 0h1v1h-1zM11 3h1v1h-1zm2 1h2V3h-2v1zm3 0h2V3h-2v1zm3 0h2V3h-2v1zm3 0h2V3h-2v1zm3 0h2V3h-2v1zM14 5h1v1h-1zm4 0h-2v1h2V5zm3 0h-2v1h2V5zm3 1V5h-2v1h2zm1-1h1v1h-1zm3-2h1v1h-1zm4-1V1h-2v1h2zM7 1V0H5v1h2zm28 0V0h-2v1h2zM4 0H3v2h1V0z"/></g></svg>