<svg xmlns="http://www.w3.org/2000/svg" viewBox="0 0 26 24"><path d="M3 5V3h3V1h3V0h17v24h-4v-1h-3v1h-4v-1h-4v1H7v-1H4v1H0V5h3z" fill="#4b2d00"/><path d="M0 8v3h1V9h3V7h3V5h3V2H7v2H4v2H1v2H0zm8-4V3h1v1H8zM5 6V5h1v1H5zM2 8V7h1v1H2zm-2 4v1h3v-2h3V9h5V6H8v2H5v2H2v2H0zm9-4V7h1v1H9zM3 22v1H1v-1h2zm0-2v1H1v-1h2zm0-6v1H1v-1h2zm3-2v1H4v-1h2zm3-2v1H7v-1h2zm1 12v1H8v-1h2zm0-2v1H8v-1h2zm0-10h1v1h-1zm1-6V3h1v2h-1V4zm0-3h1v1h-1zm2 6v2h-1V6h1v1zm1 3h1v1h-3v-1h2zm-1-6V3h1v2h-1V4zm0-3h1v1h-1zm2 6v2h-1V6h1v1zm0-3V3h1v2h-1V4zm0-3h1v1h-1zm2 6v2h-1V6h1v1zm1 13v1h-2v-1h2zm0-10h1v1h-3v-1h2zm-1-6V3h1v2h-1V4zm0-3h1v1h-1zm1 21v1h-2v-1h2zm1-15v2h-1V6h1v1zm0-3V3h1v2h-1V4zm0-3h1v1h-1zm1 9h1v1h-1zm1-3v2h-1V6h1v1zm0-3V3h1v2h-1V4zm0-3h1v1h-1zm3 9v1h-2v-1h2zm0-4v3h-2V6h2zm-1-2V3h1v2h-1V4zm0-3h1v1h-1zm2 9h1v1h-1zm0-2V6h1v3h-1V8zm0-4V3h1v2h-1V4zm0-3h1v1h-1zm0 21v1h-2v-1h2zm0-2v1h-2v-1h2z" fill="#c8c4b7"/></svg>