<svg xmlns="http://www.w3.org/2000/svg" viewBox="0 0 40 24"><path d="M35 0v1h-3v2h-3v2h-3v1h-1v1H15V6h-1V5h-3V3H8V1H5V0H4L2.5 2v16H3v6h4v-1h5v1h5v-1h6v1h5v-1h5v1h4v-6h.5V2L36 0h-1z" fill="#4b2d00"/><g fill="#c8c4b7"><path d="M35 20h-1v1h2v-1h-1zM4 20v1h2v-1H4zm32-10h1v1h-1zm-3 0v1h2v-1h-2zm-3 2v1h2v-1h-2zm-3 2v1h2v-1h-2zm-2 8h1v1h-1zm0-2h1v1h-1zm0-2h1v1h-1zm0-2h1v1h-1zm-11 6h1v1h-1zm0-2h1v1h-1zm0-2h1v1h-1zm0-2h1v1h-1zm-3-2v1h2v-1h-2zm-3-2v1h2v-1H8zm-3-2v1h2v-1H5zm-2 0h1v1H3zm33-4h-2v2h-3v2h-3v2h-3v2h-2v2h1v-1h2v-2h3v-2h3V9h5V6h-1zm0 2h-1V7h1v1zM23 21h1v1h-1zm0-2h1v1h-1zm0-2h1v1h-1zm-7 4h1v1h-1zm0-2h1v1h-1zm0-2h1v1h-1zm-1-3v-2h-3v-2H9V8H6V6H3v3h5v2h3v2h3v2h2v1h1v-2h-2zM4 8V7h1v1H4zm31-6h-2v3h3V2h-1zm0 2h-1V3h1v1zm-7 2h-1v3h3V6h-2zm1 2h-1V7h1v1zm-7 2h-1v3h3v-3h-2zm1 2h-1v-1h1v1zm-3 9h-2v1h4v-1h-2zm0-4h-2v1h4v-1h-2zm-1-4v-3h-3v3h3zm-2-1v-1h1v1h-1z"/><path d="M11 6h-1v3h3V6h-2zm1 2h-1V7h1v1zM5 2H4v3h3V2H5zm1 2H5V3h1v1zm30-4v2h1.5V1H37V0h-1zm-2 22v1h2v-1h-2zM31 4h-1v3h3V4h-2zm1 2h-1V5h1v1zm-7 2h-1v3h3V8h-2zm1 2h-1V9h1v1zm-4-3h1v1h-1zm-1 7v1h-2v-2h-1v3h4v-3h-1v1z"/><path d="M21 8h1v1h-1zm-1 11h-2v1h4v-1h-2z"/><path d="M21 13v-1h-2v1h2zm-2-4v1h2V9h-2z"/><path d="M18 8h1v1h-1z"/><path d="M17 7h1v1h-1zm-3 1h-1v3h3V8h-2zm1 2h-1V9h1v1zM4 22v1h2v-1H4zM8 4H7v3h3V4H8zm1 2H8V5h1v1zM4 1V0H3v1h-.5v1H4z"/></g></svg>