<svg xmlns="http://www.w3.org/2000/svg" viewBox="0 0 26 24"><path d="M23 5V3h-3V1h-3V0H0v24h4v-1h3v1h4v-1h4v1h4v-1h3v1h4V5h-3z" fill="#4b2d00"/><path d="M25 8V6h-3V4h-3V2h-3v3h3v2h3v2h3v2h1V8h-1zm-8-4V3h1v1h-1zm3 2V5h1v1h-1zm3 2V7h1v1h-1zm1 4v-2h-3V8h-3V6h-3v3h5v2h3v2h3v-1h-2zm-8-4V7h1v1h-1zm7 14v1h2v-1h-2zm0-2v1h2v-1h-2zm0-6v1h2v-1h-2zm-3-2v1h2v-1h-2zm-3-2v1h2v-1h-2zm-1 12v1h2v-1h-2zm0-2v1h2v-1h-2zm-1-10h1v1h-1zm0-6V3h-1v2h1V4zm-1-3h1v1h-1zm-1 6v2h1V6h-1v1zm-1 3h-1v1h3v-1h-2zm1-6V3h-1v2h1V4zm-1-3h1v1h-1zm-1 6v2h1V6h-1v1zm0-3V3h-1v2h1V4zm-1-3h1v1h-1zM9 7v2h1V6H9v1zM8 20v1h2v-1H8zm0-10H7v1h3v-1H8zm1-6V3H8v2h1V4zM8 1h1v1H8zm0 21v1h2v-1H8zM7 7v2h1V6H7v1zm0-3V3H6v2h1V4zM6 1h1v1H6zm-1 9h1v1H5zm0-3v2h1V6H5v1zm0-3V3H4v2h1V4zM4 1h1v1H4zm-2 9v1h2v-1H2zm0-4v3h2V6H2zm1-2V3H2v2h1V4zM2 1h1v1H2zm-2 9h1v1H0zm1-2V6H0v3h1V8zm0-4V3H0v2h1V4zM0 1h1v1H0zm1 21v1h2v-1H1zm0-2v1h2v-1H1z" fill="#c8c4b7"/></svg>