<svg xmlns="http://www.w3.org/2000/svg" viewBox="0 0 40 30"><path d="M39 28v-1h-1V13h-1v-2h-1v-1h-1V9h-1V8h-1V7h-1V6h-2V5h-8V4h1V3h1V2h-1V1h-1V0h-4v1h-1v1h-1v1h1v1h1v1h-8v1H8v1H7v1H6v1H5v1H4v1H3v2H2v14H1v1H0v1h1v1h1v-1h1v-1h34v1h1v1h1v-1h1v-1h-1z" fill="#4b2d00"/><g fill="#c8c4b7"><path d="M13 6V5h-2v1h2zm4-1h1v1h-1zm1-1h1v1h2V4h1V3h1V2h-1V1h-4v1h-1v1h1v1zm1-2h2v1h-2V2zm3 3h1v1h-1zm7 1V5h-2v1h2zm0 6v-1h-2v1h2zm-8 0v-1h-2v1h2zm-8 0v-1h-2v1h2z"/><path d="M25 10h1v1h-1zm-11 0h1v1h-1zm15 0V9h-2v1h2zm-8 0v1h3V8h-3v2zm2-1v1h-1V9h1zm-4 0V8h-3v3h3V9zm-2 1V9h1v1h-1zm-4 0V9h-2v1h2zm12-2h1v1h-1zM14 8h1v1h-1z"/><path d="M29 8V7h-2v1h2zm-8 0V7h-2v1h2zm-8 0V7h-2v1h2zm13-2V5h-1v2h1V6z"/><path d="M21 6h1v1h-1zm-3 0h1v1h-1zm-3 0V5h-1v2h1V6zM1 28h1v1H1zm37-2h-9v-1h-2v1h-1v-1h-1v1h-1v-1h-2v1h-1v-1h-2v1h-1v-1h-2v1h-1v-1h-1v1h-1v-1h-2v1H2v1h36v-1zm0 2h1v1h-1zM13 18v-1h-2v1h2zm2-2v-1h-1v2h1v-1zm14 2v-1h-2v1h2zm-11 0v-1h-2v1h2zm3-1h-2v1h2v-1zm3 0h-2v1h2v-1zm-10 1h1v1h-1zm11 0h1v1h-1zm-12 2v-1h-2v1h2zm16 0v-1h-2v1h2zm-11 0v-1h-2v1h2zm3-1h-2v1h2v-1zm3 0h-2v1h2v-1zm-10 1h1v1h-1zm11 0h1v1h-1zm-12 2v-1h-2v1h2zm16 0v-1h-2v1h2zm-11 0v-1h-2v1h2zm3-1h-2v1h2v-1zm3 0h-2v1h2v-1zm-11 3v-1h-2v1h2zm16 0v-1h-2v1h2zm-14-1v-1h-1v2h1v-1zm11 0v-1h-1v2h1v-1zm-8 1v-1h-2v1h2zm1-1v1h2v-1h-2zm3 0v1h2v-1h-2zm4-7v-1h-1v2h1v-1zm-13 0v-1h-2v1h2zm5 0v-1h-2v1h2zm1-1v1h2v-1h-2zm4 1h1v-1h-2v1h1z"/><path d="M29 16v-1h-2v1h2zm-11-2h1v1h-1zm3 0h1v1h-1zm-8 0v-1h-2v1h2z"/><path d="M15 13v-1h-1v2h1v-1zm2 0v-1h-1v2h1v-1zm4 1v-1h-2v1h2zm5-1v-1h-1v2h1v-1z"/><path d="M29 14v-1h-2v1h2zm-11-2h1v1h-1zm3 0h1v1h-1zm2 1v1h1v-2h-1v1z"/></g></svg>