<svg xmlns="http://www.w3.org/2000/svg" viewBox="0 0 26 30"><path d="M24 13v-2h-2V9h-2V7h-4V5h-1.5V4h1V3h1V2h-1V1h-1V0h-3v1h-1v1h-1v1h1v1h1v1H10v2H6v2H4v2H2v2H0v14h13v1h-1v1h1v1h1v-1h1v-1h1v-2h2v-5h2v-1h2v-1h4v-6h-2z" fill="#4b2d00"/><g fill="#c8c4b7"><path d="M11.5 4h1v1h1V4h1V3h1V2h-1V1h-3v1h-1v1h1v1zm1-2h1v1h-1V2zm7.5 8h1v1h-1zm-2 0h1v1h-1zm4 2h1v1h-1zm2 2v2h1v-2h-1zm-1 0h-1v2h1v-2zm-5-6h1v1h-1zm-2 0h1v1h-1zM2 15v-1H1v2h1v-1zm14-5h1v1h-1zm-3 18h1v1h-1zM4 18v-1H1v1h3zm0 2v-1H1v1h3zm0 2v-1H1v1h3zm0 2v-1H1v1h3zm15-6v1h2v-1h-2z"/><path d="M17 19v1h2v-1h-2z"/><path d="M16 24h-1v1h2v-5h-1v4zm5-7v1h4v-1h-4zM4 14H3v2h1v-2zm-1-2h1v1H3zm2-2h1v1H5zm0 2h1v1H5zm2-2h1v1H7zm2 0h1v1H9z"/><path d="M0 25v1h14v1h1v-2H0zM7 8h1v1H7zm2 0h1v1H9zm6-2h-4v1h4V6zm-4 2v1h4V8h-4zm9 4h1v1h-1z"/></g></svg>