<svg xmlns="http://www.w3.org/2000/svg" viewBox="0 0 26 30"><path d="M2 13v-2h2V9h2V7h4V5h1.5V4h-1V3h-1V2h1V1h1V0h3v1h1v1h1v1h-1v1h-1v1H16v2h4v2h2v2h2v2h2v14H13v1h1v1h-1v1h-1v-1h-1v-1h-1v-2H8v-5H6v-1H4v-1H0v-6h2z" fill="#4b2d00"/><g fill="#c8c4b7"><path d="M14.5 3h1V2h-1V1h-3v1h-1v1h1v1h1v1h1V4h1V3zm-1 0h-1V2h1v1zM5 10h1v1H5zm2 0h1v1H7zm-4 2h1v1H3zm-1 2v2H1v-2h1zm1 0h1v2H3v-2zm4-6h1v1H7zm2 0h1v1H9zm15 7v-1h1v2h-1v-1zM9 10h1v1H9zm3 18h1v1h-1zm10-10v-1h3v1h-3zm0 2v-1h3v1h-3zm0 2v-1h3v1h-3zm0 2v-1h3v1h-3zM7 18v1H5v-1h2z"/><path d="M9 19v1H7v-1h2z"/><path d="M10 24h1v1H9v-5h1v4zm-5-7v1H1v-1h4zm17-3h1v2h-1v-2zm0-2h1v1h-1zm-2-2h1v1h-1zm0 2h1v1h-1zm-2-2h1v1h-1zm-2 0h1v1h-1z"/><path d="M26 25v1H12v1h-1v-2h15zM18 8h1v1h-1zm-2 0h1v1h-1zm-5-2h4v1h-4V6zm4 2v1h-4V8h4zM5 12h1v1H5z"/></g></svg>