<svg xmlns="http://www.w3.org/2000/svg" viewBox="0 0 15 15"><path d="M11 9h-1V8h1v1zM3 7H2V6h1v1zm6 0H8V6h1v1zM1 9H0V8h1v1z" fill="#0f0"/><path d="M1 11H0v1h1v1h1v1h1v1h5v-1h1v-1h1v-1h1v-1h-1V9H9V8H8V7H7V6H6V5H5v1H4v1H3v1H2v1H1v2z" fill="#009300"/><path d="M6 8V7h1V6H6V5H5v1H4v1h1v1h1zm5 4h-1v-1h1v1zm0-3h-1V8h1v1zm-6 3H4v-1h1v1zm2-2H6V9h1v1zM3 7H2V6h1v1zm6 0H8V6h1v1zm-5 7H3v-1h1v1zm4 0H7v-1h1v1zm-5-4H2V9h1v1zm-2 2H0v-1h1v1zm0-3H0V8h1v1z" fill="#f0f"/><path d="M6 8H5v7h1V9 8zM4 7H3v6h1V8 7zm0 8H3v-1h1v1zm4-8H7v6h1V8 7zm0 8H7v-1h1v1zM1 9v4h1V9H1zm9 0H9v4h1v-3-1z" fill="#006300"/><path d="M6,7H5V6h1V7z" fill="#ff0"/><g fill="#009300"><path d="M8,3v1H7v1h1v1h1v1h4V6h1V5h1V4h-1V3h-1V1h-1V0h-1v1h-1v1H9v1H8z"/><path d="M8,3H7V2h1V3z"/></g><path d="M12 3h-1v4h1V4 3zm-2 0H9V2h1v1zm0 1H9v3h1V5 4zm4-1h-1v3h1V4 3z" fill="#006300"/><path d="M12 3V2h1V1h-1V0h-1v1h-1v1h1v1h1zm-1 4h-1V6h1v1zm2-2h-1V4h1v1zm2 0h-1V4h1v1zm-5-1H9V3h1v1zM8 3H7V2h1v1zm0 2H7V4h1v1z" fill="#f0f"/><path d="M12,2h-1V1h1V2z" fill="#ff0"/></svg>