<svg xmlns="http://www.w3.org/2000/svg" viewBox="0 0 15 19"><path d="M14,4h-1V3h-1V2h-1V1h-1V0H9v1H8v1H7v1H6v1H5v2H4v1h1v1h1v1h1v1h5V9h1V8h1V7h1V6h-1V4z" fill="#006300"/><path d="M10 3V2h1V1h-1V0H9v1H8v1h1v1h1zM4 6h1v1H4V6zm0-3h1v1H4V3zm6 3h1v1h-1V6zM8 4h1v1H8V4zm4-3h1v1h-1V1zM6 1h1v1H6V1zm5 7h1v1h-1V8zM7 8h1v1H7V8zm5-4h1v1h-1V4zm2 2h1v1h-1V6zm0-3h1v1h-1V3z" fill="#f0f"/><path d="M9 4v6h1V3H9v1zm2-1v5h1V2h-1v1zm0 6h1v1h-1V9zM7 3v5h1V2H7v1zm0 6h1v1H7V9zm6-5v4h1V4h-1zM5 5v3h1V4H5v1z" fill="#009300"/><path d="M9,1h1v1H9V1z" fill="#ff0"/><path d="M2,9H1v2H0v1h1v1H0v1h1v1h1v1h1v1h5v-1h1v-1h1v-1h1v-1h-1v-1h1v-1h-1V9H9V8H8V7H7V6H6V5H5v1H4v1H3v1H2V9z" fill="#006300"/><path d="M1,9H0V8h1V9z" fill="#0f0"/><path d="M6 8V7h1V6H6V5H5v1H4v1h1v1h1zm5 6h-1v-1h1v1zm0-2h-1v-1h1v1zm-6 1H4v-1h1v1zm2-3H6V9h1v1zM3 7H2V6h1v1zm6 0H8V6h1v1zm-5 8H3v-1h1v1zm4 0H7v-1h1v1zm-5-4H2v-1h1v1zm-2 3H0v-1h1v1zm0-2H0v-1h1v1zm0-3H0V8h1v1zm8 2H8v-1h1v1z" fill="#f0f"/><path d="M6 8H5v9h1V9 8zM4 7H3v7h1V8 7zm0 8H3v2h1v-1-1zm4-8H7v7h1V8 7zm0 8H7v2h1v-1-1zM2 9H1v6h1v-5-1zm8 0H9v6h1v-5-1z" fill="#009300"/><path d="M6,7H5V6h1V7z" fill="#ff0"/><path d="M12,15v-1h-1v-1h-1v-1H9v1H8v2H7v1H6v1h1v1h1v1h4v-1h1v-1h1v-1h-1v-1H12z" fill="#006300"/><path d="M13 14h1v1h-1v-1zm-4 2v3h1v-4H9v1zm2-2h1v1h-1v-1zm0 3v2h1v-3h-1v1zm-4-1v2h1v-3H7v1z" fill="#009300"/><path d="M10 15v-1h1v-1h-1v-1H9v1H8v1h1v1h1zm0 3h1v1h-1v-1zm-2-2h1v1H8v-1zm-2 0h1v1H6v-1zm5-1h1v1h-1v-1zm2-1h1v1h-1v-1zm0 2h1v1h-1v-1z" fill="#f0f"/><path d="M9,13h1v1H9V13z" fill="#ff0"/></svg>