<svg xmlns="http://www.w3.org/2000/svg" viewBox="0 0 13 17"><path d="M11 4h-1V3h1v1zM3 2H2V1h1v1zm6 0H8V1h1v1zM1 4H0V3h1v1z" fill="#0f0"/><path d="M1,6H0v1h1v1h1v1h1v1h5V9h1V8h1V7h1V6h-1V4H9V3H8V2H7V1H6V0H5v1H4v1H3v1H2v1H1V6z" fill="#009300"/><path d="M6 3V2h1V1H6V0H5v1H4v1h1v1h1zm5 4h-1V6h1v1zm0-3h-1V3h1v1zM5 7H4V6h1v1zm2-2H6V4h1v1zM3 2H2V1h1v1zm6 0H8V1h1v1zM4 9H3V8h1v1zm4 0H7V8h1v1zM3 5H2V4h1v1zM1 7H0V6h1v1zm0-3H0V3h1v1z" fill="#f0f"/><path d="M6 3H5v7h1V4 3zM4 2H3v6h1V3 2zm0 8H3V9h1v1zm4-8H7v6h1V3 2zm0 8H7V9h1v1zM1 4v4h1V4H1zm9 0H9v4h1V5 4z" fill="#006300"/><path d="M6,2H5V1h1V2z" fill="#ff0"/><g fill="#009300"><path d="M6,13v1H5v1h1v1h1v1h4v-1h1v-1h1v-1h-1v-1h-1v-2h-1v-1H9v1H8v1H7v1H6z"/><path d="M6 13H5v-1h1v1z"/></g><path d="M10 13H9v4h1v-3-1zm-2 0H7v-1h1v1zm0 1H7v3h1v-2-1zm4-1h-1v3h1v-2-1z" fill="#006300"/><path d="M10 13v-1h1v-1h-1v-1H9v1H8v1h1v1h1zm-1 4H8v-1h1v1zm2-2h-1v-1h1v1zm2 0h-1v-1h1v1zm-5-1H7v-1h1v1zm-2-1H5v-1h1v1zm0 2H5v-1h1v1z" fill="#f0f"/><path d="M10 12H9v-1h1v1z" fill="#ff0"/></svg>