<svg xmlns="http://www.w3.org/2000/svg" viewBox="0 0 40 24"><path d="M37 1.3V0H3v1.3l-.5.7v16H3v6h4v-1h5v1h5v-1h6v1h5v-1h5v1h4v-6h.5V2l-.5-.7z" fill="#000032"/><path d="M35 20h-1v1h2v-1h-1zM4 20v1h2v-1H4z" fill="#ff9600"/><path d="M35 2h-2v3h3V2h-1zm0 2h-1V3h1v1zm-7 2h-1v3h3V6h-2zm1 2h-1V7h1v1zm-7 2h-1v3h3v-3h-2zm1 2h-1v-1h1v1zm-3 9h-2v1h4v-1h-2zm0-4h-2v1h4v-1h-2zm-1-4v-3h-3v3h3zm-2-1v-1h1v1h-1zm-6-6h-1v3h3V6h-2zm1 2h-1V7h1v1zM5 2H4v3h3V2H5zm1 2H5V3h1v1zm8 1h1v1h-1zm4 1V5h-2v1h2zm3 0V5h-2v1h2zm1-1v1h2V5h-2zm3 0h1v1h-1z" fill="#f0f"/><path d="M36 10h1v1h-1zm-3 0v1h2v-1h-2zm-3 2v1h2v-1h-2zm-3 2v1h2v-1h-2zm-2 8h1v1h-1zm0-2h1v1h-1zm0-2h1v1h-1zm0-2h1v1h-1zm-3-8v1h1V7h-1v1zm-5 0v1h1V7h-1v1zm-3 14h1v1h-1zm0-2h1v1h-1zm0-2h1v1h-1zm0-2h1v1h-1zm-3-2v1h2v-1h-2zm-3-2v1h2v-1H8zm-3-2v1h2v-1H5zm-2 0h1v1H3zm5-9v1h2V1H8zm4 0h1v1h-1zm3 0h1v1h-1zm3 0h1v1h-1zm3 0h1v1h-1zm3 0h1v1h-1zm3 0h1v1h-1zm3 0v1h2V1h-2z" fill="#0ff"/><path d="M36 6h-2v2h-3v2h-3v2h-3v2h-2v2h1v-1h2v-2h3v-2h3V9h5V6h-1zm0 2h-1V7h1v1zM23 21h1v1h-1zm0-2h1v1h-1zm0-2h1v1h-1zM19 7v1h2V7h-2zm-3 14h1v1h-1zm0-2h1v1h-1zm0-2h1v1h-1zm-1-3v-2h-3v-2H9V8H6V6H3v3h5v2h3v2h3v2h2v1h1v-2h-2zM4 8V7h1v1H4zm3-7V0H5v1h2zm28 0V0h-2v1h2z" fill="#0f0"/><g fill="#ff0"><path d="M36 0v2h1V0h-1zm-2 22v1h2v-1h-2zM31 4h-1v3h3V4h-2zm1 2h-1V5h1v1zm-7 2h-1v3h3V8h-2zm1 2h-1V9h1v1zm-5 4v1h-2v-2h-1v3h4v-3h-1v1zm-1 5h-2v1h4v-1h-2z"/><path d="M21 13v-1h-2v1h2zm0-3V9h-2v1h2zm-7-2h-1v3h3V8h-2zm1 2h-1V9h1v1zM4 22v1h2v-1H4zM8 4H7v3h3V4H8zm1 2H8V5h1v1zm2-3h1v1h-1zm4 1V3h-2v1h2zm3-1h-2v1h2V3zm3 1V3h-2v1h2zm3-1h-2v1h2V3zm1 0v1h2V3h-2zm3 0h1v1h-1zM4 1V0H3v2h1V1z"/></g></svg>