<svg xmlns="http://www.w3.org/2000/svg" viewBox="0 0 26 24"><path d="M23 5V3h-3V1h-3V0H0v24h4v-1h3v1h4v-1h4v1h4v-1h3v1h4V5h-3z" fill="#000032"/><path d="M24 6h-2v3h3V6h-1zm0 2h-1V7h1v1zm-7-6h-1v3h3V2h-2zm1 2h-1V3h1v1z" fill="#f0f"/><path d="M25 12h-1v-2h-3V8h-3V6h-3v3h5v2h3v2h3v-1h-1zm-9-4V7h1v1h-1zm-3-1v2h1V6h-1v1zm-2 0v2h1V6h-1v1zM9 7v2h1V6H9v1zM7 7v2h1V6H7v1zM5 7v2h1V6H5v1zM2 6v3h2V6H2zM0 7v2h1V6H0v1z" fill="#0f0"/><path d="M24 14h-1v1h2v-1h-1zm-4-2v1h2v-1h-2zm-3-2v1h2v-1h-2zm-2 0h1v1h-1zm0-6V3h-1v2h1V4zm-3 6h-1v1h3v-1h-2zm1-6V3h-1v2h1V4zm-2 0V3h-1v2h1V4zm-3 6H7v1h3v-1H8zm1-6V3H8v2h1V4zM7 4V3H6v2h1V4zm-2 6h1v1H5zm0-6V3H4v2h1V4zm-3 6v1h2v-1H2zm1-6V3H2v2h1V4zm-3 6h1v1H0zm0-6v1h1V3H0v1z" fill="#0ff"/><path d="M25 8v3h1V8h-1zm-2 14v1h2v-1h-2zm-7 0v1h2v-1h-2zm4-18h-1v3h3V4h-2zm1 2h-1V5h1v1zm-7-5h1v1h-1zm-2 0h1v1h-1zm-2 0h1v1h-1zM8 1h1v1H8zm0 21v1h2v-1H8zM6 1h1v1H6zM4 1h1v1H4zM2 1h1v1H2zM0 1h1v1H0zm1 21v1h2v-1H1z" fill="#ff0"/><path d="M24 20h-1v1h2v-1h-1zm-8 0v1h2v-1h-2zm-8 0v1h2v-1H8zm-7 0v1h2v-1H1z" fill="#ff9600"/></svg>