<svg xmlns="http://www.w3.org/2000/svg" viewBox="0 0 26 24"><path d="M3 5V3h3V1h3V0h17v24h-4v-1h-3v1h-4v-1h-4v1H7v-1H4v1H0V5h3z" fill="#000032"/><path d="M1 6v3h3V6H2 1zm1 1h1v1H2V7zm5-5v3h3V2H9 7zm1 1h1v1H8V3z" fill="#f0f"/><path d="M0 12v1h3v-2h3V9h5V6H8v2H5v2H2v2H1 0zm9-4V7h1v1H9zm4-1v2h-1V6h1v1zm2 0v2h-1V6h1v1zm2 0v2h-1V6h1v1zm2 0v2h-1V6h1v1zm2 0v2h-1V6h1v1zm3-1v3h-2V6h2zm2 1v2h-1V6h1v1z" fill="#0f0"/><path d="M2 14h1v1H1v-1h1zm4-2v1H4v-1h2zm3-2v1H7v-1h2zm1 0h1v1h-1zm1-6V3h1v2h-1V4zm3 6h1v1h-3v-1h2zm-1-6V3h1v2h-1V4zm2 0V3h1v2h-1V4zm3 6h1v1h-3v-1h2zm-1-6V3h1v2h-1V4zm2 0V3h1v2h-1V4zm1 6h1v1h-1zm1-6V3h1v2h-1V4zm3 6v1h-2v-1h2zm-1-6V3h1v2h-1V4zm2 6h1v1h-1zm1-6v1h-1V3h1v1z" fill="#0ff"/><path d="M1 8v3H0V8h1zm2 14v1H1v-1h2zm7 0v1H8v-1h2zM4 4v3h3V4H6 4zm1 1h1v1H5V5zm6-4h1v1h-1zm2 0h1v1h-1zm2 0h1v1h-1zm2 0h1v1h-1zm1 21v1h-2v-1h2zm1-21h1v1h-1zm2 0h1v1h-1zm2 0h1v1h-1zm2 0h1v1h-1zm0 21v1h-2v-1h2z" fill="#ff0"/><path d="M2 20h1v1H1v-1h1zm8 0v1H8v-1h2zm8 0v1h-2v-1h2zm7 0v1h-2v-1h2z" fill="#ff9600"/></svg>