<svg xmlns="http://www.w3.org/2000/svg" viewBox="0 0 40 30"><path d="M39 28v-1h-1V13h-1v-2h-1v-1h-1V9h-1V8h-1V7h-1V6h-2V5h-8V4h1V3h1V2h-1V1h-1V0h-4v1h-1v1h-1v1h1v1h1v1h-8v1H8v1H7v1H6v1H5v1H4v1H3v2H2v14H1v1H0v1h1v1h1v-1h1v-1h34v1h1v1h1v-1h1v-1h-1z" fill="#000032"/><path d="M28 17h-1v1h2v-1h-1zm-1 4v1h2v-1h-2zm0 4v1h2v-1h-2zM11 5v1h2V5h-2zm17 0h-1v1h2V5h-1zm-1 4v1h2V9h-2zM11 9v1h2V9h-2zm11-1h-1v3h3V8h-2zm1 2h-1V9h1v1zm-6-2h-1v3h3V8h-2zm1 2h-1V9h1v1zm-7 7v1h2v-1h-2zm5 0v1h2v-1h-2zm6 0v1h2v-1h-2zm-11 4v1h2v-1h-2zm5 0v1h2v-1h-2zm6 0v1h2v-1h-2zm-11 4v1h2v-1h-2zm5 0v1h2v-1h-2zm6 0v1h2v-1h-2zM11 13v1h2v-1h-2zm16 0v1h2v-1h-2z" fill="#f0f"/><g fill="#ff0"><path d="M17 5h1v1h-1zm1-1h1v1h2V4h1V3h1V2h-1V1h-4v1h-1v1h1v1zm1-2h2v1h-2V2zm3 3h1v1h-1zm-1 7v-1h-2v1h2zm-1-4h1V7h-2v1h1z"/><path d="M21 6h1v1h-1zm-3 0h1v1h-1zM1 28h1v1H1zm37-2H2v1h36v-1zm0 2h1v1h-1zM19 15v1h2v-1h-2z"/><path d="M18 14h1v1h-1zm3 0h1v1h-1z"/><path d="M20 13h-1v1h2v-1h-1z"/><path d="M18 12h1v1h-1zm3 0h1v1h-1z"/></g><path d="M27 11v1h2v-1h-2zm-16 0v1h2v-1h-2zm17-4h-1v1h2V7h-1zM11 7v1h2V7h-2zm0 12v1h2v-1h-2zm16 0v1h2v-1h-2zm-11 0v1h2v-1h-2zm6 0v1h2v-1h-2zm-11 4v1h2v-1h-2zm16 0v1h2v-1h-2zm-11 0v1h2v-1h-2zm6 0v1h2v-1h-2zm-11-8v1h2v-1h-2zm5 0v1h2v-1h-2zm6 0v1h2v-1h-2zm5 0v1h2v-1h-2zm-10-2v-1h-1v2h1v-1zm6 0v1h1v-2h-1v1z" fill="#0f0"/><path d="M14 6v1h1V5h-1v1zm11-1v2h1V5h-1zm0 5h1v1h-1zm-11 0h1v1h-1zm11-2h1v1h-1zM14 8h1v1h-1zm5 9v1h2v-1h-2zm-5 1h1v1h-1zm11 0h1v1h-1zm-6 1v1h2v-1h-2zm-5 1h1v1h-1zm11 0h1v1h-1zm-6 1v1h2v-1h-2zm-5 2v1h1v-2h-1v1zm11 0v1h1v-2h-1v1zm-6 0v1h2v-1h-2zm-5 2h1v1h-1zm11 0h1v1h-1zm-6 0v1h2v-1h-2zm-5-9v1h1v-2h-1v1zm11 0v1h1v-2h-1v1zm-11-3v1h1v-2h-1v1zm11 0v1h1v-2h-1v1z" fill="#0ff"/></svg>