<svg xmlns="http://www.w3.org/2000/svg" viewBox="0 0 26 30"><path d="M2 13v-2h2V9h2V7h4V5h1.5V4h-1V3h-1V2h1V1h1V0h3v1h1v1h1v1h-1v1h-1v1H16v2h4v2h2v2h2v2h2v14H13v1h1v1h-1v1h-1v-1h-1v-1h-1v-2H8v-5H6v-1H4v-1H0v-6h2z" fill="#000032"/><path d="M24 23h1v1h-3v-1h2zm-1-4h2v1h-3v-1h1z" fill="#0ff"/><g fill="#ff0"><path d="M14.5 3h1V2h-1V1h-3v1h-1v1h1v1h1v1h1V4h1V3zm-1 0h-1V2h1v1zM12 28h1v1h-1zM7 18v1H5v-1h2z"/><path d="M9 19v1H7v-1h2z"/><path d="M10 21v3h1v1H9v-5h1v1zm-8-4h3v1H1v-1h1z"/><path d="M13 25h13v1H12v1h-1v-2h2z"/></g><path d="M5 10h1v1H5zm-2 2h1v1H3zm-1 2v2H1v-2h1zm5-6h1v1H7zm2 0h1v1H9zm15 7v-1h1v2h-1v-1zm0 6h1v1h-3v-1h2zm-2-9h1v1h-1zm-2-2h1v1h-1zm-2-2h1v1h-1zm-2 0h1v1h-1zm-3-2h2v1h-4V6h2z" fill="#0f0"/><path d="M7 10h1v1H7zm-3 4v2H3v-2h1zm5-4h1v1H9zm15 7h1v1h-3v-1h2zm-1-2v1h-1v-2h1v1zm-3-3h1v1h-1zm-2-2h1v1h-1zm-2 0h1v1h-1zm-3-2h2v1h-4V8h2zm-8 4h1v1H5z" fill="#f0f"/></svg>