<svg xmlns="http://www.w3.org/2000/svg" viewBox="0 0 26 30"><path d="M24 13v-2h-2V9h-2V7h-4V5h-1.5V4h1V3h1V2h-1V1h-1V0h-3v1h-1v1h-1v1h1v1h1v1H10v2H6v2H4v2H2v2H0v14h13v1h-1v1h1v1h1v-1h1v-1h1v-2h2v-5h2v-1h2v-1h4v-6h-2z" fill="#000032"/><path d="M2 23H1v1h3v-1H2zm1-4H1v1h3v-1H3z" fill="#0ff"/><g fill="#ff0"><path d="M11.5 4h1v1h1V4h1V3h1V2h-1V1h-3v1h-1v1h1v1zm1-2h1v1h-1V2zm.5 26h1v1h-1zm6-10v1h2v-1h-2z"/><path d="M17 19v1h2v-1h-2z"/><path d="M16 21v3h-1v1h2v-5h-1v1zm8-4h-3v1h4v-1h-1z"/><path d="M13 25H0v1h14v1h1v-2h-2z"/></g><path d="M20 10h1v1h-1zm2 2h1v1h-1zm2 2v2h1v-2h-1zm-6-6h1v1h-1zm-2 0h1v1h-1zM2 15v-1H1v2h1v-1zm0 6H1v1h3v-1H2zm1-9h1v1H3zm2-2h1v1H5zm2-2h1v1H7zm2 0h1v1H9zm4-2h-2v1h4V6h-2z" fill="#0f0"/><path d="M18 10h1v1h-1zm4 4v2h1v-2h-1zm-6-4h1v1h-1zM2 17H1v1h3v-1H2zm1-2v1h1v-2H3v1zm2-3h1v1H5zm2-2h1v1H7zm2 0h1v1H9zm4-2h-2v1h4V8h-2zm7 4h1v1h-1z" fill="#f0f"/></svg>