<svg xmlns="http://www.w3.org/2000/svg" viewBox="0 0 23 17" xmlns:v="https://vecta.io/nano"><path d="M12 3h1v1h-1V3zm8-2h1v1h-1V1zm-6 0h1v1h-1V1zm8 2h1v1h-1V3z" fill="#0f0"/><path d="M22,4h-1V3h-1V2h-1V1h-1V0h-1v1h-1v1h-1v1h-1v1h-1v2h-1v1h1v1h1v1h1v1h5V9h1V8h1V7h1V6h-1V4z" fill="#ff3bff"/><path d="M18 3V2h1V1h-1V0h-1v1h-1v1h1v1h1zm-6 3h1v1h-1V6zm0-3h1v1h-1V3zm6 3h1v1h-1V6zm-2-2h1v1h-1V4zm4-3h1v1h-1V1zm-6 0h1v1h-1V1zm5 7h1v1h-1V8zm-4 0h1v1h-1V8zm5-4h1v1h-1V4zm2 2h1v1h-1V6zm0-3h1v1h-1V3z" fill="#8700ff"/><path d="M17 4v6h1V3h-1v1zm2-1v5h1V2h-1v1zm0 6h1v1h-1V9zm-4-6v5h1V2h-1v1zm0 6h1v1h-1V9zm6-5v4h1V4h-1zm-8 1v3h1V4h-1v1z" fill="#ff9aff"/><path d="M17,1h1v1h-1V1z" fill="#ff0"/><path d="M16,13v-1h-1v-1h-1v-1h-1v1h-1v2h-1v1h-1v1h1v1h1v1h4v-1h1v-1h1v-1h-1v-1H16z" fill="#ff3bff"/><path d="M17,12h1v1h-1V12z" fill="#009300"/><path d="M13 14v3h1v-4h-1v1zm2-2h1v1h-1v-1zm0 3v2h1v-3h-1v1zm-4-1v2h1v-3h-1v1z" fill="#ff9aff"/><path d="M14 13v-1h1v-1h-1v-1h-1v1h-1v1h1v1h1zm0 3h1v1h-1v-1zm-2-2h1v1h-1v-1zm-2 0h1v1h-1v-1zm5-1h1v1h-1v-1zm2-1h1v1h-1v-1zm0 2h1v1h-1v-1z" fill="#8700ff"/><path d="M13,11h1v1h-1V11z" fill="#ff0"/><path d="M0 6h1v1H0V6zm8-2h1v1H8V4zM2 4h1v1H2V4z" fill="#0f0"/><path d="M9 6H8V5H7V4H6V3H5v1H4v1H3v1H2v1H1v2H0v1h1v1H0v1h1v1h1v1h1v1h5v-1h1v-1h1v-1h1v-1h-1v-1h1V9h-1V7H9V6z" fill="#ff3bff"/><path d="M10,6h1v1h-1V6z" fill="#0f0"/><path d="M6 6V5h1V4H6V3H5v1H4v1h1v1h1zm-6 5h1v1H0v-1zm0-2h1v1H0V9zm0-3h1v1H0V6zm6 4h1v1H6v-1zM4 7h1v1H4V7zm4-3h1v1H8V4zM2 4h1v1H2V4zm5 8h1v1H7v-1zm-4 0h1v1H3v-1zm5-4h1v1H8V8zm2 3h1v1h-1v-1zm0-2h1v1h-1V9zm0-3h1v1h-1V6zM2 8h1v1H2V8z" fill="#8700ff"/><path d="M5 7v8h1V6H5v1zm2-1v6h1V5H7v1zm0 8v1h1v-2H7v1zM3 6v6h1V5H3v1zm0 8v1h1v-2H3v1zm6-6v5h1V7H9v1zM1 8v5h1V7H1v1z" fill="#ff9aff"/><path d="M5,4h1v1H5V4z" fill="#ff0"/></svg>
