<?xml version="1.0" encoding="utf-8"?>
<!-- Generator: Adobe Illustrator 25.3.1, SVG Export Plug-In . SVG Version: 6.00 Build 0)  -->
<svg version="1.1" id="Layer_1" xmlns="http://www.w3.org/2000/svg" xmlns:xlink="http://www.w3.org/1999/xlink" x="0px" y="0px"
	 viewBox="0 0 23 17" style="enable-background:new 0 0 23 17;" xml:space="preserve">
<style type="text/css">
	.st0{fill:#00FF00;}
	.st1{fill:#FF3BFF;}
	.st2{fill:#8700FF;}
	.st3{fill:#FF9AFF;}
	.st4{fill:#FFFF00;}
	.st5{fill:#009300;}
</style>
<path class="st0" d="M12,3h1v1h-1V3z M20,1h1v1h-1V1z M14,1h1v1h-1V1z M22,3h1v1h-1V3z"/>
<path class="st1" d="M22,4h-1V3h-1V2h-1V1h-1V0h-1v1h-1v1h-1v1h-1v1h-1v2h-1v1h1v1h1v1h1v1h5V9h1V8h1V7h1V6h-1V4z"/>
<path class="st2" d="M18,3V2h1V1h-1V0h-1v1h-1v1h1v1H18z M12,6h1v1h-1V6z M12,3h1v1h-1V3z M18,6h1v1h-1V6z M16,4h1v1h-1V4z M20,1h1
	v1h-1V1z M14,1h1v1h-1V1z M19,8h1v1h-1V8z M15,8h1v1h-1V8z M20,4h1v1h-1V4z M22,6h1v1h-1V6z M22,3h1v1h-1V3z"/>
<path class="st3" d="M17,4v6h1V3h-1V4z M19,3v5h1V2h-1V3z M19,9h1v1h-1V9z M15,3v5h1V2h-1V3z M15,9h1v1h-1V9z M21,4v4h1V4H21z M13,5
	v3h1V4h-1V5z"/>
<path class="st4" d="M17,1h1v1h-1V1z"/>
<path class="st1" d="M16,13v-1h-1v-1h-1v-1h-1v1h-1v2h-1v1h-1v1h1v1h1v1h4v-1h1v-1h1v-1h-1v-1H16z"/>
<path class="st5" d="M17,12h1v1h-1V12z"/>
<path class="st3" d="M13,14v3h1v-4h-1V14z M15,12h1v1h-1V12z M15,15v2h1v-3h-1V15z M11,14v2h1v-3h-1V14z"/>
<path class="st2" d="M14,13v-1h1v-1h-1v-1h-1v1h-1v1h1v1H14z M14,16h1v1h-1V16z M12,14h1v1h-1V14z M10,14h1v1h-1V14z M15,13h1v1h-1
	V13z M17,12h1v1h-1V12z M17,14h1v1h-1V14z"/>
<path class="st4" d="M13,11h1v1h-1V11z"/>
<g>
	<path class="st0" d="M0,6h1v1H0V6z M8,4h1v1H8V4z M2,4h1v1H2V4z"/>
	<g>
		<path id="B_1_" class="st1" d="M9,6H8V5H7V4H6V3H5v1H4v1H3v1H2v1H1v2H0v1h1v1H0v1h1v1h1v1h1v1h5v-1h1v-1h1v-1h1v-1h-1v-1h1V9h-1V7
			H9V6z"/>
	</g>
	<path class="st0" d="M10,6h1v1h-1V6z"/>
	<path class="st2" d="M6,6V5h1V4H6V3H5v1H4v1h1v1H6z M0,11h1v1H0V11z M0,9h1v1H0V9z M0,6h1v1H0V6z M6,10h1v1H6V10z M4,7h1v1H4V7z
		 M8,4h1v1H8V4z M2,4h1v1H2V4z M7,12h1v1H7V12z M3,12h1v1H3V12z M8,8h1v1H8V8z M10,11h1v1h-1V11z M10,9h1v1h-1V9z M10,6h1v1h-1V6z
		 M2,8h1v1H2V8z"/>
	<path class="st3" d="M5,7v8h1V6H5V7z M7,6v6h1V5H7V6z M7,14v1h1v-2H7V14z M3,6v6h1V5H3V6z M3,14v1h1v-2H3V14z M9,8v5h1V7H9V8z M1,8
		v5h1V7H1V8z"/>
	<path class="st4" d="M5,4h1v1H5V4z"/>
</g>
</svg>
