<svg xmlns="http://www.w3.org/2000/svg" viewBox="0 0 16 23"><path d="M0 3h1v1H0V3zm8-2h1v1H8V1zM2 1h1v1H2V1z" fill="#0f0"/><path d="M9 3H8V2H7V1H6V0H5v1H4v1H3v1H2v1H1v2H0v1h1v1H0v1h1v1h1v1h1v1h5v-1h1v-1h1V9h1V8h-1V7h1V6h-1V4H9V3z" fill="#ff3bff"/><path d="M10,3h1v1h-1V3z" fill="#0f0"/><path d="M6 3V2h1V1H6V0H5v1H4v1h1v1h1zM0 8h1v1H0V8zm0-2h1v1H0V6zm0-3h1v1H0V3zm6 4h1v1H6V7zM4 4h1v1H4V4zm4-3h1v1H8V1zM2 1h1v1H2V1zm5 8h1v1H7V9zM3 9h1v1H3V9zm5-4h1v1H8V5zm2 3h1v1h-1V8zm0-2h1v1h-1V6zm0-3h1v1h-1V3zM2 5h1v1H2V5z" fill="#8700ff"/><path d="M5 4v8h1V3H5v1zm2-1v6h1V2H7v1zm0 8v1h1v-2H7v1zM3 3v6h1V2H3v1zm0 8v1h1v-2H3v1zm6-6v5h1V4H9v1zM1 5v5h1V4H1v1z" fill="#ff9aff"/><path d="M5,1h1v1H5V1z" fill="#ff0"/><g fill="#0f0"><path d="M5 8h1v1H5V8zm8-2h1v1h-1V6zM7 6h1v1H7V6z"/><path d="M14 8h-1V7h-1V6h-1V5h-1v1H9v1H8v1H7v1H6v2H5v1h1v1H5v1h1v1h1v1h1v1h5v-1h1v-1h1v-1h1v-1h-1v-1h1v-1h-1V9h-1V8z"/><path d="M15,8h1v1h-1V8z"/></g><path d="M11 8V7h1V6h-1V5h-1v1H9v1h1v1h1zm-6 5h1v1H5v-1zm0-2h1v1H5v-1zm0-3h1v1H5V8zm6 4h1v1h-1v-1zm0-4h1v1h-1V8zm2-2h1v1h-1V6zM7 6h1v1H7V6zm5 8h1v1h-1v-1zm-4 0h1v1H8v-1zm5-4h1v1h-1v-1zm2 3h1v1h-1v-1zm0-2h1v1h-1v-1zm0-3h1v1h-1V8zm-8 2h1v1H7v-1z" fill="#f0f"/><path d="M10 9v8h1V8h-1v1zm2-1v6h1V7h-1v1zm0 8v1h1v-2h-1v1zM8 8v6h1V7H8v1zm0 8v1h1v-2H8v1zm6-6v5h1V9h-1v1zm-8 0v5h1V9H6v1z" fill="#00af00"/><path d="M10,6h1v1h-1V6z" fill="#ff0"/><path d="M1 12H0v-1h1v1zm8-2H8V9h1v1zm-6 0H2V9h1v1zm8 2h-1v-1h1v1z" fill="#0f0"/><path d="M2 12H1v2H0v1h1v1H0v1h1v1h1v1h1v1h5v-1h1v-1h1v-1h1v-1h-1v-1h1v-1h-1v-2H9v-1H8v-1H7V9H6V8H5v1H4v1H3v1H2v1z" fill="#00a"/><path d="M6 11v-1h1V9H6V8H5v1H4v1h1v1h1zm-5 6H0v-1h1v1zm0-2H0v-1h1v1zm0-3H0v-1h1v1zm6 4H6v-1h1v1zm-2-3H4v-1h1v1zm4-3H8V9h1v1zm-6 0H2V9h1v1zm5 8H7v-1h1v1zm-4 0H3v-1h1v1zm5-4H8v-1h1v1zm2 3h-1v-1h1v1zm0-2h-1v-1h1v1zm0-3h-1v-1h1v1zm-8 2H2v-1h1v1z" fill="#f0f"/><path d="M6 11H5v9h1v-8-1zm2-1H7v7h1v-6-1zm0 8H7v2h1v-1-1zm-4-8H3v7h1v-6-1zm0 8H3v2h1v-1-1zm6-6H9v6h1v-5-1zm-8 0H1v6h1v-5-1z" fill="#0064ff"/><path d="M6 10H5V9h1v1z" fill="#ff0"/><path d="M6 17H5v-1h1v1zm8-2h-1v-1h1v1zm-6 0H7v-1h1v1zm8 2h-1v-1h1v1z" fill="#0f0"/><path d="M7 17H6v2H5v1h1v1h1v1h1v1h5v-1h1v-1h1v-1h1v-1h-1v-2h-1v-1h-1v-1h-1v-1h-1v-1h-1v1H9v1H8v1H7v1z" fill="#ff0"/><path d="M11 16v-1h1v-1h-1v-1h-1v1H9v1h1v1h1zm-5 4H5v-1h1v1zm0-3H5v-1h1v1zm6 3h-1v-1h1v1zm-2-2H9v-1h1v1zm4-3h-1v-1h1v1zm-6 0H7v-1h1v1zm5 7h-1v-1h1v1zm-4 0H8v-1h1v1zm5-4h-1v-1h1v1zm2 2h-1v-1h1v1zm0-3h-1v-1h1v1z" fill="#8700ff"/><path d="M11 16h-1v7h1v-6-1zm2-1h-1v6h1v-5-1zm0 8h-1v-1h1v1zm-4-8H8v6h1v-5-1zm0 8H8v-1h1v1zm6-6h-1v4h1v-3-1zm-8 0H6v4h1v-3-1z" fill="#c5bd00"/><path d="M11 15h-1v-1h1v1z" fill="#ff0"/></svg>