<svg xmlns="http://www.w3.org/2000/svg" viewBox="0 0 62 10"><path d="M11 4h-1V3h1v1zM3 2H2V1h1v1zm6 0H8V1h1v1zM1 4H0V3h1v1z" fill="#0f0"/><path d="M1,6H0v1h1v1h1v1h1v1h5V9h1V8h1V7h1V6h-1V4H9V3H8V2H7V1H6V0H5v1H4v1H3v1H2v1H1V6z" fill="#009300"/><path d="M6 3V2h1V1H6V0H5v1H4v1h1v1h1zm5 4h-1V6h1v1zm0-3h-1V3h1v1zM5 7H4V6h1v1zm2-2H6V4h1v1zM3 2H2V1h1v1zm6 0H8V1h1v1zM4 9H3V8h1v1zm4 0H7V8h1v1zM3 5H2V4h1v1zM1 7H0V6h1v1zm0-3H0V3h1v1z" fill="#f0f"/><path d="M6 3H5v7h1V4 3zM4 2H3v6h1V3 2zm0 8H3V9h1v1zm4-8H7v6h1V3 2zm0 8H7V9h1v1zM1 4v4h1V4H1zm9 0H9v4h1V5 4z" fill="#006300"/><path d="M6,2H5V1h1V2z" fill="#ff0"/><path d="M52 4h-1V3h1v1zm8-2h-1V1h1v1zm-6 0h-1V1h1v1zm8 2h-1V3h1v1z" fill="#0f0"/><path d="M53,4h-1v2h-1v1h1v1h1v1h1v1h5V9h1V8h1V7h1V6h-1V4h-1V3h-1V2h-1V1h-1V0h-1v1h-1v1h-1v1h-1V4z" fill="#ff0"/><path d="M57 3V2h1V1h-1V0h-1v1h-1v1h1v1h1zm-5 4h-1V6h1v1zm0-3h-1V3h1v1zm6 3h-1V6h1v1zm-2-2h-1V4h1v1zm4-3h-1V1h1v1zm-6 0h-1V1h1v1zm5 7h-1V8h1v1zm-4 0h-1V8h1v1zm5-4h-1V4h1v1zm2 2h-1V6h1v1zm0-3h-1V3h1v1z" fill="#8700ff"/><path d="M57 3h-1v7h1V4 3zm2-1h-1v6h1V3 2zm0 8h-1V9h1v1zm-4-8h-1v6h1V3 2zm0 8h-1V9h1v1zm6-6h-1v4h1V5 4zm-8 0h-1v4h1V5 4z" fill="#c5bd00"/><path d="M57,2h-1V1h1V2z" fill="#ff0"/></svg>