<svg xmlns="http://www.w3.org/2000/svg" viewBox="0 0 16 23"><path d="M16 4h-1V3h1v1zM8 2H7V1h1v1zm6 0h-1V1h1v1z" fill="#0f0"/><path d="M7 4H6v2H5v1h1v1H5v1h1v1h1v1h1v1h5v-1h1v-1h1V9h1V8h-1V7h1V6h-1V4h-1V3h-1V2h-1V1h-1V0h-1v1H9v1H8v1H7v1z" fill="#00a"/><path d="M6,4H5V3h1V4z" fill="#0f0"/><path d="M11 3V2h1V1h-1V0h-1v1H9v1h1v1h1zm5 6h-1V8h1v1zm0-2h-1V6h1v1zm0-3h-1V3h1v1zm-6 4H9V7h1v1zm2-3h-1V4h1v1zM8 2H7V1h1v1zm6 0h-1V1h1v1zm-5 8H8V9h1v1zm4 0h-1V9h1v1zM8 6H7V5h1v1zM6 9H5V8h1v1zm0-2H5V6h1v1zm0-3H5V3h1v1zm8 2h-1V5h1v1z" fill="#f0f"/><path d="M11 3h-1v9h1V4 3zM9 2H8v7h1V3 2zm0 8H8v2h1v-1-1zm4-8h-1v7h1V3 2zm0 8h-1v2h1v-1-1zM7 4H6v6h1V5 4zm8 0h-1v6h1V5 4z" fill="#0064ff"/><path d="M11,2h-1V1h1V2z" fill="#ff0"/><g fill="#0f0"><path d="M11 9h-1V8h1v1zM3 7H2V6h1v1zm6 0H8V6h1v1z"/><path d="M2 9H1v2H0v1h1v1H0v1h1v1h1v1h1v1h5v-1h1v-1h1v-1h1v-1h-1v-1h1v-1h-1V9H9V8H8V7H7V6H6V5H5v1H4v1H3v1H2v1z"/><path d="M1,9H0V8h1V9z"/></g><path d="M6 8V7h1V6H6V5H5v1H4v1h1v1h1zm5 6h-1v-1h1v1zm0-2h-1v-1h1v1zm0-3h-1V8h1v1zm-6 4H4v-1h1v1zm0-4H4V8h1v1zM3 7H2V6h1v1zm6 0H8V6h1v1zm-1 8H7v-1h1v1zm-5-4H2v-1h1v1zm-2 3H0v-1h1v1zm0-2H0v-1h1v1zm0-3H0V8h1v1zm8 2H8v-1h1v1z" fill="#f0f"/><path d="M3 15v2h1V7H3v8zm2 2h1V8H5v9zm-4-2h1V9H1v6zm6 2h1v-2H7v2zm2-8v6h1V9H9zm-2 5h1V7H7v7z" fill="#00af00"/><path d="M6,7H5V6h1V7z" fill="#ff0"/><path d="M16 12h-1v-1h1v1zm-8-2H7V9h1v1zm6 0h-1V9h1v1z" fill="#0f0"/><path d="M7 12H6v2H5v1h1v1H5v1h1v1h1v1h1v1h5v-1h1v-1h1v-1h1v-1h-1v-1h1v-1h-1v-2h-1v-1h-1v-1h-1V9h-1V8h-1v1H9v1H8v1H7v1z" fill="#ff3bff"/><path d="M6 12H5v-1h1v1z" fill="#0f0"/><path d="M11 11v-1h1V9h-1V8h-1v1H9v1h1v1h1zm5 6h-1v-1h1v1zm0-2h-1v-1h1v1zm0-3h-1v-1h1v1zm-6 4H9v-1h1v1zm2-3h-1v-1h1v1zm-4-3H7V9h1v1zm6 0h-1V9h1v1zm-5 8H8v-1h1v1zm4 0h-1v-1h1v1zm-5-4H7v-1h1v1zm-2 3H5v-1h1v1zm0-2H5v-1h1v1zm0-3H5v-1h1v1zm8 2h-1v-1h1v1z" fill="#8700ff"/><path d="M11 11h-1v9h1v-8-1zm-2-1H8v7h1v-6-1zm0 8H8v2h1v-1-1zm4-8h-1v7h1v-6-1zm0 8h-1v2h1v-1-1zm-6-6H6v6h1v-5-1zm8 0h-1v6h1v-5-1z" fill="#ff9aff"/><path d="M11 10h-1V9h1v1z" fill="#ff0"/><path d="M11 17h-1v-1h1v1zm-8-2H2v-1h1v1zm6 0H8v-1h1v1zm-8 2H0v-1h1v1z" fill="#0f0"/><path d="M1 19H0v1h1v1h1v1h1v1h5v-1h1v-1h1v-1h1v-1h-1v-2H9v-1H8v-1H7v-1H6v-1H5v1H4v1H3v1H2v1H1v2z" fill="#009300"/><path d="M6 16v-1h1v-1H6v-1H5v1H4v1h1v1h1zm5 4h-1v-1h1v1zm0-3h-1v-1h1v1zm-6 3H4v-1h1v1zm2-2H6v-1h1v1zm-4-3H2v-1h1v1zm6 0H8v-1h1v1zm-5 7H3v-1h1v1zm4 0H7v-1h1v1zm-5-4H2v-1h1v1zm-2 2H0v-1h1v1zm0-3H0v-1h1v1z" fill="#f0f"/><path d="M6 16H5v7h1v-6-1zm-2-1H3v6h1v-5-1zm0 8H3v-1h1v1zm4-8H7v6h1v-5-1zm0 8H7v-1h1v1zm-7-6v4h1v-4H1zm9 0H9v4h1v-3-1z" fill="#006300"/><path d="M6 15H5v-1h1v1z" fill="#ff0"/></svg>