<svg xmlns="http://www.w3.org/2000/svg" xmlns:xlink="http://www.w3.org/1999/xlink" viewBox="0 0 62 14"><path d="M11 8h-1V7h1v1zM3 6H2V5h1v1zm6 0H8V5h1v1zM1 8H0V7h1v1z" fill="#0f0"/><path d="M1 10H0v1h1v1h1v1h1v1h5v-1h1v-1h1v-1h1v-1h-1V8H9V7H8V6H7V5H6V4H5v1H4v1H3v1H2v1H1v2z" fill="#009300"/><path d="M6 7V6h1V5H6V4H5v1H4v1h1v1h1zm5 4h-1v-1h1v1zm0-3h-1V7h1v1zm-6 3H4v-1h1v1zm2-2H6V8h1v1zM3 6H2V5h1v1zm6 0H8V5h1v1zm-5 7H3v-1h1v1zm4 0H7v-1h1v1zM3 9H2V8h1v1zm-2 2H0v-1h1v1zm0-3H0V7h1v1z" fill="#f0f"/><path d="M6 7H5v7h1V8 7zM4 6H3v6h1V7 6zm0 8H3v-1h1v1zm4-8H7v6h1V7 6zm0 8H7v-1h1v1zM1 8v4h1V8H1zm9 0H9v4h1V9 8z" fill="#006300"/><path d="M6,6H5V5h1V6z" fill="#ff0"/><path d="M52 8h-1V7h1v1zm8-2h-1V5h1v1zm-6 0h-1V5h1v1zm8 2h-1V7h1v1z" fill="#0f0"/><path d="M53,8h-1v2h-1v1h1v1h1v1h1v1h5v-1h1v-1h1v-1h1v-1h-1V8h-1V7h-1V6h-1V5h-1V4h-1v1h-1v1h-1v1h-1V8z" fill="#ff0"/><path d="M57 7V6h1V5h-1V4h-1v1h-1v1h1v1h1zm-5 4h-1v-1h1v1zm0-3h-1V7h1v1zm6 3h-1v-1h1v1zm-2-2h-1V8h1v1zm4-3h-1V5h1v1zm-6 0h-1V5h1v1zm5 7h-1v-1h1v1zm-4 0h-1v-1h1v1zm5-4h-1V8h1v1zm2 2h-1v-1h1v1zm0-3h-1V7h1v1z" fill="#8700ff"/><path d="M57 7h-1v7h1V8 7zm2-1h-1v6h1V7 6zm0 8h-1v-1h1v1zm-4-8h-1v6h1V7 6zm0 8h-1v-1h1v1zm6-6h-1v4h1V9 8zm-8 0h-1v4h1V9 8z" fill="#c5bd00"/><path d="M57,6h-1V5h1V6z" fill="#ff0"/><path d="M40 4h-1V3h1v1zm8-2h-1V1h1v1zm-6 0h-1V1h1v1zm8 2h-1V3h1v1z" fill="#0f0"/><use href="#B" fill="#00a"/><path d="M45 3V2h1V1h-1V0h-1v1h-1v1h1v1h1zm-5 6h-1V8h1v1zm0-2h-1V6h1v1zm0-3h-1V3h1v1zm6 4h-1V7h1v1zm-2-3h-1V4h1v1zm4-3h-1V1h1v1zm-6 0h-1V1h1v1zm5 8h-1V9h1v1zm-4 0h-1V9h1v1zm5-4h-1V5h1v1zm2 3h-1V8h1v1zm0-2h-1V6h1v1zm0-3h-1V3h1v1zm-8 2h-1V5h1v1z" fill="#f0f"/><path d="M45 3h-1v9h1V4 3zm2-1h-1v7h1V3 2zm0 8h-1v2h1v-1-1zm-4-8h-1v7h1V3 2zm0 8h-1v2h1v-1-1zm6-6h-1v6h1V5 4zm-8 0h-1v6h1V5 4z" fill="#0064ff"/><path d="M45,2h-1V1h1V2z" fill="#ff0"/><g fill="#0f0"><path d="M36.6 6h-1V5h1v1zm-8-2h-1V3h1v1zm6 0h-1V3h1v1z"/><path d="M27.6 6h-1v2h-1v1h1v1h-1v1h1v1h1v1h1v1h5v-1h1v-1h1v-1h1v-1h-1V9h1V8h-1V6h-1V5h-1V4h-1V3h-1V2h-1v1h-1v1h-1v1h-1v1z"/><path d="M26.6,6h-1V5h1V6z"/></g><path d="M31.6 5V4h1V3h-1V2h-1v1h-1v1h1v1h1zm5 6h-1v-1h1v1zm0-2h-1V8h1v1zm0-3h-1V5h1v1zm-6 4h-1V9h1v1zm2-3h-1V6h1v1zm-4-3h-1V3h1v1zm6 0h-1V3h1v1zm-5 8h-1v-1h1v1zm4 0h-1v-1h1v1zm-5-4h-1V7h1v1zm-2 3h-1v-1h1v1zm0-2h-1V8h1v1zm0-3h-1V5h1v1zm8 2h-1V7h1v1z" fill="#f0f"/><path d="M31.6 5h-1v9h1V6 5zm-2-1h-1v7h1V5 4zm0 8h-1v2h1v-1-1zm4-8h-1v7h1V5 4zm0 8h-1v2h1v-1-1zm-6-6h-1v6h1V7 6zm8 0h-1v6h1V7 6z" fill="#00af00"/><path d="M31.6,4h-1V3h1V4z" fill="#ff0"/><path d="M23 4h-1V3h1v1zm-8-2h-1V1h1v1zm6 0h-1V1h1v1z" fill="#0f0"/><use href="#B" x="-27" fill="#ff3bff"/><path d="M13,4h-1V3h1V4z" fill="#0f0"/><path d="M18 3V2h1V1h-1V0h-1v1h-1v1h1v1h1zm5 6h-1V8h1v1zm0-2h-1V6h1v1zm0-3h-1V3h1v1zm-6 4h-1V7h1v1zm2-3h-1V4h1v1zm-4-3h-1V1h1v1zm6 0h-1V1h1v1zm-5 8h-1V9h1v1zm4 0h-1V9h1v1zm-5-4h-1V5h1v1zm-2 3h-1V8h1v1zm0-2h-1V6h1v1zm0-3h-1V3h1v1zm8 2h-1V5h1v1z" fill="#8700ff"/><path d="M18 3h-1v9h1V4 3zm-2-1h-1v7h1V3 2zm0 8h-1v2h1v-1-1zm4-8h-1v7h1V3 2zm0 8h-1v2h1v-1-1zm-6-6h-1v6h1V5 4zm8 0h-1v6h1V5 4z" fill="#ff9aff"/><path d="M18,2h-1V1h1V2z" fill="#ff0"/><defs ><path id="B" d="M41 4h-1v2h-1v1h1v1h-1v1h1v1h1v1h1v1h5v-1h1v-1h1V9h1V8h-1V7h1V6h-1V4h-1V3h-1V2h-1V1h-1V0h-1v1h-1v1h-1v1h-1v1z"/></defs></svg>