<svg xmlns="http://www.w3.org/2000/svg" xmlns:xlink="http://www.w3.org/1999/xlink" viewBox="0 0 62 14"><path d="M51 7h1v1h-1zm8-2h1v1h-1zm-6 0h1v1h-1zm8 2h1v1h-1z" fill="#0f0"/><path d="M61 8h-1V7h-1V6h-1V5h-1V4h-1v1h-1v1h-1v1h-1v1h-1v2h-1v1h1v1h1v1h1v1h5v-1h1v-1h1v-1h1v-1h-1V8z" fill="#009300"/><path d="M57 7V6h1V5h-1V4h-1v1h-1v1h1v1h1zm-6 3h1v1h-1zm0-3h1v1h-1zm6 3h1v1h-1zm-2-2h1v1h-1zm4-3h1v1h-1zm-6 0h1v1h-1zm5 7h1v1h-1zm-4 0h1v1h-1zm5-4h1v1h-1zm2 2h1v1h-1zm0-3h1v1h-1z" fill="#f0f"/><path d="M56 8v6h1V7h-1v1zm2-1v5h1V6h-1v1zm0 6h1v1h-1zm-4-6v5h1V6h-1v1zm0 6h1v1h-1zm6-5v4h1V8h-1zm-8 1v3h1V8h-1v1z" fill="#006300"/><path d="M56 5h1v1h-1z" fill="#ff0"/><path d="M10 7h1v1h-1zM2 5h1v1H2zm6 0h1v1H8zM0 7h1v1H0z" fill="#0f0"/><path d="M9 7H8V6H7V5H6V4H5v1H4v1H3v1H2v1H1v2H0v1h1v1h1v1h1v1h5v-1h1v-1h1v-1h1v-1h-1V8H9V7z" fill="#ff0"/><path d="M6 7V6h1V5H6V4H5v1H4v1h1v1h1zm4 3h1v1h-1zm0-3h1v1h-1zm-6 3h1v1H4zm2-2h1v1H6zM2 5h1v1H2zm6 0h1v1H8zm-5 7h1v1H3zm4 0h1v1H7zM2 8h1v1H2zm-2 2h1v1H0zm0-3h1v1H0z" fill="#8700ff"/><path d="M5 8v6h1V7H5v1zM3 7v5h1V6H3v1zm0 6h1v1H3zm4-6v5h1V6H7v1zm0 6h1v1H7zM1 9v3h1V8H1v1zm8 0v3h1V8H9v1z" fill="#c5bd00"/><path d="M5 5h1v1H5z" fill="#ff0"/><path d="M22 3h1v1h-1zm-8-2h1v1h-1zm6 0h1v1h-1zm-8 2h1v1h-1z" fill="#0f0"/><use xlink:href="#B" fill="#00a"/><path d="M18 3V2h1V1h-1V0h-1v1h-1v1h1v1h1zm4 5h1v1h-1zm0-2h1v1h-1zm0-3h1v1h-1zm-6 4h1v1h-1zm2-3h1v1h-1zm-4-3h1v1h-1zm6 0h1v1h-1zm-5 8h1v1h-1zm4 0h1v1h-1zm-5-4h1v1h-1zm-2 3h1v1h-1zm0-2h1v1h-1zm0-3h1v1h-1zm8 2h1v1h-1z" fill="#f0f"/><path d="M17 4v8h1V3h-1v1zm-2-1v6h1V2h-1v1zm0 8v1h1v-2h-1v1zm4-8v6h1V2h-1v1zm0 8v1h1v-2h-1v1zm-6-6v5h1V4h-1v1zm8 0v5h1V4h-1v1z" fill="#0064ff"/><path d="M17 1h1v1h-1z" fill="#ff0"/><g fill="#0f0"><path d="M25.4 5h1v1h-1zm8-2h1v1h-1zm-6 0h1v1h-1z"/><path d="M34.4 5h-1V4h-1V3h-1V2h-1v1h-1v1h-1v1h-1v1h-1v2h-1v1h1v1h-1v1h1v1h1v1h1v1h5v-1h1v-1h1v-1h1v-1h-1V9h1V8h-1V6h-1V5z"/><path d="M35.4 5h1v1h-1z"/></g><path d="M31.4 5V4h1V3h-1V2h-1v1h-1v1h1v1h1zm-6 5h1v1h-1zm0-2h1v1h-1zm0-3h1v1h-1zm6 4h1v1h-1zm-2-3h1v1h-1zm4-3h1v1h-1zm-6 0h1v1h-1zm5 8h1v1h-1zm-4 0h1v1h-1zm5-4h1v1h-1zm2 3h1v1h-1zm0-2h1v1h-1zm0-3h1v1h-1zm-8 2h1v1h-1z" fill="#f0f"/><path d="M30.4 6v8h1V5h-1v1zm2-1v6h1V4h-1v1zm0 8v1h1v-2h-1v1zm-4-8v6h1V4h-1v1zm0 8v1h1v-2h-1v1zm6-6v5h1V6h-1v1zm-8 0v5h1V6h-1v1z" fill="#00af00"/><path d="M30.4 3h1v1h-1z" fill="#ff0"/><path d="M39 3h1v1h-1zm8-2h1v1h-1zm-6 0h1v1h-1z" fill="#0f0"/><use xlink:href="#B" x="27" fill="#ff3bff"/><path d="M49 3h1v1h-1z" fill="#0f0"/><path d="M45 3V2h1V1h-1V0h-1v1h-1v1h1v1h1zm-6 5h1v1h-1zm0-2h1v1h-1zm0-3h1v1h-1zm6 4h1v1h-1zm-2-3h1v1h-1zm4-3h1v1h-1zm-6 0h1v1h-1zm5 8h1v1h-1zm-4 0h1v1h-1zm5-4h1v1h-1zm2 3h1v1h-1zm0-2h1v1h-1zm0-3h1v1h-1zm-8 2h1v1h-1z" fill="#8700ff"/><path d="M44 4v8h1V3h-1v1zm2-1v6h1V2h-1v1zm0 8v1h1v-2h-1v1zm-4-8v6h1V2h-1v1zm0 8v1h1v-2h-1v1zm6-6v5h1V4h-1v1zm-8 0v5h1V4h-1v1z" fill="#ff9aff"/><path d="M44 1h1v1h-1z" fill="#ff0"/><defs ><path id="B" d="M21 3h-1V2h-1V1h-1V0h-1v1h-1v1h-1v1h-1v1h-1v2h-1v1h1v1h-1v1h1v1h1v1h1v1h5v-1h1v-1h1V9h1V8h-1V7h1V6h-1V4h-1V3z"/></defs></svg>