<svg xmlns="http://www.w3.org/2000/svg" viewBox="0 0 34 19"><path d="M33 8V7h-1V6h-1V5h-1V4h-1V3h-1V2h-3V1h-7V0h-2v1H9v1H6v1H5v1H4v1H3v1H2v1H1v1H0v9h3v1h1v1h26v-1h1v-1h3V8h-1z" fill="#960000"/><g fill="red"><path d="M32 8V7h-1V6h-1V5h-1V4h-1V3h-3V2h-6v1h1v1h1v1h1v1h1v1h1v1h1v8h8V8h-1zM11 7V6h1V5h1V4h1V3h1V2H9v1H6v1H5v1H4v1H3v1H2v1H1v8h8V8h1V7h1z"/><path d="M23 7h-1V6h-1V5h-1V4h-1V3h-1V2h-2v1h-1v1h-1v1h-1v1h-1v1h-1v1h-1v8h14V8h-1V7zM4 17v1h26v-1H4z"/></g><g fill="#ffc900"><path d="M22 13.5v-6h-2v6h2zm-4 0v-6h-2v6h2z"/><path d="M14 15.5h2v-2h-2v2zm4 0h2v-2h-2v2z"/><path d="M14 13.5v-6h-2v6h2z"/></g></svg>