<svg xmlns="http://www.w3.org/2000/svg" viewBox="0 0 20 20"><path d="M18 6V4h-2V2h-2V0H6v2H4v2H2v2H0v8h2v2h2v2h2v2h8v-2h2v-2h2v-2h2V6z" fill="#0f5a87"/><path d="M16,6V4h-2V2H6v2H4v2H2v8h2v2h2v2h8v-2h2v-2h2V6H16z" fill="#0fa9c9"/><path d="M14 8V6h-2V4H8v2H6v2H4v4h2v2h2v2h4v-2h2v-2h2V8z" fill="#e6cce1"/><path d="M14 9V8h-1V7h-1V6h-1V5H9v1H8v1H7v1H6v1H5v2h1v1h1v1h1v1h1v1h2v-1h1v-1h1v-1h1v-1h1V9z" fill="#fff"/><g fill="#0f5a87"><path d="M9 7h2v1H9z"/><path d="M12 8h-1v2H9V8H8v2H7v1h1v2h1v-2h2v2h1v-2h1v-1h-1z"/></g></svg>