<svg xmlns="http://www.w3.org/2000/svg" viewBox="0 0 20 20"  xmlns:v="https://vecta.io/nano"><g fill="#e6cce1"><path d="M9,5h2v1h1V4H8v2h1V5z"/><path d="M13 7v1h1V6h-2v1h1z"/><path d="M15 8h-1v1h1v2h-1v1h2V8h-1zM7 7h1V6H6v2h1V7z"/><path d="M5,11V9h1V8H4v4h2v-1H5z"/><path d="M7 13v-1H6v2h2v-1H7zm6 0h-1v1h2v-2h-1v1z"/><path d="M11 15H9v-1H8v2h4v-2h-1v1z"/></g><g fill="#fff"><path d="M9 10h2V8H9v2zm2 1H9v2H8v1h1v1h2v-1h1v-1h-1v-2z"/><path d="M14,9V8h-1V7h-1V6h-1V5H9v1H8v1H7v1H6v1H5v2h1v1h1v1h1v-2H7v-1h1V8h1V7h2v1h1v2h1v1h-1v2h1v-1h1v-1h1V9H14z"/></g><path d="M16 6V4h-2V2H6v2H4v2H2v8h2v2h2v2h8v-2h2v-2h2V6h-2zm0 6h-2v2h-2v2H8v-2H6v-2H4V8h2V6h2V4h4v2h2v2h2v4z" fill="#0fa9c9"/><g fill="#0f5a87"><path d="M14,4h2V2h-2V4z"/><path d="M16,6h2V4h-2V6z"/><path d="M18,6v8h2V6H18z"/><path d="M16,14v2h2v-2H16z"/><path d="M14,16v2h2v-2H14z"/><path d="M6 18v2h8v-2H6zm8-16V0H6v2h8zm-3 6V7H9v1h2z"/><path d="M12 8h-1v2H9V8H8v2H7v1h1v2h1v-2h2v2h1v-2h1v-1h-1V8zM6 4V2H4v2h2z"/><path d="M4 6V4H2v2h2zm0 8H2v2h2v-2z"/><path d="M6 16H4v2h2v-2zM2 6H0v8h2V6z"/></g></svg>