<svg xmlns="http://www.w3.org/2000/svg" viewBox="0 0 40 21"><path d="M34 1v1h-1v1h-1v1h-1v1h-1v1h-1v1h-2v1h-3v1h-8V8h-3V7h-2V6h-1V5H9V4H8V3H7V2H6V1H3v20h34V1h-3z" fill="#960000"/><path d="M34 2v1h-1v1h-1v1h-1v1h-1v1h-1v1h-2v1h-3v1h-8V9h-3V8h-2V7h-1V6H9V5H8V4H7V3H6V2H4v18h32V2h-2z" fill="red"/><g fill="#ffc900"><path d="M12.5 14v-2h-1v4h1v-2z"/><path d="M12.5 16h1v1h-1z"/><path d="M14.5 14v-2h-1v4h1v-2zm1-1v3h1v-4h-1v1z"/><path d="M14.5 16h1v1h-1zm11-2v3h1v-4h-1v1zm-2 0v3h1v-4h-1v1z"/><path d="M24.5 12h1v1h-1zm3 0v5h1v-5h-1zm-6 2v3h1v-4h-1v1z"/><path d="M22.5 12h1v1h-1zm-4 0v1h2v-1h-2zm2 3v-1h-1v2h1v-1z"/><path d="M18.5 16h1v1h-1z"/><path d="M17.5 14v2h1v-3h-1v1z"/></g></svg>