<svg xmlns="http://www.w3.org/2000/svg" viewBox="0 0 34 22"><path d="M32 14v-2h-2v-2h-4V8h-4V6h-4V5h2V4h1V3h-1V2h-1V1h-1V0h-2v1h-1v1h-1v1h-1v1h1v1h2v1h-4v2H8v2H4v2H2v2H0v7h2v-3h1v-1h8v1h1v1h2v1h1v1h1v1h2v-1h1v-1h1v-1h2v-1h1v-1h8v1h1v3h2v-7h-2z" fill="#e5ba05"/><path d="M16 5v1h2V5h-2z" fill="#0448b9"/><path d="M19 3V2h-1V1h-2v1h-1v1h-1v1h6V3h-1zm13 12v-1h-1v-1h-1v-1h-1v-1h-3v-1h-1V9h-3V8h-1V7h-8v1h-1v1H9v1H8v1H5v1H4v1H3v1H2v1H1v3h1v-1h1v-1h8v1h1v1h2v1h1v1h1v1h2v-1h1v-1h1v-1h2v-1h1v-1h8v1h1v1h1v-3h-1z" fill="#ffd200"/><g fill="#fdfdff"><path d="M8 14h1v1H8zm-2 0h1v1H6z"/><path d="M9 13h1v1H9zm-2 0h1v1H7z"/><path d="M10 12h1v1h-1zm-2 0h1v1H8z"/><path d="M11 11h1v1h-1zm-2 0h1v1H9z"/><path d="M12 10h1v1h-1zm-2 0h1v1h-1z"/></g></svg>