<svg xmlns="http://www.w3.org/2000/svg" viewBox="0 0 25 9"><path d="M18 0v1h-1v1H0v3h17v3h1v1h7V0h-7z" fill="#0448b9"/><g fill="#0060ff"><path d="M18 1v1h-1v1h1v1h-1v1h1v1h-1v1h1v1h7V1h-7z"/><path d="M16 3h1v1h-1zm-2 0H0v1h14v1h1V2h-1v1z"/></g><path d="M19 1v1h-2v1h1v1h-1v1h1v1h-1v1h2v1h6V1h-6zm-5 2H0v1h14v1h1V2h-1v1z" fill="#abfbff"/><path d="M24 1h-1v2h-1v2h-1v2h-1v1h2V7h1V5h1V3h1V1h-1z" fill="#d7ffff"/><path d="M14 2v1H0v1h14v1h1V2h-1z" fill="#fdfdff"/><path d="M11 3h1v1h-1zM9 3h1v1H9zM7 3h1v1H7zM5 3h1v1H5zM3 3h1v1H3zM1 3h1v1H1z" fill="#fff"/><path d="M17 2h1v1h-1zm0 2h1v1h-1zm0 2h1v1h-1zm-3-3h1v1h-1zm-2 0h1v1h-1zm-2 0h1v1h-1zM8 3h1v1H8zM6 3h1v1H6zM4 3h1v1H4zM2 3h1v1H2zM0 3h1v1H0z" fill="#ffd200"/></svg>