<svg xmlns="http://www.w3.org/2000/svg" viewBox="0 0 34 9"><path d="M34 2h-1-3V1h-1V0H5v1H4v1H1 0v1 1 1h1 3v3h1v1h10V8h1V5h2v3h1v1h10V8h1V5h3 1V4 3 2z" fill="#0448b9"/><g fill="#0060ff"><path d="M15 3h1V2h-1V1H5v1H4v1h1v1H4v1h1v1H4v1h1v1h10V7h1V6h-1V5h1V4h-1V3zm14 0h1V2h-1V1H19v1h-1v1h1v1h-1v1h1v1h-1v1h1v1h10V7h1V6h-1V5h1V4h-1V3z"/><path d="M17 3h-1v1h2V3h-1zM3 3h1v1H3zm27 0h1v1h-1z"/></g><path d="M33 3V2h-1v3h1V4h1V3h-1z" fill="#fdfdff"/><path d="M32 3h1v1h-1z" fill="#ffd200"/><path d="M1 4v1h1V2H1v1H0v1h1z" fill="#fdfdff"/><path d="M1 3h1v1H1zm3-1h1v1H4zm0 2h1v1H4zm0 2h1v1H4zm25-4h1v1h-1zm0 2h1v1h-1zm0 2h1v1h-1zM15 2h1v1h-1zm0 2h1v1h-1zm0 2h1v1h-1zm3-4h1v1h-1zm0 2h1v1h-1zm0 2h1v1h-1z" fill="#ffd200"/><path d="M14 1H6v1H5v5h1v1h8V7h1V2h-1V1zm14 1V1h-8v1h-1v5h1v1h8V7h1V2h-1z" fill="#abfbff"/><path d="M10 1v2H9v2H8v2H7v1h2V7h1V5h1V3h1V1h-2zm14 0v2h-1v2h-1v2h-1v1h2V7h1V5h1V3h1V1h-2z" fill="#d7ffff"/></svg>