<svg xmlns="http://www.w3.org/2000/svg" viewBox="0 0 24 22"><path d="M23 6V5h-1V4h-1V3h-1V2h-2V1h-2V0H0v22h24V6h-1z" fill="#0448b9"/><path d="M23 7V6h-1V5h-1V4h-1V3h-2V2h-2V1H0v20h24V7h-1z" fill="#0060ff"/><path d="M23 20h1v1h-1zm-6 0h1v1h-1zm4-3h-1v1h-1v1h1v1h1v-1h1v-1h-1zm-2-2h-1v-1h-1v1h-1v1h1v1h1v-1h1zm4 0h-1v1h1v1h1v-3h-1v1zm-2-1v-1h1v-1h-1v-1h-1v1h-1v1h1v1zm-3-3v-1h1V9h-1V8h-1v1h-1v1h1v1zm5-3v1h-1v1h1v1h1V8h-1zm-4-1h1v1h1V7h1V6h-1V5h-1v1h-1zm-8 13h1v1h-1zm4-3h-1v1h-1v1h1v1h1v-1h1v-1h-1zm-2-2h-1v-1h-1v1h-1v1h1v1h1v-1h1zm2-1v-1h1v-1h-1v-1h-1v1h-1v1h1v1zm-3-3v-1h1V9h-1V8h-1v1h-1v1h1v1zm1-4h1v1h1V7h1V6h-1V5h-1v1h-1zM5 20h1v1H5zm4-3H8v1H7v1h1v1h1v-1h1v-1H9zm-2-2H6v-1H5v1H4v1h1v1h1v-1h1zm2-1v-1h1v-1H9v-1H8v1H7v1h1v1zm-3-3v-1h1V9H6V8H5v1H4v1h1v1zm1-4h1v1h1V7h1V6H9V5H8v1H7zM3 17H2v1H1v1h1v1h1v-1h1v-1H3zm-3-2h1v1H0zm3-1v-1h1v-1H3v-1H2v1H1v1h1v1zM0 9h1v1H0zm1-2h1v1h1V7h1V6H3V5H2v1H1zm13-6h1v1h-1zM8 1h1v1H8zM2 1h1v1H2zm9 4h1V4h1V3h-1V2h-1v1h-1v1h1zM5 5h1V4h1V3H6V2H5v1H4v1h1zM0 3h1v1H0zm17 2h1V4h1V3h-1V2h-1v1h-1v1h1z" fill="#fdfdff"/><path d="M20 18h1v1h-1zm3-3h1v1h-1zm-6 0h1v1h-1zm3-3h1v1h-1zm3-3h1v1h-1zm-6 0h1v1h-1zm3-3h1v1h-1zm-6 12h1v1h-1zm-3-3h1v1h-1zm3-3h1v1h-1zm-3-3h1v1h-1zm3-3h1v1h-1zM8 18h1v1H8zm-3-3h1v1H5zm3-3h1v1H8zM5 9h1v1H5zm3-3h1v1H8zM2 18h1v1H2zm0-6h1v1H2zm0-6h1v1H2zm9-3h1v1h-1zM5 3h1v1H5zm12 0h1v1h-1z" fill="#ffd200"/></svg>