<svg xmlns="http://www.w3.org/2000/svg" viewBox="0 0 24 22"><path d="M1 6V5h1V4h1V3h1V2h2V1h2V0h16v22H0V6h1z" fill="#0448b9"/><path d="M1 7V6h1V5h1V4h1V3h2V2h2V1h16v20H0V7h1z" fill="#0060ff"/><path d="M0 20h1v1H0zm6 0h1v1H6zm-3-3h1v1h1v1H4v1H3v-1H2v-1h1zm2-2h1v-1h1v1h1v1H7v1H6v-1H5zm-4 0h1v1H1v1H0v-3h1v1zm2-1v-1H2v-1h1v-1h1v1h1v1H4v1zm3-3v-1H5V9h1V8h1v1h1v1H7v1zM1 8v1h1v1H1v1H0V8h1zm4-1H4v1H3V7H2V6h1V5h1v1h1zm7 13h1v1h-1zm-3-3h1v1h1v1h-1v1H9v-1H8v-1h1zm2-2h1v-1h1v1h1v1h-1v1h-1v-1h-1zm-2-1v-1H8v-1h1v-1h1v1h1v1h-1v1zm3-3v-1h-1V9h1V8h1v1h1v1h-1v1zm-1-4h-1v1H9V7H8V6h1V5h1v1h1zm7 13h1v1h-1zm-3-3h1v1h1v1h-1v1h-1v-1h-1v-1h1zm2-2h1v-1h1v1h1v1h-1v1h-1v-1h-1zm-2-1v-1h-1v-1h1v-1h1v1h1v1h-1v1zm3-3v-1h-1V9h1V8h1v1h1v1h-1v1zm-1-4h-1v1h-1V7h-1V6h1V5h1v1h1zm4 10h1v1h1v1h-1v1h-1v-1h-1v-1h1zm2-2h1v1h-1zm-2-1v-1h-1v-1h1v-1h1v1h1v1h-1v1zm2-5h1v1h-1zm0-2h-1v1h-1V7h-1V6h1V5h1v1h1zM9 1h1v1H9zm6 0h1v1h-1zm6 0h1v1h-1zm-8 4h-1V4h-1V3h1V2h1v1h1v1h-1zm6 0h-1V4h-1V3h1V2h1v1h1v1h-1zm4-2h1v1h-1zM7 5H6V4H5V3h1V2h1v1h1v1H7z" fill="#fdfdff"/><path d="M3 18h1v1H3zm-3-3h1v1H0zm6 0h1v1H6zm-3-3h1v1H3zM0 9h1v1H0zm6 0h1v1H6zM3 6h1v1H3zm6 12h1v1H9zm3-3h1v1h-1zm-3-3h1v1H9zm3-3h1v1h-1zM9 6h1v1H9zm6 12h1v1h-1zm3-3h1v1h-1zm-3-3h1v1h-1zm3-3h1v1h-1zm-3-3h1v1h-1zm6 12h1v1h-1zm0-6h1v1h-1zm0-6h1v1h-1zm-9-3h1v1h-1zm6 0h1v1h-1zM6 3h1v1H6z" fill="#ffd200"/></svg>