<svg xmlns="http://www.w3.org/2000/svg" viewBox="0 0 40 23"><path d="M35 1v1h-2v1h-2v1h-1v1h-1v1h-1v1h-1v1h-2v1h-2v1h-2v1h-2v-1h-2V9h-2V8h-2V7h-1V6h-1V5h-1V4H9V3H7V2H5V1H2.5v8H3v14h34V9h.5V1H35z" fill="#0448b9"/><path d="M35 2v1h-2v1h-2v1h-1v1h-1v1h-1v1h-1v1h-2v1h-2v1h-2v1h-2v-1h-2v-1h-2V9h-2V8h-1V7h-1V6h-1V5H9V4H7V3H5V2H2.5v6H4v14h32V8h1.5V2H35z" fill="#0060ff"/><g fill="#fff"><path d="M30 21h1v1h-1zm-6 0h1v1h-1zm-6 0h1v1h-1zm-6 0h1v1h-1zm-6 0h1v1H6zm-2-2h1v1H4zm30-1h-1v1h-1v1h1v1h1v-1h1v-1h-1zm-6 0h-1v1h-1v1h1v1h1v-1h1v-1h-1zm-6 0h-1v1h-1v1h1v1h1v-1h1v-1h-1zm-6 0h-1v1h-1v1h1v1h1v-1h1v-1h-1zm-6 0H9v1H8v1h1v1h1v-1h1v-1h-1zm25-2h1v1h-1zm-3 0h-1v-1h-1v1h-1v1h1v1h1v-1h1zm-6 0h-1v-1h-1v1h-1v1h1v1h1v-1h1zm-6 0h-1v-1h-1v1h-1v1h1v1h1v-1h1zm-6 0h-1v-1h-1v1h-1v1h1v1h1v-1h1zm-6 0H7v-1H6v1H5v1h1v1h1v-1h1zm26-1v-1h1v-1h-1v-1h-1v1h-1v1h1v1zm-13 0h1v-1h1v-1h-1v-1h-1v1h-1v1h1zm-11 0v-1h1v-1h-1v-1H9v1H8v1h1v1zm16-1h1v1h1v-1h1v-1h-1v-1h-1v1h-1zm-12 0h1v1h1v-1h1v-1h-1v-1h-1v1h-1zM4 13h1v1H4zm20-1h1v-1h1v-1h-3v1h1v1zm-6-1h1v1h-1zM7 12v-1h1v-1H7V9H6v1H5v1h1v1zm28-2h1v1h-1zm-6 1h1v1h1v-1h1v-1h-1V9h-1v1h-1zm-18 0h1v1h1v-1h1v-1h-1V9h-1v1h-1zm16-3h1v1h-1z"/><path d="M32 8h1v1h1V8h1V7h-1V6h-1v1h-1zm-4-1h1v1h-1zM8 8h1v1h1V8h1V7h-1V6H9v1H8zM5 8V7H4V6H3v1h-.5v1H3h2zm25-3h1v1h-1zM6 6h1V5h1V4H7V3H6v1H5v1h1z"/><path d="M31 4h1v1h-1zm5-1v1h-1v1h1v1h1V5h.5V4H37V3zM3 2h1v1H3z"/></g><path d="M33 19h1v1h-1zm-6 0h1v1h-1zm-6 0h1v1h-1zm-6 0h1v1h-1zm-6 0h1v1H9zm21-3h1v1h-1zm-6 0h1v1h-1zm-6 0h1v1h-1zm-6 0h1v1h-1zm-6 0h1v1H6zm27-3h1v1h-1zm-6 0h1v1h-1zm-6 0h1v1h-1zm-6 0h1v1h-1zm-6 0h1v1H9zm21-3h1v1h-1zm-6 0h1v1h-1zm-12 0h1v1h-1zm-6 0h1v1H6zm27-3h1v1h-1zM9 7h1v1H9zM3 7h1v1H3zm33-3h1v1h-1zM6 4h1v1H6z" fill="#ffd200"/></svg>