<svg xmlns="http://www.w3.org/2000/svg" viewBox="0 0 40 23"><path d="M35 1H5 2.5v8H3v14h34V9h.5V1z" fill="#0448b9"/><path d="M3 2v6h1v14h32V8h1V2H3z" fill="#0060ff"/><path d="M9 21h1v1H9zm6 0h1v1h-1zm6 0h1v1h-1zm6 0h1v1h-1zm6 0h1v1h-1zm2-2h1v1h-1zM7 18H6v1H5v1h1v1h1v-1h1v-1H7zm6 0h-1v1h-1v1h1v1h1v-1h1v-1h-1zm6 0h-1v1h-1v1h1v1h1v-1h1v-1h-1zm6 0h-1v1h-1v1h1v1h1v-1h1v-1h-1zm6 0h-1v1h-1v1h1v1h1v-1h1v-1h-1zM4 16h1v1H4zm7 0h-1v-1H9v1H8v1h1v1h1v-1h1zm6 0h-1v-1h-1v1h-1v1h1v1h1v-1h1zm6 0h-1v-1h-1v1h-1v1h1v1h1v-1h1zm6 0h-1v-1h-1v1h-1v1h1v1h1v-1h1zm6 0h-1v-1h-1v1h-1v1h1v1h1v-1h1zM7 15v-1h1v-1H7v-1H6v1H5v1h1v1zm6 0v-1h1v-1h-1v-1h-1v1h-1v1h1v1zm6 0v-1h1v-1h-1v-1h-1v1h-1v1h1v1zm6 0v-1h1v-1h-1v-1h-1v1h-1v1h1v1zm6 0v-1h1v-1h-1v-1h-1v1h-1v1h1v1zm4-2h1v1h-1zm-25-1v-1h1v-1h-1V9H9v1H8v1h1v1zm6 0v-1h1v-1h-1V9h-1v1h-1v1h1v1zm6 0v-1h1v-1h-1V9h-1v1h-1v1h1v1zm6 0v-1h1v-1h-1V9h-1v1h-1v1h1v1zm6 0v-1h1v-1h-1V9h-1v1h-1v1h1v1zM11 8h1v1h1V8h1V7h-1V6h-1v1h-1zm6 0h1v1h1V8h1V7h-1V6h-1v1h-1zm6 0h1v1h1V8h1V7h-1V6h-1v1h-1zm6 0h1v1h1V8h1V7h-1V6h-1v1h-1zM9 6h1V5h1V4h-1V3H9v1H8v1h1zm6 0h1V5h1V4h-1V3h-1v1h-1v1h1zm6 0h1V5h1V4h-1V3h-1v1h-1v1h1zm6 0h1V5h1V4h-1V3h-1v1h-1v1h1zm6 0h1V5h1V4h-1V3h-1v1h-1v1h1zM4 10h1v1H4zm1-2h1v1h1V8h1V7H7V6H6v1H5zm31-1h-1v1h2V6h-1v1zM4 5h1V4H4V3H3v3h1V5zm32-3h1v1h-1zM6 2h1v1H6zm6 0h1v1h-1zm6 0h1v1h-1zm6 0h1v1h-1zm6 0h1v1h-1z" fill="#fdfdff"/><path d="M6 19h1v1H6zm6 0h1v1h-1zm6 0h1v1h-1zm6 0h1v1h-1zm6 0h1v1h-1zM9 16h1v1H9zm6 0h1v1h-1zm6 0h1v1h-1zm6 0h1v1h-1zm6 0h1v1h-1zM9 10h1v1H9zm6 0h1v1h-1zm6 0h1v1h-1zm6 0h1v1h-1zm6 0h1v1h-1zM6 13h1v1H6zm6 0h1v1h-1zm6 0h1v1h-1zm6 0h1v1h-1zm6 0h1v1h-1zM9 4h1v1H9zm6 0h1v1h-1zm6 0h1v1h-1zm6 0h1v1h-1zm6 0h1v1h-1zM6 7h1v1H6zm6 0h1v1h-1zm6 0h1v1h-1zm6 0h1v1h-1zm6 0h1v1h-1zm6 0h1v1h-1zM3 4h1v1H3z" fill="#ffd200"/></svg>