<svg xmlns="http://www.w3.org/2000/svg" viewBox="0 0 34 36"><path d="M33 11V9h-2V7h-3V5h-3V1h-1V0h-5v1h-1v1h-2V1h-1V0h-5v1H9v4H6v2H3v2H1v2H0v16h8v1h1v1h1v1h1v1h1v1h1v1h1v1h1v1h1v1h2v-1h1v-1h1v-1h1v-1h1v-1h1v-1h1v-1h1v-1h1v-1h8V11h-1z" fill="#519e00"/><path d="M32 11h-1V9h-3V7h-3V5h-1V1h-5v1h-1v3h-2V2h-1V1h-5v4H9v2H6v2H3v2H1v15h7v1h1v1h1v1h1v1h1v1h1v1h1v1h1v1h1v1h2v-1h1v-1h1v-1h1v-1h1v-1h1v-1h1v-1h1v-1h1v-1h7V11h-1zm-16 9v-1h2v2h-2v-1zm2-4v1h-2v-2h2v1zm-2 8v-1h2v2h-2v-1zm2-12v1h-2v-2h2v1zm-2 16v-1h2v2h-2v-1zm2-20v1h-2V7h2v1zm-1 25h-1v-2h2v2h-1z" fill="#a3d167"/></svg>