<svg xmlns="http://www.w3.org/2000/svg" viewBox="0 0 29 38"><path d="M28 11v-1h-1V9h-1V8h-1V7h-1V6h-1V5h-1V4h-1V1h-1V0h-5v1h-1v2h-2v2H8v2H6v2H4v2H2v2H1v2H0v2h1v2H0v2h1v2H0v2h1v2H0v2h1v2H0v2h1v2H0v2h1v1h1v-1h1v-1h1v-1h1v-1h1v-1h1v-1h1v-1h1v-1h1v-1h1v-1h1v-1h9v-8h8v-8h-1z" fill="#519e00"/><path d="M27 11v-1h-1V9h-1V8h-1V7h-1V6h-1V5h-1V4h-1V1h-5v2h-1v2h-2v2H8v2H6v2H4v2H2v22h1v-1h1v-1h1v-1h1v-1h1v-1h1v-1h1v-1h1v-1h1v-1h1v-1h8v-7h8v-7h-1zm0 3h-2v-2h2v2z" fill="#a3d167"/><path d="M16 3v7h3V3h-3z" fill="#234b00"/><path d="M22 13v-1h-2v1h-1v2h1v1h2v-1h1v-2h-1z" fill="#f696c6"/><path d="M16 3v2h2V3h-2z" fill="#fff"/></svg>