<svg xmlns="http://www.w3.org/2000/svg" viewBox="0 0 16 26"><path d="M0 9v2h5v1h1v1h1v1h1v1H5v2h1v1h1v1h1v1h1v1h1v1h1v1h1v1h1v1h1v1h2v-4h-1v-1h-1v-1h-1v-1h-1v-1h4v-2h-1v-1h-1v-1h-1v-1h-1v-1h-1v-1h4v-1h-1V9h-1V8h-1V7h-1V6h-1V5H9V4H8V3H7V2H6V1H5V0H3v3H2v3H1v3H0z" fill="#0082ff"/><path d="M1 9v1h4v1h1v1h1v1h1v1h1v1h1v1H6v1h1v1h1v1h1v1h1v1h1v1h1v1h1v1h1v1h1v-3h-1v-1h-1v-1h-1v-1h-1v-2h4v-1h-1v-1h-1v-1h-1v-1h-1v-1h-1v-1H9v-1h4V9h-1V8h-1V7h-1V6H9V5H8V4H7V3H6V2H5V1H4v2H3v3H2v3H1z" fill="#aed7ff"/><g fill="#d2e9ff"><path d="M13 10h-1V9h1v1z"/><path d="M12,9h-1V8h1V9z"/><path d="M11,8h-1V7h1V8z"/><path d="M10,7H9V6h1V7z"/><path d="M9 6H8V5h1v1zm3 8h-1v-1h1v1z"/><path d="M13 15h-1v-1h1v1z"/><path d="M14 16h-1v-1h1v1z"/><path d="M15 17h-1v-1h1v1zM8 5H7V4h1v1zm2 7H9v-1h1v1z"/><path d="M11 13h-1v-1h1v1zm0 4h-1v1 1h1v-1-1z"/><path d="M12 20h-1v-1h1v1z"/><path d="M13 21h-1v-1h1v1z"/><path d="M14 22h-1v-1h1v1z"/><path d="M15 23h-1v-1h1v1zM7 4H6V3h1v1z"/><path d="M6,3H5V2h1V3z"/><path d="M5,2H4V1h1V2z"/></g><g fill="#6bb6ff"><path d="M10 15H9v-1h1v1zm-3 2H6v-1h1v1z"/><path d="M8 18H7v-1h1v1z"/><path d="M9 19H8v-1h1v1zm2 2h-1v-1h1v1z"/><path d="M12 22h-1v-1h1v1z"/><path d="M13 23h-1v-1h1v1z"/><path d="M14 24h-1v-1h1v1zm-4-4H9v-1h1v1zm-4-9H5v-1h1v1z"/><path d="M7 12H6v-1h1v1z"/><path d="M8 13H7v-1h1v1z"/><path d="M9 14H8v-1h1v1zm-7-4H1V9h1v1zm1-4h1V3H3v1 2z"/><path d="M2 9h1V6H2v1 2zm13 16h-1v-1h1v1z"/></g></svg>