<svg xmlns="http://www.w3.org/2000/svg" viewBox="0 0 15 25"><path d="M14 15v-1h-1v-1h-1v-1h-1v-1h-1v-1h4V9h-1V8h-1V7h-1V6h-1V5H9V4H8V3H7V2H6V1H5V0H3v2H2v3H1v3H0v2h5v1h1v1h1v1h1v1H4v1h1v1h1v1h1v1h1v1h1v1h1v1h1v1h1v1h1v1h1v1h1v-4h-1v-1h-1v-1h-1v-1h-1v-1h4v-2h-1z" fill="#0082ff"/><path d="M10 16h4v-1h-1v-1h-1v-1h-1v-1h-1v-1H9v-1H8V9h4V8h-1V7h-1V6H9V5H8V4H7V3H6V2H5V1H4v1H3v3H2v3H1v1h4v1h1v1h1v1h1v1h1v1h1v1H6v1h1v1h1v1h1v1h1v1h1v1h1v1h1v1h1v-2h-1v-1h-1v-1h-1v-1h-1v-2z" fill="#aed7ff"/><g fill="#6bb6ff"><path d="M5 9h1v1H5z"/><path d="M6 10h1v1H6z"/><path d="M7 11h1v1H7zm2 2h1v1H9z"/><path d="M10 14h1v1h-1zm-4 1h1v1H6z"/><path d="M7 16h1v1H7z"/><path d="M8 17h1v1H8z"/><path d="M9 18h1v1H9z"/><path d="M10 19h1v1h-1z"/><path d="M11 20h1v1h-1z"/><path d="M12 21h1v1h-1z"/><path d="M13 22h1v1h-1zM8 12h1v1H8z"/></g><g fill="#d2e9ff"><path d="M11 8h1v1h-1z"/><path d="M10 7h1v1h-1z"/><path d="M9 6h1v1H9z"/><path d="M8 5h1v1H8z"/><path d="M7 4h1v1H7zm3 8h1v1h-1z"/><path d="M11 13h1v1h-1z"/><path d="M12 14h1v1h-1z"/><path d="M13 15h1v1h-1zM6 3h1v1H6zm2 7h1v1H8z"/><path d="M9 11h1v1H9zm-2 4h1v1H7z"/><path d="M8 16h1v1H8z"/><path d="M9 17h1v1H9z"/><path d="M10 18h1v1h-1z"/><path d="M11 19h1v1h-1z"/><path d="M12 20h1v1h-1z"/><path d="M13 21h1v1h-1zM5 2h1v1H5z"/><path d="M4 1h1v1H4z"/></g></svg>