<svg xmlns="http://www.w3.org/2000/svg" viewBox="0 0 15 25"><path d="M1 15v-1h1v-1h1v-1h1v-1h1v-1H1V9h1V8h1V7h1V6h1V5h1V4h1V3h1V2h1V1h1V0h2v2h1v3h1v3h1v2h-5v1H9v1H8v1H7v1h4v1h-1v1H9v1H8v1H7v1H6v1H5v1H4v1H3v1H2v1H1v1H0v-4h1v-1h1v-1h1v-1h1v-1H0v-2h1z" fill="#0082ff"/><path d="M5 16H1v-1h1v-1h1v-1h1v-1h1v-1h1v-1h1V9H3V8h1V7h1V6h1V5h1V4h1V3h1V2h1V1h1v1h1v3h1v3h1v1h-4v1H9v1H8v1H7v1H6v1H5v1h4v1H8v1H7v1H6v1H5v1H4v1H3v1H2v1H1v-2h1v-1h1v-1h1v-1h1v-2z" fill="#aed7ff"/><g fill="#6bb6ff"><path d="M9 9h1v1H9z"/><path d="M8 10h1v1H8z"/><path d="M7 11h1v1H7zm-2 2h1v1H5z"/><path d="M4 14h1v1H4zm4 1h1v1H8z"/><path d="M7 16h1v1H7z"/><path d="M6 17h1v1H6z"/><path d="M5 18h1v1H5z"/><path d="M4 19h1v1H4z"/><path d="M3 20h1v1H3z"/><path d="M2 21h1v1H2z"/><path d="M1 22h1v1H1zm5-10h1v1H6z"/></g><g fill="#d2e9ff"><path d="M3 8h1v1H3z"/><path d="M4 7h1v1H4z"/><path d="M5 6h1v1H5z"/><path d="M6 5h1v1H6z"/><path d="M7 4h1v1H7zm-3 8h1v1H4z"/><path d="M3 13h1v1H3z"/><path d="M2 14h1v1H2z"/><path d="M1 15h1v1H1zM8 3h1v1H8zm-2 7h1v1H6z"/><path d="M5 11h1v1H5zm2 4h1v1H7z"/><path d="M6 16h1v1H6z"/><path d="M5 17h1v1H5z"/><path d="M4 18h1v1H4z"/><path d="M3 19h1v1H3z"/><path d="M2 20h1v1H2z"/><path d="M1 21h1v1H1zM9 2h1v1H9z"/><path d="M10 1h1v1h-1z"/></g></svg>