<svg xmlns="http://www.w3.org/2000/svg" viewBox="0 0 24 20"><path d="M7 0v1H6v1H5v1H4v1H3v1H2v1H0v14h24V0H7z" fill="#bc20d2"/><path d="M12 1H7v1H6v1H5v1H4v1H3v1H2v1H0v12h14V1h-2zm11 0h-8v18h9V1h-1z" fill="#4c0067"/><path d="M5.1 10.9v3.5H3.4v-3.5h-.9v4.3h1.3v1.7h.9v-1.7H6v-4.3h-.9zM0 16.1v.9h2.1v-.9H0z" fill="#fff"/><g fill="#bc20d2"><path d="M21 13h1v1h-1z"/><path d="M22 12h1v1h-1zm-2 2h1v1h-1z"/><path d="M19 15h1v1h-1z"/><path d="M18 16h1v1h-1zm5-5h1v1h-1zm-4.5-6.5h.5V5h-.5z"/><path d="M18.5 5H18v1h.5V5zm.5.5V6h.5V5H19v.5z"/><path d="M18.5 6h.5v.5h-.5zm2-1.5H20v2h.5V5h.5v-.5h-.5z"/><path d="M21 5.5v1h.5V5H21v.5zm2.5-1v1h.5v-1h-.5zm-1 1.5v.5h1V6h-1z"/><path d="M22.5 5v-.5H22V6h.5V5z"/></g></svg>