<svg xmlns="http://www.w3.org/2000/svg" viewBox="0 0 40 21"><path d="M3 1v20h34V1H3z" fill="#bc20d2"/><path d="M4 2v18h32V2H4z" fill="#4c0067"/><g fill="#bc20d2"><path d="M10.5 14h1v1h-1z"/><path d="M11.5 13h1v1h-1zm-2 2h1v1h-1z"/><path d="M8.5 16h1v1h-1z"/><path d="M7.5 17h1v1h-1zm6-6h1v1h-1z"/><path d="M12.5 12h1v1h-1zm2-2h1v1h-1zm8 4h1v1h-1z"/><path d="M21.5 15h1v1h-1z"/><path d="M20.5 16h1v1h-1z"/><path d="M19.5 15h1v1h-1z"/><path d="M18.5 14h1v1h-1z"/><path d="M17.5 13h1v1h-1z"/><path d="M16.5 12h1v1h-1z"/><path d="M15.5 11h1v1h-1zm8 2h1v1h-1z"/><path d="M24.5 12h1v1h-1z"/><path d="M25.5 11h1v1h-1z"/><path d="M26.5 10h1v1h-1z"/><path d="M27.5 9h1v1h-1z"/><path d="M28.5 8h1v1h-1z"/><path d="M29.5 7h1v1h-1z"/><path d="M31.5 5h-2v1h1v1h1v1h1V5h-1z"/></g><g fill="#fff"><path d="M20 6v2h-1v1h2V5h-1v1z"/><path d="M19 6V5h-1v3h1V6zm4 0h1V5h-2v4h1V8h1V7h-1V6z"/><path d="M24 6h1v1h-1z"/></g><g fill="#bc20d2"><path d="M26 15h.5v.5H26z"/><path d="M26 15.5h-.5v1h.5v-1zm.5.5v.5h.5v-1h-.5v.5z"/><path d="M26 16.5h.5v.5H26zm2-1.5h-.5v2h.5v-1.5h.5V15H28z"/><path d="M28.5 16v1h.5v-1.5h-.5v.5zm3-1H31v1h.5v-1z"/><path d="M31.5 16.5v.5h.5v-1h-.5v.5z"/><path d="M32 15v1h.5v-1H32zm-2 1.5v.5h1v-.5h-1z"/><path d="M30 15.5V15h-.5v1.5h.5v-1zM8 5.5h.5V6H8z"/><path d="M8 6h-.5v1H8V6zm.5.5V7H9V6h-.5v.5z"/><path d="M8 7h.5v.5H8zm2-1.5h-.5v2h.5V6h.5v-.5H10z"/><path d="M10.5 6.5v1h.5V6h-.5v.5zm3-1H13v1h.5v-1z"/><path d="M13.5 7v.5h.5v-1h-.5V7z"/><path d="M14 5.5v1h.5v-1H14zM12 7v.5h1V7h-1z"/><path d="M12 6v-.5h-.5V7h.5V6z"/></g></svg>