<svg xmlns="http://www.w3.org/2000/svg" viewBox="0 0 24 20"><path d="M22 6V5h-1V4h-1V3h-1V2h-1V1h-1V0H0v20h24V6h-2z" fill="#bc20d2"/><path d="M23 7h-1V6h-1V5h-1V4h-1V3h-1V2h-1V1h-7v18h14V7h-1zM0 1v18h9V1H0z" fill="#4c0067"/><path d="M20.7 11.8v4.3H19v-5.2h-.9V17h3.5v-6.1h-.9v.9zm2.6.9v-.9h.7v-.9h-1.6V17h.9v-1.7h.7v-.9h-.7v-1.7z" fill="#fff"/><g fill="#bc20d2"><path d="M0 9h1v1H0z"/><path d="M1 8h1v1H1z"/><path d="M2 7h1v1H2z"/><path d="M3 6h1v1H3z"/><path d="M5 4H3v1h1v1h1v1h1V4H5zM0 15v.5h.5v-1H0v.5zm1.5-1H1v2h.5v-1.5H2V14h-.5z"/><path d="M2 15v1h.5v-1.5H2v.5zm3-1h-.5v1H5v-1z"/><path d="M5 15.5v.5h.5v-1H5v.5z"/><path d="M5.5 14.5v.5H6v-1h-.5v.5zm-2 1v.5h1v-.5h-1z"/><path d="M3.5 14.5V14H3v1.5h.5v-1z"/></g></svg>