<svg xmlns="http://www.w3.org/2000/svg" viewBox="0 0 46 24"  xmlns:v="https://vecta.io/nano"><path d="M36 20v4h2v-4h-2zM8 20v4h2v-4H8z" fill="#ffc500"/><g fill="#8e9397"><path d="M34,13V6h-2v7h-6V2h-2v11h-2V2h-2v11h-6V6h-2v7H8v7h2v-3h26v3h2v-7H34z"/><path d="M32 4h-2v2h2V4zM16 6V4h-2v2h2z"/></g><path d="M42 8V6h-2v2h2z"/><path d="M40,16V8h-2V6h-2V4h-4v2h2v7h4v11h2v-6h2v-2H40z"/><path d="M42,12v4h2v-4H42z"/><path d="M42 4v2h2v6h2V4h-4zM14 4h-4v2H8v2H6v8H4v2h2v6h2V13h4V6h2V4z"/><path d="M30 6V4h2V2h-4V0H18v2h-4v2h2v2h-2v7h6V2h2v11h2V2h2v11h6V6h-2zM4 8h2V6H4v2zm0 4H2v4h2v-4z"/><path d="M2,6h2V4H0v8h2V6z"/><path d="M42 6v2h-2v8h2v-4h2V6h-2zM4 8V6H2v6h2v4h2V8H4z" fill="#fff"/></svg>