<svg xmlns="http://www.w3.org/2000/svg" viewBox="0 0 40 21"><path d="M3 1v20h34V1H3z" fill="#58595b"/><path d="M4 2v18h32V2H4z"/><g fill="#8bc53f"><path d="M28.1 7.9v6.2h3.8V7.9h-3.8zm2.5 5h-1.2V9.1h1.2v3.8zm-5-2.5h1.2V7.9h-1.2v2.5zM8.2 7.9v6.2H12v-3.8h-1.2v2.5H9.6V9h2.5V7.9H8.2zm11.1 0v1.2h2.5V7.9h-2.5z"/><path d="M24.4 7.9h-1.2v6.2h1.2v-2.5h1.2v-1.2h-1.2V7.9zm-6.3 5h1.2V9.1h-1.2v3.8z"/><path d="M25.6 14.1h1.2v-2.5h-1.2v2.5zm-3.8 0v-1.2h-2.5v1.2h2.5zM17 7.9h-3.8v6.2H17v-1.2h-2.5v-1.2H17v-1.2h-2.5V9.3H17V7.9z"/></g></svg>