<svg xmlns="http://www.w3.org/2000/svg" viewBox="0 0 14 20"><path d="M8,12v-1H6v1H5v2h1v1h2v-1h1v-2H8z" fill="#f0f"/><path d="M5,10V9H3v1H2v2h1v1h2v-1h1v-2H5z" fill="#0ff"/><path d="M11,10V9H9v1H8v2h1v1h2v-1h1v-2H11z" fill="#ff0"/><path d="M5,14v-1H3v1H2v2h1v1h2v-1h1v-2H5z" fill="#ff8200"/><path d="M8,16v-1H6v1H5v2h1v1h2v-1h1v-2H8z" fill="#5800c0"/><path d="M8,8V7H6v1H5v2h1v1h2v-1h1V8H8z" fill="#0f0"/><path d="M11,14v-1H9v1H8v2h1v1h2v-1h1v-2H11z" fill="#00f"/><path d="M13,6V5H1v1H0v12h1v1h12v-1h1V6H13z" opacity=".4" fill="#cff" enable-background="new"/><g opacity=".7" fill="#cff"><path d="M2,18v1h10v-1H2z"/><path d="M12 6v12h1V6h-1zM2 6H1v12h1V6z"/></g><path d="M4 5h8V2h-1V1H8V0H6v1H3v1H2v3h2zm9 1v12h1V6h-1z"/><path d="M1 16V6H0v12h1v-2zm11 2h1v1h-1v-1z"/><path d="M1,18h1v1H1V18z"/><path d="M2 19v1h10v-1H2zM12 5h1v1h-1V5zM1 5h1v1H1V5z"/><path d="M10,2H3v2h8V2H10z" fill="red"/></svg>