<svg xmlns="http://www.w3.org/2000/svg" viewBox="0 0 14 20"><path d="M6,12v-1h2v1h1v2H8v1H6v-1H5v-2H6z" fill="#f0f"/><path d="M9,10V9h2v1h1v2h-1v1H9v-1H8v-2H9z" fill="#0ff"/><path d="M3,10V9h2v1h1v2H5v1H3v-1H2v-2H3z" fill="#ff0"/><path d="M9,14v-1h2v1h1v2h-1v1H9v-1H8v-2H9z" fill="#ff8200"/><path d="M6,16v-1h2v1h1v2H8v1H6v-1H5v-2H6z" fill="#5800c0"/><path d="M6,8V7h2v1h1v2H8v1H6v-1H5V8H6z" fill="#0f0"/><path d="M3,14v-1h2v1h1v2H5v1H3v-1H2v-2H3z" fill="#00f"/><path d="M12 5V2h-1V1H8V0H6v1H3v1H2v3h8 2zM0 6v12h1V6H0z"/><path d="M13 18h1V6h-1v10 2zM2 19H1v-1h1v1z"/><path d="M13,18h-1v1h1V18z"/><path d="M2 19v1h10v-1H4 2zM2 6H1V5h1v1zm11 0h-1V5h1v1z"/><path d="M4,2h7v2H3V2H4z" fill="red"/><path d="M2,6V5h10v1h1v12h-1v1H2v-1H1V6H2z" opacity=".4" fill="#cff" enable-background="new"/><g opacity=".7" fill="#cff"><path d="M4,18h8v1H2v-1H4z"/><path d="M1 6v12h1V6H1zm11 12h1V6h-1v10 2z"/></g></svg>