<svg xmlns="http://www.w3.org/2000/svg" viewBox="0 0 14 20"><path d="M12 5V2h-1V1H8V0H6v1H3v1H2v3h8 2zM0 6v12h1V6H0z"/><path d="M13 18h1V6h-1v10 2zM1 18h1v1H1z"/><path d="M12 18h1v1h-1z"/><path d="M2 19v1h10v-1H4 2zM1 5h1v1H1zm11 0h1v1h-1z"/><path d="M5 12v2h1v1h2v-1h1v-2H8v-1H6v1H5z" fill="#f0f"/><path d="M8 10v2h1v1h2v-1h1v-2h-1V9H9v1H8z" fill="#0ff"/><path d="M2 10v2h1v1h2v-1h1v-2H5V9H3v1H2z" fill="#ff0"/><path d="M8 14v2h1v1h2v-1h1v-2h-1v-1H9v1H8z" fill="#ff8200"/><path d="M5 16v2h1v1h2v-1h1v-2H8v-1H6v1H5z" fill="#5800c0"/><path d="M5 8v2h1v1h2v-1h1V8H8V7H6v1H5z" fill="#0f0"/><path d="M2 14v2h1v1h2v-1h1v-2H5v-1H3v1H2z" fill="#00f"/><path d="M3 2v2h8V2H4 3z" fill="red"/><path d="M2 5v13h10V5H3 2z" opacity=".4" fill="#cff" enable-background="new"/><g opacity=".8" fill="#cff"><path d="M2 18v1h10v-1H4 2z"/><path d="M1 6v12h1V6H1zm11 12h1V6h-1v10 2z"/></g></svg>