<svg xmlns="http://www.w3.org/2000/svg" viewBox="0 0 26 35"><path d="M2,9v1h2v1h1v1h1v1h1v13H6v1H5v1H4v1H2v1H0V9H2z" opacity=".75" enable-background="new"/><g fill="#fff"><path d="M3,14v2h1v-2H3z"/><path d="M1,13v1h2v-1H1z"/></g><path d="M1 6V5h1V4h2V3h2V2h2V1h2V0h6v1h2v1h2v1h2v1h2v1h1v1h1v23H9v1H8v1H7v1H6v1H4v1H2v1H0v-6h2v-1h2v-1h1v-1h1V13H5v-1H4v-1H2v-1H0V6h1z"/><path d="M12 17v-1h2v1h1v2h-1v1h-2v-1h-1v-2h1z" fill="#f500eb"/><path d="M24 26h1v2h-2v-1h1v-1zM6 30v-1h2v1H7v1H6v1H5v-2h1z" fill="#e1e1e1"/><g fill="#969696"><path d="M13,4h-1V3h2v1H13z"/><path d="M23,8V7h-1V6h-2V5h-2V4h-2V3h-2V1h2v1h2v1h2v1h2v1h2v1h1v3h-1V8H23z"/><path d="M3 9H2v1h2v1h1v1h1v1h1v13H6v1H5v1H4v1H2v4h2v-3h1v-1h1v-1h6v-1h2v1h8v-1h1v-1h1v-1h1V10h-1V9h-1V8h-1V7h-2V6h-2V5h-2V4h-2v1h-2V4h-2v1H8v1H6v1H4v1H3v1zm6 7h1v-1h1v-1h4v1h1v1h1v4h-1v1h-1v1h-4v-1h-1v-1H9v-3-1zm9 0h2v1h-2v-1zm-6-6h2v1h-2v-1zm5 12h1v1h-1v-1zm1-3h2v1h-2v-1zm-1-5v-1h1v1h-1zm-3-1h-2v-1h2v1zm-2-5h2v1h-2V8zm2 16h-2v-1h2v1zm0-18v1h-2V6h1 1zm-2 20v-1h2v1h-1-1z"/><path d="M1 7V6h1V5h2V4h2V3h2V2h2V1h2v2h-2v1H8v1H6v1H4v1H3v1H2v1H0V7h1zm0 24v3H0v-4h1v1z"/></g><g fill="#e1e1e1"><path d="M12,4V3h2v1H12z"/><path d="M2 9v1h2v1h1v1h1v1h1v5h2v-2h1v-1h1v-1h4v1h1v1h1v2h8v-8h-1V9h-1V8h-1V7h-2V6h-2V5h-2V4h-2v1h-2V4h-2v1H8v1H6v1H4v1H3v1H2zm15 4h1v1h-1v-1zm-5-5h2v1h-2V8zm2 3h-2v-1h2v1zm0-5v1h-2V6h1 1zm4 10h2v1h-2v-1zm-6-3v-1h2v1h-1-1z"/></g></svg>