<svg xmlns="http://www.w3.org/2000/svg" viewBox="0 0 26 35"><path d="M25 6V5h-1V4h-2V3h-2V2h-2V1h-2V0h-6v1H8v1H6v1H4v1H2v1H1v1H0v23h17v1h1v1h1v1h1v1h2v1h2v1h2v-6h-2v-1h-2v-1h-1v-1h-1V13h1v-1h1v-1h2v-1h2V6h-1z"/><path d="M14,17v-1h-2v1h-1v2h1v1h2v-1h1v-2H14z" fill="#f500eb"/><path d="M2 26H1v2h2v-1H2v-1zm18 4v-1h-2v1h1v1h1v1h1v-2h-1z" fill="#e1e1e1"/><g fill="#969696"><path d="M13 4h1V3h-2v1h1z"/><path d="M3,8V7h1V6h2V5h2V4h2V3h2V1h-2v1H8v1H6v1H4v1H2v1H1v3h1V8H3z"/><path d="M23 8h-1V7h-2V6h-2V5h-2V4h-2v1h-2V4h-2v1H8v1H6v1H4v1H3v1H2v1H1v15h1v1h1v1h1v1h8v-1h2v1h6v1h1v1h1v3h2v-4h-2v-1h-1v-1h-1v-1h-1V13h1v-1h1v-1h1v-1h2V9h-1V8zm-6 9v3h-1v1h-1v1h-4v-1h-1v-1H9v-4h1v-1h1v-1h4v1h1v1h1v1zm-9 0H6v-1h2v1zm6-6h-2v-1h2v1zM9 23H8v-1h1v1zm-1-3H6v-1h2v1zm0-6v-1h1v1H8zm4-2h2v1h-2v-1zm2-3h-2V8h2v1zm-2 14h2v1h-2v-1zm1-17h1v1h-2V6h1zm0 20h-1v-1h2v1h-1z"/><path d="M25 7V6h-1V5h-2V4h-2V3h-2V2h-2V1h-2v2h2v1h2v1h2v1h2v1h1v1h1v1h2V7h-1zm0 24v3h1v-4h-1v1z"/></g><path d="M26 9v21h-2v-1h-2v-1h-1v-1h-1v-1h-1V13h1v-1h1v-1h1v-1h2V9h2z" opacity=".75" enable-background="new"/><g fill="#e1e1e1"><path d="M14 4V3h-2v1h2z"/><path d="M23 9V8h-1V7h-2V6h-2V5h-2V4h-2v1h-2V4h-2v1H8v1H6v1H4v1H3v1H2v1H1v8h8v-2h1v-1h1v-1h4v1h1v1h1v2h2v-5h1v-1h1v-1h1v-1h2V9h-1zM9 14H8v-1h1v1zm5-5h-2V8h2v1zm-2 1h2v1h-2v-1zm1-4h1v1h-2V6h1zM8 17H6v-1h2v1zm5-4h-1v-1h2v1h-1z"/></g></svg>