<svg xmlns="http://www.w3.org/2000/svg" viewBox="0 0 40 29"><path d="M39 16v-2h-1V9h-1V7h-1V6h-1V5h-1V4h-1V3h-1V2h-2V1h-2V0H12v1h-2v1H8v1H7v1H6v1H5v1H4v1H3v2H2v5H1v2H0v4h1v2h1v5h1v1h1v1h32v-1h1v-1h1v-5h1v-2h1v-4h-1z"/><path d="M24 12v-1h-2v-1h-4v1h-2v1h-1v10h1v1h1v-1h1v1h1v-1h2v1h1v-1h1v1h1v-1h1V12h-1z" fill="#00d2ff"/><path d="M24 15h-9v7h1v1h1v-1h1v1h1v-1h2v1h1v-1h1v1h1v-1h1v-7h-1z" fill="#00f0ff"/><path d="M38 17v2h1v-2h-1zM1 18v1h1v-2H1v1z" fill="#f500eb"/><path d="M20 1h-1v8h2V1h-1z" fill="#00f0ff"/><path d="M35 27v-1h-1v-1H6v1H5v1H4v1h32v-1h-1zm-25 0v-1h1v1h-1zm5 0v-1h1v1h-1zm2 0v-1h1v1h-1zm3 0h-1v-1h2v1h-1zm2 0v-1h1v1h-1zm2 0v-1h1v1h-1zm5 0v-1h1v1h-1z" fill="#e1e1e1"/><path d="M32 26h-1v1h2v-1h-1zM7 26v1h2v-1H7z" fill="#f500eb"/><path d="M27 26h-1v1h2v-1h-1zm-15 0v1h2v-1h-2z" fill="#00f0ff"/><g fill="#969696"><path d="M36 9V7h-1V6h-1V5h-1v1h-1v1h-1v1h-1v1h-1v1h-1v1h-1v1h-1v12h8v1h1v1h1v1h1V9h-1zM12 1v1h-2v1H8v1H7v1h1v1h1v1h1v1h1v1h1v1h1v1h1v1h1v-1h1v-1h2V1h-6zm12 22h1v1h-1zm-2 0h1v1h-1z"/><path d="M19 24h2v-1h-2v1zm-2-1h1v1h-1zm10-12v-1h1V9h1V8h1V7h1V6h1V5h1V4h-1V3h-2V2h-2V1h-6v9h2v1h1v1h1v-1h1zM15 23h1v1h-1zm-2-12h-1v-1h-1V9h-1V8H9V7H8V6H7V5H6v1H5v1H4v2H3v18h1v-1h1v-1h1v-1h8V12h-1v-1z"/></g><path d="M36 9V7h-1V6h-1V5h-1v1h-1v1h-1v1h-1v1h-1v1h-1v1h-1v1h-1v6h11V9h-1zm-23 2h-1v-1h-1V9h-1V8H9V7H8V6H7V5H6v1H5v1H4v2H3v9h11v-6h-1v-1z" fill="#e1e1e1"/><path d="M24 17h-9v2h10v-2h-1z" fill="#f500eb"/><path d="M24 21h-9v1h1v1h1v-1h1v1h1v-1h2v1h1v-1h1v1h1v-1h1v-1h-1z" fill="#cd00c3"/><path d="M24 19h-9v2h10v-2h-1z" fill="#d719cd"/><g fill="#fff"><path d="M18.6,19v1.2h2.8V19H18.6z"/><path d="M21.4 15v4h1.2v-4h-1.2zm-2.8 0h-1.2v4h1.2v-4zm-1.7-.5h.6v-.2h.2v-.5h-.6v.2h.4v.3h-.7v-.9h.9v-.2h-.9v.2h-.2v.9h.2l.1.2h0zm1.9-1.1v-.2h-.7v.2h-.2v.9h.2v.2h.7v-.2h.2v-.9h-.2zm0 .9h-.7v-.9h.7v.9zm4-1.1h-.2v.5h-.7v-.5h-.2v1.3h.2v-.6h.7v.6h.2v-1.3zm.2 0h.2v1.3H23v-1.3zm-1.7.2h.2v.2h-.2v-.2z"/><path d="M20.6 13.2v.2h-.2v.9h.2v.2h.7v-.2h.2v-.2h-.2v.2h-.7v-.9h.7v-.2h-.7zm-1.4 0v.2h.4v1.1h.2v-1.1h.4v-.2h-1z"/></g></svg>