<svg xmlns="http://www.w3.org/2000/svg" viewBox="0 0 40 35"><path d="M39 16v-2h-1V9h-1V7h-1V6h-1V5h-1V4h-1V3h-1V2h-2V1h-2V0H12v1h-2v1H8v1H7v1H6v1H5v1H4v1H3v2H2v5H1v2H0v4h1v2h1v5h1v2h1v1h1v1h1v1h1v1h2v1h2v1h18v-1h2v-1h2v-1h1v-1h1v-1h1v-1h1v-2h1v-5h1v-2h1v-4h-1zm-6 9v1h-1v1h-1v1h-2v1H11v-1H9v-1H8v-1H7V13h1v-1h1v-1h2v-1h18v1h2v1h1v1h1v12z"/><path d="M38 17v2h1v-2h-1zM1 18v1h1v-2H1v1zm18 12v4h2v-4h-2z" fill="#f500eb"/><path d="M20 1h-1v8h2V1h-1z" fill="#00f0ff"/><path d="M29 8h1V7h1V6h1V5h1V4h-1V3h-2V2h-2V1h-6v8h7V8zM9 29v-1H8v-1H7v-1H6v-8H3v9h3v1h1v1h1v1h1v3h2v-4H9zm7 1h-4v4h6v-4h-2zm10 0h-4v4h6v-4h-2zM16 1h-4v1h-2v1H8v1H7v1h1v1h1v1h1v1h1v1h7V1h-2zm20 17h-2v8h-1v1h-1v1h-1v1h-2v4h2v-3h1v-1h1v-1h1v-1h3v-9h-1z" fill="#969696"/><path d="M34 28v1h-1v1h-1v2h1v-1h1v-1h1v-1h1v-1h-2zM7 29H6v-1H4v1h1v1h1v1h1v1h1v-2H7v-1zm3-21H9V7H8V6H7V5H6v1H5v1H4v2H3v9h3v-5h1v-1h1v-1h1v-1h2V9h-1V8zm26 1V7h-1V6h-1V5h-1v1h-1v1h-1v1h-1v1h-1v1h2v1h1v1h1v1h1v5h3V9h-1z" fill="#e1e1e1"/><path d="M32 13v-1h-1v-1h-2v-1H11v1H9v1H8v1H7v13h1v1h1v1h2v1h18v-1h2v-1h1v-1h1V13h-1z" opacity=".75"/><path d="M31 16h-1v-2h-2v-1h2v1h1v2z" fill="#fff"/></svg>