<svg xmlns="http://www.w3.org/2000/svg" viewBox="0 0 24 27"><path d="M23 11v-1h-2V9h-2V8h-1V7h-1V6h-1V5H0v22h3v-2h3v2h4v-2h4v2h4v-2h3v2h3V11h-1z"/><path d="M12 6H1v1h2v1H1v1h2v1H1v1h2v1H1v1h13V6h-2zM5 9h4v1H5V9zm1-2h3v1H5V7h1zm2 5H5v-1h4v1H8zm4 4v7h2v-7h-2zm-5 0v9h2v-9H7zm-4 1v6h1v-7H3v1zm20-4v-2h-2v-1h-2V9h-1V8h-1v5h6zm-4-1h-1v-1h2v1h-1zm4 12h1v1h-1zm-6-8v9h1v-2h1v-7h-2zm6 0h-1v7h1v-6h1v-1h-1z" fill="#969696"/><path d="M1 11h1v1H1zm5 0v1h2v-1H6zm-5 6v8h1v-9H1v1zm9 0v6h1v-7h-1v1zm-5 0v6h1v-7H5v1zM15 7v6h1V6h-1v1zm5 10v6h1v-7h-1v1zm3 6h1v1h-1zm0-6h1v1h-1zm0 2h1v1h-1zm-8-2v8h1v-9h-1v1zm8 4h1v1h-1z" fill="#e1e1e1"/><path d="M1 7h1v1H1zm7 1V7H6v1h2zm11 6h-1v1h2v-1h-1zM1.2 14H0v1h2v-1h-.8zM6 14v1h2v-1H6zm6 0v1h2v-1h-2z" fill="#f500eb"/><path d="M1 9h1v1H1zm5 0v1h2V9H6zm16 5h-1v1h2v-1h-1zm-7 0v1h2v-1h-2zm-6 0v1h2v-1H9zm-6 0v1h2v-1H3z" fill="#00f0ff"/></svg>