<svg xmlns="http://www.w3.org/2000/svg" viewBox="0 0 50 24"><path d="M41 2H8v22h4v-2h4v2h7v-2h4v2h7v-2h4v2h4V2h-1z"/><path d="M24 11v1h2v-1h-2zm13-6V4h-2v1h2zM24 4v1h2V4h-2zM13 4v1h2V4h-2zm5 7v1h2v-1h-2zm12 0v1h2v-1h-2zm-18 0v1h2v-1h-2zm25 0h-1v1h2v-1h-1z" fill="#f500eb"/><path d="M35 6v1h2V6h-2zM24 6v1h2V6h-2zm-9 0h-2v1h2V6zm18 5v1h2v-1h-2zm-12 0v1h2v-1h-2zm6 0v1h2v-1h-2zm-12 0v1h2v-1h-2zm-6 0v1h2v-1H9zm31 0h-1v1h2v-1h-1z" fill="#00f0ff"/><path d="M38 3h-5v7h6V3h-1zm0 6h-4V8h4v1zm0-2h-4V6h4v1zm0-2h-4V4h4v1zm-6 5V3h-2v7h2zm-4 0h1V3h-8v7h7zm-6-6h6v1h-6V4zm0 2h6v1h-6V6zm4 3h-4V8h6v1h-2zm-6 1V3h-2v7h2zm-3 0V3h-6v7h6zm-5-6h4v1h-4V4zm0 2h4v1h-4V6zm3 3h-3V8h4v1h-1zm-4 4v9h1v-2h1v-7h-2zm10 0h-5v7h1v-6h5v6h1v-7h-2zm11 0h-5v7h1v-6h5v6h1v-7h-2zm5 0v7h1v2h1v-9h-2z" fill="#969696"/><path d="M40 3v7h1V3h-1zM9 4v6h1V3H9v1zm26 4v1h2V8h-2zM13 8v1h2V8h-2zm11 0v1h2V8h-2zm-10 6v6h1v-7h-1v1zm21 0v6h1v-7h-1v1zm-14 7v1h1v-2h-1v1zm-4 0v1h1v-2h-1v1zm15 0v1h1v-2h-1v1zm-4 0v1h1v-2h-1v1zm-7-7h1v1h-1zm-2 1v7h1v-8h-1v1zm-2-1h1v1h-1zm15 0h1v1h-1zm-2 1v7h1v-8h-1v1zm-2-1h1v1h-1zm-7 2h1v1h-1zm-4 0h1v1h-1zm15 0h1v1h-1zm-4 0h1v1h-1zM9 14v8h1v-9H9v1zm12 4h1v1h-1zm-4 0h1v1h-1zm23-4v8h1v-9h-1v1zm-8 4h1v1h-1zm-4 0h1v1h-1zm-4-5v7h2v-7h-2z" fill="#e1e1e1"/></svg>