<svg xmlns="http://www.w3.org/2000/svg" viewBox="0 0 24 27"><path d="M0 11v16h3v-2h3v2h4v-2h4v2h4v-2h3v2h3V5H8v1H7v1H6v1H5v1H3v1H1v1H0z"/><path d="M10 6v7h13v-1h-2v-1h2v-1h-2V9h2V8h-2V7h2V6H12h-2zm9 4h-4V9h4v1zm0-3v1h-4V7h3 1zm-4 5v-1h4v1h-3-1zm-3 4v7h-2v-7h2zm5 0v9h-2v-9h2zm4 1v6h-1v-7h1v1zM7 13V8H6v1H5v1H3v1H1v2h6zm-3-1v-1h2v1H5 4zM0 24h1v1H0zm7-8v9H6v-2H5v-7h2zm-6 0h1v7H1v-6H0v-1h1z" fill="#969696"/><path d="M22 11h1v1h-1zm-4 0v1h-2v-1h2zm5 6v8h-1v-9h1v1zm-9 0v6h-1v-7h1v1zm5 0v6h-1v-7h1v1zM9 7v6H8V6h1v1zM4 17v6H3v-7h1v1zm-4 6h1v1H0zm0-6h1v1H0zm0 2h1v1H0zm9-2v8H8v-9h1v1zm-9 4h1v1H0z" fill="#e1e1e1"/><path d="M22 7h1v1h-1zm-6 1V7h2v1h-2zM5 14h1v1H4v-1h1zm17.8 0H24v1h-2v-1h.8zM18 14v1h-2v-1h2zm-6 0v1h-2v-1h2z" fill="#f500eb"/><path d="M22 9h1v1h-1zm-4 0v1h-2V9h2zM2 14h1v1H1v-1h1zm7 0v1H7v-1h2zm6 0v1h-2v-1h2zm6 0v1h-2v-1h2z" fill="#00f0ff"/></svg>