<svg xmlns="http://www.w3.org/2000/svg" viewBox="0 0 26 35"><path d="M2,9v1h2v1h1v1h1v1h1v13H6v1H5v1H4v1H2v1H0V9H2z" opacity=".75" fill="#0076ff" enable-background="new"/><path d="M1 6V5h1V4h2V3h2V2h2V1h2V0h6v1h2v1h2v1h2v1h2v1h1v1h1v23H9v1H8v1H7v1H6v1H4v1H2v1H0v-6h2v-1h2v-1h1v-1h1V13H5v-1H4v-1H2v-1H0V6h1z"/><g fill="#fff"><path d="M1 7V6h1V5h2V4h2V3h2V2h2V1h6v1h2v1h2v1h2v1h2v1h1v22H9v1H8v1H7v1H6v1H4v1H2v1H0v-4h2v-1h2v-1h1v-1h1v-1h1V13H6v-1H5v-1H4v-1H2V9H0V7h1zm2 7v2h1v-2H3z"/><path d="M1,13v1h2v-1H1z"/></g></svg>