<svg xmlns="http://www.w3.org/2000/svg" viewBox="0 0 26 35"><path d="M26 9v21h-2v-1h-2v-1h-1v-1h-1v-1h-1V13h1v-1h1v-1h1v-1h2V9h2z" opacity=".75" fill="#0076ff" enable-background="new"/><path d="M25 6V5h-1V4h-2V3h-2V2h-2V1h-2V0h-6v1H8v1H6v1H4v1H2v1H1v1H0v23h17v1h1v1h1v1h1v1h2v1h2v1h2v-6h-2v-1h-2v-1h-1v-1h-1V13h1v-1h1v-1h2v-1h2V6h-1z"/><path d="M25 7V6h-1V5h-2V4h-2V3h-2V2h-2V1h-6v1H8v1H6v1H4v1H2v1H1v22h16v1h1v1h1v1h1v1h2v1h2v1h2v-4h-2v-1h-2v-1h-1v-1h-1v-1h-1V13h1v-1h1v-1h1v-1h2V9h2V7h-1z" fill="#fff"/></svg>