<svg xmlns="http://www.w3.org/2000/svg" viewBox="0 0 36 29"><path d="M35 9V7h-1V6h-1V5h-1V4h-1V3h-1V2h-2V1h-2V0H10v1H8v1H6v1H5v1H4v1H3v1H2v1H1v2H0v18h1v1h1v1h32v-1h1v-1h1V9h-1z"/><path d="M34 9V7h-1V6h-1V5h-1V4h-1V3h-2V2h-2V1H10v1H8v1H6v1H5v1H4v1H3v1H2v2H1v18h1v1h32v-1h1V9h-1z" fill="#fff"/><path d="M22 13v-1h-1v-1h-6v1h-1v1h-1v5h1v1h1v1h6v-1h1v-1h1v-5h-1z" fill="#00adef"/><g fill="#fff"><path d="M18.5 16h0 1v-1h1v-1h-1v1h-1 0-1v-1h2v-1h-1v-1h-1v1h-2v1h1v3h-1v1h2v1h1v-1h1v-1h-2v-1h1z"/><path d="M19.5 16h1v1h-1z"/></g></svg>