<svg xmlns="http://www.w3.org/2000/svg" viewBox="0 0 24 27"><path d="M0 5v22h3v-2h3v2h4v-2h4v2h4v-2h3v2h3V11h-1v-1h-2V9h-2V8h-1V7h-1V6h-1V5z"/><path d="M23 12v-1h-2v-1h-2V9h-1V8h-1V7h-1V6h-6v17h4v2h4v-2h5v-4h1v-7h-1zm-5 4h-2v-1h2v1zM7 6H1v19h2v-2h3v2h3V6H7z" fill="#fff"/><path d="M23 23v2h1v-2h-1z" fill="#00adef"/><path d="M6 8h1v1H6zM3 8v1h2V8H3z" fill="#b4b4b4"/><g fill="red"><path d="M21 14h-2v1h3v-1h-1z"/><path d="M18 13h-1v1h2v-1h-1zm5 2h-1v1h2v-1h-1zm-8-4h-5v1h6v-1h-1z"/><path d="M16 12h1v1h-1zm-9-1H1v1h8v-1H7zM1 8h1v1H1z"/></g><path d="M22 17h1v1h-1zm-6 0h1v1h-1zm3 0h-1v2h-1v1h-1v1h-6v2h7v-1h1v-1h1v-1h2v-3h-2zM7 21v-1H6v-1H4v-1H3v-1H2v-1H1v3h1v1h1v1h2v1h1v1h3v-2H7z" fill="#00f"/></svg>