<svg xmlns="http://www.w3.org/2000/svg" viewBox="0 0 50 24"><path d="M8 2v22h4v-2h5v2h5v-2h6v2h5v-2h5v2h4V2H8z"/><path d="M9 3v19h3v-2h5v-4h1v4h-1v2h5v-2h-1v-4h1v4h6v-4h1v4h-1v2h5v-2h-1v-4h1v4h5v2h3V3H9zm26 14h1v1h-1v-1zm-8-2h-1v-1h1v1zm-12 3h-1v-1h1v1zm8-4h1v1h-1v-1zm0 2h1v1h-1v-1zm0 3v-1h1v1h-1zm4 0h-1v-1h1v1zm0-2h-1v-1h1v1z" fill="#fff"/><g fill="#b4b4b4"><path d="M28 11h1v1h-1zm4 10h-3v-1h-1v2h5v-2h-1v1z"/><path d="M31 20h1v-1h-3v1h2zm-1-3h-1v1h3v-1h-2zm0-8h1v1h-1z"/><path d="M29 10h1v1h-1zm-1-5h1v1h-1z"/><path d="M29 6h1v1h-1z"/><path d="M30 7h1v1h-1zm2-2h1v1h-1zm7 0h-1v1h2V5h-1zm-18 6h1v1h-1zm0 10h-3v-1h-1v2h5v-2h-1v1z"/><path d="M20 20h1v-1h-3v1h2zm-2-2h3v-1h-3v1zm1-9h1v1h-1z"/><path d="M20 10h1v1h-1zm1-5h1v1h-1z"/><path d="M20 6h1v1h-1z"/><path d="M19 7h1v1h-1zm-2-2h1v1h-1zm-7 0v1h2V5h-2z"/></g><path d="M27 7h1V4h-3v3h2zm-1-2h1v1h-1V5zm8 0h1v1h-1zm2 0h1v1h-1zm4 3H25v1h16V8h-1zM14 9h-1v2h-1v1h-1v1H9v2h3v-1h1v-1h1v-1h2V9h-2zm9 1h-1v3h3v-3h-2zm1 2h-1v-1h1v1z" fill="red"/><path d="M40 13h-1v-1h-1v-1h-1V9h-3v3h2v1h1v1h1v1h3v-2h-1zm-14-3h-1v3h3v-3h-2zm1 2h-1v-1h1v1zm-3-5h1V4h-3v3h2zm-1-2h1v1h-1V5zm-8 0h1v1h-1zm-2 0h1v1h-1zm12 3H9v1h16V8z" fill="#00f"/></svg>