<svg xmlns="http://www.w3.org/2000/svg" viewBox="0 0 24 27"><path d="M24 5v22h-3v-2h-3v2h-4v-2h-4v2H6v-2H3v2H0V11h1v-1h2V9h2V8h1V7h1V6h1V5z"/><path d="M0 12v7h1v4h5v2h4v-2h4V6H8v1H7v1H6v1H5v1H3v1H1v1H0zm6 3h2v1H6v-1zm11-9h6v19h-2v-2h-3v2h-3V6h2z" fill="#fff"/><path d="M1 23v2H0v-2h1z" fill="#00adef"/><path d="M17 8h1v1h-1zm4 0v1h-2V8h2z" fill="#b4b4b4"/><g fill="#00f"><path d="M3 14h2v1H2v-1h1z"/><path d="M6 13h1v1H5v-1h1zm-5 2h1v1H0v-1h1zm8-4h5v1H8v-1h1z"/><path d="M7 12h1v1H7zm10-1h6v1h-8v-1h2zm5-3h1v1h-1z"/></g><path d="M1 17h1v1H1zm6 0h1v1H7zm-2 0h1v2h1v1h1v1h6v2H7v-1H6v-1H5v-1H3v-3h2zm12 4v-1h1v-1h2v-1h1v-1h1v-1h1v3h-1v1h-1v1h-2v1h-1v1h-3v-2h2z" fill="red"/></svg>