<svg xmlns="http://www.w3.org/2000/svg" viewBox="0 0 15 38"><path d="M0 17v2h1v2h1v6H1v2H0v6h1v1h1v1h2v1h6v-1h2v-1h1v-1h1v-2h1v-4h-1v-2h-1v-5h1v-4h-1v-1h-1v1h-1v2H9v-1H8V7h1V4H8V3h1V2h1V1H9V0H7v1H6v1H5v2H4v4h1v10H3v-2H2v-1H1v2H0z"/><path d="M4 4v4h1v10h2v1h1V7h1V4H8V3h1V2h1V1H9V0H7v1H6v1H5v2H4z" fill="#eda350"/><path d="M4.5 29.3h-.6v3.1h.6v.6h.6v.6h3.7V33h.6v-.7h.6v-3.1h-.6v-.6h-.6V28H5.1v.6h-.6v.6.1z" fill="#ff8700"/><g fill="#fff"><path d="M6.1 31.2h1.2v.6H6.1v.6h.6v.6h.6v-.6h1.2v-.6h-.6v-1.9h.6v-.6H7.3v-.6h-.6v.6h-.6v.6h1.2v.6H6.1v-.6h-.6v.6h.6v.7z"/><path d="M6.1 31.8h-.6v-.6h.6v.6z"/></g></svg>