<svg xmlns="http://www.w3.org/2000/svg" viewBox="0 0 15 38"><path d="M14 17v-2h-1v1h-1v2h-2V8h1V4h-1V2H9V1H8V0H6v1H5v1h1v1h1v1H6v3h1v12H6v1H4v-2H3v-1H2v1H1v4h1v5H1v2H0v4h1v2h1v1h1v1h2v1h6v-1h2v-1h1v-1h1v-6h-1v-2h-1v-6h1v-2h1v-2h-1z"/><path d="M10 4V2H9V1H8V0H6v1H5v1h1v1h1v1H6v3h1v12h1v-1h2V8h1V4h-1z" fill="#eda350"/><path d="M10.5 29.2v-.6h-.6V28H6.2v.6h-.6v.6H5v3.1h.6v.7h.6v.6h3.7V33h.6v-.6h.6v-3.1h-.6v-.1z" fill="#ff8700"/><g fill="#fff"><path d="M8.9 30.5h.6v-.6h-.6v.6H7.7v-.6h1.2v-.6h-.6v-.6h-.6v.6H6.5v.6h.6v1.9h-.6v.6h1.2v.6h.6v-.6h.6v-.6H7.7v-.6h1.2v-.7z"/><path d="M8.9 31.2h.6v.6h-.6z"/></g></svg>