<svg xmlns="http://www.w3.org/2000/svg" viewBox="0 0 15 38"><path d="M14 29v-2h-1v-5h1v-4h-1v-1h-1v1h-1v2H9v-1H8V7h1V4H8V3h1V2h1V1H9V0H7v1H6v1H5v2H4v4h1v10H3v-2H2v-1H1v2H0v2h1v2h1v6H1v2H0v6h1v1h1v1h2v1h6v-1h2v-1h1v-1h1v-2h1v-4h-1z"/><path d="M13,30v-3h-1v-5h1v-4h-1v3H9v-1H8v1H5v-2H4v6H3v5h1v2h5v-1h3v2h2v-3H13z" fill="#e1e1e1"/><g fill="#ff8700"><path d="M11,24h1v1h-1V24z"/><path d="M10,25v-1h1v-1h-1v-1H9v1H8v1h1v3H8v1h1v1h1v-1h1v-1h-1v-1h1v-1H10z"/><path d="M11,26h1v1h-1V26z"/></g><path d="M7 21H5v1h3v-1H7zm-1 2H5v2h3v-2H7 6zm0 3H5v1h3v-1H7 6zm0 3H5v1h3v-1H7 6z" fill="#fff"/><path d="M7 23h1v-1H5v1h1 1zm0 3h1v-1H5v1h1 1zm0 3h1v-2H5v2h1 1zm1 1H4v2h5v-2H8z" fill="#7f7f7f"/><path d="M9 1V0H7v2H6v2H5v3H4v1h1v13h1v-1h1v1h1V7h1V4H8V3h1V2h1V1H9zM7 19H6v-1h1v1zm0-2H6v-1h1v1zm0-2H6v-1h1v1zm0-2H6v-1h1v1zm0-2H6v-1h1v1zm0-2H6V8h1v1z" fill="#eda350"/></svg>