<svg xmlns="http://www.w3.org/2000/svg" viewBox="0 0 30 22"><path d="M0 6v16h3v-2h3v2h4v-2h4v2h16v-5h-2v-5h-1V7h-1V2h-1V1H9v1H8v1H6v1H4v1H2v1H0z"/><path d="M16,1v21h14v-5h-2v-5h-1V7h-1V2h-1V1H16z" fill="#7d0019"/><g fill="#c22b2a"><path d="M24,8h1V2h-2v1h1V8z"/><path d="M22 18h1v3h3v-3h-1v-5h-1V8h-1V3h-1V2h-3v1h1v5h1v5h1v5z"/><path d="M16 2v19h6v-3h-1v-5h-1V8h-1V3h-1V2h-2zm9 11h1V8h-1v5z"/><path d="M26 18h1v-5h-1v5z"/><path d="M27,18v3h2v-3H27z"/></g><path d="M0 6v2h2V6H0z" fill="#c0642e"/><path d="M1 12H0v-2h1v2z" fill="#8e9397"/><path d="M0 12v2h16v-2H0zm0 4v6h1v-6H0z" fill="#ffc500"/><path d="M0 16v3h1v-3H0z" fill="#8e9397"/></svg>