<?xml version="1.0" encoding="utf-8"?>
<!-- Generator: Adobe Illustrator 25.0.1, SVG Export Plug-In . SVG Version: 6.00 Build 0)  -->
<svg version="1.1" id="Layer_1" xmlns:v="https://vecta.io/nano"
	 xmlns="http://www.w3.org/2000/svg" xmlns:xlink="http://www.w3.org/1999/xlink" x="0px" y="0px" viewBox="0 0 46 22"
	 style="enable-background:new 0 0 46 22;" xml:space="preserve">
<style type="text/css">
	.st0{fill:#C0642E;}
	.st1{fill:#8E9397;}
	.st2{fill:#5ABDCE;}
	.st3{fill:#FFC500;}
	.st4{fill:#C22B2A;}
	.st5{fill:#7D0019;}
</style>
<g>
	<g>
		<path class="st0" d="M5,8h1V0H5V8z M40,0v8h1V0H40z M28,6v2h4V6H28z M14,6v2h4V6H14z"/>
		<path class="st1" d="M15,16v3h5v-3H15z M26,16v3h5v-3H26z M28,10v2h3v-2H28z M18,12v-2h-3v2H18z"/>
		<g>
			<path class="st2" d="M24,10v2h-2v-2h-2v6h2v-2h2v2h2v-6H24z"/>
			<path class="st2" d="M24,10V8h-2v2H24z"/>
		</g>
		<path d="M24,16v-2h-2v2h-2v4h6v-4H24z M39,1v1h-1v1h-2v1h-2v1h-2v3h-8v2h2v2h2v-2h3v2h9V1H39z"/>
		<path d="M22,10v2h2v-2H22z"/>
		<path d="M22,8h-8V5h-2V4h-2V3H8V2H7V1H6v11h9v-2h3v2h2v-2h2V8z M20,14H6v8h4v-2h5v-4h5V14z M26,14v2h5v4h5v2h4v-8H26z"/>
		<path class="st3" d="M15,19v3h5v-3H15z M26,19v3h5v-3H26z M26,12v2h14v-2H26z M6,12v2h14v-2H6z"/>
	</g>
	<g>
		<g>
			<path class="st4" d="M5,18H4v3h2v-6H5V18z"/>
			<path class="st4" d="M5,9H4v4H3v4H2v1H1v3h2v-3h1v-3h1v-1h1V8H5V9z M10,20v1h2v-1H10z M13,20v1h2v-1H13z M31,20v1h2v-1H31z
				 M34,20v1h2v-1H34z M20,20v1h2v-1H20z M24,20v1h2v-1H24z M41,15h-1v6h2v-3h-1V15z"/>
			<path class="st4" d="M44,18v-1h-1v-4h-1V9h-1V8h-1v6h1v1h1v3h1v3h2v-3H44z"/>
		</g>
		<g>
			<path class="st5" d="M5,14h1v1H5V14z"/>
			<path class="st5" d="M4,18h1v-3H4V18z M13,21v-1h-1v1h-2v1h5v-1H13z M34,21v-1h-1v1h-2v1h5v-1H34z M24,21v-1h-2v1h-2v1h6v-1H24z"
				/>
			<path class="st5" d="M3,21H1v-3h1v-1H0v5h6v-1H4v-3H3V21z"/>
			<path class="st5" d="M3,13h1V9H3v3H2v5h1V13z M40,14h1v1h-1V14z"/>
			<path class="st5" d="M42,15h-1v3h1V15z M44,12h-1V9h-1v4h1v4h1V12z"/>
			<path class="st5" d="M44,17v1h1v3h-2v-3h-1v3h-2v1h6v-5H44z"/>
		</g>
	</g>
</g>
</svg>
