<svg xmlns="http://www.w3.org/2000/svg" viewBox="0 0 30 21"><path d="M28 5V4h-2V3h-2V2h-2V1h-1V0H5v1H4v5H3v5H2v5H0v5h16v-2h4v2h4v-2h3v2h3V5h-2z"/><path d="M5 0v1H4v5H3v5H2v5H0v5h14V0H5z" fill="#7d0019"/><g fill="#c22b2a"><path d="M6 2h1V1H5v6h1V2z"/><path d="M8 12h1V7h1V2h1V1H8v1H7v5H6v5H5v5H4v3h3v-3h1v-5z"/><path d="M12 1v1h-1v5h-1v5H9v5H8v3h6V1h-2zM5 7H4v5h1V7z"/><path d="M4 12H3v5h1v-5z"/><path d="M1 17v3h2v-3H1z"/></g><path d="M28 5v2h2V5h-2z" fill="#c0642e"/><path d="M29 9h1v2h-1z" fill="#8e9397"/><path d="M14 11v2h16v-2H14zm15 4v6h1v-6h-1z" fill="#ffc500"/><path d="M29 15v3h1v-3h-1z" fill="#8e9397"/></svg>