<svg xmlns="http://www.w3.org/2000/svg" viewBox="0 0 19 26"><path d="M3 9h1v1H3z"/><path d="M4 10h1v1H4z"/><path d="M5 11h1v1H5zM3 5h1v1H3z"/><path d="M4 4h1v1H4z"/><path d="M5 3h1v1H5z"/><path d="M18 22v-1h-1v-1h1v-2h-3v-1h-4v-2h1v-1h1v-1h1v-1h1v-1h1V4h-1V3h-1V2h-1V1h-1V0H5v2h1v1h1v1h1v2h1v1H3V6H2v1H1v1h1v1h1V8h6v1H8v2H7v1H6v1H5v2h3v2H4v1H1v2h1v1H1v1H0v3h1v1h3v-1h1v-2h9v2h1v1h3v-1h1v-3h-1z"/><path d="M14 4V3h-1V2h-1V1H6v1h1v1h1v1h1v2h1v3H9v2H8v1H7v1H6v1h3v3h1v-3h2v-1h1v-1h1v-1h1V4h-1z" fill="#636363"/><g fill="#2800af"><path d="M4 20v-1H2v1h1v1h1v1h3v-1H6v-1H4zm11-1v1h-2v1h-1v1h3v-1h1v-1h1v-1h-2z"/><path d="M14 19v-1H5v1h1v1h2v2h3v-2h2v-1h1z"/></g><g fill="#a0a0a0"><path d="M15 22v3h3v-3h-3zM3 9h1v1H3z"/><path d="M4 10h1v1H4z"/><path d="M5 11h1v1H5zM3 5h1v1H3z"/><path d="M4 4h1v1H4z"/><path d="M5 3h1v1H5zm8 1V3h-1V2h-1V1H6v1h1v1h1v1h1v2h1v3H9v2H8v1H7v1H6v1h5v-1h1v-1h1v-1h1V4h-1z"/></g><path d="M11 5V4h-1V3H9V2H8V1H6v1h1v1h1v1h1v2h1v3H9v2H8v1H7v1H6v1h2v-1h1v-1h1v-1h1v-1h1V5h-1z" fill="#c8c8c8"/><g fill="#e6e6e6"><path d="M17 23h1v1h-1z"/><path d="M16 24h1v1h-1zm0-2h1v1h-1z"/><path d="M15 23h1v1h-1z"/></g><path d="M1 22v3h3v-3H1z" fill="#a0a0a0"/><g fill="#e6e6e6"><path d="M3 23h1v1H3z"/><path d="M2 24h1v1H2zm0-2h1v1H2z"/><path d="M1 23h1v1H1z"/></g><g fill="#4309d7"><path d="M14 21h1v1h-1zm-7-3H6v1h2v-1H7zm6 0h-2v1h2v-1zM3 19h1v1H3zm2 1h1v1H5z"/><path d="M4 21h1v1H4zm4-2v1h3v-1H8zm0 2v1h3v-1H8zm5-1h1v1h-1zm2-1h1v1h-1z"/></g><path d="M13 21h1v1h-1zm-8 0h1v1H5zm0-3h1v1H5zm-3 1h1v1H2zm14 0h1v1h-1zm-3-1h1v1h-1z" fill="#ff09d7"/></svg>