<svg xmlns="http://www.w3.org/2000/svg" viewBox="0 0 17 26"><path d="M16 4V3h-1V2h-1V1h-2V0H5v1H3v1H2v1H1v1H0v7h1v1h1v1h1v1h2v1h2v2H3v1H1v2h1v1H1v1H0v3h1v1h2v-1h1v-1h1v-1h7v1h1v1h1v1h2v-1h1v-3h-1v-1h-1v-1h1v-2h-2v-1h-4v-2h2v-1h2v-1h1v-1h1v-1h1V4h-1z"/><path d="M15,4V3h-1V2h-2V1H5v1H3v1H2v1H1v7h1v1h1v1h2v1h3v3h1v-3h3v-1h2v-1h1v-1h1V4H15z" fill="#636363"/><g fill="#2800af"><path d="M2,19h1v1H2V19z"/><path d="M5,21v-1H3v2h1v-1H5z"/><path d="M4,22h1v1H4V22z"/><path d="M5 21v1h2v-1H5zm6 0h-1v1h2v-1h-1z"/><path d="M12,20v1h1v1h1v-2H12z"/><path d="M14 19h1v1h-1v-1zm-2 3h1v1h-1v-1zm-1-2h1v-1h1v-1H4v1h1v1h2v1h1v1h1v-1h1v-1h1z"/></g><path d="M14,22v3h2v-3H14z" fill="#a0a0a0"/><path d="M15,22v3h1v-3H15z" fill="#e6e6e6"/><path d="M3,22v3H1v-3H3z" fill="#a0a0a0"/><path d="M2,22v3H1v-3H2z" fill="#e6e6e6"/><g fill="#4309d7"><path d="M5,19v1h2v-1H5z"/><path d="M4,20h1v1H4V20z"/><path d="M5 21h1v1H5v-1zm6 0h1v1h-1v-1z"/><path d="M12,20h1v1h-1V20z"/><path d="M11,19h-1v1h2v-1H11z"/></g><path d="M4 18h1v1H4v-1zm-2 1h1v1H2v-1zm1 2h1v1H3v-1zm5-2H7v1h3v-1H8zm0 2h1v1H8v-1zm6-2h1v1h-1v-1zm-1 2h1v1h-1v-1zm-1-3h1v1h-1v-1z" fill="#ff09d7"/><path d="M14 4V3h-2V2H5v1H3v1H2v7h1v1h2v1h7v-1h2v-1h1V4h-1z" fill="#a0a0a0"/><path d="M12 6V5h-1V4H6v1H5v1H4v3h1v1h1v1h5v-1h1V9h1V6h-1z" fill="#c8c8c8"/><path d="M10 6V5H7v1H6v3h1v1h3V9h1V6h-1z" fill="#e6e6e6"/><path d="M9 7V6H8v1H7v1h1v1h1V8h1V7z" fill="#f5f5f5"/><path d="M8 7h1v1H8z" fill="#fff"/></svg>