<svg xmlns="http://www.w3.org/2000/svg" viewBox="0 0 12.4 25"><path d="M10 13v-2H7V0H5v11H2v2H0v10h2v2h8v-2h2V13h-2z" fill="#2800af"/><path d="M2 13v10h8V13H2z" fill="#ff09d7"/><path d="M11 15h-1v6h2v-6h-1zM0 15v6h2v-6H0z" fill="#0000af"/><path d="M8 23H2v2h8v-2H8zm2-12H2v2h8v-2z"/><path d="M10 21v2h2v-2h-2zm1-8h-1v2h2v-2h-1zm-9 8H0v2h2v-2zm-2-8v2h2v-2H0z"/><g fill="#9b00a0"><path d="M7 19h1v-2H7v2zm1 2H2v2h8v-2H8z"/><path d="M9 13H2v2h8v-2H9zm-3 3H5v1h2v-1H6zm-1 3v1h2v-1H5z"/><path d="M5 17H4v2h1v-2z"/></g></svg>