<svg xmlns="http://www.w3.org/2000/svg" viewBox="0 0 42 25"><path d="M40,13V0h-2v25h2v-2h2V13H40z" fill="#2800af"/><path d="M38,13v10h2V13H38z" fill="#9b00a0"/><path d="M40 11h-2v2h2v-2zm-2 12v2h2v-2h-2z"/><path d="M40 13v2h2v-2h-2zm0 8v2h2v-2h-2z"/><path d="M38,15v6h2v-6H38z" fill="#ff09d7"/><path d="M2,13V0h2v25H2v-2H0V13H2z" fill="#2800af"/><path d="M4,13v10H2V13H4z" fill="#9b00a0"/><path d="M2 11h2v2H2v-2zm2 12v2H2v-2h2z"/><path d="M2 13v2H0v-2h2zm0 8v2H0v-2h2z"/><path d="M4,15v6H2v-6H4z" fill="#ff09d7"/></svg>