<svg xmlns="http://www.w3.org/2000/svg" xmlns:xlink="http://www.w3.org/1999/xlink" viewBox="0 0 1000 1000"><circle cx="500" cy="500" r="452.2"/><path d="M500 55.7c245.4 0 444.3 198.9 444.3 444.3S745.4 944.3 500 944.3 55.7 745.4 55.7 500 254.6 55.7 500 55.7m0-15.8C246.3 39.9 39.9 246.3 39.9 500S246.3 960.1 500 960.1 960.1 753.7 960.1 500 753.7 39.9 500 39.9h0z" fill="#f500eb"/><g fill="#fff"><path d="M88.9 407.3l-2.7 12.5-4.1-.9 2.7-12.5 4.1.9zm.9-4.1l24.9 5.3-.9 4.1-12.4-2.7-2.7 12.5 12.4 2.7-.9 4.1-24.9-5.3.9-4.1 8.3 1.8 2.7-12.5-8.3-1.8.9-4.1zm7.7-28.4L93.9 387l-4-1.2 3.6-12.2 4 1.2zm1.2-4.1l24.4 7.2-1.2 4-12.2-3.6-3.6 12.2 12.1 3.6-1.2 4-24.3-7.1 1.2-4 8.1 2.4 3.6-12.2-8.1-2.4 1.2-4.1zm1.7-17.6l19.7 7.6-1.5 3.9-19.8-7.6 1.6-3.9zm6-15.8l19.7 7.6-1.5 3.9-19.7-7.6 1.5-3.9zm19.1 21l1.5-3.9 3.9 1.5-1.5 3.9-3.9-1.5-1.5 4-3.9-1.5 1.5-4 3.9 1.5zm-2.4-5.5l1.5-4 4 1.5-1.5 4-4-1.5zm-5.8-30l7.6 3.7 7.4-15.2 3.8 1.9-7.4 15.2 7.6 3.7 7.4-15.2 3.8 1.8-9.3 19-26.6-13 9.3-19 3.8 1.8-7.4 15.3zm24.1-44.9l-8.6 14.6-3.6-2.1 8.6-14.6 3.6 2.1zm-8.6 14.6l18.3 10.8-2.1 3.6-18.3-10.8 2.1-3.6zm21.9 13l-3.6-2.1 6.5-11-11-6.5 2.1-3.6 14.6 8.6-8.6 14.6zm3.3-52.2l-7.4 10.4-3.5-2.4 7.4-10.4 3.5 2.4zm-7.4 10.4l17.3 12.3-2.4 3.4-17.3-12.3 2.4-3.4zm9.8-13.8l17.3 12.3-2.4 3.4-17.3-12.3 2.4-3.4zm7.5 26.1l7.4-10.4 3.5 2.4-7.4 10.4-3.5-2.4zm13.4-52.4l-5.4 6.5 19.6 16.2-2.7 3.2-19.6-16.2-5.4 6.5-3.3-2.7 13.5-16.3 3.3 2.8zm23.4-24.9l-11.8 12.1-3-2.9 11.8-12.1 3 2.9zm-11.8 12.1l15.2 14.8-2.9 3-15.2-14.8 2.9-3zm18.2 17.8l-3-2.9 11.8-12.1 3 2.9-11.8 12.1zm16-55.7l19.4 22.3-3.2 2.8-8.3-9.6-9.6 8.4 8.3 9.6-3.2 2.8-19.4-22.3 3.2-2.8 8.3 9.6 9.6-8.3-8.3-9.6 3.2-2.9zm19.2-9.8L259 180l3.3-2.5 2.5 3.4-10.1 7.6-2.5-3.4 3.3-2.5-12.8-16.9-3.3 2.5-2.5-3.4 10.1-7.6 2.5 3.4-3.2 2.5zm45.4-5.5l-6.4-11 11-6.4 6.4 11-11 6.4zm53.2-50.2l9.8 23.5-3.9 1.6-4.9-11.7-11.7 4.9 4.9 11.7-3.9 1.6-9.9-23.5 3.9-1.6 3.3 7.8 11.8-4.9-3.3-7.8 3.9-1.6zM341 109l-11.7 4.9-1.6-3.9 11.7-4.9 1.6 3.9zm35.9-12.8l7.9 24.2-4 1.3-4-12.1-12.1 4 3.9 12.1-4 1.3-7.9-24.2 4-1.3 2.6 8.1 12.1-4-2.6-8.1 4.1-1.3zm-4 1.3l-12.1 4-1.3-4 12.1-4 1.3 4zm20.4-6l2 8.2-4.1 1-2-8.2 4.1-1zm16.5-4l-16.5 4-1-4.1 16.5-4 1 4.1zm-15.6 25.6l16.5-4 1 4.1-16.5 4-1-4.1zm2.1-9.2l-1-4.1 12.4-3 1 4.1-12.4 3zm14.3 5.3l-2-8.2 4.1-1 2 8.2-4.1 1zm32.7-27.6l-8.4 1.3 3.9 25.1-4.1.6-3.9-25.1-8.4 1.3-.7-4.2 20.9-3.3.7 4.3zm30 5.7l.3 4.2 4.2-.3.9 12.6-4.2.3-.9-12.6-12.6 1 .9 12.6-4.2.3-2.1-29.5 16.9-1.2.3 4.2-12.8.9.6 8.5 12.7-1zm0 0l-.6-8.4 4.2-.3.6 8.5-4.2.2zm20.8-9.4l-.1 21.2h-4.2l.1-21.2h4.2zm-.2 21.2l12.8.1v4.2l-12.7-.1-.1-4.2zM506.8 78l-12.7-.1v-4.2l12.7.1V78zm4.2 0l-.1 21.2h-4.2l.1-21.2h4.2zm20.9 5.5l-.3 4.2-4.3-.4-1.5 16.9-4.2-.4 2.6-29.5 4.2.4-.7 8.4 4.2.4zm3.9 4.5l-.4 4.3-4.2-.4.4-4.3 4.2.4zm9.5-11.9l-2.6 29.5-4.2-.4.7-8.4-4.2-.4.4-4.2 4.2.4 1.5-16.9 4.2.4zm33.1 9.1l-4.2 25.1-4.1-.7 2.1-12.5-12.6-2.1-2.1 12.5-4.1-.7 4.2-25.1 4.1.7-1.4 8.4 12.6 2.1 1.4-8.4 4.1.7zm-4.1-.7l-12.6-2.1.7-4.2 12.6 2.1-.7 4.2zm21.9.1l-6.2 24.7-4.1-1 6.2-24.7 4.1 1zm-6.2 24.7l12.4 3.1-1.1 4.1-12.4-3.1 1.1-4.1zm22.7-20.5l-6.2 24.7-4.1-1 6.2-24.7 4.1 1zm31.2 14.3l-8-2.7-8.2 24.1-4-1.4 8.1-24.1-8-2.7 1.4-4 20 6.8-1.3 4zm3.8 24l15.6 6.8-1.7 3.9L646 131l1.7-3.9zm12.3-17.8l-3.4 7.8-3.8-1.7 3.4-7.8 3.8 1.7zm-5.1 11.7l1.7-3.9 11.7 5.1-1.7 3.9-11.7-5.1zm20.7-4.9l-15.5-6.8 1.7-3.9 15.6 6.8-1.8 3.9zm-12.4 17.8l3.4-7.8 3.9 1.7-3.4 7.8-3.9-1.7zm35 17.6l6.5-10.9 10.9 6.5-6.5 10.9-10.9-6.5zm59.1 8.7l-15.8 19.9-3.3-2.6 15.8-19.9 3.3 2.6zm-15.7 19.9l10 7.9-2.6 3.3-10-7.9 2.6-3.3zm29-9.4l-15.8 19.9-3.3-2.6 15.8-19.9 3.3 2.6zm10.3 20.1l-2.9 3.1-3.1-2.9-11.5 12.4-3.1-2.9 20.2-21.7 3.1 2.9-5.8 6.2 3.1 2.9zm15 2.5L775.8 215l-3.1-2.9 5.8-6.2-3.1-2.9 2.8-3.1 3.1 2.9 11.5-12.4 3.1 2.9zm-14.8 3.5l-2.9 3.1-3.1-2.9 2.9-3.1 3.1 2.9zm26.8 14.8l-15.5 14.5 2.9 3.1-3.1 2.9-8.6-9.3 3.1-2.9 2.8 3.1 15.5-14.5-2.8-3.1 3.1-2.9 8.6 9.3-3.1 2.9-2.9-3.1zm-5.6 31.8l3.3-2.6 10.6 13.1-3.3 2.6-10.6-13.1zm19.7-16l-16.4 13.3-2.7-3.3 16.5-13.3 2.6 3.3zm10.7 13.2L822 227.4l3.3-2.6 10.7 13.1-3.3 2.7zm2 39.2l-3.5 2.4-12-17.4 24.4-16.8 2.4 3.5-20.9 14.4 9.6 13.9zm17.8 12.6l2.1 3.7-11 6.3-2.1-3.7 11-6.3zm3.7-2.1l-3.7 2.1-2.1-3.7 3.7-2.1 2.1 3.7zm8.9-10.1l-11 6.3-2.1-3.7 11-6.3 2.1 3.7zm-6.8 13.7l2.1 3.7-3.7 2.1-2.1-3.7 3.7-2.1zm15.3 1l-11 6.3-2.1-3.6 11-6.3 2.1 3.6zm-6.8 44.1l11.8-4.9 4.9 11.8-11.8 4.9-4.9-11.8zm26 46.9l-8.2 2.2 4.3 16.4-4.1 1.1-5.4-20.4 12.3-3.3 1.1 4zm3.3 12.3l-3.3-12.3 4.1-1.1 3.3 12.3-4.1 1.1zm5.2 3l-1.1-4.1 8.2-2.2 1.1 4.1-8.2 2.2zm11.2-7.3l-4.1 1.1-4.4-16.4 4.1-1.1 4.4 16.4zM892.3 419l2.3 12.5-4.1.8-2.3-12.5 4.1-.8zm20.8-3.8l-20.8 3.8-.8-4.1 20.9-3.8.7 4.1zm3.1 16.7l-20.9 3.8-.7-4.1 20.9-3.8.7 4.1zm-.8-4.2l-2.3-12.5 4.1-.8 2.3 12.5-4.1.8z"/><path d="M905.9 450l-8.4.9 1.7 16.9-4.1.4-2.2-21 12.6-1.3.4 4.1zm1.3 12.6l-1.3-12.7 4.2-.4 1.3 12.7-4.2.4zm4.6 3.8l-.4-4.2 8.5-.9.4 4.2-8.5.9zm12.2-5.5l-4.2.4-1.7-16.9 4.2-.4 1.7 16.9zm1.5 25.8l-29.6 1-.2-4.3 25.4-.9-.2-4.2 4.2-.1.4 8.5zm-25.9 35.8l12.7 1-1 12.7-12.7-1 1-12.7zm10.8 72.9l-24.9-5.3.9-4.1 12.4 2.6 2.7-12.5-12.4-2.7.9-4.1 24.9 5.3-.9 4.1-8.3-1.8-2.7 12.5 8.3 1.8-.9 4.2zm.9-4.1l2.7-12.5 4.1.9-2.7 12.5-4.1-.9zm-9.8 36.6l-24.4-7.2 1.2-4 12.2 3.6 3.6-12.2-12.2-3.6 1.2-4 24.4 7.2-1.2 4-8.1-2.4-3.7 12.2 8.1 2.4-1.1 4zm1.2-4.1l3.7-12.2 4 1.2-3.6 12.2-4.1-1.2zm-28 16.5l-1.5 3.9-3.9-1.5 1.5-3.9 3.9 1.5 1.5-4 4 1.5-1.5 4-4-1.5zm2.4 5.5l-1.5 4-4-1.5 1.5-4 4 1.5zm16.6 15.5l-19.7-7.6 1.5-3.9 19.7 7.6-1.5 3.9zm6.2-15.8l-19.7-7.6 1.5-3.9 19.7 7.6-1.5 3.9zm-16.7 29.7l-7.6-3.7-7.4 15.3-3.8-1.9 7.4-15.3-7.7-3.7-7.4 15.3-3.8-1.8 9.2-19.1 26.7 12.9-9.2 19.1-3.8-1.8 7.4-15.3zm-37.4 17.4l3.6 2.1-6.5 11 11 6.5-2.1 3.6-14.6-8.6 8.6-14.6zm21.9 12.9l-18.3-10.8 2.1-3.6 18.3 10.8-2.1 3.6zm-8.6 14.6l8.6-14.6 3.6 2.2-8.6 14.6-3.6-2.2zm-26.5 2l-7.3 10.4-3.4-2.4 7.3-10.4 3.4 2.4zm7.6 26L822.9 736l2.4-3.4 17.4 12.2-2.5 3.3zm9.8-13.8l-17.4-12.2 2.4-3.4 17.3 12.2-2.3 3.4zm-7.3 10.4l7.3-10.4 3.4 2.4-7.3 10.4-3.4-2.4zM818.9 775l5.4-6.5-19.6-16.2 2.7-3.3 19.6 16.3 5.4-6.5 3.3 2.7-13.5 16.3-3.3-2.8zm-29.4-5.4l3 2.9-11.8 12.1-3-2.9 11.8-12.1zm18.2 17.7l-15.2-14.8 2.9-3 15.2 14.8-2.9 3zm-11.9 12.1l11.9-12.1 3 3-11.8 12.1-3.1-3zm-22.5 26.1l-19.4-22.3 3.2-2.8 8.3 9.6 9.6-8.4-8.3-9.6 3.2-2.8 19.4 22.3-3.2 2.8-8.3-9.6-9.6 8.4 8.3 9.5-3.2 2.9zm-19.4 10l-12.8-16.9-3.3 2.5-2.5-3.4 10.1-7.6 2.5 3.3-3.3 2.5 12.8 16.9 3.3-2.5 2.5 3.3-10.1 7.6-2.5-3.4 3.3-2.3zm-44.9 5.1l6.4 11-11 6.4-6.4-11 11-6.4zm-53.7 50.6l-9.8-23.5 3.9-1.6 4.9 11.7 11.8-4.9-4.9-11.7 3.9-1.6 9.8 23.5-3.9 1.6-3.3-7.8-11.8 4.9 3.3 7.8-3.9 1.6zm3.9-1.6l11.7-4.9 1.6 3.9-11.8 5-1.5-4zm-35.9 12.8l-7.9-24.2 4-1.3 3.9 12.1 12.1-4-3.9-12.1 4-1.3 7.9 24.2-4 1.3-2.7-8-12.1 3.9 2.6 8.1-3.9 1.3zm4-1.3l12.1-4 1.3 4-12.1 4-1.3-4zm-37.5-11.8l2 8.2-4.1 1-2-8.2 4.1-1zm16.5-3.9l-16.5 4-1-4.1 16.5-4 1 4.1zm-15.6 25.5l16.5-4 1 4.1-16.5 4-1-4.1zm13.5-16.3l1 4.1-12.4 3-1-4.1 12.4-3zm3 12.4l-2-8.2 4.1-1 2 8.2-4.1 1zm-50 9.9l8.4-1.3-3.9-25.1 4.1-.7 3.9 25.1 8.4-1.3.7 4.1-20.9 3.3-.7-4.1zm-30.3-5.6l-.3-4.2-4.2.3-.9-12.6 4.2-.3.9 12.6 12.7-.9-.9-12.6 4.2-.3 2.1 29.5-16.9 1.2-.3-4.2 12.7-.9-.6-8.4-12.7.8zm0 0l.6 8.5-4.2.3-.6-8.5 4.2-.3zm-37.4 9.3l.1-21.2h4.2l-.1 21.2h-4.2zm4.2 0l12.8.1v4.2l-12.8-.1v-4.2zm12.9-21.1l-12.8-.1v-4.2l12.8.1v4.2zm-.1 21.2l.1-21.2h4.2l-.1 21.2h-4.2zm-51.3 1.8l2.6-29.5 4.2.4-.7 8.5 4.3.4-.4 4.2-4.3-.4-1.5 16.9-4.2-.5zm9.6-11.9l.4-4.2 4.2.4-.4 4.2-4.2-.4zm3.8 4.6l.4-4.2 4.3.4 1.5-16.9 4.2.4-2.6 29.5-4.2-.4.8-8.5-4.4-.3zm-46.5-1.7l4.2-25.1 4.1.7-2.1 12.5 12.6 2.1 2.1-12.5 4.1.7L443 917l-4.1-.7 1.4-8.4-12.6-2.1-1.4 8.4-4.2-.7zm4.1.6l12.6 2.1-.7 4.1-12.6-2.1.7-4.1zm-38-4l6.1-24.7 4.1 1-6.1 24.7-4.1-1zm22.7-20.6l-12.4-3.1 1-4.1 12.4 3.1-1 4.1zm-6.2 24.7l6.1-24.7 4.1 1-6.1 24.7-4.1-1zm-48.1-18.6l8 2.7 8.2-24.1 4 1.3-8.1 24.1 8 2.7-1.3 4-20-6.8 1.2-3.9zm-31.3-12.7l15.6 6.7-1.7 3.9-15.6-6.7 1.7-3.9zm12.2-17.9l-3.4 7.8-3.9-1.7 3.3-7.8 4 1.7zm8.4 12.9l-1.7 3.9-11.7-5 1.7-3.9 11.7 5zm7.2-6.2l-15.6-6.7 1.7-3.9 15.6 6.7-1.7 3.9zm-12.3 17.9l3.3-7.8 3.9 1.7-3.3 7.8-3.9-1.7zm-38.3-42.2l-6.5 10.9-10.9-6.5 6.5-10.9 10.9 6.5zM230 828.3l15.8-19.9 3.3 2.6-15.7 19.9-3.4-2.6zm13.3 10.5l15.8-19.9 3.3 2.6-15.7 19.9-3.4-2.6zm15.8-19.9l-10-7.9 2.6-3.3 10 7.9-2.6 3.3zm-54.8-13.5l20.2-21.7 3.1 2.8-5.8 6.2 3.1 2.9-2.9 3.1-3.1-2.9-11.5 12.4-3.1-2.8zm15 2.3l2.8-3.1 3.1 2.9 11.5-12.4 3.1 2.9-20.1 21.7-3.1-2.8 5.8-6.2-3.1-3zm-.2-5.9l2.9-3.1 3.1 2.9-2.9 3.1-3.1-2.9zm-26.3-14.4l15.4-14.5-2.9-3.1 3.1-2.9 8.7 9.2-3.1 2.9-2.9-3.1-15.4 14.5 2.9 3.1-3.1 2.9-8.7-9.2 3.1-2.9 2.9 3.1zm-25-28.8l10.7 13.2-3.3 2.7-10.7-13.2 3.3-2.7zm10.7 13.1l16.5-13.4 2.7 3.3-16.5 13.4-2.7-3.3zm19.8-16.1l-3.3 2.7-10.7-13.2 3.3-2.7 10.7 13.2zm-32.8-36.8l3.5-2.4 12 17.4-24.4 16.8-2.4-3.5 20.9-14.4-9.6-13.9zm-38.7-14.9l11-6.3 2.1 3.7-11 6.3-2.1-3.7zm8.5 14.7l11-6.3 2.1 3.7-11 6.3-2.1-3.7zm6.7-13.7l-2.1-3.7 3.7-2.1 2.1 3.7-3.7 2.1zm2.1 3.7l3.7-2.1 2.1 3.7-3.7 2.1-2.1-3.7zm3.7-2.1l-2.1-3.7 11-6.3 2.1 3.7-11 6.3zm-14.5-46.9l-11.8 4.9-4.9-11.8 11.8-4.9 4.9 11.8zm-45.4-54.2l4.1-1.1 4.4 16.4-4.1 1.1-4.4-16.4zm11.1-7.3l1.1 4.1-8.2 2.2-1.1-4.1 8.2-2.2zm5.2 2.9l3.3 12.3-4.1 1.1-3.3-12.3 4.1-1.1zm3.3 12.3l8.2-2.2-4.4-16.4 4.1-1.1 5.5 20.5-12.3 3.3-1.1-4.1zm-22.7-42.4l2.3 12.5-4.1.8-2.3-12.5 4.1-.8zm-.8-4.2l20.9-3.8.7 4.1-20.8 3.8-.8-4.1zm3.1 16.7l20.9-3.8.8 4.1-20.8 3.8-.9-4.1zm20.8-3.8l-2.3-12.5 4.1-.8 2.3 12.5-4.1.8zm-31.7-41.9l4.2-.4 1.7 16.9-4.2.4-1.7-16.9zm12.2-5.5l.4 4.2-8.4.9-.4-4.2 8.4-.9zM93 536l1.3 12.7-4.3.4-1.3-12.7 4.3-.4zm1.3 12.6l8.4-.9-1.7-16.9 4.2-.4 2.1 21-12.6 1.3-.4-4.1zm-19.6-36.1l29.6-1 .2 4.3-25.5.8.2 4.2-4.2.2-.3-8.5zm25.9-36.1l-12.7-1 1-12.6 12.7 1-1 12.6z"/></g><circle cx="500" cy="500" r="378.8" fill="#00f0ff"/><circle cx="500" cy="500" r="362.5" fill="#003c82"/><g fill="#ff0"><path d="M254.2 315.2h7.7v7.7h-7.7zm7.8 7.8h7.7v7.7H262zm-15.5 0h7.7v7.7h-7.7z"/><path d="M254.2 330.7h7.7v7.7h-7.7z"/></g><g fill="#f500eb"><path d="M318.1 375.2h7.7v7.7h-7.7z"/><path d="M325.8 382.9h7.7v7.7h-7.7zm-15.4 0h7.7v7.7h-7.7zm7.7 7.8h7.7v7.7h-7.7z"/></g><g fill="#ff0"><path d="M277.5 511.6h7.7v7.7h-7.7z"/><path d="M285.2 519.3h7.7v7.7h-7.7zm-15.5 0h7.7v7.7h-7.7zm7.8 7.8h7.7v7.7h-7.7z"/></g><g fill="#00f0ff"><path d="M219.4 555.1h7.7v7.7h-7.7zm7.8 7.8h7.7v7.7h-7.7zm-15.5 0h7.7v7.7h-7.7z"/><path d="M219.4 570.6h7.7v7.7h-7.7z"/></g><g fill="#f500eb"><path d="M188.5 484.5h7.7v7.7h-7.7zm7.7 7.8h7.7v7.7h-7.7z"/><path d="M180.7 492.3h7.7v7.7h-7.7zm7.8 7.7h7.7v7.7h-7.7z"/></g><g fill="#00f0ff"><path d="M331.6 271.7h7.7v7.7h-7.7zm7.8 7.7h7.7v7.7h-7.7z"/><path d="M323.9 279.4h7.7v7.7h-7.7z"/><path d="M331.6 287.1h7.7v7.7h-7.7z"/></g><path d="M269.7 431.3H262v-7.7h-7.7v-15.5h-7.7v15.5h-7.7v7.7h-15.5v7.7h15.5v7.7h7.7v15.5h7.7v-15.5h7.7V439h15.5v-7.7h-7.8z" fill="#fff"/><g fill="#f500eb"><path d="M731.1 361.7h7.7v7.7h-7.7zm-7.8 7.7h7.7v7.7h-7.7z"/><path d="M738.8 369.4h7.7v7.7h-7.7z"/><path d="M731.1 377.1h7.7v7.7h-7.7z"/></g><g fill="#00f0ff"><path d="M675.7 311.4h7.7v7.7h-7.7z"/><path d="M668 319.1h7.7v7.7H668zm15.5 0h7.7v7.7h-7.7z"/><path d="M675.7 326.8h7.7v7.7h-7.7zm89 251.5h7.7v7.7h-7.7zm-7.7 7.8h7.7v7.7H757zm15.5 0h7.7v7.7h-7.7z"/><path d="M764.7 593.8h7.7v7.7h-7.7z"/></g><g fill="#f500eb"><path d="M727.2 496.1h7.7v7.7h-7.7zm-7.7 7.8h7.7v7.7h-7.7z"/><path d="M735 503.9h7.7v7.7H735zm-7.8 7.7h7.7v7.7h-7.7z"/></g><g fill="#ff0"><path d="M683.5 423.6h7.7v7.7h-7.7zm-7.8 7.7h7.7v7.7h-7.7z"/><path d="M691.2 431.3h7.7v7.7h-7.7z"/><path d="M683.5 439h7.7v7.7h-7.7zm-31-202.2h7.7v7.7h-7.7zm-7.7 7.8h7.7v7.7h-7.7zm15.5 0h7.7v7.7h-7.7z"/><path d="M652.5 252.3h7.7v7.7h-7.7z"/></g><path d="M795.7 442.9H788v-7.7h-7.7v-15.5h-7.7v15.5h-7.7v7.7h-15.5v7.7h15.5v7.7h7.7v15.5h7.7v-15.5h7.7v-7.7h15.5v-7.7h-7.8z" fill="#fff"/><defs><circle id="A" cx="500" cy="500" r="362.5"/><path id="B" d="M345.2 775.7h15.5v15.5h-15.5z"/><path id="C" d="M500 791.1h15.5v-15.5h-31v15.5H500z"/><path id="D" d="M484.5 620.9v-15.5h-31v15.5h31z"/><path id="E" d="M360.7 775.7v-15.5h-46.4v15.5h15.5v15.5h15.5v-15.5h15.4z"/><path id="F" d="M298.8 775.7h-15.5v15.5h31v-15.5h-15.5z"/></defs><clipPath id="G"><use xlink:href="#A"/></clipPath><g clip-path="url(#G)"><g fill="#e1e1e1"><path d="M453.6 713.8v-15.5h31v15.5h31v-15.5h31v15.5h31V280.4h-15.5v-31h-15.5v-31H531V203h-15.5v-15.5h-31V203H469v15.5h-15.5v31H438v31h-15.5v433.4l31.1-.1zm15.4-31h-15.5v-15.5h31v15.5H469zm-15.4-46.4h31v15.5h-31v-15.5zm0-31h31v15.5h-31v-15.5zm0-278.6H469v-15.5h61.9v15.5h15.5v15.5H531v-15.5h-61.9v15.5h-15.5v-15.5zm92.8 294.1h-31v-15.5h31v15.5zm0 30.9h-31v-15.5h31v15.5zM469 559v-46.4h15.5v-15.5h31v15.5H531v61.9h-15.5V559h-31v15.5H469V559zm62 123.8h-15.5v-15.5h31v15.5H531z"/><path d="M484.5 543.5h31v-31h-31v31z"/><use xlink:href="#B"/><path d="M314.3 775.7h15.5v15.5h-15.5z"/><path d="M283.3 791.1v15.5h31v-15.5h-31zm92.9 15.5v15.5h15.5v-31h-31v15.5h15.5z"/><path d="M376.2 822.1h-31v-31h-15.5v31h-15.5v15.5h46.4v15.5h15.5l.1-31zm92.8-15.5h15.5v-15.5h-31v15.5H438v31h31v-31z"/><use xlink:href="#C"/><path d="M515.5 806.6h-31v31h31v-31zm-92.9 31v-31h15.5v-15.5h15.5v-15.5h31v-15.5h-46.4v15.5h-15.5v15.5h-15.5v31h-15.5v31h15.5v-15.5h15.4z"/><path d="M422.6 837.6h15.5v15.5h-15.5zm46.4 0h15.5v15.5H469z"/><path d="M407.1 853.1h15.5v15.5h-15.5zm-30.9 0h15.5v15.5h-15.5zm61.9 0v15.5h31v-15.5h-31zm201.2-77.4h15.5v15.5h-15.5zm30.9 0h15.5v15.5h-15.5z"/><path d="M654.8 806.6v15.5h-31v31h15.5v-15.5h46.4v-15.5h-15.5v-31h-15.5v15.5zm30.9-15.5v15.5h31v-15.5h-31z"/><path d="M623.8 806.6h15.5v-15.5h-31v31h15.5v-15.5zm-108.3-15.5v15.5H531v31h31v-31h-15.5v-15.5h-31z"/><path d="M608.3 822.1h-15.5v-31h-15.5v-15.5h-15.5v-15.5h-46.4v15.5h31v15.5h15.5v15.5h15.5v31h15.5v15.5h15.5l-.1-31z"/><path d="M561.9 837.6h15.5v15.5h-15.5zm-46.4 0H531v15.5h-15.5z"/><path d="M577.4 853.1h15.5v15.5h-15.5zm30.9 0h15.5v15.5h-15.5zm-77.3 0v15.5h31v-15.5h-31zm-46.5 0v15.5h31v-15.5h-31zm216.7-185.8v-31h-15.5v-31h-15.5v-31h-15.5v-31h-15.5v-31h-15.5V698h92.9v-31h-15.4zm-61.9-61.9h15.5v15.5h-15.5v-15.5zm0 31h31v15.5h-31v-15.5zm30.9 46.4h-31v-15.5h46.4v15.5h-15.4zm-355.9 15.5h61.9V512.6h-15.5v31h-15.5v31h-15.5v31h-15.5v31h-15.5v31h-15.5v31c7.8-.3 23.4-.3 31.1-.3zm46.4-92.9v15.5h-15.5v-15.5h15.5zm-15.5 31h15.5v15.5h-31v-15.5h15.5zm-15.4 30.9h31v15.5h-46.4v-15.5h15.4z"/></g><g fill="#969696"><path d="M515.5 187.5V172h-31v15.5h31z"/><path d="M469 187.5h15.5V203H469z"/><path d="M453.6 203h15.5v15.5h-15.5z"/><path d="M453.6 234v-15.5h-15.5v31h15.5V234zm92.8 15.4h15.5v-31h-15.5v31z"/><path d="M438.1 264.9v-15.5h-15.5v31h15.5v-15.5zm123.8 15.5h15.5v-31h-15.5v31z"/><path d="M422.6 698.3V280.4h-15.5v433.4h15.5v-15.5zm31-371.5h15.5v15.5h-15.5z"/><use xlink:href="#D"/><path d="M484.5 651.8v-15.5h-31v15.5h31zm0 31v-15.5h-31v15.5h31zM469 698.3h-15.5v15.5h31v-15.5H469zm31-371.5h31v-15.5h-61.9v15.5H500zm15.5 185.8v-15.5h-31v15.5h31z"/><path d="M515.5 574.5H531v-61.9h-15.5v31h-31v-31H469v61.9h15.5V559h31v15.5zm0 30.9v15.5h31v-15.5h-31zm0 31v15.5h31v-15.5h-31zm0 30.9v15.5h31v-15.5h-31zM531 326.8h15.5v15.5H531zm0 371.5h-15.5v15.5h31v-15.5H531zm-108.4 15.5v15.5h31v-15.5h-31zm0 46.4h15.5v15.5h-15.5z"/><path d="M407.1 775.7h15.5v15.5h-15.5zm31 15.4h15.5v15.5h-15.5z"/><path d="M438.1 806.6h-15.5v31h15.5v-31zm-46.4 15.5h15.5v-31h-15.5v31z"/><path d="M376.2 791.1h15.5v-15.5h-31v15.5h15.5z"/><use xlink:href="#E"/><path d="M314.3 806.6h-15.5v15.5h31v-31h-15.5v15.5zm46.4 0v-15.5h-15.5v31h31v-15.5h-15.5z"/><use xlink:href="#F"/><path d="M267.8 791.1h15.5v15.5h-15.5zM469 760.2h15.5v-15.5h-46.4v15.5H469zm15.5 30.9v-15.5h-31v15.5h31zm0 15.5H469v31h15.5v-31z"/><path d="M500 775.7h15.5v-15.5h-31v15.5H500zm0 30.9h15.5v-15.5h-31v15.5H500zm-92.9 31h15.5v15.5h-15.5zm46.5 0h-15.5v15.5h31v-15.5h-15.5z"/><path d="M500 837.6h-15.5v15.5h31v-15.5H500zm-77.4 15.5h15.5v15.5h-15.5zm-30.9 0h15.5v15.5h-15.5z"/><path d="M391.7 822.1h-15.5v31h15.5v-31z"/><path d="M360.7 853.1h15.5v15.5h-15.5zm108.3 0h15.5v15.5H469zm92.9-92.9h15.5v15.5h-15.5z"/><path d="M577.4 775.7h15.5v15.5h-15.5zm-31 15.4h15.5v15.5h-15.5z"/><path d="M592.9 822.1h15.5v-31h-15.5v31z"/><path d="M639.3 791.1v-15.5h-31v15.5h31z"/><path d="M685.7 775.7v-15.5h-46.4v15.5h15.5v15.5h15.5v-15.5h15.4z"/><path d="M639.3 806.6h-15.5v15.5h31v-31h-15.5v15.5zm30.9 0v15.5h31v-15.5h-15.5v-15.5h-15.5v15.5z"/><path d="M701.2 775.7h-15.5v15.5h31v-15.5h-15.5z"/><path d="M716.7 791.1h15.5v15.5h-15.5zm-170.3-30.9h15.5v-15.5h-46.4v15.5h30.9zM531 791.1h15.5v-15.5h-31v15.5H531zm0 15.5h-15.5v31H531v-31zm30.9 31h15.5v-31h-15.5v31z"/><path d="M577.4 837.6h15.5v15.5h-15.5zm-31 0H531v15.5h31v-15.5h-15.6z"/><path d="M561.9 853.1h15.5v15.5h-15.5zm31 0h15.5v15.5h-15.5z"/><path d="M608.3 837.6v15.5h15.5v-31h-15.5v15.5z"/><path d="M623.8 853.1h15.5v15.5h-15.5zm-108.3 0H531v15.5h-15.5zm-31-139.3v15.5h31v-15.5h-31zm61.9 0v15.5h31v-15.5h-31zm-30.9-526.3H531V203h-15.5z"/><path d="M531 203h15.5v15.5H531zm46.4 108.4v402.4h15.5V280.4h-15.5v31zm139.3 355.9v31h-92.9V512.6h15.5v-31h-15.5v-31h-15.5v263.1h123.8v-46.4h-15.4zm-46.5 15.5h15.5v-15.5h-46.4v15.5h30.9z"/><path d="M701.2 667.3h15.5v-31h-15.5v31zm-31-15.5v-15.5h-31v15.5h31z"/><path d="M685.7 636.4h15.5v-31h-15.5v31zm-46.4-31h15.5v15.5h-15.5z"/><path d="M670.2 605.4h15.5v-31h-15.5v31z"/><path d="M654.8 574.5h15.5v-31h-15.5v31z"/><path d="M639.3 543.5h15.5v-31h-15.5v31zM345.2 682.8h15.5v-15.5h-46.4v15.5h30.9zm-46.4-31v-15.5h-15.5v31h15.5v-15.5zm61.9 0v-15.5h-31v15.5h31z"/><path d="M314.3 620.9v-15.5h-15.5v31h15.5v-15.5zm30.9-15.5h15.5v15.5h-15.5z"/><path d="M329.8 589.9v-15.5h-15.5v31h15.5v-15.5z"/><path d="M345.2 559v-15.5h-15.5v31h15.5V559z"/><path d="M360.7 528v-15.5h-15.5v31h15.5V528z"/><path d="M298.8 713.8h92.9V450.7h-15.5v31h-15.5v31h15.5v185.7h-92.9v-31h-15.5v46.4h31z"/></g></g><path d="M538.7 381v-7.7H531v-7.7h-15.5v-7.7h-31v7.7H469v7.7h-7.7v7.7h-7.7v92.9h7.7v-7.7h7.7v7.7h7.7v-7.7h7.7v7.7h7.7v-7.7h15.5v7.7h7.7v-7.7h7.7v7.7h7.7v-7.7h7.7v7.7h7.7V381h-7.4z"/><path d="M531 381v-7.7h-15.5v-7.7h-31v7.7H469v7.7h-7.7v77.4h7.7v7.7h7.7v-7.7h7.7v7.7h7.7v-7.7h15.5v7.7h7.7v-7.7h7.7v7.7h7.7v-7.7h7.7V381H531z" fill="#00f0ff"/><path d="M531 381v-7.7h-15.5v-7.7h-31v7.7H469v7.7h-7.7v23.2h77.4V381H531z" fill="#00d2ff"/><path d="M461.3 419.7v38.7h7.7v7.7h7.7v-7.7h7.7v7.7h7.7v-7.7h15.5v7.7h7.7v-7.7h7.7v7.7h7.7v-7.7h7.7v-38.7c.3 0-54.1 0-77.1 0z" fill="#f500eb"/><path d="M461.3 450.6v7.7h7.7v7.7h7.7v-7.7h7.7v7.7h7.7v-7.7h15.5v7.7h7.7v-7.7h7.7v7.7h7.7v-7.7h7.7v-7.7c.3 0-54.1 0-77.1 0z" fill="#cd00c3"/><path d="M461.3 435.2v15.5h77.4v-15.5h-77.4z" fill="#d719cd"/></svg>