<svg xmlns="http://www.w3.org/2000/svg" viewBox="0 0 40 23"><path d="M35 1v1h-2v1h-2v1h-2v1h-2v1h-2v1H15V6h-2V5h-2V4H9V3H7V2H5V1H3v22h4v-2h5v2h5v-2h6v2h5v-2h5v2h4V1z" fill="#092c1b"/><path d="M31 9h1v1h-1V9zm-2 0h1v1h-1V9z" fill="#fff"/><path d="M28,14h1v1h-1V14z" fill="#e15667"/><path d="M27,14h1v1h-1V14z" fill="#fed11f"/><path d="M30,14h1v1h-1V14z" fill="#4b6329"/><path d="M32,14h1v1h-1V14z" fill="#f55549"/><path d="M32,12h1v1h-1V12z" fill="#698bd9"/><path d="M32,13h1v1h-1V13z" fill="#e2e5f3"/><path d="M30,13h1v1h-1V13z" fill="#45322f"/><path d="M29,14h1v1h-1V14z" fill="#474981"/><path d="M31,14h1v1h-1V14z" fill="#756638"/><path d="M18,7v1h1v2h2V8h1V7H18z" fill="#222423"/><path d="M31,13h1v1h-1V13z" fill="#d9c6b2"/><g fill="#c2cbc7"><path d="M22,6v2h-1v2h1V9h1V7h2V6H22z"/><path d="M25 5v1h2V5h-2zM13 5v1h2V5h-2z"/><path d="M18,6h-3v1h2v2h1v1h1V8h-1V6z"/></g><path d="M28,12h1v1h-1V12z" fill="#76946f"/><path d="M29,12h1v1h-1V12z" fill="#cad4e4"/><path d="M30,16h1v1h-1V16z" fill="#fafefd"/><path d="M33,13h1v1h-1V13z" fill="#556592"/><path d="M33,14h1v1h-1V14z" fill="#4770bb"/><g fill="#6f4017"><path d="M9,7h1v1H9V7z"/><path d="M10 8v1h1v3h1V8h-2zm-1 5h1v1H9v-1zm23-4h1v1h-1V9zm-2 0h1v1h-1V9zm-2 0h1v1h-1V9zM8 9h1V8H7v4h1V9z"/><path d="M10 12h1v1h-1v-1zm-2 0h1v1H8v-1z"/></g><path d="M30,12h1v1h-1V12z" fill="#5666bc"/><path d="M29,13h1v1h-1V13z" fill="#f6d435"/><path d="M28,13h1v1h-1V13z" fill="#e6bf8f"/><path d="M7 15v1h5v-1H7zm6-8h1v1h-1V7zm18 5h1v1h-1v-1z" fill="#c23e3f"/><path d="M27,13h1v1h-1V13z" fill="#f75457"/><g fill="#f8af4e"><path d="M10 8H9v1H8v3h1v1h1v-1h1V9h-1V8zm18 2v1h5v-1h-5zm5-1V8h-5v1h5z"/><path d="M27 9h1v1h-1V9zm-1-2h1v1h-1V7zm-6 11h1v1h-1v-1zm0-2h1v1h-1v-1zm13-7h1v1h-1V9z"/></g><g fill="#ddd9d6"><path d="M30,15h1v1h-1V15z"/><path d="M31 17h-1v-1h-1v2h3v-2h-1v1z"/></g><g fill="#283d2e"><path d="M17,13h-1v-1h-1v-1h-1v-1h-2v2h-1v1h-1v1h2v5H7v-5h2v-1H8v-1H7V8h2V7H7V6H5V3H4v17h15v-5h-1v-1h-1V13z"/><path d="M18 9h-1V7h-2V6h-2V5h-2V4H9V3H7V2H5v1h1v2h1v1h2v1h1v1h2v1h2v1h1v1h1v1h1v1h1v1h1v-4h-1V9zm-5-1V7h1v1h-1z"/><path d="M4 1h1v1H4V1zm29 1v1h-2v1h-2v1h-2v1h-2v1h-2v2h-1v1h-2v5h1v-1h1v-1h1v-1h1v-1h1v-1h2V9h1V8h1V7h2V6h2V5h1V3h1V2h-2zm-7 6V7h1v1h-1z"/><path d="M35 1h1v1h-1V1zm0 5h-2v1h-2v1h2v1h1v1h-1v1h-5v-1h-1v1h-2v1h-1v1h-1v1h-1v1h-1v2h-1v1h1v1h-1v1h16V3h-1v3zm-8 13v-6h1v-1h5v1h1v6h-7z"/></g></svg>