<svg xmlns="http://www.w3.org/2000/svg" viewBox="0 0 30 21"><path d="M2 5V4h2V3h2V2h2V1h1V0h16v1h1v5h1v5h1v5h2v5H14v-2h-4v2H6v-2H3v2H0V5h2z"/><path d="M25 0v1h1v5h1v5h1v5h2v5H16V0h9z" fill="#7d0019"/><g fill="#c22b2a"><path d="M24 2h-1V1h2v6h-1V2z"/><path d="M22 12h-1V7h-1V2h-1V1h3v1h1v5h1v5h1v5h1v3h-3v-3h-1v-5z"/><path d="M18 1v1h1v5h1v5h1v5h1v3h-6V1h2zm7 6h1v5h-1V7z"/><path d="M26 12h1v5h-1v-5z"/><path d="M29 17v3h-2v-3h2z"/></g><path d="M2 5v2H0V5h2z" fill="#c0642e"/><path d="M0 9h1v2H0z" fill="#8e9397"/><path d="M16 11v2H0v-2h16zM1 15v6H0v-6h1z" fill="#ffc500"/><path d="M1 15v3H0v-3h1z" fill="#8e9397"/></svg>