<svg xmlns="http://www.w3.org/2000/svg" viewBox="0 0 46 22"><path d="M44 17v-5h-1V9h-2V0h-1v1h-1v1h-1v1h-2v1h-2v1h-2v1h-4v2H18V6h-4V5h-2V4h-2V3H8V2H7V1H6V0H5v9H3v3H2v5H0v5h46v-5z" fill="#7d0019"/><g fill="#c22b2a"><path d="M5 18H4v3h2v-6H5v3z"/><path d="M5 9H4v4H3v4H2v1H1v3h2v-3h1v-3h1v-1h1V8H5v1zm5 11v1h2v-1h-2zm3 0v1h2v-1h-2zm18 0v1h2v-1h-2zm3 0v1h2v-1h-2zm-14 0v1h2v-1h-2zm4 0v1h2v-1h-2zm17-5h-1v6h2v-3h-1v-3z"/><path d="M44,18v-1h-1v-4h-1V9h-1V8h-1v6h1v1h1v3h1v3h2v-3H44z"/></g><path d="M5 8h1V0H5v8zm35-8v8h1V0h-1zM28 6v2h4V6h-4zM14 6v2h4V6h-4z" fill="#c0642e"/><path d="M40 1h-1v1h-1v1h-2v1h-2v1h-2v3H14V5h-2V4h-2V3H8V2H7V1H6v21h4v-2h5v-1h5v1h6v-1h5v1h5v2h4z"/><path d="M15 16v3h5v-3h-5zm11 0v3h5v-3h-5zm2-6v2h3v-2h-3zm-10 2v-2h-3v2h3z" fill="#8e9397"/><g fill="#5abdce"><path d="M24,10v2h-2v-2h-2v6h2v-2h2v2h2v-6H24z"/><path d="M24 10V8h-2v2h2z"/></g><path d="M15 19v3h5v-3h-5zm11 0v3h5v-3h-5zm0-7v2h14v-2H26zM6 12v2h14v-2H6z" fill="#ffc500"/></svg>