<svg xmlns="http://www.w3.org/2000/svg" viewBox="0 0 30 22"><path d="M28,6V5h-2V4h-2V3h-2V2h-1V1H5v1H4v5H3v5H2v5H0v5h16v-2h4v2h4v-2h3v2h3V6H28z"/><path d="M5,1v1H4v5H3v5H2v5H0v5h14V1H5z" fill="#7d0019"/><g fill="#c22b2a"><path d="M6,3h1V2H5v6h1V3z"/><path d="M8,13h1V8h1V3h1V2H8v1H7v5H6v5H5v5H4v3h3v-3h1V13z"/><path d="M12 2v1h-1v5h-1v5H9v5H8v3h6V2h-2zM5 8H4v5h1V8z"/><path d="M4,13H3v5h1V13z"/><path d="M1,18v3h2v-3H1z"/></g><path d="M28,6v2h2V6H28z" fill="#c0642e"/><path d="M29,10h1v2h-1V10z" fill="#8e9397"/><path d="M14 12v2h16v-2H14zm15 4v6h1v-6h-1z" fill="#ffc500"/><path d="M29,16v3h1v-3H29z" fill="#8e9397"/></svg>