<svg xmlns="http://www.w3.org/2000/svg" viewBox="0 0 46 22"><path d="M44 17v-5h-1V7h-1V2h-1V0H5v2H4v5H3v5H2v5H0v5h46v-5h-2z" fill="#7d0019"/><g fill="#c22b2a"><path d="M37 13h-1V8h-1V3h-1V1h-7v2h1v5h1v5h1v5h1v3h7v-3h-1v-5z"/><path d="M43 18v-5h-1V8h-1V2h-1V1h-5v2h1v5h1v5h1v5h1v3h6v-3h-2zM8 13h1V8h1V3h1V1H6v1H5v6H4v5H3v5H1v3h6v-3h1v-5z"/><path d="M16 13h1V8h1V3h1V1h-7v2h-1v5h-1v5H9v5H8v3h7v-3h1v-5z"/><path d="M29 18v-5h-1V8h-1V3h-1V1h-6v2h-1v5h-1v5h-1v5h-1v3h14v-3h-1zm-3-4h-2v-2h-2v2h-2V8h2V6h2v2h2v6z"/><path d="M24 10V8h-2v2h2z"/></g></svg>