<svg xmlns="http://www.w3.org/2000/svg" xmlns:xlink="http://www.w3.org/1999/xlink" viewBox="0 0 203.5 285.8"><style><![CDATA[.I{stroke-miterlimit:10}.J{fill:#feb423}.K{fill:#fed223}]]></style><path d="M189.5 150v-40h-20V40h-10V30h-10V20h-10V10h-20V0h-40v10h-20v10h-10v10h-10v10h-10v70h-20v40h10v10h-10v50 28.4H0v37.9h9.5v9.5h180v-9.5h9.5v-37.9h-9.5V160h-10v-10h10zm-130 60v-10h10v10h-10zm70 0v-10h10v10h-10z"/><g fill="#fee433"><path d="M59.5 130v-10h-10V60h10V50h10V40h10V30h40v10h10v10h10v10h10v60h-10v10h20V40h-10V30h-10V20h-20V10h-40v10h-20v10h-10v10h-10v90h20z"/><path d="M169.5 120v10h-10v10h-10v10h-10v10h-10v10h-10v10h-10v10h-20v-10h-10v-10h-10v-10h-10v-10h-10v-10h-10v-10h-10v-10h-10v30h10v10h10v10h10v10h10v10h10v10h60v-10h10v-10h10v-10h10v-10h10v-10h10v-30h-10zm-150 70h10v10h-10v-10zm150 0h10v10h-10v-10zm-100-80h10v-10h10V90h20v10h10v10h10v10h10V60h-10V50h-10V40h-40v10h-10v10h-10v60h10v-10z"/><path d="M119.5 130h-10v-10h-20v10h-10v20h10v10h20v-10h10v-20zm-20-20h10v-10h-20v10h10z"/><path d="M79.5,110h10v10h-10V110z"/><path d="M69.5 120h10v10h-10v-10zm10 40h10v10h-10v-10zm40-40h10v10h-10v-10z"/><path d="M109.5 110h10v10h-10v-10zm-40 30v-10h-10v20h10v-10z"/><path d="M139.5 130h-10v20h10v-20zm-70 20h10v10h-10v-10zm40 10h10v10h-10v-10z"/><path d="M99.5 170h-10v10h20v-10h-10zm20-20h10v10h-10v-10zm-70 30h-10v-10h-10v-10h-10v20h10v10h10v10h20v-10h-10v-10zm110-10v10h-10v10h-10v10h20v-10h10v-10h10v-20h-10v10h-10z"/></g><path d="M129.5 20h10V10h-20v10h10z"/><path d="M139.5,20h10v10h-10V20z"/><path d="M149.5 30h10v10h-10V30zm-70-10V10h-20v10h20z"/><path d="M49.5,20h10v10h-10V20z"/><path d="M39.5 30h10v10h-10V30zm100 50v40h10V60h-10v20zm-80 20V60h-10v60h10v-20zm40-90h20V0h-40v10h20zm0 30h20V30h-40v10h20z"/><path d="M119.5,40h10v10h-10V40z"/><path d="M129.5 50h10v10h-10V50zm-60-10h10v10h-10V40z"/><path d="M59.5 50h10v10h-10V50zm30 130v10h20v-10h-20zm20-80V90h-20v10h20zm-20 60v10h20v-10h-20z"/><path d="M109.5 150h10v10h-10v-10zm0-50h10v10h-10v-10zm20 20h10v10h-10v-10z"/><path d="M139.5 130v20h10v-10h10v-10h-20zm-20-20h10v10h-10v-10zm50 40h10v10h-10v-10z"/><path d="M179.5 110h-10V40h-10v90h10v-10h10v30h10v-40h-10 0zm-50 40h10v10h-10v-10z"/><path d="M119.5,160h10v10h-10V160z"/><path d="M109.5 170h10v10h-10v-10zm-80-10h10v10h-10v-10z"/><path d="M39.5,170h10v10h-10V170z"/><path d="M49.5,180h10v10h-10V180z"/><path d="M59.5,190h10v10h-10V190z"/><path d="M39.5 200v-10h-10v10h-10v-10h10v-10h-10v-20h-10v50h50v-10h-20zm120-40h10v10h-10v-10z"/><path d="M149.5,170h10v10h-10V170z"/><path d="M139.5,180h10v10h-10V180z"/><path d="M129.5,190h10v10h-10V190z"/><path d="M109.5 200h-40v10h60v-10h-20zm70-20h-10v10h10v10h-10v-10h-10v10h-20v10h50v-50h-10v20zm-100-30h10v10h-10v-10zm20-40h-10v10h20v-10h-10 0z"/><path d="M109.5 120h10v10h-10v-10zm-30 0h10v10h-10v-10z"/><path d="M119.5 140v10h10v-20h-10v10zm-40-10h-10v20h10v-20z"/><path d="M79.5 100h10v10h-10v-10zm-20 20h10v10h-10v-10z"/><path d="M59.5 130h-20v10h10v10h10v-20zm10-20h10v10h-10v-10zm-50 40h10v10h-10v-10z"/><path d="M19.5 130v-10h10v10h10V40h-10v70h-20v40h10v-20zm40 20h10v10h-10v-10z"/><path d="M69.5,160h10v10h-10V160z"/><path d="M79.5 170h10v10h-10v-10zm20-20h10v10h-10v-10z"/><path d="M109.5,140h10v10h-10V140z"/><g class="J"><path d="M89.5,150h10v10h-10V150z"/><path d="M99.5,140h10v10h-10V140z"/><path d="M109.5,130h10v10h-10V130z"/><path d="M99.5 120v10h-10v10h-10v10h20v-10h10v-20h-10z"/></g><g fill="#fec223"><path d="M119.5 70v10h10V60h-10v10zm0 30v10h10V90h-10v10zm10-70h10v10h-10V30z"/><path d="M139.5,40h10v10h-10V40z"/><path d="M149.5 50h10v10h-10V50zm-100 50h-10v20h10v-20z"/><path d="M49.5,120h10v10h-10V120z"/></g><g class="J"><path d="M109.5 10h-10v10h20V10h-10z"/><path d="M129.5 20h-10v10h20V20h-10z"/><path d="M139.5,30h10v10h-10V30z"/><path d="M149.5 40h10v10h-10V40zm0 60v30h10V90h-10v10zm-110 20h10v10h-10v-10zm90-60v20h-20v20h10V90h10v30h10V60h-10 0zm-20-20h10v10h-10V40z"/><path d="M119.5 50h10v10h-10V50zm-20 100h10v10h-10v-10z"/><path d="M109.5,140h10v10h-10V140z"/></g><g fill="#fee433"><path d="M109.5,40h-10v10h-20v10h-10v30h10V70h10V60h20V40z"/><path d="M59.5 100v10h10V90h-10v10zm50-30h-10v20h10V80h10V60h-10v10zm-50-40h10v10h-10V30z"/><path d="M49.5,40h10v10h-10V40z"/><path d="M39.5 50h10v10h-10V50zm100 70h10v10h-10v-10zm30 0h10v10h-10v-10zm-150 70h10v10h-10v-10zm150 0h10v10h-10v-10zm-150-70h10v10h-10v-10zm80 10h-10v10h-10v10h20v-10h10v-20h-10v10z"/></g><g class="K"><path d="M59.5,110h10v10h-10V110z"/><path d="M89.5,70h-10v20h-10v20h10v-10h10V90h10V70h10V60h-20V70z"/><path d="M109.5 50h10v10h-10V50zm-40-20h10v10h-10V30z"/><path d="M59.5,40h10v10h-10V40z"/><path d="M49.5 50h10v10h-10V50zm60-30h-10V10h-10v10h-10v10h40V20h-10z"/><path d="M119.5,30h10v10h-10V30z"/><path d="M129.5,40h10v10h-10V40z"/><path d="M139.5 50h10v10h-10V50zm-100 20v30h10V60h-10v10z"/><path d="M149.5 60v30h10V60h-10zm-50 80h10v10h-10v-10z"/><path d="M89.5 150h10v10h-10v-10zm20-20h10v10h-10v-10z"/></g><g fill="#fff"><path d="M89.5 40h-10v10h20V40h-10zm-30 30v20h10V60h-10v10z"/><path d="M69.5 50h10v10h-10V50zm10-40h10v10h-10V10z"/><path d="M79.5 30V20h-20v10h20z"/><path d="M49.5,30h10v10h-10V30z"/><path d="M39.5 40h10v10h-10V40zm50 80h10v10h-10v-10z"/><path d="M79.5 130h10v10h-10v-10zm30 50h10v10h-10v-10z"/><path d="M119.5,170h10v10h-10V170z"/><path d="M129.5,160h10v10h-10V160z"/><path d="M139.5,150h10v10h-10V150z"/><path d="M149.5,140h10v10h-10V140z"/><path d="M159.5 130h10v10h-10v-10zm-140 40h10v10h-10v-10zm150 0h10v10h-10v-10zm-90 10h10v10h-10v-10z"/><path d="M69.5,170h10v10h-10V170z"/><path d="M59.5,160h10v10h-10V160z"/><path d="M49.5,150h10v10h-10V150z"/><path d="M39.5 140h10v10h-10v-10zm50-40h10v10h-10v-10z"/><path d="M79.5 110h10v10h-10v-10zm-20 20h10v10h-10v-10z"/><path d="M69.5 120h10v10h-10v-10zm-40 10h10v10h-10v-10z"/></g><g class="K"><path d="M119.5 180h10v10h-10v-10zm-30-10h10v10h-10v-10z"/><path d="M129.5 170h10v10h-10v-10zm30-30h10v10h-10v-10z"/><path d="M169.5 130h10v10h-10v-10zm-30 30h10v10h-10v-10z"/><path d="M149.5 150h10v10h-10v-10zm-120 30h10v10h-10v-10z"/><path d="M39.5 190h10v10h-10v-10zm120-10h10v10h-10v-10z"/><path d="M149.5 190h10v10h-10v-10zm-80-10h10v10h-10v-10zm10-20h10v10h-10v-10zm20-60h10v10h-10v-10zm20 20h10v10h-10v-10z"/><path d="M109.5 110h10v10h-10v-10zm-50 30h10v10h-10v-10z"/><path d="M129.5 130h10v10h-10v-10zm-60 20h10v10h-10v-10zm-10 20h10v10h-10v-10zm-30-30h10v10h-10v-10z"/><path d="M19.5 130h10v10h-10v-10zm30 30h10v10h-10v-10z"/><path d="M39.5,150h10v10h-10V150z"/></g><g class="J"><path d="M109.5 190h-40v10h60v-10h-20zm0-30h10v10h-10v-10z"/><path d="M99.5 170h10v10h-10v-10zm20-20h10v10h-10v-10zm10 30h10v10h-10v-10zm30-30h10v10h-10v-10z"/><path d="M169.5 140h10v10h-10v-10zm-30 30h10v10h-10v-10z"/><path d="M149.5 160h10v10h-10v-10zm-120 10h10v10h-10v-10z"/><path d="M19.5 160h10v10h-10v-10zm30 30h10v10h-10v-10z"/><path d="M39.5 180h10v10h-10v-10zm120-10h10v10h-10v-10z"/><path d="M169.5 160h10v10h-10v-10zm-30 30h10v10h-10v-10z"/><path d="M149.5 180h10v10h-10v-10zm-20-40h10v10h-10v-10zm-70 40h10v10h-10v-10zm-30-30h10v10h-10v-10z"/><path d="M19.5 140h10v10h-10v-10zm30 30h10v10h-10v-10z"/><path d="M39.5,160h10v10h-10V160z"/></g><path d="M9.5,247.9v28.4h180v-28.4H9.5z" fill="#fa34f3"/><path d="M170.6 210H19v28.4h161.1V210h-9.5z" class="K"/><path d="M27.7 220v8.6H26V220h1.7zm6.9 0h-6.9v-1.7h6.9v1.7zm-6.9 10.3v-1.7h6.9v1.7h-6.9zm17.2-12v12.1h-1.7v-5.2H38v5.2h-1.7v-12.1H38v5.2h5.2v-5.2h1.7zm10.4 1.7v10.3h-1.7v-5.2h-5.2v5.2h-1.7V220h1.7v3.4h5.2V220h1.7zm-1.7 0h-5.2v-1.7h5.2v1.7zm12 0v10.3h-1.7v-5.2h-5.2v5.2H57V220h1.7v3.4h5.2V220h1.7zm-1.7 0h-5.2v-1.7h5.2v1.7zm6.9 0v1.7h-1.7v8.6h-1.7v-12h1.7v1.7h1.7 0zm1.7 1.7v1.7h-1.7v-1.7h1.7zm0 1.8h1.7v1.7h-1.7v-1.7zm1.7-1.8h1.7v1.7h-1.7v-1.7zm5.2-3.4v12.1h-1.7v-8.6H76v-1.7h1.7v-1.7l1.7-.1h0 0zm3.4 5.2H88v1.7h-5.2v5.2h-1.7v-12.1H88v1.7h-5.2v3.5h0 0zm6.9-3.5v3.4H88V220h1.7zm5.2 0v8.6h1.7v1.7h-5.2v-1.7h1.7V220h-1.7v-1.7h5.2v1.7h-1.7zm5.2 0v8.6h-1.7V220h1.7zm5.2 0h-5.2v-1.7h5.2v1.7zm-5.2 8.6h5.2v1.7h-5.2v-1.7zm6.9-8.6v8.6h-1.7V220h1.7zm5.1 1.7v1.7h-1.7v6.9h-1.7v-12h1.7v3.4h1.7zm1.8 1.8v1.7h-1.7v-1.7h1.7zm3.4-5.2v12.1h-1.7V227h-1.7v-1.7h1.7v-6.9l1.7-.1h0zm10.4 1.7v3.4H126V220h1.7zm-1.8 8.6h6.9v1.7h-6.9v-1.7zm8.6-8.6h-6.9v-1.7h6.9v1.7zm-6.8 5.2v-1.7h5.2v1.7h-5.2zm5.1 3.4v-3.4h1.7v3.4h-1.7zm12.1-10.3v3.4h-1.7V220h-6.9v-1.7h8.6 0 0zm-8.6 8.6h1.7v1.7h6.9v1.7h-8.6v-3.4h0zm1.7-1.7h1.7v1.7H138v-1.7zm1.7-1.7h1.7v1.7h-1.7v-1.7zm1.7-1.8h1.7v1.7h-1.7v-1.7zm8.7 0v1.7h-1.7v6.9h-1.7v-12h1.7v3.4h1.7zm1.7 1.8v1.7h-1.7v-1.7h1.7zm3.4-5.2v12.1h-1.7V227h-1.7v-1.7h1.7v-6.9l1.7-.1h0 0zm15.6 0v1.7h-6.9v-1.7h6.9zm-5.2 6.9v3.4h6.9v1.7h-8.6v-5.2l1.7.1h0zm5.2 0h-5.2v-1.7h5.2v1.7zm1.7-1.7h-1.7v-3.4h1.7v3.4z" stroke="#000" stroke-width=".199" class="I"/><g fill="#fff" stroke="#fff" stroke-width=".234" class="I"><path d="M29.2 261.8v1.8H31v5.5h-1.8v-5.5h-5.5v5.5h-1.8v-12.8h7.3v1.8h-5.5v3.7h5.5zm0 0v-3.7H31v3.7h-1.8z"/><use xlink:href="#B"/><use xlink:href="#B" x="12.3"/><path d="M62.2 261.8v1.8h-1.8v5.5h-1.8v-12.8h1.8v5.5h1.8zm1.8 0h-1.8V260H64v1.8zm-1.8 3.7v-1.8H64v1.8h-1.8zm3.7-5.5h-1.8v-1.8h1.8v1.8zm-1.9 7.3v-1.8h1.8v1.8H64zm3.7-9.1h-1.8v-1.8h1.8v1.8zm-1.8 10.9v-1.8h1.8v1.8h-1.8zm8.5-10.9v9.2h1.8v1.8h-5.5v-1.8h1.8v-9.2h-1.8v-1.8h5.5v1.8h-1.8zm6.8 0v3.7h7.3v1.8h-7.3v3.7h7.3v1.8h-9.1v-12.9h9.1v1.8l-7.3.1h0zm22.6 3.6v1.8H102v5.5h-1.8v-12.8h1.8v5.5h1.8zm1.9 0h-1.8V260h1.8v1.8zm-1.9 3.7v-1.8h1.8v1.8h-1.8 0zm3.7-5.5h-1.8v-1.8h1.8v1.8zm-1.8 7.3v-1.8h1.8v1.8h-1.8zm3.6-9.1h-1.8v-1.8h1.8v1.8h0zm-1.8 10.9v-1.8h1.8v1.8h-1.8 0zm8.6-10.9v9.2h1.8v1.8h-5.5v-1.8h1.8v-9.2h-1.8v-1.8h5.5v1.8h-1.8zm8.5 1.8v1.8h-1.8v7.3H121v-12.8h1.8v3.7h1.8zm1.8 1.8v1.8h-1.8v-1.8h1.8zm3.7-5.5v12.8h-1.8v-3.7h-1.8v-1.8h1.8v-7.3h1.8 0zm4.9 1.9v3.7h-1.8v-3.7h1.8zm-1.8 9.1h7.3v1.8h-7.3v-1.8zm9.1-9.1H135v-1.8h7.3v1.8zm-7.3 5.5v-1.8h5.5v1.8H135zm5.5 3.6v-3.7h1.8v3.7h-1.8 0zm14.1-11v12.8h-1.8v-5.5h-5.5v5.5h-1.8v-12.8h1.8v5.5h5.5v-5.5h1.8 0zm6.7 1.9v9.2h1.8v1.8h-5.5v-1.8h1.8v-9.2h-1.8v-1.8h5.5v1.8h-1.8zm6.7 3.6h5.5v1.8H168v5.5h-1.8v-12.8h7.3v1.8H168v3.7zm7.4-3.6v3.7h-1.8v-3.7h1.8z"/></g><defs ><path id="B" d="M35.9 258.2v9.2h-1.8v-9.2h1.8zm5.5 0h-5.5v-1.8h5.5v1.8zm-5.5 9.1h5.5v1.8h-5.5v-1.8zm7.3-9.1v9.2h-1.8v-9.2h1.8z"/></defs></svg>