<svg xmlns="http://www.w3.org/2000/svg" xmlns:xlink="http://www.w3.org/1999/xlink" viewBox="0 0 378.4 378.4"><circle cx="189.2" cy="189.2" r="189.2" fill="#f041f8"/><path d="M256.3 289.4v5.6h11.3v-5.6h-11.3zm-145.4 5.7h11.3v-5.6h-11.3v5.6h0zm31.2-10h5v-10h-5v10z"/><path d="M137.1 275.2h-5v29.9h5v-15h5v-5h-5v-9.9z"/><path d="M147.1 305v-15h-5v15h5zm10-29.8h-5v5 24.9h5v-29.9zM162 305h5v-24.9h5V305h5v-29.9h-15V305zm34.9-19.9h-10v-5h10v-5h-15V290h10v10h-10v5h15v-19.9zm34.5 19.9h5v-9.9h9.9v-19.9h-14.9V305zm5-24.9h5v9.9h-5v-9.9zM211.8 305h5v-29.9h-5V290h-5v-14.9h-5V305h5v-10h5v10zm10 0h5v-29.9h-5V305zm-87.2 17.1h7.5v2.5h-7.5v-2.5z"/><path d="M134.6 314.6h10v2.5h-10v-2.5zm7.5 10h2.5v5h-2.5v-5z"/><path d="M132.1 317.1h2.5v5h-2.5v-5zm0 12.5h10v2.5h-10v-2.5zm15 2.5h12.5v-2.5h-10v-5h10v-2.5h-10v-5h10v-2.5h-12.5v17.5zm25-10h-7.5v-5h-2.5v15h2.5v-7.5h7.5v7.5h2.5v-15h-2.5v5z"/><path d="M164.6 314.6h7.5v2.5h-7.5v-2.5zm15 0h10v2.5h-10v-2.5zm0 7.5h7.5v2.5h-7.5v-2.5z"/><path d="M187.1 324.6h2.5v5h-2.5v-5zm-10-7.5h2.5v5h-2.5v-5z"/><path d="M177.1 329.6h10v2.5h-10v-2.5zm25-12.5h2.5v12.5h-2.5v-12.5zm-7.6-2.5h7.5v2.5h-7.5v-2.5zm0 15h7.5v2.5h-7.5v-2.5z"/><path d="M192.1 317.1h2.5v12.5h-2.5v-12.5zm19.9 5h2.5v2.5H212v-2.5z"/><path d="M217 324.6h-2.5v2.5h2.5v5h2.5v-17.5H217v10zm-7.5-5v-5H207v17.5h2.5v-10h2.5v-2.5h-2.5zm25 2.5h7.5v2.5h-7.5v-2.5z"/><path d="M242 317.1h2.5v5H242v-5z"/><path d="M232 314.6h10v2.5h-10v-2.5zm0 17.5h12.5v-2.5h-10v-5H232v7.5zm55.6-182.3h9.4v47.1h9.4v-56.5h-18.8v9.4zm28.2 0v47.1H344v-47.1h-28.2 0zm18.8 37.6h-9.4v-28.2h9.4v28.2h0zM32.3 145.7h2v6.1h-2v-6.1zm0-6.2h2v4.1h-2v-4.1z"/><path d="M26.1 145.7h6.2v-2.1h-6.2v-4.1h6.2v-2h-8.2v14.3h2v-6.1zm12.2-8.2h6.1v2h-6.1v-2z"/><path d="M36.3 139.5h2v10.2h-2v-10.2zm8.2 0h2v10.2h-2v-10.2zm-6.2 10.3h6.1v2h-6.1v-2zm10.2-10.3h2v10.2h-2v-10.2z"/><path d="M50.5 149.8h6.1v2h-6.1v-2zm0-12.3h6.1v2h-6.1v-2zm6.2 2h2v10.2h-2v-10.2zm12.1-2h2v2h-2v-2zm-6.1 0h-2v14.3h2v-6.1h2.1v-2.1h-2.1v-6.1z"/><path d="M64.8 145.7h2v2h-2v-2zm0-4.1h2v2h-2v-2z"/><path d="M66.8 139.5h2.1v2.1h-2.1v-2.1zm0 8.2h2.1v2.1h-2.1v-2.1z"/><path d="M68.8 149.8h2v2h-2v-2zm10.2 0h-2v-10.3h2v-2h-6.1v2h2v10.3h-2v2H79v-2zm12.2-10.3v-2H81v14.3h10.2v-2H83v-4.1h8.2v-2.1H83v-4.1h8.2zm-45 19.1V190H65v-31.4H46.2zm12.5 25.1h-6.2v-18.8h6.2v18.8zm12.5-25.1V190h6.3v-12.6H90v-18.8H71.2h0zm6.3 12.6V165h6.2v6.2h-6.2zm-53.4-6.3h6.3V190h6.2v-25.1h6.3v-6.3H24.1v6.3zm235.1-6.4v-70h-10v-10h-10v-10h-10v-10h-20v-10h-40v10h-20v10h-10v10h-10v10h-10v70h-20v40h10v10h-10v50h50v-10h10v10h60v-10h10v10h50v-50h-10v-10h10v-40h-20z"/><g fill="#fa34f3"><path d="M149.2 178.5v-10h-10v-60h10v-10h10v-10h10v-10h40v10h10v10h10v10h10v60h-10v10h20v-90h-10v-10h-10v-10h-20v-10h-40v10h-20v10h-10v10h-10v90h20z"/><path d="M259.2 168.5v10h-10v10h-10v10h-10v10h-10v10h-10v10h-10v10h-20v-10h-10v-10h-10v-10h-10v-10h-10v-10h-10v-10h-10v-10h-10v30h10v10h10v10h10v10h10v10h10v10h60v-10h10v-10h10v-10h10v-10h10v-10h10v-30h-10 0zm-150 70h10v10h-10v-10zm150 0h10v10h-10v-10zm-100-80h10v-10h10v-10h20v10h10v10h10v10h10v-60h-10v-10h-10v-10h-40v10h-10v10h-10v60h10v-10z"/><path d="M209.2 178.5h-10v-10h-20v10h-10v20h10v10h20v-10h10v-20h0zm-20-20h10v-10h-20v10h10z"/><use xlink:href="#B"/><path d="M159.2 168.5h10v10h-10v-10zm10 40h10v10h-10v-10zm40-40h10v10h-10v-10z"/><path d="M199.2 158.5h10v10h-10v-10zm-40 30v-10h-10v20h10v-10h0z"/><path d="M229.2 178.5h-10v20h10v-20h0zm-70 20h10v10h-10v-10zm40 10h10v10h-10v-10z"/><path d="M189.2 218.5h-10v10h20v-10h-10zm20-20h10v10h-10v-10zm-70 30h-10v-10h-10v-10h-10v20h10v10h10v10h20v-10h-10v-10zm110-10v10h-10v10h-10v10h20v-10h10v-10h10v-20h-10v10h-10z"/></g><path d="M219.2 68.5h10v-10h-20v10h10z"/><use xlink:href="#B" x="60" y="-90"/><path d="M239.2 78.5h10v10h-10v-10zm-70-10v-10h-20v10h20z"/><use xlink:href="#B" x="-30" y="-90"/><path d="M129.2 78.5h10v10h-10v-10zm100 50v40h10v-60h-10v20zm-80 20v-40h-10v60h10v-20zm40-90h20v-10h-40v10h20zm0 30h20v-10h-40v10h20z"/><use xlink:href="#B" x="40" y="-70"/><path d="M219.2 98.5h10v10h-10v-10zm-60-10h10v10h-10v-10z"/><path d="M149.2 98.5h10v10h-10v-10zm30 130v10h20v-10h-20zm20-80v-10h-20v10h20zm-20 60v10h20v-10h-20z"/><path d="M199.2 198.5h10v10h-10v-10zm0-50h10v10h-10v-10zm20 20h10v10h-10v-10z"/><path d="M229.2 178.5v20h10v-10h10v-10h-20 0zm-20-20h10v10h-10v-10zm50 40h10v10h-10v-10z"/><path d="M259.2 158.5v-70h-10v90h10v-10h10v30h10v-40h-20 0zm-40 40h10v10h-10v-10z"/><use xlink:href="#B" x="40" y="50"/><path d="M199.2 218.5h10v10h-10v-10zm-80-10h10v10h-10v-10z"/><use xlink:href="#B" x="-40" y="60"/><use xlink:href="#B" x="-30" y="70"/><use xlink:href="#B" x="-20" y="80"/><path d="M129.2 248.5v-10h-10v10h-10v-10h10v-10h-10v-20h-10v50h50v-10h-20zm120-40h10v10h-10v-10z"/><use xlink:href="#B" x="70" y="60"/><use xlink:href="#B" x="60" y="70"/><use xlink:href="#B" x="50" y="80"/><path d="M199.2 248.5h-40v10h60v-10h-20zm70-20h-10v10h10v10h-10v-10h-10v10h-20v10h50v-50h-10v20zm-100-30h10v10h-10v-10zm20-40h-10v10h20v-10h-10z"/><path d="M199.2 168.5h10v10h-10v-10zm-30 0h10v10h-10v-10z"/><path d="M209.2 188.5v10h10v-20h-10v10h0zm-40-10h-10v20h10v-20h0z"/><path d="M169.2 148.5h10v10h-10v-10zm-20 20h10v10h-10v-10z"/><path d="M149.2 178.5h-20v10h10v10h10v-20h0zm10-20h10v10h-10v-10zm-50 40h10v10h-10v-10z"/><path d="M109.2 178.5v-10h10v10h10v-90h-10v70h-20v40h10v-20h0zm40 20h10v10h-10v-10z"/><use xlink:href="#B" x="-10" y="50"/><path d="M169.2 218.5h10v10h-10v-10zm20-20h10v10h-10v-10z"/><use xlink:href="#B" x="30" y="30"/><g fill="#8f17f9"><use xlink:href="#B" x="10" y="40"/><use xlink:href="#B" x="20" y="30"/><use xlink:href="#B" x="30" y="20"/><path d="M189.2 168.5v10h-10v10h-10v10h20v-10h10v-20h-10 0z"/></g><g fill="#ac15f9"><path d="M209.2 118.5v10h10v-20h-10v10zm0 30v10h10v-20h-10v10zm10-70h10v10h-10v-10z"/><use xlink:href="#B" x="60" y="-70"/><path d="M239.2 98.5h10v10h-10v-10zm-100 50h-10v20h10v-20z"/><use xlink:href="#B" x="-30" y="10"/></g><g fill="#7e18f8"><path d="M199.2 58.5h-10v10h20v-10h-10z"/><path d="M219.2 68.5h-10v10h20v-10h-10z"/><use xlink:href="#B" x="60" y="-80"/><path d="M239.2 88.5h10v10h-10v-10zm0 60v30h10v-40h-10v10zm-110 20h10v10h-10v-10z"/></g><g fill="#8f17f9"><path d="M219.2 108.5v20h-20v20h10v-10h10v30h10v-60h-10zm-20-20h10v10h-10v-10z"/><path d="M209.2 98.5h10v10h-10v-10zm-20 100h10v10h-10v-10z"/><use xlink:href="#B" x="30" y="30"/></g><g fill="#fa34f3"><path d="M199.2 88.5h-10v10h-20v10h-10v30h10v-20h10v-10h20v-20z"/><path d="M149.2 148.5v10h10v-20h-10v10zm50-30h-10v20h10v-10h10v-20h-10v10zm-50-40h10v10h-10v-10z"/><use xlink:href="#B" x="-30" y="-70"/><path d="M129.2 98.5h10v10h-10v-10zm100 70h10v10h-10v-10zm30 0h10v10h-10v-10zm-150 70h10v10h-10v-10zm150 0h10v10h-10v-10zm-150-70h10v10h-10v-10zm80 10h-10v10h-10v10h20v-10h10v-20h-10v10z"/></g><g fill="#cf15f9"><use xlink:href="#B" x="-20"/><path d="M179.2 118.5h-10v20h-10v20h10v-10h10v-10h10v-20h10v-10h-20v10z"/><path d="M199.2 98.5h10v10h-10v-10zm-40-20h10v10h-10v-10z"/><use xlink:href="#B" x="-20" y="-70"/><path d="M139.2 98.5h10v10h-10v-10zm60-30h-10v-10h-10v10h-10v10h40v-10h-10z"/><use xlink:href="#B" x="40" y="-80"/><use xlink:href="#B" x="50" y="-70"/><path d="M229.2 98.5h10v10h-10v-10zm-100 20v30h10v-40h-10v10z"/><path d="M239.2 108.5v30h10v-30h-10zm-50 80h10v10h-10v-10z"/><path d="M179.2 198.5h10v10h-10v-10zm20-20h10v10h-10v-10z"/></g><g fill="#fab4f3"><path d="M179.2 88.5h-10v10h20v-10h-10zm-30 30v20h10v-30h-10v10z"/><path d="M159.2 98.5h10v10h-10v-10zm10-40h10v10h-10v-10z"/><path d="M169.2 78.5v-10h-20v10h20z"/><use xlink:href="#B" x="-30" y="-80"/><path d="M129.2 88.5h10v10h-10v-10zm50 80h10v10h-10v-10z"/><use xlink:href="#B" y="20"/></g><g fill="#e1e1e1"><use xlink:href="#B" x="30" y="70"/><use xlink:href="#B" x="40" y="60"/><use xlink:href="#B" x="50" y="50"/><use xlink:href="#B" x="60" y="40"/><use xlink:href="#B" x="70" y="30"/><path d="M249.2 178.5h10v10h-10v-10zm-140 40h10v10h-10v-10zm150 0h10v10h-10v-10zm-90 10h10v10h-10v-10z"/><use xlink:href="#B" x="-10" y="60"/><use xlink:href="#B" x="-20" y="50"/><use xlink:href="#B" x="-30" y="40"/><path d="M129.2 188.5h10v10h-10v-10zm50-40h10v10h-10v-10z"/><path d="M169.2 158.5h10v10h-10v-10zm-20 20h10v10h-10v-10z"/><path d="M159.2 168.5h10v10h-10v-10zm-40 10h10v10h-10v-10z"/></g><g fill="#afafaf"><path d="M209.2 228.5h10v10h-10v-10zm-30-10h10v10h-10v-10z"/><path d="M219.2 218.5h10v10h-10v-10zm30-30h10v10h-10v-10z"/><path d="M259.2 178.5h10v10h-10v-10zm-30 30h10v10h-10v-10z"/><path d="M239.2 198.5h10v10h-10v-10zm-120 30h10v10h-10v-10z"/><path d="M129.2 238.5h10v10h-10v-10zm120-10h10v10h-10v-10z"/><path d="M239.2 238.5h10v10h-10v-10zm-80-10h10v10h-10v-10zm10-20h10v10h-10v-10zm20-60h10v10h-10v-10zm20 20h10v10h-10v-10z"/><path d="M199.2 158.5h10v10h-10v-10zm-50 30h10v10h-10v-10z"/><path d="M219.2 178.5h10v10h-10v-10zm-60 20h10v10h-10v-10zm-10 20h10v10h-10v-10zm-30-30h10v10h-10v-10z"/><path d="M109.2 178.5h10v10h-10v-10zm30 30h10v10h-10v-10z"/><use xlink:href="#B" x="-40" y="40"/></g><g fill="#7d7d7d"><path d="M199.2 238.5h-40v10h60v-10h-20zm0-30h10v10h-10v-10z"/><path d="M189.2 218.5h10v10h-10v-10zm20-20h10v10h-10v-10zm10 30h10v10h-10v-10zm30-30h10v10h-10v-10z"/><path d="M259.2 188.5h10v10h-10v-10zm-30 30h10v10h-10v-10z"/><path d="M239.2 208.5h10v10h-10v-10zm-120 10h10v10h-10v-10z"/><path d="M109.2 208.5h10v10h-10v-10zm30 30h10v10h-10v-10z"/><path d="M129.2 228.5h10v10h-10v-10zm120-10h10v10h-10v-10z"/><path d="M259.2 208.5h10v10h-10v-10zm-30 30h10v10h-10v-10z"/><path d="M239.2 228.5h10v10h-10v-10zm-20-40h10v10h-10v-10zm-70 40h10v10h-10v-10zm-30-30h10v10h-10v-10z"/><path d="M109.2 188.5h10v10h-10v-10zm30 30h10v10h-10v-10z"/><use xlink:href="#B" x="-40" y="50"/></g><defs ><path id="B" d="M169.2 158.5h10v10h-10v-10z"/></defs></svg>