<svg xmlns="http://www.w3.org/2000/svg" viewBox="0 0 40 23"  xmlns:v="https://vecta.io/nano"><path d="M20 14h1v1h-1v-1zm-4-6h1v1h-1V8zm4 0h1v1h-1V8zm0 4h1v1h-1v-1zm0-2h1v1h-1v-1zm3-2h1v1h-1V8z" fill="#fff"/><g fill="#b8c7dc"><path d="M15 7V6h-2v1h1v1h1v1h1V8h1v1h1V8h1V7h-4zm8 1h1v1h1V8h1V7h1V6h-2v1h-4v1h1v1h1V8z"/><path d="M16 9h1v1h-1V9zm7 0h1v1h-1V9z"/><path d="M3 2v7h1v6h15V9h-1v1h-1v1h-1v-1h-1V9h-1V8h-1V7h-1V6h-1V5H9V4H7V3H5V2H3zm8 8H7V9h4v1zm24-8v1h-2v1h-2v1h-2v1h-1v1h-1v1h-1v1h-1v1h-1v1h-1v-1h-1V9h-1v6h15V9h1V2h-2zm-2 8h-4V9h4v1z"/></g><g fill="#4a71a6"><path d="M6,16v3H5v1H4v1h3v-2h5v2h5v-2h3v-3H6z"/><path d="M5 16H4v3h1v-3zm30 0v3h1v-3h-1z"/><path d="M34,16H21v3h2v2h5v-2h5v2h3v-1h-1v-1h-1V16z"/></g><g fill="#15488c"><path d="M11 10V9H7v1h4zm0-5V4H9v1h2zm8 2V6h-4v1h4zm2 1h1v1h-1V8zm2-1h2V6h-4v1h2z"/><path d="M27 6v1h1V6h1V5h-4v1h2zM12 6v1h1V6h2V5h-4v1h1zm4 4h1v1h-1v-1zm13-1v1h4V9h-4z"/><path d="M31 5V4h-2v1h2zm-8 5h1v1h-1v-1z"/><path d="M22 9h1v1h-1V9zm-5 0h1v1h-1V9zM5 2V1H3v1h2zm30 1V2h-2v1h2z"/><path d="M7 3V2H5v1h2zm30-1V1h-2v1h2zm-1 13H20v-1h1v-1h-1v-1h1v-1h-1v-1h1V9h-1V8h1V7h-2v1h-1v1h1v6H4V9H3v14h4v-2H4v-1h1v-1H4v-3h1v3h1v-3h14v3h-3v2h6v-2h-2v-3h13v3h1v-3h1v3h-1v1h1v1h-3v2h4V9h-1v6zM33 4V3h-2v1h2zm-7 3h1v1h-1V7z"/><path d="M25 8h1v1h-1V8zM9 4V3H7v1h2zm5 4h1v1h-1V8z"/><path d="M13 7h1v1h-1V7zm2 2h1v1h-1V9zm9 0h1v1h-1V9zM12 19H7v2h5v-2z"/><path d="M12 21v2h5v-2h-5zm21-2h-5v2h5v-2z"/><path d="M23,21v2h5v-2H23z"/></g></svg>