<svg xmlns="http://www.w3.org/2000/svg" viewBox="0 0 40 23"><path d="M35 1v1h-2v1h-2v1h-2v1h-4v1h-4v1h-2V6h-4V5h-4V4H9V3H7V2H5V1H3h-.5v8H3v14h4v-2h5v2h5v-2h6v2h5v-2h5v2h4V9h.5V1H35z" fill="#15488c"/><g fill="#b8c7dc"><path d="M20 8h1v1h-1V8zm-5-2h-2v1h1v1h1v1h1v1h1V9h1V8h1V7h-4V6z"/><path d="M22 9h1v1h1V9h1V8h1V7h1V6h-2v1h-4v1h1v1zm-5 1v1h-1v-1h-1V9h-1V8h-1V7h-1V6h-1V5H9V4H7V3H5V2H3v7h1v6h15V9h-1v1h-1zm-6 0H7V9h4v1z"/><path d="M35 2v1h-2v1h-2v1h-2v1h-1v1h-1v1h-1v1h-1v1h-1v1h-1v-1h-1V9h-1v1h-1v1h1v1h-1v1h1v1h-1v1h16V9h1V2h-2zm-2 8h-4V9h4v1z"/></g><g fill="#4a71a6"><path d="M6,16v3H5v1H4v1h3v-2h5v2h5v-2h3v-3H6z"/><path d="M5 16H4v3h1v-3zm30 0v3h1v-3h-1z"/><path d="M34,16H21v3h2v2h5v-2h5v2h3v-1h-1v-1h-1V16z"/></g><path d="M20 14h1v1h-1v-1zm-4-6h1v1h-1V8zm4 0h1v1h-1V8zm0 4h1v1h-1v-1zm0-2h1v1h-1v-1zm3-2h1v1h-1V8z" fill="#fff"/></svg>