<svg xmlns="http://www.w3.org/2000/svg" viewBox="0 0 30 29"><path d="M28 10V8h-2V6h-4V4h-1V2h-1V1h-3V0h-6v1h-1v1H9v1H7v1H5v1h3v1H6v1H5v1H3v1H1v1H0v1h1v1h2v1h4v16h3v-1h2v-1h2v-1h2v-1h1v-1h1v-1h1v-1h1v-1h1v-1h1v-1h1v-1h1v-1h1v-1h1v-1h1v-1h1v-1h1v-1h1v-2h-2z" fill="#482b3e"/><path d="M20 4v2h2V4h-2z" fill="#376560"/><g fill="#321227"><path d="M13 5V4h2v1h2v1h1v1h2V6h-1V5h-1V4h-2V3h-4v1h-2v1H8v1h3V5h2zm-5 6v-1h2V9H7v1H4v1H1v1h4v-1h3z"/><path d="M12 3V2h4v1h2v1h1v1h1V3h-1V2h-2V1h-6v1H9v1H7v1h3V3h2zM7 9V8h3v1h2V8h-1V7H5v1H3v1H1v1h3V9h3zm10-2V6h-2V5h-2v1h1v1h2v1h2V7h-1z"/><path d="M12 8h2V7h-1V6h-2v1h1v1z"/><path d="M14 8v1h2V8h-2z"/><path d="M12 9v1h2V9h-2z"/><path d="M10 10v1h2v-1h-2z"/><path d="M8 11v1h2v-1H8z"/><path d="M11 14v-1h2v-1h2v-1h2v-1h2V9h2V8h2V7h1V6h-2v1h-2v1h-2v1h-2v1h-2v1h-2v1h-2v1H8v1H7v1h2v-1h2zm0 5v-1h2v-1h2v-1h2v-1h2v-1h2v-1h2v-1h2v-1h1v-1h1V9h1V8h-2v1h-1v1h-1v1h-2v1h-2v1h-2v1h-2v1h-2v1h-2v1h-2v1H8v1H7v1h2v-1h2z"/><path d="M10 17v-1h2v-1h2v-1h2v-1h2v-1h2v-1h2v-1h2V9h1V8h1V6h-1v1h-1v1h-1v1h-2v1h-2v1h-2v1h-2v1h-2v1h-2v1H9v1H7v2h1v-1h2zm-5-5v1h3v-1H5zm21 2h1v1h-1z"/><path d="M27 13h1v1h-1z"/><path d="M28 12h1v1h-1zm-4 3v1h-2v1h-2v1h-2v1h-2v1h-2v1h-2v1h-2v1H8v1H7v1h2v-1h2v-1h2v-1h2v-1h2v-1h2v-1h2v-1h2v-1h2v-1h1v-1h-2z"/><path d="M21 19h1v1h-1z"/><path d="M19 20v1h-2v1h-2v1h-2v1h-2v1H9v1H7v2h1v-1h2v-1h2v-1h2v-1h2v-1h2v-1h2v-1h1v-1h-2z"/><path d="M16 24h1v1h-1zm-8 4v1h2v-1H8z"/><path d="M10 27v1h2v-1h-2zm4-2v1h2v-1h-2z"/><path d="M12 26v1h2v-1h-2zm-2-4v-1h2v-1h2v-1h2v-1h2v-1h2v-1h2v-1h2v-1h2v-1h1v-1h1v-1h1v-1h-2v1h-1v1h-1v1h-2v1h-2v1h-2v1h-2v1h-2v1h-2v1h-2v1H9v1H7v2h1v-1h2z"/><path d="M29 11h1v1h-1z"/></g><path d="M20 5h1v1h-1z" fill="#6ca958"/></svg>