<svg xmlns="http://www.w3.org/2000/svg" viewBox="0 0 48 29"><path d="M46 12v-2h-2V8h-2V6h-2V5h-3V4H25v1h-3V3h-1V2h-1V1h-3V0h-6v1h-1v1H9v1H7v1H5v1h3v1H6v1H5v1H3v1H1v1H0v1h1v1h2v1h7v-1h1v1h-1v2h1v-1h1v-1h1v-2h1V9h1V8h1V7h3v1h-1v2h-2v2h-2v17h34V12h-2z" fill="#482b3e"/><path d="M20 3v1h-1v1h-1v2h2V6h1V5h1V3h-2z" fill="#376560"/><g fill="#321227"><path d="M21 5h1v1h-1zm-8 0V4h2v1h3V4h-2V3h-4v1h-2v1H8v1h3V5h2z"/><path d="M14 10V9h1V8h-3v1H7v1H4v1H1v1h4v-1h3v-1h6zm6-1h2V8h3V7h1V6h1V5h1V4h-2v1h-1v1h-3v1h-3v1h-1v2h1V9h1zm19-4h1v1h-1z"/><path d="M38 8h1v1h1v1h2v1h2v1h2v-1h-1v-1h-2V9h-2V8h-1V7h-1V6h-1V5h-1v2h1v1z"/><path d="M41 7v1h1V6h-2v1h1zm2 1h1v1h-1zm5 5v-1h-2v1h2z"/><path d="M44 13v-1h-2v-1h-2v-1h-1V9h-1V8h-1V7h-1v2h1v1h1v1h1v1h2v1h2v1h2v1h2v1h1v-2h-2v-1h-2z"/><path d="M45 16v-1h-2v-1h-2v-1h-2v-1h-1v-1h-1v-1h-1V9h-1v2h1v1h1v1h1v1h2v1h2v1h2v1h2v1h2v-1h-1v-1h-2z"/><path d="M19 19v-1h3v-1h3v-1h2v-1h2v-1h2v-1h1v-1h1v-1h1V9h1V7h1V4h-1v1h-1v2h-1v2h-1v1h-1v1h-1v1h-1v1h-2v1h-2v1h-3v1h-3v1h-2v1h-3v2h3v-1h2z"/><path d="M44 18v-1h-2v-1h-2v-1h-2v-1h-1v-1h-1v-1h-1v-1h-1v1h-1v1h-1v1h-1v1h-2v1h-2v1h-2v1h-3v1h-3v1h-2v1h-3v2h3v-1h2v-1h3v-1h3v-1h2v-1h2v-1h2v-1h1v-1h1v-1h1v-1h1v1h1v1h1v1h2v1h2v1h2v1h2v1h2v1h1v-2h-2v-1h-2z"/><path d="M45 21v-1h-2v-1h-2v-1h-2v-1h-2v-1h-1v-1h-1v-1h-1v1h-1v1h-1v1h-1v1h-2v1h-2v1h-2v1h-3v1h-3v1h-2v1h-3v2h1v-1h3v-1h2v-1h3v-1h3v-1h2v-1h2v-1h2v-1h1v-1h1v-1h1v1h1v1h2v1h2v1h2v1h2v1h2v1h2v-1h-1v-1h-2z"/><path d="M44 23v-1h-2v-1h-2v-1h-2v-1h-2v-1h-1v-1h-1v1h-1v1h-1v1h-2v1h-2v1h-2v1h-3v1h-3v1h-2v1h-3v1h-1v1h2v-1h3v-1h2v-1h3v-1h3v-1h2v-1h2v-1h2v-1h1v-1h1v1h2v1h2v1h2v1h2v1h2v1h2v1h1v-2h-2v-1h-2z"/><path d="M45 26v-1h-2v-1h-2v-1h-2v-1h-2v-1h-2v-1h-1v1h-1v1h-2v1h-2v1h-2v1h-3v1h-3v1h-2v1h-3v1h4v-1h2v-1h3v-1h3v-1h2v-1h2v-1h2v-1h1v1h2v1h2v1h2v1h2v1h2v1h2v1h1v-2h-1v-1h-2zm-8 2v-1h-2v-1h-1v1h-2v1h-2v1h4v-1h1v1h4v-1h-2z"/><path d="M43 28v-1h-2v-1h-2v-1h-2v-1h-2v-1h-1v1h-2v1h-2v1h-2v1h-3v1h-3v1h5v-1h3v-1h2v-1h2v-1h1v1h2v1h2v1h2v1h4v-1h-2zM19 13v-1h3v-1h3v-1h2V9h1V8h1V7h1V5h1V4h-2v1h-1v1h-1v1h-1v1h-1v1h-3v1h-3v1h-3v1h-2v2h3v-1h2z"/><path d="M19 16v-1h3v-1h3v-1h2v-1h2v-1h1v-1h1V9h1V7h1V5h1V4h-2v1h-1v2h-1v1h-1v1h-1v1h-1v1h-2v1h-3v1h-3v1h-2v1h-3v2h3v-1h2zM5 12v1h5v-1h1v1h1v-1h1v-1H8v1H5z"/><path d="M10 13h1v1h-1zm2-10V2h4v1h2v1h2V3h-1V2h-2V1h-6v1H9v1H7v1h3V3h2zM7 9V8h5V7h6V6h-3V5h-2v1h-2v1H5v1H3v1H1v1h3V9h3z"/></g><g fill="#6ca958"><path d="M20 4h1v1h-1z"/><path d="M19 5h1v1h-1z"/></g></svg>