<svg xmlns="http://www.w3.org/2000/svg" viewBox="0 0 44 24"><path d="M37 2v1h-2v1h-2v1h-2v1h-2v1h-2v1h-3v1h-4V8h-3V7h-2V6h-2V5h-2V4H9V3H7V2H5v22h4v-2h5v2h5v-2h6v2h5v-2h5v2h4V2h-2z" fill="#321227"/><path d="M24 15v1h-4v-1H5v9h4v-2h5v2h5v-2h6v2h5v-2h5v2h4v-9H24z" fill="#376560"/><path d="M21 12v1h2v-1h-2zm0 2v1h2v-1h-2zm0-4v1h2v-1h-2z" fill="#b49698"/><path d="M37 3v1h-2v1h-2v1h-2v1h-2v1h-2v1h-3v5h14V3h-1zm-12 7h1v1h-1v-1zm0 3v-1h1v1h-1zm-7-4h-1V8h-2V7h-2V6h-2V5H9V4H7V3H6v11h14V9h-2zm1 4h-1v-1h1v1zm0-2h-1v-1h1v1z" fill="#482b3e"/><path d="M38 17v-1H24v4h1v2h5v-2h5v2h3v-2h-1v-1h1v-1h-1v-1h1zm-17-1v4h2v-4h-2zM6 16v1h1v1H6v1h1v1H6v2h3v-2h5v2h5v-2h1v-4H6z" fill="#6ca958"/></svg>