<svg xmlns="http://www.w3.org/2000/svg" viewBox="0 0 15 15"><path d="M14 13v-1h-1v-1h-1v-1h-1V9h-1V8H9V7H8V6h3V4h-1V3H9V2H8V1H7V0H5v3H3v2H0v2h1v1h1v1h1v1h1v1h2V8h1v1h1v1h1v1h1v1h1v1h1v1h1v1h2v-2h-1z" fill="#240f0a"/><g fill="#3b2924"><path d="M4 4h1v1H4z"/><path d="M5 5h1v1H5z"/><path d="M6 6h1v1H6z"/><path d="M7 7h1v1H7z"/><path d="M8 8h1v1H8z"/><path d="M9 9h1v1H9z"/><path d="M10 10h1v1h-1z"/><path d="M11 11h1v1h-1z"/><path d="M12 12h1v1h-1z"/><path d="M13 13h1v1h-1z"/></g><path d="M5 6H4V5H3v1H1v1h1v1h1v1h1v1h1V8h1V7H5V6zm4-2V3H8V2H7V1H6v2H5v1h1v1h1v1h1V5h2V4H9z" fill="#f6f6f6"/><path d="M8 4V3H7V2H6v1H5v1h1v1h1v1h1V5h1V4zM5 6H4V5H3v1H2v1h1v1h1v1h1V8h1V7H5z" fill="#828282"/></svg>