<svg xmlns="http://www.w3.org/2000/svg" viewBox="0 0 27 21"><g fill="#a16151"><path d="M13 2V1h1V0h11v1h1v1h1v14h-1v-1h-1V9h-1V8h-1v1h-1V8h-1v1h-1V8h-1v1h-1V8h-1v1h-1V8h-1v1h-1V5h-1V3h-1V2h1z"/><path d="M11 3h1v1h-1z"/><path d="M10 4h1v1h-1z"/></g><g fill="#7c4b3c"><path d="M19 3h1v1h-1zm3 2h1v1h-1z"/><path d="M21 4h1v1h-1zm-1-3h1v1h-1zm3 2h1v1h-1z"/><path d="M22 2h1v1h-1zm3 2h1v1h-1z"/><path d="M26 5h1v1h-1zm-2-4h1v1h-1zm2 1h1v1h-1zM13 4h1v1h-1zm1-2h1v1h-1zm2-1h1v1h-1z"/><path d="M18 2h1v1h-1zm-3 1h1v1h-1zm2 1h1v1h-1zm-3 1h1v1h-1z"/><path d="M18 5h1v1h-1zm5-5h1v1h-1zm-8 0h1v1h-1zm4 0h1v1h-1z"/></g></svg>