<svg xmlns="http://www.w3.org/2000/svg" viewBox="0 0 27 21"><g fill="#a16151"><path d="M14 2V1h-1V0H2v1H1v1H0v14h1v-1h1V9h1V8h1v1h1V8h1v1h1V8h1v1h1V8h1v1h1V8h1v1h1V5h1V3h1V2h-1z"/><path d="M15 3h1v1h-1z"/><path d="M16 4h1v1h-1z"/></g><g fill="#7c4b3c"><path d="M7 3h1v1H7zM4 5h1v1H4z"/><path d="M5 4h1v1H5zm1-3h1v1H6zM3 3h1v1H3z"/><path d="M4 2h1v1H4zM1 4h1v1H1z"/><path d="M0 5h1v1H0zm2-4h1v1H2zM0 2h1v1H0zm13 2h1v1h-1zm-1-2h1v1h-1zm-2-1h1v1h-1z"/><path d="M8 2h1v1H8zm3 1h1v1h-1zM9 4h1v1H9zm3 1h1v1h-1z"/><path d="M8 5h1v1H8zM3 0h1v1H3zm8 0h1v1h-1zM7 0h1v1H7z"/></g></svg>