<svg xmlns="http://www.w3.org/2000/svg" viewBox="0 0 42 20"><path d="M40 0v2h-2v2H26V2h-3V0h-4v2h-3v2H4V2H2V0H0v8h2v2h2v8h15v2h1v-1h2v1h1v-2h15v-8h2V8h2V0h-2z" fill="#3b2924"/><path d="M25 16v-3h-1v2h-1V0h-4v15h-1v-2h-1v3H4v2h15v2h1v-1h2v1h1v-2h15v-2H25z" fill="#828282"/><path d="M40 0v2h-2v2h-8v2h2v2h2v2h2v2h2v-2h2V8h2V0h-2zM4 4V2H2V0H0v8h2v2h2v2h2v-2h2V8h2V6h2V4H4z" fill="#d2d2d2"/><g fill="#fff"><path d="M38 6v1h2V6h-2z"/><path d="M40 3v3h1V3h-1zM2 6v1h2V6H2z"/><path d="M2 3H1v3h1V3z"/></g><path d="M22 8V6h-2v2h2zm0 3V9h-2v2h2zm0-9V0h-2v2h2zm0 3V3h-2v2h2zm0 7h-2v2h2v-2zm2 4v2h2v-2h-2zm-2 0h1v1h-1zm-3 0h1v1h-1zm17 0v2h2v-2h-2zm-4 0v2h2v-2h-2zm-4 0v2h2v-2h-2zm-12 0v2h2v-2h-2zM4 16v2h2v-2H4zm4 0v2h2v-2H8zm4 0v2h2v-2h-2z" fill="#d2d2d2"/></svg>