<svg xmlns="http://www.w3.org/2000/svg" viewBox="0 0 42 18"><path d="M40 0v2h-2v2H26V2h-3V0h-4v2h-3v2H4V2H2V0H0v8h2v2h2v8h34v-8h2V8h2V0h-2z" fill="#3b2924"/><path d="M23 16V0h-4v16H4v2h34v-2H23z" fill="#828282"/><path d="M40 0v2h-2v2h-8v2h2v2h2v2h2v2h2v-2h2V8h2V0h-2zM4 4V2H2V0H0v8h2v2h2v2h2v-2h2V8h2V6h2V4H4z" fill="#d2d2d2"/><g fill="#fff"><path d="M38 6v1h2V6h-2z"/><path d="M40 3v3h1V3h-1zM2 6v1h2V6H2z"/><path d="M2 3H1v3h1V3z"/></g><path d="M20 3v2h2V3h-2zm0 3v2h2V6h-2zm0-6v2h2V0h-2zm0 9v2h2V9h-2zm0 3v2h2v-2h-2zm4 4v2h2v-2h-2zm-4 0v2h2v-2h-2zm16 0v2h2v-2h-2zm-4 0v2h2v-2h-2zm-4 0v2h2v-2h-2zm-12 0v2h2v-2h-2zM4 16v2h2v-2H4zm4 0v2h2v-2H8zm4 0v2h2v-2h-2z" fill="#d2d2d2"/></svg>