<svg xmlns="http://www.w3.org/2000/svg" viewBox="0 0 34 14"><path d="M0 0v14h4v-2h5v2h5v-2h6v2h5v-2h5v2h4V0z"/><g fill="#51774e"><path d="M30 3H19v4h-1v1h-1v2h3v2h5v-2h5v2h3V7h-2V6h-1zM4 3v3H3v1H1v5h3v-2h5v2h5v-2h2V3z"/><path d="M1 3h2v3H1zm16 0h1v4h-1zm14 0h2v3h-2z"/></g><g fill="#cab983"><path d="M17 6h1v1h-1zm-6 4V7H8V6H7V5H6V4H5v1H4v1h1v1H4v1h3v2h1V9h2v1zM2 9H1v3h2v-2H2zm12 0h-1v2h-2v1h3v-2h2V8h-2zm5-3h1v1h-1zm11 4h2v2h-2zM12 5h2v1h-2zm20 0h1v1h-1z"/><path d="M18 8h-1v2h2V7h-1zm11-2h2v1h-2zm-6-1h-1v1h2V4h3V3h-4zm3 1h-1v1h-3v1h2v2h2V7h1V5h-1z"/></g><g fill="#66553b"><path d="M2 7H1v2h1v1h1V8H2zm13-3h-2v1h1v1h-2V5h-1V4H9v1H8v2h3v1h2V7h1v1h2V6h-1zM1 5h2v1H1zm7 4h2v1H8zm21-3h1V5h-1V4h1V3h-2v2h-1v2h2zm-3 3h4v1h-4zm0-4h-1V4h-1v2h-2V5h1V3h-3v1h-1v1h2v3h1V7h3V6h1zM4 3h1v1H4z"/><path d="M26 7h1v1h-1zm-3 3v1h1V8h-2v2zm-4-2h1v2h-1zm12-1v1h-1v1h2V8h1V7zm-11 4h2v1h-2zm-4-9V1h-6v1h6zm8 0V1h-5v1h5zM9 2V1H1v1h8zm24 0V1h-8v1h8z"/></g><path d="M17,1h1v1h-1V1z" fill="#cab983"/></svg>