<svg xmlns="http://www.w3.org/2000/svg" viewBox="0 0 24 14"><path d="M24 14h-3v-2h-3v2h-4v-2h-4v2H6v-2H3v2H0V0h24z"/><g fill="#66553b"><path d="M23 3v1h-2v4h1v1h1v3h-2v-2h-1V3zM3 3h2v3H3zm9 0v7h-2v2H6V3zm7 0v7h-1v2h-4v-2h-1V3z"/><path d="M2 3v3h1v1h2v3H3v2H1V3zm20 2h1v3h-1zm-9-4h5v1h-5zM7 1h5v1H7zm12 0h4v1h-4zM1 1h5v1H1z"/></g><g fill="#51774e"><path d="M23 4h-2v5h1v1h1v2h-2v-2h-1V3h3zM1 4h1v2H1zm7 4h3v2h-1v2H9v-2H6V3h2zM3 5h2v1H3zm6 0h1V3h2v3H9zm10 5h-1v2h-1v-1h-1-2v-1h2V9h1V7h-2V6h-1v1h-1V3h6z"/><path d="M3 3h2v1H3zm10 5h1v2h-1zm9-3h1v2h-1zM5 10H3v1H1V9h1V8H1V7h4z"/></g><path d="M21 3h2v1h-2zM1 5h1v1H1zm5-2h2v2H6zm12 0v1h1v2h-3V5h-3V3zM1 9h2v2H1zm15 1V9h2v3h-1v-1h-3v-1zm5 1h2v1h-2zm-8-5h1v1h-1zM7 7h1v1h3v2H6V6h1zM4 8h1v1H4zm18-2h1v1h-1z" fill="#cab983"/></svg>