<svg xmlns="http://www.w3.org/2000/svg" viewBox="0 0 34 14"  xmlns:v="https://vecta.io/nano"><path d="M0 0v14h4v-2H1V7h2V6H1V3h2v3h1V3h12v7h-2v2h6v-2h-3V8h1V7h-1V3h1v4h1V3h11v3h1V3h2v3h-2v1h2v5h-3v2h4V0H0zm9 2H1V1h8v1zm7 0h-6V1h6v1zm1 0V1h1v1h-1zm7 0h-5V1h5v1zm9 0h-8V1h8v1z"/><path d="M9,12h5v2H9V12z"/><path d="M4 10h5v2H4v-2zm16 2h5v2h-5v-2z"/><path d="M25,10h5v2h-5V10z"/><g fill="#cab983"><path d="M14 6V5h-2v1h2zm0 2v1h-1v2h-2v1h3v-2h2V8h-2zm-3 2V7H8V6H7V5H6V4H5v1H4v1h1v1H4v1h3v2h1V9h2v1h1zM2 9H1v3h2v-2H2V9zm15-3h1v1h-1V6zm2 0h1v1h-1V6zm11 4v2h2v-2h-2zm2-5h1v1h-1V5z"/><path d="M18 8h-1v2h2V7h-1v1zm13-1V6h-2v1h2z"/></g><path d="M16 2V1h-6v1h6zm8 0V1h-5v1h5zM9 2V1H1v1h8zm24 0V1h-8v1h8z" fill="#66553b"/><path d="M26 6h-1v1h-3v1h2v2h2V7h1V5h-1v1zm-3-3v2h-1v1h2V4h3V3h-4z" fill="#cab983"/><g fill="#66553b"><path d="M15 4h-2v1h1v1h-2V5h-1V4H9v1H8v2h3v1h2V7h1v1h2V6h-1V4zM1 5v1h2V5H1zm7 4v1h2V9H8zM2 7H1v2h1v1h1V8H2V7zm27 0V6h1V5h-1V4h1V3h-2v2h-1v2h2zm-3-2h-1V4h-1v2h-2V5h1V3h-3v1h-1v1h2v3h1V7h3V6h1V5zm0 4v1h4V9h-4z"/><path d="M31 7v1h-1v1h2V8h1V7h-2zm-5 0h1v1h-1V7zm-4 3h1v1h1V8h-2v2zm-2 1v1h2v-1h-2zm0-3h-1v2h1V8zM4 3h1v1H4V3z"/></g><path d="M17,1h1v1h-1V1z" fill="#cab983"/><g fill="#51774e"><path d="M5 3v1h1v1h1v1h1V5h1V4h2v1h2V4h2v2h1V3H5zM3 5V3H1v2h2zm10 3h-2v2H9v2h2v-1h2V9h1V7h-1v1zM4 8V7h1V6H3v1H2v1h1v4h1v-2h3V8H4zm24-3V3h-1v1h-2v1h3zm-9-2h1v1h-1V3zm-2 3h1V3h-1v3zm14 2V7h-4v1h-1v1h4V8h1z"/><path d="M31 3v3h1V5h1V3h-2zm-7 8h-1v-1h-1V8h-1V5h-2v1h1v1h-1v1h1v3h2v1h3v-2h-1v1zM4 4h1v1H4V4zm25 0h1v1h-1V4zm3 5h-2v1h2v2h1V8h-1v1z"/></g></svg>