<svg xmlns="http://www.w3.org/2000/svg" viewBox="0 0 34 14"><path d="M34 14h-4v-2h-5v2h-5v-2h-6v2H9v-2H4v2H0V0h34z"/><g fill="#51774e"><path d="M1 3v9h3v-2h5v2h5v-2h1V3H1zm3 6V8H3V4h7v4H9v1H4z"/><path d="M4 5h5v3H4zm15-2v7h1v2h5v-2h5v2h3V3H19zm6 6V8h-1V4h7v4h-1v1h-5z"/><path d="M25 5h5v3h-5zm-9-2h2v7h-2z"/></g><g fill="#66553b"><path d="M10 1h14v1H10zM1 1h8v1H1zm24 0h8v1h-8zM13 4v1h1v1h-2V5h-1V4h-1v3h1v1h2V7h1v1h1V4zM8 5h1v2H8zM1 5h2v1H1zm7 4h2v1H8zM2 7H1v2h1v1h1V8H2zm27 0V6h1V5h-3v2zm-4-2h1v1h-1zm-3 1V5h1V3h-3v1h-1v1h2v3h1V7h2V6zm4 3h4v1h-4z"/><path d="M31 7v1h-1v1h2V8h1V7zm-5 0h1v1h-1zM16 4h1v1h-1zm0 2h1v4h-1zm6 4h1v1h1V8h-2zm-2 1h2v1h-2zm-1-3h1v2h-1zM4 3h1v1H4zm24 0h2v1h-2z"/></g><g fill="#cab983"><path d="M12 5h2v1h-2zm2 4h-1v2h-2v1h3v-2h1V8h-1zm-3 1V7h-1v1H9v1h1v1z"/><path d="M8 7V6H7V5H4v1h1v1H4v1h5V7zM7 9h1v1H7zM2 9H1v3h2v-2H2zM1 6h2v1H1zm28 0h1v1h-1zM19 6h1v1h-1zm11 4h2v2h-2zm2-5v1h-1v1h2V5zm-2-2h1v1h-1zM3 3h1v1H3zm21 7h2V9h-1V8h-1z"/><path d="M22 7h2v1h-2zm-6-4h1v1h-1zm0 2h1v1h-1zm1 2h1v1h-1zm0 2h1v1h-1zm9-3h-1v2h1V7h1V5h-1zm-3-3v2h-1v1h2V4h3V3z"/></g></svg>