<svg xmlns="http://www.w3.org/2000/svg" viewBox="0 0 36 19"><path d="M35 14v-1h-1v-1h-1v-1h-1v-1h-1V9h-1V8h-1V7h-1V6h-3V5h-2V4h-1V3h-1V2h-1V1h-1V0h-2v1h-1v1h-1v1h-1v1h-1v1h-2v1H9V4H7V2H1v2h2v4h2v2H4v1H3v1H2v1H1v1H0v5h36v-5h-1z" fill="#321227"/><path d="M34 14v-1h-1v-1h-1v-1h-1v-1h-1V9h-1V8h-1V7h-3V6h-2V5h-1V4h-1V3h-1V2h-1V1h-2v1h-1v1h-1v1h-1v1h-1v1h-2v1H8v1H7v1H6v1H5v1H4v1H3v1H2v1h32zM1 15v3h34v-3H1z" fill="#376560"/><path d="M7 4V2H1v2h2v4h2v1h1V8h1V7h1V6h1V4H7z" fill="#960000"/><path d="M32 13v-1h-1v-1h-1v-1h-1V9h-1V8h-3V7h-2V6h-1V5h-1V4h-1V3h-1V2h-2v1h-1v1h-1v1h-1v1h-1v1h-2v1H8v1H7v1H6v1H5v1H4v1h28zM2 15v3h32v-3H2z" fill="#6ca958"/><path d="M7 6V4H5v4h2V7h1V6H7z" fill="red"/></svg>