<svg xmlns="http://www.w3.org/2000/svg" viewBox="0 0 35 38"><path d="M8 4V3H7V2H6V1H5V0H1v1H0v4h1v1H0v2h1v1h1v1h1v1h1v1h1v1h1v1h1v1h1v1H7v6h1v1H7v1H6v1H5v1H4v2h1v1H4v1H3v1H2v1H1v4h1v1h4v-1h1v-1h1v-2h1V4H8z" fill="gold"/><g fill="#ffee94"><path d="M7 11H6v-1H5V9H4V8H3V7H2V6H1v2h1v1h1v1h1v1h1v1h1v1h1v1h1v1h1v-2H8v-1H7v-1zm1 6v5h1v-6H8v1z"/><path d="M8 5V4H7V3H6V2H5V1H1v4h1v1h1v1h1v1h1v1h1v1h1v1h1v1h1V5H8zM7 27v1H6v1H5v1H4v1H3v1H2v4h4v-1h1v-1h1v-1h1v-7H8v1H7z"/><path d="M8 24H7v1H6v1H5v2h1v-1h1v-1h1v-1h1v-2H8v1z"/></g><g fill="#fff7cd"><path d="M2 7h1v1H2z"/><path d="M3 8h1v1H3z"/><path d="M4 9h1v1H4z"/><path d="M5 10h1v1H5z"/><path d="M6 11h1v1H6z"/><path d="M7 12h1v1H7z"/><path d="M8 13h1v1H8zm0 5v3h1v-4H8v1zM8 7V6H7V5H6V4H5V3H4V2H2v2h1v1h1v1h1v1h1v1h1v1h1v1h1V7H8zm0 22H7v1H6v1H5v1H4v1H3v2h2v-1h1v-1h1v-1h1v-1h1v-3H8v1zm-2-3h1v1H6z"/><path d="M7 25h1v1H7z"/><path d="M8 24h1v1H8z"/></g><g fill="#fffffd"><path d="M8 20h1v-2H8v2zM3 3h1v1H3z"/><path d="M4 4h1v1H4z"/><path d="M5 5h1v1H5z"/><path d="M6 6h1v1H6z"/><path d="M7 7h1v1H7z"/><path d="M8 8h1v1H8zM4 33h1v1H4z"/><path d="M5 32h1v1H5z"/><path d="M6 31h1v1H6z"/><path d="M7 30h1v1H7z"/><path d="M8 29h1v1H8z"/></g><path d="M34 36v-3h-1V20h-7v1h-2v1H9v11H8v3H7v2h5v-2h3v2h4v-2h4v2h4v-2h3v2h5v-2h-1z" fill="#0b433d"/><g fill="#376560"><path d="M20 25h1v1h-1zm0-2h1v1h-1z"/><path d="M26 21v1h-2v1h-2v1h-1v1h1v1h-1v1h1v1h11v-7h-7z"/><path d="M20 27h1v1h-1zm-8-4v1h-1v1h1v1h-1v1h1v1h7v-5h-7z"/><path d="M10 27h1v1h-1zm0-4h1v1h-1zm0 2h1v1h-1z"/></g><path d="M33 33v-4h-1v7h2v-3h-1zM9 33H8v3h2v-7H9v4zm14-4v7h2v-7h-2zm6 0v5h1v2h1v-7h-2zm-3 0v7h1v-2h1v-5h-2zm-9 0v7h2v-7h-2zm3 0v5h2v-5h-2zm-6 0v5h1v2h1v-7h-2zm-3 0v7h1v-2h1v-5h-2z" fill="#6ca958"/></svg>