<svg xmlns="http://www.w3.org/2000/svg" viewBox="0 0 35 38"><path d="M27 4V3h1V2h1V1h1V0h4v1h1v4h-1v1h1v2h-1v1h-1v1h-1v1h-1v1h-1v1h-1v1h-1v1h-1v1h1v6h-1v1h1v1h1v1h1v1h1v2h-1v1h1v1h1v1h1v1h1v4h-1v1h-4v-1h-1v-1h-1v-2h-1V4h1z" fill="gold"/><g fill="#ffee94"><path d="M28 11h1v-1h1V9h1V8h1V7h1V6h1v2h-1v1h-1v1h-1v1h-1v1h-1v1h-1v1h-1v1h-1v-2h1v-1h1v-1zm-1 6v5h-1v-6h1v1z"/><path d="M27 5V4h1V3h1V2h1V1h4v4h-1v1h-1v1h-1v1h-1v1h-1v1h-1v1h-1v1h-1V5h1zm1 22v1h1v1h1v1h1v1h1v1h1v4h-4v-1h-1v-1h-1v-1h-1v-7h1v1h1z"/><path d="M27 24h1v1h1v1h1v2h-1v-1h-1v-1h-1v-1h-1v-2h1v1z"/></g><g fill="#fff7cd"><path d="M32 7h1v1h-1z"/><path d="M31 8h1v1h-1z"/><path d="M30 9h1v1h-1z"/><path d="M29 10h1v1h-1z"/><path d="M28 11h1v1h-1z"/><path d="M27 12h1v1h-1z"/><path d="M26 13h1v1h-1zm1 5v3h-1v-4h1v1zm0-11V6h1V5h1V4h1V3h1V2h2v2h-1v1h-1v1h-1v1h-1v1h-1v1h-1v1h-1V7h1zm0 22h1v1h1v1h1v1h1v1h1v2h-2v-1h-1v-1h-1v-1h-1v-1h-1v-3h1v1zm1-3h1v1h-1z"/><path d="M27 25h1v1h-1z"/><path d="M26 24h1v1h-1z"/></g><g fill="#fffffd"><path d="M27 20h-1v-2h1v2zm4-17h1v1h-1z"/><path d="M30 4h1v1h-1z"/><path d="M29 5h1v1h-1z"/><path d="M28 6h1v1h-1z"/><path d="M27 7h1v1h-1z"/><path d="M26 8h1v1h-1zm4 25h1v1h-1z"/><path d="M29 32h1v1h-1z"/><path d="M28 31h1v1h-1z"/><path d="M27 30h1v1h-1z"/><path d="M26 29h1v1h-1z"/></g><path d="M1 36v-3h1V20h7v1h2v1h15v11h1v3h1v2h-5v-2h-3v2h-4v-2h-4v2H8v-2H5v2H0v-2h1z" fill="#0b433d"/><g fill="#376560"><path d="M14 25h1v1h-1zm0-2h1v1h-1z"/><path d="M9 21v1h2v1h2v1h1v1h-1v1h1v1h-1v1H2v-7h7z"/><path d="M14 27h1v1h-1zm9-4v1h1v1h-1v1h1v1h-1v1h-7v-5h7z"/><path d="M24 27h1v1h-1zm0-4h1v1h-1zm0 2h1v1h-1z"/></g><path d="M2 33v-4h1v7H1v-3h1zm24 0h1v3h-2v-7h1v4zm-14-4v7h-2v-7h2zm-6 0v5H5v2H4v-7h2zm3 0v7H8v-2H7v-5h2zm9 0v7h-2v-7h2zm-3 0v5h-2v-5h2zm6 0v5h-1v2h-1v-7h2zm3 0v7h-1v-2h-1v-5h2z" fill="#6ca958"/></svg>