<svg xmlns="http://www.w3.org/2000/svg" viewBox="0 0 31 29"><path d="M30 10V9h-2V8h-2V7h-1V6h-2V5h3V4h-2V3h-2V2h-1V1h-1V0h-6v1h-3v1h-1v1H9v3H5v2H3v2H1v1H0v2h1v1h1v1h1v1h1v1h1v1h1v1h1v1h1v1h1v1h1v1h1v1h1v4h-1v1h3v-1h1v-1h1v-1h1v1h1v1h1v1h7v-1h-1v-2h-1V13h4v-1h2v-1h1v-1h-1z" fill="#460000"/><path d="M12 5V4h-1V3H9v2h1v1h1v1h2V5h-1z" fill="#376560"/><g fill="#731900"><path d="M24 10V9h-3v1h2v1h3v1h4v-1h-3v-1h-3zm-9-7V2h4v1h2v1h3V3h-2V2h-2V1h-6v1h-2v1h-1v1h2V3h2z"/><path d="M23 12v1h3v-1h-3zM9 5h1v1H9zm7 0V4h2v1h2v1h3V5h-2V4h-2V3h-4v1h-2v2h1V5h2z"/><path d="M15 8V7h2V6h1V5h-2v1h-2v1h-1v1h2z"/><path d="M18 6v1h-1v1h2V7h1V6h-2z"/><path d="M17 9V8h-2v1h2z"/><path d="M19 10V9h-2v1h2z"/><path d="M19 8v1h2V8h3v1h3v1h3V9h-2V8h-2V7h-6v1h-1zm0 2v1h2v-1h-2z"/><path d="M21 11v1h2v-1h-2z"/><path d="M21 13v-1h-2v-1h-2v-1h-2V9h-2V8h-2V7H9V6H7v1h1v1h2v1h2v1h2v1h2v1h2v1h2v1h2v1h2v-1h-1v-1h-2z"/><path d="M20 15v-1h-2v-1h-2v-1h-2v-1h-2v-1h-2V9H8V8H7V7H6V6H5v2h1v1h1v1h2v1h2v1h2v1h2v1h2v1h2v1h2v1h2v1h1v-2h-2v-1h-2z"/><path d="M21 18v-1h-2v-1h-2v-1h-2v-1h-2v-1h-2v-1H9v-1H7v-1H6V9H5V8H3v1h1v1h1v1h1v1h2v1h2v1h2v1h2v1h2v1h2v1h2v1h2v1h2v-1h-1v-1h-2zm-11 4h1v1h-1z"/><path d="M20 25v-1h-2v-1h-2v-1h-2v-1h-2v-1h-2v-1H8v-1H6v1h1v1h2v1h2v1h2v1h2v1h2v1h2v1h2v1h2v1h1v1h1v-2h-1v-1h-2v-1h-2z"/><path d="M21 28v-1h-2v-1h-2v1h1v1h1v1h4v-1h-2z"/><path d="M16 25h-1v-1h-2v-1h-2v1h1v1h2v1h3v-1h-1zm5-2v-1h-2v-1h-2v-1h-2v-1h-2v-1h-2v-1H9v-1H7v-1H5v-1H4v-1H3v-1H2v-1H0v1h1v1h1v1h1v1h1v1h2v1h2v1h2v1h2v1h2v1h2v1h2v1h2v1h2v1h2v-1h-1v-1h-2z"/><path d="M20 20v-1h-2v-1h-2v-1h-2v-1h-2v-1h-2v-1H8v-1H6v-1H5v-1H4v-1H2v1h1v1h1v1h1v1h2v1h2v1h2v1h2v1h2v1h2v1h2v1h2v1h2v1h1v-2h-2v-1h-2zM5 17h1v1H5zm7 9v1h1v1h2v-1h-1v-1h-2z"/><path d="M11 28v1h2v-1h-2z"/></g><g fill="#ff0"><path d="M10 4h1v1h-1z"/><path d="M11 5h1v1h-1z"/></g><g fill="#6ca958"><path d="M10 3h1v1h-1z"/><path d="M9 4h1v1H9zm3 1h1v1h-1z"/><path d="M11 6h1v1h-1z"/></g></svg>