<svg xmlns="http://www.w3.org/2000/svg" viewBox="0 0 25 33"><path d="M1 16v-2h1v-2h2v-2h2V8h4V4h2V2h2V0h6v2h-2v4h-2v2h4v2h2v2h2v2h1v19h-5v-5h-2v2H0V16h1z" fill="#333"/><path d="M0 16v12h18v-2h-2v-2h2v-2h-5v-2H9v-2H5v-2H0zm9 6h2v5H9v-5zm-6-2h2v7H3v-7z" fill="#bfbfbf"/><path d="M6 12v-2h4V8h6v2h4v2h2v2h2v2h-2v1h2v1h-2v1h2v1h-2v1h2v1h-2v1h2v1h-2v1h2v1h-2v1h2v1h-2v1h2v1h-2v1h2v1h-3v-4h-1v-6h-2v-2h-5v-2H9v-2H5v-2H4v-2h2z" fill="gray"/><path d="M12 4V2h2V0h6v2h-2v4h-2v2h-6V4h2z" fill="#9600bd"/><path d="M14 4V2h2v4h-4V4h2z" fill="#f0f"/></svg>