<svg xmlns="http://www.w3.org/2000/svg" viewBox="0 0 38 30"><path d="M36 22v-8h-2v-2h-2v-2h-4V8h-4V6h2V2h2V0h-6v2h-2v2h-2v2h-4v2h-4v2H6v2H4v2H2v8H0v6h2v2h34v-2h2v-6h-2z" fill="#333"/><path d="M32 22v-2h-4v-2h-4v-2h-4v-2h-2v2h-4v2h-4v2H6v2H2v2h2v2H2v2h34v-2h-2v-2h2v-2h-4zM8 27v-5h2v5H8zm6 0v-7h2v7h-2zm8 0v-7h2v7h-2zm6 0v-5h2v5h-2z" fill="#bfbfbf"/><path d="M32 14v-2h-4v-2h-4V8H14v2h-4v2H6v2H4v6h2v-2h4v-2h4v-2h4v-2h2v2h4v2h4v2h4v2h2v-6h-2z" fill="gray"/><path d="M22 0v2h-2v2h-2v4h6V6h2V2h2V0h-6z" fill="#9600bd"/><path d="M22 2v2h-2v2h4V2h-2z" fill="#f0f"/></svg>