<svg xmlns="http://www.w3.org/2000/svg" viewBox="0 0 25 33"><path d="M24 16v-2h-1v-2h-2v-2h-2V8h-4V4h-2V2h-2V0H5v2h2v4h2v2H5v2H3v2H1v2H0v19h5v-5h2v2h18V16h-1z" fill="#333"/><path d="M20 16v2h-4v2h-4v2H7v2h2v2H7v2h18V16h-5zm-4 11h-2v-5h2v5zm6 0h-2v-7h2v7z" fill="#bfbfbf"/><path d="M19 12v-2h-4V8H9v2H5v2H3v2H1v2h2v1H1v1h2v1H1v1h2v1H1v1h2v1H1v1h2v1H1v1h2v1H1v1h2v1H1v1h2v1H1v1h3v-4h1v-6h2v-2h5v-2h4v-2h4v-2h1v-2h-2z" fill="gray"/><path d="M13 4V2h-2V0H5v2h2v4h2v2h6V4h-2z" fill="#9600bd"/><path d="M11 4V2H9v4h4V4h-2z" fill="#f0f"/></svg>