<svg xmlns="http://www.w3.org/2000/svg" viewBox="0 0 31 40"><path d="M26 0v2H16V0h-4v2h2v2h-2v2h-2v2H8v2H6V8H4v4h2v6H4v4H2v4H0v2h6v4h11v2h2v2h2v2h2v2h8V24H20v-2h11V0h-5z"/><path d="M21 18v1h-1v3h-2v2h2v3h1v1h10V18H21zm7 6h-1v-2h1v2zm-5-2h1v2h-1v-2zm3 2h-1v-2h1v2zm-5-2h1v2h-1v-2zm9 2h-1v-2h1v2z" fill="#b4b4b4"/><g fill="#f5f5f5"><path d="M28 5h1v1h-1z"/><path d="M29 4h1v1h-1zm-2 2h1v1h-1z"/><path d="M30 3h1v1h-1zm-3 4h-1v4h1V7zm3 7h1v1h-1zm-2-2h1v1h-1z"/><path d="M29 13h1v1h-1zm-2-2h1v1h-1z"/></g><g fill="#666"><path d="M8 28v2h7v-2H8zm10-16v-2h-2V8h-2V6h-2v2h-2v4h8z"/><path d="M26 2v2H16v2h2v2h2v2h5V7h1V6h1V5h1V4h1V3h1V2h-4zM10 12H8v2h2v-2z"/><path d="M29 14H10v2H8v2H6v4H4v4H2v1h13V16h15v-1h-1v-1z"/></g><g fill="#b4b4b4"><path d="M23 29v1h1v2h1v1h1v-3h3v2h1v1h1v-4h-8z"/><path d="M22 31v2h1v-3h-1v1z"/><path d="M23 33h1v1h-1z"/><path d="M24 34h1v1h-1z"/><path d="M30 36v-1h-1v-2h-1v-2h-1v4h-2v1h5z"/><path d="M30 36h1v1h-1z"/></g><path d="M24 30v2h1v1h1v-3h-2zm5 0v2h1v1h1v-3h-2zm-1 1h-1v4h2v-2h-1v-2z" fill="#fff"/><path d="M28 24h1v-2h-1v2zm2-2v2h1v-2h-1zm-4 2h1v-2h-1v2zm-2 0h1v-2h-1v2zm-2 0h1v-2h-1v2zm-2 0h1v-2h-1v2z" fill="#51ffa8"/><g fill="#666"><path d="M20 19v1h11v-1H20zm0 2v1h11v-1H20zm11 4v-1H20v1h11z"/><path d="M18 22v2h2v-2h-2zm2 4v1h11v-1H20z"/></g><path d="M25 11v-1h-5V8h-2V6h-2V0h-4v2h2v6h2v2h2v2h8v-1h-1z" fill="#51ffa8"/><path d="M16 7h-2v1h2V7zm2 2h-2v1h2V9zm0 2v1h8v-1h-8zM14 1h-2v1h2V1z" fill="#00d280"/><path d="M30 5v1h-1v1h-1v4h1v1h1v1h1V5h-1z" fill="#e1fff0"/><path d="M28 9v2h1v1h1v1h1V9h-3z" fill="#51ffa8"/><g fill="#d2d2d2"><path d="M27 9h-1v2h1V9zm3 5h1v1h-1zm-2-2h1v1h-1z"/><path d="M29 13h1v1h-1zm-2-2h1v1h-1z"/></g><path d="M8 28v1h7v-1H8zm0-12v1h7v-1H8zm-2 2v1h9v-1H6zm-2 4v1h11v-1H4zM26 2v1h4V2h-4zM10 13v-1H8v1h2zm0 1v1h19v-1H10zm4-7V6h-2v1h2zm0 2h2V8h-2v1zm12-4V4H16v1h10zm-6 4v1h5V9h-5zm-8 0V8h-2v1h2zm4 1v1h2v-1h-2z" fill="#464646"/></svg>