<svg xmlns="http://www.w3.org/2000/svg" viewBox="0 0 46 40"><path d="M44 26v-4h-2v-4h-2v-6h2V8h-2v2h-2V8h2V2h2V0h-4v6h-4V4h-2V2h-4V0H18v2h-4v2h-2v2H8V0H4v2h2v6h2v2H6V8H4v4h2v6H4v4H2v4H0v2h6v4h2v2h2v2h2v2h2v2h8v-1h2v1h8v-2h2v-2h2v-2h2v-2h2v-4h6v-2h-2zm-8-2H10v-2h26v2z"/><g fill="#666"><path d="M36 14H25v1h-1v1h12v-2z"/><path d="M38 16h-2v2h2v-2z"/><path d="M40 20v-2h-2v4h2v-2z"/><path d="M42 26v-4h-2v5h4v-1h-2zm-4-12v-2h-2v2h2zM8 16v2h2v-2H8zm2-4H8v2h2v-2z"/><path d="M21 14H10v2h12v-1h-1v-1zM6 18v4h2v-4H6z"/><path d="M4 22v4H2v1h4v-5H4z"/></g><path d="M25 7V6h-1V5h-2v1h-1v1h-1v4h1v1h1v1h2v-1h1v-1h1V7h-1z" fill="#51ffa8"/><g fill="#b4b4b4"><path d="M13 30h-1v3h1v-3z"/><path d="M14 31v1h1v1h1v-3h3v2h1v1h1v-3h1v3h2v-3h1v3h1v-1h1v-2h3v3h1v-1h1v-2h1v-1H13v1h1v1z"/><path d="M33 30v3h1v-3h-1zm-20 3h1v1h-1z"/><path d="M14 34h1v1h-1z"/><path d="M19 35v-2h-1v-2h-1v4h-2v1h5v-1h-1zm2-1h1v1h-1zm3 0h1v1h-1zm7 0h1v1h-1z"/><path d="M24 36v-1h-2v1h-2v1h6v-1h-2z"/><path d="M29 35v-4h-1v2h-1v2h-1v1h5v-1h-2zm3-2h1v1h-1z"/></g><g fill="#51ffa8"><path d="M21 34h1v1h-1z"/><path d="M22 35v1h2v-1h-2z"/><path d="M24 34h1v1h-1z"/></g><path d="M14 30v2h1v1h1v-3h-2zm5 0v2h1v1h1v-3h-2zm3 0v3h2v-3h-2zm5 0h-2v3h1v-1h1v-2zm3 0v3h1v-1h1v-2h-2zm-12 1h-1v4h2v-2h-1v-2zm10 2h-1v2h2v-4h-1v2z" fill="#fff"/><path d="M36 22v-3h-1v-1H11v1h-1v3H8v2h2v3h1v1h24v-1h1v-3h2v-2h-2zm-3 2h-1v-2h1v2zm-20-2h1v2h-1v-2zm18 2h-1v-2h1v2zm-16-2h1v2h-1v-2zm14 2h-1v-2h1v2zm-12-2h1v2h-1v-2zm2 0h1v2h-1v-2zm2 0h1v2h-1v-2zm3 0h1v2h-1v-2zm2 0h1v2h-1v-2zm-15 0h1v2h-1v-2zm23 2v-2h1v2h-1z" fill="#b4b4b4"/><path d="M35 22v2h1v-2h-1zm-2 2h1v-2h-1v2zm-2 0h1v-2h-1v2zm-2 0h1v-2h-1v2zm-2 0h1v-2h-1v2zm-9 0h1v-2h-1v2zm2 0h1v-2h-1v2zm2-2v2h2v-2h-2zm3 2h1v-2h-1v2zm-9 0h1v-2h-1v2zm-2 0h1v-2h-1v2zm-2 0h1v-2h-1v2zm-2 0h1v-2h-1v2z" fill="#51ffa8"/><g fill="#666"><path d="M36 22v2h2v-2h-2zm-26 0H8v2h2v-2z"/><path d="M36 20v-1H10v1h26zm0 2v-1H10v1h26zm-26 2v1h26v-1H10zm0 2v1h26v-1H10z"/></g><path d="M36 14H25v1h11v-1zm2 2h-2v1h2v-1zm2 2h-2v1h2v-1zm0 4v1h2v-1h-2zm-2-9v-1h-2v1h2zM8 16v1h2v-1H8zm2-3v-1H8v1h2zm0 1v1h11v-1H10zm-4 4v1h2v-1H6zm-2 4v1h2v-1H4z" fill="#464646"/><path d="M38 0v6h-2v2h-2v2h-5v1h-1v1h8v-2h2V8h2V2h2V0h-4z" fill="#51ffa8"/><path d="M36 9v1h2V9h-2zm-8 2v1h8v-1h-8zm10-4v1h2V7h-2zm2-6v1h2V1h-2z" fill="#00d280"/><path d="M17 11v-1h-5V8h-2V6H8V0H4v2h2v6h2v2h2v2h8v-1h-1z" fill="#51ffa8"/><path d="M10 9H8v1h2V9zm0 2v1h8v-1h-8zM8 7H6v1h2V7zM6 1H4v1h2V1z" fill="#00d280"/><path d="M32 6V4h-4V2h-4v1h1v1h1v1h1v1h1v1h1v3h5V6h-2zM18 2v2h-4v2h-2v4h5V7h1V6h1V5h1V4h1V3h1V2h-4z" fill="#464646"/><path d="M32 7V5h-4V3h-3v1h1v1h1v1h1v1h1v2h5V7h-2zM18 3v2h-4v2h-2v2h5V7h1V6h1V5h1V4h1V3h-3z" fill="#666"/><g fill="#b4b4b4"><path d="M20 5h1v1h-1z"/><path d="M21 4h1v1h-1zm3 0h1v1h-1z"/><path d="M25 5h1v1h-1zm-6 1h1v1h-1z"/><path d="M19 7h-1v4h1V7zm7-1h1v1h-1z"/><path d="M27 7v4h1V7h-1zm-3-3V3h-2v1h2zm0 9h1v1h-1z"/><path d="M25 12h1v1h-1zm-3 2v1h2v-1h-2zm-2-2h1v1h-1z"/><path d="M21 13h1v1h-1zm-2-2h1v1h-1zm7 0h1v1h-1z"/></g><g fill="#d2d2d2"><path d="M24 4h1v1h-1z"/><path d="M25 5h1v1h-1z"/><path d="M26 6h1v1h-1z"/><path d="M27 7v2h1V7h-1zm-4-4h1v1h-1z"/></g><g fill="#f5f5f5"><path d="M20 5h1v1h-1z"/><path d="M21 4h1v1h-1zm-3 5h1V7h-1v2z"/><path d="M19 6h1v1h-1zm3-3h1v1h-1z"/></g><g fill="#d2d2d2"><path d="M19 9h-1v2h1V9zm3 5h1v1h-1zm-2-2h1v1h-1z"/><path d="M21 13h1v1h-1zm-2-2h1v1h-1z"/></g><path d="M22 5v1h-1v1h-1v2h3V5h-1z" fill="#e1fff0"/><path d="M23 9v4h1v-1h1v-1h1V9h-3z" fill="#00d280"/></svg>