<svg xmlns="http://www.w3.org/2000/svg" viewBox="0 0 44 23"><path d="M37 0v1H7V0H5v23h4v-2h5v2h5v-2h6v2h5v-2h5v2h4V0h-2z"/><path d="M19 12h1v1h-1zm9 2v5h9v-5h-9zm4-2h1v1h-1zm-2 0h1v1h-1zm-4 0h1v1h-1zm1-2v1h10v-1H27zm1 2h1v1h-1zm-3 2h-8v5h10v-5h-2zm-1-2h1v1h-1zm-7-2H7v1h10v-1zm-6 2h1v1h-1zm2 0h1v1h-1zm4 0h1v1h-1zm-2 0h1v1h-1zm-8 2v5h9v-5H7zm20-6v1h10V8H27zM17 9V8H7v1h10zm10-3v1h10V6H27zM17 7V6H7v1h10zm10-3v1h10V4H27zm-9 1v6h1v-1h1v1h1v-1h2v1h1v-1h1v1h1V4h-1V3h-1V2h-4v1h-1v1h-1v1zm-1 0V4H7v1h10zm9-3v1h11V2H26zm-8 1V2H7v1h11z" fill="#51ffa8"/><path d="M35 14v5h2v-5h-2zm0-4v1h2v-1h-2zM7 14v5h2v-5H7zm2-3v-1H7v1h2zm26-3v1h2V8h-2zM9 9V8H7v1h2zm26-3v1h2V6h-2zM9 7V6H7v1h2zm26-3v1h2V4h-2zM9 5V4H7v1h2zm26-3v1h2V2h-2zM9 3V2H7v1h2z" fill="#c3ffe1"/><path d="M36 19h1v-5h-1v5zm0-9h1v1h-1zM7 19h1v-5H7v5zm0-9h1v1H7zm29-2h1v1h-1zM7 8h1v1H7zm29-2h1v1h-1zM7 6h1v1H7zm29-2h1v1h-1zM7 4h1v1H7zm29-2h1v1h-1zM7 2h1v1H7zm14 10v1h2v-1h-2z" fill="#fff"/><path d="M9 12h1v1H9z" fill="#c3ffe1"/><path d="M7 12h1v1H7z" fill="#fff"/><path d="M34 12h1v1h-1z" fill="#c3ffe1"/><path d="M36 12h1v1h-1z" fill="#fff"/></svg>