<svg xmlns="http://www.w3.org/2000/svg" viewBox="0 0 44 23"><path d="M37 0v1h-1v1h-1v1h-1v1h-1v1h-1v1h-1v1h-3v1h-4v1h-1v1h-2V9h-1V8h-4V7h-3V6h-1V5h-1V4h-1V3H9V2H8V1H7V0H5v23h4v-2h5v2h5v-2h6v2h5v-2h5v2h4V0h-2z"/><path d="M21 13h2v-1h-2v1zm-1-2h1v-1h-1V9h-1v4h1v-2zm6 0h1V9h-1v2zm10 1h1v1h-1zm-2 0h1v1h-1zm-6 2v5h9v-5h-9zm4-2h1v1h-1zm-2 0h1v1h-1zm-4 0h1v1h-1zm8-8v1h3V4h-3zm-2 2v1h5V6h-5zm-4 2v1h9V8h-9zm0 2v1h9v-1h-9zm8-8h1v1h-1zm-8 10h1v1h-1zm-11 2v5h10v-5H17zm7-1h1V9h-1v1h-1v1h1v2zm-6-4h-1v2h1V9zM7 8v1h9V8H7zm0 4h1v1H7zm2 0h1v1H9zm2 0h1v1h-1zm2 0h1v1h-1zm-6-2v1h9v-1H7zm10 2h1v1h-1zm-7-7V4H7v1h3zm2 2V6H7v1h5zM7 2h1v1H7zm8 10h1v1h-1zm-8 2v5h9v-5H7z" fill="#51ffa8"/><path d="M21 12v1h2v-1h-2zm5-2v1h1V9h-1v1zm10 2h1v1h-1zm-2 0h1v1h-1zm1 2v5h2v-5h-2zm0-10v1h2V4h-2zm0 2v1h2V6h-2zm0 2v1h2V8h-2zm0 2v1h2v-1h-2zm1-8h1v1h-1zm-19 9h1V9h-1v2zM7 12h1v1H7zm0 2v5h2v-5H7zm2-2h1v1H9zm0-7V4H7v1h2zm0 2V6H7v1h2zm0 2V8H7v1h2zm0 2v-1H7v1h2zM7 2h1v1H7z" fill="#c3ffe1"/><path d="M21 12v1h2v-1h-2zm5-3h1v1h-1zm10 3h1v1h-1zm0 7h1v-5h-1v5zm0-15h1v1h-1zm0 2h1v1h-1zm0 2h1v1h-1zm0 2h1v1h-1zm0-8h1v1h-1zM17 9h1v1h-1zM7 12h1v1H7zm0 7h1v-5H7v5zM7 4h1v1H7zm0 2h1v1H7zm0 2h1v1H7zm0 2h1v1H7zm0-8h1v1H7z" fill="#fff"/></svg>