<svg xmlns="http://www.w3.org/2000/svg" viewBox="0 0 24 23"><path d="M2 7V6h1V5h1V4h1V3h5V2h1V1h13v22h-3v-2h-3v2h-4v-2h-4v2H6v-2H3v2H0V7h2z"/><path d="M13 8v1H0V8h13zm-8 4h1v1H5zm-2 0h1v1H3zm-2 0h1v1H1zm12 2v5H0v-5h13zM5 5V4h8v1H5zM3 7V6h10v1H3zm8 6v-1h2v1h-2zm0-10V2h2v1h-2zm2 7v1H0v-1h13zm-6 2h1v1H7zm2 0h1v1H9zm12 0h1v1h-1zm3 2v5H14v-5h10zm0-10v1H14V4h10zm0 2v1H14V6h10zm0 2v1H14V8h10zm0 2v1H14v-1h10zm-8 2v1h-2v-1h2zm8-10v1H14V2h10zm-1 10h1v1h-1zm-4 0h1v1h-1zm-2 0h1v1h-1z" fill="#51ffa8"/><path d="M13 12v1h-2v-1h2zm0 2v5h-2v-5h2zm-8-2h1v1H5zm-2 0h1v1H3zm-2 0h1v1H1zm12-8v1h-2V4h2zm0 2v1h-2V6h2zm0 2v1h-2V8h2zm0 2v1h-2v-1h2zm0-8v1h-2V2h2zM7 12h1v1H7zm2 0h1v1H9zm12 0h1v1h-1zm-5 2v5h-2v-5h2zm0-10v1h-2V4h2zm0 2v1h-2V6h2zm0 2v1h-2V8h2zm0 2v1h-2v-1h2zm0 2v1h-2v-1h2zm0-10v1h-2V2h2zm7 10h1v1h-1zm-4 0h1v1h-1zm-2 0h1v1h-1z" fill="#c3ffe1"/><path d="M12 12h1v1h-1zm1 7h-1v-5h1v5zM12 4h1v1h-1zm0 2h1v1h-1zm0 2h1v1h-1zm0 2h1v1h-1zm0-8h1v1h-1zm2 10h1v1h-1zm1 7h-1v-5h1v5zM14 4h1v1h-1zm0 2h1v1h-1zm0 2h1v1h-1zm0 2h1v1h-1zm0-8h1v1h-1z" fill="#fff"/></svg>