<svg xmlns="http://www.w3.org/2000/svg" viewBox="0 0 9 44"><path d="M7 31v1H6V0H5v1H4v1H3v30H2v-1H0v1h1v1h2v11h3V33h2v-1h1v-1H7z"/><path d="M5 0v1H4v1H3v30h3V0H5z" fill="#191919"/><path d="M4 33h1v1H4zm0 2h1v1H4zm0 2h1v1H4zm0 2h1v1H4zm0 2h1v1H4z" fill="#51ffa8"/><path d="M3 34h1v1H3zm2 0h1v1H5zm-2 2h1v1H3zm2 0h1v1H5zm-2 2h1v1H3zm2 0h1v1H5zm-2 2h1v1H3zm2 0h1v1H5z" fill="#1b4d34"/><path d="M5 0v1H4v1H3v30h3v-1H5v-1h1v-1H5v-1h1v-1H5v-1h1v-1H5v-1h1v-1H5v-1h1v-1H5v-1h1v-1H5v-1h1v-1H5v-1h1v-1H5v-1h1v-1H5v-1h1v-1H5v-1h1V9H5V8h1V7H5V6h1V5H5V4h1V3H5V2h1V0H5z" fill="#323232"/><path d="M3 2v30h1V2H3z" fill="#505050"/><path d="M3 4v26h1V4H3z" fill="#646464"/><path d="M3 6v22h1V6H3z" fill="#7d7d7d"/></svg>