<svg xmlns="http://www.w3.org/2000/svg" viewBox="0 0 40 23"  xmlns:v="https://vecta.io/nano"><g fill="#fff"><path d="M22,6v2h-1v4h1V9h1V7h2V6H22z"/><path d="M25 5v1h2V5h-2zM13 5v1h2V5h-2z"/><path d="M18,7V6h-3v1h2v2h1v3h1V8h-1V7z"/></g><g fill="#343a4c"><path d="M17 13h-1v-1h-1v-1h-1v-1h-2V9h-2V8H9V7H7V6H5V3H4v17h15v-1h-1v-1h1v-1h-1v-1h1v-1h-1v-1h-1v-1zM7 14h5v1H7v-1zm0 5v-3h5v3H7z"/><path d="M18 11V9h-1V7h-2V6h-2V5h-2V4H9V3H7V2H5v1h1v2h1v1h2v1h1v1h2v1h2v1h1v1h1v1h1v1h1v1h1v-2h-1v-1zm-5-3V7h1v1h-1z"/><path d="M4 1h1v1H4V1zm29 1v1h-2v1h-2v1h-2v1h-2v1h-2v2h-1v3h-2v3h1v-1h1v-1h1v-1h1v-1h1v-1h2V9h1V8h1V7h2V6h2V5h1V3h1V2h-2zm-7 6V7h1v1h-1z"/><path d="M35 1h1v1h-1V1zm0 5h-2v1h-2v1h-2v1h-1v1h-1v1h-2v1h-1v1h-1v1h-1v1h-1v1h-1v1h1v1h-1v2h16V3h-1v3zm-7 8h5v1h-5v-1zm0 5v-3h5v3h-5z"/></g><g fill="#141b30"><path d="M8,7h1V6H7v1H8z"/><path d="M9,7h1v1H9V7z"/><path d="M11 9h1V8h-2v1h1z"/><path d="M13 10h1V9h-2v1h1zm-1 5v-1H7v1h5zm4-3h1v1h-1v-1zm17-5V6h-2v1h2z"/><path d="M31 8V7h-2v1h2z"/><path d="M28 8h1v1h-1V8zm-1 3v-1h-2v1h2zm6 4v-1h-5v1h5zm-10-3h1v1h-1v-1z"/><path d="M27 9h1v1h-1V9zm-6 5h1v1h-1v-1z"/><path d="M22 13h1v1h-1v-1zm-5 0h1v1h-1v-1zm9-6h1v1h-1V7zm-12 3h1v1h-1v-1zm-1-3h1v1h-1V7zm-1 12v-3H7v3h5zm21 0v-3h-5v3h5zM5 5v1h2V5H6V3H5v2z"/><path d="M35 6V3h-1v2h-1v1h2zm-20 5h1v1h-1v-1zm9 0h1v1h-1v-1z"/><path d="M3 23h4v-2h5v2h5v-2h6v2h5v-2h5v2h4V1h-1v1h-1v1h1v17H20v-2h1v-1h-1v-1h1v-1h-1v-3h1V8h1V7h-4v1h1v6h-1v1h1v1h-1v1h1v1h-1v1h1v1H4V3h1V2H4V1H3v22z"/></g></svg>