<svg xmlns="http://www.w3.org/2000/svg" xmlns:xlink="http://www.w3.org/1999/xlink" viewBox="0 0 566.9 566.9"><path d="M475.5 274.3v-54.9h-18.3v-18.3h-18.3v-18.3h-18.3v-18.3h-18.3v-18.3H384V73h-18.3V54.9h-18.3V36.6h-18.3V18.3h-18.3V0h-54.9v18.3h-18.3v18.3h-18.3v18.3H201v18.3h-18.3v73.2h-18.3v18.3h-18.3V183H128v18.3h-18.3v18.3H91.4v54.9H54.8v91.4h18.3V384h18.3v18.3h18.3v73.2H128v18.3h18.3v54.9h18.3V567h237.7v-18.3h18.3v-54.9h18.3v-18.3h18.3v-73.2h18.3V384h18.3v-18.3h18.3v-91.4h-36.6z"/><path d="M164.6 493.8h237.7v54.9H164.6z" fill="#fa34f3"/><path d="M128 420.6h310.9v54.9H128z" fill="#e1924c"/><path d="M164.6 347.5h-18.3v-18.3H128v-18.3h-18.3v-18.3H73.1v73.2h18.3V384h18.3v18.3h73.2v-36.6h-18.3v-18.2zm182.9 0h-18.3v-18.3h-18.3v-18.3h-18.3v-18.3h-18.3v18.3H256v18.3h-18.3v18.3h-18.3v18.3h-18.3v36.6H256V384h18.3v-18.3h18.3V384h18.3v18.3h54.9v-36.6h-18.3v-18.2zm109.7-54.9v18.3h-18.3v18.3h-18.3v18.3h-18.3v18.3H384v18.3 18.3h18.3 54.9V384h18.3v-18.3h18.3v-73.2h-36.6z" fill="#c85a00"/><path d="M164.6 347.5h-18.3v-18.3H128v-18.3h-18.3v-18.3H73.1v54.9h18.3v18.3h18.3V384H128v18.3h54.9v-36.6h-18.3v-18.2zm182.9 0h-18.3v-18.3h-18.3v-18.3h-18.3v-18.3h-18.3v18.3H256v18.3h-18.3v18.3h-18.3v18.3h-18.3v36.6h36.6V384H256v-18.3h18.3v-18.3h18.3v18.3h18.3V384h18.3v18.3h36.6v-36.6h-18.3v-18.2zm109.7-54.9v18.3h-18.3v18.3h-18.3v18.3h-18.3v18.3H384v36.6h54.9V384h18.3v-18.3h18.3v-18.3h18.3v-54.9h-36.6z" fill="#d86f13"/><g fill="#dd8334"><path d="M164.6 347.5h-18.3v-18.3H128v-18.3h-18.3v-18.3H73.1v36.6h18.3v18.3h18.3v18.3H128V384h18.3v18.3h36.6v-36.6h-18.3v-18.2z"/><use xlink:href="#B"/><path d="M475.5 292.6h-18.3v18.3h-18.3v18.3h-18.3v18.3h-18.3v18.3H384v36.6h36.6V384h18.3v-18.3h18.3v-18.3h18.3v-18.3h18.3v-36.6h-18.3z"/></g><g fill="#e5a064"><path d="M164.6 347.5h-18.3v-18.3H128v-18.3h-18.3v-18.3H73.1v18.3h18.3v18.3h18.3v18.3H128v18.3h18.3V384h18.3v18.3h18.3v-36.6h-18.3v-18.2z"/><use xlink:href="#B"/><path d="M457.2 292.6v18.3h-18.3v18.3h-18.3v18.3h-18.3v18.3H384v36.6h18.3V384h18.3v-18.3h18.3v-18.3h18.3v-18.3h18.3v-18.3h18.3v-18.3h-36.6z"/></g><g fill="#f4d7be"><path d="M274.3 292.6h18.3v18.3h-18.3z"/><path d="M256 310.9h18.3v18.3H256z"/><path d="M237.7 329.2H256v18.3h-18.3z"/><path d="M219.5 347.5h18.3v18.3h-18.3z"/><path d="M201.2 365.8h18.3v18.3h-18.3zm-36.6 0h18.3v18.3h-18.3z"/><path d="M146.3 347.5h18.3v18.3h-18.3z"/><path d="M128 329.2h18.3v18.3H128z"/><path d="M109.7 310.9H128v18.3h-18.3z"/><path d="M91.4 292.6h18.3v18.3H91.4zm201.2 18.3h18.3v18.3h-18.3z"/><path d="M310.9 329.2h18.3v18.3h-18.3z"/><path d="M329.2 347.5h18.3v18.3h-18.3z"/><path d="M347.5 365.8h18.3v18.3h-18.3zm36.5 0h18.3v18.3H384z"/><path d="M402.3 347.5h18.3v18.3h-18.3z"/><path d="M420.6 329.2h18.3v18.3h-18.3z"/><path d="M438.9 310.9h18.3v18.3h-18.3z"/><path d="M457.2 292.6h18.3v18.3h-18.3z"/></g><g fill="#c85a00"><path d="M329.2 182.9v-18.3h18.3v-18.3h18.3V73.1h-18.3V54.9h-18.3V36.6h-18.3V18.3H256v18.3h-18.3v18.3h-18.3v18.3h-18.3v73.2h18.3v18.3h18.3V183H256v18.3h54.9V183h18.3zm-36.6-18.3v18.3h-18.3v-18.3H256v-18.3h-18.3V128h-18.3V91.4h18.3V73.2H256V54.9h18.3V36.6h18.3v18.3h18.3v18.3h18.3v18.3h18.3v36.6h-18.3v18.3h-18.3v18.3h-18.3z"/><path d="M310.9 146.3V128h18.3V91.4h-18.3V73.2h-18.3V54.9h-18.3v18.3H256v18.3h-18.3v36.6H256v18.3h18.3v18.3h18.3v-18.3h18.3zm-73.2 36.6h-18.3v-18.3h-54.9v18.3h-18.3v18.3H128v18.3h-18.3v73.2H128V311h18.3v18.3h18.3v18.3h54.9v-18.3h18.3V311H256v-18.3h18.3v-73.2H256v-18.3h-18.3v-18.3zm0 36.6v18.3H256v36.6h-18.3v18.3h-18.3V311h-18.3v18.3h-18.3V311h-18.3v-18.3h-18.3v-18.3H128v-36.6h18.3v-18.3h18.3v-18.3h18.3v-18.3h18.3v18.3h18.3v18.3h18.2z"/><path d="M201.2 201.2h-18.3v18.3h-18.3v18.3h-18.3v36.6h18.3v18.3h18.3V311h18.3v-18.3h18.3v-18.3h18.3v-36.6h-18.3v-18.3h-18.3v-18.3zm237.7 18.3v-18.3h-18.3v-18.3h-18.3v-18.3h-54.9v18.3h-18.3v18.3h-18.3v18.3h-18.3v73.2h18.3V311h18.3v18.3h18.3v18.3h54.9v-18.3h18.3V311h18.3v-18.3h18.3v-73.2h-18.3zm0 54.8h-18.3v18.3h-18.3v18.3H384v18.3h-18.3v-18.3h-18.3v-18.3h-18.3v-18.3h-18.3v-36.6h18.3v-18.3h18.3v-18.3h18.3v-18.3H384v18.3h18.3v18.3h18.3v18.3h18.3v36.6z"/><path d="M420.6 237.7h-18.3v-18.3H384v-18.3h-18.3v18.3h-18.3v18.3h-18.3v36.6h18.3v18.3h18.3v18.3H384v-18.3h18.3v-18.3h18.3v-36.6z"/></g><g fill="#d86f13"><path d="M219.5 91.4h18.3V73.2H256V54.9h18.3V36.6h18.3V18.3H256v18.3h-18.3v18.3h-18.3v18.3h-18.3v54.9h18.3l.1-36.7z"/><path d="M292.6 36.6h18.3v18.3h-18.3z"/><path d="M310.9 54.9h18.3v18.3h-18.3z"/><path d="M329.2 73.2h18.3v18.3h-18.3zm-18.3 73.1h18.3v18.3h-18.3z"/><path d="M292.6 164.6h18.3v18.3h-18.3zm54.9-36.6h18.3V91.4h-18.3V128z"/><path d="M274.3 182.9h18.3v18.3h-18.3zm54.9-54.9h18.3v18.3h-18.3z"/><path d="M256 164.6h18.3v18.3H256z"/><path d="M237.7 146.3H256v18.3h-18.3z"/><path d="M219.5 128h18.3v18.3h-18.3z"/><path d="M310.9 73.2h-18.3V54.9h-18.3v18.3H256v18.3h-18.3v36.6H256v18.3h36.6V128h18.3v-18.3h18.3V91.4h-18.3V73.2zM128 237.7h18.3v-18.3h18.3v-18.3h18.3v-18.3h18.3v-18.3h-36.6v18.3h-18.3v18.3H128v18.3h-18.3v54.9H128v-36.6zm73.2-54.8h18.3v18.3h-18.3z"/><path d="M219.5 201.2h18.3v18.3h-18.3z"/><path d="M237.7 219.5H256v18.3h-18.3z"/><path d="M256 256v18.3h18.3v-36.6H256V256zm-36.5 36.6h18.3v18.3h-18.3z"/><path d="M201.2 310.9h18.3v18.3h-18.3z"/><path d="M182.9 329.2h18.3v18.3h-18.3zm54.8-54.9H256v18.3h-18.3z"/><path d="M164.6 310.9h18.3v18.3h-18.3z"/><path d="M146.3 292.6h18.3v18.3h-18.3z"/><path d="M128 274.3h18.3v18.3H128z"/><path d="M219.5 219.5h-18.3v-18.3h-18.3v18.3h-18.3v18.3h-18.3v36.6h18.3v18.3h36.6v-18.3h18.3V256h18.3v-18.3h-18.3v-18.2zm91.4 18.2h18.3v-18.3h18.3v-18.3h18.3v-18.3H384v-18.3h-36.6v18.3h-18.3v18.3h-18.3v18.3h-18.3v54.9h18.3l.1-36.6zm73.1-54.8h18.3v18.3H384z"/><path d="M402.3 201.2h18.3v18.3h-18.3z"/><path d="M420.6 219.5h18.3v18.3h-18.3z"/><path d="M438.9 237.7v36.6h18.3v-36.6h-18.3zm-36.6 54.9h18.3v18.3h-18.3z"/><path d="M384 310.9h18.3v18.3H384z"/><path d="M365.8 329.2h18.3v18.3h-18.3zm54.8-54.9h18.3v18.3h-18.3z"/><path d="M347.5 310.9h18.3v18.3h-18.3z"/><path d="M329.2 292.6h18.3v18.3h-18.3z"/><path d="M310.9 274.3h18.3v18.3h-18.3z"/><path d="M402.3 219.5H384v-18.3h-18.3v18.3h-18.3v18.3h-18.3v36.6h18.3v18.3H384v-18.3h18.3V256h18.3v-18.3h-18.3v-18.2z"/></g><g fill="#e1924c"><path d="M201.2 73.2h18.3v18.3h-18.3zM256 18.3h18.3v18.3H256z"/><path d="M237.7 36.6H256v18.3h-18.3z"/><path d="M219.5 54.9h18.3v18.3h-18.3z"/></g><path d="M292.6 91.4h18.3V73.2h-36.6v18.3H256v18.3h-18.3V128h36.6v-18.3h18.3V91.4z" fill="#dd8334"/><g fill="#e1924c"><path d="M109.7 219.5H128v18.3h-18.3zm54.9-54.9h18.3v18.3h-18.3z"/><path d="M146.3 182.9h18.3v18.3h-18.3z"/><path d="M128 201.2h18.3v18.3H128z"/></g><path d="M182.9 219.5v18.3h-18.3V256h-18.3v18.3h36.6V256h18.3v-18.3h18.3v-18.3l-36.6.1z" fill="#dd8334"/><g fill="#e1924c"><path d="M292.6 219.5h18.3v18.3h-18.3zm54.9-54.9h18.3v18.3h-18.3z"/><path d="M329.2 182.9h18.3v18.3h-18.3z"/><path d="M310.9 201.2h18.3v18.3h-18.3z"/></g><path d="M384 219.5h-18.3v18.3h-18.3V256h-18.3v18.3h36.6V256H384v-18.3h18.3v-18.3H384z" fill="#dd8334"/><g fill="#f4d7be"><path d="M274.3 54.9h18.3v18.3h-18.3z"/><path d="M256 73.2h18.3v18.3H256z"/><path d="M237.7 91.4H256v18.3h-18.3zm-54.8 109.8h18.3v18.3h-18.3z"/><path d="M164.6 219.5h18.3v18.3h-18.3z"/><path d="M146.3 237.7h18.3V256h-18.3zm219.5-36.5h18.3v18.3h-18.3z"/><path d="M347.5 219.5h18.3v18.3h-18.3z"/><path d="M329.2 237.7h18.3V256h-18.3z"/></g><path d="M206.5 434.9v3.9h-15.7v-3.9h15.7zm0 11.8v4h-15.7v-4h15.7zm-15.7 11.8h15.7v3.9h-15.7v-3.9zm19.6-11.8h-3.9v-7.8h3.9v7.8zm-3.9 11.8v-7.8h3.9v7.8h-3.9zm7.7-11.8h3.9v15.7h-3.9v-15.7zm11.8-3.9v3.9h-7.8v-3.9h7.8zm7.7 15.7h-3.9v-11.8h3.9v11.8zm0-11.8v-3.9h11.8V435h3.9v27.4h-15.7v-3.9h11.8v-11.8h-11.8zm39.1-7.9v7.8h-3.9v-7.8h3.9zm-3.9 19.7h15.7v3.9h-15.7v-3.9zm19.6-19.7h-15.7v-3.9h15.7v3.9zm-15.7 11.8v-4h11.8v4h-11.8zm11.8 7.9v-7.8h3.9v7.8h-3.9zm27.4-23.6v7.8h-3.9v-3.9h-15.7v-3.9H312zm-19.6 19.6h3.9v3.9H312v3.9h-19.6v-7.8zm3.9-3.9h3.9v3.9h-3.9v-3.9zm3.9-3.9h3.9v4h-3.9v-4zm3.9-3.9h3.9v3.9h-3.9v-3.9zm19.6 0v3.9h-3.9v15.7h-3.9V435h3.9v7.8h3.9zm3.9 3.9v4h-3.9v-4h3.9zm7.8-11.8v27.4h-3.9v-7.8h-3.9v-3.9h3.9v-15.7h3.9zm35.3 0v3.9H355v-3.9h15.7zm0 11.8v4H355v-4h15.7zM355 458.5h15.7v3.9H355v-3.9zm19.6-11.8h-3.9v-7.8h3.9v7.8zm-3.9 11.8v-7.8h3.9v7.8h-3.9z"/><path d="M216.2 520.6v3.5h-3.5v10.6h-3.5V510h3.5v10.6h3.5zm3.5 0h-3.5v-3.5h3.5v3.5zm-3.5 7.1v-3.5h3.5v3.5h-3.5zm7.1-10.6h-3.5v-3.5h3.5v3.5zm-3.6 14.1v-3.5h3.5v3.5h-3.5zm7.1-17.6h-3.5v-3.5h3.5v3.5zm-3.5 21.1v-3.5h3.5v3.5h-3.5zm16.5-21.1v17.7h3.5v3.5h-10.6v-3.5h3.5v-17.7h-3.5v-3.5h10.6v3.5h-3.5zm16.5 3.5v3.5h-3.5v14.1h-3.5V510h3.5v7h3.5zm3.6 3.5v3.5h-3.5v-3.5h3.5zm7-10.5v24.7h-3.5v-7.1h-3.5v-3.5h3.5v-14.1h3.5zm9.5 3.5v7.1h-3.5v-7.1h3.5zm-3.5 17.6H287v3.5h-14.1v-3.5zm17.6-17.6h-14.1v-3.5h14.1v3.5zm-14.1 10.6v-3.5H287v3.5h-10.6zm10.6 7v-7h3.5v7H287zm27.1-21.1v24.7h-3.5v-10.6H300v10.6h-3.5v-24.7h3.5v10.6h10.6v-10.6h3.5zm13 3.5v17.7h3.5v3.5H320v-3.5h3.5v-17.7H320v-3.5h10.6v3.5h-3.5zm13 7h10.6v3.5h-10.6v10.6h-3.5V510h14.1v3.5h-10.6v7.1zm14.1-7v7.1h-3.5v-7.1h3.5z" fill="#fff"/><defs ><path id="B" d="M347.5 347.5h-18.3v-18.3h-18.3v-18.3h-18.3v-18.3h-18.3v18.3H256v18.3h-18.3v18.3h-18.3v18.3h-18.3v36.6h18.3V384h18.3v-18.3H256v-18.3h18.3v-18.3h18.3v18.3h18.3v18.3h18.3V384h18.3v18.3h18.3v-36.6h-18.3v-18.2z"/></defs></svg>