<svg xmlns="http://www.w3.org/2000/svg" xmlns:xlink="http://www.w3.org/1999/xlink" viewBox="0 0 566.9 566.9"><circle cx="283.5" cy="283.5" r="283.5" fill="#fefbe2"/><circle cx="283.5" cy="283.5" r="253" fill="#fef196"/><circle cx="283.5" cy="283.5" r="225.8" fill="#fee433"/><circle cx="283.5" cy="283.5" r="201.5" fill="#fed223"/><circle cx="283.5" cy="283.5" r="179.9" fill="#feb923"/><circle cx="283.5" cy="283.5" r="160.5" fill="#fe9c23"/><circle cx="283.5" cy="283.5" r="143.3" fill="#fe8823"/><circle cx="283.5" cy="283.5" r="127.9" fill="#fe7423"/><circle cx="283.5" cy="283.5" r="114.1" fill="#fe5523"/><path d="M434.5 258.3v-42.8h-14.3v-14.3h-14.3v-14.3h-14.3v-14.3h-14.3v-14.3H363v-57.1h-14.3V86.9h-14.3V72.7h-14.3V58.4H306V44.1h-42.8v14.3h-14.3v14.3h-14.3V87h-14.3v14.3H206v57.1h-14.3v14.3h-14.3V187h-14.3v14.3h-14.3v14.3h-14.3v42.8h-28.6v71.4h14.3V344h14.3v14.3h14.3v57.1h14.3v14.3h14.3v42.8h14.3v14.3h185.6v-14.3h14.3v-42.8h14.3v-14.3h14.3v-57.1h14.3V344h14.3v-14.3H463v-71.4h-28.5z"/><path d="M191.7 315.4h-14.3v-14.3h-14.3v-14.3h-14.3v-14.3h-28.6v57.1h14.3V344h14.3v14.3h57.1v-28.6h-14.3v-14.3zm142.8 0h-14.3v-14.3H306v-14.3h-14.3v-14.3h-14.3v14.3h-14.3v14.3h-14.3v14.3h-14.3v14.3h-14.3v28.6H263V344h14.3v-14.3h14.3V344H306v14.3h42.8v-28.6h-14.3v-14.3zm85.7-42.8v14.3h-14.3v14.3h-14.3v14.3h-14.3v14.3H363V344v14.3h14.3 42.8V344h14.3v-14.3h14.3v-57.1h-28.5z" fill="#7d7d7d"/><path d="M191.7 315.4h-14.3v-14.3h-14.3v-14.3h-14.3v-14.3h-28.6v42.8h14.3v14.3h14.3V344h14.3v14.3h42.8v-28.6h-14.3v-14.3zm142.8 0h-14.3v-14.3H306v-14.3h-14.3v-14.3h-14.3v14.3h-14.3v14.3h-14.3v14.3h-14.3v14.3h-14.3v28.6h28.6V344h14.3v-14.3h14.3v-14.3h14.3v14.3H306V344h14.3v14.3h28.6v-28.6h-14.3v-14.3zm85.7-42.8v14.3h-14.3v14.3h-14.3v14.3h-14.3v14.3H363v28.6h42.8V344h14.3v-14.3h14.3v-14.3h14.3v-42.8h-28.5z" fill="#afafaf"/><g fill="#c8c8c8"><path d="M191.7 315.4h-14.3v-14.3h-14.3v-14.3h-14.3v-14.3h-28.6v28.6h14.3v14.3h14.3v14.3h14.3V344h14.3v14.3H206v-28.6h-14.3v-14.3z"/><use xlink:href="#B"/><path d="M434.5 272.6h-14.3v14.3h-14.3v14.3h-14.3v14.3h-14.3v14.3H363v28.6h28.6V344h14.3v-14.3h14.3v-14.3h14.3v-14.3h14.3v-28.6h-14.3z"/></g><g fill="#e1e1e1"><path d="M191.7 315.4h-14.3v-14.3h-14.3v-14.3h-14.3v-14.3h-28.6v14.3h14.3v14.3h14.3v14.3h14.3v14.3h14.3V344h14.3v14.3H206v-28.6h-14.3v-14.3z"/><use xlink:href="#B"/><path d="M420.2 272.6v14.3h-14.3v14.3h-14.3v14.3h-14.3v14.3H363v28.6h14.3V344h14.3v-14.3h14.3v-14.3h14.3v-14.3h14.3v-14.3h14.3v-14.3h-28.6z"/></g><g fill="#fff"><path d="M277.4 272.6h14.3v14.3h-14.3z"/><path d="M263.1 286.9h14.3v14.3h-14.3z"/><path d="M248.9 301.1h14.3v14.3h-14.3z"/><path d="M234.6 315.4h14.3v14.3h-14.3z"/><path d="M220.3 329.7h14.3V344h-14.3zm-28.6 0H206V344h-14.3z"/><path d="M177.5 315.4h14.3v14.3h-14.3z"/><path d="M163.2 301.1h14.3v14.3h-14.3z"/><path d="M148.9 286.9h14.3v14.3h-14.3z"/><path d="M134.6 272.6h14.3v14.3h-14.3zm157.1 14.3H306v14.3h-14.3z"/><path d="M306 301.1h14.3v14.3H306z"/><path d="M320.3 315.4h14.3v14.3h-14.3z"/><path d="M334.5 329.7h14.3V344h-14.3zm28.6 0h14.3V344h-14.3z"/><path d="M377.4 315.4h14.3v14.3h-14.3z"/><path d="M391.6 301.1h14.3v14.3h-14.3z"/><path d="M405.9 286.9h14.3v14.3h-14.3z"/><path d="M420.2 272.6h14.3v14.3h-14.3z"/></g><g fill="#6300c7"><path d="M320.3 186.9v-14.3h14.3v-14.3h14.3v-57.1h-14.3V86.9h-14.3V72.7H306V58.4h-42.8v14.3h-14.3V87h-14.3v14.3h-14.3v57.1h14.3v14.3h14.3V187h14.3v14.3H306V187h14.3zm-28.6-14.3v14.3h-14.3v-14.3h-14.3v-14.3h-14.3V144h-14.3v-28.6h14.3v-14.3h14.3V86.9h14.3V72.7h14.3V87H306v14.3h14.3v14.3h14.3v28.6h-14.3v14.3H306v14.3h-14.3z"/><path d="M306 158.3V144h14.3v-28.6H306v-14.3h-14.3V86.9h-14.3v14.3h-14.3v14.3h-14.3v28.6h14.3v14.3h14.3v14.3h14.3v-14.3H306zm-57.1 28.6h-14.3v-14.3h-42.8v14.3h-14.3v14.3h-14.3v14.3h-14.3v57.1h14.3v14.3h14.3v14.3h14.3v14.3h42.8v-14.3h14.3v-14.3h14.3v-14.3h14.3v-57.1h-14.3v-14.3h-14.3v-14.3zm0 28.6v14.3h14.3v28.6h-14.3v14.3h-14.3V287h-14.3v14.3H206V287h-14.3v-14.3h-14.3v-14.3h-14.3v-28.6h14.3v-14.3h14.3v-14.3H206v-14.3h14.3v14.3h14.3v14.3h14.3z"/><path d="M220.3 201.2H206v14.3h-14.3v14.3h-14.3v28.6h14.3v14.3H206V287h14.3v-14.3h14.3v-14.3h14.3v-28.6h-14.3v-14.3h-14.3v-14.3zm185.6 14.3v-14.3h-14.3v-14.3h-14.3v-14.3h-42.8v14.3h-14.3v14.3H306v14.3h-14.3v57.1H306v14.3h14.3v14.3h14.3v14.3h42.8v-14.3h14.3v-14.3H406v-14.3h14.3v-57.1h-14.4zm0 42.8h-14.3v14.3h-14.3v14.3H363v14.3h-14.3v-14.3h-14.3v-14.3h-14.3v-14.3H306v-28.6h14.3v-14.3h14.3v-14.3h14.3v-14.3h14.3v14.3h14.3v14.3h14.3v14.3h14.3v28.6z"/><path d="M391.6 229.7h-14.3v-14.3H363v-14.3h-14.3v14.3h-14.3v14.3h-14.3v28.6h14.3v14.3h14.3v14.3H363v-14.3h14.3v-14.3h14.3v-28.6z"/></g><g fill="#a000ff"><path d="M234.6 115.5h14.3v-14.3h14.3V86.9h14.3V72.7h14.3V58.4h-28.6v14.3h-14.3V87h-14.3v14.3h-14.3v42.8h14.3v-28.6z"/><path d="M291.7 72.7H306V87h-14.3z"/><path d="M306 86.9h14.3v14.3H306z"/><path d="M320.3 101.2h14.3v14.3h-14.3zM306 158.3h14.3v14.3H306z"/><path d="M291.7 172.6H306v14.3h-14.3zm42.8-28.5h14.3v-28.6h-14.3v28.6z"/><path d="M277.4 186.9h14.3v14.3h-14.3zm42.9-42.8h14.3v14.3h-14.3z"/><path d="M263.1 172.6h14.3v14.3h-14.3z"/><path d="M248.9 158.3h14.3v14.3h-14.3z"/><path d="M234.6 144.1h14.3v14.3h-14.3z"/><path d="M306 101.2h-14.3V86.9h-14.3v14.3h-14.3v14.3h-14.3v28.6h14.3v14.3h28.6v-14.3H306v-14.3h14.3v-14.3H306v-14.3zM163.2 229.7h14.3v-14.3h14.3v-14.3H206v-14.3h14.3v-14.3h-28.6v14.3h-14.3v14.3h-14.3v14.3h-14.3v42.8h14.3l.1-28.5zm57.1-42.8h14.3v14.3h-14.3z"/><path d="M234.6 201.2h14.3v14.3h-14.3z"/><path d="M248.9 215.5h14.3v14.3h-14.3z"/><path d="M263.1 244v14.3h14.3v-28.6h-14.3V244zm-28.5 28.6h14.3v14.3h-14.3z"/><path d="M220.3 286.9h14.3v14.3h-14.3z"/><path d="M206 301.1h14.3v14.3H206zm42.9-42.8h14.3v14.3h-14.3z"/><path d="M191.7 286.9H206v14.3h-14.3z"/><path d="M177.5 272.6h14.3v14.3h-14.3z"/><path d="M163.2 258.3h14.3v14.3h-14.3z"/><path d="M234.6 215.5h-14.3v-14.3H206v14.3h-14.3v14.3h-14.3v28.6h14.3v14.3h28.6v-14.3h14.3V244h14.3v-14.3h-14.3v-14.2zm71.4 14.2h14.3v-14.3h14.3v-14.3h14.3v-14.3h14.3v-14.3h-28.6v14.3h-14.3v14.3H306v14.3h-14.3v42.8H306v-28.5zm57.1-42.8h14.3v14.3h-14.3z"/><path d="M377.4 201.2h14.3v14.3h-14.3z"/><path d="M391.6 215.5h14.3v14.3h-14.3z"/><path d="M405.9 229.7v28.6h14.3v-28.6h-14.3zm-28.5 42.9h14.3v14.3h-14.3z"/><path d="M363.1 286.9h14.3v14.3h-14.3z"/><path d="M348.8 301.1h14.3v14.3h-14.3zm42.8-42.8h14.3v14.3h-14.3z"/><path d="M334.5 286.9h14.3v14.3h-14.3z"/><path d="M320.3 272.6h14.3v14.3h-14.3z"/><path d="M306 258.3h14.3v14.3H306z"/><path d="M377.4 215.5h-14.3v-14.3h-14.3v14.3h-14.3v14.3h-14.3v28.6h14.3v14.3h28.6v-14.3h14.3V244h14.3v-14.3h-14.3v-14.2z"/></g><g fill="#d700ff"><path d="M220.3 101.2h14.3v14.3h-14.3zm42.8-42.8h14.3v14.3h-14.3z"/><path d="M248.9 72.7h14.3V87h-14.3z"/><path d="M234.6 86.9h14.3v14.3h-14.3zm57.1 28.6H306v-14.3h-28.6v14.3h-14.3v14.3h-14.3v14.3h28.6v-14.3h14.3v-14.3zm-142.8 100h14.3v14.3h-14.3zm42.8-42.9H206v14.3h-14.3z"/><path d="M177.5 186.9h14.3v14.3h-14.3z"/><path d="M163.2 201.2h14.3v14.3h-14.3zm42.8 14.3v14.3h-14.3V244h-14.3v14.3H206V244h14.3v-14.3h14.3v-14.3l-28.6.1zm85.7 0H306v14.3h-14.3zm42.8-42.9h14.3v14.3h-14.3z"/><path d="M320.3 186.9h14.3v14.3h-14.3z"/><path d="M306 201.2h14.3v14.3H306zm57.1 14.3h-14.3v14.3h-14.3V244h-14.3v14.3h28.6V244h14.3v-14.3h14.3v-14.3h-14.3z"/></g><g fill="#e278ff"><path d="M277.4 86.9h14.3v14.3h-14.3z"/><path d="M263.1 101.2h14.3v14.3h-14.3z"/><path d="M248.9 115.5h14.3v14.3h-14.3zM206 201.2h14.3v14.3H206z"/><path d="M191.7 215.5H206v14.3h-14.3z"/><path d="M177.5 229.7h14.3V244h-14.3zm171.3-28.5h14.3v14.3h-14.3z"/><path d="M334.5 215.5h14.3v14.3h-14.3z"/><path d="M320.3 229.7h14.3V244h-14.3z"/></g><path d="M191.7 429.6h185.6v42.8H191.7z" fill="#c300ff"/><path d="M163.2 372.5h242.7v42.8H163.2z" fill="#fed223"/><path d="M191.9 392.7h7.8v2.6h-7.8v7.8h-2.6V385h10.4v2.6h-7.8v5.1zm10.4-5.1v5.2h-2.6v-5.2h2.6zm15.6 13v2.6h-13V385h2.6v15.6h10.4zm15.5-13v15.6h-2.6v-7.8H223v7.8h-2.6v-15.6h2.6v5.2h7.8v-5.2h2.6zm-2.5 0H223V385h7.8v2.6zm18.1 0v15.6h-2.6v-7.8h-7.8v7.8H236v-15.6h2.6v5.2h7.8v-5.2h2.6zm-2.6 0h-7.8V385h7.8v2.6zm7.8-2.6v7.8h-2.6V385h2.6zm2.6 7.7v2.6h-2.6v-2.6h2.6zm0 2.7h2.6v7.8h-2.6v-7.8zm2.6-2.7h2.6v2.6h-2.6v-2.6zm5.2-7.7v7.8H262V385h2.6zm5.2 2.6v5.2h10.4v2.6h-10.4v5.2h10.4v2.6h-13V385h13v2.6h-10.4zm23.4 5.1v2.6h2.6v7.8h-2.6v-7.8h-7.8v7.8h-2.6V385h10.4v2.6h-7.8v5.2h7.8zm0 0v-5.2h2.6v5.2h-2.6zm18.2-5.1v5.2h-2.6v-5.2h2.6zm-2.6 13h10.4v2.6h-10.4v-2.6zm13-13h-10.4V385h10.4v2.6zm-10.4 7.8v-2.6h7.8v2.6h-7.8zm7.8 5.2v-5.2h2.6v5.2h-2.6zm18.1-15.6v5.2h-2.6v-2.6h-10.4V385h13zm-12.9 13h2.6v2.6h10.4v2.6h-13V398zm2.5-2.6h2.6v2.6h-2.6v-2.6zm2.7-2.7h2.6v2.6h-2.6v-2.6zm2.5-2.5h2.6v2.6h-2.6v-2.6zm13.1 0v2.6h-2.6v10.4H340V385h2.6v5.2h2.6zm2.5 2.5v2.6h-2.6v-2.6h2.6zm5.2-7.7v18.2h-2.6V398h-2.6v-2.6h2.6V385h2.6zm23.5 0v2.6H366V385h10.4zm0 7.7v2.6H366v-2.6h10.4zm-10.5 7.9h10.4v2.6h-10.4v-2.6zm13-7.9h-2.6v-5.2h2.6v5.2zm-2.5 7.9v-5.2h2.6v5.2h-2.6z"/><path d="M232.1 450.6v2.8h2.8v8.3h-2.8v-8.3h-8.3v8.3H221v-19.3h11v2.7h-8.3v5.5h8.4zm0 0V445h2.8v5.5h-2.8zm21.1-5.6v16.6h-2.8v-8.3h-8.3v8.3h-2.7V445h2.7v5.5h8.3V445h2.8zm-2.7 0h-8.3v-2.7h8.3v2.7zm21.2 0v16.6h-2.8v-8.3h-8.3v8.3h-2.7V445h2.7v5.5h8.3V445h2.8zm-2.8 0h-8.3v-2.7h8.3v2.7zm12.9 2.8v2.8H279v11h-2.7v-19.3h2.7v5.5h2.8zm2.8 2.8v2.8h-2.7v-2.8h2.7zm5.5-8.3v19.3h-2.8v-5.5h-2.8v-2.7h2.8v-11h2.8zm10.2 8.3v2.8h-2.8v8.3h-2.7v-19.3h2.7v8.3h2.8zm2.7 0h-2.7v-2.8h2.7v2.8zm-2.7 5.5v-2.7h2.7v2.7h-2.7zm5.5-8.3H303V445h2.8v2.8zm-2.8 11.1v-2.8h2.8v2.8H303zm5.5-13.9h-2.8v-2.7h2.8v2.7zm-2.7 16.6v-2.7h2.8v2.7h-2.8zm10.1-16.6v5.5H327v2.8h-11.1v5.5H327v2.7h-13.8v-19.3H327v2.7h-11.1zm18.4 13.9h8.3v2.7h-11v-19.3h11v2.7h-8.3v13.9zm11.1-13.9v13.8h-2.8V445h2.8z" fill="#fff"/><defs ><path id="B" d="M334.5 315.4h-14.3v-14.3H306v-14.3h-14.3v-14.3h-14.3v14.3h-14.3v14.3h-14.3v14.3h-14.3v14.3h-14.3v28.6h14.3V344h14.3v-14.3h14.3v-14.3h14.3v-14.3h14.3v14.3H306v14.3h14.3V344h14.3v14.3h14.3v-28.6h-14.3v-14.3z"/></defs></svg>