<svg xmlns="http://www.w3.org/2000/svg" xmlns:xlink="http://www.w3.org/1999/xlink" viewBox="0 0 1000 1000"><circle cx="500" cy="500" r="500" fill="#23143c"/><path d="M391.3 192v31.1h-31.1v31.1h-62.1v62.1H267v62.1h-31v93.2h62.1v31.1H236v93.2h31.1V658h31.1v62.1h-31.1V751H236v62.1h31.1v31.1h31.1v-31.1h31.1V782h31.1v31.1h31.1v31.1h31.1v-31.1h31.1V782h31.1v-31h31.1v31.1H547v31.1h31.1v31.1h31.1v-31.1h31.1v-31.1h31.1v31.1h31.1v31.1h31.1v-31.1H764v-62.1h-31.1V720h-31.1v-62.1h31.1v-62.1H764v-93.2h-62.1v-31.1H764v-93.2h-31.1v-62.1h-31.1v-62.1h-62.1V223h-31.1v-31H391.3z" fill="#350085"/><g fill="#8c00ff"><use xlink:href="#B"/><use xlink:href="#C"/><use xlink:href="#D"/><path d="M391.3,813.1h31.1v31.1h-31.1V813.1z"/><use xlink:href="#D" x="62.1"/><use xlink:href="#D" x="186.3"/><path d="M577.6,813.1h31.1v31.1h-31.1V813.1z"/><use xlink:href="#D" x="248.4"/><use xlink:href="#B" x="372.7"/><path d="M701.9,720H733v31.1h-31.1V720z"/><path d="M732.9 751v31.1h-31.1V751h-31.1v-31h-31.1v-31.1h31.1v-31.1h31.1v-62.1h31.1v-93.2h-31.1v-31.1h31.1v-93.2h-31.1v-62.1h-31.1V254h-62.1v-31.1h-31.1V192H422.2v31.1h-31.1v31.1H329v62.1h-31.1v62.1h-31.1v93.2h31.1v31.1h-31.1v93.2h31.1V658H329v31.1h31.1V720H329v31h-31.1v31.1h-31.1V751H236v62.1h31.1v31.1h31.1v-31.1h31.1V782h31.1v-31h31.1v-31h31.1v-31.1h31.1V720h31.1v-31.1h31.1V720H547v-31.1h31.1V720h31.1v31h31.1v31.1h31.1v31.1h31.1v31.1h31.1v-31.1H764v-62.1l-31.1-.1h0z"/><use xlink:href="#E"/><use xlink:href="#E" x="-186.3"/><use xlink:href="#C" x="155.3"/><use xlink:href="#E" x="-124.2"/><use xlink:href="#C" x="279.5"/><use xlink:href="#E" x="-62.1"/><use xlink:href="#C" x="217.4"/></g><g fill="#5700c2"><path d="M422.4,223.1h31.1v31.1h-31.1V223.1z"/><path d="M453.4 192h31.1v31.1h-31.1V192zm62.1 0h31.1v31.1h-31.1V192zm155.3 434.8h31.1v31.1h-31.1v-31.1zm-372.7 0h31.1v31.1h-31.1v-31.1z"/><use xlink:href="#F"/><use xlink:href="#B"/><use xlink:href="#C"/><use xlink:href="#D"/><path d="M391.3,813.1h31.1v31.1h-31.1V813.1z"/><use xlink:href="#D" x="62.1"/><use xlink:href="#D" x="186.3"/><path d="M577.6,813.1h31.1v31.1h-31.1V813.1z"/><use xlink:href="#D" x="248.4"/><use xlink:href="#F" x="310.5"/><use xlink:href="#B" x="372.7"/><path d="M701.9,720H733v31.1h-31.1V720z"/><path d="M732.9 751v31.1h-31.1V751h-31.1v-31h-31.1v-31.1h-31.1v-31.1h31.1v-31.1h31.1v-31.1h31.1V378.2h-31.1v-62.1h-31.1V254h-62.1v-31.1h-31.1v124.2h-31.1v124.2h-31.1V347.1h31.1V222.9h-31.1V254h-31.1v62.1H422V254h-62.1v62.1h-31.1v62.1h-31.1v217.4h31.1v31.1h31.1v31.1H391v31.1h-31.1V720h-31.1v31h-31.1v31.1h-31.1V751H236v62.1h31.1v31.1h31.1v-31.1h31.1V782h31.1v-31h31.1v-31h31.1v-31.1h31.1v-31.1h-31.1v-31.1h-31.1v-31.1h31.1v31.1h31.1v31.1h31.1v31.1h31.1v-31.1H547v-31.1h31.1v-31.1h31.1v31.1h-31.1v31.1H547v31.1h31.1V720h31.1v31h31.1v31.1h31.1v31.1h31.1v31.1h31.1v-31.1H764v-62.1l-31.1-.1h0zM360.3 471.5v-31.1h31.1v62.1h-31.1v-31zm217.3-31h31.1v31.1h-31.1v-31.1z"/><use xlink:href="#E"/><use xlink:href="#B" x="155.3"/><use xlink:href="#B" x="217.4"/><use xlink:href="#E" x="-186.3"/><use xlink:href="#C" x="155.3"/><use xlink:href="#E" x="-124.2"/><use xlink:href="#C" x="279.5"/><use xlink:href="#E" x="-62.1"/><use xlink:href="#C" x="217.4"/></g><g fill="#7300e1"><path d="M639.7 626.8h31.1v-31.1h31.1V378.3h-31.1v-62.1h-31.1v-62.1h-31.1v62.1h-31.1v-62.1h-31.1v93.2h-31.1v124.2h-31.1v31.1h-31.1V347.3h31.1v-93.2h-31.1v62.1H391v-62.1h-31.1v62.1h-31.1v62.1h-31.1v217.4h31.1v31.1h31.1v31.1H391v-62.1h31.1v31.1h31.1V658h31.1v-62.1h31.1V658h31.1v-31.1h31.1v-31.1h31.1v62.1h31.1l-.1-31.1h0zm31.1-186.3v31.1h-31.1v-62.1h31.1v31zm-124.2-31.1h31.1v31.1h31.1v31.1h-62.1l-.1-62.2h0zm-217.4 31.1v-31.1h31.1v31.1h31.1v62.1h-31.1v-31.1h-31.1v-31z"/><use xlink:href="#F" x="248.4"/><path d="M670.8 626.8h31.1v31.1h-31.1v-31.1zm-372.7 0h31.1v31.1h-31.1v-31.1z"/><use xlink:href="#F"/><use xlink:href="#F" x="310.5"/><use xlink:href="#E"/><use xlink:href="#B" x="155.3"/><use xlink:href="#B" x="217.4"/><use xlink:href="#B" x="62.2"/><use xlink:href="#C" x="62.1"/><use xlink:href="#E" x="-186.3"/><use xlink:href="#E" x="-279.5"/><use xlink:href="#D" x="-93.2"/><use xlink:href="#C" x="372.6"/><use xlink:href="#E" x="93.2"/><path d="M701.9,782.1H733v31.1h-31.1V782.1z"/><use xlink:href="#B" x="310.6"/><use xlink:href="#C" x="155.3"/><use xlink:href="#C" x="279.5"/><use xlink:href="#F" x="62.1"/></g><g fill="#190055"><use xlink:href="#E"/><use xlink:href="#B" x="155.3"/><use xlink:href="#B" x="217.4"/><use xlink:href="#B" x="62.2"/><use xlink:href="#C" x="62.1"/><use xlink:href="#E" x="-186.3"/><use xlink:href="#E" x="-279.5"/><use xlink:href="#D" x="-93.2"/><use xlink:href="#C" x="372.6"/><use xlink:href="#E" x="93.2"/><path d="M701.9,782.1H733v31.1h-31.1V782.1z"/><use xlink:href="#B" x="310.6"/><use xlink:href="#C" x="155.3"/><use xlink:href="#C" x="279.5"/></g><path d="M670.8 440.5v31.1h-31.1v31.1h-31.1v-31.1h-62.1v31.1h-31.1v-31.1h-31.1v31.1h-31.1v-31.1h-62.1v31.1H360v-31.1h-31.1v-31.1h-31.1v124.2h31.1v31.1H360v31.1h31.1v-31.1h31.1v31.1h62.1v-31.1h31.1v31.1h62.1v-31.1h31.1v31.1h31.1v-31.1h31.1v-31.1h31.1V440.5h-31.1 0z" fill="#23143c"/><g fill="#1eff90"><path d="M484.5,161h31.1v31.1h-31.1V161z"/><path d="M453.4 129.9h31.1V161h-31.1v-31.1zm186.3 217.4v-31.1h-62.1v31.1h-31.1v62.1h31.1v31.1h62.1v-31.1h31.1v-62.1h-31.1zm-217.3 93.2v-31.1h31.1v-62.1h-31.1v-31.1h-62.1v31.1h-31.1v62.1h31.1v31.1h62.1zm0 124.2h155.3v-31.1H422.4v31.1h0z"/></g><g fill="#15fd1e"><path d="M899.3,523.2v22.2h-22.2v66.5h22.2v22.2h22.2v-22.2h22.2v-66.5h-22.2v-22.2H899.3z"/><use xlink:href="#G"/><use xlink:href="#G" x="-44.4"/><path d="M921.5 501h22.2v22.2h-22.2V501zm-44.4 0h22.2v22.2h-22.2V501z"/></g><g fill="#11a810"><path d="M899.3 611.9h22.2v22.2h-22.2v-22.2zm0-88.7h22.2v22.2h-22.2v-22.2z"/><use xlink:href="#G"/><use xlink:href="#G" x="-44.4"/><path d="M921.5 501h22.2v22.2h-22.2V501zm-44.4 0h22.2v22.2h-22.2V501zm0 66.6v22.2h66.5v-22.2h-66.5z"/></g><g fill="#fb1617"><use xlink:href="#H"/><use xlink:href="#H" x="39.6" y="-14.4"/><use xlink:href="#H" x="43.3" y="118.7"/><use xlink:href="#H" x="82.9" y="104.3"/><path d="M934.9 402.2l-21.6-59.4-19.8 7.2-7.2-19.8-19.8 7.2 7.2 19.8-19.8 7.2 21.6 59.4 19.8-7.2 7.2 19.8 19.8-7.2-7.2-19.8 19.8-7.2z"/></g><g fill="#9f1010"><use xlink:href="#H" x="27" y="12.6"/><use xlink:href="#H" x="55.9" y="91.7"/><use xlink:href="#H"/><use xlink:href="#H" x="39.6" y="-14.4"/><use xlink:href="#H" x="43.3" y="118.7"/><use xlink:href="#H" x="82.9" y="104.3"/><path d="M927.7 382.4l-7.2-19.8-59.4 21.6 7.2 19.8 59.4-21.6z"/></g><g fill="#f60cef"><use xlink:href="#I"/><use xlink:href="#I" x="30.7" y="-25.8"/><use xlink:href="#I" x="77.2" y="92"/><use xlink:href="#I" x="107.9" y="66.2"/><path d="M852.9 218.1l-38.6-46-15.3 12.8-12.9-15.3-15.3 12.9 12.9 15.3-15.3 12.9 38.6 46 15.3-12.9 12.9 15.3 15.3-12.9-12.9-15.3 15.3-12.8z"/></g><g fill="#5e0fff"><use xlink:href="#I" x="28.2" y="2.4"/><use xlink:href="#I" x="79.6" y="63.7"/><use xlink:href="#I"/><use xlink:href="#I" x="30.7" y="-25.8"/><use xlink:href="#I" x="77.2" y="92"/><use xlink:href="#I" x="107.9" y="66.2"/><path d="M840.1 202.7l-12.9-15.3-46 38.6 12.9 15.3 46-38.6h0z"/></g><g fill="#14feff"><path d="M702.3 103.3l8-17.2L658.7 62l-8 17.2-17.2-8-8 17.2 17.2 8-8 17.2 51.7 24.1 8-17.2 17.2 8 8-17.2-17.3-8h0z"/><use xlink:href="#J"/><use xlink:href="#J" x="16.2" y="-34.4"/><use xlink:href="#J" x="103.4" y="48.3"/><use xlink:href="#J" x="119.6" y="13.8"/></g><g fill="#11aafd"><use xlink:href="#J" x="25.3" y="-9.2"/><use xlink:href="#J" x="94.3" y="23"/><use xlink:href="#J"/><use xlink:href="#J" x="16.2" y="-34.4"/><use xlink:href="#J" x="103.4" y="48.3"/><use xlink:href="#J" x="119.6" y="13.8"/><path d="M651.8 121.7l17.2 8L693.1 78l-17.2-8-24.1 51.7z"/></g><g fill="#15fd1e"><path d="M100.7 523.2v22.2h22.2v66.5h-22.2v22.2H78.5v-22.2H56.3v-66.5h22.2v-22.2h22.2z"/><path d="M56.3,634.1h22.2v22.2H56.3V634.1z"/><use xlink:href="#G" x="-820.8"/><path d="M56.3 501h22.2v22.2H56.3V501zm44.4 0h22.2v22.2h-22.2V501z"/></g><g fill="#11a810"><path d="M78.5 611.9h22.2v22.2H78.5v-22.2zm0-88.7h22.2v22.2H78.5v-22.2z"/><path d="M56.3,634.1h22.2v22.2H56.3V634.1z"/><use xlink:href="#G" x="-820.8"/><path d="M56.3 501h22.2v22.2H56.3V501zm44.4 0h22.2v22.2h-22.2V501zm22.2 66.6v22.2H56.4v-22.2h66.5z"/></g><g fill="#fb1617"><use xlink:href="#K"/><path d="M94 323l7.2-19.8 19.8 7.2-7.2 19.8L94 323z"/><use xlink:href="#K" x="-43.3" y="118.8"/><path d="M50.7 441.8l7.2-19.8 19.8 7.2-7.1 19.8-19.9-7.2z"/><path d="M65.1 402.2l21.6-59.4 19.8 7.2 7.2-19.8 19.8 7.2-7.2 19.8 19.8 7.2-21.6 59.4-19.8-7.2-7.2 19.8-19.8-7.2 7.2-19.8-19.8-7.2z"/></g><g fill="#9f1010"><use xlink:href="#K" x="-27" y="12.6"/><use xlink:href="#K" x="-55.9" y="91.8"/><use xlink:href="#K"/><path d="M94 323l7.2-19.8 19.8 7.2-7.2 19.8L94 323z"/><use xlink:href="#K" x="-43.3" y="118.8"/><path d="M50.7 441.8l7.2-19.8 19.8 7.2-7.1 19.8-19.9-7.2zm21.6-59.4l7.2-19.8 59.4 21.6-7.2 19.8-59.4-21.6z"/></g><g fill="#f60cef"><use xlink:href="#L"/><use xlink:href="#L" x="-30.7" y="-25.7"/><use xlink:href="#L" x="-77.2" y="92"/><use xlink:href="#L" x="-107.9" y="66.3"/><path d="M147.1 218.1l38.6-46L201 185l12.9-15.3 15.3 12.9-12.9 15.3 15.3 12.9-38.6 46-15.3-12.9-12.9 15.3-15.3-12.9 12.9-15.3-15.3-12.9h0z"/></g><g fill="#5e0fff"><use xlink:href="#L" x="-28.2" y="2.4"/><use xlink:href="#L" x="-79.7" y="63.8"/><use xlink:href="#L"/><use xlink:href="#L" x="-30.7" y="-25.7"/><use xlink:href="#L" x="-77.2" y="92"/><use xlink:href="#L" x="-107.9" y="66.3"/><path d="M159.9 202.7l12.9-15.3 46 38.6-12.9 15.3-46-38.6h0z"/></g><g fill="#14feff"><path d="M297.7 103.3l-8-17.2L341.3 62l8 17.2 17.2-8 8 17.2-17.2 8 8 17.2-51.7 24.1-8-17.2-17.2 8-8-17.2 17.3-8h0z"/><use xlink:href="#M"/><use xlink:href="#M" x="-16.1" y="-34.4"/><use xlink:href="#M" x="-103.5" y="48.2"/><use xlink:href="#M" x="-119.5" y="13.8"/></g><g fill="#11aafd"><use xlink:href="#M" x="-25.3" y="-9.2"/><use xlink:href="#M" x="-94.2" y="23"/><use xlink:href="#M"/><use xlink:href="#M" x="-16.1" y="-34.4"/><use xlink:href="#M" x="-103.5" y="48.2"/><use xlink:href="#M" x="-119.5" y="13.8"/><path d="M348.2 121.7l-17.2 8L306.9 78l17.2-8c0 0 20.1 43.2 24.1 51.7z"/></g><g fill="#f60cef"><path d="M528.5 55.1v-19h-57.1v19h-19v19h19v19h57.1v-19h19v-19h-19zm19 19.1h19v19h-19v-19z"/><path d="M547.5 36.1h19v19h-19v-19zM433.4 74.2h19v19h-19v-19zm0-38.1h19v19h-19v-19z"/></g><g fill="#5e0fff"><path d="M528.5 55.1h19v19h-19v-19zm-76 0h19v19h-19v-19zm95 19.1h19v19h-19v-19z"/><path d="M547.5 36.1h19v19h-19v-19zM433.4 74.2h19v19h-19v-19zm0-38.1h19v19h-19v-19zm57.1 57.1h19V36.1h-19v57.1z"/></g><g fill="#fff"><path d="M304.4 915.5v8.8h-4.8v-22.4h4.8v8.8h12.8v-8.8h4.8v22.4h-4.8v-8.8h-12.8zm32-15.2l13.9 24h-5.6l-1.8-3.2h-13l-1.9 3.2h-5.5l13.9-24zm3.7 16l-3.7-6.4-3.7 6.4h7.4 0z"/><path d="M362 900.3l13.9 24h-5.6l-1.8-3.2h-13l-1.9 3.2h-5.5l13.9-24zm3.8 16l-3.7-6.4-3.7 6.4h7.4 0zm15.5 3.2h17.6v4.8h-22.4v-22.4h4.8v17.6h0zm25.6 0h17.6v4.8h-22.4v-22.4h4.8v17.6h0zm20.8-3.2v-6.4c0-5.3 2.7-8 8-8h6.4c5.3 0 8 2.7 8 8v6.4c0 5.3-2.7 8-8 8h-6.4c-5.4 0-8-2.6-8-8zm4.8-6.4v6.4c0 2.1 1.1 3.2 3.2 3.2h6.4c2.1 0 3.2-1.1 3.2-3.2v-6.4c0-2.1-1.1-3.2-3.2-3.2h-6.4c-2.1 0-3.2 1.1-3.2 3.2zm38.4 6.2v-14.2h4.8v22.4h-3.4l-7.8-7.8-7.8 7.8h-3.4v-22.4h4.8v14.2l6.4-6.4 6.4 6.4zm30.4-14.2v4.8h-17.6v4h16v4.8h-16v4h17.6v4.8h-22.4v-22.4h22.4 0zm25.6 0v4.8h-17.6v4h16v4.8h-16v4h17.6v4.8h-22.4v-22.4h22.4 0zm20.9 14.2v-14.2h4.8v22.4h-3.4L535 910.1v14.2h-4.8v-22.4h3.4l14.2 14.2h0zm32.1-14.2c4.3 0 6.4 2.1 6.4 6.4v.8c0 4.3-2.1 6.4-6.4 6.4h-11.2v8.8h-4.8v-22.4h16zm1.6 6.4c0-1.1-.5-1.6-1.6-1.6h-11.2v4h11.2c1.1 0 1.6-.5 1.6-1.6v-.8h0zm17.1-8l13.9 24h-5.6l-1.8-3.2h-13l-1.9 3.2h-5.5l13.9-24h0zm3.7 16l-3.7-6.4-3.7 6.4h7.4zm26.7-14.4c4.3 0 6.4 2.1 6.4 6.4v.8c0 4.3-2.1 6.4-6.4 6.4h-.8l8.8 8.8h-6.8l-8.8-8.8h-3.6v8.8H613v-22.4h16 0zm1.6 6.4c0-1.1-.5-1.6-1.6-1.6h-11.2v4H629c1.1 0 1.6-.5 1.6-1.6v-.8h0zm21.6-1.6v17.6h-4.8v-17.6h-8.8v-4.8H661v4.8h-8.8 0z"/><path d="M673,914.1l-12.2-12.2h6.8l7.8,7.8l7.8-7.8h6.8l-12.2,12.2v10.2H673V914.1z"/></g><g fill="#5400f2"><path d="M289.399993896484 749.700012207031h18.89999961853v32.099998474121h-18.89999961853zM265.4 749.6c-3.2.2-15-.6-17.9.7v32.1c2.7-1.3 14.8-.5 17.9-.7 2.8 0 4.1.9 4.1 2.6v-32.1c0-1.7-1.4-2.6-4.1-2.6zm-41 38.7h0c-.7 0-1.3 0-1.9-.1l4.9-6.5.2-32.1c-3.1.3-33.3-.7-35.4.8v18.5h-8.5v19.3c-5.9-1.1-30.8 3.5-30.7-5.2.1 49.5-6.6 35 44.8 37.3v-32.1l23-29.8v29.7c-5.1-.6-7.7-2.5-7.7-5.9.6 39.8-8.2 42.5 38.4 36.3v-32.1c-8.4 3-18.2 1.6-27.1 1.9zm318-17.1l6.9 49.2h11.5v-26.8l11.7 9.6v-32.1l-17-14.1v31.2h-6.2l-6.9-49.2c-.7 10.1.2 21.9 0 32.2z"/><path d="M542.4 771.2h0 0zm-255.000006103516 17.099987792969h11.5v32.099998474121h-11.5zM415.5 831.9c-.6.1-1.3.4-1.9.5-.9-13.8 5.7-20.8-13.5-18.5v-25.7h-9.7v-31.6h-9.9c2.2-11.3-15.9-6.5-22.5-6.4v32.1c6.8-.2 15.6-2.3 21.9 1.2v5.2h8.7V814c-1.7 0-3.5-.2-5.2.3v19h-2.8v-15.8h-8.4v-30.8c-10.9.8-31.7 6.5-38.9-4.9h4.3v-32.1h-18.9v32.1H333c-.8 36.8-5 42.3 35.4 38.1v29.8h9.8v3h-20.6v32.1H420v-32.1h-4.5v-20.8zm63.5-11.3h0c.3-9.2-11.8-6.1-17.9-6.6v-25.7h-11.5v58.5c8 .7 25.1-5.1 29.3 4.7-14 .2-46.2 8.1-47.9-12.8-1.7 48-.2 51 49.6 44.4V851c-.5.2-1.1.3-1.6.5v-30.9zm139.6 11.6c-1.9.7-4.3 1-7.2 1.1v-12.9h5.8v-32.1H604V814h-1.3v-25.7h-11.5l-7.8-31.2v32.1l6.2 24.8c-3.4.2-7.1-.4-10.4.3v32.1c1.2-.4 2.6-.2 3.9-.3v6.5h-11.8c-.2-1-.3-2-.5-3h6.9v-32.1h-12.3c-.2-1.2-.3-2.3-.3-3.4.2 11.3-.5 24.2.3 35.5h3c-.6 11.3.4 24.1 2.9 35.1h62.4v-32.1h-15.1v-20.4zm46.5-43.9H657l-7.2-7h-10.6v-10.5c-4.7-4.7-9.2-9.4-13.6-14.1v24.7h-6.1v32.1h30.4l7.2 7h21.4v-32.1l-13.4-.1h0zm170.6 0h0L818.6 769h-9.3v-10.5l-17.1-19.3v29.9h-2.6v14l-34-43.9v14h-6.5c-6.9-7.4-18.7-2.5-27.8-3.3V765c-6.5-4.7-12.4-12.6-13.7-20.6.8 11.9-1.9 25.5 1.3 37h-11.4v-10.5l-15.9-14.1v24.7h-2.2v32.1h30.4l8.4 7h13.3v-5.5c12.4 9 30.8 5.7 45.2 4.7v-21.4l17.2 22.2h11.5v-19.3h13.5l17.1 19.3h11.5v-32.1c-4.2-.2-8-.2-11.8-.2zm-70.3-.1v-4.3l3.3 4.3h-3.3zM551 832.1c-1.7.5-3.5.9-5.8 1.1-.4-10.4 3.9-22.5-11.8-19.2v-26.7c-1.3.5-2.8.7-4.4.9v-2.9h8.5v-32.1h-10.4c-2-7.5-19.2-2.5-25.9-3.3v19c-8.2-.6-12.3-5-12.3-13.3v23.1c-.2-1.3-.1-2.8-.4-3.8 2.3 13.9-8.3 42.3 11.3 45.3v29.5h.2l.2 35.1h62.4v-32.1H551v-20.6zm-36.2 20.5h-14.7v-3h12v-29.2h1.9v26c.2-.1.5-.1.8-.2v6.4z"/><path d="M618.6 832.2h0 0 0zM442 820.4h0v-32.1h-8.2V769h-29v32.1h25.7v19.3z"/></g><g fill="#26007f"><path d="M241 755c-1.9 2.2-3.5 4.7-5.2 7.1v-23l-8.2 10.5-.2 34.7s11.2 2.9 20.1-1.8v-32.1c-2.6.8-4.6 2.4-6.5 4.6h0zm28.6 15.7c-4.3 7.1-10.4 12.9-18.1 15.6v32.1c15.4-5.9 26.7-26.3 31-40.8v-32.1c-.4 7.6-9 17.9-12.9 25.2zm72.7-31.6c-6.7 7.2-4.7 33.8-4.8 42.7 6.7-7.2 4.7-33.9 4.8-42.7zm49.3 10.2c-1.4 4.6-1.3 34.1-1.2 39.5 2.2-5 .9-33.9 1.2-39.5zm-37.5 3.6c-11.1 15.4-8.8 14.8-8.8 32.1 0 0 4.7 1.5 12.6-2.7v-32.1c-1.5.5-2.8 1.4-3.8 2.7h0zm53.4 14c5.1-12.6 5.3-14.3 4.8-27.9-5.1 12.6-5.4 14.4-4.8 27.9zm-108.7 53.5c16.7-34.3 21.7-30.7 19.8-70.8-16.7 34.3-21.7 30.7-19.8 70.8zm87.4-49.7c-1.8 5.9-4.5 10.3-9.2 13.6-1.5 1-3.1 1.8-4.8 2.4v27.5c19.1-4.9 13.2-29.5 14-43.5zm62.7-31.6c-3.9 25.3-8.3 55.4-6.9 81.3 3.9-25.4 8.4-55.4 6.9-81.3zM400 810.8c5.1-12.6 5.3-28.3 4.8-41.9-5.1 12.6-5.3 28.4-4.8 41.9zm61.1 9.6c2.5-25.4 5.4-55.6 4.4-81.3-2.4 25.3-5.3 55.6-4.4 81.3zm38.2-35.4v.3-.3zm40.6-5.1c.2-.9.3-1.9.3-3-.2.8-.3 1.8-.3 3z"/><path d="M539.9 779.9c-.5 2.6-1.7 4.6-3.9 6.1-.8.5-1.6.9-2.6 1.3v32.1c10.8-2.3 6.2-28.5 6.5-39.5h0zm32.5 23.4c3.9-4.7 7.6-9.4 11.1-14.1v-32.1c-3.5 4.7-7.2 9.4-11.1 14.1v32.1zm49.8-24.9c4.2-9.5 3.3-11.5 3.3-21.9-4 9.6-3.5 11.6-3.3 21.9zm-2.9 2.8c-3.2 4.5-1.9 33.7-2.1 39.2 3.3-4.5 1.9-33.7 2.1-39.2zm60 0c-1.5 4.5-.9 33.9-1 39.2 1.6-4.5.9-33.9 1-39.2zm-298.7 68.4c.4-1.5 1.3-2.6 2.8-3.2v-32.1c-.7.2-1.3.6-1.8 1.2-1.8-1-.7 33.6-1 34.1zm45.4-33.2c.1-.8.2-1.5.1-2.2-.1.6-.1 1.4-.1 2.2zm131.5 8.5c.2-.8.3-1.7.3-2.7-.2.7-.2 1.6-.3 2.7z"/></g><path d="M272.4 739.1h-13.3c-11 0-21 5.8-29.9 17.6l-10.6 14.1c-8.9 11.7-7 17.6 5.8 17.6h15.3c12.8 0 22.8-5.9 29.9-17.6l8.7-14.1c7.1-11.8 5.1-17.6-5.9-17.6h0zm-4.7 17.5l-9.1 14.1c-3 4.7-7 7-12 7h-14.9c-5 0-5.7-2.3-2.3-7l10.2-14.1c3.4-4.7 7.4-7 12-7h13.7c4.6 0 5.4 2.4 2.4 7zm-75.1 1.8l-9 10.5h18.1l-7.1 8.8h-22.3c-5 0-5.4-2.3-1.2-7l12.4-14.1c4.2-4.7 8.5-7 13.1-7h30.9l8.2-10.5h-30c-11 0-21.9 5.8-32.7 17.6l-12.8 14.1c-10.8 11.7-9.8 17.6 3 17.6h34.4l23.1-29.9-28.1-.1h0zm149.7-19.3h-46.6l-6.3 10.5h18.9l-20.9 38.6h11.5l19.8-38.6h18.9c1.5-3.5 3.1-7 4.7-10.5zm99.7 49.2l6.9-49.2h-10l-3.3 19.3h-28.2l4.8-19.3h-10l-13.7 49.2H400l4.8-19.3h29l-3.3 19.3H442zm-55.8-17.6h-10.9c-1.5 4.7-4.8 7-9.7 7h-14.9c-5 0-6.5-2.3-4.6-7l5.7-14.1c1.9-4.7 5.2-7 9.7-7h13.7c4.6 0 6.1 2.3 4.6 7h10.5c3.4-11.7-.4-17.6-11.4-17.6h-13.3c-11 0-19.2 5.8-24.3 17.6l-6.1 14.1c-5.2 11.7-1.4 17.6 11.4 17.6h15.3c12.8 0 20.9-5.9 24.3-17.6h0zm79.4-31.6h-10l-5.9 49.2h11.5l4.4-49.2zm60.8 49.2c10.2 0 14.8-4.7 13.6-14.1-.1-.6-.1-1.2-.2-1.8-1.2-9.4-6.4-14.1-15.8-14.1h-21.1c-2.3 0-3.5-1.2-3.6-3.5V753c0-2.3 1.1-3.5 3.4-3.5h20.6c2.3 0 3.5 1.2 3.8 3.5h10.4c-1.2-9.4-6.2-14-15-14h-20c-8.8 0-13.4 4.7-13.6 14v1.8c-.2 9.4 4.5 14.1 14.2 14.1h21.8c2.4 0 3.7 1.2 3.9 3.5.1.6.1 1.2.2 1.8.2 2.3-.9 3.5-3.4 3.5h-22.3c-2.5 0-3.7-1.2-3.7-3.5h-11c-.2 9.4 4.8 14.1 15 14.1h22.8 0zm34.3 0l-5.3-31.2 17 14.1c3.9-4.7 7.6-9.4 11.1-14.1l7.8 31.2h11.5l-13.7-49.2H582c-3.9 5.7-8.2 11.4-12.7 17.1-6.9-5.7-13.5-11.4-19.8-17.1h-7.1l6.9 49.2h11.4 0zm105.1-4.1c-17.3-16.2-33.4-32.5-48.1-48.7-3.1 17.6-7.6 35.2-13.7 52.8h13.2l2.1-7h30.4l7.2 7h8.1 5.1 8.1c.4-2.3.7-4.7 1-7h30.4l8.4 7h13.3c-21.8-17.6-42.1-35.2-60.9-52.8-.2 16.2-1.8 32.5-4.6 48.7zm-43.6-13.5c1.2-4.7 2.3-9.4 3.3-14.1l13.6 14.1h-16.9 0zm59.3-14.1l15.9 14.1h-16.9c.5-4.7.8-9.4 1-14.1zm120.7-17.5h-10l17.1 19.3h-28.2l-15.5-19.3h-10l38.1 49.2h11.5L789.6 769h29l17.1 19.3h11.5l-45-49.2h0zm-28.1 33.3c-7.1-9.4-15.4-14.1-24.7-14.1h-21.1c-2.4 0-4.3-1.2-5.8-3.5-.4-.6-.8-1.2-1.1-1.8-1.5-2.3-1.1-3.5 1.2-3.5h20.6c2.3 0 4.3 1.2 6 3.5h10.4c-7.1-9.4-15.1-14-23.9-14h-20c-8.8 0-10.4 4.7-4.7 14 .4.6.7 1.2 1.1 1.8 5.7 9.4 13.4 14.1 23.2 14.1h21.8c2.4 0 4.5 1.2 6.2 3.5.4.6.8 1.2 1.3 1.8 1.7 2.3 1.3 3.5-1.2 3.5h-22.3c-2.5 0-4.5-1.2-6-3.5h-11c5.7 9.4 13.7 14.1 23.9 14.1h22.9c10.2 0 11.8-4.7 4.7-14.1-.6-.6-1.1-1.2-1.5-1.8h0zm-361.8 31h-23.8c-10.5 0-17.3 4.7-20.2 14h12.3c.6-2.3 2.3-3.5 5-3.5h24.5c2.7 0 3.8 1.2 3.3 3.5-.1.6-.2 1.2-.4 1.8-.5 2.3-2.1 3.5-4.9 3.5h-25c-11.1 0-18 4.7-21 14.1l-4.9 15.8h62.4l1.8-10.5h-47.9l1.5-5.3c.7-2.3 2.4-3.5 5.2-3.5h25.6c11.4 0 17.9-4.7 19.4-14.1l.3-1.8c1.8-9.3-2.7-14-13.2-14h0zm59.6 0H456c-13.2 0-20.7 5.9-22.5 17.6l-2.1 14.1c-1.8 11.7 4.8 17.6 19.7 17.6h17.8c14.9 0 22.4-5.9 22.5-17.6l.1-14.1c.1-11.7-6.5-17.6-19.6-17.6h0zm6.6 31.7c-.2 4.7-3.2 7-9 7h-17.4c-5.8 0-8.4-2.3-7.9-7l1.7-14.1c.6-4.7 3.6-7 9-7h16.3c5.4 0 8 2.3 7.8 7l-.5 14.1zm34.6 7l-.2-5.3c-.1-2.3 1.3-3.5 4.1-3.5h25.6c11.4 0 16.4-4.7 15-14.1l-.3-1.8c-1.4-9.4-7.4-14-18-14h-23.8c-10.5 0-15.8 4.7-15.7 14h12.3c-.1-2.3 1.2-3.5 3.9-3.5h24.5c2.7 0 4.2 1.2 4.5 3.5.1.6.1 1.2.2 1.8.3 2.3-1 3.5-3.7 3.5h-25c-11 0-16.6 4.7-16.5 14.1l.2 15.8h62.4l-1.6-10.5h-47.9zm69.6 0l-1-5.3c-.5-2.3.7-3.5 3.6-3.5h25.6c11.4 0 15.7-4.7 12.7-14.1-.2-.6-.4-1.2-.5-1.8-2.9-9.4-9.7-14-20.2-14h-23.8c-10.5 0-15 4.7-13.5 14h12.3c-.5-2.3.7-3.5 3.4-3.5h24.5c2.7 0 4.4 1.2 5 3.5.2.6.3 1.2.5 1.8.6 2.3-.4 3.5-3.2 3.5h-25c-11 0-15.8 4.7-14.3 14.1l2.7 15.8h62.4l-3.2-10.5h-48z" fill="#1eff90"/><defs ><path id="B" d="M298.1,688.9h31.1V720h-31.1V688.9z"/><path id="C" d="M267.1,720h31.1v31.1h-31.1V720z"/><path id="D" d="M360.3,782.1h31.1v31.1h-31.1V782.1z"/><path id="E" d="M577.6,751h31.1v31.1h-31.1V751z"/><path id="F" d="M329.2,657.9h31.1V689h-31.1V657.9z"/><path id="G" d="M921.5,634.1h22.2v22.2h-22.2V634.1z"/><path id="H" d="M839.4 324.9l19.8-7.2 7.2 19.8-19.8 7.2-7.2-19.8z"/><path id="I" d="M742.6 180l15.3-12.9 12.9 15.3-15.3 12.9-12.9-15.3z"/><path id="J" d="M600 97.6l8-17.2 17.2 8-8 17.2-17.2-8z"/><path id="K" d="M133.6 337.4l7.2-19.8 19.8 7.2-7.2 19.8-19.8-7.2z"/><path id="L" d="M229.2 182.5l12.9-15.3 15.3 12.9-12.9 15.3-15.3-12.9z"/><path id="M" d="M374.7 88.4l17.2-8 8 17.2-17.2 8-8-17.2z"/></defs></svg>