<svg xmlns="http://www.w3.org/2000/svg" viewBox="0 0 1148.1 1411.4"><path d="M1115.3 524.8V492h-32.8v-32.8h-32.8v-32.8h-32.8v-32.8h-32.8v-32.8h-32.8V328h-32.8v-32.8h-65.6v-65.6h-32.8v-32.8h-32.8V164h-32.8v-32.8h-32.8V98.4h-32.8V65.6h-32.8V32.8h-32.8V0h-98.4v32.8h-32.8v32.8h-32.8v32.8h-32.8v32.8h-32.8V164h-32.9v32.8H328v32.8h-32.8v65.6h-65.6V328h-32.8v32.8H164v32.8h-32.8v32.8H98.4v32.8H65.6V492H32.8v32.8H0v98.4h32.8V656h32.8v32.8h32.8v32.8h32.8v32.8H164v32.8h32.8V820h32.8v32.8h65.6v65.6H328v32.8h32.8V984h32.8v131.5h-33.3v32.9h-32.9v98.6h-32.9v32.9h-32.7v131.5h624.5v-131.5h-32.9V1247h-32.9v-98.6h-32.9v-32.9h-32.8v-65.8h-.3v-65.6h32.8v-32.8h32.8v-32.8h32.8v-65.6h65.6v-32.8h32.8v-32.8h32.8v-32.8h32.8v-32.8h32.8v-32.9h32.8V656h32.8v-32.8h32.8v-98.4h-32.8zm-557.6 32.8h32.8v32.8h-32.8v-32.8z"/><path d="M360.4 1148.4v98.6h427.3v-98.6H360.4z" fill="#f0f"/><path d="M294.6 1279.8v98.6h558.8v-98.6H294.6z" fill="#fed223"/><g fill="#fedc00"><path d="M360.8 360.8h32.8v32.8h32.8v32.8h32.8v32.8H492V492h32.8v32.8h98.4V492H656v-32.8h32.8v-32.8h32.8v-32.8h32.8v-32.8h32.8V328H820v-98.4h-32.8v-32.8h-32.8V164h-32.8v-32.8h-32.8V98.4H656V65.6h-32.8V32.8h-98.4v32.8H492v32.8h-32.8v32.8h-32.8V164h-32.8v32.8h-32.8v32.8H328V328h32.8v32.8zm721.7 164V492h-32.8v-32.8h-32.8v-32.8h-32.8v-32.8h-32.8v-32.8h-32.8V328h-98.4v32.8h-32.8v32.8h-32.8v32.8h-32.8v32.8h-32.8V492h-32.8v32.8h-32.8v98.4h32.8V656h32.8v32.8h32.8v32.8h32.8v32.8h32.8v32.8h32.8V820h98.4v-32.8h32.8v-32.8h32.8v-32.8h32.8v-32.8h32.8V656h32.8v-32.8h32.8v-98.4h-32.8z"/><path d="M360.8 787.2v-32.8h32.8v-32.8h32.8v-32.8h32.8V656H492v-32.8h32.8v-98.4H492V492h-32.8v-32.8h-32.8v-32.8h-32.8v-32.8h-32.8v-32.8H328V328h-98.4v32.8h-32.8v32.8H164v32.8h-32.8v32.8H98.4V492H65.6v32.8H32.8v98.4h32.8V656h32.8v32.8h32.8v32.8H164v32.8h32.8v32.8h32.8V820H328v-32.8h32.8z"/><path d="M787.3 787.2h-32.8v-32.8h-32.8v-32.8h-32.8v-32.8h-32.8V656h-32.8v-32.8h-98.4V656h-32.8v32.8h-32.8v32.8h-32.8v32.8h-32.8v32.8h-32.9V820H328v98.4h32.8v32.8h32.8V984h32.8v32.8h32.8v32.8H492v32.8h32.8v32.8h98.4v-32.8H656v-32.8h32.8v-32.8h32.8V984h32.8v-32.8h32.8v-32.8H820V820h-32.8l.1-32.8h0z"/></g><g fill="#feb400"><path d="M656.1 492v-32.8h32.8v-32.8h32.8v-32.8h32.8v-32.8h32.8V328h32.8v-32.8h-98.4v-32.8h-32.8v-32.8h-32.8v-32.8h-32.8V164h-32.8v-32.8h32.8V164h32.8v32.8h32.8v32.8h32.8v32.8h65.6v-32.8h-32.8v-32.8h-32.8V164h-32.8v-32.8h-32.8V98.4h-32.8V65.6h-32.8V32.8h-65.6v32.8h-32.8v32.8h-32.8v32.8h-32.8V164h-32.8v32.8h-32.9v32.8H328v65.6h32.8V328h32.8v32.8h32.8v32.8h32.8v32.8H492v32.8h32.8v65.6h32.8v-98.4h-32.8v-32.8H492v-32.8h-32.8V328h-32.8v-32.8h32.8V328H492v32.8h32.8v32.8h32.8v32.8h32.8v98.4h32.8V492h32.9z"/><path d="M1082.5 590.4h-65.6v-32.8h-32.8v-32.8h-32.8V492h-32.8v-32.8h-32.8v-32.8h32.8v32.8h32.8V492h32.8v32.8h32.8v32.8h65.6v-32.8h-32.8V492h-32.8v-32.8h-32.8v-32.8h-32.8v-32.8h-32.8v-32.8h-32.8V328h-65.6v32.8h-32.8v32.8h-32.8v32.8h-32.8v32.8h-32.8V492h-32.8v32.8h-32.8v65.6h32.8v32.8h32.8V656h32.8v32.8h32.8v32.8h32.8v32.8h32.8V820h32.8v-98.4h-32.8v-32.8h-32.8V656h-32.8v-32.8h-32.8v-32.8h32.8v32.8h32.8V656h32.8v32.8h32.8v32.8h32.8V820h32.8v-32.8h32.8v-32.8h32.8v-32.8h32.8v-32.8h32.8V656h32.8v-32.8h32.8v-32.8h-32.8 0zM360.8 787.2v-32.8h32.8v-32.8h32.8v-32.8h32.8V656H492v-32.8h32.8v-32.8h-98.4v-32.8h-32.8v-32.8h-32.8V492H328v-32.8h-32.8v-32.8H328v32.8h32.8V492h32.8v32.8h32.8v32.8H492v-32.8h-32.8V492h-32.8v-32.8h-32.8v-32.8h-32.8v-32.8H328v-32.8h-32.8V328h-65.6v32.8h-32.8v32.8H164v32.8h-32.8v32.8H98.4V492H65.6v32.8H32.8v65.6h32.8v32.8h32.8V656h32.8v32.8H164v32.8h32.8v32.8h32.8V820h32.8v-98.4h-32.8v-32.8h-32.8V656H164v-32.8h-32.8v-32.8H164v32.8h32.8V656h32.8v32.8h32.8v32.8h32.8V820H328v-32.8h32.8 0z"/><path d="M754.5 885.6h-32.8v-32.8h-32.8V820h-32.8v-32.8h-32.8v-32.8h-32.8v-32.8h32.8v32.8h32.8v32.8h32.8V820h32.8v32.8h65.6V820h-32.8v-32.8h-32.8v-32.8h-32.8v-32.8h-32.8v-32.8h-32.8V656h-32.8v-32.8h-65.6V656h-32.8v32.8h-32.8v32.8h-32.8v32.8h-32.8v32.8h-32.9V820H328v65.6h32.8v32.8h32.8v32.8h32.8V984h32.8v32.8H492v32.8h32.8v65.6h32.8v-98.4h-32.8V984H492v-32.8h-32.8v-32.8h-32.8v-32.8h32.8v32.8H492v32.8h32.8V984h32.8v32.8h32.8v98.4h32.8v-32.8H656v-32.8h32.8v-32.8h32.8V984h32.8v-32.8h32.8v-32.8H820v-32.8h-65.5z"/></g><path d="M393.6 295.2h65.6V328H492v32.8h32.8v32.8h32.8v32.8h32.8v-32.8h32.8v-32.8H656V328h32.8v-32.8h32.8v-32.8h-32.8v-32.8H656v-32.8h-32.8V164h-32.8V32.8h-65.6v32.8H492v32.8h-32.8v32.8h-32.8V164h-32.8v32.8h-32.8v32.8H328v65.6h65.6zm590.5 262.4v-32.8h-32.8V492h-32.8v-32.8h-32.8V328h-65.6v32.8h-32.8v32.8h-32.8v32.8h-32.8v32.8h-32.8V492h-32.8v32.8h-32.8v65.6h131.2v32.8h32.8V656h32.8v32.8h32.8v32.8h32.8v-32.8h32.8V656h32.8v-32.8h32.8v-32.8h32.8v-32.8h-32.8 0zM328 656h32.8v-32.8h32.8v-32.8h32.8v-32.8h-32.8v-32.8h-32.8V492H328v-32.8h-32.8V328h-65.6v32.8h-32.8v32.8H164v32.8h-32.8v32.8H98.4V492H65.6v32.8H32.8v65.6H164v32.8h32.8V656h32.8v32.8h32.8v32.8h32.8v-32.8H328V656h0zm360.9 164h-32.8v-32.8h-32.8v-32.8h-32.8V623.2h-65.6V656h-32.8v32.8h-32.8v32.8h-32.8v32.8h-32.8v32.8h-32.9V820H328v65.6h131.2v32.8H492v32.8h32.8V984h32.8v32.8h32.8V984h32.8v-32.8H656v-32.8h32.8v-32.8h32.8v-32.8h-32.8l.1-32.8h0z" fill="#fec323"/><path d="M721.7 328h-32.8v32.8h-32.8v32.8h-32.8v32.8h-32.8V492h32.8v-32.8h32.8v-32.8h32.8v-32.8h32.8v-32.8h32.8V328h32.8v-32.8h-65.6V328zm295.2 262.4v32.8h-32.8V656h-32.8v32.8h-32.8v32.8h-32.8v65.6h32.8v-32.8h32.8v-32.8h32.8v-32.8h32.8V656h32.8v-32.8h32.8v-32.8h-65.6 0zm-590.5 32.8h-32.8V656h-32.8v32.8H328v32.8h-32.8v65.6H328v-32.8h32.8v-32.8h32.8v-32.8h32.8V656h32.8v-32.8H492v-32.8h-65.6v32.8zm295.3 295.2h-32.8v32.8h-32.8V984h-32.8v32.8h-32.8v65.6h32.8v-32.8h32.8v-32.8h32.8V984h32.8v-32.8h32.8v-32.8h32.8v-32.8h-65.6v32.8z" fill="#fe8323"/><g fill="#fff9cd"><path d="M557.7 262.4h32.8v32.8h-32.8zm-164.1 32.8h65.6V328H492v32.8h32.8v32.8h32.8v32.8h32.8v-32.8h32.8v-32.8H656V328h32.8v-32.8h32.8v-32.8h-32.8v-32.8H656v-32.8h-32.8V164h-32.8V32.8h-32.8V164h-32.8v32.8H492v32.8h-32.8v32.8H328v32.8h65.6zm131.3-32.8v-32.8h32.8v-32.8h32.8v32.8h32.8v32.8h32.8v32.8h-32.8V328h-32.8v32.8h-32.8V328h-32.8v-32.8h-32.8v-32.8h32.8 0zm459.2 295.2v-32.8h-32.8V492h-32.8v-32.8h-32.8V328h-32.8v131.2h-32.8V492h-32.8v32.8h-32.8v32.8H623.3v32.8h131.2v32.8h32.8V656h32.8v32.8h32.8v32.8h32.8v-32.8h32.8V656h32.8v-32.8h32.8v-32.8h32.8v-32.8h-32.8 0zm-65.6 32.8v32.8h-32.8V656h-32.8v-32.8h-32.8v-32.8h-32.8v-32.8h32.8v-32.8h32.8V492h32.8v32.8h32.8v32.8h32.8v32.8h-32.8 0zm-65.6-32.8h32.8v32.8h-32.8zM328 656h32.8v-32.8h32.8v-32.8h32.8v-32.8h-32.8v-32.8h-32.8V492H328v-32.8h-32.8V328h-32.8v131.2h-32.8V492h-32.8v32.8H164v32.8H32.8v32.8H164v32.8h32.8V656h32.8v32.8h32.8v32.8h32.8v-32.8H328V656h0zm-65.6 0v-32.8h-32.8v-32.8h-32.8v-32.8h32.8v-32.8h32.8V492h32.8v32.8H328v32.8h32.8v32.8H328v32.8h-32.8V656h-32.8 0z"/><path d="M262.4 557.6h32.8v32.8h-32.8zM688.9 820h-32.8v-32.8h-32.8v-32.8h-32.8V623.2h-32.8v131.2h-32.8v32.8h-32.8V820h-32.8v32.8H328.1v32.8h131.2v32.8h32.8v32.8h32.8V984h32.8v32.8h32.8V984h32.8v-32.8h32.8v-32.8h32.8v-32.8h32.8v-32.8h-32.8V820zm-32.8 65.6h-32.8v32.8h-32.8v32.8h-32.8v-32.8h-32.8v-32.8h-32.8v-32.8h32.8V820h32.8v-32.8h32.8V820h32.8v32.8h32.8v32.8z"/><path d="M557.7 852.8h32.8v32.8h-32.8z"/></g><path d="M320.8 1313.9v30.1h-6v-30.1h6zm24 0h-24v-6h24v6zm-24 36.1v-6h24v6h-24zm59.9-42v42h-6v-18h-18.1v18h-6v-42h6v18h18.1v-18h6zm35.9 5.9v36h-6v-18h-18.1v18h-6v-36h6v12h18.1v-12h6zm-6 0h-18.1v-6h18.1v6zm41.8 0v36h-6v-18h-18.1v18h-6v-36h6v12h18.1v-12h6zm-5.9 0h-18.1v-6h18.1v6zm23.9 0v6.1h-6.1v30h-6v-42h6v6l6.1-.1h0zm5.9 6.1v5.9h-6v-5.9h6zm0 5.9h6.1v6.1h-6.1v-6.1zm6.1-5.9h6v5.9h-6v-5.9zm17.9-12v42h-6v-30h-6v-6.1h6v-6l6 .1h0zm11.9 17.9h18.1v6.1h-18.1v18h-6v-42h24v6h-18.1l.1 11.9h0zm24-12v12h-6v-12h6zm17.9 0v30.1h6v6h-18v-6h6v-30.1h-6v-6h18v6h-6zm17.8 0v30.1h-6v-30.1h6zm18.1 0h-18.1v-6H590v6zm-18.1 30.1H590v6h-18.1v-6zm24-30.1v30.1h-6v-30.1h6zm17.9 6.1v5.9h-6.1v24h-6v-42h6v12l6.1.1h0zm6 5.9v6.1h-6v-6.1h6zm12-17.9v42h-6v-12h-6.1v-6h6.1v-24h6zm35.8 5.9v12h-5.9v-12h5.9zm-5.9 30.1h24v6h-24v-6zm29.9-30.1h-24v-6h24v6zm-24 18.1v-6.1h18.1v6.1h-18.1zm18.1 12v-12h5.9v12h-5.9zm41.8-36v12h-5.9v-6.1h-24v-6l29.9.1h0zm-29.9 30h5.9v6h24v6h-30l.1-12h0zm5.9-6h6.1v6h-6.1v-6zm6.1-6.1h6v6.1h-6v-6.1zm5.9-5.9h6.1v5.9h-6.1v-5.9zm29.9 0v5.9h-6.1v24h-6v-42h6v12l6.1.1h0zm6 5.9v6.1h-5.9v-6.1h5.9zm12-17.9v42h-6v-12h-6.1v-6h6.1v-24h6zm35.8 0v24h-5.9v-24h5.9zm24 0v42h-5.9v-12h-18.1v-6h18.1v-24h5.9z" stroke="#000" stroke-width=".418" stroke-miterlimit="10"/><path d="M453.1 1197v6.4h-6.4v19h-6.3V1178h6.3v19h6.4zm6.3 0h-6.3v-6.3h6.3v6.3zm-6.3 12.7v-6.3h6.3v6.3h-6.3zm12.7-19h-6.4v-6.4h6.4v6.4zm-6.4 25.4v-6.4h6.4v6.4h-6.4zm12.7-31.8h-6.3v-6.3h6.3v6.3zm-6.3 38.1v-6.3h6.3v6.3h-6.3zm29.8-38.1v31.8h6.3v6.3h-19v-6.3h6.3v-31.8h-6.3v-6.3h19v6.3h-6.3zm29.7 6.4v6.3h-6.4v25.4h-6.3V1178h6.3v12.7h6.4zm6.3 6.3v6.4h-6.3v-6.4h6.3zm12.7-19v44.4H538v-12.7h-6.4v-6.3h6.4V1178h6.3zm17 6.3v12.7H555v-12.7h6.3zm-6.3 31.8h25.4v6.3H555v-6.3zm31.7-31.8h-25.4v-6.3h25.4v6.3zm-25.4 19.1v-6.4h19.1v6.4h-19.1zm19.1 12.7v-12.7h6.3v12.7h-6.3zm48.7-38.1v44.4h-6.3v-19h-19.1v19h-6.3V1178h6.3v19h19.1v-19h6.3zm23.5 6.3v31.8h6.3v6.3h-19v-6.3h6.3v-31.8h-6.3v-6.3h19v6.3h-6.3zm23.3 12.7H695v6.4h-19.1v19h-6.3V1178H695v6.3h-19.1v12.7h0zm25.4-12.7v12.7H695v-12.7h6.3z" fill="#fefbe2"/></svg>