<svg xmlns="http://www.w3.org/2000/svg" xmlns:xlink="http://www.w3.org/1999/xlink" viewBox="0 0 1148.1 1411.4"><path d="M1115.3 524.8V492h-32.8v-32.8h-32.8v-32.8h-32.8v-32.8h-32.8v-32.8h-32.8V328h-32.8v-32.8h-65.6v-65.6h-32.8v-32.8h-32.8V164h-32.8v-32.8h-32.8V98.4h-32.8V65.6h-32.8V32.8h-32.8V0h-98.4v32.8h-32.8v32.8h-32.8v32.8h-32.8v32.8h-32.8V164h-32.9v32.8H328v32.8h-32.8v65.6h-65.6V328h-32.8v32.8H164v32.8h-32.8v32.8H98.4v32.8H65.6V492H32.8v32.8H0v98.4h32.8V656h32.8v32.8h32.8v32.8h32.8v32.8H164v32.8h32.8V820h32.8v32.8h65.6v65.6H328v32.8h32.8V984h32.8v131.5h-33.3v32.9h-32.9v98.6h-32.9v32.9h-32.7v131.5h624.5v-131.5h-32.9V1247h-32.9v-98.6h-32.9v-32.9h-32.8v-65.8h-.3v-65.6h32.8v-32.8h32.8v-32.8h32.8v-65.6h65.6v-32.8h32.8v-32.8h32.8v-32.8h32.8v-32.8h32.8v-32.9h32.8V656h32.8v-32.8h32.8v-98.4h-32.8zm-557.6 32.8h32.8v32.8h-32.8v-32.8z"/><path d="M360.4 1148.4v98.6h427.3v-98.6H360.4z" fill="#22dff0"/><path d="M294.6 1279.8v98.6h558.8v-98.6H294.6z" fill="#f7f5f5"/><g fill="#dad2d2"><path d="M360.8 360.8h32.8v32.8h32.8v32.8h32.8v32.8H492V492h32.8v32.8h98.4V492H656v-32.8h32.8v-32.8h32.8v-32.8h32.8v-32.8h32.8V328H820v-98.4h-32.8v-32.8h-32.8V164h-32.8v-32.8h-32.8V98.4H656V65.6h-32.8V32.8h-98.4v32.8H492v32.8h-32.8v32.8h-32.8V164h-32.8v32.8h-32.8v32.8H328V328h32.8v32.8zm721.7 164V492h-32.8v-32.8h-32.8v-32.8h-32.8v-32.8h-32.8v-32.8h-32.8V328h-98.4v32.8h-32.8v32.8h-32.8v32.8h-32.8v32.8h-32.8V492h-32.8v32.8h-32.8v98.4h32.8V656h32.8v32.8h32.8v32.8h32.8v32.8h32.8v32.8h32.8V820h98.4v-32.8h32.8v-32.8h32.8v-32.8h32.8v-32.8h32.8V656h32.8v-32.8h32.8v-98.4h-32.8z"/><path d="M360.8 787.2v-32.8h32.8v-32.8h32.8v-32.8h32.8V656H492v-32.8h32.8v-98.4H492V492h-32.8v-32.8h-32.8v-32.8h-32.8v-32.8h-32.8v-32.8H328V328h-98.4v32.8h-32.8v32.8H164v32.8h-32.8v32.8H98.4V492H65.6v32.8H32.8v98.4h32.8V656h32.8v32.8h32.8v32.8H164v32.8h32.8v32.8h32.8V820H328v-32.8h32.8z"/><path d="M787.3 787.2h-32.8v-32.8h-32.8v-32.8h-32.8v-32.8h-32.8V656h-32.8v-32.8h-98.4V656h-32.8v32.8h-32.8v32.8h-32.8v32.8h-32.8v32.8h-32.9V820H328v98.4h32.8v32.8h32.8V984h32.8v32.8h32.8v32.8H492v32.8h32.8v32.8h98.4v-32.8H656v-32.8h32.8v-32.8h32.8V984h32.8v-32.8h32.8v-32.8H820V820h-32.8l.1-32.8h0z"/></g><g fill="#c4bebe"><path d="M656.1 492v-32.8h32.8v-32.8h32.8v-32.8h32.8v-32.8h32.8V328h32.8v-32.8h-98.4v-32.8h-32.8v-32.8h-32.8v-32.8h-32.8V164h-32.8v-32.8h32.8V164h32.8v32.8h32.8v32.8h32.8v32.8h65.6v-32.8h-32.8v-32.8h-32.8V164h-32.8v-32.8h-32.8V98.4h-32.8V65.6h-32.8V32.8h-65.6v32.8h-32.8v32.8h-32.8v32.8h-32.8V164h-32.8v32.8h-32.9v32.8H328v65.6h32.8V328h32.8v32.8h32.8v32.8h32.8v32.8H492v32.8h32.8v65.6h32.8v-98.4h-32.8v-32.8H492v-32.8h-32.8V328h-32.8v-32.8h32.8V328H492v32.8h32.8v32.8h32.8v32.8h32.8v98.4h32.8V492h32.9z"/><path d="M1082.5 590.4h-65.6v-32.8h-32.8v-32.8h-32.8V492h-32.8v-32.8h-32.8v-32.8h32.8v32.8h32.8V492h32.8v32.8h32.8v32.8h65.6v-32.8h-32.8V492h-32.8v-32.8h-32.8v-32.8h-32.8v-32.8h-32.8v-32.8h-32.8V328h-65.6v32.8h-32.8v32.8h-32.8v32.8h-32.8v32.8h-32.8V492h-32.8v32.8h-32.8v65.6h32.8v32.8h32.8V656h32.8v32.8h32.8v32.8h32.8v32.8h32.8V820h32.8v-98.4h-32.8v-32.8h-32.8V656h-32.8v-32.8h-32.8v-32.8h32.8v32.8h32.8V656h32.8v32.8h32.8v32.8h32.8V820h32.8v-32.8h32.8v-32.8h32.8v-32.8h32.8v-32.8h32.8V656h32.8v-32.8h32.8v-32.8h-32.8 0zM360.8 787.2v-32.8h32.8v-32.8h32.8v-32.8h32.8V656H492v-32.8h32.8v-32.8h-98.4v-32.8h-32.8v-32.8h-32.8V492H328v-32.8h-32.8v-32.8H328v32.8h32.8V492h32.8v32.8h32.8v32.8H492v-32.8h-32.8V492h-32.8v-32.8h-32.8v-32.8h-32.8v-32.8H328v-32.8h-32.8V328h-65.6v32.8h-32.8v32.8H164v32.8h-32.8v32.8H98.4V492H65.6v32.8H32.8v65.6h32.8v32.8h32.8V656h32.8v32.8H164v32.8h32.8v32.8h32.8V820h32.8v-98.4h-32.8v-32.8h-32.8V656H164v-32.8h-32.8v-32.8H164v32.8h32.8V656h32.8v32.8h32.8v32.8h32.8V820H328v-32.8h32.8 0z"/><path d="M754.5 885.6h-32.8v-32.8h-32.8V820h-32.8v-32.8h-32.8v-32.8h-32.8v-32.8h32.8v32.8h32.8v32.8h32.8V820h32.8v32.8h65.6V820h-32.8v-32.8h-32.8v-32.8h-32.8v-32.8h-32.8v-32.8h-32.8V656h-32.8v-32.8h-65.6V656h-32.8v32.8h-32.8v32.8h-32.8v32.8h-32.8v32.8h-32.9V820H328v65.6h32.8v32.8h32.8v32.8h32.8V984h32.8v32.8H492v32.8h32.8v65.6h32.8v-98.4h-32.8V984H492v-32.8h-32.8v-32.8h-32.8v-32.8h32.8v32.8H492v32.8h32.8V984h32.8v32.8h32.8v98.4h32.8v-32.8H656v-32.8h32.8v-32.8h32.8V984h32.8v-32.8h32.8v-32.8H820v-32.8h-65.5z"/></g><path d="M393.6 295.2h65.6V328H492v32.8h32.8v32.8h32.8v32.8h32.8v-32.8h32.8v-32.8H656V328h32.8v-32.8h32.8v-32.8h-32.8v-32.8H656v-32.8h-32.8V164h-32.8V32.8h-65.6v32.8H492v32.8h-32.8v32.8h-32.8V164h-32.8v32.8h-32.8v32.8H328v65.6h65.6zm590.5 262.4v-32.8h-32.8V492h-32.8v-32.8h-32.8V328h-65.6v32.8h-32.8v32.8h-32.8v32.8h-32.8v32.8h-32.8V492h-32.8v32.8h-32.8v65.6h131.2v32.8h32.8V656h32.8v32.8h32.8v32.8h32.8v-32.8h32.8V656h32.8v-32.8h32.8v-32.8h32.8v-32.8h-32.8 0zM328 656h32.8v-32.8h32.8v-32.8h32.8v-32.8h-32.8v-32.8h-32.8V492H328v-32.8h-32.8V328h-65.6v32.8h-32.8v32.8H164v32.8h-32.8v32.8H98.4V492H65.6v32.8H32.8v65.6H164v32.8h32.8V656h32.8v32.8h32.8v32.8h32.8v-32.8H328V656h0zm360.9 164h-32.8v-32.8h-32.8v-32.8h-32.8V623.2h-65.6V656h-32.8v32.8h-32.8v32.8h-32.8v32.8h-32.8v32.8h-32.9V820H328v65.6h131.2v32.8H492v32.8h32.8V984h32.8v32.8h32.8V984h32.8v-32.8H656v-32.8h32.8v-32.8h32.8v-32.8h-32.8l.1-32.8h0z" fill="#e1dcdc"/><path d="M721.7 328h-32.8v32.8h-32.8v32.8h-32.8v32.8h-32.8V492h32.8v-32.8h32.8v-32.8h32.8v-32.8h32.8v-32.8h32.8V328h32.8v-32.8h-65.6V328zm295.2 262.4v32.8h-32.8V656h-32.8v32.8h-32.8v32.8h-32.8v65.6h32.8v-32.8h32.8v-32.8h32.8v-32.8h32.8V656h32.8v-32.8h32.8v-32.8h-65.6 0zm-590.5 32.8h-32.8V656h-32.8v32.8H328v32.8h-32.8v65.6H328v-32.8h32.8v-32.8h32.8v-32.8h32.8V656h32.8v-32.8H492v-32.8h-65.6v32.8zm295.3 295.2h-32.8v32.8h-32.8V984h-32.8v32.8h-32.8v65.6h32.8v-32.8h32.8v-32.8h32.8V984h32.8v-32.8h32.8v-32.8h32.8v-32.8h-65.6v32.8z" fill="#919191"/><g fill="#fff"><path d="M557.7 262.4h32.8v32.8h-32.8zm-164.1 32.8h65.6V328H492v32.8h32.8v32.8h32.8v32.8h32.8v-32.8h32.8v-32.8H656V328h32.8v-32.8h32.8v-32.8h-32.8v-32.8H656v-32.8h-32.8V164h-32.8V32.8h-32.8V164h-32.8v32.8H492v32.8h-32.8v32.8H328v32.8h65.6zm131.3-32.8v-32.8h32.8v-32.8h32.8v32.8h32.8v32.8h32.8v32.8h-32.8V328h-32.8v32.8h-32.8V328h-32.8v-32.8h-32.8v-32.8h32.8 0zm459.2 295.2v-32.8h-32.8V492h-32.8v-32.8h-32.8V328h-32.8v131.2h-32.8V492h-32.8v32.8h-32.8v32.8H623.3v32.8h131.2v32.8h32.8V656h32.8v32.8h32.8v32.8h32.8v-32.8h32.8V656h32.8v-32.8h32.8v-32.8h32.8v-32.8h-32.8 0zm-65.6 32.8v32.8h-32.8V656h-32.8v-32.8h-32.8v-32.8h-32.8v-32.8h32.8v-32.8h32.8V492h32.8v32.8h32.8v32.8h32.8v32.8h-32.8 0zm-65.6-32.8h32.8v32.8h-32.8zM328 656h32.8v-32.8h32.8v-32.8h32.8v-32.8h-32.8v-32.8h-32.8V492H328v-32.8h-32.8V328h-32.8v131.2h-32.8V492h-32.8v32.8H164v32.8H32.8v32.8H164v32.8h32.8V656h32.8v32.8h32.8v32.8h32.8v-32.8H328V656h0zm-65.6 0v-32.8h-32.8v-32.8h-32.8v-32.8h32.8v-32.8h32.8V492h32.8v32.8H328v32.8h32.8v32.8H328v32.8h-32.8V656h-32.8 0z"/><path d="M262.4 557.6h32.8v32.8h-32.8zM688.9 820h-32.8v-32.8h-32.8v-32.8h-32.8V623.2h-32.8v131.2h-32.8v32.8h-32.8V820h-32.8v32.8H328.1v32.8h131.2v32.8h32.8v32.8h32.8V984h32.8v32.8h32.8V984h32.8v-32.8h32.8v-32.8h32.8v-32.8h32.8v-32.8h-32.8V820zm-32.8 65.6h-32.8v32.8h-32.8v32.8h-32.8v-32.8h-32.8v-32.8h-32.8v-32.8h32.8V820h32.8v-32.8h32.8V820h32.8v32.8h32.8v32.8z"/><path d="M557.7 852.8h32.8v32.8h-32.8z"/></g><path d="M540.1 1178v12.7h-6.3V1178h6.3zm-6.3 31.7h6.3v12.7h-6.3v-12.7zm12.7-19v6.3h-6.4v-6.3h6.4zm-6.4 12.7h6.4v6.3h-6.4v-6.3zm12.7-6.4v6.4h-6.3v-6.4h6.3zm6.4 0h-6.4v-6.3h6.4v6.3zm-6.4 12.7v-6.3h6.4v6.3h-6.4zm12.7-19h-6.3V1178h6.3v12.7zm-6.3 31.7v-12.7h6.3v12.7h-6.3zM581 1197h19.1v6.4H581v19h-6.3V1178h25.4v6.3H581v12.7zm25.4-12.7v12.7h-6.3v-12.7h6.3z"/><use xlink:href="#A"/><use xlink:href="#F"/><use xlink:href="#B"/><use xlink:href="#C"/><use xlink:href="#D"/><use xlink:href="#E"/><use xlink:href="#G"/><g fill="none" stroke="#000" stroke-miterlimit="10" stroke-width=".418"><use xlink:href="#A"/><use xlink:href="#F"/><use xlink:href="#B"/><use xlink:href="#C"/><use xlink:href="#D"/><use xlink:href="#E"/><use xlink:href="#G"/></g><defs><path id="A" d="M424.5 1304.2v7h-28.2v-7h28.2zm-21.1 28.2v14.1h28.2v7h-35.2v-21.1h7zm21.1 0h-21.2v-7.1h21.2v7.1zm7-7.1h-7v-14.1h7v14.1z"/><path id="B" d="M487.6 1346.4h-7v-21.2h7v21.2zm0-21.1v-7h21.2v-14.1h7v49.2h-28.2v-7h21.2v-21.2h-21.2z"/><path id="C" d="M557.9 1311.2v14.1h-7v-14.1h7zm-7 35.2h28.2v7h-28.2v-7zm35.2-35.2h-28.2v-7h28.2v7zm-28.2 21.2v-7.1h21.2v7.1h-21.2zm21.2 14v-14.1h7v14.1h-7z"/><path id="D" d="M628.2 1304.2v14.1h-7v-7.1H593v-7h35.2zm-35.1 35.2h7v7.1h28.2v7h-35.2v-14.1zm7-7h7.1v7h-7.1v-7zm7.1-7.1h7v7.1h-7v-7.1zm7-7h7.1v7h-7.1v-7z"/><path id="E" d="M649.3 1318.3v7h-7.1v28.2h-7v-49.2h7v14.1h7.1zm7 7v7.1h-7v-7.1h7zm14.1-21.1v49.2h-7v-14.1h-7.1v-7h7.1v-28.2h7z"/><path id="F" d="M445.5 1325.3v28.2h-7v-35.2h28.2v7h-21.2zm28.2 0v28.2h-7v-28.2h7z"/><path id="G" d="M712.5 1304.2v28.2h-7v-28.2h7zm28.2 0v49.2h-7v-14.1h-21.2v-7h21.2v-28.2h7z"/></defs></svg>