<svg xmlns="http://www.w3.org/2000/svg" viewBox="0 0 34 18"><path d="M32 8V6h-2V4h-4V2h-4V0H12v2H8v2H4v2H2v2H0v10h2v-1h2v-1h2v-1h2v-1h6v-1h3v-1h2v-1h2v-1h1V9h1V8h1v1h1v1h1v1h1v1h1v1h1v1h1v1h1v1h1v2h2V8z" fill="#301800"/><path d="M32 9V8h-1V7h-1V6h-1V5h-3V4h-1V3h-3V2h-1V1h-8v1h-1v1H9v1H8v1H5v1H4v1H3v1H2v1H1v8h1v-1h2v-1h2v-1h2v-1h6v-1h3v-1h2v-1h2V9h1V8h1V7h1v1h1v1h1v1h1v1h1v1h1v1h1v1h1v1h1v1h1V9z" fill="#462300"/><path d="M21 4h-2V3h-6v1h5v1h2v1h2V5h-1V4zm-2 3h-2V6h-3V5H7v1H6v1h2V6h5v1h3v1h2v1h2V8h-1V7zm-4 2h-3V8H6v1H4v1H3v1h2v-1h2V9h4v1h3v1h2v-1h-1V9zm-3 2H6v1H4v1H3v1h2v-1h2v-1h4v1h2v-1h-1v-1zm19 0v-1h-1V9h-1V8h-1V7h-1V6h-2v1h1v1h1v1h1v1h1v1h1v1h1v1h1v-2h-1z" fill="#965c43"/></svg>