<svg xmlns="http://www.w3.org/2000/svg" viewBox="0 0 26 21"><path d="M0 9v6h1v1h1v1h1v1h10v1h5v1h4v1h4V10h-1V8h-1V6h-2V4h-2V2h-4V0h-6v2H6v2H4v2H2v2H1v1H0z" fill="#301800"/><path d="M2 9V8h1V7h1V6h1V5h2V3h3V2h1V1h4v1h1v1h3v1h1v1h1v1h1v1h1v1h1v2h1v10h-3v-1h-4v-1h-5v-1H3v-1H2v-1H1V9h1z" fill="#462300"/><g fill="#965c43"><path d="M3 9h1v1H3z"/><path d="M3 10v4h9v1H3v-1H2v-4h1z"/><path d="M17 15v1h-5v-1h5z"/><path d="M21 16v1h-4v-1h4z"/><path d="M23 17v1h1v1h-1v-1h-2v-1h2zM6 6h1v1H6z"/><path d="M12 11v1H6v-1H5V7h1v4h6z"/><path d="M12 13v-1h5v1h-5z"/><path d="M17 14v-1h4v1h-4z"/><path d="M23 15h-2v-1h2v1h1v1h-1v-1zM9 4h1v1H9z"/><path d="M9 8H8V5h1v3z"/><path d="M12 8v1H9V8h3z"/><path d="M12 10V9h5v1h-5z"/><path d="M17 11v-1h4v1h-4z"/><path d="M23 12h-2v-1h2v1h1v1h-1v-1zM12 2h1v1h-1z"/><path d="M12 6h-1V3h1v3z"/><path d="M17 6v1h-5V6h5z"/><path d="M17 8V7h4v1h-4z"/><path d="M23 9h-2V8h2v1h1v1h-1V9zm-9-5V3h3v1h-3z"/><path d="M17 5V4h2v1h-2z"/><path d="M19 6V5h2v1h-2z"/></g></svg>