<svg xmlns="http://www.w3.org/2000/svg" viewBox="0 0 34 20"><path d="M32 8V6h-2V4h-4V2h-4 0V0H12v2h0-4v2H4v2H2v2H0v10h2v1h2v1h26v-1h2v-1h2V8h-2z" fill="#301800"/><path d="M32 9V8h-1V7h-1V6h-1V5h-3V4h-1V3h-3V2h-1V1h-8v1h-1v1H9v1H8v1H5v1H4v1H3v1H2v1H1v8h1v1h2v1h26v-1h2v-1h1V9h-1z" fill="#462300"/><g fill="#965c43"><path d="M19 5v1h2V5h-2z"/><path d="M15 4v1h4V4h-4z"/><path d="M13 5v1h2V5h-2zm-5 6h1v1H8zM7 8v1h2V8H7z"/><path d="M6 9h1v1H6zm2-4v1h2V5H8z"/><path d="M6 6v1h2V6H6zm17 1v1h2V7h-2z"/><path d="M21 6v1h2V6h-2zm-1 2v1h2V8h-2z"/><path d="M18 7v1h2V7h-2zm4-3v1h2V4h-2z"/><path d="M16 6v1h2V6h-2z"/><path d="M14 7v1h2V7h-2z"/><path d="M12 8v1h2V8h-2z"/><path d="M10 9v1h2V9h-2z"/><path d="M9 10h1v1H9zm2-4v1h2V6h-2z"/><path d="M9 7v1h2V7H9zm1-3v1h2V4h-2zm-5 8h1v-2H5v2zM4 7v1h2V7H4z"/><path d="M12 3v1h2V3h-2z"/><path d="M14 2v1h6V2h-6z"/><path d="M20 3v1h2V3h-2zm11 7v2h1v-2h-1zM2 12h1v-2H2v2zm22-7v1h2V5h-2z"/><path d="M30 7h-2V6h-2v1h2v1h2V7z"/><path d="M31 8h-1v2h1V8zM3 10h1V8H3v2zm25 2h1v-2h-1v2zm-3-4v1h2V8h-2z"/><path d="M27 9h1v1h-1zm-5 0v1h2V9h-2z"/><path d="M24 10h1v1h-1z"/><path d="M25 11h1v1h-1z"/></g></svg>