<svg xmlns="http://www.w3.org/2000/svg" viewBox="0 0 26 21"><path d="M25 9V8h-1V6h-2V4h-2V2h-4V0h-6v2c1.3 0-1.4 0-4 0v2H4v2H2v2H1v2H0v11h4v-1h4v-1h5v-1h10v-1h1v-1h1v-1h1V9h-1z" fill="#301800"/><path d="M24 9V8h-1V7h-1V6h-1V5h-2V3h-3V2h-1V1h-4v1h-1v1H7v1H6v1H5v1H4v1H3v1H2v2H1v10h3v-1h4v-1h5v-1h10v-1h1v-1h1V9h-1z" fill="#462300"/><g fill="#965c43"><path d="M22 9h1v1h-1z"/><path d="M23 10v4h-9v1h9v-1h1v-4h-1z"/><path d="M9 15v1h5v-1H9z"/><path d="M5 16v1h4v-1H5z"/><path d="M3 17v1H2v1h1v-1h2v-1H3zM19 6h1v1h-1z"/><path d="M14 11v1h6v-1h1V7h-1v4h-6z"/><path d="M14 13v-1H9v1h5z"/><path d="M9 14v-1H5v1h4z"/><path d="M3 15h2v-1H3v1H2v1h1v-1zM16 4h1v1h-1z"/><path d="M17 8h1V5h-1v3z"/><path d="M14 8v1h3V8h-3z"/><path d="M14 10V9H9v1h5z"/><path d="M9 11v-1H5v1h4z"/><path d="M3 12h2v-1H3v1H2v1h1v-1zM13 2h1v1h-1z"/><path d="M14 6h1V3h-1v3z"/><path d="M9 6v1h5V6H9z"/><path d="M9 8V7H5v1h4z"/><path d="M3 9h2V8H3v1H2v1h1V9zm9-5V3H9v1h3z"/><path d="M9 5V4H7v1h2z"/><path d="M7 6V5H5v1h2z"/></g></svg>