<svg xmlns="http://www.w3.org/2000/svg" xmlns:xlink="http://www.w3.org/1999/xlink" viewBox="0 0 1082 1082"><circle cx="541" cy="541" r="541" fill="#050"/><g fill="#0f0"><circle cx="541" cy="541" r="441.6"/><path d="M407.8 68.9l19.4-4.9 1.7 6.5-19.4 4.9 4.9 19.3-6.4 1.6-11.4-45.1 25.8-6.5 1.6 6.4-19.4 4.9 3.2 12.9zm22.6-19.4l3.3 12.9-6.4 1.6-3.3-12.9 6.4-1.6zm47.4 25.3l1.1 6.5-32.8 5.4-7.6-45.9 6.5-1.1 6.5 39.4 26.3-4.3zm37-37l3.1 39.8-6.6.5-1.6-19.9-20 1.6 1.6 19.9-6.6.5-3.1-39.8 6.6-.5 1 13.3 19.9-1.6-1-13.3 6.7-.5zm-6.6.6L488.3 40l-.5-6.6 19.9-1.6.5 6.6zm49.1-1l-.2 39.9h-6.6l.1-19.9-20-.1-.1 19.9h-6.6l.2-39.9h6.6l-.1 13.3 20 .1.1-13.3h6.6zm-6.6 0l-20-.1v-6.6l20 .1v6.6zm23.3-5.8l-1.8 19.8-6.6-.6 1.8-19.8 6.6.6zm4.9 20.5l-.6 6.7-6.7-.6.6-6.7 6.7.6zm-.6 6.7l6.6.6-1.8 19.8-6.6-.6 1.8-19.8zm7.2-6.1l6.7.6-.6 6.7-6.7-.6.6-6.7zm15-18.6l-1.8 19.8-6.6-.6 1.8-19.8 6.6.6zm15.5 8.7l-2.3 13.1 26.2 4.7-1.2 6.6-26.2-4.7-2.3 13.1 26.2 4.7-1.2 6.5-32.7-5.8 8.2-45.8 32.7 5.8-1.2 6.5-26.2-4.7zm57.7 26.3l-1.7 6.5 6.4 1.7-5.2 19.2-6.4-1.7 5.2-19.2-19.3-5.2-5.2 19.2-6.4-1.7 12.1-45 25.7 6.9-1.7 6.4-19.3-5.2-3.5 12.9 19.3 5.2zm0 0l3.5-12.9 6.4 1.7-3.5 12.9-6.4-1.7zm32.9 31.7l7.6-18.5 18.4 7.5-7.6 18.5-18.4-7.5zm48.8 21.4l23.2 13.1-3.3 5.8-23.2-13.1 3.3-5.8zm22.2-25.8L771 108l-5.8-3.3 6.6-11.6 5.8 3.3zm-9.9 17.5l3.3-5.8 17.4 9.9-3.3 5.8-17.4-9.9zm33.1-4.3l-23.2-13.1 3.3-5.8 23.2 13.1-3.3 5.8zm-22.2 25.7l6.6-11.6 5.8 3.3-6.6 11.6-5.8-3.3zm15.3 1l5.5 3.7-3.8 5.5 22 15-3.7 5.4-27.4-18.8 7.4-10.8zm9.2-1.7l5.5 3.8-3.7 5.5-5.5-3.8 3.7-5.5zm9.3-1.8l5.5 3.7-3.8 5.5-5.4-3.7 3.7-5.5zm27.7-5.1l-7.5 11-5.4-3.7 3.8-5.5-22-15 3.7-5.5 27.4 18.7zm-18.5 3.4l5.5 3.8-3.7 5.5-5.5-3.8 3.7-5.5zm28.7 21.1l-4.2 5.1-5.2-4.2-16.9 20.6-5.1-4.2 29.5-36 5.1 4.2-8.4 10.3 5.2 4.2zm23.9 2.4l-29.5 36-5.1-4.2 8.4-10.3-5.2-4.2 4.2-5.1 5.2 4.2 16.9-20.6 5.1 4.2zm-23 6.9l-4.2 5.2-5.1-4.2 4.2-5.2 5.1 4.2zm74.1 43.8l-34.2 31.5-4.5-4.9 9.8-9-13.5-14.7 4.9-4.5 13.6 14.7 19.6-18 4.3 4.9zm-18-19.6l-19.6 18-4.5-4.9 19.6-18 4.5 4.9zm9.7 72.8l16.3-11.6 11.5 16.3-16.2 11.5-11.6-16.2zm60 58.5l-5.9 3.1 3.1 5.8-17.6 9.3-3.1-5.8 17.6-9.3-9.4-17.7-17.6 9.3-3.1-5.8 41.1-21.8 12.5 23.6-5.8 3.1-9.4-17.7-11.8 6.2L977 317zm0 0l11.8-6.2 3.1 5.8-11.8 6.2-3.1-5.8zm32.1 38.6l-36.7 15.6-2.6-6.1 18.3-7.8-7.8-18.4-18.3 7.8-2.6-6.1 36.7-15.6 2.6 6.1-12.2 5.2 7.8 18.4 12.2-5.2 2.6 6.1zm-2.6-6.1l-7.8-18.4 6.1-2.6 7.8 18.4-6.1 2.6zm16.6 45.8l-37.8 12.9-2.1-6.3 18.9-6.4-6.5-18.9-18.9 6.4-2.1-6.3 37.8-12.9 2.1 6.3-12.6 4.3 6.5 19 12.6-4.3 2.1 6.2zm-2.1-6.2l-6.5-18.9 6.3-2.1 6.5 18.9-6.3 2.1zm1.5 30.1l-6.4 1.5-1.6-6.5-25.9 6.2-1.5-6.4 45.2-10.9 1.5 6.4-12.9 3.1 1.6 6.6zm17.6 16.2l-45.2 10.9-1.5-6.4 12.9-3.1-1.6-6.5 6.4-1.6 1.6 6.5 25.9-6.2 1.5 6.4zm-22.5-8.3l-6.5 1.6-1.5-6.4 6.5-1.6 1.5 6.4zm7.1 34.3l-6.6 1-1-6.6-19.7 3-1-6.5 46-7 1 6.5-19.7 3 1 6.6zm-24.4 17.2l6.5-1 1 6.5-6.5 1-1-6.5zm5.6-7.6l6.6-1 1 6.6-6.6 1-1-6.6zm5.6-7.6l6.5-1 1 6.5-6.5 1-1-6.5zm14.2 4.6l-1-6.5 6.5-1 1 6.5-6.5 1zm7.5 5.6l-1-6.6 6.6-1 1 6.6-6.6 1zm7.6 5.5l-1-6.5 6.5-1 1 6.5-6.5 1zm1.7 15.9l-13.3.9 1.8 26.6-6.7.4-1.8-26.6-13.3.9 1.8 26.6-6.6.4-2.2-33.1 46.4-3.1 2.2 33.2-6.6.4-1.7-26.6zm-31.2 42l-.4 20-6.6-.1.5-26.6 46.5 1-.5 26.6-6.6-.1.4-20-33.3-.8zm32.8 27.3l-33.3-.7.1-6.6 33.3.7-.1 6.6zm-36.1 32.8l19.8 2.9-2.9 19.7-19.8-3 2.9-19.6zm8.3 64.4l-5.5 19.3-6.5-1.8 5.5-19.3-19.2-5.5 1.8-6.4 44.8 12.7-7.3 25.6-6.4-1.8 5.5-19.3-12.7-3.5zm5.5 29.2l-12.8-3.6 1.8-6.4 12.8 3.6-1.8 6.4zm-45.6 28.5l-6.2-2.3 11.7-31.1 43.6 16.4-2.3 6.2-37.4-14.1-9.4 24.9zm13.4 50.5l-36-17.2 2.8-6 18 8.6 8.6-18-18-8.6 2.8-6 36 17.2-2.8 6-12-5.7-8.6 18.1 12 5.7-2.8 5.9zm2.9-5.9l8.6-18.1 6 2.8-8.6 18.1-6-2.8zm-23.7 43l-34.5-20.1 3.3-5.7 17.2 10 10.1-17.3-17.2-10.1 3.3-5.7 34.5 20.1-3.3 5.7-11.5-6.7-10.1 17.3 11.5 6.7-3.3 5.8zm3.4-5.7l10.1-17.3 5.7 3.3-10.1 17.3-5.7-3.3zm-32.2 13l-3.8 5.4-16.3-11.4 3.8-5.4 16.3 11.4zm1.7 9.2l-3.9 5.5-5.5-3.8 3.8-5.5 5.6 3.8zm8.6 22.4L934 834.3l3.8-5.4 16.3 11.4-3.8 5.4zm-4.8-27.8l-5.5-3.8 3.9-5.5 5.5 3.9-3.9 5.4zm20.1 6l-16.3-11.4 3.8-5.4 16.3 11.4-3.8 5.4zM935 854.7l-10.2-8.5-17.1 20.4-5.1-4.3 17.1-20.4-10.2-8.5-17.1 20.4-5.1-4.2 21.3-25.5 35.7 29.9-21.3 25.5-5.1-4.2 17.1-20.6zm-51.4 37.1l-4.8-4.7-4.7 4.7-14.1-14.1 4.7-4.7 14.1 14 14.1-14.2-14.1-14 4.7-4.7 33.1 32.8-18.8 18.9-4.7-4.7 14.1-14.2-9.5-9.4-14.1 14.3zm0 0l9.5 9.4-4.7 4.7-9.5-9.4 4.7-4.7zm-43.9 12.7l12.3 15.8-15.7 12.2-12.3-15.8 15.7-12.2zm-66 45.3l6.7 11.5-5.7 3.4-6.8-11.5 5.8-3.4zm22.9-13.5l-22.9 13.5-3.4-5.7 22.9-13.5 3.4 5.7zm1.1 14.8l3.4 5.8-17.2 10.1-3.4-5.8 17.2-10.1zm-12.8 30.8l22.9-13.5 3.4 5.7-22.9 13.5-3.4-5.7zm22.9-13.5l-6.8-11.5 5.7-3.4 6.8 11.5-5.7 3.4zm-42.6-5.9l-6 2.9-2.9-6-24 11.5-2.9-6 30-14.3 5.8 11.9zm-15.6 44.3l-5.7-12 6-2.8 2.9 6 24-11.5 2.9 6-30.1 14.3zm6.3-17.8l-6 2.9-2.8-6 6-2.9 2.8 6zm3.1-8.8l-5.9 2.9-2.9-6.1 6-2.8 2.8 6zm3.1-8.9l-6 2.9-2.8-6 6-2.9 2.8 6zm-52.7 51.5l-16.5-43.5 6.2-2.3 4.7 12.4 6.3-2.4 2.3 6.2-6.3 2.4 9.5 24.9-6.2 2.3zm5.4-23.4l-2.4-6.3 6.2-2.3 2.4 6.3-6.2 2.3zm8.5 3.9l-2.3-6.2 6.3-2.4-9.4-24.9 6.2-2.3 16.5 43.5-6.2 2.3-4.7-12.4-6.4 2.4zm-83.5 38.5l-10.3-45.4 6.5-1.5 2.9 13 19.5-4.4 1.5 6.5-19.5 4.4 5.9 26-6.5 1.4zm26-5.8l-5.9-26 6.4-1.5 5.9 26-6.4 1.5zm-67.8-27.9l1.9 19.9-19.8 1.9-1.9-19.9 19.8-1.9zm-80.7 22.9l-.5 13.3-6.6-.2.5-13.3 6.6.2zm0 0l.2-6.7-6.6-.2.7-19.9 6.6.2-.7 19.9 20 .7.7-19.9 6.6.2-1.6 46.5-26.6-.9.2-6.6 20 .7.5-13.3-20-.7zm-49.5 8.7l4.8-39.7 6.6.8-2.4 19.8 19.9 2.4 2.4-19.8 6.6.8-4.8 39.7-6.6-.8 1.6-13.2-19.9-2.4-1.6 13.2-6.6-.8zm6.6.8l19.9 2.4-.8 6.6-19.9-2.4.8-6.6zm-48.5-8.8l8.1-39.1 6.5 1.3-4 19.5 19.6 4.1 4-19.5 6.5 1.3-8.1 39.1-6.5-1.3 2.7-13-19.6-4.1-2.7 13-6.5-1.3zm6.5 1.3l19.6 4.1-1.3 6.5-19.6-4.1 1.3-6.5zm-49.3-6.5l13.3-44.6 6.3 1.9-3.8 12.8 6.4 1.9-1.9 6.3-6.4-1.9-7.6 25.5-6.3-1.9zm18.4-15.3l1.9-6.4 6.3 1.9-1.9 6.4-6.3-1.9zm4.5 8.2l1.9-6.3 6.4 1.9 7.6-25.5 6.3 1.9-13.3 44.6-6.3-1.9 3.8-12.7-6.4-2zm-61.1-14.1l6.2 2.4-2.4 6.2-6.2-2.4 2.4-6.2zm8.6-3.8l6.2 2.4-2.4 6.2-6.2-2.4 2.4-6.2zm12.1-31l-2.4 6.1-6.2-2.4 2.4-6.2 6.2 2.5zm-3.4 27.2l6.2 2.4-2.4 6.2-6.2-2.4 2.4-6.2zm7.3-18.6l-2.4 6.2-6.2-2.4 2.4-6.2 6.2 2.4zm3.7 8.6l-2.4 6.2-6.2-2.4 2.4-6.2 6.2 2.4zm-4.9 12.4l2.4-6.2 6.3 2.4 7.2-18.6 6.2 2.4-16.9 43.3-6.2-2.4 7.3-18.6-6.3-2.3zm-38-1.3l5.9-11.9-23.9-11.8 3-6 23.9 11.8 5.9-11.9-23.9-11.8 2.9-5.9 29.8 14.7-20.5 41.8-29.8-14.7 2.9-5.9 23.8 11.6zm-60.9-33.2l17.2-28.5 5.7 3.4-17.2 28.6-5.7-3.5zm40.1-14.8l-17.2-10.3 3.4-5.7 22.8 13.7-24 39.9-22.8-13.7 3.4-5.7 17.2 10.3 17.2-28.5zM259.1 918l-12.4 15.7-15.6-12.4 12.4-15.7 15.6 12.4zm-59.9-24.8l-14-14.3 4.8-4.7 14 14.3 14.2-13.9 4.6 4.7-33.3 32.5-18.6-19 4.7-4.6 14 14.3 9.6-9.3zm-28.1-9.7l9.5-9.3 4.6 4.7-9.5 9.3-4.6-4.7zm-2.1-53.9l5.1-4.2 21.1 25.7-36 29.6-4.2-5.1 30.9-25.4-16.9-20.6zm-46.7-8l11.4 16.5-5.4 3.8-11.4-16.5 5.4-3.8zm-3.7-5.4l32.9-22.7 3.7 5.4-16.4 11.3 11.4 16.5 16.4-11.3 3.7 5.4-32.9 22.7-3.8-5.4 11-7.6-11.4-16.5-11 7.6-3.6-5.4zm-18.5-31l9.9 17.4-5.7 3.3-9.9-17.4 5.7-3.3zm-3.3-5.7l34.7-19.8 3.3 5.7-17.3 9.9 9.9 17.4 17.3-9.9 3.3 5.7-34.7 19.8-3.3-5.7 11.6-6.6-9.9-17.4-11.6 6.6-3.3-5.7zm-24.5-35.8l18.1-8.4 2.8 6-18.1 8.4-2.8-6zm11.1 24.2l18.1-8.4 2.8 6-18.1 8.4-2.8-6zm12.5-20.4l-2.8-6.1 6.1-2.8 2.8 6.1-6.1 2.8zm2.8 6l6.1-2.8 2.8 6.1-6.1 2.8-2.8-6.1zm6.1-2.9l-2.8-6 18.1-8.4 2.8 6-18.1 8.4zm-32.6-24.3l12.5-4.6-9.1-25 6.3-2.3 9.1 25 12.5-4.6-9.1-25 6.2-2.3 11.4 31.2-43.8 15.9-11.4-31.2 6.2-2.3 9.2 25.2z"/><path d="M65.8 663.3l6.5-1.8-1.7-6.4 19.2-5.2 1.7 6.4-19.2 5.2 5.3 19.3 19.2-5.2 1.7 6.4-44.9 12.3-7-25.7 6.4-1.8 5.3 19.3 12.9-3.5-5.4-19.3zm0 0l-12.9 3.5-1.7-6.4 12.9-3.5 1.7 6.4zm10.8-44.6l-19.8 2.8-2.8-19.7 19.8-2.8 2.8 19.7zm-39.7-86.1l.3 26.6-6.6.1-.3-26.6 6.6-.1zm.3 26.6l13.3-.1.1 6.6-13.3.1-.1-6.6zm20-.2l-6.7.1-.2-20 6.7-.1.2 20zm13.1-20.1L57 539l-.1-6.6 13.3-.1.1 6.6zm.2 26.6l-.3-26.6 6.6-.1.3 26.6-6.6.1zm-37.7-75.7l13.3 1-.5 6.6-6.7-.5-2 26.5-6.6-.5 2.5-33.1zM45.1 504l.5-6.7 6.6.5-.5 6.7-6.6-.5zm6.1 7.1l.5-6.6 6.7.5-.5 6.6-6.7-.5zm6.2 7.2l.5-6.7 6.6.5-.5 6.7-6.6-.5zm6.1 7.1l.5-6.6 6.7.5 2-26.5 6.6.5-2.5 33.1-13.3-1zM49 468.6l6.5 1.1-1.1 6.6 26.3 4.2-1.1 6.5-46-7.4 1-6.5 13.1 2.1 1.3-6.6zm-10-21.8l46 7.4-1.1 6.5-13.1-2.1-1.1 6.6-6.5-1.1 1.1-6.6-26.3-4.2 1-6.5zm17.6 16.3l6.6 1.1-1.1 6.5-6.6-1.1 1.1-6.5zm-7.1-60.6l25.4 7.9-2 6.3-25.4-7.9 2-6.3zm7.9-25.5l44.4 13.9-2 6.3-12.7-4-6 19.1-6.3-2 6-19.1-25.4-7.9 2-6.3zm50.1-19.5l-18.2-8.3 8.3-18.1 18.2 8.4-8.3 18zm20.4-81.1l5.7 3.5 3.5-5.6 16.9 10.5-3.5 5.6-16.9-10.5-10.6 17 16.9 10.5-3.5 5.6-39.5-24.6 14.1-22.6 5.6 3.5-10.6 17 11.3 7 10.6-16.9zm0 0l-11.3-7 3.5-5.6 11.3 7-3.5 5.6zm13.2-42l-12 16-5.3-3.9 12-16.1 5.3 4zm4-5.3l32 23.8-4 5.3-16-11.9-12 16.1 16 11.9-3.9 5.3-32-23.9 3.9-5.3 10.7 8 11.9-16.1-10.7-7.9 4.1-5.3zm23.3-27.3l-13.3 15-5-4.4 13.3-15 5 4.4zm4.3-5l29.9 26.5-4.4 5-14.9-13.2-13.3 15 14.9 13.2-4.4 5-29.9-26.5 4.4-5 10 8.8 13.3-15-10-8.8 4.4-5zm20.7-11.2l4.6 4.8-4.9 4.6 18.4 19.3-4.8 4.6-32.1-33.7 4.8-4.6 9.2 9.6 4.8-4.6zm5.2-23.4l32.1 33.7-4.8 4.6-9.2-9.6-4.9 4.6-4.6-4.8 4.9-4.6-18.3-19.3 4.8-4.6zm4.1 23.6l4.6 4.9-4.8 4.6-4.6-4.9 4.8-4.6zm26.2-23.3l4.2 5.2-5.2 4.2 12.5 15.6-5.2 4.1-29.1-36.4 5.2-4.1 12.3 15.6 5.3-4.2zm5.1-4.1l-5.2 4.1-4.1-5.2 5.2-4.1 4.1 5.2zm1.1-9.4l-5.2 4.2-4.2-5.2 5.2-4.2 4.2 5.2zm1-9.3l-5.2 4.1-4.1-5.2 5.2-4.1 4.1 5.2zm1.1 33.2l-4.1-5.1 5.2-4.1 4.1 5.2-5.2 4zm9.3 1.1l-4.2-5.2 5.2-4.2 4.2 5.2-5.2 4.2zm9.4 1l-4.1-5.2 5.2-4.1 4.1 5.2-5.2 4.1zm-6.9-44.9l7.4 11.1 22.1-14.8 3.7 5.6-22.1 14.8 7.4 11.1 22.1-14.8 3.7 5.5-27.6 18.5-25.9-38.7 27.6-18.5 3.7 5.5-22.1 14.7zm51.9 6.1l17.5-9.7 3.2 5.8-23.3 12.9-22.6-40.7L299 91.6l3.2 5.8-17.5 9.7 16.2 29.1zm7.1-42.1l16.2 29.2-5.8 3.2-16.2-29.2 5.8-3.2zm46.5 14.9l-7.4-18.6 18.5-7.3 7.4 18.6-18.5 7.3z"/></g><path d="M862.7 509.3v-19.5h-19.5v-19.5h-19.5v-19.5h-19.5v-19.5h-19.5v-19.5h-19.5v-19.5h-19.5v-19.5h-39v-39h-19.5v-19.5h-19.5v-19.5h-19.5v-19.5h-19.5v-19.5h-19.5v-19.5h-19.5v-19.6h-19.5v-19.5h-58.5v19.5h-19.5v19.5h-19.5v19.5h-19.5v19.5h-19.5v19.5h-19.5v19.5h-19.5v19.5h-19.5v39h-39v19.5h-19.5v19.5h-19.5v19.5h-19.5v19.5h-19.5v19.5h-19.5v19.5h-19.5v19.5h-19.5v58.5h19.5v19.5h19.5v19.5h19.5v19.5h19.5v19.5h19.5v19.5h19.5v19.5h19.5v19.5h39v39h19.5v19.5h19.5v19.5h19.5v19.5h19.5v19.5h19.5v19.5h19.5v19.5h19.5v19.5h58.5v-19.5h19.5v-19.5h19.5v-19.5h19.5v-19.5h19.5v-19.5h19.5v-19.5h19.5v-19.5h19.5v-39h39v-19.5h19.5v-19.5h19.5v-19.5h19.5v-19.5h19.5v-19.5h19.5v-19.5h19.5v-19.5h19.5v-58.5l-19.5.1h0zm-312 39h-19.5v-19.5h19.5v19.5z"/><path d="M414.2 411.8h19.5v19.5h19.5v19.5h19.5v19.5h19.5v19.5h19.5v19.5h58.5v-19.5h19.5v-19.5h19.5v-19.5h19.5v-19.5h19.5v-19.5h19.5v-19.5h19.5v-58.5h-19.5v-19.5h-19.5v-19.5h-19.5v-19.5h-19.5v-19.5h-19.5v-19.5h-19.5v-19.6h-58.5v19.5h-19.5v19.5h-19.5v19.5h-19.5v19.5h-19.5v19.5h-19.5v19.5h-19.5v58.5h19.5v19.6z" fill="#00c300"/><path d="M589.7 489.8v-19.5h19.5v-19.5h19.5v-19.5h19.5v-19.5h19.5v-19.5h19.5v-19.5h-58.5v-19.5h-19.5v-19.5h-19.5v-19.5h-19.5v-19.5h-19.5v-19.5h19.5v19.5h19.5v19.5h19.5v19.5h19.5v19.5h39v-19.5h-19.5v-19.5h-19.5v-19.5h-19.5v-19.5h-19.5v-19.5h-19.5v-19.5h-19.5v-19.6h-39v19.5h-19.5v19.5h-19.5v19.5h-19.5v19.5h-19.5v19.5h-19.5v19.5h-19.5v39h19.5v19.5h19.5v19.5h19.5v19.5h19.5v19.5h19.5v19.5h19.5v39h19.5v-58.5h-19.5v-19.5h-19.5v-19.5h-19.5v-19.5h-19.5v-19.5h19.5v19.5h19.5v19.5h19.5v19.5h19.5v19.5h19.5v58.5h19.5v-19.5l19.5.1h0z" fill="#008700"/><path d="M433.7 372.8h39v19.5h19.5v19.5h19.5v19.5h19.5v19.5h19.5v-19.5h19.5v-19.5h19.5v-19.5h19.5v-19.5h19.5v-19.5h-19.5v-19.5h-19.5v-19.5h-19.5v-19.5h-19.5v-78h-39v19.5h-19.5v19.5h-19.5v19.5h-19.5v19.5h-19.5v19.5h-19.5v19.5h-19.5v39h39z" fill="#0f0"/><use xlink:href="#A" fill="#050"/><path d="M531.2 353.3h19.5v19.5h-19.5zm-97.5 19.5h39v19.5h19.5v19.5h19.5v19.5h19.5v19.5h19.5v-19.5h19.5v-19.5h19.5v-19.5h19.5v-19.5h19.5v-19.5h-19.5v-19.5h-19.5v-19.5h-19.5v-19.5h-19.5v-78h-19.5v78h-19.5v19.5h-19.5v19.5h-19.5v19.5h-78v19.5h39zm78-19.5v-19.5h19.5v-19.5h19.5v19.5h19.5v19.5h19.5v19.5h-19.5v19.5h-19.5v19.5h-19.5v-19.5h-19.5v-19.5h-19.5v-19.5h19.5z" fill="#fff"/><use xlink:href="#B" fill="#fa34f3"/><use xlink:href="#C" fill="#cf15f9"/><use xlink:href="#D" fill="#fab4f3"/><use xlink:href="#A" x="-175.5" y="175.5" fill="#ac15f9"/><g fill="#fff"><use xlink:href="#E"/><path d="M355.7 528.8h19.5v19.5h-19.5z"/></g><use xlink:href="#B" x="175.5" y="175.5" fill="#a08cff"/><use xlink:href="#C" x="175.5" y="175.5" fill="#7a5fff"/><use xlink:href="#D" x="175.5" y="175.5" fill="#ded7ff"/><use xlink:href="#A" y="351" fill="#4b25dc"/><g fill="#fff"><use xlink:href="#E" x="175.5" y="175.5"/><path d="M531.2 704.3h19.5v19.5h-19.5z"/></g><path d="M843.2 509.3v-19.5h-19.5v-19.5h-19.5v-19.5h-19.5v-19.5h-19.5v-19.5h-19.5v-19.5h-58.5v19.5h-19.5v19.5h-19.5v19.5h-19.5v19.5h-19.5v19.5h-19.5v19.5h-19.5v58.5h19.5v19.5h19.5v19.5h19.5v19.5h19.5v19.5h19.5v19.5h19.5v19.5h58.5v-19.5h19.5v-19.5h19.5v-19.5h19.5v-19.5h19.5v-19.5h19.5v-19.5h19.5v-58.5h-19.5z" fill="#00beff"/><path d="M843.2 548.3h-39v-19.5h-19.5v-19.5h-19.5v-19.5h-19.5v-19.5h-19.5v-19.5h19.5v19.5h19.5v19.5h19.5v19.5h19.5v19.5h39v-19.5h-19.5v-19.5h-19.5v-19.5h-19.5v-19.5h-19.5v-19.5h-19.5v-19.5h-19.5v-19.5h-39v19.5h-19.5v19.5h-19.5v19.5h-19.5v19.5h-19.5v19.5h-19.5v19.5h-19.5v39h19.5v19.5h19.5v19.5h19.5v19.5h19.5v19.5h19.5v19.5h19.5v39h19.5v-58.5h-19.5v-19.5h-19.5v-19.5h-19.5v-19.5h-19.5v-19.5h19.5v19.5h19.5v19.5h19.5v19.5h19.5v19.5h19.5v58.5h19.5v-19.5h19.5v-19.5h19.5v-19.5h19.5v-19.5h19.5v-19.5h19.5v-19.5h19.5v-19.5h-19.5z" fill="#0096ff"/><path d="M784.7 528.8v-19.5h-19.5v-19.5h-19.5v-19.5h-19.5v-78h-39v19.5h-19.5v19.5h-19.5v19.5h-19.5v19.5h-19.5v19.5h-19.5v19.5h-19.5v39h78v19.5h19.5v19.5h19.5v19.5h19.5v19.5h19.5v-19.5h19.5v-19.5h19.5v-19.5h19.5v-19.5h19.5v-19.5h-19.5z" fill="#99f2f7"/><path d="M804.2 548.3v19.5h-19.5v19.5h-19.5v19.5h-19.5v19.5h-19.5v39h19.5v-19.5h19.5v-19.5h19.5v-19.5h19.5v-19.5h19.5v-19.5h19.5v-19.5h-39z" fill="#0041e6"/><path d="M784.7 528.8v-19.5h-19.5v-19.5h-19.5v-19.5h-19.5v-78h-19.5v78h-19.5v19.5h-19.5v19.5h-19.5v19.5h-78v19.5h78v19.5h19.5v19.5h19.5v19.5h19.5v19.5h19.5v-19.5h19.5v-19.5h19.5v-19.5h19.5v-19.5h19.5v-19.5h-19.5zm-39 19.5v19.5h-19.5v19.5h-19.5v-19.5h-19.5v-19.5h-19.5v-19.5h19.5v-19.5h19.5v-19.5h19.5v19.5h19.5v19.5h19.5v19.5h-19.5zm-39-19.5h19.5v19.5h-19.5z" fill="#fff"/><defs><path id="A" d="M628.7 392.3h-19.5v19.5h-19.5v19.5h-19.5v19.5h-19.5v39h19.5v-19.5h19.5v-19.5h19.5v-19.5h19.5v-19.5h19.5v-19.5h19.5v-19.5h-39v19.5z"/><path id="B" d="M414.2 665.3v-19.5h19.5v-19.5h19.5v-19.5h19.5v-19.5h19.5v-19.5h19.5v-58.5h-19.5v-19.5h-19.5v-19.5h-19.5v-19.5h-19.5v-19.5h-19.5v-19.5h-19.5v-19.5h-58.5v19.5h-19.5v19.5h-19.5v19.5h-19.5v19.5h-19.5v19.5h-19.5v19.5h-19.5v58.5h19.5v19.5h19.5v19.5h19.5v19.5h19.5v19.5h19.5v19.5h19.5v19.5h58.5v-19.5h19.5z"/><path id="C" d="M414.2 665.3v-19.5h19.5v-19.5h19.5v-19.5h19.5v-19.5h19.5v-19.5h19.5v-19.5h-58.5v-19.5h-19.5v-19.5h-19.5v-19.5h-19.5v-19.5h-19.5v-19.5h19.5v19.5h19.5v19.5h19.5v19.5h19.5v19.5h39v-19.5h-19.5v-19.5h-19.5v-19.5h-19.5v-19.5h-19.5v-19.5h-19.5v-19.5h-19.5v-19.5h-39v19.5h-19.5v19.5h-19.5v19.5h-19.5v19.5h-19.5v19.5h-19.5v19.5h-19.5v39h19.5v19.5h19.5v19.5h19.5v19.5h19.5v19.5h19.5v19.5h19.5v39h19.5v-58.5h-19.5v-19.5h-19.5v-19.5h-19.5v-19.5h-19.5v-19.5h19.5v19.5h19.5v19.5h19.5v19.5h19.5v19.5h19.5v58.5h19.5v-19.5h19.5z"/><path id="D" d="M394.7 587.3h19.5v-19.5h19.5v-19.5h19.5v-19.5h-19.5v-19.5h-19.5v-19.5h-19.5v-19.5h-19.5v-78h-39v19.5h-19.5v19.5h-19.5v19.5h-19.5v19.5h-19.5v19.5h-19.5v19.5h-19.5v39h78v19.5h19.5v19.5h19.5v19.5h19.5v19.5h19.5v-19.5h19.5v-19.5z"/><path id="E" d="M394.7 587.3h19.5v-19.5h19.5v-19.5h19.5v-19.5h-19.5v-19.5h-19.5v-19.5h-19.5v-19.5h-19.5v-78h-19.5v78h-19.5v19.5h-19.5v19.5h-19.5v19.5h-78v19.5h78v19.5h19.5v19.5h19.5v19.5h19.5v19.5h19.5v-19.5h19.5v-19.5zm-39 0v-19.5h-19.5v-19.5h-19.5v-19.5h19.5v-19.5h19.5v-19.5h19.5v19.5h19.5v19.5h19.5v19.5h-19.5v19.5h-19.5v19.5h-19.5z"/></defs></svg>