<svg xmlns="http://www.w3.org/2000/svg" xmlns:xlink="http://www.w3.org/1999/xlink" viewBox="0 0 1082 1082"><circle cx="541" cy="541" r="541" fill="#7e18f8"/><circle cx="541" cy="541" r="441.6" fill="#fa34f3"/><path d="M451.6 45.1l-13 2.7 8.2 39.1-6.5 1.4-8.2-39.1-13 2.7-1.4-6.5 32.5-6.8 1.4 6.5zm19.7-3.1l3.8 33.1-6.6.7-3.8-33.1 6.6-.7zm19.9-2.3L471.3 42l-.8-6.6 19.9-2.3.8 6.6zm-16.1 35.4l19.9-2.3.8 6.6-19.9 2.3-.8-6.6zm22.6-36.2l3.8 33.1-6.6.8-3.8-33.1 6.6-.8zm20.4 12l20-.4.1 6.7-20 .4.4 19.9-6.6.1-.9-46.6 26.6-.5.1 6.6-20 .4.3 13.4zm26.3-13.8l.3 13.3-6.6.1-.3-13.3 6.6-.1zm59.5-2.6l-5.4 46.3-6.7-.8 4.7-39.7-6.6-.8.8-6.6 13.2 1.6zm18.7 9.2l-6.3 32.7-6.5-1.2 6.3-32.7 6.5 1.2zm-6.2 32.7l19.7 3.8-1.2 6.5-19.7-3.8 1.2-6.5zm25.9-28.9l-19.7-3.8 1.2-6.5 19.7 3.8-1.2 6.5zm6.5 1.2l-6.3 32.7-6.5-1.2 6.3-32.7 6.5 1.2zM682 92l6.5-18.9 18.8 6.5-6.5 18.9L682 92zm78.1 10.3l-3.1 6-6-3.1-9.2 17.7-5.9-3 21.4-41.3 5.9 3-9.2 17.7 6.1 3zm-6.1 11.8l3-5.9 5.9 3-3 5.9-5.9-3zm2.8 9l3.1-5.9 6 3.1-3.1 5.9-6-3.1zm2.9 9l3-5.9 5.9 3-3 5.9-5.9-3zm6.3-26.8l-5.9-3 3-5.9 5.9 3-3 5.9zm9-2.8l-5.9-3.1 3.1-5.9 6 3.1-3.2 5.9zm8.9-2.9l-5.9-3 3-5.9 5.9 3-3 5.9zm22.7 13.4l-17.5 28.3 5.6 3.5-3.5 5.6-16.9-10.5 3.5-5.6 5.6 3.5 17.5-28.3-5.6-3.5 3.5-5.6 16.9 10.5-3.5 5.6-5.6-3.5zm23.5 23.7l-3.9 5.3-5.4-4-15.7 21.4-5.3-3.9 27.5-37.5 5.3 3.9-7.9 10.7 5.4 4.1zm23.9 1.1l-27.5 37.5-5.3-3.9 7.9-10.7-5.4-4 3.9-5.3 5.4 4 15.8-21.4 5.2 3.8zm-22.5 8.2l-4 5.4-5.3-3.9 4-5.4 5.3 3.9zm7.1 30.2l19.9 17.7-4.4 5-19.9-17.7 4.4-5zm27-20.6l-8.8 10-4.9-4.4 8.8-10 4.9 4.4zm-13.3 15l4.4-5 15 13.3-4.4 5-15-13.3zm6.2 23.2l8.8-10 5 4.4-8.8 10-5-4.4zm27.1-20.5l-19.9-17.7 4.4-5 19.9 17.7-4.4 5zm37.4 28.9L889 234l-4.5-4.8 14.5-13.6-13.7-14.6-14.5 13.6-4.5-4.8 34-31.8 4.5 4.8-14.5 13.6L904 211l14.5-13.6 4.5 4.8zm12 24.8l-26.1 20.8 4.1 5.2-5.2 4.1-12.4-15.6 5.2-4.1 4.1 5.2 26.1-20.8-4.1-5.2 5.2-4.1 12.4 15.6-5.2 4.1-4.1-5.2zm4.9 28.3l11.2 16.6-5.6 3.7-11.2-16.6-16.5 11.1-3.7-5.5 38.6-26 14.9 22-5.5 3.7-11.2-16.6-11 7.6zm25.9 14.6l-11 7.4-3.7-5.5 11-7.4 3.7 5.5zm-7.2 54.2l18-8.7 8.7 17.9-18 8.7-8.7-17.9zm24.7 55.8l8 25.4-6.3 2-8-25.4 6.3-2zm8 25.4l12.7-4 2 6.3-12.7 4-2-6.3zm6.7-23.1l6.4-2 6 19.1-6.4 2-6-19.1zm19.1-6.1l-12.7 4-2-6.3 12.7-4 2 6.3zm8 25.4l-8-25.4 6.3-2 8 25.4-6.3 2zm-22.3 18.5l1.4 6.5-6.5 1.4 5.7 26-6.5 1.4-7.1-32.5 13-2.8zm7.9 5l1.4 6.5-6.5 1.4-1.4-6.5 6.5-1.4zm8 5.2l1.4 6.5-6.5 1.4-1.4-6.5 6.5-1.4zm7.8 5l1.4 6.5-6.5 1.4-1.4-6.5 6.5-1.4zm15.9 10.2l-13 2.8-1.4-6.5 6.5-1.4-5.7-26 6.5-1.4 7.1 32.5zm-8.9 28.6l-6.6.8-.8-6.7-26.4 3.3-.8-6.6 46.2-5.7.8 6.6-13.2 1.6.8 6.7zm15.6 18.2l-46.2 5.7-.8-6.6 13.2-1.6-.8-6.6 6.6-.8.8 6.7 26.4-3.3.8 6.5zm-21.4-10.8l-6.6.8-.8-6.6 6.6-.8.8 6.6zm22.9 91.1l-46.5-1.6.2-6.6 13.3.5.7-20 6.6.2-.7 20 26.6.9-.2 6.6zm.9-26.6l-26.6-.9.2-6.6 26.6.9-.2 6.6zm-45.3 66.1l19.7 3.6-3.6 19.6-19.7-3.6 3.6-19.6zm8.1 101.7l4.2-12.6-37.8-12.7 2.1-6.3 37.8 12.7 4.2-12.6 6.3 2.1-10.6 31.5-6.2-2.1zm-37.7 5.1l-8.1 18.3-6-2.7 8.1-18.3 6 2.7zm19.7 37.8l-30.5-13.5 2.7-6 30.5 13.5-2.7 6zm10.8-24.4l-30.5-13.5 2.7-6.1 30.5 13.5-2.7 6.1zm-8.1 18.4l8.1-18.3 6 2.7-8.1 18.3-6-2.7zm-23.3 17.6l-9.7 17.5-5.9-3.3 9.7-17.5-17.4-9.7 3.2-5.8 40.7 22.7-13 23.3-5.8-3.2 9.7-17.5-11.5-6.5zm-1.4 29.7l-11.6-6.5 3.2-5.8 11.6 6.5-3.2 5.8zm-27.6 52.7l-37.2-28 4-5.4 32 24 4-5.3 5.3 4-8.1 10.7zm-42.6-10.4l-13.2 15.1-5-4.3 13.2-15.1 5 4.3zm7.6 42l-25.1-21.9 4.3-5 25.1 21.9-4.3 5zm17.6-20.1l-25.1-21.9 4.3-5 25.2 21.9-4.4 5zm-13.2 15.1l13.2-15.1 5 4.3-13.2 15.1-5-4.3zm-58.5 11.9l13.1 15.2-15.1 13-13.1-15.2 15.1-13zM784.2 936l3.5 5.6-5.6 3.5-3.6-5.6 5.7-3.5zm9.2 1.9l3.6 5.7-5.7 3.6-3.6-5.7 5.7-3.6zm9.2 2.2l3.5 5.6-5.6 3.5-3.5-5.6 5.6-3.5zm-2.6 33.1l5.6-3.6 3.6 5.6-5.6 3.5-3.6-5.5zm9.7-21.9l-3.6-5.7 5.7-3.6-10.7-16.8 5.6-3.5 25 39.3-5.6 3.5-10.7-16.8-5.7 3.6zM802 964l5.7-3.6 3.6 5.7-5.7 3.6-3.6-5.7zm2.1-9.2l5.6-3.5 3.5 5.6-5.6 3.6-3.5-5.7zM776.9 986l-15.6-29.4-5.8 3.1-3.1-5.8 17.6-9.3 3.1 5.8-5.8 3.1 15.6 29.4 5.8-3.1 3.1 5.8-17.6 9.3-3.1-5.8 5.8-3.1zm-45.5 28.5l-18.5-42.8 6.1-2.6 5.3 12.2 6.2-2.7 2.6 6.1-6.2 2.7 10.6 24.5-6.1 2.6zm4.4-23.5l-2.7-6.2 6.1-2.6 2.7 6.2-6.1 2.6zm8.7 3.4l-2.6-6.1 6.2-2.7-10.6-24.5 6.1-2.6 18.5 42.8-6.1 2.6-5.3-12.2-6.2 2.7zm-63.7-4.4l4.1 12.7-6.3 2-4.1-12.6 6.3-2.1zm25.3-8.2l-25.3 8.2-2-6.3 25.3-8.2 2 6.3zm-21.2 41.9l25.3-8.2 2 6.3-25.3 8.2-2-6.3zm19.1-27.2l2.1 6.4-19 6.2-2.1-6.4 19-6.2zm6.2 19l-4.1-12.6 6.3-2 4.1 12.7-6.3 1.9zm-69.2 26l-10.4-45.4 6.5-1.5 4.4 19.4 19.5-4.4-4.4-19.4 6.5-1.5 10.4 45.4-6.5 1.5-4.4-19.4-19.5 4.5 4.4 19.4-6.5 1.4zm-27.5-2.1l-4.8-33-6.5 1-1-6.5 19.7-2.9 1 6.5-6.5 1 4.8 33 6.5-1 1 6.5-19.7 2.9-1-6.5 6.5-1zm-52.4 5.1l-.9-13.3 6.6-.4.9 13.3-6.6.4zm25.6-15.1l-20 1.4-.5-6.7 20-1.4-1.4-19.9 6.6-.5 3.1 46.4-26.6 1.8-.4-6.6 20-1.4-.8-13.1zm-69-18.4l-1.6 20-19.9-1.5 1.6-20 19.9 1.5zm-100.3 18.4l26 5.9-1.4 6.4-26-5.8 1.4-6.5zm13.8-31l-2.9 13-6.5-1.4 2.9-13 6.5 1.4zm16.6 17.4l-1.5 6.5-19.5-4.4 1.5-6.5 19.5 4.4zm9.4-11.6l-26-5.9 1.5-6.4 26 5.8-1.5 6.5zm-13.8 31.1l2.9-13 6.5 1.5-2.9 13-6.5-1.5zm-72.6-13.1l4.1-12.7 6.3 2-2.1 6.4 25.3 8.2-2 6.3-31.6-10.2zm16.8-8.5l-6.4-2.1 2-6.3 6.4 2.1-2 6.3zm25.1-12.8l-6.3-2 2.1-6.4-25.3-8.2 2-6.3 31.6 10.3-4.1 12.6zm-16.8 8.5l-6.3-2 2.1-6.4 6.3 2-2.1 6.4zm8.5-4.3l-6.4-2.1 2-6.3 6.4 2.1-2 6.3zm-77.6-.9l18.5-42.7 6.1 2.6-5.3 12.2 6.2 2.7-2.6 6.1-6.1-2.7-10.6 24.4-6.2-2.6zm20.1-13l2.7-6.2 6.1 2.6-2.7 6.1-6.1-2.5zm3.5 8.7l2.6-6.1 6.1 2.7 10.6-24.4 6.1 2.6-18.5 42.7-6.1-2.6 5.3-12.2-6.1-2.7zm-93.5-35l24.9-39.3 5.6 3.5-7.1 11.2 16.9 10.7-3.5 5.6-16.9-10.7-14.2 22.5-5.7-3.5zm22.5 14.2l14.2-22.5 5.6 3.5-14.2 22.5-5.6-3.5zm-34.1-72.2l-13 15.2-15.1-12.9 13-15.2 15.1 12.9zm-92.2-44.3l8.8 10 30.1-26.3 4.4 5-30.1 26.3 8.8 10-5 4.4-21.9-25 4.9-4.4zm-24-31.6l11.8 16.2-5.4 3.9-11.7-16.2 5.3-3.9zm-3.9-5.3l27-19.6 3.9 5.3-27 19.6-3.9-5.3zm15.6 21.5l27-19.6 3.9 5.4-27 19.6-3.9-5.4zm27-19.6L156 811.4l5.4-3.9 11.7 16.2-5.3 3.9zM125.6 802l-10.2-17.2 5.8-3.4 10.2 17.2 17.2-10.1 3.4 5.7-40.1 23.7L98.4 795l5.7-3.4 10.2 17.2 11.3-6.8zm-25-16.2l11.5-6.8 3.4 5.7-11.5 6.8-3.4-5.7zm-31.5-50.7l43-17.9 2.6 6.2-36.9 15.4 2.5 6.1-6.1 2.6-5.1-12.4zm-7.4-39.6l6.4 19-6.3 2.1-6.4-19 6.3-2.1zm-2.1-6.3l31.6-10.6 2.1 6.3-31.6 10.6-2.1-6.3zm8.4 25.3l31.6-10.6 2.1 6.3-31.6 10.6-2.1-6.3zm31.6-10.6l-6.4-19 6.3-2.1 6.4 19-6.3 2.1zM80.8 639l-19.7 3.6-3.6-19.6 19.7-3.6 3.6 19.6zm-43.7-92.1l.3 6.6-6.6.3-.3-6.6 6.6-.3zm14.1 19.4l6.7-.3.3 6.7 19.9-.8.3 6.6-46.5 1.8-.3-6.6 19.9-.8-.3-6.6zm-7.1-13.1l.3 6.7-6.7.3-.3-6.7 6.7-.3zm6.8 6.5l.3 6.6-6.6.3-.3-6.6 6.6-.3zm13.6 6.1l-6.6.3-.3-6.6 6.6-.2.3 6.5zm6.5-6.9l-6.7.3-.3-6.7 6.7-.3.3 6.7zm6.3-7l-6.6.3-.3-6.6 6.6-.3.3 6.6zm-39.6-31.4l33.3 1.3.3-6.6 6.6.3-.8 19.9-6.6-.3.3-6.6-33.3-1.3-.3 6.6-6.6-.3.8-19.9 6.6.3-.3 6.6zm9-32.2l6.6.8-.8 6.7 26.4 3.2-.8 6.6-46.2-5.6.8-6.5 13.2 1.6.8-6.8zM35.9 467l46.2 5.6-.8 6.6-13.2-1.6-.8 6.7-6.6-.8.8-6.7-26.4-3.2.8-6.6zm18.2 15.6l6.7.8-.8 6.5-6.7-.8.8-6.5zM51.4 422l-5.6 26-6.5-1.4 5.6-26 6.5 1.4zm-5.7 26l13 2.8-1.4 6.5-13-2.8 1.4-6.5zm19.6 4.2l-6.5-1.4 4.2-19.6 6.6 1.4-4.3 19.6zm17.3-16.7l-13-2.8 1.4-6.5 13 2.8-1.4 6.5zm-5.7 26l5.6-26 6.5 1.4-5.6 26-6.5-1.4zm-18.7-86.4l44.4 14-2 6.3-19-6-6 19.1 19 6-2 6.3-44.4-14 2-6.3 19 6 6-19.1-19-6 2-6.3zM74 352.4l30.9 12.5 2.5-6.1 6.1 2.5-7.5 18.5-6.1-2.5 2.5-6.1-30.9-12.5-2.5 6.1-6.1-2.5 7.5-18.5 6.1 2.5-2.5 6.1zm22.2-18.3l8.9-17.9 6 3-8.9 17.9L120 346l-2.9 5.9-41.7-20.8 11.9-23.8 5.9 3-8.9 17.9 11.9 5.9zm0-29.8l11.9 5.9-3 5.9-11.9-5.9 3-5.9zm50.6-20.2l-16.5-11.4 11.3-16.4 16.5 11.4-11.3 16.4zm34.5-96.1l-18.1 19.5-4.8-4.5 18.1-19.5 4.8 4.5zm-18.1 19.5l9.8 9.1-4.5 4.9-9.8-9.1 4.5-4.9zm14.7 13.7l-4.9-4.6 13.6-14.7 4.9 4.6-13.6 14.7zm5.3 13.9l18.1-19.5 4.8 4.5-18.1 19.5-4.8-4.5zm18.1-19.5l-9.8-9.1 4.5-4.9 9.8 9.1-4.5 4.9zm9.8-64.2l8.9 9.9-4.9 4.4-4.5-5-19.9 17.7-4.4-4.9 24.8-22.1zm-2.6 46.9l4.9-4.4 4.5 5 19.9-17.8 4.4 4.9-24.8 22.2-8.9-9.9zm.5-9.3l5-4.5 4.4 4.9-5 4.5-4.4-4.9zm.5-9.5l4.9-4.4 4.5 5-4.9 4.4-4.5-5zm.5-9.3l5-4.5 4.4 4.9-5 4.5-4.4-4.9zm30.4-25.2l3.9 5.3-5.4 4 15.8 21.4-5.3 3.9-27.7-37.4 5.3-3.9 7.9 10.7 5.5-4zm8.1-22.6l27.7 37.4-5.3 3.9L263 153l-5.4 4-3.9-5.3 5.4-4-15.8-21.4 5.2-3.9zm1.2 24l4 5.4-5.3 3.9-4-5.4 5.3-3.9zm44.7-52.5l12.2 23.7-5.9 3-12.2-23.7 5.9-3zM318 81.7l21.4 41.4-5.9 3-6.1-11.8-17.8 9.2-3-5.9 17.8-9.2-12.3-23.7 5.9-3zm55.9 19.4l-6.6-18.9 18.8-6.5 6.6 18.9-18.8 6.5z" fill="#fab4f3"/><path d="M862.8 509.3v-19.5h-19.5v-19.5h-19.5v-19.5h-19.5v-19.5h-19.5v-19.5h-19.5v-19.5h-19.5v-19.5h-39v-39h-19.5v-19.5h-19.5v-19.5h-19.5v-19.5h-19.5v-19.5h-19.5v-19.5h-19.5v-19.6h-19.5v-19.5h-58.5v19.5h-19.5v19.5h-19.5v19.5h-19.5v19.5h-19.5v19.5h-19.5v19.5h-19.5v19.5h-19.5v39h-39v19.5h-19.5v19.5h-19.5v19.5h-19.5v19.5h-19.5v19.5h-19.5v19.5h-19.5v19.5h-19.5v58.5h19.5v19.5h19.5v19.5h19.5v19.5h19.5v19.5h19.5v19.5h19.5v19.5h19.5v19.5h39v39h19.5v19.5h19.5v19.5h19.5v19.5h19.5v19.5h19.5v19.5h19.5v19.5h19.5v19.5h58.5v-19.5h19.5v-19.5h19.5v-19.5h19.5v-19.5h19.5v-19.5h19.5v-19.5h19.5v-19.5h19.5v-39h39v-19.5h19.5v-19.5h19.5v-19.5h19.5v-19.5h19.5v-19.5h19.5v-19.5h19.5v-19.5h19.5v-58.5l-19.5.1h0zm-312 39h-19.5v-19.5h19.5v19.5z"/><g fill="#fa34f3"><path d="M414.3 411.8h19.5v19.5h19.5v19.5h19.5v19.5h19.5v19.5h19.5v19.5h58.5v-19.5h19.5v-19.5h19.5v-19.5h19.5v-19.5h19.5v-19.5h19.5v-19.5h19.5v-58.5h-19.5v-19.5h-19.5v-19.5h-19.5v-19.5h-19.5v-19.5h-19.5v-19.5h-19.5v-19.6h-58.5v19.5h-19.5v19.5h-19.5v19.5h-19.5v19.5h-19.5v19.5h-19.5v19.5h-19.5v58.5h19.5v19.6h0z"/><path d="M843.3 509.3v-19.5h-19.5v-19.5h-19.5v-19.5h-19.5v-19.5h-19.5v-19.5h-19.5v-19.5h-58.5v19.5h-19.5v19.5h-19.5v19.5h-19.5v19.5h-19.5v19.5h-19.5v19.5h-19.5v58.5h19.5v19.5h19.5v19.5h19.5v19.5h19.5v19.5h19.5v19.5h19.5v19.5h58.5v-19.5h19.5v-19.5h19.5v-19.5h19.5v-19.5h19.5v-19.5h19.5v-19.5h19.5v-58.5h-19.5zm-429 156v-19.5h19.5v-19.5h19.5v-19.5h19.5v-19.5h19.5v-19.5h19.5v-58.5h-19.5v-19.5h-19.5v-19.5h-19.5v-19.5h-19.5v-19.5h-19.5v-19.5h-19.5v-19.5h-58.5v19.5h-19.5v19.5h-19.5v19.5h-19.5v19.5h-19.5v19.5h-19.5v19.5h-19.5v58.5h19.5v19.5h19.5v19.5h19.5v19.5h19.5v19.5h19.5v19.5h19.5v19.5h58.5v-19.5h19.5z"/><path d="M667.8 665.3h-19.5v-19.5h-19.5v-19.5h-19.5v-19.5h-19.5v-19.5h-19.5v-19.5h-58.5v19.5h-19.5v19.5h-19.5v19.5h-19.5v19.5h-19.5v19.5h-19.5v19.5h-19.5v58.5h19.5v19.5h19.5v19.5h19.5v19.5h19.5v19.5h19.5v19.5h19.5v19.5h58.5v-19.5h19.5v-19.5h19.5v-19.5h19.5v-19.5h19.5v-19.5h19.5v-19.5h19.5v-58.5h-19.5v-19.5z"/></g><g fill="#cf15f9"><path d="M589.8 489.8v-19.5h19.5v-19.5h19.5v-19.5h19.5v-19.5h19.5v-19.5h19.5v-19.5h-58.5v-19.5h-19.5v-19.5h-19.5v-19.5h-19.5v-19.5h-19.5v-19.5h19.5v19.5h19.5v19.5h19.5v19.5h19.5v19.5h39v-19.5h-19.5v-19.5h-19.5v-19.5h-19.5v-19.5h-19.5v-19.5h-19.5v-19.5h-19.5v-19.6h-39v19.5h-19.5v19.5h-19.5v19.5h-19.5v19.5h-19.5v19.5h-19.5v19.5h-19.5v39h19.5v19.5h19.5v19.5h19.5v19.5h19.5v19.5h19.5v19.5h19.5v39h19.5v-58.5h-19.5v-19.5h-19.5v-19.5h-19.5v-19.5h-19.5v-19.5h19.5v19.5h19.5v19.5h19.5v19.5h19.5v19.5h19.5v58.5h19.5v-19.5l19.5.1h0z"/><path d="M843.3 548.3h-39v-19.5h-19.5v-19.5h-19.5v-19.5h-19.5v-19.5h-19.5v-19.5h19.5v19.5h19.5v19.5h19.5v19.5h19.5v19.5h39v-19.5h-19.5v-19.5h-19.5v-19.5h-19.5v-19.5h-19.5v-19.5h-19.5v-19.5h-19.5v-19.5h-39v19.5h-19.5v19.5h-19.5v19.5h-19.5v19.5h-19.5v19.5h-19.5v19.5h-19.5v39h19.5v19.5h19.5v19.5h19.5v19.5h19.5v19.5h19.5v19.5h19.5v39h19.5v-58.5h-19.5v-19.5h-19.5v-19.5h-19.5v-19.5h-19.5v-19.5h19.5v19.5h19.5v19.5h19.5v19.5h19.5v19.5h19.5v58.5h19.5v-19.5h19.5v-19.5h19.5v-19.5h19.5v-19.5h19.5v-19.5h19.5v-19.5h19.5v-19.5h-19.5zm-429 117v-19.5h19.5v-19.5h19.5v-19.5h19.5v-19.5h19.5v-19.5h19.5v-19.5h-58.5v-19.5h-19.5v-19.5h-19.5v-19.5h-19.5v-19.5h-19.5v-19.5h19.5v19.5h19.5v19.5h19.5v19.5h19.5v19.5h39v-19.5h-19.5v-19.5h-19.5v-19.5h-19.5v-19.5h-19.5v-19.5h-19.5v-19.5h-19.5v-19.5h-39v19.5h-19.5v19.5h-19.5v19.5h-19.5v19.5h-19.5v19.5h-19.5v19.5h-19.5v39h19.5v19.5h19.5v19.5h19.5v19.5h19.5v19.5h19.5v19.5h19.5v39h19.5v-58.5h-19.5v-19.5h-19.5v-19.5h-19.5v-19.5h-19.5v-19.5h19.5v19.5h19.5v19.5h19.5v19.5h19.5v19.5h19.5v58.5h19.5v-19.5h19.5z"/><path d="M648.3 723.8h-19.5v-19.5h-19.5v-19.5h-19.5v-19.5h-19.5v-19.5h-19.5v-19.5h19.5v19.5h19.5v19.5h19.5v19.5h19.5v19.5h39v-19.5h-19.5v-19.5h-19.5v-19.5h-19.5v-19.5h-19.5v-19.5h-19.5v-19.5h-19.5v-19.5h-39v19.5h-19.5v19.5h-19.5v19.5h-19.5v19.5h-19.5v19.5h-19.5v19.5h-19.5v39h19.5v19.5h19.5v19.5h19.5v19.5h19.5v19.5h19.5v19.5h19.5v39h19.5v-58.5h-19.5v-19.5h-19.5v-19.5h-19.5v-19.5h-19.5v-19.5h19.5v19.5h19.5v19.5h19.5v19.5h19.5v19.5h19.5v58.5h19.5v-19.5h19.5v-19.5h19.5v-19.5h19.5v-19.5h19.5v-19.5h19.5v-19.5h19.5v-19.5h-39z"/></g><path d="M433.8 372.8h39v19.5h19.5v19.5h19.5v19.5h19.5v19.5h19.5v-19.5h19.5v-19.5h19.5v-19.5h19.5v-19.5h19.5v-19.5h-19.5v-19.5h-19.5v-19.5h-19.5v-19.5h-19.5v-78h-39v19.5h-19.5v19.5h-19.5v19.5h-19.5v19.5h-19.5v19.5h-19.5v19.5h-19.5v39h39zm351 156v-19.5h-19.5v-19.5h-19.5v-19.5h-19.5v-78h-39v19.5h-19.5v19.5h-19.5v19.5h-19.5v19.5h-19.5v19.5h-19.5v19.5h-19.5v39h78v19.5h19.5v19.5h19.5v19.5h19.5v19.5h19.5v-19.5h19.5v-19.5h19.5v-19.5h19.5v-19.5h19.5v-19.5h-19.5zm-390 58.5h19.5v-19.5h19.5v-19.5h19.5v-19.5h-19.5v-19.5h-19.5v-19.5h-19.5v-19.5h-19.5v-78h-39v19.5h-19.5v19.5h-19.5v19.5h-19.5v19.5h-19.5v19.5h-19.5v19.5h-19.5v39h78v19.5h19.5v19.5h19.5v19.5h19.5v19.5h19.5v-19.5h19.5v-19.5zm214.5 97.5h-19.5v-19.5h-19.5v-19.5h-19.5v-78h-39v19.5h-19.5v19.5h-19.5v19.5h-19.5v19.5h-19.5v19.5h-19.5v19.5h-19.5v39h78v19.5h19.5v19.5h19.5v19.5h19.5v19.5h19.5v-19.5h19.5v-19.5h19.5v-19.5h19.5v-19.5h19.5v-19.5h-19.5v-19.5z" fill="#fab4f3"/><g fill="#ac15f9"><use xlink:href="#A"/><path d="M804.3 548.3v19.5h-19.5v19.5h-19.5v19.5h-19.5v19.5h-19.5v39h19.5v-19.5h19.5v-19.5h19.5v-19.5h19.5v-19.5h19.5v-19.5h19.5v-19.5h-39z"/><use xlink:href="#A" x="-175.5" y="175.5"/><use xlink:href="#A" y="351"/></g><path d="M531.3 353.3h19.5v19.5h-19.5zm-97.5 19.5h39v19.5h19.5v19.5h19.5v19.5h19.5v19.5h19.5v-19.5h19.5v-19.5h19.5v-19.5h19.5v-19.5h19.5v-19.5h-19.5v-19.5h-19.5v-19.5h-19.5v-19.5h-19.5v-78h-19.5v78h-19.5v19.5h-19.5v19.5h-19.5v19.5h-78v19.5h39zm78-19.5v-19.5h19.5v-19.5h19.5v19.5h19.5v19.5h19.5v19.5h-19.5v19.5h-19.5v19.5h-19.5v-19.5h-19.5v-19.5h-19.5v-19.5h19.5zm273 175.5v-19.5h-19.5v-19.5h-19.5v-19.5h-19.5v-78h-19.5v78h-19.5v19.5h-19.5v19.5h-19.5v19.5h-78v19.5h78v19.5h19.5v19.5h19.5v19.5h19.5v19.5h19.5v-19.5h19.5v-19.5h19.5v-19.5h19.5v-19.5h19.5v-19.5h-19.5zm-39 19.5v19.5h-19.5v19.5h-19.5v-19.5h-19.5v-19.5h-19.5v-19.5h19.5v-19.5h19.5v-19.5h19.5v19.5h19.5v19.5h19.5v19.5h-19.5zm-39-19.5h19.5v19.5h-19.5zm-312 58.5h19.5v-19.5h19.5v-19.5h19.5v-19.5h-19.5v-19.5h-19.5v-19.5h-19.5v-19.5h-19.5v-78h-19.5v78h-19.5v19.5h-19.5v19.5h-19.5v19.5h-78v19.5h78v19.5h19.5v19.5h19.5v19.5h19.5v19.5h19.5v-19.5h19.5v-19.5zm-39 0v-19.5h-19.5v-19.5h-19.5v-19.5h19.5v-19.5h19.5v-19.5h19.5v19.5h19.5v19.5h19.5v19.5h-19.5v19.5h-19.5v19.5h-19.5zm0-58.5h19.5v19.5h-19.5zm253.5 156h-19.5v-19.5h-19.5v-19.5h-19.5v-78h-19.5v78h-19.5v19.5h-19.5v19.5h-19.5v19.5h-78v19.5h78v19.5h19.5v19.5h19.5v19.5h19.5v19.5h19.5v-19.5h19.5v-19.5h19.5v-19.5h19.5v-19.5h19.5v-19.5h-19.5v-19.5zm-19.5 39h-19.5v19.5h-19.5v19.5h-19.5v-19.5h-19.5v-19.5h-19.5v-19.5h19.5v-19.5h19.5v-19.5h19.5v19.5h19.5v19.5h19.5v19.5zm-58.5-19.5h19.5v19.5h-19.5z" fill="#fff"/><defs><path id="A" d="M628.8 392.3h-19.5v19.5h-19.5v19.5h-19.5v19.5h-19.5v39h19.5v-19.5h19.5v-19.5h19.5v-19.5h19.5v-19.5h19.5v-19.5h19.5v-19.5h-39v19.5z"/></defs></svg>