<svg xmlns="http://www.w3.org/2000/svg" xmlns:xlink="http://www.w3.org/1999/xlink" viewBox="0 0 1082 1082"><circle cx="541" cy="541" r="541" fill="#0041e6"/><circle cx="541" cy="541" r="441.6" fill="#22dff0"/><g fill="#99f2f7"><path d="M456.4 44l-13.1 2.6 7.7 39.2-6.5 1.3-7.7-39.2-13.1 2.6-1.3-6.5 32.6-6.4 1.4 6.4zm17.3-2.7l3.6 33.2-6.6.7-3.6-33.2 6.6-.7zm19.9-2.1l-19.9 2.2-.7-6.6 19.9-2.1.7 6.5zm-16.3 35.3l19.9-2.2.7 6.6L478 81l-.7-6.5zm22.8-36.1l3.6 33.2-6.6.7-3.6-33.2 6.6-.7zm17.5 12.3l20-.4.1 6.7-20 .4.4 19.9-6.6.1-1-46.5 26.6-.5.1 6.6-20 .4.4 13.3zM544 36.8l.3 13.3-6.6.1-.3-13.3 6.6-.1zm54.4-3.2l-5 46.3-6.7-.7 4.3-39.7-6.6-.7.7-6.6 13.3 1.4zm16.1 8.7l-5.8 32.8-6.5-1.2 5.8-32.8 6.5 1.2zm-5.8 32.8l19.7 3.5-1.1 6.5-19.7-3.5 1.1-6.5zm25.5-29.4l-19.7-3.5 1.1-6.5 19.7 3.5-1.1 6.5zm6.5 1.2l-5.8 32.8-6.5-1.1 5.8-32.8 6.5 1.1zm29.2 41.4l6.1-19.1 19 6-6.1 19.1-19-6zm55.7 12.4l6 2.8-5.7 12.1-6-2.8 5.7-12.1zm8.8-3.2l6.1 2.9-2.8 6-6.1-2.9 2.8-6zm11.4-24.1l-5.7 12-6-2.8 5.7-12 6 2.8zm.4 14.9l-2.8 6-6.1-2.9 2.8-6 6.1 2.9zm3.1 8.8l-2.9 6.1-6-2.8 2.9-6.1 6 2.8zm-5.7 12.1l2.8-6 6.1 2.9-2.8 6-6.1-2.9zm.4 14.9l5.7-12 6 2.8-5.7 12-6-2.8zm11.4-24.1l-6.1-2.9 2.8-6 6.1 2.9-2.8 6zm8.8-3.2l-6-2.8 5.7-12 6 2.8-5.7 12zm11.7 13.6l17.3 10.1-3.4 5.8-17.3-10.1-10 17.2-5.7-3.3 23.5-40.2 23 13.4-3.3 5.7-17.3-10.1-6.8 11.5zm29.7 1.9l-6.7 11.5-5.7-3.3 6.7-11.5 5.7 3.3zm12.9 48.9l12.3-15.8 15.7 12.2-12.3 15.8-15.7-12.2zm43.3 35.5l18.7 18.9-4.7 4.6-18.7-18.9 4.7-4.6zm14.1-4.7l4.8-4.7 14.1 14.2-4.8 4.7-14.1-14.2zm14.3-14l-9.5 9.4-4.6-4.7 9.5-9.4 4.6 4.7zm-9.7 37.6l9.5-9.3 4.6 4.7-9.5 9.3-4.6-4.7zm28.4-18.7L890.2 178l4.7-4.6 18.7 19-4.7 4.5zm-13 25l4.2 5.1-5.2 4.3 16.9 20.5-5.1 4.2-21.1-25.7 10.3-8.4zm9.3.9l4.3 5.2-5.1 4.2-4.3-5.2 5.1-4.2zm9.5.9l4.2 5.1-5.2 4.3-4.2-5.1 5.2-4.3zm28 2.7l-10.3 8.5-4.2-5.1 5.2-4.3-16.9-20.6 5.1-4.2 21.1 25.7zm-18.7-1.8l4.3 5.2-5.1 4.2-4.3-5.2 5.1-4.2zm22.4 29.3l-5.5 3.7-3.8-5.5-21.9 15.1-3.7-5.4 38.4-26.3 3.7 5.5-11 7.5 3.8 5.4zm22.2 8.9l-38.4 26.3-3.7-5.4 11-7.5-3.8-5.5 5.5-3.7 3.8 5.5 21.9-15.1 3.7 5.4zm-23.9.3l-5.5 3.8-3.7-5.4 5.5-3.8 3.7 5.4zm60 65.4l-41.8 20.4-2.9-5.9 12-5.8-8.8-18 5.9-2.9 8.8 18 23.9-11.7 2.9 5.9zm-11.7-24l-23.9 11.7-2.9-5.9 23.9-11.7 2.9 5.9zm-10.5 74.9l19-6.3 6.3 18.9-19 6.3-6.3-18.9zm55.2 80l-2.5-13.1-39.2 7.5-1.2-6.5 39.2-7.5-2.5-13.1 6.5-1.2 6.3 32.6-6.6 1.3zm-30.7 20.5l2 19.9-6.6.7-2-19.9 6.6-.7zm33.2-3.4l-33.2 3.4-.7-6.6 33.2-3.4.7 6.6zm2.7 26.5l-33.2 3.4-.7-6.6 33.2-3.4.7 6.6zm-.7-6.6l-2-19.9 6.6-.7 2 19.9-6.6.7zm-11.6 24.1l.3 20-6.7.1-.3-20-19.9.3-.1-6.6 46.5-.7.4 26.6-6.6.1-.3-20-13.3.2zm13.7 26.5l-13.3.2-.1-6.6 13.3-.2.1 6.6zm2.9 54.2L1001 596l.8-6.7 39.7 4.5.7-6.6 6.6.7-1.6 13.3zm-41.5 10.1l-3.6 19.7-6.5-1.2 3.6-19.7 6.5 1.2zm28.1 32.1l-32.8-5.9 1.2-6.5 32.8 5.9-1.2 6.5zm4.7-26.2l-32.8-5.9 1.2-6.5 32.8 5.9-1.2 6.5zm-3.5 19.7l3.6-19.7 6.5 1.2-3.6 19.7-6.5-1.2zm-42.8 35.7l19 6.1-6.1 19-19-6.2 6.1-18.9zm-36.1 73.9l12 5.7-2.8 6-12-5.7 2.8-6zm23.5-18.3l-2.8 6-12-5.7 2.8-6 12 5.7zm-8.6 17.9l6 2.8-2.9 6-6-2.8 2.9-6zm11.7-9.1l-2.9 6-6-2.8 2.9-6.1 6 2.9zm.3 14.9l-6-2.9 2.8-6 6 2.9-2.8 6zm-2.9 6l2.9-6.1 6 2.8-2.9 6-6-2.7zm3.2 8.8l2.8-6 12 5.7-2.8 6-12-5.7zm8.5-17.9l-6-2.8 2.9-6 6 2.8-2.9 6zm14.9-.4l-12-5.7 2.8-6 12 5.7-2.8 6zm-37.1 29.8l-10.2 17.3-5.8-3.4 10.2-17.2-17.1-10.2 3.4-5.7 40.1 23.6-13.5 22.9-5.7-3.4 10.2-17.2-11.6-6.7zm-2 29.7l-11.5-6.8 3.4-5.7 11.5 6.7-3.4 5.8zm-49.1 12.9l15.7 12.4-12.3 15.7-15.7-12.4 12.3-15.7zm-54.7 61.7l9.3 9.5-4.7 4.6-9.3-9.5 4.7-4.6zm19-18.6l-19 18.6-4.6-4.7 19.1-18.6 4.5 4.7zm4.6 14.1l4.7 4.8-14.3 14-4.7-4.8 14.3-14zm-5.1 32.9l19.1-18.6 4.6 4.7-19.1 18.6-4.6-4.7zm19.1-18.5l-9.3-9.5 4.7-4.6 9.3 9.5-4.7 4.6zm-44 5.5l-5.1 4.2-4.2-5.2-20.6 16.8-4.2-5.1 25.7-21 8.4 10.3zm-4.7 46.7l-8.4-10.3 5.1-4.2 4.2 5.2 20.6-16.8 4.2 5.1-25.7 21zm1.9-18.7l-5.2 4.2-4.2-5.1 5.2-4.2 4.2 5.1zm.9-9.3l-5.1 4.2-4.2-5.2 5.1-4.2 4.2 5.2zm1-9.4l-5.2 4.2-4.2-5.1 5.2-4.2 4.2 5.1zm-40 63l-26.2-38.5 5.5-3.7 7.5 11 5.5-3.8 3.7 5.5-5.5 3.8 15 22-5.5 3.7zm9-22.2l-3.7-5.5 5.5-3.8-15-22 5.5-3.7 26.2 38.5-5.5 3.7-7.5-11-5.5 3.8zm-9.2-1.8l-3.8-5.5 5.5-3.7 3.8 5.5-5.5 3.7zm-65.9 59.8l-20.2-41.9 6-2.9 5.8 12 18-8.7 2.9 6-18 8.7 11.6 24-6.1 2.8zm24-11.5l-11.6-24 5.9-2.9 11.6 24-5.9 2.9zm-74.7-11l6.2 19-18.9 6.2-6.2-19 18.9-6.2zm-80.3 54.9l13.1-2.5-7.4-39.3 6.5-1.2 7.4 39.3 13.1-2.5 1.2 6.5-32.7 6.1-1.2-6.4zm-43.9 5l-3.2-33.2 6.6-.6 3.2 33.2-6.6.6zm23.2-35.8l-19.9 1.9-.6-6.6 19.9-1.9.6 6.6zm-16.7 35.2l19.9-2 .6 6.6-19.9 1.9-.6-6.5zm20-2l-3.2-33.2 6.6-.6 3.2 33.2-6.6.6zm-70.5 3.8l-.1-13.3 6.6-.1.1 13.3-6.6.1zM558 1031l-20 .2-.1-6.7 20-.2-.2-19.9 6.6-.1.4 46.5-26.6.3-.1-6.6 20-.2V1031zm-80.7 16.1l5.5-46.2 6.7.8-4.7 39.7 6.6.8-.8 6.6-13.3-1.7zm-41.9-13.5l6.1-32.8 6.5 1.2-6.1 32.8-6.5-1.2zm6.5 1.2l19.7 3.7-1.2 6.5-19.7-3.7 1.2-6.5zm25.7-29.1l-19.7-3.7 1.2-6.5 19.7 3.7-1.2 6.5zm-6.1 32.7l6.1-32.8 6.5 1.2-6.1 32.8-6.5-1.2zm-55.3-46.7l-6.3 19-18.9-6.2 6.3-19 18.9 6.2zm-94.1-9.5l5.9 2.9-5.8 12-5.9-2.9 5.8-12zm8.9-3l6 2.9-2.9 5.9-6-2.9 2.9-5.9zm11.6-24l-5.8 12-5.9-2.9 5.8-12 5.9 2.9zm.2 14.9l-2.9 5.9-6-2.9 2.9-5.9 6 2.9zm-5.8 12l2.9-6 5.9 2.9-2.9 6-5.9-2.9zm3.1 8.8l2.9-5.9 6 2.9-2.9 5.9-6-2.9zm.2 14.9l5.8-12 5.9 2.9-5.8 12-5.9-2.9zm11.6-23.9l-6-2.9 2.9-5.9 6 2.9-2.9 5.9zm8.8-3.1l-5.9-2.9 5.8-12 5.9 2.9-5.8 12zm-79.5-12.2l6.8-11.4 5.7 3.4-6.8 11.4-5.7-3.4zm29.7 2.1l-17.2-10.2 3.4-5.8 17.2 10.2 10.2-17.1 5.7 3.4-23.8 40-22.9-13.6 3.4-5.7 17.2 10.2 6.8-11.4zm-42.4-51.4L246.1 933l-15.6-12.4 12.4-15.7 15.6 12.4zm-90.1-36.7l18.5 19.2-4.8 4.6-18.5-19.2 4.8-4.6zm32.9 5.3l-4.8 4.7-13.9-14.4 4.8-4.7 13.9 14.4zm-4.3-23.7l-9.6 9.2-4.6-4.8 9.6-9.3 4.6 4.9zm-10.1 37.6l9.6-9.3 4.6 4.8-9.6 9.2-4.6-4.7zm28.6-18.4L197 862.2l4.8-4.6 18.5 19.2-4.8 4.6zM135 850.9l10.4-8.4 4.2 5.1-5.2 4.2 16.7 20.7-5.1 4.2-21-25.8zm18.7 2l-4.2-5.2 5.1-4.2 4.2 5.2-5.1 4.2zm9.3 1l-4.2-5.1 5.2-4.2 4.2 5.1-5.2 4.2zm18.8 2l-4.2-5.1 5.2-4.2-16.7-20.7 5.1-4.2 20.9 25.9-10.3 8.3zm-9.3-1l-4.2-5.2 5.1-4.1 4.2 5.2-5.1 4.1zm-63-40.5l38.7-26 3.7 5.5-11.1 7.4 3.7 5.6-5.5 3.7-3.7-5.6-22.1 14.9-3.7-5.5zm22.2 9.1l5.5-3.7 3.7 5.6 22.1-14.9 3.7 5.5-38.7 26-3.7-5.5 11.1-7.4-3.7-5.6zm1.8-9.1l5.6-3.7 3.7 5.5-5.6 3.7-3.7-5.5z"/><path d="M74 748.1l42.1-19.9 2.8 6-12 5.7 8.6 18.1-6 2.8-8.6-18.1-24.1 11.4-2.8-6zm11.4 24.1l24.1-11.4 2.8 6-24.1 11.4-2.8-6zm11.4-74.7l-19.1 6.1-6.1-19 19.1-6.1 6.1 19zm-54.4-80.6l2.4 13.1 39.3-7.1 1.2 6.5-39.3 7.1 2.4 13.1-6.5 1.2-5.9-32.7 6.4-1.2zM38.3 580l1.9 19.9-6.6.6-1.9-19.9 6.6-.6zm-.7-6.6l33.2-3.1.6 6.6-33.2 3.1-.6-6.6zm2.5 26.5l33.2-3.1.6 6.6-33.2 3.1-.6-6.6zm33.2-3.1l-1.9-19.9 6.6-.6 1.9 19.9-6.6.6zM50.1 556l-.1-20h6.7l.1 20 19.9-.1v6.6l-46.6.3-.1-26.6h6.6l.1 20 13.4-.2zm-13.5-26.6l13.3-.1v6.6l-13.3.1v-6.6zm-2.2-54.5l46.2 5.7-.8 6.6-39.6-4.9-.8 6.6-6.6-.8 1.6-13.2zm12.5-35.4l-3.8 19.7-6.5-1.2 3.8-19.7 6.5 1.2zm-3.7 19.7l32.8 6.3-1.2 6.5-32.8-6.3 1.2-6.5zm5-26.2l32.7 6.3-1.2 6.5-32.8-6.2 1.3-6.6zm27.7 32.4l3.8-19.7 6.5 1.2-3.8 19.7-6.5-1.2zm14.2-61.1l-19-6.4 6.3-18.9 19 6.3-6.3 19zm-13.6-76.2l11.9 5.9-2.9 5.9-11.9-5.9 2.9-5.9zm23.6-18.1l-2.9 5.9-11.9-5.9 2.9-5.9 11.9 5.9zm-8.7 17.9l5.9 2.9-3 6-5.9-2.9 3-6zm11.8-9l-3 6-5.9-2.9 3-6 5.9 2.9zm-3 6l6 3-2.9 5.9-6-3 2.9-5.9zm.2 14.9l3-6 5.9 2.9-3 6-5.9-2.9zm3 8.9l2.9-5.9 11.9 5.9-2.9 5.9-11.9-5.9zm8.8-17.9l-5.9-2.9 3-6 5.9 2.9-3 6zm14.9-.2l-11.9-5.9 2.9-5.9 11.9 5.9-2.9 5.9zm-13.4-31.7l10.4-17.1 5.7 3.5-10.3 17.1 17.1 10.3-3.4 5.7-39.9-24.1 13.8-22.8 5.7 3.4-10.3 17.1 11.2 6.9zm2.4-29.7l11.4 6.9-3.4 5.7-11.4-6.9 3.4-5.7zm49.3-12.5l-15.6-12.5 12.4-15.6 15.6 12.5-12.4 15.6zm17.9-71.4l9.2 9.6-4.8 4.6-9.2-9.6 4.8-4.6zm19.3-18.4l-19.3 18.4-4.6-4.8 19.3-18.4 4.6 4.8zm-5.5 32.9l-4.6-4.9 14.5-13.8 4.6 4.8-14.5 13.9zm4.4 14.2l19.3-18.4 4.6 4.8-19.3 18.4-4.6-4.8zm19.3-18.4l-9.2-9.6 4.8-4.6 9.2 9.6-4.8 4.6zm11.4-61.8l8.3 10.4-5.2 4.1-4.2-5.2-20.8 16.6-4.1-5.2 26-20.7zm-5.2 46.7l5.2-4.1 4.2 5.2 20.8-16.6 4.1 5.2-26 20.8-8.3-10.5zm1.1-9.3l5.2-4.2 4.1 5.2-5.2 4.2-4.1-5.2zm1-9.4l5.2-4.1 4.2 5.2-5.2 4.1-4.2-5.2zm1.1-9.3l5.2-4.2 4.1 5.2-5.2 4.2-4.1-5.2zm29.6-22.1l3.7 5.5-5.6 3.7 14.8 22.2-5.5 3.7-25.8-38.8 5.5-3.7 7.4 11.1 5.5-3.7zm9.2 1.9l3.7 5.6-5.5 3.7-3.7-5.6 5.5-3.7zm.1-24l25.8 38.8-5.5 3.7-7.4-11.1-5.6 3.7-3.7-5.5 5.6-3.7-14.8-22.2 5.6-3.7zm42.1-23.6l11.3 24.1-6 2.8-11.3-24.1 6-2.8zm24.1-11.3l19.8 42.1-6 2.8-5.6-12-18.1 8.5-2.8-6 18.1-8.5-11.3-24.1 5.9-2.8zm50.6 22.9l-6-19.1 19-6 6 19.1-19 6z"/></g><path d="M862.8 509.3v-19.5h-19.5v-19.5h-19.5v-19.5h-19.5v-19.5h-19.5v-19.5h-19.5v-19.5h-19.5v-19.5h-39v-39h-19.5v-19.5h-19.5v-19.5h-19.5v-19.5h-19.5v-19.5h-19.5v-19.5h-19.5v-19.5h-19.5v-19.5h-58.5v19.5h-19.5v19.5h-19.5v19.5h-19.5v19.5h-19.5v19.5h-19.5v19.5h-19.5v19.5h-19.5v39h-39v19.5h-19.5v19.5h-19.5v19.5h-19.5v19.5h-19.5v19.5h-19.5v19.5h-19.5v19.5h-19.5v58.5h19.5v19.5h19.5v19.5h19.5v19.5h19.5v19.5h19.5v19.5h19.5v19.5h19.5v19.5h39v39h19.5v19.5h19.5v19.5h19.5v19.5h19.5v19.5h19.5v19.5h19.5v19.5h19.5v19.5h58.5v-19.5h19.5v-19.5h19.5v-19.5h19.5v-19.5h19.5v-19.5h19.5v-19.5h19.5v-19.5h19.5v-39h39v-19.5h19.5v-19.5h19.5v-19.5h19.5v-19.5h19.5v-19.5h19.5v-19.5h19.5v-19.5h19.5v-58.5h-19.5zm-312 39h-19.5v-19.5h19.5v19.5z"/><g fill="#00beff"><path d="M414.3 411.8h19.5v19.5h19.5v19.5h19.5v19.5h19.5v19.5h19.5v19.5h58.5v-19.5h19.5v-19.5h19.5v-19.5h19.5v-19.5h19.5v-19.5h19.5v-19.5h19.5v-58.5h-19.5v-19.5h-19.5v-19.5h-19.5v-19.5h-19.5v-19.5h-19.5v-19.5h-19.5v-19.5h-58.5v19.5h-19.5v19.5h-19.5v19.5h-19.5v19.5h-19.5v19.5h-19.5v19.5h-19.5v58.5h19.5v19.5z"/><path d="M843.3 509.3v-19.5h-19.5v-19.5h-19.5v-19.5h-19.5v-19.5h-19.5v-19.5h-19.5v-19.5h-58.5v19.5h-19.5v19.5h-19.5v19.5h-19.5v19.5h-19.5v19.5h-19.5v19.5h-19.5v58.5h19.5v19.5h19.5v19.5h19.5v19.5h19.5v19.5h19.5v19.5h19.5v19.5h58.5v-19.5h19.5v-19.5h19.5v-19.5h19.5v-19.5h19.5v-19.5h19.5v-19.5h19.5v-58.5h-19.5zm-429 156v-19.5h19.5v-19.5h19.5v-19.5h19.5v-19.5h19.5v-19.5h19.5v-58.5h-19.5v-19.5h-19.5v-19.5h-19.5v-19.5h-19.5v-19.5h-19.5v-19.5h-19.5v-19.5h-58.5v19.5h-19.5v19.5h-19.5v19.5h-19.5v19.5h-19.5v19.5h-19.5v19.5h-19.5v58.5h19.5v19.5h19.5v19.5h19.5v19.5h19.5v19.5h19.5v19.5h19.5v19.5h58.5v-19.5h19.5z"/><path d="M667.8 665.3h-19.5v-19.5h-19.5v-19.5h-19.5v-19.5h-19.5v-19.5h-19.5v-19.5h-58.5v19.5h-19.5v19.5h-19.5v19.5h-19.5v19.5h-19.5v19.5h-19.5v19.5h-19.5v58.5h19.5v19.5h19.5v19.5h19.5v19.5h19.5v19.5h19.5v19.5h19.5v19.5h58.5v-19.5h19.5v-19.5h19.5v-19.5h19.5v-19.5h19.5v-19.5h19.5v-19.5h19.5v-58.5h-19.5v-19.5z"/></g><g fill="#0096ff"><use xlink:href="#A"/><path d="M843.3 548.3h-39v-19.5h-19.5v-19.5h-19.5v-19.5h-19.5v-19.5h-19.5v-19.5h19.5v19.5h19.5v19.5h19.5v19.5h19.5v19.5h39v-19.5h-19.5v-19.5h-19.5v-19.5h-19.5v-19.5h-19.5v-19.5h-19.5v-19.5h-19.5v-19.5h-39v19.5h-19.5v19.5h-19.5v19.5h-19.5v19.5h-19.5v19.5h-19.5v19.5h-19.5v39h19.5v19.5h19.5v19.5h19.5v19.5h19.5v19.5h19.5v19.5h19.5v39h19.5v-58.5h-19.5v-19.5h-19.5v-19.5h-19.5v-19.5h-19.5v-19.5h19.5v19.5h19.5v19.5h19.5v19.5h19.5v19.5h19.5v58.5h19.5v-19.5h19.5v-19.5h19.5v-19.5h19.5v-19.5h19.5v-19.5h19.5v-19.5h19.5v-19.5h-19.5z"/><use xlink:href="#A" x="-175.5" y="175.5"/><path d="M648.3 723.8h-19.5v-19.5h-19.5v-19.5h-19.5v-19.5h-19.5v-19.5h-19.5v-19.5h19.5v19.5h19.5v19.5h19.5v19.5h19.5v19.5h39v-19.5h-19.5v-19.5h-19.5v-19.5h-19.5v-19.5h-19.5v-19.5h-19.5v-19.5h-19.5v-19.5h-39v19.5h-19.5v19.5h-19.5v19.5h-19.5v19.5h-19.5v19.5h-19.5v19.5h-19.5v39h19.5v19.5h19.5v19.5h19.5v19.5h19.5v19.5h19.5v19.5h19.5v39h19.5v-58.5h-19.5v-19.5h-19.5v-19.5h-19.5v-19.5h-19.5v-19.5h19.5v19.5h19.5v19.5h19.5v19.5h19.5v19.5h19.5v58.5h19.5v-19.5h19.5v-19.5h19.5v-19.5h19.5v-19.5h19.5v-19.5h19.5v-19.5h19.5v-19.5h-39z"/></g><path d="M433.8 372.8h39v19.5h19.5v19.5h19.5v19.5h19.5v19.5h19.5v-19.5h19.5v-19.5h19.5v-19.5h19.5v-19.5h19.5v-19.5h-19.5v-19.5h-19.5v-19.5h-19.5v-19.5h-19.5v-78h-39v19.5h-19.5v19.5h-19.5v19.5h-19.5v19.5h-19.5v19.5h-19.5v19.5h-19.5v39h39zm351 156v-19.5h-19.5v-19.5h-19.5v-19.5h-19.5v-78h-39v19.5h-19.5v19.5h-19.5v19.5h-19.5v19.5h-19.5v19.5h-19.5v19.5h-19.5v39h78v19.5h19.5v19.5h19.5v19.5h19.5v19.5h19.5v-19.5h19.5v-19.5h19.5v-19.5h19.5v-19.5h19.5v-19.5h-19.5zm-390 58.5h19.5v-19.5h19.5v-19.5h19.5v-19.5h-19.5v-19.5h-19.5v-19.5h-19.5v-19.5h-19.5v-78h-39v19.5h-19.5v19.5h-19.5v19.5h-19.5v19.5h-19.5v19.5h-19.5v19.5h-19.5v39h78v19.5h19.5v19.5h19.5v19.5h19.5v19.5h19.5v-19.5h19.5v-19.5zm214.5 97.5h-19.5v-19.5h-19.5v-19.5h-19.5v-78h-39v19.5h-19.5v19.5h-19.5v19.5h-19.5v19.5h-19.5v19.5h-19.5v19.5h-19.5v39h78v19.5h19.5v19.5h19.5v19.5h19.5v19.5h19.5v-19.5h19.5v-19.5h19.5v-19.5h19.5v-19.5h19.5v-19.5h-19.5v-19.5z" fill="#99f2f7"/><g fill="#0041e6"><use xlink:href="#B"/><path d="M804.3 548.3v19.5h-19.5v19.5h-19.5v19.5h-19.5v19.5h-19.5v39h19.5v-19.5h19.5v-19.5h19.5v-19.5h19.5v-19.5h19.5v-19.5h19.5v-19.5h-39z"/><use xlink:href="#B" x="-175.5" y="175.5"/><use xlink:href="#B" y="351"/></g><path d="M531.3 353.3h19.5v19.5h-19.5zm-97.5 19.5h39v19.5h19.5v19.5h19.5v19.5h19.5v19.5h19.5v-19.5h19.5v-19.5h19.5v-19.5h19.5v-19.5h19.5v-19.5h-19.5v-19.5h-19.5v-19.5h-19.5v-19.5h-19.5v-78h-19.5v78h-19.5v19.5h-19.5v19.5h-19.5v19.5h-78v19.5h39zm78-19.5v-19.5h19.5v-19.5h19.5v19.5h19.5v19.5h19.5v19.5h-19.5v19.5h-19.5v19.5h-19.5v-19.5h-19.5v-19.5h-19.5v-19.5h19.5zm273 175.5v-19.5h-19.5v-19.5h-19.5v-19.5h-19.5v-78h-19.5v78h-19.5v19.5h-19.5v19.5h-19.5v19.5h-78v19.5h78v19.5h19.5v19.5h19.5v19.5h19.5v19.5h19.5v-19.5h19.5v-19.5h19.5v-19.5h19.5v-19.5h19.5v-19.5h-19.5zm-39 19.5v19.5h-19.5v19.5h-19.5v-19.5h-19.5v-19.5h-19.5v-19.5h19.5v-19.5h19.5v-19.5h19.5v19.5h19.5v19.5h19.5v19.5h-19.5zm-39-19.5h19.5v19.5h-19.5zm-312 58.5h19.5v-19.5h19.5v-19.5h19.5v-19.5h-19.5v-19.5h-19.5v-19.5h-19.5v-19.5h-19.5v-78h-19.5v78h-19.5v19.5h-19.5v19.5h-19.5v19.5h-78v19.5h78v19.5h19.5v19.5h19.5v19.5h19.5v19.5h19.5v-19.5h19.5v-19.5zm-39 0v-19.5h-19.5v-19.5h-19.5v-19.5h19.5v-19.5h19.5v-19.5h19.5v19.5h19.5v19.5h19.5v19.5h-19.5v19.5h-19.5v19.5h-19.5zm0-58.5h19.5v19.5h-19.5zm253.5 156h-19.5v-19.5h-19.5v-19.5h-19.5v-78h-19.5v78h-19.5v19.5h-19.5v19.5h-19.5v19.5h-78v19.5h78v19.5h19.5v19.5h19.5v19.5h19.5v19.5h19.5v-19.5h19.5v-19.5h19.5v-19.5h19.5v-19.5h19.5v-19.5h-19.5v-19.5zm-19.5 39h-19.5v19.5h-19.5v19.5h-19.5v-19.5h-19.5v-19.5h-19.5v-19.5h19.5v-19.5h19.5v-19.5h19.5v19.5h19.5v19.5h19.5v19.5zm-58.5-19.5h19.5v19.5h-19.5z" fill="#fff"/><defs><path id="A" d="M589.8 489.8v-19.5h19.5v-19.5h19.5v-19.5h19.5v-19.5h19.5v-19.5h19.5v-19.5h-58.5v-19.5h-19.5v-19.5h-19.5v-19.5h-19.5v-19.5h-19.5v-19.5h19.5v19.5h19.5v19.5h19.5v19.5h19.5v19.5h39v-19.5h-19.5v-19.5h-19.5v-19.5h-19.5v-19.5h-19.5v-19.5h-19.5v-19.5h-19.5v-19.5h-39v19.5h-19.5v19.5h-19.5v19.5h-19.5v19.5h-19.5v19.5h-19.5v19.5h-19.5v39h19.5v19.5h19.5v19.5h19.5v19.5h19.5v19.5h19.5v19.5h19.5v39h19.5v-58.5h-19.5v-19.5h-19.5v-19.5h-19.5v-19.5h-19.5v-19.5h19.5v19.5h19.5v19.5h19.5v19.5h19.5v19.5h19.5v58.5h19.5v-19.5h19.5z"/><path id="B" d="M628.8 392.3h-19.5v19.5h-19.5v19.5h-19.5v19.5h-19.5v39h19.5v-19.5h19.5v-19.5h19.5v-19.5h19.5v-19.5h19.5v-19.5h19.5v-19.5h-39v19.5z"/></defs></svg>