<svg xmlns="http://www.w3.org/2000/svg" xmlns:xlink="http://www.w3.org/1999/xlink" viewBox="0 0 1082 1082"><circle cx="541" cy="541" r="541" fill="#7e18f8"/><circle cx="541" cy="541" r="441.6" fill="#fa34f3"/><g fill="#fab4f3"><path d="M429.1 49.9l-12.9 3.3 9.9 38.7-6.4 1.6-9.9-38.7-12.9 3.3-1.7-6.4 32.2-8.3 1.7 6.5zm18.1-3.8l5.4 32.9-6.5 1.1-5.4-32.9 6.5-1.1zm19.7-3.2l-19.8 3.2-1.1-6.5 19.8-3.2 1.1 6.5zM452.5 79l19.8-3.2 1.1 6.5-19.8 3.2-1.1-6.5zm21-37.2l5.4 32.9-6.5 1.1-5.4-32.9 6.5-1.1zm19 11.2l20-1.5.5 6.7-20 1.5 1.5 19.9-6.6.5-3.4-46.5 26.6-1.9.5 6.6-20 1.5.9 13.2zm25.6-15.2l1 13.3-6.6.5-1-13.3 6.6-.5zm56.2-5.8l-2.7 46.4-6.7-.4 2.4-39.8-6.6-.4.4-6.6 13.2.8zm17.5 7.8l-4.3 33.1-6.6-.9 4.3-33.1 6.6.9zm-4.3 33.1l19.9 2.6-.8 6.6-19.9-2.6.8-6.6zm24.1-30.5l-19.9-2.6.9-6.6 19.9 2.6-.9 6.6zm6.6.8l-4.3 33.1-6.6-.8 4.3-33.1 6.6.8zm18 3.2L629 78.9l-6.5-1.4 7.2-32.5 6.5 1.4zM629 79l19.6 4.3-1.4 6.5-19.5-4.3L629 79zm26.8-28.2l-19.5-4.3 1.4-6.5 19.6 4.3-1.5 6.5zm6.4 1.4L655 84.7l-6.5-1.4 7.2-32.5 6.5 1.4zm29.1 43.2l7-18.8 18.7 6.9-6.9 18.8-18.8-6.9zm74.9 10.3l-3.2 5.9-5.9-3.2-9.4 17.6-5.8-3.1 21.9-41.1 5.8 3.1-9.4 17.6 6 3.2zm-6.3 11.7l3.1-5.8 5.8 3.1-3.1 5.8-5.8-3.1zm2.7 9.1l3.2-5.9 5.9 3.2-3.2 5.9-5.9-3.2zm2.8 9l3.1-5.8 5.8 3.1-3.1 5.8-5.8-3.1zm6.6-26.7l-5.8-3.1 3.1-5.8 5.8 3.1-3.1 5.8zm9-2.7l-5.9-3.2 3.2-5.9 5.9 3.1-3.2 6zm9-2.8l-5.8-3.1 3.1-5.8 5.8 3.1-3.1 5.8zm20.9 12.8l-17.8 28.1 5.6 3.5-3.5 5.6-16.8-10.7 3.5-5.6 5.6 3.5 17.8-28.1-5.6-3.5 3.5-5.6L820 114l-3.5 5.6-5.6-3.5zm22.1 23.1l-4 5.3-5.4-4-15.9 21.3-5.3-4 27.9-37.3 5.3 3.9-8 10.7 5.4 4.1zm24 1.2l-27.9 37.3-5.3-3.9 8-10.7-5.4-4 4-5.3 5.4 4 15.9-21.3 5.3 3.9zm-22.6 8l-4 5.4-5.3-3.9 4-5.4 5.3 3.9zm5.5 29.2l19.9 17.8-4.4 4.9-19.9-17.8 4.4-4.9zm27.1-20.4l-8.9 9.9-4.9-4.4 8.9-9.9 4.9 4.4zm-13.3 14.9l4.5-5 14.9 13.4-4.5 5-14.9-13.4zm6 23.3l8.9-9.9 4.9 4.4-8.9 9.9-4.9-4.4zm27.2-20.5l-19.8-17.8 4.4-4.9 19.9 17.8-4.5 4.9zm36.3 28l-34 31.8-4.5-4.8 14.6-13.6-13.7-14.6-14.6 13.6-4.5-4.8 34.1-31.8 4.5 4.8-14.6 13.6 13.7 14.6 14.6-13.6 4.4 4.8zm10.8 23.5l-26 20.8 4.1 5.2-5.1 4.1-12.5-15.5 5.1-4.1 4.1 5.2 26-20.8-4.1-5.2 5.1-4.1 12.5 15.5-5.2 4.1-4-5.2zm4.2 27l11.3 16.5-5.5 3.8-11.3-16.5-16.5 11.2-3.7-5.5 38.5-26.3 15 22-5.5 3.7-11.3-16.5-11 7.6zm26 14.5l-11 7.5-3.7-5.5 11-7.5 3.7 5.5zm-8.4 51.3l17.9-8.9 8.9 17.9-17.9 8.9-8.9-17.9zm24.2 52.7l8.5 25.2-6.3 2.1-8.6-25.2 6.4-2.1zm8.6 25.3l12.6-4.3 2.1 6.3-12.6 4.3-2.1-6.3zm6.2-23.3l6.4-2.2 6.4 19-6.3 2.1-6.5-18.9zm18.9-6.4l-12.6 4.3-2.1-6.3 12.6-4.3 2.1 6.3zm8.6 25.2l-8.5-25.2 6.3-2.1 8.5 25.2-6.3 2.1zm-22.4 17.4l1.6 6.4-6.5 1.6 6.3 25.9-6.4 1.6-7.8-32.3 12.8-3.2zm8 4.9l1.6 6.5-6.4 1.6-1.6-6.5 6.4-1.6zm8 4.9l1.6 6.4-6.5 1.6-1.6-6.4 6.5-1.6zm8 4.9l1.6 6.5-6.4 1.5-1.6-6.5 6.4-1.5zm16.1 9.8l-12.9 3.1-1.5-6.4 6.5-1.6-6.3-25.9 6.4-1.6 7.8 32.4zm-8.5 27.2l-6.5 1-1-6.6-26.3 3.9-1-6.5 46.1-6.9 1 6.5-13.2 2 .9 6.6zm16.1 17.8l-46.1 6.9-1-6.5 13.2-2-1-6.6 6.5-1 1 6.6 26.4-3.9 1 6.5zm-21.7-10.3l-6.6 1-1-6.5 6.6-1 1 6.5zm25.2 87.3l-46.6-.2v-6.6l13.3.1.1-20h6.6l-.1 20 26.6.1.1 6.6zm.2-26.7l-26.6-.1v-6.6l26.6.1v6.6zm-42.9 64.4l19.8 2.8-2.8 19.7-19.8-2.8 2.8-19.7zm13 98.1l3.7-12.8-38.4-11 1.8-6.4 38.4 11 3.7-12.8 6.4 1.8-9.2 31.9-6.4-1.7zm-36.8 5.2l-7.2 18.7-6.2-2.4 7.2-18.7 6.2 2.4zm21.5 36.9l-31.1-12 2.4-6.2 31.1 12-2.4 6.2zm9.6-24.9l-31.1-12 2.4-6.2 31.1 12-2.4 6.2zm-7.2 18.7l7.2-18.7 6.2 2.4-7.2 18.7-6.2-2.4zm-21.8 17.2l-8.8 18-6-2.9 8.8-18-17.9-8.8 2.9-5.9 41.7 20.5-11.7 23.9-5.9-2.9 8.8-18-11.9-5.9zm.2 29.8l-11.9-5.9 2.9-5.9 11.9 5.9-2.9 5.9zm-23.1 51.3L925 800.8l3.7-5.6 33.3 22.1 3.7-5.5 5.5 3.7-7.4 11.1zm-42-9.3l-12.2 15.9-5.2-4 12.2-15.9 5.2 4zm10.3 41.4l-26.4-20.3 4-5.2 26.5 20.3-4.1 5.2zm16.2-21.1l-26.5-20.3 4-5.2 26.4 20.3-3.9 5.2zm-12.2 15.8l12.2-15.9 5.2 4-12.2 15.9-5.2-4zm-40.5-3.1L882 865.1l-4.9-4.5 13.6-14.7 4.9 4.4zm6.5 42.2l-24.5-22.6 4.5-4.9 24.5 22.6-4.5 4.9zm18.1-19.6l-24.6-22.6 4.5-4.9 24.5 22.6-4.4 4.9zm-13.6 14.7l13.6-14.7 4.9 4.5-13.6 14.7-4.9-4.5zm-56.5 8.3l12.7 15.5-15.4 12.7-12.7-15.4 15.4-12.8zm-71.8 43.7l3.5 5.6-5.6 3.5-3.5-5.6 5.6-3.5zm9.1 2.2l3.5 5.7-5.7 3.5-3.5-5.7 5.7-3.5zm9.2 2.2l3.5 5.6-5.6 3.5-3.5-5.6 5.6-3.5zm-3.1 33.1l5.6-3.5 3.5 5.6-5.6 3.5-3.5-5.6zm10-21.7l-3.5-5.7 5.7-3.5-10.4-17 5.6-3.5 24.4 39.7-5.6 3.5-10.4-17-5.8 3.5zm-7.8 12.6l5.7-3.5 3.5 5.7-5.7 3.5-3.5-5.7zm2.2-9.2l5.6-3.5 3.5 5.6-5.6 3.5-3.5-5.6zm-26.2 30l-15.2-29.6-5.9 3-3-5.9 17.7-9.1 3 5.9-5.9 3 15.3 29.6 5.9-3 3 5.9-17.7 9.1-3-5.9 5.8-3zm-44 27.4l-18.1-42.9 6.1-2.6 5.2 12.3 6.2-2.6 2.6 6.1-6.2 2.6 10.4 24.5-6.2 2.6zm4.5-23.5l-2.6-6.2 6.1-2.6 2.6 6.2-6.1 2.6zm8.7 3.5l-2.6-6.1 6.2-2.6-10.4-24.6 6.1-2.6 18.1 42.9-6.1 2.6-5.2-12.3-6.1 2.7zm-62-5.3l4.3 12.6-6.3 2.1-4.3-12.6 6.3-2.1zm25.2-8.5l-25.2 8.5-2.1-6.3 25.2-8.5 2.1 6.3zm-2 14.7l2.1 6.4-18.9 6.4-2.1-6.4 18.9-6.4zm-18.8 27.5l25.2-8.6 2.1 6.3-25.2 8.5-2.1-6.2zm25.2-8.5l-4.3-12.6 6.3-2.1 4.3 12.6-6.3 2.1zm-68.3 25.8l-10.3-45.4 6.5-1.5 4.4 19.4 19.5-4.4-4.4-19.4 6.5-1.5 10.3 45.4-6.5 1.5-4.4-19.4-19.5 4.4 4.4 19.4-6.5 1.5zm-25.5-2.4l-4.9-33-6.5 1-1-6.5 19.7-2.9 1 6.5-6.5 1 4.9 33 6.5-1 1 6.5-19.7 2.9-1-6.5 6.5-1zm-51.1 5.1l-1-13.3 6.6-.5 1 13.3-6.6.5zm25.6-15.2l-20 1.5-.5-6.7 20-1.5-1.5-19.9 6.6-.5 3.4 46.5-26.6 1.9-.5-6.6 20-1.5-.9-13.2zm-66-17.9l-1.3 20-19.9-1.3 1.3-20 19.9 1.3zm-96.8 20.4l26.1 5.4-1.3 6.5-26.1-5.4 1.3-6.5zm13.3-31.3l-2.7 13-6.5-1.3 2.7-13 6.5 1.3zm16.9 17.1l-1.3 6.6-19.6-4.1 1.4-6.6 19.5 4.1zm9.2-11.7l-26.1-5.4 1.3-6.5 26.1 5.4-1.3 6.5zm-13.3 31.3l2.7-13.1 6.5 1.3-2.7 13-6.5-1.2zm-71.4-11.3l3.8-12.7 6.3 1.9-1.9 6.4 25.5 7.7-1.9 6.3-31.8-9.6zm16.6-8.9l-6.4-1.9 1.9-6.3 6.4 1.9-1.9 6.3zm24.8-13.3l-6.3-1.9 1.9-6.4-25.5-7.7 1.9-6.3 31.8 9.6-3.8 12.7zm-16.6 8.9l-6.3-1.9 1.9-6.4 6.3 1.9-1.9 6.4zm8.4-4.5l-6.4-1.9 1.9-6.3 6.4 1.9-1.9 6.3zm-75.8 1.6l17.3-43.2 6.1 2.5-5 12.4 6.2 2.5-2.5 6.1-6.2-2.5-9.9 24.7-6-2.5zm19.8-13.5l2.5-6.2 6.1 2.5-2.5 6.2-6.1-2.5zm3.6 8.6l2.5-6.1 6.2 2.5 9.9-24.7 6.1 2.5-17.3 43.2-6.1-2.5 5-12.4-6.3-2.5zm-91.5-30.8l23.6-40.2 5.7 3.4-6.8 11.5 17.3 10.1-3.4 5.7-17.3-10.2-13.5 23-5.6-3.3zm23 13.5l13.5-23 5.7 3.4-13.5 23-5.7-3.4zm-34.1-69.4l-12.4 15.7-15.6-12.3 12.4-15.7 15.6 12.3zm-91.2-37.9l9.2 9.6 28.8-27.7 4.6 4.8-28.8 27.7 9.2 9.6-4.8 4.6-23-24 4.8-4.6zm-24.8-29.6l12.5 15.6-5.2 4.1-12.5-15.6 5.2-4.1zm-4.2-5.2l26-20.8 4.1 5.2-26 20.9-4.1-5.3zm16.7 20.8l26-20.9 4.1 5.2-26 20.9-4.1-5.2zm26-20.8l-12.5-15.6 5.2-4.1 12.5 15.6-5.2 4.1zm-42.2-22.1l-11.1-16.7 5.6-3.7 11.1 16.7 16.6-11 3.6 5.5-38.8 25.7-14.7-22.2 5.5-3.6 11.1 16.7 11.1-7.4zm-25.8-14.8l11.1-7.3 3.6 5.5-11.1 7.4-3.6-5.6zm-32.7-46l41.8-20.4 2.9 6-35.9 17.5 2.9 5.9-5.9 2.9-5.8-11.9zM72 725.1l7.5 18.5-6.1 2.5-7.5-18.5 6.1-2.5zm-2.5-6.1l30.9-12.5 2.5 6.1L72 725.1l-2.5-6.1zm10 24.6l30.9-12.5 2.5 6.1L82 749.7l-2.5-6.1zm30.8-12.5l-7.5-18.5 6.1-2.5 7.5 18.5-6.1 2.5zm-52.9-48.6l5.8 19.2-6.3 1.9-5.8-19.2 6.3-1.9zm-1.9-6.3l31.9-9.6 1.9 6.3-31.9 9.6-1.9-6.3zm7.7 25.5l31.9-9.6 1.9 6.3-31.9 9.6-1.9-6.3zm31.9-9.7l-5.8-19.2 6.3-1.9 5.8 19.2-6.3 1.9zm-16.5-62.5l-19.7 3.2-3.2-19.7 19.8-3.2 3.1 19.7z"/><path d="M36.9 539.8l.2 6.6-6.6.2-.2-6.6 6.6-.2zm13.8 19.6l6.7-.2.2 6.7 19.9-.5.2 6.6-46.5 1.1-.2-6.6 19.9-.5-.2-6.6zm-6.9-13.1l.2 6.7-6.7.2-.2-6.7 6.7-.2zm6.8 6.5l.2 6.6-6.6.2-.2-6.6 6.6-.2zm13.4 6.3l-6.6.2-.2-6.6 6.6-.2.2 6.6zm6.6-6.8l-6.7.2-.2-6.7 6.7-.2.2 6.7zm6.4-6.8l-6.6.2-.2-6.6 6.6-.2.2 6.6zm-39.2-30.4l33.3 1.7.3-6.6 6.6.4-1 19.9-6.6-.4.3-6.6-33.3-1.7-.4 6.6-6.6-.4 1-19.9 6.6.4-.2 6.6zm9.2-30.4l6.6.8-.8 6.7 26.4 3.4-.8 6.6-46.2-5.9.8-6.6 13.2 1.7.8-6.7zm-10.7-21.4l46.2 5.9-.8 6.6-13.2-1.7-.9 6.7-6.6-.8.9-6.6-26.4-3.4.8-6.7zM54.4 479l6.6.8-.8 6.6-6.7-.9.9-6.5zm-2.6-59L46 446l-6.5-1.4 5.8-26 6.5 1.4zM46 446l13 2.9-1.4 6.5-13-2.9L46 446zm19.6 4.3l-6.5-1.5 4.3-19.5 6.5 1.5-4.3 19.5zm17.3-16.6l-13-2.9 1.4-6.5 13 2.9-1.4 6.5zm-5.8 26l5.7-26 6.5 1.4-5.8 26-6.4-1.4zm-18.8-84.8l44.4 14.1-2 6.3-19-6-6.1 19.1 19 6-2 6.3-44.4-14.1 2-6.3 19 6 6-19.1-19-6 2.1-6.3zm15.1-21.2l31 12.4 2.5-6.1 6.1 2.5-7.4 18.5-6.1-2.5 2.5-6.1L71 360l-2.5 6.1-6.1-2.5 7.4-18.5 6.1 2.5-2.5 6.1zM94.8 337l8.8-18 6 3-8.8 18 17.9 8.8-2.9 5.9L74 334.2l11.7-23.9 5.9 2.9-8.8 18 12 5.8zm-.2-29.8l11.9 5.9-2.9 5.9-11.9-5.9 2.9-5.9zm49-18.1L127 277.9l11.1-16.5 16.6 11.2-11.1 16.5zm31-94L156.8 215l-4.9-4.4 17.8-19.9 4.9 4.4zM156.8 215l9.9 8.9-4.4 4.9-9.9-8.9 4.4-4.9zm14.9 13.3l-5-4.5 13.3-14.9 5 4.5-13.3 14.9zm5.6 13.8l17.8-19.9 4.9 4.4-17.8 19.8-4.9-4.3zm17.7-19.8l-9.9-8.9 4.4-4.9 9.9 8.9-4.4 4.9zm7.4-63.3l9.1 9.7-4.8 4.5-4.6-4.9-19.5 18.2-4.5-4.8 24.3-22.7zm-1.6 47l4.8-4.5 4.6 4.9 19.5-18.2 4.5 4.8-24.3 22.7-9.1-9.7zm.3-9.3l4.9-4.6 4.5 4.8-4.9 4.6-4.5-4.8zm.3-9.5l4.8-4.5 4.6 4.9-4.8 4.5-4.6-4.9zm.3-9.3l4.9-4.6 4.5 4.8-4.9 4.6-4.5-4.8zm28.8-25l4.1 5.2-5.3 4.1 16.4 21-5.2 4.1-28.6-36.8 5.2-4.1 8.2 10.5 5.2-4zm7.5-22.7l28.6 36.8-5.2 4.1-8.2-10.5-5.3 4.1-4.1-5.2 5.3-4.1-16.3-21 5.2-4.2zm1.7 23.9l4.1 5.3-5.2 4.1-4.1-5.3 5.2-4.1zm40.2-51.6l13 23.2-5.8 3.2-13-23.3 5.8-3.1zm23.2-13l22.7 40.6-5.8 3.2-6.5-11.6-17.5 9.8-3.2-5.8 17.5-9.7-13-23.3 5.8-3.2zm53.7 18.7l-7.3-18.7 18.6-7.2 7.3 18.6-18.6 7.3z"/></g><path d="M862.8 509.3v-19.5h-19.5v-19.5h-19.5v-19.5h-19.5v-19.5h-19.5v-19.5h-19.5v-19.5h-19.5v-19.5h-39v-39h-19.5v-19.5h-19.5v-19.5h-19.5v-19.5h-19.5v-19.5h-19.5v-19.5h-19.5v-19.6h-19.5v-19.5h-58.5v19.5h-19.5v19.5h-19.5v19.5h-19.5v19.5h-19.5v19.5h-19.5v19.5h-19.5v19.5h-19.5v39h-39v19.5h-19.5v19.5h-19.5v19.5h-19.5v19.5h-19.5v19.5h-19.5v19.5h-19.5v19.5h-19.5v58.5h19.5v19.5h19.5v19.5h19.5v19.5h19.5v19.5h19.5v19.5h19.5v19.5h19.5v19.5h39v39h19.5v19.5h19.5v19.5h19.5v19.5h19.5v19.5h19.5v19.5h19.5v19.5h19.5v19.5h58.5v-19.5h19.5v-19.5h19.5v-19.5h19.5v-19.5h19.5v-19.5h19.5v-19.5h19.5v-19.5h19.5v-39h39v-19.5h19.5v-19.5h19.5v-19.5h19.5v-19.5h19.5v-19.5h19.5v-19.5h19.5v-19.5h19.5v-58.5l-19.5.1h0zm-312 39h-19.5v-19.5h19.5v19.5z"/><g fill="#fa34f3"><path d="M414.3 411.8h19.5v19.5h19.5v19.5h19.5v19.5h19.5v19.5h19.5v19.5h58.5v-19.5h19.5v-19.5h19.5v-19.5h19.5v-19.5h19.5v-19.5h19.5v-19.5h19.5v-58.5h-19.5v-19.5h-19.5v-19.5h-19.5v-19.5h-19.5v-19.5h-19.5v-19.5h-19.5v-19.6h-58.5v19.5h-19.5v19.5h-19.5v19.5h-19.5v19.5h-19.5v19.5h-19.5v19.5h-19.5v58.5h19.5v19.6h0z"/><path d="M843.3 509.3v-19.5h-19.5v-19.5h-19.5v-19.5h-19.5v-19.5h-19.5v-19.5h-19.5v-19.5h-58.5v19.5h-19.5v19.5h-19.5v19.5h-19.5v19.5h-19.5v19.5h-19.5v19.5h-19.5v58.5h19.5v19.5h19.5v19.5h19.5v19.5h19.5v19.5h19.5v19.5h19.5v19.5h58.5v-19.5h19.5v-19.5h19.5v-19.5h19.5v-19.5h19.5v-19.5h19.5v-19.5h19.5v-58.5h-19.5zm-429 156v-19.5h19.5v-19.5h19.5v-19.5h19.5v-19.5h19.5v-19.5h19.5v-58.5h-19.5v-19.5h-19.5v-19.5h-19.5v-19.5h-19.5v-19.5h-19.5v-19.5h-19.5v-19.5h-58.5v19.5h-19.5v19.5h-19.5v19.5h-19.5v19.5h-19.5v19.5h-19.5v19.5h-19.5v58.5h19.5v19.5h19.5v19.5h19.5v19.5h19.5v19.5h19.5v19.5h19.5v19.5h58.5v-19.5h19.5z"/><path d="M667.8 665.3h-19.5v-19.5h-19.5v-19.5h-19.5v-19.5h-19.5v-19.5h-19.5v-19.5h-58.5v19.5h-19.5v19.5h-19.5v19.5h-19.5v19.5h-19.5v19.5h-19.5v19.5h-19.5v58.5h19.5v19.5h19.5v19.5h19.5v19.5h19.5v19.5h19.5v19.5h19.5v19.5h58.5v-19.5h19.5v-19.5h19.5v-19.5h19.5v-19.5h19.5v-19.5h19.5v-19.5h19.5v-58.5h-19.5v-19.5z"/></g><g fill="#cf15f9"><path d="M589.8 489.8v-19.5h19.5v-19.5h19.5v-19.5h19.5v-19.5h19.5v-19.5h19.5v-19.5h-58.5v-19.5h-19.5v-19.5h-19.5v-19.5h-19.5v-19.5h-19.5v-19.5h19.5v19.5h19.5v19.5h19.5v19.5h19.5v19.5h39v-19.5h-19.5v-19.5h-19.5v-19.5h-19.5v-19.5h-19.5v-19.5h-19.5v-19.5h-19.5v-19.6h-39v19.5h-19.5v19.5h-19.5v19.5h-19.5v19.5h-19.5v19.5h-19.5v19.5h-19.5v39h19.5v19.5h19.5v19.5h19.5v19.5h19.5v19.5h19.5v19.5h19.5v39h19.5v-58.5h-19.5v-19.5h-19.5v-19.5h-19.5v-19.5h-19.5v-19.5h19.5v19.5h19.5v19.5h19.5v19.5h19.5v19.5h19.5v58.5h19.5v-19.5l19.5.1h0z"/><path d="M843.3 548.3h-39v-19.5h-19.5v-19.5h-19.5v-19.5h-19.5v-19.5h-19.5v-19.5h19.5v19.5h19.5v19.5h19.5v19.5h19.5v19.5h39v-19.5h-19.5v-19.5h-19.5v-19.5h-19.5v-19.5h-19.5v-19.5h-19.5v-19.5h-19.5v-19.5h-39v19.5h-19.5v19.5h-19.5v19.5h-19.5v19.5h-19.5v19.5h-19.5v19.5h-19.5v39h19.5v19.5h19.5v19.5h19.5v19.5h19.5v19.5h19.5v19.5h19.5v39h19.5v-58.5h-19.5v-19.5h-19.5v-19.5h-19.5v-19.5h-19.5v-19.5h19.5v19.5h19.5v19.5h19.5v19.5h19.5v19.5h19.5v58.5h19.5v-19.5h19.5v-19.5h19.5v-19.5h19.5v-19.5h19.5v-19.5h19.5v-19.5h19.5v-19.5h-19.5zm-429 117v-19.5h19.5v-19.5h19.5v-19.5h19.5v-19.5h19.5v-19.5h19.5v-19.5h-58.5v-19.5h-19.5v-19.5h-19.5v-19.5h-19.5v-19.5h-19.5v-19.5h19.5v19.5h19.5v19.5h19.5v19.5h19.5v19.5h39v-19.5h-19.5v-19.5h-19.5v-19.5h-19.5v-19.5h-19.5v-19.5h-19.5v-19.5h-19.5v-19.5h-39v19.5h-19.5v19.5h-19.5v19.5h-19.5v19.5h-19.5v19.5h-19.5v19.5h-19.5v39h19.5v19.5h19.5v19.5h19.5v19.5h19.5v19.5h19.5v19.5h19.5v39h19.5v-58.5h-19.5v-19.5h-19.5v-19.5h-19.5v-19.5h-19.5v-19.5h19.5v19.5h19.5v19.5h19.5v19.5h19.5v19.5h19.5v58.5h19.5v-19.5h19.5z"/><path d="M648.3 723.8h-19.5v-19.5h-19.5v-19.5h-19.5v-19.5h-19.5v-19.5h-19.5v-19.5h19.5v19.5h19.5v19.5h19.5v19.5h19.5v19.5h39v-19.5h-19.5v-19.5h-19.5v-19.5h-19.5v-19.5h-19.5v-19.5h-19.5v-19.5h-19.5v-19.5h-39v19.5h-19.5v19.5h-19.5v19.5h-19.5v19.5h-19.5v19.5h-19.5v19.5h-19.5v39h19.5v19.5h19.5v19.5h19.5v19.5h19.5v19.5h19.5v19.5h19.5v39h19.5v-58.5h-19.5v-19.5h-19.5v-19.5h-19.5v-19.5h-19.5v-19.5h19.5v19.5h19.5v19.5h19.5v19.5h19.5v19.5h19.5v58.5h19.5v-19.5h19.5v-19.5h19.5v-19.5h19.5v-19.5h19.5v-19.5h19.5v-19.5h19.5v-19.5h-39z"/></g><path d="M433.8 372.8h39v19.5h19.5v19.5h19.5v19.5h19.5v19.5h19.5v-19.5h19.5v-19.5h19.5v-19.5h19.5v-19.5h19.5v-19.5h-19.5v-19.5h-19.5v-19.5h-19.5v-19.5h-19.5v-78h-39v19.5h-19.5v19.5h-19.5v19.5h-19.5v19.5h-19.5v19.5h-19.5v19.5h-19.5v39h39zm351 156v-19.5h-19.5v-19.5h-19.5v-19.5h-19.5v-78h-39v19.5h-19.5v19.5h-19.5v19.5h-19.5v19.5h-19.5v19.5h-19.5v19.5h-19.5v39h78v19.5h19.5v19.5h19.5v19.5h19.5v19.5h19.5v-19.5h19.5v-19.5h19.5v-19.5h19.5v-19.5h19.5v-19.5h-19.5zm-390 58.5h19.5v-19.5h19.5v-19.5h19.5v-19.5h-19.5v-19.5h-19.5v-19.5h-19.5v-19.5h-19.5v-78h-39v19.5h-19.5v19.5h-19.5v19.5h-19.5v19.5h-19.5v19.5h-19.5v19.5h-19.5v39h78v19.5h19.5v19.5h19.5v19.5h19.5v19.5h19.5v-19.5h19.5v-19.5zm214.5 97.5h-19.5v-19.5h-19.5v-19.5h-19.5v-78h-39v19.5h-19.5v19.5h-19.5v19.5h-19.5v19.5h-19.5v19.5h-19.5v19.5h-19.5v39h78v19.5h19.5v19.5h19.5v19.5h19.5v19.5h19.5v-19.5h19.5v-19.5h19.5v-19.5h19.5v-19.5h19.5v-19.5h-19.5v-19.5z" fill="#fab4f3"/><g fill="#ac15f9"><use xlink:href="#A"/><path d="M804.3 548.3v19.5h-19.5v19.5h-19.5v19.5h-19.5v19.5h-19.5v39h19.5v-19.5h19.5v-19.5h19.5v-19.5h19.5v-19.5h19.5v-19.5h19.5v-19.5h-39z"/><use xlink:href="#A" x="-175.5" y="175.5"/><use xlink:href="#A" y="351"/></g><path d="M531.3 353.3h19.5v19.5h-19.5zm-97.5 19.5h39v19.5h19.5v19.5h19.5v19.5h19.5v19.5h19.5v-19.5h19.5v-19.5h19.5v-19.5h19.5v-19.5h19.5v-19.5h-19.5v-19.5h-19.5v-19.5h-19.5v-19.5h-19.5v-78h-19.5v78h-19.5v19.5h-19.5v19.5h-19.5v19.5h-78v19.5h39zm78-19.5v-19.5h19.5v-19.5h19.5v19.5h19.5v19.5h19.5v19.5h-19.5v19.5h-19.5v19.5h-19.5v-19.5h-19.5v-19.5h-19.5v-19.5h19.5zm273 175.5v-19.5h-19.5v-19.5h-19.5v-19.5h-19.5v-78h-19.5v78h-19.5v19.5h-19.5v19.5h-19.5v19.5h-78v19.5h78v19.5h19.5v19.5h19.5v19.5h19.5v19.5h19.5v-19.5h19.5v-19.5h19.5v-19.5h19.5v-19.5h19.5v-19.5h-19.5zm-39 19.5v19.5h-19.5v19.5h-19.5v-19.5h-19.5v-19.5h-19.5v-19.5h19.5v-19.5h19.5v-19.5h19.5v19.5h19.5v19.5h19.5v19.5h-19.5zm-39-19.5h19.5v19.5h-19.5zm-312 58.5h19.5v-19.5h19.5v-19.5h19.5v-19.5h-19.5v-19.5h-19.5v-19.5h-19.5v-19.5h-19.5v-78h-19.5v78h-19.5v19.5h-19.5v19.5h-19.5v19.5h-78v19.5h78v19.5h19.5v19.5h19.5v19.5h19.5v19.5h19.5v-19.5h19.5v-19.5zm-39 0v-19.5h-19.5v-19.5h-19.5v-19.5h19.5v-19.5h19.5v-19.5h19.5v19.5h19.5v19.5h19.5v19.5h-19.5v19.5h-19.5v19.5h-19.5zm0-58.5h19.5v19.5h-19.5zm253.5 156h-19.5v-19.5h-19.5v-19.5h-19.5v-78h-19.5v78h-19.5v19.5h-19.5v19.5h-19.5v19.5h-78v19.5h78v19.5h19.5v19.5h19.5v19.5h19.5v19.5h19.5v-19.5h19.5v-19.5h19.5v-19.5h19.5v-19.5h19.5v-19.5h-19.5v-19.5zm-19.5 39h-19.5v19.5h-19.5v19.5h-19.5v-19.5h-19.5v-19.5h-19.5v-19.5h19.5v-19.5h19.5v-19.5h19.5v19.5h19.5v19.5h19.5v19.5zm-58.5-19.5h19.5v19.5h-19.5z" fill="#fff"/><defs><path id="A" d="M628.8 392.3h-19.5v19.5h-19.5v19.5h-19.5v19.5h-19.5v39h19.5v-19.5h19.5v-19.5h19.5v-19.5h19.5v-19.5h19.5v-19.5h19.5v-19.5h-39v19.5z"/></defs></svg>