<svg xmlns="http://www.w3.org/2000/svg" xmlns:xlink="http://www.w3.org/1999/xlink" viewBox="0 0 1082 1082"><circle cx="541" cy="541" r="541" fill="#0041e6"/><circle cx="541" cy="541" r="441.6" fill="#22dff0"/><path d="M440.2 47l-13 3 9 38.9-6.5 1.5-9-38.9-13 3-1.5-6.4 32.4-7.5 1.6 6.4zm15-2.8l4.8 33-6.5 1-4.8-33 6.5-1zm19.8-2.9l-19.8 2.9-1-6.5 19.8-2.9 1 6.5zm-15 35.9l19.8-2.9 1 6.5-19.8 2.9-1-6.5zm21.5-36.8l4.8 33-6.5.9-4.8-33 6.5-.9zM497.7 52l20-1.2.4 6.7-20 1.2 1.2 19.9-6.6.4-2.8-46.5 26.6-1.6.4 6.6-20 1.2.8 13.3zm25.8-14.9l.8 13.3-6.6.4-.8-13.3 6.6-.4zm49.8-5.6L570.6 78l-6.7-.4 2.3-39.9-6.6-.4.4-6.6 13.3.8zm14.3 7.5l-4 33.1-6.6-.8 4-33.1 6.6.8zm-4 33.1l19.9 2.4-.8 6.6-19.9-2.4.8-6.6zm23.9-30.7L587.6 39l.8-6.6 19.9 2.4-.8 6.6zm6.6.8l-4 33.1-6.6-.8 4-33.1 6.6.8zm15.2 2.6l-6.8 32.6-6.5-1.3 6.8-32.6 6.5 1.3zm-6.8 32.6l19.6 4.1-1.3 6.5-19.6-4.1 1.3-6.5zm26.4-28.6l-19.6-4.1 1.3-6.5 19.6 4.1-1.3 6.5zm6.4 1.4l-6.8 32.6-6.5-1.3 6.8-32.6 6.5 1.3zm24.4 41.1l6.5-19 18.9 6.5-6.5 19-18.9-6.5zm51.7 11.9l5.9 2.9-5.8 12-5.9-2.9 5.8-12zm8.8-3.1l6 2.9-2.9 5.9-6-2.9 2.9-5.9zm11.7-23.9l-5.8 12-5.9-2.9 5.8-12 5.9 2.9zm.2 14.9l-2.9 5.9-6-2.9 2.9-5.9 6 2.9zm3 8.8l-2.9 6-6-2.9 2.9-6 6 2.9zm-5.8 12l2.9-5.9 6 2.9-2.9 5.9-6-2.9zm.2 14.9l5.8-12 5.9 2.9-5.8 12-5.9-2.9zm11.7-23.9l-6-2.9 2.9-5.9 6 2.9-2.9 5.9zm8.8-3.1l-5.9-2.9 5.8-12 5.9 2.9-5.8 12zm9.7 12.8l17.2 10.2-3.4 5.8-17.2-10.2-10.2 17.1-5.7-3.4 23.8-40 22.9 13.6-3.4 5.7-17.2-10.2-6.8 11.4zm29.7 2.2l-6.8 11.5-5.7-3.4 6.8-11.4 5.7 3.3zm9.6 46.8l12.3-15.8L847 158l-12.3 15.8-15.7-12.2zm40.5 33l18.8 18.8-4.7 4.7-18.8-18.9 4.7-4.6zm14.1-4.8l4.7-4.7 14.1 14.2-4.7 4.7-14.1-14.2zm14.1-14.1l-9.4 9.4-4.7-4.7 9.4-9.4 4.7 4.7zm-9.4 37.7l9.4-9.4 4.7 4.7-9.4 9.4-4.7-4.7zm28.2-18.9l-18.8-18.8 4.7-4.7 18.8 18.8-4.7 4.7zM892.4 218l4.3 5.1-5.1 4.3 17.1 20.3-5.1 4.3-21.4-25.4 10.2-8.6zm9.3.8l4.3 5.1-5 4.3-4.3-5.1 5-4.3zm9.4.8l4.2 5-5.1 4.3-4.3-5 5.2-4.3zm28.1 2.4l-10.2 8.6-4.3-5.1 5.1-4.3-17.2-20.3 5-4.3 21.6 25.4zm-18.8-1.6l4.3 5.1-5 4.3-4.3-5.1 5-4.3zm21.5 27.2l-5.4 3.8-3.9-5.5-21.7 15.4-3.8-5.4 37.9-27 3.8 5.4L938 242l3.9 5.6zm22.4 8.5l-37.9 27-3.8-5.4 10.8-7.7-3.9-5.5 5.4-3.8 3.9 5.5 21.7-15.4 3.8 5.3zm-23.9.7l-5.5 3.9-3.8-5.4 5.5-3.9 3.8 5.4zm59.3 61l-41.4 21.4-3-5.9 11.8-6.1-9.2-17.8 5.9-3 9.2 17.8 23.7-12.2 3 5.8zm-12.3-23.7l-23.7 12.2-3-5.9 23.7-12.2 3 5.9zm-10.3 71.4l18.8-6.9 6.9 18.7-18.8 6.9-6.9-18.7zm57 74.2l-3-13-38.9 9.1-1.5-6.4 38.9-9.1-3-13 6.4-1.5 7.5 32.4-6.4 1.5zm-30.2 19.9l2.9 19.8-6.5 1-2.9-19.8 6.5-1zm33-4.9l-33 4.8-1-6.5 33-4.8 1 6.5zm3.8 26.4l-33 4.8-1-6.5 33-4.8 1 6.5zm-.9-6.6l-2.9-19.8 6.5-1 2.9 19.8-6.5 1zm-10.7 22.7l1.3 20-6.7.4-1.3-20-19.9 1.3-.4-6.6 46.5-2.9 1.7 26.6-6.6.4-1.3-20-13.3.8zm15 25.8l-13.3.8-.4-6.6 13.3-.8.4 6.6zm5.7 49.8l-46.5-2.6.4-6.7 39.9 2.3.4-6.6 6.6.4-.8 13.2zm-40.7 10.4l-2.4 19.9-6.6-.8 2.4-19.9 6.6.8zm30 30.4l-33.1-3.9.8-6.6 33.1 3.9-.8 6.6zm3.1-26.4l-33.1-4 .8-6.6 33.1 4-.8 6.6zm-2.4 19.8l2.4-19.9 6.6.8-2.4 19.9-6.6-.8zm-35.9 15.1l-4 19.6-6.5-1.3 4-19.6 6.5 1.3zm27.3 32.8l-32.6-6.7 1.3-6.5 32.6 6.7-1.3 6.5zm5.4-26.1l-32.6-6.7 1.3-6.5 32.6 6.7-1.3 6.5zm-4 19.6l4-19.6 6.5 1.3-4 19.6-6.5-1.3zm-42.5 30.9l18.9 6.5-6.4 18.9-18.9-6.5 6.4-18.9zm-35.4 69.9l12 5.8-2.9 5.9-12-5.8 2.9-5.9zm23.6-18.1l-2.9 5.9-12-5.8 2.9-5.9 12 5.8zm-8.7 17.9l5.9 2.9-2.9 6-5.9-2.9 2.9-6zm11.7-9.1l-2.9 6-5.9-2.9 2.9-6 5.9 2.9zm.2 14.9l-6-2.9 2.9-5.9 6 2.9-2.9 5.9zm-2.9 6l2.9-6 5.9 2.9-2.9 6-5.9-2.9zm3.1 8.9l2.9-5.9 12 5.8-2.9 5.9-12-5.8zm8.7-17.9l-5.9-2.9 2.9-6 5.9 2.9-2.9 6zm14.9-.3l-12-5.8 2.9-5.9 12 5.8-2.9 5.9zM969 779.4l-10.2 17.2-5.8-3.4 10.2-17.2-17.2-10.2 3.4-5.7 40.1 23.8-13.6 22.9-5.7-3.4 10.2-17.2-11.4-6.8zm-2.2 29.7l-11.5-6.8 3.4-5.7 11.5 6.8-3.4 5.7zm-46.7 9.7l15.8 12.3-12.2 15.8-15.8-12.3 12.2-15.8zm-33 40.5l-18.8 18.8-4.7-4.7 18.8-18.8 4.7 4.7zm-18.8 18.8l9.4 9.4-4.7 4.7-9.4-9.4 4.7-4.7zm23.6-4.8l4.7 4.7-14.1 14.2-4.7-4.7 14.1-14.2zm-4.7 33l18.8-18.8 4.7 4.7-18.8 18.8-4.7-4.7zm18.8-18.8l-9.4-9.4 4.7-4.7 9.4 9.4-4.7 4.7zm-42.2 4.7l-5 4.3-4.3-5.1-20.3 17.2-4.3-5 25.4-21.5 8.5 10.1zm-4 46.8l-8.6-10.2 5.1-4.3 4.3 5.1 20.3-17.2 4.3 5-25.4 21.6zm1.6-18.7l-5.1 4.3-4.3-5 5.1-4.3 4.3 5zm.8-9.4l-5 4.3-4.3-5.1 5-4.3 4.3 5.1zm.8-9.4l-5.1 4.3-4.3-5 5.1-4.3 4.3 5zm-37.3 62.7l-27-37.9 5.4-3.8 7.7 10.9 5.5-3.9 3.8 5.4-5.5 3.9 15.5 21.7-5.4 3.7zm8.5-22.4l-3.8-5.4 5.5-3.9-15.5-21.7 5.4-3.8 27 37.9-5.4 3.8-7.7-10.9-5.5 4zm-9.2-1.6l-3.9-5.5 5.4-3.8 3.9 5.5-5.4 3.8zm-60.9 59.5l-21.5-41.3 5.9-3.1 6.1 11.8 17.8-9.2 3.1 5.9-17.8 9.2 12.3 23.6-5.9 3.1zm23.7-12.3l-12.3-23.6 5.9-3 12.3 23.7-5.9 2.9zm-71.4-10.3l6.9 18.8-18.7 6.9-6.9-18.8 18.7-6.9zm-74.1 57.1l13-3-9.1-38.9 6.4-1.5 9.1 38.9 13-3 1.5 6.4-32.4 7.6-1.5-6.5zm-41.4 6.7l-4.9-33 6.5-1 4.9 33-6.5 1zm21.5-36.8l-19.8 2.9-1-6.5 19.8-2.9 1 6.5zm-14.9 35.9l19.8-2.9 1 6.5-19.8 2.9-1-6.5zm19.8-3l-4.9-33 6.5-1 4.9 32.9-6.5 1.1zm-68.3 7.3l-.9-13.3 6.6-.4.9 13.3-6.6.4zm25.7-15l-20 1.3-.4-6.7 20-1.3-1.3-19.9 6.6-.4 3 46.4-26.6 1.7-.4-6.6 20-1.3-.9-13.2zm-75.5 20.9l2.6-46.5 6.7.4-2.2 39.9 6.6.4-.4 6.6-13.3-.8zm-40.9-10.7l3.9-33.1 6.6.8-3.9 33.1-6.6-.8zm6.5.8l19.9 2.4-.8 6.6-19.9-2.4.8-6.6zm23.9-30.8l-19.9-2.4.8-6.6 19.9 2.4-.8 6.6zm-4 33.1l3.9-33.1 6.6.8-3.9 33.1-6.6-.8zm-67.6-10.9l6.6-32.6 6.5 1.3-6.6 32.6-6.5-1.3zm6.5 1.3l19.6 4-1.3 6.5-19.6-4 1.3-6.5zm26.2-28.6l-19.6-4 1.3-6.5 19.6 4-1.3 6.5zm-6.7 32.6l6.7-32.6 6.5 1.3-6.6 32.6-6.6-1.3zm-50.6-46.4l-6.4 19-18.9-6.4 6.4-19 18.9 6.4zm-90.5-8.3l5.9 2.9-5.8 12-5.9-2.9 5.8-12zm8.9-3.1l6 2.9-2.9 5.9-6-2.9 2.9-5.9zm11.6-24l-5.8 12-5.9-2.9 5.8-12 5.9 2.9zm.2 14.9l-2.9 5.9-6-2.9 2.9-5.9 6 2.9zm-5.8 12l2.9-6 5.9 2.9-2.9 6-5.9-2.9zm3.1 8.8l2.9-6 6 2.9-2.9 6-6-2.9zm.2 14.9l5.8-12 5.9 2.9-5.8 12-5.9-2.9zm11.6-23.9l-6-2.9 2.9-5.9 6 2.9-2.9 5.9zm8.8-3.1l-5.9-2.9 5.8-12 5.9 2.9-5.8 12zm-78-11.4l6.8-11.5 5.7 3.4-6.8 11.5-5.7-3.4zm29.7 2.1l-17.2-10.2 3.4-5.8 17.2 10.2 10.1-17.1 5.7 3.4-23.7 40.1-22.9-13.6 3.4-5.7 17.2 10.2 6.8-11.5zM263 920.8l-12.2 15.8-15.7-12.2 12.2-15.8 15.7 12.2zm-87.6-32.7l18.9 18.8-4.7 4.7-18.9-18.8 4.7-4.7zm33 4.6l-4.7 4.8-14.2-14.1 4.7-4.8 14.2 14.1zm-4.8-23.6l-9.4 9.4-4.7-4.7 9.4-9.4 4.7 4.7zm-9.3 37.8l9.4-9.4 4.7 4.7-9.4 9.4-4.7-4.7zm28.2-19l-18.9-18.8 4.7-4.7 18.9 18.8-4.7 4.7zm-79.8-27.1l10.1-8.6 4.3 5-5.1 4.3 17.2 20.3-5 4.3-21.5-25.3zm18.8 1.5l-4.3-5.1 5-4.3 4.3 5.1-5 4.3zm9.3.8l-4.3-5 5.1-4.3 4.3 5-5.1 4.3zm18.7 1.5l-4.3-5 5.1-4.3-17.2-20.3 5-4.3 21.5 25.3-10.1 8.6zm-9.3-.8l-4.3-5.1 5-4.3 4.3 5.1-5 4.3zm-62.8-37.2l37.9-27.1 3.8 5.4-10.8 7.7 3.9 5.5-5.4 3.8-3.9-5.5-21.7 15.5-3.8-5.3zm22.4 8.5l5.4-3.8 3.9 5.5 21.7-15.5 3.8 5.4-37.9 27.1-3.9-5.4 10.8-7.8-3.8-5.5zm1.6-9.2l5.4-3.9 3.9 5.4-5.5 3.9-3.8-5.4zM82 765.2l41.3-21.5 3.1 5.9-11.8 6.1 9.3 17.7-5.9 3.1-9.3-17.7-23.6 12.3-3.1-5.9zm12.3 23.6l23.6-12.3 3.1 5.8-23.6 12.3-3.1-5.8zm10-71.5l-18.8 7-6.9-18.7 18.8-7 6.9 18.7zm-57.1-74l3.1 13 38.9-9.2 1.5 6.4-38.9 9.2 3.1 13-6.4 1.5-7.6-32.3 6.3-1.6zm-5.9-34.7l3 19.8-6.5 1-3-19.8 6.5-1zm-1-6.5l33-5 1 6.5-33 5-1-6.5zm4 26.3l33-5 1 6.5-33 5-1-6.5zm32.9-5l-3-19.8 6.5-1 3 19.8-6.5 1zM52 585.8l-1.3-19.9 6.7-.4 1.3 20 19.9-1.3.4 6.6-46.4 3.1-1.8-26.6 6.6-.4 1.3 19.9 13.3-1zm-15.1-25.7l13.3-.9.4 6.6-13.3.9-.4-6.6zM31 510.3l46.5 2.5-.4 6.7-39.9-2.2-.4 6.6-6.6-.4.8-13.2zm9.9-34.4l-2.3 19.9-6.6-.8 2.3-19.9 6.6.8zm-2.4 19.9l33.1 3.9-.8 6.6-33.1-3.9.8-6.6zm3.1-26.4l33.1 3.9-.8 6.6-33.1-3.9.8-6.6zm30 30.3l2.3-19.9 6.6.8-2.3 19.9-6.6-.8zM48 434.5l-4 19.6-6.5-1.3 4-19.6 6.5 1.3zm-4 19.6l32.7 6.6-1.3 6.5-32.7-6.6 1.3-6.5zm5.3-26.1l32.7 6.6-1.3 6.5-32.7-6.6 1.3-6.5zm27.4 32.8l4-19.6 6.5 1.3-4 19.6-6.5-1.3zm13.7-57.3l-19-6.4 6.4-18.9 19 6.4-6.4 18.9zM75 331.2l12 5.8-2.9 6-12-5.8 2.9-6zM98.6 313l-2.9 6-12-5.8 2.9-6 12 5.8zm-8.7 18l6 2.9-2.9 6-6-2.9 2.9-6zm11.8-9.2l-2.9 6-5.9-2.9 2.9-6 5.9 2.9zm-3 6.1l6 2.9-2.9 6-6-2.9 2.9-6zm.3 14.9l2.9-6 6 2.9-2.9 6-6-2.9zm3.1 8.8l2.9-6 12 5.8-2.9 6-12-5.8zm8.6-18l-6-2.9 2.9-6 6 2.9-2.9 6zm14.9-.2l-12-5.8 2.9-6 12 5.8-2.9 6zm-14.3-30.2l10.2-17.2 5.8 3.4-10.2 17.2 17.2 10.1-3.4 5.7-40.1-23.6 13.5-22.9 5.7 3.3-10.1 17.2 11.4 6.8zm2.1-29.7l11.5 6.7-3.4 5.7-11.5-6.8 3.4-5.6zm46.6-9.6l-15.8-12.2 12.1-15.8 15.8 12.2-12.1 15.8zm32.6-87.7l-18.8 18.9-4.7-4.7 18.8-18.9 4.7 4.7zm-18.8 18.9l9.4 9.4-4.7 4.7-9.5-9.4 4.8-4.7zm14.2 14.1l-4.8-4.7 14.1-14.2 4.8 4.7-14.1 14.2zm4.8 14.1l18.8-18.9 4.7 4.7-18.8 18.9-4.7-4.7zm18.8-18.9l-9.5-9.4 4.7-4.7 9.5 9.4-4.7 4.7zm8.2-60.9l8.6 10.1-5 4.3-4.3-5.1-20.3 17.3-4.3-5 25.3-21.6zm-3.7 46.8l5-4.3 4.3 5.1 20.3-17.3 4.3 5-25.3 21.5-8.6-10zm.7-9.3l5.1-4.3 4.3 5-5.1 4.4-4.3-5.1zm.8-9.5l5-4.3 4.3 5.1-5 4.3-4.3-5.1zm.7-9.3l5.1-4.3 4.3 5-5.1 4.4-4.3-5.1zm27.2-21.6l3.8 5.4-5.4 3.9 15.5 21.6-5.4 3.8-27.1-37.8 5.4-3.8 7.8 10.8 5.4-3.9zm8.5-22.4l27.1 37.8-5.4 3.8L268 149l-5.4 3.9-3.8-5.4 5.4-3.9-15.5-21.6 5.3-3.8zm.7 24l3.9 5.4-5.4 3.8-3.9-5.4 5.4-3.8zm37-47.3l12.3 23.6-5.9 3.1L285.8 98l5.9-3.1zm23.6-12.3l21.6 41.2-5.9 3.1-6.2-11.8-17.7 9.3-3.1-5.9 17.7-9.3-12.3-23.6 5.9-3zm48.1 22.2l-7-18.8 18.7-7 7 18.8-18.7 7z" fill="#99f2f7"/><path d="M862.8 509.3v-19.5h-19.5v-19.5h-19.5v-19.5h-19.5v-19.5h-19.5v-19.5h-19.5v-19.5h-19.5v-19.5h-39v-39h-19.5v-19.5h-19.5v-19.5h-19.5v-19.5h-19.5v-19.5h-19.5v-19.5h-19.5v-19.6h-19.5v-19.5h-58.5v19.5h-19.5v19.5h-19.5v19.5h-19.5v19.5h-19.5v19.5h-19.5v19.5h-19.5v19.5h-19.5v39h-39v19.5h-19.5v19.5h-19.5v19.5h-19.5v19.5h-19.5v19.5h-19.5v19.5h-19.5v19.5h-19.5v58.5h19.5v19.5h19.5v19.5h19.5v19.5h19.5v19.5h19.5v19.5h19.5v19.5h19.5v19.5h39v39h19.5v19.5h19.5v19.5h19.5v19.5h19.5v19.5h19.5v19.5h19.5v19.5h19.5v19.5h58.5v-19.5h19.5v-19.5h19.5v-19.5h19.5v-19.5h19.5v-19.5h19.5v-19.5h19.5v-19.5h19.5v-39h39v-19.5h19.5v-19.5h19.5v-19.5h19.5v-19.5h19.5v-19.5h19.5v-19.5h19.5v-19.5h19.5v-58.5l-19.5.1h0zm-312 39h-19.5v-19.5h19.5v19.5z"/><g fill="#00beff"><path d="M414.3 411.8h19.5v19.5h19.5v19.5h19.5v19.5h19.5v19.5h19.5v19.5h58.5v-19.5h19.5v-19.5h19.5v-19.5h19.5v-19.5h19.5v-19.5h19.5v-19.5h19.5v-58.5h-19.5v-19.5h-19.5v-19.5h-19.5v-19.5h-19.5v-19.5h-19.5v-19.5h-19.5v-19.6h-58.5v19.5h-19.5v19.5h-19.5v19.5h-19.5v19.5h-19.5v19.5h-19.5v19.5h-19.5v58.5h19.5v19.6z"/><path d="M843.3 509.3v-19.5h-19.5v-19.5h-19.5v-19.5h-19.5v-19.5h-19.5v-19.5h-19.5v-19.5h-58.5v19.5h-19.5v19.5h-19.5v19.5h-19.5v19.5h-19.5v19.5h-19.5v19.5h-19.5v58.5h19.5v19.5h19.5v19.5h19.5v19.5h19.5v19.5h19.5v19.5h19.5v19.5h58.5v-19.5h19.5v-19.5h19.5v-19.5h19.5v-19.5h19.5v-19.5h19.5v-19.5h19.5v-58.5h-19.5zm-429 156v-19.5h19.5v-19.5h19.5v-19.5h19.5v-19.5h19.5v-19.5h19.5v-58.5h-19.5v-19.5h-19.5v-19.5h-19.5v-19.5h-19.5v-19.5h-19.5v-19.5h-19.5v-19.5h-58.5v19.5h-19.5v19.5h-19.5v19.5h-19.5v19.5h-19.5v19.5h-19.5v19.5h-19.5v58.5h19.5v19.5h19.5v19.5h19.5v19.5h19.5v19.5h19.5v19.5h19.5v19.5h58.5v-19.5h19.5z"/><path d="M667.8 665.3h-19.5v-19.5h-19.5v-19.5h-19.5v-19.5h-19.5v-19.5h-19.5v-19.5h-58.5v19.5h-19.5v19.5h-19.5v19.5h-19.5v19.5h-19.5v19.5h-19.5v19.5h-19.5v58.5h19.5v19.5h19.5v19.5h19.5v19.5h19.5v19.5h19.5v19.5h19.5v19.5h58.5v-19.5h19.5v-19.5h19.5v-19.5h19.5v-19.5h19.5v-19.5h19.5v-19.5h19.5v-58.5h-19.5v-19.5z"/></g><g fill="#0096ff"><path d="M589.8 489.8v-19.5h19.5v-19.5h19.5v-19.5h19.5v-19.5h19.5v-19.5h19.5v-19.5h-58.5v-19.5h-19.5v-19.5h-19.5v-19.5h-19.5v-19.5h-19.5v-19.5h19.5v19.5h19.5v19.5h19.5v19.5h19.5v19.5h39v-19.5h-19.5v-19.5h-19.5v-19.5h-19.5v-19.5h-19.5v-19.5h-19.5v-19.5h-19.5v-19.6h-39v19.5h-19.5v19.5h-19.5v19.5h-19.5v19.5h-19.5v19.5h-19.5v19.5h-19.5v39h19.5v19.5h19.5v19.5h19.5v19.5h19.5v19.5h19.5v19.5h19.5v39h19.5v-58.5h-19.5v-19.5h-19.5v-19.5h-19.5v-19.5h-19.5v-19.5h19.5v19.5h19.5v19.5h19.5v19.5h19.5v19.5h19.5v58.5h19.5v-19.5l19.5.1h0z"/><path d="M843.3 548.3h-39v-19.5h-19.5v-19.5h-19.5v-19.5h-19.5v-19.5h-19.5v-19.5h19.5v19.5h19.5v19.5h19.5v19.5h19.5v19.5h39v-19.5h-19.5v-19.5h-19.5v-19.5h-19.5v-19.5h-19.5v-19.5h-19.5v-19.5h-19.5v-19.5h-39v19.5h-19.5v19.5h-19.5v19.5h-19.5v19.5h-19.5v19.5h-19.5v19.5h-19.5v39h19.5v19.5h19.5v19.5h19.5v19.5h19.5v19.5h19.5v19.5h19.5v39h19.5v-58.5h-19.5v-19.5h-19.5v-19.5h-19.5v-19.5h-19.5v-19.5h19.5v19.5h19.5v19.5h19.5v19.5h19.5v19.5h19.5v58.5h19.5v-19.5h19.5v-19.5h19.5v-19.5h19.5v-19.5h19.5v-19.5h19.5v-19.5h19.5v-19.5h-19.5zm-429 117v-19.5h19.5v-19.5h19.5v-19.5h19.5v-19.5h19.5v-19.5h19.5v-19.5h-58.5v-19.5h-19.5v-19.5h-19.5v-19.5h-19.5v-19.5h-19.5v-19.5h19.5v19.5h19.5v19.5h19.5v19.5h19.5v19.5h39v-19.5h-19.5v-19.5h-19.5v-19.5h-19.5v-19.5h-19.5v-19.5h-19.5v-19.5h-19.5v-19.5h-39v19.5h-19.5v19.5h-19.5v19.5h-19.5v19.5h-19.5v19.5h-19.5v19.5h-19.5v39h19.5v19.5h19.5v19.5h19.5v19.5h19.5v19.5h19.5v19.5h19.5v39h19.5v-58.5h-19.5v-19.5h-19.5v-19.5h-19.5v-19.5h-19.5v-19.5h19.5v19.5h19.5v19.5h19.5v19.5h19.5v19.5h19.5v58.5h19.5v-19.5h19.5z"/><path d="M648.3 723.8h-19.5v-19.5h-19.5v-19.5h-19.5v-19.5h-19.5v-19.5h-19.5v-19.5h19.5v19.5h19.5v19.5h19.5v19.5h19.5v19.5h39v-19.5h-19.5v-19.5h-19.5v-19.5h-19.5v-19.5h-19.5v-19.5h-19.5v-19.5h-19.5v-19.5h-39v19.5h-19.5v19.5h-19.5v19.5h-19.5v19.5h-19.5v19.5h-19.5v19.5h-19.5v39h19.5v19.5h19.5v19.5h19.5v19.5h19.5v19.5h19.5v19.5h19.5v39h19.5v-58.5h-19.5v-19.5h-19.5v-19.5h-19.5v-19.5h-19.5v-19.5h19.5v19.5h19.5v19.5h19.5v19.5h19.5v19.5h19.5v58.5h19.5v-19.5h19.5v-19.5h19.5v-19.5h19.5v-19.5h19.5v-19.5h19.5v-19.5h19.5v-19.5h-39z"/></g><path d="M433.8 372.8h39v19.5h19.5v19.5h19.5v19.5h19.5v19.5h19.5v-19.5h19.5v-19.5h19.5v-19.5h19.5v-19.5h19.5v-19.5h-19.5v-19.5h-19.5v-19.5h-19.5v-19.5h-19.5v-78h-39v19.5h-19.5v19.5h-19.5v19.5h-19.5v19.5h-19.5v19.5h-19.5v19.5h-19.5v39h39zm351 156v-19.5h-19.5v-19.5h-19.5v-19.5h-19.5v-78h-39v19.5h-19.5v19.5h-19.5v19.5h-19.5v19.5h-19.5v19.5h-19.5v19.5h-19.5v39h78v19.5h19.5v19.5h19.5v19.5h19.5v19.5h19.5v-19.5h19.5v-19.5h19.5v-19.5h19.5v-19.5h19.5v-19.5h-19.5zm-390 58.5h19.5v-19.5h19.5v-19.5h19.5v-19.5h-19.5v-19.5h-19.5v-19.5h-19.5v-19.5h-19.5v-78h-39v19.5h-19.5v19.5h-19.5v19.5h-19.5v19.5h-19.5v19.5h-19.5v19.5h-19.5v39h78v19.5h19.5v19.5h19.5v19.5h19.5v19.5h19.5v-19.5h19.5v-19.5zm214.5 97.5h-19.5v-19.5h-19.5v-19.5h-19.5v-78h-39v19.5h-19.5v19.5h-19.5v19.5h-19.5v19.5h-19.5v19.5h-19.5v19.5h-19.5v39h78v19.5h19.5v19.5h19.5v19.5h19.5v19.5h19.5v-19.5h19.5v-19.5h19.5v-19.5h19.5v-19.5h19.5v-19.5h-19.5v-19.5z" fill="#99f2f7"/><g fill="#0041e6"><use xlink:href="#A"/><path d="M804.3 548.3v19.5h-19.5v19.5h-19.5v19.5h-19.5v19.5h-19.5v39h19.5v-19.5h19.5v-19.5h19.5v-19.5h19.5v-19.5h19.5v-19.5h19.5v-19.5h-39z"/><use xlink:href="#A" x="-175.5" y="175.5"/><use xlink:href="#A" y="351"/></g><path d="M531.3 353.3h19.5v19.5h-19.5zm-97.5 19.5h39v19.5h19.5v19.5h19.5v19.5h19.5v19.5h19.5v-19.5h19.5v-19.5h19.5v-19.5h19.5v-19.5h19.5v-19.5h-19.5v-19.5h-19.5v-19.5h-19.5v-19.5h-19.5v-78h-19.5v78h-19.5v19.5h-19.5v19.5h-19.5v19.5h-78v19.5h39zm78-19.5v-19.5h19.5v-19.5h19.5v19.5h19.5v19.5h19.5v19.5h-19.5v19.5h-19.5v19.5h-19.5v-19.5h-19.5v-19.5h-19.5v-19.5h19.5zm273 175.5v-19.5h-19.5v-19.5h-19.5v-19.5h-19.5v-78h-19.5v78h-19.5v19.5h-19.5v19.5h-19.5v19.5h-78v19.5h78v19.5h19.5v19.5h19.5v19.5h19.5v19.5h19.5v-19.5h19.5v-19.5h19.5v-19.5h19.5v-19.5h19.5v-19.5h-19.5zm-39 19.5v19.5h-19.5v19.5h-19.5v-19.5h-19.5v-19.5h-19.5v-19.5h19.5v-19.5h19.5v-19.5h19.5v19.5h19.5v19.5h19.5v19.5h-19.5zm-39-19.5h19.5v19.5h-19.5zm-312 58.5h19.5v-19.5h19.5v-19.5h19.5v-19.5h-19.5v-19.5h-19.5v-19.5h-19.5v-19.5h-19.5v-78h-19.5v78h-19.5v19.5h-19.5v19.5h-19.5v19.5h-78v19.5h78v19.5h19.5v19.5h19.5v19.5h19.5v19.5h19.5v-19.5h19.5v-19.5zm-39 0v-19.5h-19.5v-19.5h-19.5v-19.5h19.5v-19.5h19.5v-19.5h19.5v19.5h19.5v19.5h19.5v19.5h-19.5v19.5h-19.5v19.5h-19.5zm0-58.5h19.5v19.5h-19.5zm253.5 156h-19.5v-19.5h-19.5v-19.5h-19.5v-78h-19.5v78h-19.5v19.5h-19.5v19.5h-19.5v19.5h-78v19.5h78v19.5h19.5v19.5h19.5v19.5h19.5v19.5h19.5v-19.5h19.5v-19.5h19.5v-19.5h19.5v-19.5h19.5v-19.5h-19.5v-19.5zm-19.5 39h-19.5v19.5h-19.5v19.5h-19.5v-19.5h-19.5v-19.5h-19.5v-19.5h19.5v-19.5h19.5v-19.5h19.5v19.5h19.5v19.5h19.5v19.5zm-58.5-19.5h19.5v19.5h-19.5z" fill="#fff"/><defs><path id="A" d="M628.8 392.3h-19.5v19.5h-19.5v19.5h-19.5v19.5h-19.5v39h19.5v-19.5h19.5v-19.5h19.5v-19.5h19.5v-19.5h19.5v-19.5h19.5v-19.5h-39v19.5z"/></defs></svg>