<svg xmlns="http://www.w3.org/2000/svg" viewBox="0 0 34 16"  xmlns:v="https://vecta.io/nano"><path d="M27,7v1h3V7H27z" fill="#fff"/><g fill="#f3410a"><path d="M14 14h1V7h-1v7z"/><path d="M13,14h1v1h-1V14z"/><path d="M2 15v1h11v-1H2zm18-1h1v1h-1v-1z"/><path d="M20 7h-1v7h1V7zM1 1h1v1h2v1h2v1h2v1h2v1h2v1h2V6h-1V5h-2V4H9V3H7V2H5V1H3V0H0v14h1V1z"/><path d="M31 0v1h-2v1h-2v1h-2v1h-2v1h-2v1h-1v1h2V6h2V5h2V4h2V3h2V2h2V1h1v13h1V0h-3zM1 14h1v1H1v-1z"/><path d="M32,14h1v1h-1V14z"/><path d="M21,15v1h11v-1H21z"/></g><path d="M12 7V6h-2V5H8V4H6V3H4V2H2V1H1v13h1v1h11v-1h1V7h-2zm20-6v1h-2v1h-2v1h-2v1h-2v1h-2v1h-2v7h1v1h11v-1h1V1h-1zm-2 6v1h-3V7h3zm-15 4v2h4v-2h-4zm0-3v2h4V8h-4z"/></svg>