<svg xmlns="http://www.w3.org/2000/svg" viewBox="0 0 40 21"><path d="M34 1v1h-1v1h-1v1h-1v1h-1v1h-1v1h-2v1h-3v1h-8V8h-3V7h-2V6h-1V5H9V4H8V3H7V2H6V1H3v20h34V1h-3z"/><linearGradient id="A" gradientUnits="userSpaceOnUse" x1="9.769" y1="24.403" x2="30.231" y2="-2.403"><stop offset="0" stop-color="#ff0"/><stop offset=".8" stop-color="#f0f"/></linearGradient><path d="M36 2v18H4V2h2v1h1v1h1v1h1v1h1v1h1v1h2v1h3v1h8V9h3V8h2V7h1V6h1V5h1V4h1V3h1V2h2z" fill="url(#A)"/><path d="M16.6 10.8h1.5v1.5h-1.5zm2.9 1.5v1.5H21v1.4h-1.5v-1.4H18v4.4h1.5v-1.5h2.9v-4.4z" fill="#fff"/></svg>