<svg xmlns="http://www.w3.org/2000/svg" viewBox="0 0 34 9"><path d="M3 1v7h11V1H3z" fill="#0ff"/><path d="M3 1v2h11V1H3z" fill="#00b9ff"/><path d="M10 2v5h1V2h-1z" opacity=".4" fill="#fff" enable-background="new"/><path d="M20 1v7h11V1H20z" fill="#f0f"/><path d="M20 1v2h11V1H20z" fill="#d700ff"/><path d="M27 2v5h1V2h-1z" opacity=".4" fill="#fff" enable-background="new"/><path d="M0 0v5h2v3h1v1h11V8h1V5h4v3h1v1h11V8h1V5h2V0H0zm30 7h-9V2h9v5zM13 7H4V2h9v5z" fill="#c8c8c8"/><path d="M15 2v1h4V2h-4zM0 2v1h2V2H0zm32 0v1h2V2h-2z" fill="#aaa"/></svg>