<svg xmlns="http://www.w3.org/2000/svg" viewBox="0 0 20 14"><path d="M1 8V7h1V5h1V4h1V3h1V2h2V1h1V0h4v1h1v1h2v1h1v1h1v1h1v2h1v1h1v2h-1v1h-1v1h-2v1h-2v1H6v-1H4v-1H2v-1H1v-1H0V8h1z"/><path d="M1 8v2h1v1h2v1h2v1h8v-1h2v-1h2v-1h1V8h-1V7h-1V5h-1V4h-1V3h-2V2h-1V1H8v1H7v1H5v1H4v1H3v2H2v1H1zm3-2h1v1H4V6z" fill="#fff"/><linearGradient id="A" gradientUnits="userSpaceOnUse" x1="5.999" y1="14.052" x2="14.643" y2="2.727"><stop offset="0" stop-color="#ff0"/><stop offset=".8" stop-color="#f0f"/></linearGradient><path d="M8 2V1h4v1H8zm7 2V3h-2v1h2zm-2-1V2h-1v1h1zm3 2V4h-1v1h1zm0 2h1V5h-1v2zm-2 4v1h2v-1h-2zm-8 1v1h8v-1H6zm10-2v1h2v-1h-2zm2-2V7h-1v1h1zm0 0v2h1V8h-1zM8 2H7v1h1V2zM7 4V3H5v1h2zM5 5V4H4v1h1zm-1 6v1h2v-1H4zm-2-1v1h2v-1H2zm2-5H3v2h1V5zM2 8H1v2h1V8zm1-1H2v1h1V7z" fill="url(#A)"/><path d="M5 8h1v1H5z" fill="#ff78ff"/></svg>