<svg xmlns="http://www.w3.org/2000/svg" viewBox="0 0 26 14"><path d="M1 8V7h1V5h1V4h1V3h2V2h3V1h1V0h6v1h1v1h3v1h2v1h1v1h1v2h1v1h1v2h-1v1h-1v1h-2v1h-2v1H6v-1H4v-1H2v-1H1v-1H0V8h1z"/><path d="M1 8v2h1v1h2v1h2v1h14v-1h2v-1h2v-1h1V8h-1V7h-1V5h-1V4h-2V3h-3V2h-1V1h-6v1H9v1H6v1H4v1H3v2H2v1H1z" fill="#fff"/><linearGradient id="A" gradientUnits="userSpaceOnUse" x1="18.106" y1="15.499" x2="7.367" y2="1.43"><stop offset="0" stop-color="#ff0"/><stop offset=".8" stop-color="#f0f"/></linearGradient><path d="M10 2V1h6v1h-6zm0 1V2H9v1h1zM9 4V3H6v1h3zM6 5V4H4v1h2zM4 5H3v2h1V5zm0 6v1h2v-1H4zm2 1v1h14v-1H6zm-4-2v1h2v-1H2zm1-2V7H2v1h1zM1 8v2h1V8H1zm15-5h1V2h-1v1zm4 1V3h-3v1h1 2zm2 1V4h-2v1h2zm-2 6v1h2v-1h-2zm2-1v1h2v-1h-2zm0-3h1V5h-1v2zm2 3h1V8h-1v2zm-1-2h1V7h-1v1z" fill="url(#A)"/></svg>