<svg xmlns="http://www.w3.org/2000/svg" viewBox="0 0 26 14"><path d="M25 8V7h-1V5h-1V4h-1V3h-2V2h-3V1h-1V0h-6v1H9v1H6v1H4v1H3v1H2v2H1v1H0v2h1v1h1v1h2v1h2v1h14v-1h2v-1h2v-1h1v-1h1V8h-1z"/><path d="M24 8V7h-1V5h-1V4h-2V3h-3V2h-1V1h-6v1H9v1H6v1H4v1H3v2H2v1H1v2h1v1h2v1h2v1h14v-1h2v-1h2v-1h1V8h-1zM7 5h2v1h1v1H9V6H7v1H6V6h1V5zm13 1v1h-1V6h-2v1h-1V6h1V5h2v1h1zm-9 3V8h1v1h2V8h1v1h-1v1h-2V9h-1z" fill="#fff"/><path d="M20 8h1v1h-1zM5 8h1v1H5z" fill="#ff78ff"/><linearGradient id="A" gradientUnits="userSpaceOnUse" x1="7.894" y1="15.499" x2="18.633" y2="1.43"><stop offset="0" stop-color="#ff0"/><stop offset=".8" stop-color="#f0f"/></linearGradient><path d="M10 2V1h6v1h-6zm7 1V2h-1v1h1zm3 1V3h-3v1h3zm2 1V4h-2v1h2zm0 2h1V5h-1v2zm-2 4v1h2v-1h-2zM6 12v1h14v-1H6zm16-2v1h2v-1h-2zm2-2V7h-1v1h1zm0 0v2h1V8h-1zM10 2H9v1h1V2zM8 4h1V3H6v1h2zM6 5V4H4v1h2zm-2 6v1h2v-1H4zm-2-1v1h2v-1H2zm2-5H3v2h1V5zM2 8H1v2h1V8zm1-1H2v1h1V7z" fill="url(#A)"/></svg>