<svg xmlns="http://www.w3.org/2000/svg" viewBox="0 0 20 14"><path d="M19 8V7h-1V5h-1V4h-1V3h-1V2h-2V1h-1V0H8v1H7v1H5v1H4v1H3v1H2v2H1v1H0v2h1v1h1v1h2v1h2v1h8v-1h2v-1h2v-1h1v-1h1V8h-1z"/><path d="M18 8V7h-1V5h-1V4h-1V3h-2V2h-1V1H8v1H7v1H5v1H4v1H3v2H2v1H1v2h1v1h2v1h2v1h8v-1h2v-1h2v-1h1V8h-1zm-2-1h-1V6h1v1z" fill="#fff"/><linearGradient id="A" gradientUnits="userSpaceOnUse" x1="14.002" y1="14.052" x2="5.357" y2="2.727"><stop offset="0" stop-color="#ff0"/><stop offset=".8" stop-color="#f0f"/></linearGradient><path d="M8 2V1h4v1H8zM7 4V3H5v1h2zm1-1V2H7v1h1zM5 5V4H4v1h1zM4 5H3v2h1V5zm0 6v1h2v-1H4zm2 1v1h8v-1H6zm-4-2v1h2v-1H2zm1-2V7H2v1h1zM1 8v2h1V8H1zm11-5h1V2h-1v1zm3 1V3h-2v1h2zm1 1V4h-1v1h1zm-2 6v1h2v-1h-2zm2-1v1h2v-1h-2zm0-3h1V5h-1v2zm2 3h1V8h-1v2zm-1-2h1V7h-1v1z" fill="url(#A)"/><path d="M14 8h1v1h-1z" fill="#ff78ff"/></svg>