<svg xmlns="http://www.w3.org/2000/svg" viewBox="0 0 25 18"><path d="M0 3v15h3v-2h3v2h4v-2h4v2h4v-2h3v2h3V3H0z" fill="#05244e"/><path d="M1 3v13h2v-2h3v2h4v-2h4v2h4v-2h3v2h2V3H1z" fill="#1d77ba"/><path d="M1 4v1h3V4H1z" fill="#edab50"/><g fill="#2561b1"><path d="M2 7v1h2V7H2z"/><path d="M1 8h1v1H1zm3 0h1v1H4z"/></g><g fill="#063575"><path d="M1 5v1h4v4h1V5H1z"/><path d="M4 10h1v1H4z"/><path d="M1 11v1h3v-1H1z"/></g><path d="M0 3v1h13v8h1v1h11V3H0z" fill="#391f21"/><path d="M24 3V2h-1V1h-1V0h-3v1h-1v1h-1v2h-1v1h9V3h-1z" fill="#13280f"/><g fill="#5d2c28"><path d="M18 7h1v1h-1zm5 0h1v1h-1z"/><path d="M19 8h1v1h-1zm3 0h1v1h-1z"/></g><g fill="#8a4836"><path d="M24 7V6h-8v4h8V8h-1v1h-1V8h1V7h1zm-5 2V8h-1V7h1v1h1v1h-1z"/><path d="M15 9V5h1V4h-2v8h10v-1h-8v-1h-1V9z"/></g><g fill="#657392"><path d="M19 1h1v1h-1z"/><path d="M18 4h1V2h-1v2z"/><path d="M17 4h1v1h-1z"/></g><path d="M23 3V2h-1V1h-1v1h-1v2h-1v1h5V3h-1z" fill="#285145"/><path d="M22 1h-1v2h1V1zm-3 3h1v1h-1zm3 0h1v1h-1z" fill="#52bb34"/><g fill="#298355"><path d="M20 2h1v1h-1z"/><path d="M21 5h1V3h-1v2zm2-2v2h1V3h-1z"/></g></svg>