<svg xmlns="http://www.w3.org/2000/svg" viewBox="0 0 34 18"><path d="M0 3v15h4v-2h5v2h5v-2h6v2h5v-2h5v2h4V3H0z" fill="#05244e"/><path d="M0 3v1h2v8h1v1h28v-1h1V4h2V3H0z" fill="#391f21"/><path d="M31 12v1H3v-1H2v4h2v-2h5v2h5v-2h6v2h5v-2h5v2h2v-4h-1z" fill="#1d77ba"/><g fill="#5d2c28"><path d="M7 7h1v1H7zm5 0h1v1h-1zm9 0h1v1h-1zm5 0h1v1h-1z"/><path d="M8 8h1v1H8zm3 0h1v1h-1zm11 0h1v1h-1zm3 0h1v1h-1z"/></g><g fill="#8a4836"><path d="M29 4v1h1v5h-1v1H19v-1h-1V5h1V4h-4v1h1v5h-1v1H5v-1H4V5h1V4H3v8h28V4h-2z"/><path d="M15 10V6H5v4h10zm-2-3v1h-1v1h-1V8h1V7h1zM8 7v1h1v1H8V8H7V7h1zm21 3V6H19v4h10zm-2-3v1h-1v1h-1V8h1V7h1zm-5 0v1h1v1h-1V8h-1V7h1z"/></g><path d="M14 4V3h-1V2h-1V1h-1V0H9v1H8v1H7v1H6v1H5v1h10V4h-1z" fill="#13280f"/><path d="M13 4V3h-1V2h-1V1H9v1H8v1H7v1H6v1h8V4h-1z" fill="#298355"/><path d="M11 2v2h1V2h-1zM8 5h1V3H8v2z" fill="#285145"/><path d="M10 1H9v2h1v1h1V2h-1V1zM7 4h1v1H7zm5 0h1v1h-1z" fill="#52bb34"/><path d="M28 4V3h-1V2h-1V1h-1V0h-2v1h-1v1h-1v1h-1v1h-1v1h10V4h-1z" fill="#12032d"/><path d="M27 4V3h-1V2h-1V1h-2v1h-1v1h-1v1h-1v1h8V4h-1z" fill="#45116b"/><g fill="#db3ffd"><path d="M23 1h1v1h-1z"/><path d="M22 2h1v1h-1zm3 0h1v1h-1z"/><path d="M21 3h1v1h-1z"/><path d="M20 4h1v1h-1z"/></g><g fill="#501e80"><path d="M24 1h1v1h-1zm0 2h2v1h-2z"/><path d="M23 4h1v1h-1z"/></g><path d="M24 2h1v1h-1zm2 2h1v1h-1z" fill="#8f16f8"/></svg>