<svg xmlns="http://www.w3.org/2000/svg" viewBox="0 0 25 21"><path d="M1 6v15h3v-2h3v2h4v-2h4v2h4v-2h3v2h3V6H1z" fill="#05244e"/><path d="M2 6v13h2v-2h3v2h4v-2h4v2h4v-2h3v2h2V6H2z" fill="#1d77ba"/><g fill="#2561b1"><path d="M21 10v1h2v-1h-2z"/><path d="M20 11h1v1h-1zm3 0h1v1h-1z"/></g><g fill="#063575"><path d="M20 9h4V8h-5v5h1V9z"/><path d="M20 13h1v1h-1z"/><path d="M24 15v-1h-3v1h3z"/></g><path d="M0 6v10h11v-1h1V7h13V6H0z" fill="#391f21"/><path d="M8 7V5H7V4H6V3H3v1H2v1H1v1H0v2h9V7H8z" fill="#12032d"/><path d="M21 0v8h3V0h-3z" fill="#ffa214"/><g fill="#5d2c28"><path d="M1 10h1v1H1zm5 0h1v1H6z"/><path d="M2 11h1v1H2zm3 0h1v1H5z"/></g><g fill="#8a4836"><path d="M9 7v1h1v5H9v1H1v1h10V7H9z"/><path d="M9 9H1v1h1v1h1v1H2v-1H1v2h8V9zm-4 3v-1h1v-1h1v1H6v1H5z"/></g><path d="M21 0v8h2V0h-2z" fill="#ffc825"/><path d="M21 1v1h2V1h-2zm0 2h1v1h-1zm0 2v1h2V5h-2z" fill="#8a4836"/><path d="M5 7V5H4V4H3v1H2v1H1v2h5V7H5z" fill="#45116b"/><g fill="#657392"><path d="M5 4h1v1H5z"/><path d="M7 5H6v2h1V5z"/><path d="M7 7h1v1H7z"/></g><g fill="#db3ffd"><path d="M2 5h1v1H2zm2 0h1v1H4z"/><path d="M1 8h1V6H1v2z"/></g><g fill="#501e80"><path d="M3 4v2h1V4H3z"/><path d="M2 8h2V7H3V6H2v2z"/></g><g fill="#8f16f8"><path d="M3 6h1v1H3z"/><path d="M4 7h1v1H4z"/></g></svg>