<svg xmlns="http://www.w3.org/2000/svg" viewBox="0 0 34 21"><path d="M0 6v15h4v-2h5v2h5v-2h6v2h5v-2h5v2h4V6H0z" fill="#05244e"/><path d="M2 6v13h2v-2h5v2h5v-2h6v2h5v-2h5v2h2V6H2z" fill="#1d77ba"/><path d="M0 6v1h34V6H0z" fill="#391f21"/><path d="M24 7v1h4V7h-4z" fill="#edab50"/><path d="M18 9v2h1V9h-1z" fill="#c42430"/><g fill="#2561b1"><path d="M6 10v1h2v-1H6zm5 0v1h2v-1h-2zm10 0v1h2v-1h-2zm5 0v1h2v-1h-2z"/><path d="M5 11h1v1H5zm3 0h1v1H8zm2 0h1v1h-1zm3 0h1v1h-1zm7 0h1v1h-1zm3 0h1v1h-1zm2 0h1v1h-1zm3 0h1v1h-1z"/><path d="M9 12h1v1H9zm15 0h1v1h-1z"/></g><g fill="#063575"><path d="M4 8v5h1V9h9v4h1V8H4zm15 0v5h1V9h9v4h1V8H19z"/><path d="M5 13h1v1H5zm8 0h1v1h-1zm7 0h1v1h-1zm8 0h1v1h-1z"/><path d="M6 14v1h7v-1H6zm15 0v1h7v-1h-7z"/></g><path d="M6 0v8h4V0H6z" fill="#ffa214"/><path d="M6 0v8h3V0H6z" fill="#ffc825"/><path d="M6 1v1h2V1H6zm0 2h1v1H6zm0 2v1h2V5H6z" fill="#8a4836"/></svg>