<svg xmlns="http://www.w3.org/2000/svg" viewBox="0 0 34 10"><path d="M0 0v2h1v1h2v1h1v3h1v2h2v1h8V9h1V8h2v1h1v1h8V9h2V7h1V4h1V3h2V2h1V0H0z" opacity=".588" fill="#2aa4ff" enable-background="new"/><path d="M0 0v2h1v1h2v1h1V3h1V2h1V1h9v1h4V1h9v1h1v1h1v1h1V3h2V2h1V0H0z"/><g fill="#fff"><path d="M7 2h1v1H7zm2 0h1v1H9zm11 0h1v1h-1zm2 0h1v1h-1z"/><path d="M6 3h1v1H6zm2 0h1v1H8zm11 0h1v1h-1zm2 0h1v1h-1z"/><path d="M5 4h1v1H5zm2 0h1v1H7zm11 0h1v1h-1zm2 0h1v1h-1z"/></g><path d="M2 1v1h2V1H2zm28 0v1h2V1h-2z" fill="#db3ffd"/></svg>