<svg xmlns="http://www.w3.org/2000/svg" viewBox="0 0 17 20"><path d="M17 2v5h-1v1h-1v1h-1v9h1v1h-5v-1h1v-1H8v-1h3v-5H9v-1H8v1H7v1H6v3h2v1H6v4H3v-1H1V6H0V4h1V3h2V2h3V0h4v1h6v1h1z" fill="#0069aa"/><path d="M16 1v6h-4V6h-1V2h1V1h4zM1 3h1v1H1zm12 5h-3V0H6v2H3v4H2V5H0v1h1v13h2v1h3v-4h2v-1H6v-3h1v-1h1v-1h1v1h2v5H8v1h3v1h-1v1h5v-1h-1V9h1V8h-2zM7 1h2v7H8V2H7V1z" fill="#00396d"/><path d="M14 18h1v1h-5v-1h1v-1h1V9h-2v2H9v-1H8v1H7V9H6V8H5v3h2v1H6v8H3v-1H1V6h2v1h3V2h1v6h8v1h-1v9z" fill="#03193f"/><path d="M16 1v6h-4V6h-1V2h1V1h4zM6 2v5H3V2h3zM1 3h1v1H1zm9 6v2H9v-1H8V9h2z" fill="#0098dc"/><g fill="#0cf1ff"><path d="M15 2v1h-3V2h3zM5 3v1H4v1H3V3h2z"/><path d="M16 3v2h-1V3h1z"/></g><path d="M6 12v8H3v-1H1V6h2v1h1v5h2z" fill="#3b1443"/><g fill="#7a09fa"><path d="M3 13v1h2v1H3v1h2v1H3v1H1v-2h1v-3H1v-2h1v-1H1V9h1V6h1v2h1v1H3v1h1v1H3v1h2v1H4 3z"/><path d="M3 18h1v1H3z"/></g><path d="M2 8h1v1H2zm0 2h1v1H2zm0 2h1v1H2zm0 2h1v1H2zm0 2h1v1H2z" fill="#db3ffd"/></svg>