<svg xmlns="http://www.w3.org/2000/svg" viewBox="0 0 17 20"><path d="M1 2V1h6V0h4v2h3v1h2v1h1v2h-1v13h-2v1h-3v-4H9v-1h2v-3h-1v-1H9v-1H8v1H6v5h3v1H6v1h1v1H2v-1h1V9H2V8H1V7H0V2h1z" fill="#0069aa"/><path d="M5 1v1h1v4H5v1H1V1h4zm10 2h1v1h-1zM2 8v1h1v9H2v1h5v-1H6v-1h3v-1H6v-5h2v-1h1v1h1v1h1v3H9v1h2v4h3v-1h2V6h1V5h-2v1h-1V2h-3V0H7v8H4 2zm8-6H9v6H8V1h2v1z" fill="#00396d"/><path d="M3 9H2V8h8V2h1v5h3V6h2v13h-2v1h-3v-8h-1v-1h2V8h-1v1h-1v2H9v-1H8v1H7V9H5v8h1v1h1v1H2v-1h1V9z" fill="#03193f"/><path d="M5 1v1h1v4H5v1H1V1h4zm9 1v5h-3V2h3zm1 1h1v1h-1zM9 9v1H8v1H7V9h2z" fill="#0098dc"/><g fill="#0cf1ff"><path d="M5 2v1H2V2h3zm9 1v2h-1V4h-1V3h2z"/><path d="M2 3v2H1V3h1z"/></g><path d="M13 12V7h1V6h2v13h-2v1h-3v-8h2z" fill="#3b1443"/><g fill="#7a09fa"><path d="M13 13h-1v-1h2v-1h-1v-1h1V9h-1V8h1V6h1v3h1v1h-1v1h1v2h-1v3h1v2h-2v-1h-2v-1h2v-1h-2v-1h2v-1h-1z"/><path d="M13 18h1v1h-1z"/></g><path d="M14 8h1v1h-1zm0 2h1v1h-1zm0 2h1v1h-1zm0 2h1v1h-1zm0 2h1v1h-1z" fill="#db3ffd"/></svg>