<svg xmlns="http://www.w3.org/2000/svg" viewBox="0 0 17 20"><path d="M16 2V1h-6V0H6v2H3v1H1v1H0v2h1v13h2v1h3v-4h2v-1H6v-3h1v-1h1v-1h1v1h2v5H8v1h3v1h-1v1h5v-1h-1V9h1V8h1V7h1V2h-1z" fill="#0069aa"/><path d="M12 1v1h-1v4h1v1h4V1h-4zM1 3h1v1H1zm12 5h-3V0H6v2H3v4H2V5H0v1h1v13h2v1h3v-4h2v-1H6v-3h1v-1h1v-1h1v1h2v5H8v1h3v1h-1v1h5v-1h-1V9h1V8h-2zM7 1h2v7H8V2H7V1z" fill="#00396d"/><path d="M14 9h1V8H7V2H6v5H3V6H1v13h2v1h3v-8h1v-1H5V8h1v1h1v2h1v-1h1v1h1V9h2v8h-1v1h-1v1h5v-1h-1V9z" fill="#03193f"/><path d="M12 1v1h-1v4h1v1h4V1h-4zM3 2v5h3V2H3zM1 3h1v1H1zm7 6v1h1v1h1V9H8z" fill="#0098dc"/><g fill="#0cf1ff"><path d="M12 2v1h3V2h-3zM3 3v2h1V4h1V3H3z"/><path d="M15 3v2h1V3h-1z"/></g><path d="M4 12V7H3V6H1v13h2v1h3v-8H4z" fill="#3b1443"/><g fill="#7a09fa"><path d="M4 13h1v-1H3v-1h1v-1H3V9h1V8H3V6H2v3H1v1h1v1H1v2h1v3H1v2h2v-1h2v-1H3v-1h2v-1H3v-1h1z"/><path d="M3 18h1v1H3z"/></g><path d="M2 8h1v1H2zm0 2h1v1H2zm0 2h1v1H2zm0 2h1v1H2zm0 2h1v1H2z" fill="#db3ffd"/></svg>