<svg xmlns="http://www.w3.org/2000/svg" viewBox="0 0 24 24"><g fill="#282c3c"><path d="M21 1h3V0h-5v1h2z"/><path d="M18 2h1V1h-3v1h2z"/><path d="M15 3h1V2h-3v1h2z"/><path d="M13 4V3h-2v1h2z"/><path d="M10 4h1v1h-1z"/><path d="M9 5h1v1H9z"/><path d="M9 7V6H7v1h2z"/><path d="M7 8V7H5v1h2z"/><path d="M4 8H3V7H0v17h3v-2h3v2h4v-2h4v2h4V11h6v-1H6V9H5V8H4z"/></g><path d="M6 11v-1H5V9H3V8H1v14h2v-2h3v2h4v-2h4v2h3V11H6z" fill="#34394e"/><path d="M16 18v-1h-1v-1h-1v1h-1v1h-1v-2h-1v-1h-1v2H9v-1H8v-1H7v-2H6v1H5v2H3v-1H2v-2H1v9h2v-2h3v2h4v-2h4v2h3v-4h-1z" fill="#ac1f22"/><g fill="#df2b25"><path d="M1 9h1v1H1zm8 4h1v1H9zm-4 1h1v1H5zm10 0h1v1h-1zM3 16h1v1H3z"/><path d="M16 20v-1h-1v-2h-1v1h-1v1h-2v-2h-1v1H8v-1H7v-1H6v1H5v1H3v-1H2v-1H1v6h2v-2h3v2h4v-2h4v2h3v-2h-1z"/></g><g fill="#ee5122"><path d="M3 16h1v1H3zm-1 3H1v3h2v-2H2v-1zm8 0h1v1h-1z"/><path d="M8 20v-3H7v1H6v1H5v-1H4v2h2v2h4v-2H8zm8 1v-1h-1v-2h-1v4h3v-1h-1z"/></g><path d="M2 20H1v2h2v-1H2v-1zm5 1v-1H6v2h2v-1H7z" fill="#f37720"/></svg>