<svg xmlns="http://www.w3.org/2000/svg" viewBox="0 0 34 24"><g fill="#282c3c"><path d="M0 0h1v1H0zm33 0h1v1h-1z"/><path d="M1 1h1v1H1zm31 0h1v1h-1z"/><path d="M2 2h1v1H2zm29 0h1v1h-1z"/><path d="M3 3h1v1H3zm27 0h1v1h-1z"/><path d="M4 4h1v1H4zm25 0h1v1h-1z"/><path d="M5 5h1v1H5zm23 0h1v1h-1z"/><path d="M7 6H6v1h2V6H7zm21 1V6h-2v1h2z"/><path d="M9 7H8v1h2V7H9zm17 1V7h-2v1h2z"/><path d="M23 8h-2V7h-8v1h-3v1H8v1H0v14h4v-2h5v2h5v-2h6v2h5v-2h5v2h4V10h-8V9h-2V8h-1z"/></g><path d="M26 11v-1h-2V9h-3V8h-8v1h-3v1H8v1H2v11h2v-2h5v2h5v-2h6v2h5v-2h5v2h2V11h-6z" fill="#34394e"/><path d="M31 16h-1v1h-1v1h-1v-2h-1v-1h-1v2h-1v-1h-1v-1h-1v-2h-1v1h-1v2h-2v-1h-1v-2h-1v-2h-1v1h-1v3h-1v1h-1v-2h-1v-1h-1v2h-1v1H9v1H8v-2H7v1H6v2H5v-1H4v-1H3v1H2v5h2v-2h5v2h5v-2h6v2h5v-2h5v2h2v-5h-1v-1z" fill="#ac1f22"/><g fill="#df2b25"><path d="M17 9h1v1h-1zm-5 2h1v1h-1zm-5 2h1v1H7zm18 0h1v1h-1zm-4 1h1v1h-1zm10 0h1v1h-1zm-12 2h1v1h-1z"/><path d="M31 17h-1v1h-1v1h-2v-2h-1v1h-2v-1h-1v-1h-1v1h-1v1h-2v-1h-1v-1h-1v-2h-1v2h-1v2h-2v-1h-1v-1h-1v1h-1v2H9v-1H6v1H4v-2H3v2H2v3h2v-2h5v2h5v-2h6v2h5v-2h5v2h2v-3h-1v-2z"/></g><path d="M16 14h1v1h-1zm3 2h1v1h-1zM3 20H2v2h2v-3H3v1zm3-1v1h2v-1H6zm7 0h-1v-1h-1v1h-1v1H9v2h5v-2h-1v-1zm4 0v-3h-1v2h-1v2h4v-1h-2zm7-2h-1v1h-1v1h-1v-1h-1v4h5v-2h-1v-3zm2 2h1v1h-1zm5 1v-2h-1v4h2v-2h-1z" fill="#ee5122"/><path d="M16 19h-1v1h2v-2h-1v1zM3 22h1v-2H3v2zm9-2h-1v1h-1v1h3v-1h-1v-1zm11 1v-1h-1v1h-1v1h3v-1h-1z" fill="#f37720"/></svg>