<svg xmlns="http://www.w3.org/2000/svg" viewBox="0 0 24 24"><g fill="#282c3c"><path d="M4 0H0v1h5V0H4z"/><path d="M7 1H5v1h3V1H7z"/><path d="M10 2H8v1h3V2h-1z"/><path d="M12 3h-1v1h2V3h-1z"/><path d="M13 4h1v1h-1z"/><path d="M14 5h1v1h-1z"/><path d="M16 6h-1v1h2V6h-1z"/><path d="M18 7h-1v1h2V7h-1z"/><path d="M21 7v1h-2v1h-1v1H0v1h6v13h4v-2h4v2h4v-2h3v2h3V7h-3z"/></g><path d="M21 8v1h-2v1h-1v1H7v11h3v-2h4v2h4v-2h4v2h1V8h-2z" fill="#34394e"/><path d="M22 12v1h-1v2h-1v1h-2v-2h-1v-1h-1v2h-1v1h-1v1h-1v-2h-1v1h-1v1H9v-1H8v1H7v5h3v-2h4v2h4v-2h4v2h1V12h-1z" fill="#ac1f22"/><path d="M18 11h1v1h-1zm-6 2h1v1h-1zm10 2v2h-1v2h-2v-1h-1v-1h-1v-1h-1v1h-1v1h-1v1h-1v-1h-2v1H9v-2H8v2H7v3h3v-2h4v2h4v-2h4v2h1v-7h-1z" fill="#df2b25"/><path d="M22 15h1v1h-1zm0 4h-1v1h1v2h1v-4h-1v1zm-11 0v1h2v-1h-2zm6 0v-1h-1v1h-1v1h-1v2h4v-2h1v-1h-2zm-8 1v-1H8v1H7v2h3v-1H9v-1z" fill="#ee5122"/><path d="M22 19v3h1v-3h-1zM9 20H8v2h2v-1H9v-1zm8 0h-1v1h-1v1h3v-1h-1v-1z" fill="#f37720"/></svg>