<svg xmlns="http://www.w3.org/2000/svg" viewBox="0 0 25 10"><path d="M4 0v1h1v1h1v1h1v1h4V3h6V2h8v3h-8v1h-6v1H6v1H5v1H4v1H0V0h4z" fill="#282c3c"/><path d="M25 3v1h-2V3h2z" fill="#f37720"/><g fill="#fff"><path d="M1 3h1v1H1z"/><path d="M2 4h1v1H2z"/></g><path d="M1 2v3H0V2h1z" fill="#34394e"/><path d="M5 5v2H4v1H0V5h5z" fill="#ac1f22"/><g fill="#9a97b9"><path d="M18 3h4v1h-5V3h1z"/><path d="M12 4h5v1h-6V4h1z"/><path d="M9 5h2v1H7V5h2zM5 5V4H4V3H3V2H0V1h4v1h1v1h1v4H5V5z"/><path d="M4 7h1v1H4z"/><path d="M3 9H0V8h4v1H3z"/></g><g fill="#34394e"><path d="M2 1H0V0h4v1H2z"/><path d="M4 1h1v1H4z"/><path d="M5 2h1v1H5z"/><path d="M6 5V3h1v4H6V5z"/><path d="M5 7h1v1H5z"/><path d="M4 8h1v1H4z"/><path d="M3 10H0V9h4v1H3z"/></g><path d="M4 6v2H0V6h4z" fill="#df2b25"/><path d="M3 7v1H0V7h3zm21-4h1v1h-1z" fill="#ee5122"/><g fill="#6d6e97"><path d="M3 2h1v1H3zm18 1h1v1h-1z"/><path d="M4 3h1v1H4zm3 2h1v1H7z"/></g></svg>