<svg xmlns="http://www.w3.org/2000/svg" viewBox="0 0 34 10"><path d="M33 2v1h-2v1h-2V3h-1V2h-1V1h-1V0h-5v1h-1v1h-1v1h-1v1h-2V3h-1V2h-1V1h-1V0H8v1H7v1H6v1H5v1H3V3H1V2H0v3h1v1h2v1h3v1h1v1h1v1h5V9h1V8h1V7h1V6h2v1h1v1h1v1h1v1h5V9h1V8h1V7h3V6h2V5h1V2h-1z" fill="#282c3c"/><g fill="#34394e"><path d="M15 2h-1V1h-1V0H8v1H7v1H6v1H5v4h1v1h1v1h1v1h5V9h1V8h1V7h1V3h-1V2zm-1 2v1H9V4H8v1H7V4h1V3h1V2h3v1h1v1h1z"/><path d="M9 3h1v1H9zm13 0h1v1h-1z"/><path d="M28 3V2h-1V1h-1V0h-5v1h-1v1h-1v1h-1v4h1v1h1v1h1v1h5V9h1V8h1V7h1V3h-1zm-1 2h-5V4h-1v1h-1V4h1V3h1V2h3v1h1v1h1v1z"/></g><g fill="#9a97b9"><path d="M0 3h1v1H0zm33 0h1v1h-1z"/><path d="M1 4v1h2V4H1zm30 0v1h2V4h-2z"/><path d="M3 5v1h2V5H3zm26 0v1h2V5h-2zM14 2h-1V1H8v1H7v1H6v4h1v1h1v1h5V8h1V7h1V3h-1V2zm0 2v1H9V4H8v1H7V4h1V3h1V2h3v1h1v1h1zm13-2h-1V1h-5v1h-1v1h-1v4h1v1h1v1h5V8h1V7h1V3h-1V2zm0 2v1h-5V4h-1v1h-1V4h1V3h1V2h3v1h1v1h1z"/><path d="M9 3h1v1H9zm13 0h1v1h-1zm-6 2v1h2V5h-2z"/></g><g fill="#fff"><path d="M9 3h1v1H9zm13 0h1v1h-1z"/><path d="M8 4h1v1H8zm13 0h1v1h-1z"/></g><g fill="#6d6e97"><path d="M0 3h1v1H0zm33 0h1v1h-1z"/><path d="M1 4h1v1H1zm31 0h1v1h-1zM8 2h1v1H8zm4 0h1v1h-1zm9 0h1v1h-1zm4 0h1v1h-1z"/><path d="M7 3h1v1H7zm6 0h1v1h-1zm7 0h1v1h-1zm6 0h1v1h-1zM16 5h2v1h-2z"/></g><path d="M7 5v2h1v1h5V7h1V5H7zm13 0v2h1v1h5V7h1V5h-7z" fill="#ac1f22"/><path d="M8 6v2h5V6H8zm13 0v2h5V6h-5z" fill="#df2b25"/><path d="M9 7v1h3V7H9zm13 0v1h3V7h-3z" fill="#ee5122"/></svg>