<svg xmlns="http://www.w3.org/2000/svg" viewBox="0 0 25 10"><path d="M21 0v1h-1v1h-1v1h-1v1h-4V3H8V2H0v3h8v1h6v1h5v1h1v1h1v1h4V0h-4z" fill="#282c3c"/><path d="M0 3v1h2V3H0z" fill="#ac1f22"/><g fill="#fff"><path d="M23 3h1v1h-1z"/><path d="M22 4h1v1h-1z"/></g><path d="M24 2v3h1V2h-1z" fill="#34394e"/><path d="M20 5v2h1v1h4V5h-5z" fill="#ac1f22"/><g fill="#9a97b9"><path d="M7 3H3v1h5V3H7z"/><path d="M13 4H8v1h6V4h-1z"/><path d="M16 5h-2v1h4V5h-2zm4 0V4h1V3h1V2h3V1h-4v1h-1v1h-1v4h1V5z"/><path d="M20 7h1v1h-1z"/><path d="M22 9h3V8h-4v1h1z"/></g><g fill="#34394e"><path d="M23 1h2V0h-4v1h2z"/><path d="M20 1h1v1h-1z"/><path d="M19 2h1v1h-1z"/><path d="M19 5V3h-1v4h1V5z"/><path d="M19 7h1v1h-1z"/><path d="M20 8h1v1h-1z"/><path d="M22 10h3V9h-4v1h1z"/></g><path d="M21 6v2h4V6h-4z" fill="#df2b25"/><path d="M22 7v1h3V7h-3z" fill="#ee5122"/><path d="M0 3h1v1H0z" fill="#df2b25"/><g fill="#6d6e97"><path d="M21 2h1v1h-1zM3 3h1v1H3z"/><path d="M20 3h1v1h-1zm-3 2h1v1h-1z"/></g></svg>