<svg xmlns="http://www.w3.org/2000/svg" viewBox="0 0 57 15"><g fill="#00a0f5"><path d="M46 13h3v1h-3v-1zm4 0h1v1h-1v-1z"/><path d="M5,14h41v1H5V14z"/><path d="M2 13h3v1H2v-1zm-2 0h1v1H0v-1z"/></g><path d="M54 1V0H44v1h.1v2H9.9V1h.1V0H3v1H2v1H1v8h1v1h1v1h1v1h1v1h41v-1h1v-1h1v-1h1v-1h1V9h1V8h1V7h1V6h1V5h1V4h1V3h1V1h-3z" fill="#e1dad7"/><g fill="#fff"><path d="M54 2V1H44v2h7V2h3zM20 7h1v1h-1V7zM10 1H3v1H2v1h8V1zm14 6h1v1h-1V7z"/><path d="M54 2v1h-3v1H2v6h1v1h1v1h1v1h41v-1h1v-1h1v-1h1V9h1V8h1V7h1V6h1V5h1V4h1V3h1V2h-2zM18 9h-8V8h8v1zm4 2h-1V9h-1v2h-1V7h1V6h1v1h1v4zm4 0h-1V9h-1v2h-1V7h1V6h1v1h1v4zm4-1h-1v1h-1v-1h-1V6h1v4h1V6h1v4zm4-3h-2v1h2v1h-2v1h2v1h-3V6h3v1zm10 2h-9V8h9v1z"/></g></svg>