<svg xmlns="http://www.w3.org/2000/svg" viewBox="0 0 40 16"><g fill="#00a0f5"><path d="M28 14v1h2v-1h-2z"/><path d="M32 14v-1h-2v1h2z"/><path d="M34 13v-1h-2v1h2zm1-1v1h2v-1h-2zm3 0h1v1h-1zm-27 2h-1v1h2v-1h-1z"/><path d="M9 13H8v1h2v-1H9zm-4-1H3v1h2v-1z"/><path d="M1 12h1v1H1zm6 0H6v1h2v-1H7zm19 3H12v1h16v-1h-2zm5 0v1h2v-1h-2z"/><path d="M7 15v1h2v-1H7zm26-1v1h2v-1h-2zm3 0h1v1h-1zM3 14h1v1H3z"/><path d="M6 14H5v1h2v-1H6z"/></g><path d="M39 3V1h-1V0h-1v2h-3V1H6v1H3V0H2v1H1v2H0v3h1v2h1v1h1v1h1v1h2v1h2v1h2v1h2v1h16v-1h2v-1h2v-1h2v-1h2v-1h1V9h1V8h1V6h1V3h-1z" fill="#e1dad7"/><g fill="#fff"><path d="M38 3h-4V2H22v2h1v2h1v2h1v2h1v2h2v1h2v-1h2v-1h2v-1h2V9h1V8h1V6h1V3h-1zM12 13h1v1h-1z"/><path d="M27 13h1v1h-1zm-12-3V8h1V6h1V4h1V2H6v1H1v3h1v2h1v1h1v1h2v1h2v1h2v1h2v-1h2v-2h1z"/><path d="M25 11v-1h-1V8h-1V6h-1V4h-1V2h-2v2h-1v2h-1v2h-1v2h-1v2h-1v2h12v-2h-1v-1zM37 1h1v1h-1zM2 1h1v1H2z"/></g></svg>