<svg xmlns="http://www.w3.org/2000/svg" viewBox="0 0 57 15"  xmlns:v="https://vecta.io/nano"><g fill="#00a0f5"><path d="M46 13v1h3v-1h-3zm4 0h1v1h-1v-1z"/><path d="M5,14v1h41v-1H5z"/><path d="M4 13H2v1h3v-1H4zm-4 0h1v1H0v-1z"/></g><g fill="#fff"><path d="M54 2V1H44v2h7V2h3z"/><path d="M54 2v1h-3v1H2v6h1v1h1v1h1v1h41v-1h1v-1h1v-1h1V9h1V8h1V7h1V6h1V5h1V4h1V3h1V2h-2zM10 8h8v1h-8V8zm25 1V8h9v1h-9zM10 3V1H3v1H2v1h8z"/></g><g fill="#e1dad7"><path d="M10 8v1h8V8h-8zm25 0v1h9V8h-9zm19-5V2h-3v1h3zM44 0v1h10V0H44zM10 1V0H3v1h7z"/><path d="M2,1h1v1H2V1z"/><path d="M2,4h49V3H2V2H1v8h1V4z"/><path d="M2 10h1v1H2v-1zm52-9v1h2v1h1V1h-3z"/><path d="M55,3h1v1h-1V3z"/><path d="M54,4h1v1h-1V4z"/><path d="M53,5h1v1h-1V5z"/><path d="M52,6h1v1h-1V6z"/><path d="M51,7h1v1h-1V7z"/><path d="M50,8h1v1h-1V8z"/><path d="M49,9h1v1h-1V9z"/><path d="M48,10h1v1h-1V10z"/><path d="M47,11h1v1h-1V11z"/><path d="M46,12h1v1h-1V12z"/><path d="M5 13v1h41v-1H5zm-2-2h1v1H3v-1z"/><path d="M4 12h1v1H4v-1zm17-4h-1V7h-1v4h1V9h1v2h1V7h-1v1z"/><path d="M25 8h-1V7h-1v4h1V9h1v2h1V7h-1v1zm-5-2h1v1h-1V6z"/><path d="M24 6h1v1h-1V6zm5 4h1V6h-1v4zm2-4v5h3v-1h-2V9h2V8h-2V7h2V6h-3zm-3 0h-1v4h1V6z"/><path d="M28,10h1v1h-1V10z"/></g></svg>