<svg xmlns="http://www.w3.org/2000/svg" viewBox="0 0 57 15"><g fill="#00a0f5"><path d="M53 13h-1v1h3v-1h-2zm3 0h1v1h-1z"/><path d="M50 14H11v1h41v-1h-2z"/><path d="M10 13H8v1h3v-1h-1zm-4 0h1v1H6z"/></g><path d="M55 2V1h-1V0H42v3H18V0H3v1H0v2h1v1h1v1h1v1h1v1h1v1h1v1h1v1h1v1h1v1h1v1h1v1h41v-1h1v-1h1v-1h1v-1h1V2h-1z" fill="#e1dad7"/><g fill="#fff"><path d="M5 2h1v1h12V1H3v1h2z"/><path d="M53 4H6V3H3V2H1v1h1v1h1v1h1v1h1v1h1v1h1v1h1v1h1v1h1v1h1v1h41v-1h1v-1h1v-1h1V4h-2zm1-2V1H42v2h13V2h-1z"/></g><g fill="#e1dad7"><path d="M46 8h-7v1h8V8h-1zM13 9h9V8h-9v1zm22-3v5h3v-1h-2V9h2V8h-2V7h2V6h-3zm-2 4h1V6h-1v4zm-1-4h-1v4h1V6zm-7 2h-1V7h-1v4h1V9h1v2h1V7h-1v1z"/><path d="M29 8h-1V7h-1v4h1V9h1v2h1V7h-1v1zm-5-2h1v1h-1z"/><path d="M28 6h1v1h-1zm4 4h1v1h-1z"/></g></svg>