<svg xmlns="http://www.w3.org/2000/svg" viewBox="0 0 18 25"><path d="M14 0v1h-1v1h-1V1h-1V0H7v1H6v1H5V1H4V0H0v10h4V9h1V8h1v1h1v11H6v4h1v1h4v-1h1v-4h-1V9h1V8h1v1h1v1h4V0h-4z" fill="#282c3c"/><path d="M14 1v1h-1v1h-1V2h-1V1H7v1H6v1H5V2H4V1H3v8h1V8h1V7h1v1h1v1h4V8h1V7h1v1h1v1h1V1h-1zm-4 9H8v10H7v4h4v-4h-1V10z" fill="#525375"/><path d="M7 1v7h4V1H7z" fill="#6d6e97"/><path d="M1 9h1V1H1v8zm15-8v8h1V1h-1zM5 7h1V3H5v4zm7 0h1V3h-1v4z" fill="#df2b25"/><g fill="#6d6e97"><path d="M9 10H8v2h1v-2z"/><path d="M9 12v1H8v1h1v1H8v1h1v1H8v1h1v1h1v-7H9z"/><path d="M8 20H7v4h1v-2h1v-3H8v1z"/></g><path d="M7 1v2h1V2h3V1H7z" fill="#9a97b9"/><path d="M8 13v1h2v-1H8zm0 2v1h2v-1H8zm0 2v1h2v-1H8z" fill="#ac1f22"/><path d="M9 12h1v1H9zm0 2h1v1H9zm0 2h1v1H9zm0 2h1v1H9z" fill="#34394e"/><g fill="#9a97b9"><path d="M8 20h1v1H8z"/><path d="M7 21h1v1H7z"/></g><path d="M8 13h1v1H8zm0 2h1v1H8zm0 2h1v1H8z" fill="#df2b25"/><path d="M1 8h1V1H1v7zm15-7v7h1V1h-1zM5 6h1V3H5v3zm7 0h1V3h-1v3z" fill="#ee5122"/><path d="M1 4h1V1H1v3zm15-3v3h1V1h-1zM5 3h1v1H5zm7 0h1v1h-1z" fill="#f37720"/></svg>