<svg xmlns="http://www.w3.org/2000/svg" viewBox="0 0 18 25"><path d="M0 0v10h4V9h1V8h1v1h1v11H6v4h1v1h4v-1h1v-4h-1V9h1V8h1v1h1v1h4V0h-4v1h-1v1h-1V1h-1V0H7v1H6v1H5V1H4V0H0z" fill="#282c3c"/><path d="M3 1v8h1V8h1V7h1v1h1v1h4V8h1V7h1v1h1v1h1V1h-1v1h-1v1h-1V2h-1V1H7v1H6v1H5V2H4V1H3zm5 19H7v4h4v-4h-1V10H8v10z" fill="#525375"/><path d="M7 1v7h4V1H7z" fill="#6d6e97"/><path d="M17 1h-1v8h1V1zM1 1v8h1V1H1zm12 2h-1v4h1V3zM6 3H5v4h1V3z" fill="#df2b25"/><g fill="#6d6e97"><path d="M9 12h1v-2H9v2z"/><path d="M8 12v7h1v-1h1v-1H9v-1h1v-1H9v-1h1v-1H9v-1H8z"/><path d="M10 19H9v3h1v2h1v-4h-1v-1z"/></g><path d="M7 1v1h3v1h1V1H7z" fill="#9a97b9"/><path d="M8 13v1h2v-1H8zm0 2v1h2v-1H8zm0 2v1h2v-1H8z" fill="#ac1f22"/><path d="M8 12h1v1H8zm0 2h1v1H8zm0 2h1v1H8zm0 2h1v1H8z" fill="#34394e"/><g fill="#9a97b9"><path d="M9 20h1v1H9z"/><path d="M10 21h1v1h-1z"/></g><path d="M9 13h1v1H9zm0 2h1v1H9zm0 2h1v1H9z" fill="#df2b25"/><path d="M17 1h-1v7h1V1zM1 1v7h1V1H1zm12 2h-1v3h1V3zM6 3H5v3h1V3z" fill="#ee5122"/><path d="M17 1h-1v3h1V1zM1 1v3h1V1H1zm11 2h1v1h-1zM5 3h1v1H5z" fill="#f37720"/></svg>