<svg xmlns="http://www.w3.org/2000/svg" viewBox="0 0 31 22"><path d="M30 12v-1h-1V6h-1V5h-1V4h-2v1h-1v1h-1v1h-1v1h-1v2h-1V9h-1V4h-1V3h-1V2h-1V1h-1V0h-2v1h-1v1h-1v1h-1v1H9v5H8V8H7V7H5v1H4v1H3v3h1v1h1v1H4v1H1v1H0v2h1v1h1v1h5v2h6v-1h2v1h6v-2h3v1h3v-1h1v-1h1v-3h1v-1h1v-3h-1z" fill="#282c3c"/><path d="M17 3h-1V2h-1V1h-2v1h-1v1h-1v1h-1v4h2v1h4V8h2V4h-1V3zm11 6V6h-1V5h-2v1h-1v1h-1v1h-1v2h6V9zM9 10H8V9H7V8H5v1H4v3h1v1h1v1h2v-1h1v-1h1v-1H9v-1zm21 3h-2v3h2v-1h1v-2h-1zM2 16H1v2h2v-1h1v-1H2z" fill="#df2b25"/><g fill="#34394e"><path d="M11 8h-1v1h2V8h-1zm5 0v1h2V8h-2z"/><path d="M14 9h-2v1h4V9h-2zm-4 2v1h1v-2h-1v1zm17-1h-5v1h6v-1h-1z"/><path d="M9 12h1v1H9zm20 0v-1h-1v2h2v-1h-1z"/><path d="M8 13h1v1H8z"/><path d="M6 14H5v1h3v-1H6zm-2 2h1v1H4z"/><path d="M3 17h1v1H3zm3 1H5v1h2v-2H6v1zm7 0v-1h-1v2h1v1h2v-2h-2z"/></g><g fill="#6d6e97"><path d="M20 10h-1V9h-3v1h-4V9h-2v1h1v2h-1v2h1v-1h1v-1h1v-1h1v1h1v1h1v1h2v-1h1v-1h1v-2z"/><path d="M24 13h3v-2h-6v1h-1v2h3v-1h1z"/><path d="M27 17v-3h-4v1h-3v3h1v1h3v1h3v-1h-1v-1h1v1h1v-2h-1z"/></g><g fill="#525375"><path d="M29 11h1v1h-1z"/><path d="M30 12h1v1h-1zM9 13h1v1H9z"/><path d="M8 14h1v1H8zm11 0v-1h-1v2h1v-1z"/><path d="M7 15H4v1h1v1H4v1H2v1h3v-1h1v-1h1v-1h1v-1H7z"/><path d="M11 15H9v1H8v5h4v-2h-2v-1h1v-1h1v-1h-1v-1z"/><path d="M16 16v-3h-1v-1h-1v-1h-1v1h-1v1h-1v2h1v1h1v1h2v-1h1z"/><path d="M18 19v-1h1v-2h-1v-1h-1v1h-1v1h-1v1h1v3h4v-2h-2z"/></g><g fill="#9a97b9"><path d="M18 9h1v1h-1zm-5 1h1v1h-1z"/><path d="M19 10h1v1h-1zm-7 1h1v1h-1zm2 0h1v1h-1z"/><path d="M11 12h1v1h-1zm4 0h1v1h-1zm3 0h1v1h-1zm6 1h2v-1h-1v-1h-4v1h-1v2h3v-1h1z"/><path d="M10 13h1v1h-1zm6 0v1h2v-1h-2zm11 4v-3h-4v1h-3v3h1v1h3v1h3v-1h-1v-1h1v1h1v-2h-1z"/></g><g fill="#ee5122"><path d="M17 3h-1V2h-1V1h-2v1h-1v1h-1v1h-1v3h1V6h1V5h2v4h2V8h2V4h-1V3zm11 6V6h-1V5h-2v1h-1v1h-1v1h-1v1h3V7h1v3h2V9zM9 10H8V9H7V8H5v1H4v3h1v1h1v1h1v-2h1v1h1v-1h1v-1H9v-1zm21 4v-1h-2v2h1v-1h1z"/><path d="M30 14h1v1h-1z"/><path d="M29 15h1v1h-1zM2 16H1v2h2v-1h1v-1H2z"/></g><path d="M15 1h-2v1h1v1h2V2h-1V1zm12 5V5h-2v2h2v1h1V6h-1zM7 8H5v1h1v1h2V9H7V8zm-6 8h1v1H1z" fill="#ffebcb"/><g fill="#fb9955"><path d="M13 2h1v1h-1z"/><path d="M14 3h1v1h-1zm3 0h-1v3h1v2h1V4h-1V3zm10 5V7h-1v3h2V8h-1zM4 9v1h2V9H4zm4 1h1v1H8z"/><path d="M9 11h1v1H9zm-7 5h1v1H2z"/></g><g fill="#ac1f22"><path d="M12 3h1v1h-1zm3 0h1v1h-1z"/><path d="M13 4v1h1v4h1V4h-2zm-7 6H4v1h3v-1H6z"/><path d="M7 11h1v1H7z"/><path d="M8 12h1v1H8zm21 1h-1v2h1v-1h1v-1h-1zM3 16h1v1H3z"/><path d="M2 17h1v1H2z"/></g></svg>