<svg xmlns="http://www.w3.org/2000/svg" viewBox="0 0 31 22"><path d="M1 12v-1h1V6h1V5h1V4h2v1h1v1h1v1h1v1h1v2h1V9h1V4h1V3h1V2h1V1h1V0h2v1h1v1h1v1h1v1h1v5h1V8h1V7h2v1h1v1h1v3h-1v1h-1v1h1v1h3v1h1v2h-1v1h-1v1h-5v2h-6v-1h-2v1h-6v-2H7v1H4v-1H3v-1H2v-3H1v-1H0v-3h1z" fill="#282c3c"/><path d="M14 3h1V2h1V1h2v1h1v1h1v1h1v4h-2v1h-4V8h-2V4h1V3zM3 9V6h1V5h2v1h1v1h1v1h1v2H3V9zm19 1h1V9h1V8h2v1h1v3h-1v1h-1v1h-2v-1h-1v-1h-1v-1h1v-1zM1 13h2v3H1v-1H0v-2h1zm28 3h1v2h-2v-1h-1v-1h2z" fill="#df2b25"/><g fill="#34394e"><path d="M20 8h1v1h-2V8h1zm-5 0v1h-2V8h2z"/><path d="M17 9h2v1h-4V9h2zm4 2v1h-1v-2h1v1zM4 10h5v1H3v-1h1z"/><path d="M21 12h1v1h-1zM2 12v-1h1v2H1v-1h1z"/><path d="M22 13h1v1h-1z"/><path d="M25 14h1v1h-3v-1h2zm1 2h1v1h-1z"/><path d="M27 17h1v1h-1zm-2 1h1v1h-2v-2h1v1zm-7 0v-1h1v2h-1v1h-2v-2h2z"/></g><g fill="#6d6e97"><path d="M11 10h1V9h3v1h4V9h2v1h-1v2h1v2h-1v-1h-1v-1h-1v-1h-1v1h-1v1h-1v1h-2v-1h-1v-1h-1v-2z"/><path d="M7 13H4v-2h6v1h1v2H8v-1H7z"/><path d="M4 17v-3h4v1h3v3h-1v1H7v1H4v-1h1v-1H4v1H3v-2h1z"/></g><g fill="#525375"><path d="M1 11h1v1H1z"/><path d="M0 12h1v1H0zm21 1h1v1h-1z"/><path d="M22 14h1v1h-1zm-10 0v-1h1v2h-1v-1z"/><path d="M24 15h3v1h-1v1h1v1h2v1h-3v-1h-1v-1h-1v-1h-1v-1h1z"/><path d="M20 15h2v1h1v5h-4v-2h2v-1h-1v-1h-1v-1h1v-1z"/><path d="M15 16v-3h1v-1h1v-1h1v1h1v1h1v2h-1v1h-1v1h-2v-1h-1z"/><path d="M13 19v-1h-1v-2h1v-1h1v1h1v1h1v1h-1v3h-4v-2h2z"/></g><g fill="#9a97b9"><path d="M12 9h1v1h-1zm5 1h1v1h-1z"/><path d="M11 10h1v1h-1zm7 1h1v1h-1zm-2 0h1v1h-1z"/><path d="M19 12h1v1h-1zm-4 0h1v1h-1zm-3 0h1v1h-1zm-5 1H5v-1h1v-1h4v1h1v2H8v-1H7z"/><path d="M20 13h1v1h-1zm-5 0v1h-2v-1h2zM4 17v-3h4v1h3v3h-1v1H7v1H4v-1h1v-1H4v1H3v-2h1z"/></g><g fill="#ee5122"><path d="M14 3h1V2h1V1h2v1h1v1h1v1h1v3h-1V6h-1V5h-2v4h-2V8h-2V4h1V3zM3 9V6h1V5h2v1h1v1h1v1h1v1H6V7H5v3H3V9zm19 1h1V9h1V8h2v1h1v3h-1v1h-1v1h-1v-2h-1v1h-1v-1h-1v-1h1v-1zM1 14v-1h2v2H2v-1H1z"/><path d="M0 14h1v1H0z"/><path d="M1 15h1v1H1zm28 1h1v2h-2v-1h-1v-1h2z"/></g><path d="M16 1h2v1h-1v1h-2V2h1V1zM4 6V5h2v2H4v1H3V6h1zm20 2h2v1h-1v1h-2V9h1V8zm5 8h1v1h-1z" fill="#ffebcb"/><g fill="#fb9955"><path d="M17 2h1v1h-1z"/><path d="M16 3h1v1h-1zm-2 0h1v3h-1v2h-1V4h1V3zM4 8V7h1v3H3V8h1zm23 1v1h-2V9h2zm-5 1h1v1h-1z"/><path d="M21 11h1v1h-1zm7 5h1v1h-1z"/></g><g fill="#ac1f22"><path d="M18 3h1v1h-1zm-3 0h1v1h-1z"/><path d="M18 4v1h-1v4h-1V4h2zm7 6h2v1h-3v-1h1z"/><path d="M23 11h1v1h-1z"/><path d="M22 12h1v1h-1zM2 13h1v2H2v-1H1v-1h1zm25 3h1v1h-1z"/><path d="M28 17h1v1h-1z"/></g></svg>