<svg xmlns="http://www.w3.org/2000/svg" viewBox="0 0 23 22"><path d="M22 9V8h-1V7h-2v1h-2V7h-1V3h-1V2h-1V1h-1V0h-3v1H9v1H8v1H7v4H6v1H4V7H2v1H1v1H0v3h1v1H0v5h1v1h1v1h1v2h6v-1h5v1h6v-2h1v-1h1v-1h1v-5h-1v-1h1V9h-1z" fill="#282c3c"/><g fill="#fff"><path d="M6 11h1v1H6zm9 0h1v1h-1z"/><path d="M5 12h1v1H5zm9 0h1v1h-1z"/></g><path d="M4 13v2h1v1h4v-1h1v-2H4zm9 0v2h1v1h4v-1h1v-2h-6z" fill="#ac1f22"/><g fill="#34394e"><path d="M9 9h1v1H9zm4 0h1v1h-1z"/><path d="M13 10h-3v1h3v-1zm-8 1h1v1H5z"/><path d="M9 11H7v1H6v1h4v-1H9v-1zm5 0h1v1h-1zM4 12h1v1H4z"/><path d="M13 12h1v1h-1zm5 1h1v-1h-1v-1h-2v1h-1v1h3zM4 17h1v1H4zm14 0h1v1h-1z"/><path d="M3 18h1v1H3zm16 0h1v1h-1zM5 20h1v1H5zm12 0h1v1h-1z"/></g><path d="M20 13v2h-1v2h1v1h2v-5h-2zM4 16v-1H3v-2H1v5h2v-1h1v-1zm3 3H4v2h1v-1h1v1h2v-1H7v-1zm10 0h-1v1h-1v1h2v-1h1v1h1v-2h-2z" fill="#525375"/><path d="M5 14v2h4v-2H5zm9 0v2h4v-2h-4z" fill="#df2b25"/><g fill="#9a97b9"><path d="M7 8H6v1H5v1h2V9h1V8H7z"/><path d="M8 9h1v1H8zm6 0h1v1h-1z"/><path d="M17 9V8h-2v1h1v1h2V9h-1zM4 10h1v1H4zm5 0h1v1H9zm4 0h1v1h-1z"/><path d="M18 10h1v1h-1zM3 11h1v1H3zm8 0h-1v1h1v1h1v-1h1v-1h-2z"/><path d="M19 11h1v1h-1zM2 12h1v1H2z"/><path d="M20 12h1v1h-1zm-6 5v-1h-1v-1h-1v-1h-1v1h-1v1H9v1H6v1h1v1h1v1h7v-1h1v-1h1v-1h-3zm-2 2v-1h-1v1h-1v-1h1v-1h1v1h1v1h-1z"/></g><path d="M6 15v1h2v-1H6zm9 0v1h2v-1h-2z" fill="#ee5122"/><g fill="#6d6e97"><path d="M7 8h1v1H7z"/><path d="M6 9h1v1H6zm11 0V8h-2v1h1v1h2V9h-1zM4 10h1v1H4z"/><path d="M18 10h1v1h-1zM3 11h1v1H3z"/><path d="M19 11h1v1h-1z"/></g><g fill="#df2b25"><path d="M14 2h-1V1h-3v1H9v1H8v3h1V5h1V4h3v1h1v1h1V3h-1V2z"/><path d="M13 5h-3v1H9v3h1v1h3V9h1V6h-1V5zM2 8v1H1v3h1v-1h1v-1h1V8H2zm19 1V8h-2v2h1v1h1v1h1V9h-1z"/></g><g fill="#ee5122"><path d="M14 2h-1V1h-3v1H9v1H8v3h1V5h1V4h2V3h1v1h1v1h1V3h-1V2z"/><path d="M9 6v3h1v1h2V8h2V6h-1V5h-3v1H9zM2 8v1H1v2h1v-1h2V8H2zm19 1V8h-2v2h2v1h1V9h-1z"/></g><path d="M10 1v1H9v1H8v2h1V4h3V3h1V1h-3zm0 4v1H9v3h1v1h2V7h1V5h-3zM2 8v2h2V8H2zm17 0v2h2V8h-2z" fill="#f37720"/><g fill="#ffebcb"><path d="M10 1v1h2V1h-2zm0 4v1h2V5h-2z"/><path d="M9 9h1V6H9v3zM2 8v1h2V8H2zm17 0v1h2V8h-2z"/></g><g fill="#ac1f22"><path d="M10 2h1v1h-1zm2 0h1v1h-1z"/><path d="M11 3h1v1h-1zm-1 3h1v1h-1zm2 0h1v1h-1z"/><path d="M11 10h1V7h-1v3z"/></g><g fill="#fb9955"><path d="M12 1h1v1h-1zM9 2h1v1H9z"/><path d="M11 2h1v1h-1zM8 3h1v1H8zm4 2h1v1h-1z"/><path d="M11 6h1v1h-1z"/><path d="M10 7h1v1h-1zm-8 3h2V9H2v1zm17-1v1h2V9h-2z"/></g></svg>