<svg xmlns="http://www.w3.org/2000/svg" viewBox="0 0 40 21"><path d="M34 1v1h-1v1h-1v1h-1v1h-1v1h-1v1h-2v1h-2v1h-3v1h-4V9h-3V8h-2V7h-2V6h-1V5H9V4H8V3H7V2H6V1H3v20h34V1h-3z"/><path d="M34 2v1h-1v1h-1v1h-1v1h-1v1h-1v1h-2v1h-2v1h-3v1h-4v-1h-3V9h-2V8h-2V7h-1V6H9V5H8V4H7V3H6V2H4v18h32V2h-2z" fill="#870aff"/><path d="M22 10v1h-4v-1H4v8h32v-8H22zm12-8v1h-1v1h-1v1h-1v1h-1v1h-1v1h7V2h-2zM11 8V7h-1V6H9V5H8V4H7V3H6V2H4v6h7z" fill="#f0f"/><path d="M9 6V5H8V4H7V3H6V2H4v4h5zm13 4v1h-4v-1H4v6h32v-6H22zm12-8v1h-1v1h-1v1h-1v1h5V2h-2z" fill="#ff0"/><path d="M22 10v1h-4v-1H4v2h32v-2H22z" fill="#0ff"/><path d="M7 4V3H6V2H4v2h3zm-3 8v2h32v-2H4zM34 2v1h-1v1h3V2h-2z" fill="#0f0"/><path d="M17.5 12h1v1h-1zm4 0h-1v5h1v-2h1v-1h-1v-2z"/><path d="M22.5 14h1v-2h-1v2zm0 3h1v-2h-1v2zm-4-2h-1v-2h-1v4h1v-1h1v1h1v-4h-1v2zm-6-3v5h1v-2h2v-1h-2v-1h2v-1h-3zm15 1v-1h-3v5h3v-1h-2v-1h2v-1h-2v-1h2z"/></svg>