<svg xmlns="http://www.w3.org/2000/svg" viewBox="0 0 48 22"><path d="M46 4V2h-2V0H30v2h-8v2h-4V2h-4v6H8v2H4v2H2v2H0v4h2v2h2v2h4v-2h2v-2h6v-2h9v-2h13v2h2v2h2v-2h2v-2h2v-4h2V4h-2z"/><path d="M44 4V2H30v2h-8v2h-2v2h-6v2H8v2H4v2H2v4h2v2h4v-2h2v-2h6v-2h9v-2h13v2h2v2h2v-2h2v-4h2V4h-2zM18 6V4h-2v2h2z" fill="#d200c8"/><path d="M42 4V2H30v2h-8v2h-2v2h-6v2H8v2H4v2H2v2h2v2h4v-2h2v-2h6v-2h9v-2h13v2h2v-2h2V8h2V4h-2z" fill="#f0f"/><g fill="#ff87ff"><path d="M30 2v2h12V2H30z"/><path d="M22 4v2h8V4h-8z"/><path d="M20 6v2h2V6h-2z"/><path d="M14 8v2h6V8h-6z"/><path d="M8 10v2h6v-2H8z"/><path d="M4 12v2h4v-2H4z"/><path d="M2 14v2h2v-2H2z"/></g><path d="M39 5V4h-1V3h-4v1h-1v1h-1v6h2v-1h1v1h2v-1h1v1h2V5h-1z"/><path d="M38 5V4h-4v1h-1v5h1V9h1v1h2V9h1v1h1V5h-1z" fill="#0f0"/><path d="M33 5v4h6V5h-6z" fill="#0ff"/><path d="M33 5v3h6V5h-6z" fill="#ff0"/><path d="M33 6v2h6V6h-6z" fill="#f0f"/><path d="M33 7v1h6V7h-6z" fill="#7d00ff"/></svg>