<svg xmlns="http://www.w3.org/2000/svg" viewBox="0 0 37 22"><path d="M35 14v-2h-2v-2h-2V8h-2V2h-4v2h-4V2h-8V0H4v2H2v2H0v6h2v4h2v2h2v2h11v2h10v2h6v-2h2v-2h2v-4h-2z"/><path d="M33 14v-2h-2v-2h-2V8h-6V6h-2V4h-8V2H4v2H2v6h2v4h2v2h11v2h10v2h6v-2h2v-4h-2zm-6-8V4h-2v2h2z" fill="#d200c8"/><path d="M33 14v-2h-2v-2h-2V8h-6V6h-2V4h-8V2H6v2H4v4h2v2h2v2h2v2h7v2h10v2h6v-2h2v-2h-2z" fill="#f0f"/><g fill="#ff87ff"><path d="M21 4h-8v2h8V4z"/><path d="M23 6h-2v2h2V6zM13 2H6v2h7V2z"/><path d="M29 8h-6v2h6V8z"/><path d="M31 10h-2v2h2v-2z"/><path d="M33 12h-2v2h2v-2z"/><path d="M33 14v2h2v-2h-2z"/></g><path d="M5 5V4H1.9v6H4v1h2V5H5z"/><path d="M4 5V4H2v6h1V9h1v1h1V5H4z" fill="#0f0"/><path d="M2 5v4h3V5H2z" fill="#0ff"/><path d="M2 5v3h3V5H2z" fill="#ff0"/><path d="M2 6v2h3V6H2z" fill="#f0f"/><path d="M2 7v1h3V7H2z" fill="#7d00ff"/></svg>