<svg xmlns="http://www.w3.org/2000/svg" viewBox="0 0 37 22"><path d="M35 4V2h-2V0h-9v2h-8v2h-4V2H8v6H6v2H4v2H2v2H0v4h2v2h2v2h6v-2h10v-2h11v-2h2v-2h2v-4h2V4h-2z"/><path d="M33 4V2h-9v2h-8v2h-2v2H8v2H6v2H4v2H2v4h2v2h6v-2h10v-2h11v-2h2v-4h2V4h-2zM12 6V4h-2v2h2z" fill="#d200c8"/><path d="M31 4V2h-7v2h-8v2h-2v2H8v2H6v2H4v2H2v2h2v2h6v-2h10v-2h7v-2h2v-2h2V8h2V4h-2z" fill="#f0f"/><g fill="#ff87ff"><path d="M24 2v2h7V2h-7z"/><path d="M16 4v2h8V4h-8z"/><path d="M14 6v2h2V6h-2z"/><path d="M8 8v2h6V8H8z"/><path d="M6 10v2h2v-2H6z"/><path d="M4 12v2h2v-2H4z"/><path d="M2 14v2h2v-2H2z"/></g></svg>