<svg xmlns="http://www.w3.org/2000/svg" viewBox="0 0 48 22"><path d="M46 14v-2h-2v-2h-4V8h-6V2h-4v2h-4V2h-8V0H4v2H2v2H0v6h2v4h2v2h2v2h14v2h12v2h12v-2h2v-2h2v-4h-2z"/><path d="M44 14v-2h-4v-2h-6V8h-6V6h-2V4h-8V2H4v2H2v6h2v4h2v2h14v2h12v2h12v-2h2v-4h-2zM32 6V4h-2v2h2z" fill="#d200c8"/><path d="M44 14v-2h-4v-2h-6V8h-6V6h-2V4h-8V2H6v2H4v4h2v2h2v2h2v2h10v2h12v2h12v-2h2v-2h-2z" fill="#f0f"/><g fill="#ff87ff"><path d="M18 2H6v2h12V2z"/><path d="M26 4h-8v2h8V4z"/><path d="M28 6h-2v2h2V6z"/><path d="M34 8h-6v2h6V8z"/><path d="M40 10h-6v2h6v-2z"/><path d="M44 12h-4v2h4v-2z"/><path d="M44 14v2h2v-2h-2z"/></g></svg>