<svg xmlns="http://www.w3.org/2000/svg" viewBox="0 0 33 30"><path d="M8 7V6h1V5h1V4h1V1h1V0h2v1h1v1h1v6h1v2h1v1h-2v1h-2v1h-2v-1h-1v-1h-1v-1H9v.5H8V9H6.5V8H7V7h1z" fill="#176dad"/><path d="M9 7V6h1V5h1V4h1V1h2v1h1v2h-1v2h-1v1h-1v1h-2v1H8V7h1z" fill="#bfdcff"/><path d="M9 7V6h2V5h1V2h2v3h-1v1h-1v1h-1v1H9v1H8V7h1z" fill="#f5fdff"/><path d="M12 9V8h1V7h1V6h1v2h1v2h1v3.2h-4V12h-1v-1h-1v-1h-1V9z" fill="#bfffd2"/><g fill="#1fba7d"><path d="M16 5v3h-1V4h1v1z"/><path d="M17 10h-1V8h1v2z"/><path d="M17 10h1v1h-1zm-7 0h1v1h-1z"/><path d="M11 11h1v1h-1z"/><path d="M12 12h1v1h-1z"/></g></svg>