<svg xmlns="http://www.w3.org/2000/svg" viewBox="0 0 48 28"><path d="M1 8V7h1V5h1V2H2V1h1V0h2v1h1v1h1v2h.2v8H6v-1H5v-1H1V9H0V8h1z" fill="#176dad"/><g fill="#bfdcff"><path d="M7.5 6v1H6V5h1.5v1z"/><path d="M2 8V7h1V5h1V2H3V1h2v1h1v3H5v3H4v1H1V8h1z"/></g><path d="M7.5 8v3H6v-1H5V8h2.5z" fill="#bfffd2"/><g fill="#2d7d5c"><path d="M4 9h1v1H4z"/><path d="M5 10h1v1H5z"/><path d="M6 11h1.5v1H6z"/></g><g fill="#f5fdff"><path d="M6 5h1.5v1H6z"/><path d="M4 5V2H3V1h2v1h1v3H5v2H4V5z"/><path d="M3 7h1v1H3z"/></g></svg>