<svg xmlns="http://www.w3.org/2000/svg" viewBox="0 0 48 28"><path d="M47 8V7h-1V5h-1V2h1V1h-1V0h-2v1h-1v1h-1v2h-.2v8H42v-1h1v-1h4V9h1V8h-1z" fill="#176dad"/><g fill="#bfdcff"><path d="M40.5 6v1H42V5h-1.5v1z"/><path d="M46 8V7h-1V5h-1V2h1V1h-2v1h-1v3h1v3h1v1h3V8h-1z"/></g><path d="M40.5 8v3H42v-1h1V8h-2.5z" fill="#bfffd2"/><g fill="#2d7d5c"><path d="M43 9h1v1h-1z"/><path d="M42 10h1v1h-1z"/><path d="M40.5 11H42v1h-1.5z"/></g><g fill="#f5fdff"><path d="M40.5 5H42v1h-1.5z"/><path d="M44 5V2h1V1h-2v1h-1v3h1v2h1V5z"/><path d="M44 7h1v1h-1z"/></g></svg>