<svg xmlns="http://www.w3.org/2000/svg" viewBox="0 0 48 28"><path d="M44 23v-1h-1v-1h-1v-2h-1V8h1V7h1V5h-1V4h-3v1h-3v1h-4v1h-3v1h-2v1h-6V8h-2V7h-3V6h-4V5H9V4H6v1H5v2h1v1h1v11H6v2H5v1H4v1H3v3h1v1h3v1h12v-1h2v-1h6v1h2v1h12v-1h3v-1h1v-3h-1z" fill="#2d7d5c"/><path d="M40 21v-2h-1V9h-2v1h-1v1h-1v1h-3v1h-3v1H19v-1h-3v-1h-3v-1h-1v-1h-1V9H9v10H8v2H7v2h2v1h10v-1h2v-1h6v1h2v1h10v-1h2v-2h-1z" fill="#bfffd2"/><path d="M6 8h3v1h2v1h1v1h1v1h3v1h3v1h10v-1h3v-1h3v-1h1v-1h1V9h2V8h3V7h1V5h-1V4h-3v1h-3v1h-4v1h-3v1h-2v1h-6V8h-2V7h-3V6h-4V5H9V4H6v1H5v2h1v1zm38 15v-1h-3v1h-2v1H29v-1h-2v-1h-6v1h-2v1H9v-1H7v-1H4v1H3v3h1v1h3v1h12v-1h2v-1h6v1h2v1h12v-1h3v-1h1v-3h-1z" fill="#176dad"/><g fill="#1fba7d"><path d="M16 16v2h1v-3h-1v1zm16 0v-1h-1v3h1v-2z"/><path d="M15 19v1h1v-2h-1v1zm18-1h-1v2h1v-2z"/><path d="M14 20h1v1h-1zm19 0h1v1h-1z"/><path d="M13 21h1v1h-1zm21 0h1v1h-1z"/></g><path d="M8 7h1v1h2v1h1v1h1v1h3v1h3v1h10v-1h3v-1h3v-1h1V9h1V8h2V7h3V5h-3v1h-3v1h-4v1h-3v1h-2v1h-6V9h-2V8h-3V7h-4V6H9V5H6v2h2zm35 16h-2v1h-2v1H29v-1h-2v-1h-6v1h-2v1H9v-1H7v-1H4v3h3v1h12v-1h2v-1h6v1h2v1h12v-1h3v-3h-1z" fill="#bfdcff"/><g fill="#f5fdff"><path d="M8 6h1V5H6v1h2zm33 0h1V5h-3v1h2z"/><path d="M10 7h1v1h1v1h1v1h3V9h-2V8h2V7h-4V6H9v1h1z"/><path d="M17 9v1h-1v2h5v1h8v-1h3v-2h-2V9h2V8h-3v1h-2v1h-6V9h-2V8h-3v1h1zm9 2h1v1h-2v-1h1z"/><path d="M33 9h-1v1h3V9h1V8h1V7h2V6h-3v1h-4v1h1v1zm10 14h-2v1h-2v1h-1v1h-2v-1h-3v1h-2v-1h-2v-1h-2v-1h-1v1h-2v-1h-3v1h-2v1h-3v1h-2v-1h-3v1H9v-1H8v-1H7v-1H4v2h2v1h2v1h10v-1h2v-1h8v1h2v1h9v-1h3v-1h2v-2h-1z"/></g></svg>