<svg xmlns="http://www.w3.org/2000/svg" viewBox="0 0 33 30"><path d="M25 7V6h-1V5h-1V4h-1V1h-1V0h-2v1h-1v1h-1v6h-1v2h-1v1h2v1h2v1h2v-1h1v-1h1v-1h1v.5h1V9h1.5V8H26V7h-1z" fill="#176dad"/><path d="M24 7V6h-1V5h-1V4h-1V1h-2v1h-1v2h1v2h1v1h1v1h2v1h2V7h-1z" fill="#bfdcff"/><path d="M24 7V6h-2V5h-1V2h-2v3h1v1h1v1h1v1h2v1h1V7h-1z" fill="#f5fdff"/><path d="M21 9V8h-1V7h-1V6h-1v2h-1v2h-1v3.2h4V12h1v-1h1v-1h1V9z" fill="#bfffd2"/><g fill="#1fba7d"><path d="M17 5v3h1V4h-1v1z"/><path d="M16 10h1V8h-1v2z"/><path d="M15 10h1v1h-1zm7 0h1v1h-1z"/><path d="M21 11h1v1h-1z"/><path d="M20 12h1v1h-1z"/></g></svg>