<svg xmlns="http://www.w3.org/2000/svg" viewBox="0 0 48 28"><path d="M11 8V6h-1V5H9V4H8V3H7V2H6V1H5V0H3v1H2v1h1v3H2v2H1v1H0v1h1v1h4v1h1v1h2v1h1v-1h1v-2h2V8h-1z" fill="#176dad"/><path d="M5 2V1H3v1h1v3H3v2H2v1H1v1h3V8h1V6h1V2H5z" fill="#bfdcff"/><g fill="#2d7d5c"><path d="M7 3h1v1H7z"/><path d="M8 4h1v1H8z"/><path d="M9 5h1v1H9z"/><path d="M11 6h-1v2h1V6z"/><path d="M11 8h1v1h-1zM4 9h1v1H4z"/><path d="M5 10h1v1H5z"/><path d="M6 11h1v1H6z"/></g><path d="M11 9V8h-1V6H9V5H8V4H7v2H6v2H5v2h1v1h1v1h1v1h4V9h-1z" fill="#bfffd2"/><g fill="#f5fdff"><path d="M5 2V1H3v1h1v5h1V6h1V2H5z"/><path d="M3 7h1v1H3z"/></g></svg>