<svg xmlns="http://www.w3.org/2000/svg" viewBox="0 0 48 28"><path d="M37 8V6h1V5h1V4h1V3h1V2h1V1h1V0h2v1h1v1h-1v3h1v2h1v1h1v1h-1v1h-4v1h-1v1h-2v1h-1v-1h-1v-2h-2V8h1z" fill="#176dad"/><path d="M43 2V1h2v1h-1v3h1v2h1v1h1v1h-3V8h-1V6h-1V2h1z" fill="#bfdcff"/><g fill="#2d7d5c"><path d="M40 3h1v1h-1z"/><path d="M39 4h1v1h-1z"/><path d="M38 5h1v1h-1z"/><path d="M37 6h1v2h-1V6z"/><path d="M36 8h1v1h-1zm7 1h1v1h-1z"/><path d="M42 10h1v1h-1z"/><path d="M41 11h1v1h-1z"/></g><path d="M37 9V8h1V6h1V5h1V4h1v2h1v2h1v2h-1v1h-1v1h-1v1h-4V9h1z" fill="#bfffd2"/><g fill="#f5fdff"><path d="M43 2V1h2v1h-1v5h-1V6h-1V2h1z"/><path d="M44 7h1v1h-1z"/></g></svg>