<svg xmlns="http://www.w3.org/2000/svg" viewBox="0 0 33 30"><path d="M25 11v-1h-3.8V9H20v-.5h-2.2V15H17v1h1v1h1v1h1v1h1v1h2v-1h1v-1h-1v-3h1v-2h1v-1h1v-1h-1z" fill="#176dad"/><path d="M17.5 7.8V9h2.8V8H19v-.2h-1.5z" fill="#f5fdff"/><path d="M17.5 10v5h.5v1h1v-2h1v-2h1v-2h-3.5z" fill="#bfffd2"/><g fill="#1fba7d"><path d="M21 10h1v1h-1zm-4 5h1v1h-1z"/><path d="M18 16h1v1h-1z"/></g><path d="M24 11h-2v1h-1v2h-1v4h1v1h2v-1h-1v-3h1v-2h1v-1h1v-1h-1z" fill="#bfdcff"/><path d="M24 11h-2v1h-1v2h-1v2h1v2h1v-5h2v-1h1v-1h-1z" fill="#f5fdff"/></svg>