<svg xmlns="http://www.w3.org/2000/svg" viewBox="0 0 33 30"><path d="M8 11v-1h3.8V9H13v-.5h2.2V15h.8v1h-1v1h-1v1h-1v1h-1v1h-2v-1H9v-1h1v-3H9v-2H8v-1H7v-1h1z" fill="#176dad"/><path d="M15.5 7.8V9h-2.8V8H14v-.2h1.5z" fill="#f5fdff"/><path d="M15.5 10v5H15v1h-1v-2h-1v-2h-1v-2h3.5z" fill="#bfffd2"/><g fill="#1fba7d"><path d="M11 10h1v1h-1zm4 5h1v1h-1z"/><path d="M14 16h1v1h-1z"/></g><path d="M9 11h2v1h1v2h1v4h-1v1h-2v-1h1v-3h-1v-2H9v-1H8v-1h1z" fill="#bfdcff"/><path d="M9 11h2v1h1v2h1v2h-1v2h-1v-5H9v-1H8v-1h1z" fill="#f5fdff"/></svg>