<svg xmlns="http://www.w3.org/2000/svg" viewBox="0 0 28 12"><path d="M12 1h-1V0H8v1H7v1H6V1H5V0H2v1H1v1H0v5h1v1h1v1h1v1h1v1h1v1h3v-1h1v-1h1V9h1V8h1V7h1V2h-1V1zm15 1V1h-1V0h-3v1h-1v1h-1V1h-1V0h-3v1h-1v1h-1v5h1v1h1v1h1v1h1v1h1v1h3v-1h1v-1h1V9h1V8h1V7h1V2h-1z" fill="#581693"/><path d="M11 1H8v1H7v1H6V2H5V1H2v1H1v5h1v1h1v1h1v1h1v1h3v-1h1V9h1V8h1V7h1V2h-1V1zm15 1V1h-3v1h-1v1h-1V2h-1V1h-3v1h-1v5h1v1h1v1h1v1h1v1h3v-1h1V9h1V8h1V7h1V2h-1z" fill="#3a2e45"/><path d="M10 4H8V3H5v1H1v1h3v1H1v1h1v1h1v1h1v1h1v1h3v-1h1V9h1V8h1V7h1V6H9V5h3V4h-2zM5 5h1v1H5V5zm3 1H7V5h1v1zm17-1h2V4h-4V3h-3v1h-4v1h3v1h-3v1h1v1h1v1h1v1h1v1h3v-1h1V9h1V8h1V7h1V6h-3V5h1zm-5 0h1v1h-1V5zm3 1h-1V5h1v1z" fill="#6630eb"/><path d="M10 4H8V3H5v1H1v1h3v1H1v1h1v1h9V7h1V6H9V5h3V4h-2zM5 5h1v1H5V5zm3 1H7V5h1v1zm17-1h2V4h-4V3h-3v1h-4v1h3v1h-3v1h1v1h9V7h1V6h-3V5h1zm-5 0h1v1h-1V5zm3 1h-1V5h1v1z" fill="#d74eef"/><path d="M8 3H5v1H4v4h1V7h1v1h1V7h1v1h1V4H8V3zM5 6V5h1v1H5zm3 0H7V5h1v1zm15-2V3h-3v1h-1v4h1V7h1v1h1V7h1v1h1V4h-1zm-3 2V5h1v1h-1zm3 0h-1V5h1v1z" fill="#72f298"/></svg>