<svg xmlns="http://www.w3.org/2000/svg" viewBox="0 0 18 27"><path d="M17 19h-1v1h-2v-1h-1v-7h1V7h-1V5h-1V4h-1V3H9V2H8V1H7V0H3v1H2v1H1v3h1v2H1v2H0v7h1v8h1v1h1v1h1v1h6v-1h1v-1h4v-1h1v-1h1v-1h1v-3h-1z" fill="#1fba7d"/><path d="M17 19h-1v1h-2v-1h-1v-7h1V7h-1V5h-1V4h-1V3H9v1h1v5H9V4H8V2H7V1H3v1H2v5H1v2H0v7h1v8h1v1h1v1h1v1h6v-1h1v-1h4v-1h1v-1h1v-1h1v-3h-1z" fill="#fff"/><g fill="#72f298"><path d="M5 2H2v1h4V2H5z"/><path d="M6 3h1v1H6z"/></g><g fill="#2d7d5c"><path d="M6 5H2v1h5V5H6z"/><path d="M7 6h1v1H7z"/><path d="M8 7h1v1H8z"/></g><g fill="#bfffd2"><path d="M8 4V2H7V1H3v1h3v1h1v2h1v1h1V4H8zM6 6H5v1h2V6H6z"/><path d="M7 7h1v1H7z"/><path d="M8 8h1v1H8z"/></g><g fill="#23a3cf"><path d="M2 6h1v1H2z"/><path d="M1 8v1h1V7H1v1z"/><path d="M0 10v6h1V9H0v1z"/></g><g fill="#bfdcff"><path d="M4 7h1v1H4zm8 0v5h1V7h-1zM2 8h1v1H2z"/><path d="M3 11h1V9H3v2zm4 0v2h1v-3H7v1zm3-1h1v1h-1zm-9 2v1h1v-2H1v1zm5-1V8H5v5h1v-2z"/><path d="M9 12v1h1v-2H9v1zm2 1v1h1v-2h-1v1zm-7 0h1v1H4zm2 0h1v1H6zm-5 2v1h1v-2H1v1z"/></g><g fill="#176dad"><path d="M10 3H9v1h2V3h-1z"/><path d="M11 4h1v1h-1z"/><path d="M13 5h-1v2h1V5zM4 6h1v1H4z"/><path d="M5 7h1v1H5zm8 0v5h1V7h-1z"/><path d="M6 9v4h1V8H6v1zm6 4v1h1v-2h-1v1z"/><path d="M5 13h1v1H5z"/><path d="M4 15v2h1v-3H4v1zm-2 1H1v2h1v-2z"/><path d="M5 17h1v1H5zm-3 1h1v1H2z"/><path d="M6 18h1v1H6z"/><path d="M4 19H3v1h3v-1H4z"/></g><g fill="#e8d5fa"><path d="M12 19h1v1h-1z"/><path d="M13 20h1v1h-1z"/></g><g fill="#dabfff"><path d="M6 15v-1H5v3h1v-2zm2 1v1h1v-2H8v1z"/><path d="M6 17h1v1H6zm10 4h1v1h-1z"/><path d="M15 22h1v1h-1z"/><path d="M13 23h-1v1h3v-1h-2z"/></g><g fill="#ac14f8"><path d="M1 19v5h1v-6H1v1zm10 3h-1v-1H9v2h2v2h1v-3h-1z"/><path d="M8 23h1v1H8z"/></g><g fill="#581693"><path d="M17 20v2h1v-2h-1z"/><path d="M16 22h1v1h-1z"/><path d="M15 23h1v1h-1z"/><path d="M13 24h-1v1h3v-1h-2z"/></g><g fill="#f5bfff"><path d="M4 21h1v-1H3v-1H2v2h2zm0 1h1v1H4zm4 0h1v1H8zm-6 1h1v1H2z"/><path d="M5 23h1v1H5zm-2 1h1v1H3z"/><path d="M9 25H4v1h6v-1H9z"/></g><g fill="#7a15ad"><path d="M13 17v-3h-1v5h1v-2z"/><path d="M13 19h1v1h-1zm4 0h-1v1h2v-1h-1z"/><path d="M14 20v1h2v-1h-2zM2 24h1v1H2z"/><path d="M3 25h1v1H3zm7 0h1v1h-1z"/><path d="M8 26H4v1h6v-1H8z"/></g></svg>