<svg xmlns="http://www.w3.org/2000/svg" viewBox="0 0 18 26"><path d="M17 9V7h-1V5h1V2h-1V1h-1V0h-4v1h-1v1H9v1H7v1H6v1H5v2H4v5h1v7H4v1H2v-1H0v3h1v1h1v1h1v1h8v1h4v-1h1v-1h1v-8h1V9h-1z" fill="#1fba7d"/><path d="M17 9V7h-1V2h-1V1h-4v1h-1v2H9v5H8V4h1V3H7v1H6v1H5v2H4v5h1v7H4v1H2v-1H0v3h1v1h1v1h1v1h8v1h4v-1h1v-8h1v-1h1V9h-1zm-4 14h-1v-1H9v-1h2v-2h1v3h1v1z" fill="#fff"/><g fill="#72f298"><path d="M15 2h-3v1h4V2h-1z"/><path d="M11 3h1v1h-1z"/></g><g fill="#ac14f8"><path d="M8 3H7v1h2V3H8z"/><path d="M6 4h1v1H6z"/><path d="M5 6v1h1V5H5v1z"/><path d="M4 8v4h1V7H4v1z"/></g><g fill="#f5bfff"><path d="M7 4h1v1H7z"/><path d="M6 5h1v1H6zM5 8v4h1V7H5v1zm2 4v3h1v-4H7v1z"/></g><path d="M5 12v4h1v-4H5z" fill="#7a15ad"/><g fill="#23a3cf"><path d="M15 6h1v1h-1z"/><path d="M17 7h-1v2h1V7z"/><path d="M17 9v7h1V9h-1zM5 17v2h1v-3H5v1zm-4 2H0v1h2v-1H1z"/><path d="M4 19h1v1H4z"/><path d="M2 20v1h2v-1H2z"/></g><g fill="#bfdcff"><path d="M11 6h1v1h-1zm4 1V6h-2v1h2z"/><path d="M10 7h1v1h-1z"/><path d="M9 8h1v1H9zm3 1h1V7h-1v2zm3 1h-1v2h1v-2zm-3 1h1v1h-1z"/><path d="M15 12h1v1h-1zm-2 1h1v1h-1z"/><path d="M14 14h1v1h-1z"/><path d="M15 15h1v1h-1zm-7 3v1h1v-2H8v1zm-3 1h1v1H5z"/><path d="M7 19h1v1H7zm-6 1h1v1H1zm3 0h1v1H4zm6 0h1v1h-1z"/><path d="M3 22h1v-1H2v1h1zm5 1H3v1h6v-2H8v1z"/></g><g fill="#176dad"><path d="M12 6h1v1h-1z"/><path d="M12 10V7h-1v5h1v-2z"/><path d="M13 12h-1v2h1v-2z"/><path d="M13 14h1v1h-1z"/><path d="M14 15h1v1h-1z"/><path d="M16 16h-1v1h2v-1h-1zM1 20H0v2h1v-2z"/><path d="M1 22h1v1H1z"/><path d="M2 23h1v1H2z"/><path d="M8 24H3v1h7v-1H8z"/></g><g fill="#bfffd2"><path d="M10 5h1V3h1V2h3V1h-4v1h-1v2H9v2h1V5zm2 9h1v1h-1z"/><path d="M13 15h1v1h-1z"/><path d="M14 16h1v1h-1z"/><path d="M15 17h1v1h-1zm-2 1h1v1h-1z"/><path d="M14 21h1v-2h-1v2zm-2 0h1v1h-1zm-2 2h1v1h-1zm5 0h1v1h-1z"/><path d="M13 24h-2v1h4v-1h-2z"/></g><g fill="#2d7d5c"><path d="M15 5h-4v1h5V5h-1z"/><path d="M10 6h1v1h-1z"/><path d="M9 7h1v1H9zm1 15H9v2h1v-2z"/><path d="M10 24h1v1h-1zm5 0h1v1h-1z"/><path d="M13 25h-2v1h4v-1h-2z"/></g></svg>