<svg xmlns="http://www.w3.org/2000/svg" viewBox="0 0 14 38"><path d="M0 4v6h1v1h1v1h1v1h2v21H4v1H3v2h1v1h6v-1h1v-2h-1v-1H9V13h2v-1h1v-1h1v-1h1V4h-1V3h-1V2h-1V1H9V0H5v1H3v1H2v1H1v1H0z" fill="#581693"/><path d="M0 4v6h1v1h1v1h1v1h2v1h4v-1h2v-1h1v-1h1v-1h1V4h-1V3h-1V2h-1V1H9V0H5v1H3v1H2v1H1v1H0z" fill="#23a3cf"/><path d="M7 33h1V14H6v18h1v1zm-3 2v2h6v-2H9v-1H5v1H4z" fill="#7a15ad"/><g fill="#ac14f8"><path d="M7 15v15h1V15H7zm1 19h1v1H8z"/><path d="M9 35h1v1H9z"/></g><path d="M7 16v2h1v-2H7zm0 3h1v1H7z" fill="#d74eef"/><path d="M1 4v4h1v1h2v1h3V9h2V7h1V6h1v1h1v1h1V4h-1V3h-1V2H9V1H5v1H3v1H2v1H1z" fill="#3bccff"/><path d="M8 5h1v1h1V5h1V3h-1V2H7v1h1v1 1zM2 4v3h1v1h1V7h1V6H4V5h2V4H5V3H3v1H2zm4 5H5v1h2V9h1V7H7v1H6v1z" fill="#bfffd2"/><path d="M0 8v2h1v1h1v1h1v1h2v1h4v-1h2v-1h1v-1h1v-1h1V9h-1V8h-1V7h-1V6h-1v1H9v2H7v1H4V9H2V8H1 0z" fill="#176dad"/><g fill="#bfdcff"><path d="M1 9h1v1H1z"/><path d="M2 10v1h1v1h2v1h4v-1h2v-1h1v-1h1V9h-1V8h-1V7h-1v2H9v1H7v1H4v-1H2z"/></g><g fill="#f5fdff"><path d="M1 9h1v1H1z"/><path d="M2 10v1h1v1h2v1h1v-1h2v-1h2v-1h1V7h-1v2H9v1H7v1H4v-1H2z"/></g></svg>