<svg xmlns="http://www.w3.org/2000/svg" viewBox="0 0 14 38"><path d="M13 4V3h-1V2h-1V1H9V0H5v1H3v1H2v1H1v1H0v6h1v1h1v1h1v1h1v1h1v20H4v1H3v2h1v1h6v-1h1v-2h-1v-1H9V14h1v-1h1v-1h1v-1h1v-1h1V4h-1z" fill="#581693"/><path d="M13 4V3h-1V2h-1V1H9V0H5v1H3v1H2v1H1v1H0v6h1v1h1v1h1v1h1v1h6v-1h1v-1h1v-1h1v-1h1V4h-1z" fill="#23a3cf"/><path d="M7 32h1V14H6v19h1v-1zm2 3v-1H5v1H4v2h6v-2H9z" fill="#7a15ad"/><g fill="#ac14f8"><path d="M6 15v15h1V15H6zM5 34h1v1H5z"/><path d="M4 35h1v1H4z"/></g><path d="M6 16v2h1v-2H6zm0 3h1v1H6z" fill="#d74eef"/><path d="M12 10h-1V9h-1V7H8v1H7v1H5v1H1v1h1v1h1v1h1v1h6v-1h1v-1h1v-1h1v-1h-1z" fill="#176dad"/><path d="M12 4V3h-1V2H9V1H5v1H3v1H2v1H1v6h4V9h2V8h1V7h2v2h1v1h2V4h-1z" fill="#3bccff"/><path d="M6 3H4v1H3v1h2v1H4v1h1v1h1V7h1V4H6V3zm6 1V3h-1v1h-1v1H9v1h1v1h1v1h1V6h1V4h-1zM3 8H2V7H1v3h3V9H3V8z" fill="#bfffd2"/><g fill="#bfdcff"><path d="M9 11V8H8v1H7v1H5v1H3v1h1v1h3v-1h1v-1h1z"/><path d="M10 10v1H9v1H8v1h2v-1h1v-2h-1z"/></g><g fill="#f5fdff"><path d="M9 9V8H8v1H7v1h2V9z"/><path d="M5 10v1H4v1h2v-1h1v-1H5zm5 0v1H9v1h2v-2h-1z"/></g></svg>