<svg xmlns="http://www.w3.org/2000/svg" viewBox="0 0 14 38"><path d="M13 4V3h-1V2h-1V1H9V0H5v1H3v1H2v1H1v1H0v6h1v1h1v1h1v1h2v21H4v1H3v2h1v1h6v-1h1v-2h-1v-1H9V13h2v-1h1v-1h1v-1h1V4h-1z" fill="#581693"/><path d="M13 4V3h-1V2h-1V1H9V0H5v1H3v1H2v1H1v1H0v6h1v1h1v1h1v1h2v1h4v-1h2v-1h1v-1h1v-1h1V4h-1z" fill="#23a3cf"/><path d="M7 32h1V14H6v19h1v-1zm2 3v-1H5v1H4v2h6v-2H9z" fill="#7a15ad"/><g fill="#ac14f8"><path d="M6 15v15h1V15H6zM5 34h1v1H5z"/><path d="M4 35h1v1H4z"/></g><path d="M6 16v2h1v-2H6zm0 3h1v1H6z" fill="#d74eef"/><path d="M12 4V3h-1V2H9V1H5v1H3v1H2v1H1v6h1v1h1v-1h1V9h2V8h1v1h2V7h1V6h1v1h1v1h1V4h-1z" fill="#3bccff"/><path d="M13 9V8h-1V7h-1V6h-1v1H9v2H7V8H6v1H4v1H3v1H2v1h1v1h2v1h4v-1h2v-1h1v-1h1v-1h1V9h-1z" fill="#176dad"/><g fill="#bfffd2"><path d="M7 2h1v1H7zM6 4H5V3H3v1H2v1H1v1h1v1h1v1h1V6h1V5h1V4z"/><path d="M12 4V3h-1V2H9v1H8v1h2v1h1v1h1v1h1V4h-1zM8 6H7v1H6v1h1v1h2V7h1V6H8z"/></g><path d="M12 9V8h-1V7h-1v2H9v1H7V9H6v1H4v1H3v1h2v1h4v-1h2v-1h1v-1h1V9h-1z" fill="#bfdcff"/><g fill="#f5fdff"><path d="M10 7v2H9v1H7v1H6v1h2v-1h2v-1h1V7h-1z"/><path d="M6 9h1v1H6z"/><path d="M6 11v-1H4v1H3v1h2v-1h1z"/><path d="M5 12h1v1H5z"/></g></svg>