<svg xmlns="http://www.w3.org/2000/svg" viewBox="0 0 14 38"><path d="M13 4V3h-1V2h-1V1H9V0H5v1H3v1H2v1H1v1H0v6h1v1h1v1h1v1h1v1h1v20H4v1H3v2h1v1h6v-1h1v-2h-1v-1H9V14h1v-1h1v-1h1v-1h1v-1h1V4h-1z" fill="#581693"/><path d="M7 32h1V14H6v19h1v-1zm2 3v-1H5v1H4v2h6v-2H9z" fill="#7a15ad"/><path d="M13 4V3h-1V2h-1V1H9V0H5v1H3v1H2v1H1v1H0v6h1v1h1v1h1v1h1v1h6v-1h1v-1h1v-1h1v-1h1V4h-1z" fill="#23a3cf"/><g fill="#ac14f8"><path d="M6 15v15h1V15H6zM5 34h1v1H5z"/><path d="M4 35h1v1H4z"/></g><path d="M6 16v2h1v-2H6zm0 3h1v1H6z" fill="#d74eef"/><path d="M13 7h-1v1h-1v1H9V8H8V7H7V6H6v1H5v2H3v1H1v1h1v1h1v1h1v1h6v-1h1v-1h1v-1h1v-1h1V7h-1z" fill="#176dad"/><path d="M12 4V3h-1V2H9V1H5v1H3v1H2v1H1v6h2V9h2V7h1V6h1v1h1v1h1v1h2V8h1V7h1V4h-1z" fill="#3bccff"/><g fill="#bfffd2"><path d="M3 2h1v1H3z"/><path d="M8 3H7V2H5v1H4v1h2v1h1v1h1v1h1V4H8V3zm4 1V3h-1v3h1v1h1V4h-1zM4 6H3v1H2v3h1V9h2V7h1V6H4z"/></g><path d="M12 8v1h-1v1H9v1H8v-1h1V9H8V8H7V7H6v2H5v1H3v2h1v1h6v-1h1v-1h1v-1h1V8h-1z" fill="#bfdcff"/><g fill="#f5fdff"><path d="M12 8v1h-1v1h2V8h-1zm-4 2V9H7V7H6v2H5v1H3v2h3v-1h1v-1h1z"/><path d="M9 10v1H7v1h3v-1h1v-1H9z"/></g></svg>