<svg xmlns="http://www.w3.org/2000/svg" width="44" height="23" xmlns:v="https://vecta.io/nano"><path d="M42 15v1h-1v-1h-1v-2h-1V6h-1V5h-2V4H26v1h-2v1h-4V5h-2V4H8v1H6v1H5v7H4v2H3v2H2v-1H1v3h1v1h1v1h2v1h2v1h10v-1h2v-1h1v-1h5v-2h5v-1h5v1h4v1h3v-1h1v-3h-1z" fill="#ffe00c"/><g fill="#eea509"><path d="M36 6V5H26v1h-2v1h-1v4h15V6h-2zM8 11h13V7h-1V6h-2V5H8v1H6v5h2zm15 4v-2h-2v4h-1v2h2v-2h1v-2z"/><path d="M24 13v4h-1v1h2v-1h1v-4h-2zm3 0v4h2v-4h-2zm3 0v3h2v-3h-2zm3 0v3h2v-3h-2zm3 0v4h2v-4h-2zm-16 2v-2h-2v4h-1v4h2v-4h1v-2z"/><path d="M17 15v-2h-2v4h-1v5h2v-5h1v-2z"/><path d="M14 15v-2h-2v4h-1v5h2v-5h1v-2z"/><path d="M11 15v-2H9v4H8v5h2v-5h1v-2z"/><path d="M8 15v-2H6v4H5v4h2v-4h1v-2zm-5 3v2h1v-3H3v1z"/><path d="M5 15H4v2h1v-2zm34 1v2h1v-3h-1v1zm2 1h1v1h-1z"/></g></svg>