<svg xmlns="http://www.w3.org/2000/svg" width="30" height="25" xmlns:v="https://vecta.io/nano"><path d="M29 18v1h-1v-2h-1v-2h-1V8H11V7H9V6H2v9H1v3H0v2h2v-1h4v1h6v2h5v1h1v1h2v1h4v-1h2v-1h2v-1h1v-1h1v-3h-1z" fill="#ffe00c"/><g fill="#eea509"><path d="M5 15v3h1v1h1v-4H5zm3 0v4h2v-4H8zm-6 0v3h2v-3H2zm23-2V9H11V8H9V7H2v6h23zm-1-3v2h-1v-2h1zm-11 5h-2v4h1v1h1v1h1v-2h-1v-4z"/><path d="M16 15h-2v4h1v2h2v-2h-1v-4z"/><path d="M19 15h-2v4h1v4h2v-4h-1v-4z"/><path d="M22 15h-2v4h1v5h2v-5h-1v-4z"/><path d="M25 15h-2v4h1v4h2v-4h-1v-4zm2 4v3h1v-3h-1z"/><path d="M27 17h-1v2h1v-2zM1 18h1v1H1z"/></g></svg>