<svg xmlns="http://www.w3.org/2000/svg" width="24" height="22" xmlns:v="https://vecta.io/nano"><path d="M15 5H6V3h8l1 1v1z" fill="#1e6f50"/><path d="M12 4h1v1h-1zm2 0h1v1h-1zm-4 0h1v1h-1zM8 4h1v1H8zM6 4h1v1H6z" fill="#33984b"/><path d="M7 3h1v2H7z" fill="#0098dc"/><path d="M8 3h1v2H8z" fill="#00396d"/><path d="M13 1h1v1h1v2H6V3H5V2H4V0h9v1z" fill="#134c4c"/><path d="M13 2h1v1H6V2H5V1h8v1z" fill="#1e6f50"/><g fill="#33984b"><path d="M13 2h1v1h-1z"/><path d="M12 1h1v1h-1z"/><path d="M11 2h1v1h-1z"/><path d="M10 1h1v1h-1z"/><path d="M9 2h1v1H9z"/><path d="M8 1h1v1H8z"/><path d="M7 2h1v1H7z"/><path d="M6 1h1v1H6z"/></g><path d="M13 1h1v1h1v2H6V3H5V2H4V0h9v1z" fill="#134c4c"/><path d="M13 2h1v1H6V2H5V1h8v1z" fill="#1e6f50"/><g fill="#33984b"><path d="M13 2h1v1h-1z"/><path d="M12 1h1v1h-1z"/><path d="M11 2h1v1h-1z"/><path d="M10 1h1v1h-1z"/><path d="M9 2h1v1H9z"/><path d="M8 1h1v1H8z"/><path d="M7 2h1v1H7z"/><path d="M6 1h1v1H6z"/></g></svg>