<svg xmlns="http://www.w3.org/2000/svg" width="24" height="22" xmlns:v="https://vecta.io/nano"><path d="M9 5h9V3h-8L9 4v1z" fill="#1e6f50"/><path d="M11 4h1v1h-1zM9 4h1v1H9zm4 0h1v1h-1zm2 0h1v1h-1zm2 0h1v1h-1z" fill="#33984b"/><path d="M16 3h1v2h-1z" fill="#0098dc"/><path d="M15 3h1v2h-1z" fill="#00396d"/><path d="M11 1h-1v1H9v2h9V3h1V2h1V0h-9v1z" fill="#134c4c"/><path d="M11 2h-1v1h8V2h1V1h-8v1z" fill="#1e6f50"/><g fill="#33984b"><path d="M10 2h1v1h-1z"/><path d="M11 1h1v1h-1z"/><path d="M12 2h1v1h-1z"/><path d="M13 1h1v1h-1z"/><path d="M14 2h1v1h-1z"/><path d="M15 1h1v1h-1z"/><path d="M16 2h1v1h-1z"/><path d="M17 1h1v1h-1z"/></g><path d="M11 1h-1v1H9v2h9V3h1V2h1V0h-9v1z" fill="#134c4c"/><path d="M11 2h-1v1h8V2h1V1h-8v1z" fill="#1e6f50"/><g fill="#33984b"><path d="M10 2h1v1h-1z"/><path d="M11 1h1v1h-1z"/><path d="M12 2h1v1h-1z"/><path d="M13 1h1v1h-1z"/><path d="M14 2h1v1h-1z"/><path d="M15 1h1v1h-1z"/><path d="M16 2h1v1h-1z"/><path d="M17 1h1v1h-1z"/></g></svg>