<svg xmlns="http://www.w3.org/2000/svg" width="40" height="25" xmlns:v="https://vecta.io/nano"><path d="M33 2v1h-2v1H9V3H7V2H3v23h4v-2h5v2h5v-2h6v2h5v-2h5v2h4V2h-4z" fill="#00396d"/><g fill="#0098dc"><path d="M3 2v1h4V2H3zm30 0v1h4V2h-4z"/><path d="M7 3v1h2V3H7zm24 1h2V3h-2v1z"/><path d="M9 4h1v1H9zm21 0h1v1h-1z"/><path d="M10 5h1v1h-1zm19 0h1v1h-1z"/><path d="M11 6h1v1h-1zm17 0h1v1h-1z"/><path d="M12 9h1V7h-1v2zm15 0h1V7h-1v2z"/></g><path d="M33 4v1h-2v1h-1v1h-1v3h2v1h6V4h-4zm-4 1h1V4H10v1h1v1h1v1h1v1h14V7h1V6h1V5zM10 6H9V5H7V4H3v7h6v-1h2V7h-1V6z" fill="#134c4c"/><g fill="#0069aa"><path d="M31 12v-1h-2v-1h-1V9H12v1h-1v1H9v1H5v11h2v-2h5v2h5v-2h6v2h5v-2h5v2h2V12h-4zm0 5h-1v1h-6v-1h-1v-4h8v4zm-14-4v4h-1v1h-6v-1H9v-4h8z"/><path d="M16 14h-6v3h6v-3zm14 0h-6v3h6v-3z"/></g><path d="M33 4v1h-2v1h-1v1h-1v3h2v1h5V4h-3zm-4 1H11v1h1v1h1v1h14V7h1V6h1V5zM10 6H9V5H7V4H4v7h5v-1h2V7h-1V6z" fill="#1e6f50"/><g fill="#33984b"><path d="M4 4h1v1H4zm2 0h1v1H6zm27 0h1v1h-1zm2 0h1v1h-1z"/><path d="M5 5h1v1H5zm2 0h1v1H7zm4 0h1v1h-1zm2 0h1v1h-1zm2 0h1v1h-1zm2 0h1v1h-1zm2 0h1v1h-1zm2 0h1v1h-1zm2 0h1v1h-1zm2 0h1v1h-1zm2 0h1v1h-1zm5 0h1v1h-1zm2 0h1v1h-1z"/><path d="M4 6h1v1H4zm2 0h1v1H6zm2 0h1v1H8zm4 0h1v1h-1zm2 0h1v1h-1zm2 0h1v1h-1zm2 0h1v1h-1zm2 0h1v1h-1zm2 0h1v1h-1zm2 0h1v1h-1zm2 0h1v1h-1zm5 0h1v1h-1zm2 0h1v1h-1zm2 0h1v1h-1z"/><path d="M5 7h1v1H5zm2 0h1v1H7zm2 0h1v1H9zm4 0h1v1h-1zm2 0h1v1h-1zm2 0h1v1h-1zm2 0h1v1h-1zm2 0h1v1h-1zm2 0h1v1h-1zm2 0h1v1h-1zm5 0h1v1h-1zm2 0h1v1h-1zm2 0h1v1h-1z"/><path d="M4 8h1v1H4zm2 0h1v1H6zm2 0h1v1H8zm2 0h1v1h-1zm19 0h1v1h-1zm2 0h1v1h-1zm2 0h1v1h-1zm2 0h1v1h-1z"/><path d="M5 9h1v1H5zm2 0h1v1H7zm2 0h1v1H9zm21 0h1v1h-1zm2 0h1v1h-1zm2 0h1v1h-1z"/><path d="M4 10h1v1H4zm2 0h1v1H6zm2 0h1v1H8zm23 0h1v1h-1zm2 0h1v1h-1zm2 0h1v1h-1z"/></g></svg>