<svg xmlns="http://www.w3.org/2000/svg" width="40" height="25" xmlns:v="https://vecta.io/nano"><path d="M34 2v1h-1v1h-1v1h-1v1h-4v1H13V6H9V5H8V4H7V3H6V2H3v23h4v-2h5v2h5v-2h6v2h5v-2h5v2h4V2h-3z" fill="#00396d"/><g fill="#0069aa"><path d="M6 3h1v1H6zm27 0h1v1h-1z"/><path d="M7 4h1v1H7zm25 0h1v1h-1z"/><path d="M8 5h1v1H8zm23 0h1v1h-1z"/><path d="M9 6h1v1H9zm21 0h1v1h-1z"/><path d="M29 8h-1v1h-1v2h2V9h1V7h-1v1zM12 8h-1V7h-1v2h1v2h2V9h-1V8zm20 6v-1h-2v1h-1v1h-1v-1h-1v-2h-1v-1h-2v-1h-8v1h-2v1h-1v2h-1v1h-1v-1h-1v-1H8v1H5v9h2v-2h5v2h5v-2h2v-2h-2v-1h-1v-1h-1v-4h10v4h-1v1h-1v1h-3v2h3v2h5v-2h5v2h2v-9h-3z"/><path d="M24 17v-3h-8v3h1v1h6v-1h1z"/></g><g fill="#0098dc"><path d="M3 2v1h3V2H3zm31 0v1h3V2h-3z"/><path d="M6 3h1v1H6zm27 0h1v1h-1z"/><path d="M7 4h1v1H7zm25 0h1v1h-1z"/><path d="M8 5h1v1H8zm23 0h1v1h-1z"/><path d="M9 6h1v1H9zm21 0h1v1h-1z"/><path d="M10 7h1v1h-1zm19 0h1v1h-1z"/><path d="M11 8h1v1h-1zm17 0h1v1h-1z"/><path d="M12 11h1V9h-1v2zm15 0h1V9h-1v2z"/></g><path d="M36 3v1h-2v1h-1v1h-1v1h-1v2h-1v3h2v1h3v-1h2V3h-1zm-6 3h-3v1H13V6h-3v1h1v1h1v1h1v2h1v-1h2V9h8v1h2v1h1V9h1V8h1V7h1V6zM9 8V7H8V6H7V5H6V4H4V3H3v9h2v1h3v-1h2V9H9V8z" fill="#134c4c"/><path d="M10 11v3h1v1h1v-1h1v-3h-3zm17 0v3h1v1h1v-1h1v-3h-3z" fill="#0098dc"/><path d="M27 11v2h3v-2h-3z" fill="#bf6f4a"/><path d="M27 11v1h2v-1h-2z" fill="#e69c69"/><path d="M10 11v2h3v-2h-3z" fill="#bf6f4a"/><path d="M10 11v1h2v-1h-2z" fill="#e69c69"/><path d="M35 4h-1v1h-1v1h-1v1h-1v2h-1v3h2v1h3v-1h1V4h-1zm-8 3v1H13V7h-2v1h1v1h1v2h1v-1h2V9h8v1h2v1h1V9h1V8h1V7h-2zM9 8V7H8V6H7V5H6V4H4v8h1v1h2v-1h3V9H9V8z" fill="#1e6f50"/><g fill="#33984b"><path d="M4 4h1v1H4zm31 0h1v1h-1z"/><path d="M5 5h1v1H5zm29 0h1v1h-1z"/><path d="M4 6h1v1H4zm2 0h1v1H6zm27 0h1v1h-1zm2 0h1v1h-1z"/><path d="M5 7h1v1H5zm2 0h1v1H7zm4 0h1v1h-1zm16 0h1v1h-1zm5 0h1v1h-1zm2 0h1v1h-1z"/><path d="M4 8h1v1H4zm2 0h1v1H6zm2 0h1v1H8zm4 0h1v1h-1zm2 0h1v1h-1zm2 0h1v1h-1zm2 0h1v1h-1zm2 0h1v1h-1zm2 0h1v1h-1zm2 0h1v1h-1zm2 0h1v1h-1zm5 0h1v1h-1zm2 0h1v1h-1zm2 0h1v1h-1z"/><path d="M5 9h1v1H5zm2 0h1v1H7zm2 0h1v1H9zm4 0h1v1h-1zm2 0h1v1h-1zm10 0h1v1h-1zm5 0h1v1h-1zm2 0h1v1h-1zm2 0h1v1h-1z"/><path d="M4 10h1v1H4zm2 0h1v1H6zm2 0h1v1H8zm18 0h1v1h-1zm5 0h1v1h-1zm2 0h1v1h-1zm2 0h1v1h-1z"/><path d="M5 11h1v1H5zm2 0h1v1H7zm2 0h1v1H9zm21 0h1v1h-1zm2 0h1v1h-1zm2 0h1v1h-1z"/><path d="M6 12h1v1H6zm27 0h1v1h-1z"/></g></svg>