<svg xmlns="http://www.w3.org/2000/svg" width="24" height="22" xmlns:v="https://vecta.io/nano"><path d="M3 3V2h2V1h5V0h7v1h7v21h-3v-2h-3v2h-4v-2h-4v2H6v-2H3v2H0V3h3z" fill="#00396d"/><g fill="#0069aa"><path d="M2 8v1h1v1H1V8h1z"/><path d="M5 10v1h3v4h1v1h1v-1H9v-4h7v-1h2V9h1V8h1V7h1V6h2v4h-3v4h1v1h2v5h-2v-2h-3v2h-4v-2h-4v2H6v-2H3v2H1v-5h1v-1h1v-4h2z"/><path d="M21 11h2v3h-2v-3zM1 11h1v3H1v-3z"/></g><g fill="#134c4c"><path d="M18 2h-1V1h7v4h-3v1h-1v1h-1V4h-1V2z"/><path d="M3 3V2h2V1h5v1H9v1H8v2H7v2H6v2h1V7h1V5h1V3h1V2h7v2h1v5h-2v1H7v2H5V9H3V8H2V7H1V6H0V3h3z"/></g><path d="M17 0v1h-7V0h7z" fill="#0098dc"/><g fill="#0069aa"><path d="M17 1h1v1h-1z"/><path d="M19 4h-1V2h1v2z"/><path d="M20 7h-1V4h1v3z"/></g><g fill="#0098dc"><path d="M9 1h1v1H9z"/><path d="M8 2h1v1H8z"/><path d="M7 3h1v2H7V3z"/><path d="M6 5h1v2H6V5z"/><path d="M6 7v2H5V7h1z"/></g><path d="M23 2v3h-3V4h-1V2h4zM3 4V3h2V2h3v1H7v2H6v2H5v2H3V8H2V7H1V4h2zm5 2V5h1V3h1V2h7v2h1v5h-2v1H7V7h1V6z" fill="#1e6f50"/><path d="M7 9v3H6v1H5V9h2z" fill="#0098dc"/><path d="M7 9v2H5V9h2z" fill="#e69c69"/><path d="M7 10v1H5v-1h2z" fill="#bf6f4a"/><g fill="#33984b"><path d="M22 2h1v1h-1zm-2 0h1v1h-1zm-4 0h1v1h-1zm-2 0h1v1h-1zm-2 0h1v1h-1zm-2 0h1v1h-1zM6 2h1v1H6z"/><path d="M21 3h1v1h-1zm-2 0h1v1h-1zm-4 0h1v1h-1zm-2 0h1v1h-1zm-2 0h1v1h-1zM9 3h1v1H9zM5 3h1v1H5zM3 3h1v1H3z"/><path d="M22 4h1v1h-1zm-2 0h1v1h-1zm-4 0h1v1h-1zm-2 0h1v1h-1zm-2 0h1v1h-1zm-2 0h1v1h-1zM6 4h1v1H6zM4 4h1v1H4zM2 4h1v1H2z"/><path d="M17 5h1v1h-1zm-2 0h1v1h-1zm-2 0h1v1h-1zm-2 0h1v1h-1zM9 5h1v1H9zM5 5h1v1H5zM3 5h1v1H3zM1 5h1v1H1z"/><path d="M16 6h1v1h-1zm-2 0h1v1h-1zm-2 0h1v1h-1zm-2 0h1v1h-1zM8 6h1v1H8zM4 6h1v1H4zM2 6h1v1H2z"/><path d="M17 7h1v1h-1zm-2 0h1v1h-1zm-2 0h1v1h-1zm-2 0h1v1h-1zM9 7h1v1H9zM7 7h1v1H7zM3 7h1v1H3z"/><path d="M16 8h1v1h-1zm-2 0h1v1h-1zm-2 0h1v1h-1zm-2 0h1v1h-1zM8 8h1v1H8zM4 8h1v1H4z"/><path d="M15 9h1v1h-1zm-2 0h1v1h-1zm-2 0h1v1h-1zM9 9h1v1H9zM7 9h1v1H7z"/></g></svg>