<svg xmlns="http://www.w3.org/2000/svg" width="24" height="22" xmlns:v="https://vecta.io/nano"><path d="M21 3V2h-2V1h-5V0H7v1H0v21h3v-2h3v2h4v-2h4v2h4v-2h3v2h3V3h-3z" fill="#00396d"/><g fill="#0069aa"><path d="M22 8v1h-1v1h2V8h-1z"/><path d="M19 10v1h-3v4h-1v1h-1v-1h1v-4H8v-1H6V9H5V8H4V7H3V6H1v4h3v4H3v1H1v5h2v-2h3v2h4v-2h4v2h4v-2h3v2h2v-5h-1v-1h-1v-4h-2z"/><path d="M3 11H1v3h2v-3zm20 0h-1v3h1v-3z"/></g><g fill="#134c4c"><path d="M6 2h1V1H0v4h3v1h1v1h1V4h1V2z"/><path d="M21 3V2h-2V1h-5v1h1v1h1v2h1v2h1v2h-1V7h-1V5h-1V3h-1V2H7v2H6v5h2v1h9v2h2V9h2V8h1V7h1V6h1V3h-3z"/></g><path d="M7 0v1h7V0H7z" fill="#0098dc"/><g fill="#0069aa"><path d="M6 1h1v1H6z"/><path d="M5 4h1V2H5v2z"/><path d="M4 7h1V4H4v3z"/></g><g fill="#0098dc"><path d="M14 1h1v1h-1z"/><path d="M15 2h1v1h-1z"/><path d="M17 3h-1v2h1V3z"/><path d="M18 5h-1v2h1V5z"/><path d="M18 7v2h1V7h-1z"/></g><path d="M1 2v3h3V4h1V2H1zm20 2V3h-2V2h-3v1h1v2h1v2h1v2h2V8h1V7h1V4h-2zm-5 2V5h-1V3h-1V2H7v2H6v5h2v1h9V7h-1V6z" fill="#1e6f50"/><path d="M17 9v3h1v1h1V9h-2z" fill="#0098dc"/><path d="M17 9v2h2V9h-2z" fill="#e69c69"/><path d="M17 10v1h2v-1h-2z" fill="#bf6f4a"/><g fill="#33984b"><path d="M1 2h1v1H1zm2 0h1v1H3zm4 0h1v1H7zm2 0h1v1H9zm2 0h1v1h-1zm2 0h1v1h-1zm4 0h1v1h-1z"/><path d="M2 3h1v1H2zm2 0h1v1H4zm4 0h1v1H8zm2 0h1v1h-1zm2 0h1v1h-1zm2 0h1v1h-1zm4 0h1v1h-1zm2 0h1v1h-1z"/><path d="M1 4h1v1H1zm2 0h1v1H3zm4 0h1v1H7zm2 0h1v1H9zm2 0h1v1h-1zm2 0h1v1h-1zm4 0h1v1h-1zm2 0h1v1h-1zm2 0h1v1h-1z"/><path d="M6 5h1v1H6zm2 0h1v1H8zm2 0h1v1h-1zm2 0h1v1h-1zm2 0h1v1h-1zm4 0h1v1h-1zm2 0h1v1h-1zm2 0h1v1h-1z"/><path d="M7 6h1v1H7zm2 0h1v1H9zm2 0h1v1h-1zm2 0h1v1h-1zm2 0h1v1h-1zm4 0h1v1h-1zm2 0h1v1h-1z"/><path d="M6 7h1v1H6zm2 0h1v1H8zm2 0h1v1h-1zm2 0h1v1h-1zm2 0h1v1h-1zm2 0h1v1h-1zm4 0h1v1h-1z"/><path d="M7 8h1v1H7zm2 0h1v1H9zm2 0h1v1h-1zm2 0h1v1h-1zm2 0h1v1h-1zm4 0h1v1h-1z"/><path d="M8 9h1v1H8zm2 0h1v1h-1zm2 0h1v1h-1zm2 0h1v1h-1zm2 0h1v1h-1z"/></g></svg>