<svg xmlns="http://www.w3.org/2000/svg" width="24" height="22" xmlns:v="https://vecta.io/nano"><path d="M14 2v8h-2V3l1-1h1z" fill="#1e6f50"/><path d="M10 4V3h1V2h2v9h-1v1h-1v1H9V4h1z" fill="#134c4c"/><path d="M11 4V3h1v8h-1v1h-1V4h1z" fill="#1e6f50"/><g fill="#33984b"><path d="M11 3h1v1h-1z"/><path d="M10 4h1v1h-1z"/><path d="M11 5h1v1h-1z"/><path d="M10 6h1v1h-1z"/><path d="M11 7h1v1h-1z"/><path d="M10 8h1v1h-1z"/><path d="M11 9h1v1h-1z"/><path d="M10 10h1v1h-1zm3-7h1v1h-1zm0 2h1v1h-1zm0 2h1v1h-1zm0 2h1v1h-1z"/></g></svg>