<svg xmlns="http://www.w3.org/2000/svg" width="25" height="27" xmlns:v="https://vecta.io/nano"><path d="M24 12V7h-1V6h-1V5h-1V4h-3V2h-1V1h-1V0H9v1H8v1H7v2H4v1H3v1H2v1H1v4H0v5h1v1h1v1h2v2H3v2h1v1h1v2h1v2h12v-2h1v-2h1v-1h1v-2h-1v-1h3v-1h1v-3h1v-3h-1zM6 18h2v-1h1v-1h1v2h1v2H7v-1H6v-1zm12 2h-5v-2h1v-2h1v2h1v1h2v1z" fill="#1e6f50"/><g fill="#fff"><path d="M19 13h1v-1h2v-1h1V7h-1V6h-1V5h-3v1h-1V2h-1V1H9v1H8v4H7V5H4v1H3v1H2v4h1v1h2v1h2v1h3v1h5v-1h3v-1h1z"/><path d="M22 12v1h-2v1h-2v1h-1v1h-1v2h3v-1h1v1h3v-2h-1v-1h2v-3h-2zM5 14v-1H3v-1H2v-1H1v5h1v1h6v-1h1v-1H7v-1H5z"/></g><g fill="#134c4c"><path d="M23 11h1v1h-1z"/><path d="M24 12v3h1v-3h-1zM1 11H0v5h1v-5zm8 4h1v1H9z"/><path d="M22 15v1h1v2h1v-3h-2zM1 16h1v1H1zm7 0h1v1H8zm8 0h1v-1h-2v3h1v-2z"/><path d="M2 17v1h6v-1H2zm17 0h1v1h-1z"/><path d="M16 18v1h3v-1h-3zm4 0v1h3v-1h-3z"/></g><path d="M10 16v2h1v2h2v-2h1v-2h-4zm-4 2H4v2h3v-1H6v-1zm13 0v1h-1v1h2v-2h-1z" fill="#0c2e44"/><path d="M3 20v2h1v1h1v2h1v2h12v-2h1v-2h1v-1h1v-2H3z" fill="#391f21"/><path d="M4 21v1h16v-1H4z" fill="#bf6f4a"/><path d="M6 23v2h1v1h10v-1h1v-2H6z" fill="#8a4836"/><g fill="#5d2c28"><path d="M17 23v2h1v-2h-1z"/><path d="M16 25h1v1h-1z"/></g><g fill="#d3fc7e"><path d="M9 1v1H8v3h1V3h1V2h2V1H9zM4 5v1h2V5H4z"/><path d="M3 6h1v1H3z"/><path d="M2 7h1v1H2zm-1 7h1v-3H1v3z"/></g></svg>