<svg xmlns="http://www.w3.org/2000/svg" width="19" height="27" xmlns:v="https://vecta.io/nano"><path d="M18 11v-1h-2v1h-1v-1h-2V9h-1V2h-1V1h-1V0H4v1H3v4H2v1H1v1H0v4h1v2h1v1h1v1h1v1h1v4H1v2h1v1h1v2h1v2h12v-2h1v-2h1v-1h1v-2h-3v-2h1v-1h1v-1h1v-5h-1zM7 19v-3h1v2h1v1h1v1H7v-1zm7 1h-2v-1h2v1z" fill="#1e6f50"/><g fill="#fff"><path d="M12 10h1v1h-1z"/><path d="M16 11v1h-1v-1h-2v5h1v1h3v-1h1v-2h-2v-1h2v-2h-2zm-5 2v-2h-1v-1h1V8H9v1H8V8h1V7h2V2h-1V1H4v3h5v1h1v1H9V5H3v1H2v1H1v4h1v2h1v1h1v1h5v-1h1v-1h1z"/><path d="M13 16h-1v-3h-1v1h-1v2H9v2h2v-1h1v1h2v-1h-1v-1z"/></g><g fill="#134c4c"><path d="M11 8V7H9v1h2z"/><path d="M8 8h1v1H8zm4 1h1v1h-1zm-2 1h1v1h-1zm6 3v1h2v-1h-2zm-7 2h1v1H9z"/><path d="M9 16H8v2h1v-2zm2 1h1v1h-1z"/><path d="M9 18v1h2v-1H9zm3 0v1h2v-1h-2z"/></g><path d="M5 16v4h2v-4H5zm6 3h-1v1h2v-2h-1v1zm3-1v2h2v-2h-2z" fill="#0c2e44"/><path d="M1 20v2h1v1h1v2h1v2h12v-2h1v-2h1v-1h1v-2H1z" fill="#391f21"/><path d="M2 21v1h16v-1H2z" fill="#bf6f4a"/><path d="M4 23v2h1v1h10v-1h1v-2H4z" fill="#8a4836"/><g fill="#5d2c28"><path d="M5 23H4v2h1v-2z"/><path d="M5 25h1v1H5z"/></g><path d="M4 1v2h1V2h2V1H4zM3 5v1H2v1H1v4h1V8h1V7h1V6h2V5H3zm10 6h1v1h-1zm3 0h1v1h-1z" fill="#d3fc7e"/></svg>