<svg xmlns="http://www.w3.org/2000/svg" width="25" height="27" xmlns:v="https://vecta.io/nano"><path d="M24 12V7h-1V6h-1V5h-1V4h-3V2h-1V1h-1V0H9v1H8v1H7v2H4v1H3v1H2v1H1v4H0v5h1v1h1v1h2v2H3v2h1v1h1v2h1v2h12v-2h1v-2h1v-1h1v-2h-1v-1h3v-1h1v-3h1v-3h-1zM6 18h2v-1h1v-1h1v2h1v2H7v-1H6v-1zm12 2h-5v-2h1v-2h1v2h1v1h2v1z" fill="#134c4c"/><path d="M9 10H7v1H6v-1H4v1H3v-1H1v1H0v5h1v1h1v1h6v-1h1v-1h1v-5H9v-1zm15 2v-1h-2v-1h-1V9h-3v1h-1v1h-2v1h-1v3h1v3h1v1h3v-1h1v1h3v-1h1v-3h1v-3h-1z" fill="#1e6f50"/><path d="M10 16v2h1v2h2v-2h1v-2h-4z" fill="#0c2e44"/><path d="M3 20v2h1v1h1v2h1v2h12v-2h1v-2h1v-1h1v-2H3z" fill="#391f21"/><path d="M4 21v1h16v-1H4z" fill="#bf6f4a"/><path d="M6 23v2h1v1h10v-1h1v-2H6z" fill="#8a4836"/><g fill="#5d2c28"><path d="M17 23v2h1v-2h-1z"/><path d="M16 25h1v1h-1z"/></g><g fill="#fff"><path d="M16 11h1v-1h1V9h3v1h1v1h1V7h-1V6h-1V5h-3v1h-1V2h-1V1H9v1H8v4H7V5H4v1H3v1H2v3h1v1h1v-1h2v1h1v-1h2v1h1v4h4v-3h1v-1h1zm1-4v1h-1V7h-2v1h-1V7h1V6h2v1h1zM9 7V6h2v1h1v1h-1V7H9v1H8V7h1zm5 3v1h-3v-1h-1V9h1v1h3V9h1v1h-1z"/><path d="M7 11v1H6v-1H4v1H3v-1H1v5h1v1h6v-1h1v-5H7zm-3 2h1v1H3v-1h1zm1 3H4v-1h2v1H5zm3-2H6v-1h2v1zm13-2v-2h-3v2h-3v3h2v1h-1v2h3v-1h1v1h3v-2h-1v-1h2v-3h-3zm-2 1h1v1h-1v-1zm-2 0h1v1h-1v-1zm2 3h-1v-1h2v1h-1z"/></g><g fill="#d3fc7e"><path d="M9 1v1H8v3h1V3h1V2h2V1H9zM4 5v1h2V5H4z"/><path d="M3 6h1v1H3z"/><path d="M2 7h1v1H2zm16 3v2h1v-1h1v-1h-2zM1 11v3h1v-2h1v-1H1zm3 0h1v1H4zm3 0h1v1H7zm8 1v2h1v-1h1v-1h-2z"/></g></svg>