<svg xmlns="http://www.w3.org/2000/svg" width="19" height="27" xmlns:v="https://vecta.io/nano"><path d="M18 7V6h-1V5h-1V1h-1V0H9v1H8v1H7v7H6v1H4v1H3v-1H1v1H0v5h1v1h1v1h1v2H0v2h1v1h1v2h1v2h12v-2h1v-2h1v-1h1v-2h-4v-4h1v-1h1v-1h1v-1h1v-2h1V7h-1zm-6 10v3H9v-1h1v-1h1v-2h1v1zm-7 2h2v1H5v-1z" fill="#1e6f50"/><path d="M0 20v2h1v1h1v2h1v2h12v-2h1v-2h1v-1h1v-2H0z" fill="#391f21"/><g fill="#134c4c"><path d="M10 7H8v1h2V7zm8 0v4h1V7h-1z"/><path d="M10 8h1v1h-1zm-9 2v1h2v-1H1zm3 0h1v1H4z"/><path d="M0 16h1v-2h1v-1H1v-2H0v5zm3-5h1v1H3zm14 1v1h1v-2h-1v1zM5 13h1v1H5zm2 0h1v1H7z"/><path d="M16 13h1v1h-1z"/><path d="M15 14h1v1h-1z"/><path d="M10 16h5v-1h-5v1zm-9 0h1v1H1z"/><path d="M3 18h1v-1H2v1h1z"/></g><g fill="#fff"><path d="M17 7V6h-1V5h-6v1H9V5h1V4h5V1H9v1H8v5h2v1h1v1h-1V8H8v1h1v1h1v1h1v1h1v2h-1v1h4v-1h1v-1h1v-2h1V7h-1z"/><path d="M11 12H9v-2H6v2H4v2h1v-1h1v1H5v1h1v1H5v2h2v-1h1v1h2v-2H9v-1h1v-1h1v-2zm-4 1h1v1H7v-1z"/><path d="M4 15v-1H3v-3H1v2h1v1H1v2h1v1h2v-1h1v-1H4z"/></g><path d="M12 16v4h2v-4h-2zm-9 2v2h2v-2H3zm5 0H7v2h2v-1H8v-1z" fill="#0c2e44"/><path d="M1 21v1h16v-1H1z" fill="#bf6f4a"/><path d="M3 23v2h1v1h10v-1h1v-2H3z" fill="#8a4836"/><g fill="#5d2c28"><path d="M14 23v2h1v-2h-1z"/><path d="M13 25h1v1h-1z"/></g><path d="M9 1v1H8v2h1V3h1V2h3V1H9zm1 4v1h3V5h-3zm-4 5v2h1v-1h1v-1H6zm-4 1h1v1H2z" fill="#d3fc7e"/></svg>