<svg xmlns="http://www.w3.org/2000/svg" width="16" height="17" xmlns:v="https://vecta.io/nano"><path d="M15 10V8h-1V7h-1V6h-1V5h-1V4h1V3h1V1h-1V0H4v1H3v2h1v1h1v1H4v1H3v1H2v1H1v2H0v3h1v2h1v1h3v1h6v-1h3v-1h1v-2h1v-3h-1z" fill="#391f21"/><g fill="#8a4836"><path d="M11 2V1H5v1h6z"/><path d="M4 2h1v1H4zm7 0h1v1h-1z"/><path d="M5 3v1h6V3H5zm9 7V8h-1V7h-1V6h-1V5H5v1H4v1H3v1H2v2H1v3h1v2h3v1h6v-1h3v-2h1v-3h-1z"/></g><g fill="#bf6f4a"><path d="M11 2V1H5v1h6z"/><path d="M4 2h1v1H4z"/><path d="M10 4V3H5v1h5zm3 6V8h-1V7h-1V6h-1V5H5v1H4v1H3v1H2v2H1v3h2v1h2v1h6v-1h2v-1h1v-3h-1z"/></g><g fill="#f9e6cf"><path d="M3 9v4h1v-3h1v2h1v-2h1V9H3z"/><path d="M7 10v3h1v-3H7z"/></g></svg>