<svg xmlns="http://www.w3.org/2000/svg" width="16" height="17" xmlns:v="https://vecta.io/nano"><path d="M1 10V8h1V7h1V6h1V5h1V4H4V3H3V1h1V0h8v1h1v2h-1v1h-1v1h1v1h1v1h1v1h1v2h1v3h-1v2h-1v1h-3v1H5v-1H2v-1H1v-2H0v-3h1z" fill="#391f21"/><g fill="#8a4836"><path d="M5 2V1h6v1H5z"/><path d="M11 2h1v1h-1zM4 2h1v1H4z"/><path d="M11 3v1H5V3h6zm-9 7V8h1V7h1V6h1V5h6v1h1v1h1v1h1v2h1v3h-1v2h-3v1H5v-1H2v-2H1v-3h1z"/></g><g fill="#bf6f4a"><path d="M5 2V1h6v1H5z"/><path d="M11 2h1v1h-1z"/><path d="M6 4V3h5v1H6zm-3 6V8h1V7h1V6h1V5h5v1h1v1h1v1h1v2h1v3h-2v1h-2v1H5v-1H3v-1H2v-3h1z"/></g><g fill="#f9e6cf"><path d="M13 9h-3v1h3V9z"/><path d="M9 10v3h4v-2h-1v1h-2v-2H9z"/></g></svg>