<svg xmlns="http://www.w3.org/2000/svg" width="34" height="22" xmlns:v="https://vecta.io/nano"><path d="M33 9V7h-1V6h-1V4h-1V3h-1V2h-2V1h-3V0H10v1H7v1H5v1H4v1H3v2H2v1H1v2H0v12h34V9h-1z" fill="#c294fd"/><path d="M32 9V7h-1V6h-1V4h-1V3h-2V2h-3V1H10v1H7v1H5v1H4v2H3v1H2v2H1v8h32V9h-1zM11 3h1v1h-1v1H9V4h1V3h1z" fill="#8352c5"/><path d="M31 10V8h-1V7h-4v1h-1v2h-1v7h8v-7h-1zM9 9V8H8V7H4v1H3v2H2v7h8v-7H9V9zm13-1V7h-1V5h-1V4h-6v1h-1v2h-1v2h-1v8h12V9h-1V8z" fill="#ff1dff"/><path d="M0 17v5h34v-5H0z" fill="#4d4d4d"/><path d="M30 10V8h-4v2h-1v7h6v-7h-1zM8 9V8H4v2H3v7h6v-7H8V9zm13-1V7h-1V5h-6v2h-1v2h-1v8h10V9h-1V8z" fill="#faf"/><g fill="#fff"><path d="M4 12h1v-2H4v2zm22 0h1v-2h-1v2z"/><path d="M5 9h1v1H5zm22 0h1v1h-1zM14 9h1V7h-1v2z"/><path d="M15 6h1v1h-1z"/></g><path d="M33 19v-1H1v1h1v1H1v1h32v-1h-1v-1h1zM3 20v-1h1v1H3zm2 0v-1h1v1H5zm3 0v-1h1v1H8zm3 0v-1h1v1h-1zm4 0v-1h1v1h-1zm3 0v-1h1v1h-1zm4 0v-1h1v1h-1zm3 0v-1h1v1h-1zm3 0v-1h1v1h-1zm3 0h-1v-1h1v1z" fill="#c5c5c5"/></svg>