<svg xmlns="http://www.w3.org/2000/svg" width="24" height="22" xmlns:v="https://vecta.io/nano"><path d="M1 9V7h1V6h1V4h1V3h1V2h2V1h3V0h4v1h3v1h2v1h1v1h1v2h1v1h1v2h1v12H0V9h1z" fill="#c294fd"/><path d="M1 9v8h22V9h-1V7h-1V6h-1V4h-1V3h-2V2h-3V1h-4v1H7v1H5v1H4v2H3v1H2v2H1zm7-5v1H6v1H5V5h1V4h2z" fill="#8352c5"/><path d="M24 17v5H0v-5h24z" fill="#4d4d4d"/><path d="M3 10V8h1V7h4V5h1V4h6v1h1v2h4v1h1v2h1v7H2v-7h1z" fill="#ff1dff"/><path d="M4 10V8h3v9H3v-7h1zm16-2v2h1v7h-4V8h3zM9 5h6v2h1v10H8V7h1V5z" fill="#faf"/><g fill="#fff"><path d="M20 12h-1v-2h1v2zM5 10v2H4v-2h1z"/><path d="M18 9h1v1h-1zM5 9h1v1H5zm6 0h-1V7h1v2z"/><path d="M11 6h1v1h-1z"/></g><path d="M0 18v3h24v-3H0zm22 2v-1h1v1h-1zm-2 0v-1h1v1h-1zm-2 0v-1h1v1h-1zm-2 0v-1h1v1h-1zm-3 0v-1h1v1h-1zm-3 0v-1h1v1h-1zm-3 0v-1h1v1H7zm-2 0v-1h1v1H5zm-2 0v-1h1v1H3zm-2-1h1v1H1v-1z" fill="#c5c5c5"/></svg>