<svg xmlns="http://www.w3.org/2000/svg" width="24" height="22" xmlns:v="https://vecta.io/nano"><path d="M23 9V7h-1V6h-1V4h-1V3h-1V2h-2V1h-3V0h-4v1H7v1H5v1H4v1H3v2H2v1H1v2H0v12h24V9h-1z" fill="#c294fd"/><path d="M22 9V7h-1V6h-1V4h-1V3h-2V2h-3V1h-4v1H7v1H5v1H4v2H3v1H2v2H1v8h22V9h-1zm-4-5v1h1v1h-1V5h-2V4h2z" fill="#8352c5"/><path d="M0 17v5h24v-5H0z" fill="#4d4d4d"/><path d="M21 10V8h-1V7h-4V5h-1V4H9v1H8v2H4v1H3v2H2v7h20v-7h-1z" fill="#ff1dff"/><path d="M20 10V8h-3v9h4v-7h-1zM4 8v2H3v7h4V8H4zm11-3H9v2H8v10h8V7h-1V5z" fill="#faf"/><g fill="#fff"><path d="M4 12h1v-2H4v2zm15-2v2h1v-2h-1z"/><path d="M5 9h1v1H5zm13 0h1v1h-1zm-5 0h1V7h-1v2z"/><path d="M12 6h1v1h-1z"/></g><path d="M0 18v3h24v-3H0zm1 2v-1h1v1H1zm2 0v-1h1v1H3zm2 0v-1h1v1H5zm2 0v-1h1v1H7zm3 0v-1h1v1h-1zm3 0v-1h1v1h-1zm3 0v-1h1v1h-1zm2 0v-1h1v1h-1zm2 0v-1h1v1h-1zm3 0h-1v-1h1v1z" fill="#c5c5c5"/></svg>