<?xml version="1.0" encoding="utf-8"?>
<!-- Generator: Adobe Illustrator 25.0.1, SVG Export Plug-In . SVG Version: 6.00 Build 0)  -->
<svg version="1.1" xmlns="http://www.w3.org/2000/svg" xmlns:xlink="http://www.w3.org/1999/xlink" x="0px" y="0px"
	 viewBox="0 0 40 19" style="enable-background:new 0 0 40 19;" xml:space="preserve">
<style type="text/css">
	.st0{display:none;}
	.st1{display:inline;fill:#870AFF;}
	.st2{display:inline;}
	.st3{fill:#550AAA;}
	.st4{display:inline;fill:#FFFFFF;}
	.st5{fill:#870AFF;}
</style>
<g id="Layer_1" xmlns:v="https://vecta.io/nano" class="st0">
	<path class="st1" d="M34,1v1h-1v1h-1v1h-1v1h-1v1h-1v1h-2v1h-2v1h-3v1h-4V9h-3V8h-2V7h-2V6h-1V5H9V4H8V3H7V2H6V1H4v17h32V1H34z"/>
	<g class="st2">
		<path class="st3" d="M6,1h1v1H6V1z M8,3h1v1H8V3z"/>
		<path class="st3" d="M7,2h1v1H7V2z M10,5h1v1h-1V5z"/>
		<path class="st3" d="M9,4h1v1H9V4z M13,7h2v1h-2V7z"/>
		<path class="st3" d="M11,6h2v1h-2V6z M33,1h1v1h-1V1z M31,3h1v1h-1V3z"/>
		<path class="st3" d="M32,2h1v1h-1V2z M29,5h1v1h-1V5z"/>
		<path class="st3" d="M30,4h1v1h-1V4z M25,7h2v1h-2V7z"/>
		<path class="st3" d="M27,6h2v1h-2V6z M18,9h4v1h-4V9z"/>
		<path class="st3" d="M15,8h3v1h-3V8z M22,8h3v1h-3V8z M3,19h34V0h-3v1h2v17H4V1h2V0H3V19z"/>
	</g>
	<path class="st4" d="M14.5,13h3v1h-3V13z M14.5,11h3v1h-3V11z M14.5,15h3v1h-3V15z M18.5,11v1h1v4h1v-4h1v-1H18.5z M24.5,11v2h-1
		v-2h-1v5h1v-2h1v2h1v-5H24.5z"/>
</g>
<g id="Layer_5" class="st0">
	<path class="st1" d="M3,2H2v1H1v6h1V8h1V2z"/>
	<g class="st2">
		<path class="st3" d="M1,2h1v1H1V2z M3,8H2v1h1V8z"/>
		<path class="st3" d="M3,1H2v1h1V1z M1,3H0v7h2V9H1V3z"/>
	</g>
</g>
<g id="Layer_3" class="st0">
	<path class="st1" d="M37,8h1v1h1V3h-1V2h-1V8z"/>
	<g class="st2">
		<path class="st3" d="M39,3v6h-1v1h2V3H39z"/>
		<path class="st3" d="M38,2h1v1h-1V2z M37,9h1V8h-1V9z"/>
		<path class="st3" d="M37,2h1V1h-1V2z"/>
	</g>
</g>
<g id="Layer_4" class="st0">
	<path class="st1" d="M3,2H2V1H1v6h1v1h1V2z"/>
	<g class="st2">
		<path class="st3" d="M1,7V1h1V0H0v7H1z"/>
		<path class="st3" d="M1,7h1v1H1V7z M3,1H2v1h1V1z"/>
		<path class="st3" d="M3,8H2v1h1V8z"/>
	</g>
</g>
<g id="Layer_2">
	<path class="st5" d="M37,8h1V7h1V1h-1v1h-1V8z"/>
	<g>
		<path class="st3" d="M39,8h-1V7h1V8z M37,2h1V1h-1V2z"/>
		<path class="st3" d="M37,9h1V8h-1V9z M39,7h1V0h-2v1h1V7z"/>
	</g>
</g>
</svg>
