<svg xmlns="http://www.w3.org/2000/svg" viewBox="0 0 40 19"  xmlns:v="https://vecta.io/nano"><path d="M34,1v1h-1v1h-1v1h-1v1h-1v1h-1v1h-2v1h-2v1h-3v1h-4V9h-3V8h-2V7h-2V6h-1V5H9V4H8V3H7V2H6V1H4v17h32V1H34z" fill="#870aff"/><g fill="#550aaa"><path d="M6 1h1v1H6V1zm2 2h1v1H8V3z"/><path d="M7 2h1v1H7V2zm3 3h1v1h-1V5z"/><path d="M9 4h1v1H9V4zm4 3h2v1h-2V7z"/><path d="M11 6h2v1h-2V6zm22-5h1v1h-1V1zm-2 2h1v1h-1V3z"/><path d="M32 2h1v1h-1V2zm-3 3h1v1h-1V5z"/><path d="M30 4h1v1h-1V4zm-5 3h2v1h-2V7z"/><path d="M27 6h2v1h-2V6zm-9 3h4v1h-4V9z"/><path d="M15 8h3v1h-3V8zm7 0h3v1h-3V8zM3 19h34V0h-3v1h2v17H4V1h2V0H3v19z"/></g><path d="M14.5 13h3v1h-3v-1zm0-2h3v1h-3v-1zm0 4h3v1h-3v-1zm4-4v1h1v4h1v-4h1v-1h-3zm6 0v2h-1v-2h-1v5h1v-2h1v2h1v-5h-1z" fill="#fff"/></svg>