<svg xmlns="http://www.w3.org/2000/svg" width="26" height="20" xmlns:v="https://vecta.io/nano"><path d="M2 8V6h2V4h2V2h2V0h16v20H0V8h2z" fill="#0b1d35"/><path d="M2 8v10H0V8h2z" fill="#0050b4"/><path d="M2 16v2H0v-2h2z" fill="#0084ff"/><g fill="#fff"><path d="M15 7v3h2v1h-2v1h3V9h-2V8h2V7h-3zm5 0h1v1h-1zm3 0v5h1V7h-1z"/><path d="M21 9h-1V8h-1v4h1v-2h1v2h1V8h-1v1z"/></g><path d="M20 12h1v1h-1z" fill="#0084ff"/><path d="M7 10V9H4v3h2v1H4v1h3v-3H5v-1h2z" fill="#fff"/><path d="M24 1V0H12v1h3v1h3v1h1v2h1v1h1v1h4V5h1V1h-2z" fill="#0084ff"/></svg>