<svg xmlns="http://www.w3.org/2000/svg" width="26" height="20" xmlns:v="https://vecta.io/nano"><path d="M24 8V6h-2V4h-2V2h-2V0H2v20h24V8h-2z" fill="#0b1d35"/><path d="M24 8v10h2V8h-2z" fill="#0050b4"/><path d="M11 9h1v1h-1z" fill="#0084ff"/><g fill="#fff"><path d="M5 7h1v1H5zm4 0H8v2h1V7zm1 0v2h1V7h-1zm-8 4h1V8H2v3z"/><path d="M6 11h1V8H6v3zM5 8H4v3h1V8zm4 1h1v1H9z"/><path d="M8 12h1v-2H8v2zm-3-1h1v1H5zm5 1h1v-2h-1v2z"/></g><path d="M24 16v2h2v-2h-2zM2 0v1H0v4h1v2h4V6h1V5h1V3h1V2h3V1h3V0H2z" fill="#0084ff"/></svg>