<svg xmlns="http://www.w3.org/2000/svg" width="40" height="21" xmlns:v="https://vecta.io/nano"><path d="M3 1v20h34V1H3z" fill="#0b1d35"/><path d="M33 10h1v1h-1z" fill="#0084ff"/><g fill="#fff"><path d="M6 8v3h2v1H6v1h3v-3H7V9h2V8H6zm5 0h1v1h-1zm4 0h-1v5h1V9h1V8h-1zm12 0h1v1h-1zm4 0h-1v2h1V8zm1 0v2h1V8h-1z"/><path d="M12 10h-1V9h-1v4h1v-2h1v2h1V9h-1v1zm4 3h1V9h-1v4zm4-1h1V9h-1v3zm4-2h-1V9h1V8h-2v5h2v-1h-1v-1h1v1h1V9h-1v1zm4 2h1V9h-1v3zm-1-3h-1v3h1V9zm4 1h1v1h-1z"/><path d="M19 9h1V8h-2v5h2v-1h-1V9zm11 4h1v-2h-1v2zm-3-1h1v1h-1zm5 1h1v-2h-1v2z"/></g><path d="M11 13h1v1h-1zM9 1v1h1v1h1v1h1v1h1v1h2v1h10V6h2V5h1V4h1V3h1V2h1V1H9z" fill="#0084ff"/><path d="M11 1v1h3v1h1v1h10V3h1V2h3V1H11z" fill="#005ed9"/></svg>