<svg xmlns="http://www.w3.org/2000/svg" width="30" height="12" xmlns:v="https://vecta.io/nano"><path d="M13 2h-1V1h-1V0H3v1H2v1H1v1H0v6h1v1h1v1h2v1h6v-1h2v-1h1V9h1V3h-1V2zm16 1V2h-1V1h-1V0h-8v1h-1v1h-1v1h-1v6h1v1h1v1h2v1h6v-1h2v-1h1V9h1V3h-1z"/><path d="M12 2h-1V1H3v1H2v1H1v2h12V3h-1V2zm16 1V2h-1V1h-8v1h-1v1h-1v2h12V3h-1z" fill="#900091"/><g fill="#fe33ff"><path d="M3 2h1v1H3zm16 0h1v1h-1z"/><path d="M2 5h1V3H2v2zm16 0h1V3h-1v2z"/></g><path d="M10 6v4h1V6h-1z" fill="#03ffff"/><path d="M19 6v4h1V6h-1z" fill="#feff00"/><path d="M17 9h1V6h-1v3zm10-3v4h1V6h-1zM2 10h1V6H2v4zm10-4v3h1V6h-1z" fill="#0f0"/><path d="M4 6v5h1V6H4z" fill="#feff00"/><path d="M6 6v5h1V6H6z" fill="#fe33ff"/><path d="M8 6v5h1V6H8z" fill="#7d00ff"/><path d="M21 6v5h1V6h-1z" fill="#fe33ff"/><path d="M23 6v5h1V6h-1z" fill="#7d00ff"/><path d="M25 6v5h1V6h-1z" fill="#03ffff"/></svg>