<svg xmlns="http://www.w3.org/2000/svg" width="8" height="56" xmlns:v="https://vecta.io/nano"><path d="M1 14v-1h2V2h1V0h1v2h1v11h1v1h1v4H7v1H6v33h1v2H6v1H5v1H4v-1H3v-1H2v-2h1V19H1v-1H0v-4h1z"/><path d="M5 2v11H4V2h1z" fill="#fe33ff"/><path d="M7 18H6v-4h1v4zm-4-4v1H1v-1h2z" fill="#7d00ff"/><path d="M2 17v-1h1v2H1v-1h1z" fill="#fff"/><path d="M5 14v9H4v-9h1z" fill="#0f0"/><path d="M5 24v27H4V24h1z" fill="#7d00ff"/><path d="M4 32h1v1H4zm1 4H4v-2h1v2zm-1 1h1v1H4zm2 15v2H5v1H4v-1H3v-2h3z" fill="#fe33ff"/></svg>