<svg xmlns="http://www.w3.org/2000/svg" width="8" height="56" xmlns:v="https://vecta.io/nano"><path d="M7 14v-1H5V2H4V0H3v2H2v11H1v1H0v4h1v1h1v33H1v2h1v1h1v1h1v-1h1v-1h1v-2H5V19h2v-1h1v-4H7z"/><path d="M3 2v11h1V2H3z" fill="#fe33ff"/><path d="M1 18h1v-4H1v4zm4-4v1h2v-1H5z" fill="#7d00ff"/><path d="M6 17v-1H5v2h2v-1H6z" fill="#fff"/><path d="M3 14v9h1v-9H3z" fill="#03ffff"/><path d="M3 24v27h1V24H3z" fill="#7d00ff"/><path d="M3 32h1v1H3zm0 4h1v-2H3v2zm0 1h1v1H3zM2 52v2h1v1h1v-1h1v-2H2z" fill="#fe33ff"/></svg>