<svg xmlns="http://www.w3.org/2000/svg" width="28" height="22" xmlns:v="https://vecta.io/nano"><path d="M1 14v-1h1V6h1V4h1V3h1V2h2V1h3V0h8v1h3v1h2v1h1v1h1v2h1v7h1v1h1v7h-1v1h-1v-1h-1v-1h-1v-1H4v1H3v1H2v1H1v-1H0v-7h1z"/><path d="M4 6V4h1V3h2V2h3V1h8v1h3v1h2v1h1v2h1v7h-4v-2h1V8h-1V6h-1V5h-3V4h-1V3h-4v1h-1v3h-1v1H9V7H7v1H6v1H5v2H4v1H3V6h1zm5 6v1H6v-1h3z" fill="#0cf1ff"/><path d="M27 14v7h-1v-1h-1v-1h-1v-1H4v1H3v1H2v1H1v-7h26z" fill="#7d00ff"/><g fill="#fff"><path d="M7 4V3h3v1H8v1H6V4h1z"/><path d="M5 5h1v1H5z"/><path d="M4 6h1v1H4z"/></g><path d="M12 5V4h4v1h-4zm5 2V6h3v1h-3zM7 9V8h2v2h1v1h1v1h9v1H10v-1H9v-1H6V9h1z" fill="#50ffa8"/><path d="M27 17h-1v-2h1v2zm-5-2v2h-2v-2h2zm-7 0v2h-2v-2h2zm-7 0v2H6v-2h2zm-6 0v2H1v-2h1z" fill="#fe33ff"/><path d="M16 6v1h-2V6h2z" fill="#fff"/><path d="M21 8v3H11v-1h9V9H10V8h11z" fill="#ea323c"/><g fill="#feff00"><path d="M6 9h1v2H6V9z"/><path d="M5 11h1v1H5z"/><path d="M4 12h1v1H4z"/></g></svg>