<svg xmlns="http://www.w3.org/2000/svg" width="38" height="22" xmlns:v="https://vecta.io/nano"><path d="M37 14v-1h-1V8h-1V6h-1V5h-1V4h-1V3h-1V2h-1V1h-2V0H10v1H8v1H7v1H6v1H5v1H4v1H3v2H2v5H1v1H0v4h1v1h14v1h1v1h1v1h4v-1h1v-1h1v-1h14v-1h1v-4h-1z"/><g fill="#50ffa8"><path d="M17 5V4h-5v1h5zm4-1v1h5V4h-5zm-1 3V6h-2v1h2zm9 1v1h-2v2h1v1h1v-1h3V8h-3zM9 9V8H6v3h3v1h1v-1h1V9H9z"/><path d="M10 12h1v1h-1zm2 0v1h14v-1H12zm15 0h1v1h-1z"/></g><path d="M34 8V6h-1V5h-1V4h-1V3h-1V2h-2V1H10v1H8v1H7v1H6v1H5v1H4v2H3v5h6v-1H6v-1H5V8h1V7h3v1h3V7h-1V4h1V3h5v1h1v1h2V4h1V3h5v1h1v3h-1v1h3V7h3v1h1v3h-1v1h-3v1h6V8h-1z" fill="#0cf1ff"/><path d="M1 14v4h14v1h1v1h1v1h4v-1h1v-1h1v-1h14v-4H1z" fill="#7d00ff"/><g fill="#fff"><path d="M9 2v1H8v1H7v1h2V4h1V3h2V2H9z"/><path d="M6 5h1v1H6z"/><path d="M5 6h1v1H5z"/></g><path d="M5 15v2h2v-2H5zm6 0v2h2v-2h-2zm7 0v2h2v-2h-2zm7 0v2h2v-2h-2zm6 0v2h2v-2h-2z" fill="#fe33ff"/><path d="M12 6h1v1h-1zm3 0v1h2V6h-2zm6 0h1v1h-1zm3 0v1h2V6h-2z" fill="#fff"/><path d="M12 8v3h14V8H12zm13 2H13V9h12v1z" fill="#ea323c"/><g fill="#feff00"><path d="M9 9v1H8v1h1v1h1v-1h1V9H9zm20 1V9h-2v2h1v1h1v-1h1v-1h-1z"/><path d="M10 12h1v1h-1zm17 0h1v1h-1z"/></g></svg>