<svg xmlns="http://www.w3.org/2000/svg" width="28" height="22" xmlns:v="https://vecta.io/nano"><path d="M27 14v-1h-1V6h-1V4h-1V3h-1V2h-2V1h-3V0h-8v1H7v1H5v1H4v1H3v2H2v7H1v1H0v7h1v1h1v-1h1v-1h1v-1h20v1h1v1h1v1h1v-1h1v-7h-1z"/><path d="M24 6V4h-1V3h-2V2h-3V1h-8v1H7v1H5v1H4v2H3v7h4v-2H6V8h1V6h1V5h3V4h1V3h4v1h1v3h1v1h1V7h2v1h1v1h1v2h1v1h1V6h-1zm-5 6v1h3v-1h-3z" fill="#0cf1ff"/><path d="M1 14v7h1v-1h1v-1h1v-1h20v1h1v1h1v1h1v-7H1z" fill="#7d00ff"/><g fill="#fff"><path d="M21 4V3h-3v1h2v1h2V4h-1z"/><path d="M22 5h1v1h-1z"/><path d="M23 6h1v1h-1z"/></g><path d="M16 5V4h-4v1h4zm-5 2V6H8v1h3zm10 2V8h-2v2h-1v1h-1v1H8v1h10v-1h1v-1h3V9h-1z" fill="#50ffa8"/><path d="M1 17h1v-2H1v2zm5-2v2h2v-2H6zm7 0v2h2v-2h-2zm7 0v2h2v-2h-2zm6 0v2h1v-2h-1z" fill="#fe33ff"/><path d="M12 6v1h2V6h-2z" fill="#fff"/><path d="M7 8v3h10v-1H8V9h10V8H7z" fill="#ea323c"/><g fill="#feff00"><path d="M22 9h-1v2h1V9z"/><path d="M22 11h1v1h-1z"/><path d="M23 12h1v1h-1z"/></g></svg>