<svg xmlns="http://www.w3.org/2000/svg" viewBox="0 0 14 14"  xmlns:v="https://vecta.io/nano"><path d="M12,4V3h-1V2h-1V1H4v1H3v1H2v1H1v6h1v1h1v1h1v1h6v-1h1v-1h1v-1h1V4H12z" fill="#b4b4b4"/><g fill="#646464"><path d="M12,3h1v1h-1V3z"/><path d="M13,4h1v6h-1V4z"/><path d="M12,10h1v1h-1V10z"/><path d="M11,11h1v1h-1V11z"/><path d="M10,12h1v1h-1V12z"/><path d="M4,13h6v1H4V13z"/><path d="M3,12h1v1H3V12z"/><path d="M2,11h1v1H2V11z"/><path d="M1,10h1v1H1V10z"/><path d="M0 4h1v6H0V4zm11-2h1v1h-1V2z"/><path d="M10,1h1v1h-1V1z"/><path d="M4,0h6v1H4V0z"/><path d="M3,1h1v1H3V1z"/><path d="M2,2h1v1H2V2z"/><path d="M1 3h1v1H1V3zm5 1.5v1h1v1H6v1h1v1H6v1h2v-5H6zm-3 0h2v1H3v-1zm0 2h2v1H3v-1zm0 2h2v1H3v-1zm6-4v1h1v1H9v3h2v-1h-1v-1h1v-3H9z"/></g></svg>