<svg xmlns="http://www.w3.org/2000/svg" width="23" height="15" xmlns:v="https://vecta.io/nano"><path d="M11 6h-1V5H8V4H4v1H2v1H1v1H0v3h1v1h3v1H3v1h1v2h4v-2h1v-1H8v-1h3v-1h1V7h-1V6z"/><path d="M22 3V2h-1V1h-2V0h-4v1h-2v1h-1v1h-1v3h1v1h3v3h-1v1h1v4h4v-4h1v-1h-1V7h3V6h1V3h-1z"/><path d="M10 7V6H8V5H4v1H2v1H1v3h10V7h-1z" fill="#7d00ff"/><path d="M21 3V2h-2V1h-4v1h-2v1h-1v3h10V3h-1z" fill="#f0f"/><path d="M4 6h1v1H4zm3 1h1v1H7zm2-1h1v1H9zm0 2h1v1H9zM3 8h1v1H3zM1 7h1v1H1zm4 2h1v1H5zm10-7h1v1h-1zm3 1h1v1h-1zm2-1h1v1h-1zm0 2h1v1h-1zm-6 0h1v1h-1zm-2-1h1v1h-1zm4 2h1v1h-1z" fill="#fff"/><path d="M5 11v4h2v-4H5zm11-4v8h2V7h-2z" fill="#0f0"/><path d="M4 12v1h4v-1H4z" fill="#fff"/><path d="M5 13v1h2v-1H5z" fill="#ff0"/><path d="M5 14v1h2v-1H5zm11-5v1h2V9h-2z" fill="#f0f"/><path d="M15,10v1h4v-1h-4Z" fill="#fff"/><path d="M16 8v1h2V8h-2zm0 5v1h2v-1h-2z" fill="#ff0"/><path d="M16,14v1h2v-1h-2Z" fill="#ffae00"/><path d="M16,11v1h2v-1h-2Z" fill="#7d00ff"/><path d="M16,12v1h2v-1h-2Z" fill="#0fc"/></svg>