<svg xmlns="http://www.w3.org/2000/svg" viewBox="0 0 34 40"  xmlns:v="https://vecta.io/nano"><path d="M31,26v-1H19V10h1V9h1V8h1V7h1V6h1V5H10v1h1v1h1v1h1v1h1v1h1v15H3v1H2v1h30v-1H31z" fill="#f57a1a"/><g fill="#e06b1a"><path d="M32 15v-1h-2v-1h-2v-1h-2v-1h-2V9h1V8h1V7h1V6h1V5h1V4h1V3h1V2h-2v1h-2v1h-2v1h-1v1h-1v1h-1v1h-1v1h-1v1h-1v7h14v-2h-1zm0 4h-1v1h-1v1h-1v1h-1v1h1v1h1v1h1v1h1v1h1v-9h-1v1z"/><path d="M32 29h-1v1h-1v1h-1v1h-1v1h-1v1h1v1h1v1h1v1h1v1h1v1h1V28h-1v1zM31 1h1v1h-1V1zM14 9h-1V8h-1V7h-1V6h-1V5H9V4H7V3H5V2H3v1h1v1h1v1h1v1h1v1h1v1h1v1h1v2H8v1H6v1H4v1H2v1H1v2h14v-7h-1V9zM2 26h1v-1h1v-1h1v-1h1v-1H5v-1H4v-1H3v-1H2v-1H1v9h1v-1z"/><path d="M6 32H5v-1H4v-1H3v-1H2v-1H1v11h1v-1h1v-1h1v-1h1v-1h1v-1h1v-1H6v-1zM2 1h1v1H2V1z"/></g><path d="M19 17v7h1v-1h1v-1h1v-1h1v-1h3v1h1v1h2v-1h1v-1h1v-1h1v-1h1v-1H19zm2 10v1h1v1h1v1h1v1h1v1h1v1h2v-1h1v-1h1v-1h1v-1h1v-1h1v-1H21zM1 17v1h1v1h1v1h1v1h1v1h2v-1h1v-1h3v1h1v1h1v1h1v1h1v-7H1zm0 10v1h1v1h1v1h1v1h1v1h1v1h2v-1h1v-1h1v-1h1v-1h1v-1h1v-1H1z" fill="#c65616"/><path d="M6,36v1h1v1h2v1h16v-1h2v-1h1v-1H6z" fill="#b8a394"/><path d="M29 24v-1h-1v-1h-1v-1h-1v-1h-3v1h-1v1h-1v1h-1v1h-1v1h11v-1h-1zm-14 1v-1h-1v-1h-1v-1h-1v-1h-1v-1H8v1H7v1H6v1H5v1H4v1h11zm5 7h2v2h-2v-2zm-7-5v2h1v1h1v1h1v1h2v-1h1v-1h1v-1h1v-2h-8zm-1 5h2v2h-2v-2z"/><path d="M14,34h6v2h-6V34z"/><g fill="#6c3617"><path d="M31 0v1h1v1h-1v1h-1v1h-1v1h-1v1h-1v1h-1v1h-1v1h-1v2h2v1h2v1h2v1h2v1h1v24h-1v1h2V0h-3zm-4 37h1v1h-1v-1z"/><path d="M25 38h2v1h-2v-1zm6 0h1v1h-1v-1zM25 3h2v1h-2V3z"/><path d="M27 2h2v1h-2V2zM9 39h16v1H9v-1z"/><path d="M29 1h2v1h-2V1zM6 37h1v1H6v-1z"/><path d="M4 36h2v1H4v-1zm3 2h2v1H7v-1zm-5 0h1v1H2v-1zM9 4h16v1H9V4z"/><path d="M7,3h2v1H7V3z"/><path d="M5 2h2v1H5V2zM1 15h1v-1h2v-1h2v-1h2v-1h2V9H9V8H8V7H7V6H6V5H5V4H4V3H3V2H2V1h1V0H0v40h2v-1H1V15z"/><path d="M3 1h2v1H3V1zm25 35h2v1h-2v-1z"/><path d="M30 37h1v1h-1v-1zM3 37h1v1H3v-1z"/></g><path d="M28 35v-1h-1v-1h-1v-1h-1v-1h-1v-1h-1v-1h-1v-1h-1v1h-1v1h-1v1h-1v1h-2v-1h-1v-1h-1v-1h-1v-1h-1v1h-1v1h-1v1H9v1H8v1H7v1H6v1H5v1h9v-2h-2v-2h2v2h6v-2h2v2h-2v2h9v-1h-1z" fill="#d1b9aa"/></svg>