<svg xmlns="http://www.w3.org/2000/svg" viewBox="0 0 26 40"><path d="M1 27V11h1v-1h1V9h1V8h1V7h1V6h1V5h1V4h1V3h1V2h1V1h1V0h3v4h2v2h4v2h2v2h2v2h1v28H12v-1h-1v-1h-1v-1H8v1H7v1H5v1H1V29H0v-2h1z" fill="#6c3617"/><path d="M12 27v-1h-1v-1h-1v-1H9v-1H8v-1h1v-1h1v-1h1v-1h1v-1h13v9H12zm-4 5h1v-1h1v-1h1v-1h1v-1h13v11H12v-1h-1v-1h-1v-1H9v-1H8v-1H7v-1h1v-1z" fill="#e06b1a"/><path d="M11,25v1h1v1H1v-2H11z" fill="#f57a1a"/><path d="M25 27v1H12v1h-1v1h-1v1H9v1H8v1H7 6v-1H5v-1H4v-1H3v-1H2v-1H1v-1h24zm0-10v1H12v1h-1v1h-1v1H9v1H7v-1H6v-1H3v1H2v1H1v-5h24z" fill="#c65616"/><path d="M0 27h1v2H0v-2zm1-5h1v-1h1v-1h3v1h1v1h1v1h1v1h1v1H1v-3z"/><path d="M7,36h1v1H7v1H5v1H1v-3H7z" fill="#b8a394"/><path d="M2,28v1h1v1h1v1h1v1h1v1h1v1h1v1h1v1H1v-8H2z" fill="#d1b9aa"/><path d="M2 11v-1h1V9h2V8h1V7h1V6h1V5h1V4h1V3h1V2h1V1h2v1h-1v1h-1v1h-1v1h-1v1H9v1H8v1H7v1H6v2h2v1h2v1h2v1h2v1h1V6h2v2h4v2h2v2h2v5H1v-6h1z" fill="#e06b1a"/></svg>