<svg xmlns="http://www.w3.org/2000/svg" viewBox="0 0 26 40"><path d="M25 27V11h-1v-1h-1V9h-1V8h-1V7h-1V6h-1V5h-1V4h-1V3h-1V2h-1V1h-1V0h-3v4H9v2H5v2H3v2H1v2H0v28h14v-1h1v-1h1v-1h2v1h1v1h2v1h4V29h1v-2h-1z" fill="#6c3617"/><path d="M14 27v-1h1v-1h1v-1h1v-1h1v-1h-1v-1h-1v-1h-1v-1h-1v-1H1v9h13zm4 5h-1v-1h-1v-1h-1v-1h-1v-1H1v11h13v-1h1v-1h1v-1h1v-1h1v-1h1v-1h-1v-1z" fill="#e06b1a"/><path d="M15,25v1h-1v1h11v-2H15z" fill="#f57a1a"/><path d="M1 27v1h13v1h1v1h1v1h1v1h1v1h1 1v-1h1v-1h1v-1h1v-1h1v-1h1v-1H1zm0-10v1h13v1h1v1h1v1h1v1h2v-1h1v-1h3v1h1v1h1v-5H1z" fill="#c65616"/><path d="M25 27h1v2h-1v-2zm0-5h-1v-1h-1v-1h-3v1h-1v1h-1v1h-1v1h-1v1h9v-3z"/><path d="M19,36h-1v1h1v1h2v1h4v-3H19z" fill="#b8a394"/><path d="M24,28v1h-1v1h-1v1h-1v1h-1v1h-1v1h-1v1h-1v1h8v-8H24z" fill="#d1b9aa"/><path d="M24 11v-1h-1V9h-2V8h-1V7h-1V6h-1V5h-1V4h-1V3h-1V2h-1V1h-2v1h1v1h1v1h1v1h1v1h1v1h1v1h1v1h1v2h-2v1h-2v1h-2v1h-2v1h-1V6H9v2H5v2H3v2H1v5h24v-6h-1z" fill="#e06b1a"/></svg>