<svg xmlns="http://www.w3.org/2000/svg" viewBox="0 0 8 11"  xmlns:v="https://vecta.io/nano"><path d="M3,1h1v1H3V1z" fill="#757575"/><path d="M5,6V5H4V3H3v2H1v1h2v1H1v1h2v1h1V8h1V7H4V6H5z" fill="#558b2f"/><path d="M3 3H2v2h1V3zm0 4V6H1v1h2zm0 1H2v2h2V9H3V8zm1-2h1v1H4V6z" fill="#689f38"/><g fill="#33691e"><path d="M4 3V2H2v1h2zm-2 7v1h2v-1H2z"/><path d="M4 5h1V3H4v2zM2 3H1v2h1V3zm2 7h1V8H4v2zM2 8H1v2h1V8z"/><path d="M1 5H0v3h1V5zm4 0v3h1V5H5z"/></g><path d="M7,3V2H6V1H5V0H1v1h1v1h1V1h1v1h1v1h1v1h1v3h1V3H7z"/></svg>