<svg xmlns="http://www.w3.org/2000/svg" width="26" height="23" xmlns:v="https://vecta.io/nano"><path d="M25 20v-1h-2v1h-1v-1h-1V5h-1V3h-1V2h-1V1h-2V0H9v1H7v1H6v1H5v2H4v4H3v1H2v4h1v1H2v1H1v1H0v5h1v1h1v-1h1v-2h1v2h1v1h5v-1h1v1h5v-1h1v1h9v-3h-1z" fill="#660076"/><path d="M7 17h1v1H7z" fill="#fff"/><path d="M1,17v5h1v-4h4v-1H1Z" fill="#ff19ff"/><path d="M12,16v-1H3v1h8v2H3v1h9v-1h1v-2h-1Z" fill="#ff00c8"/><path d="M6 10H3v1h3v-1zm-3 2v2h2v-2H3zm7-1v-1H7v1h2v1h1v1H9v-1H6v2h5v-3h-1z" fill="#fff"/><path d="M23 20v1h-1v-1h-1v-1h-1v-4h-7v1h1v2h-1v1h-1v1H5v2h5v-1h1v1h5v-2h-2v1h-1v-1h1v-1h2v1h1v-1h2v1h1v1h-1v-1h-2v2h8v-2h-2z" fill="#9b00e6"/><path d="M19 5V3h-1V2h-2V1H9v1H7v1H6v2H5v4h1v1h1V9h1V8H7V6h1V5h1V4h2v1h1V4h2v1h1v1h1v2h-1v1h-1v1h-1v1h-1v3h8V5h-1z" fill="#0096ff"/><g fill="#fff"><path d="M14 3v1h2V3h-2zm-2 0h1v1h-1z"/><path d="M16 4h1v1h-1z"/></g><path d="M14 6V5h-2v1h-1V5H9v1H8v2h1v1h1v1h1v1h1v-1h1V9h1V8h1V6h-1z" fill="#ff96ff"/><g fill="#0ff"><path d="M9 1v1h7V1H9z"/><path d="M7 2v1h2V2H7zm9 0v1h2V2h-2z"/><path d="M19 3h-1v2h1V3zM6 4v1h1V3H6v1z"/><path d="M5 6v3h1V5H5v1zm14-1v9h1V5h-1z"/></g><path d="M12 6v1h-1V6H9v2h1v1h1v1h1V9h1V8h1V6h-2z" fill="#ff00c8"/></svg>