<svg xmlns="http://www.w3.org/2000/svg" width="25" height="13" xmlns:v="https://vecta.io/nano"><path d="M10 0v2H9v1h13v4h-2V5H9v3H8v1H7v1H0V0h10z" fill="#9c4dc5"/><g fill="#fff934"><path d="M8 8h1v1H8V8z"/><path d="M9 9h1v1H9V9zm15 0h1v1h-1V9z"/><path d="M12 10v1h-2v-1h2zm12 0v1h-2v-1h2z"/><path d="M15 11v1h-3v-1h3zm7 0v1h-3v-1h3z"/><path d="M19,12v1h-4v-1h4Z"/></g><path d="M21 4v3h-1V5H9V4h12zM9 1v1H8v6H7v1H0V1h9z" fill="#cb68ff"/><path d="M6 2v1h1v4H6v1H0V2h6z" fill="#daf3ff"/><path d="M6 8V7h1V5h1v3H7v1H0V8h6z" fill="#dc98ff"/><g fill="#fff"><path d="M4 4H3V3h1v1zM1 5H0V4h1v1z"/><path d="M5 5H4V4h1v1zM2 6H1V5h1v1z"/><path d="M5 5h1v1H5zM2 6h1v1H2z"/></g></svg>