<svg xmlns="http://www.w3.org/2000/svg" width="25" height="13" xmlns:v="https://vecta.io/nano"><path d="M15 0v2h1v1H3v4h2V5h11v3h1v1h1v1h7V0H15z" fill="#9c4dc5"/><g fill="#fff934"><path d="M16 8h1v1h-1z"/><path d="M15 9h1v1h-1zM0 9h1v1H0z"/><path d="M13 10v1h2v-1h-2zM1 10v1h2v-1H1z"/><path d="M10 11v1h3v-1h-3zm-7 0v1h3v-1H3z"/><path d="M6 12v1h4v-1H6z"/></g><path d="M4 4v3h1V5h11V4H4zm12-3v1h1v6h1v1h7V1h-9z" fill="#cb68ff"/><path d="M19,2v1h-1v4h1v1h6V2h-6Z" fill="#daf3ff"/><path d="M19 8V7h-1V5h-1v3h1v1h7V8h-6z" fill="#dc98ff"/><g fill="#fff"><path d="M22 3h1v1h-1zm-3 1h1v1h-1z"/><path d="M23 4h1v1h-1zm-3 1h1v1h-1z"/><path d="M24 5h1v1h-1zm-3 1h1v1h-1z"/></g></svg>