<svg xmlns="http://www.w3.org/2000/svg" width="34" height="11" xmlns:v="https://vecta.io/nano"><path d="M30 3V2h1V0H20v1h-1v1h-1v1h-2V2h-1V1h-1V0H3v2h1v1H0v2h4v3h1v1h1v1h8V9h1V8h1V6h2v2h1v1h1v1h8V9h1V8h1V5h4V3h-4z" fill="#9c4dc5"/><path d="M30 4v1h4V4h-4zM0 4v1h4V4H0zm20-3v1h-1v2h-4V2h-1V1H4v1h1v6h1v1h8V8h1V5h4v3h1v1h8V8h1V2h1V1H20z" fill="#cb68ff"/><g fill="#fff934"><path d="M29 8h1v1h-1V8z"/><path d="M30 9h1v1h-1V9z"/><path d="M31,10v1h2v-1h-2Z"/><path d="M33 9h1v1h-1V9zM4 8h1v1H4V8z"/><path d="M3 9h1v1H3V9z"/><path d="M1,10v1h2v-1H1Z"/><path d="M0 9h1v1H0V9z"/></g><path d="M20 3v4h1v1h6V7h1V3h-1V2h-6v1h-1zm-7-1H7v1H6v4h1v1h6V7h1V3h-1V2z" fill="#daf3ff"/><path d="M28 5v2h-1v1h-6V7h-1V5h-1v3h1v1h8V8h1V5h-1zM14 7h-1v1H7V7H6V5H5v3h1v1h8V8h1V5h-1v2z" fill="#dc98ff"/><g fill="#fff"><path d="M25 4h-1V3h1v1zm-3 1h-1V4h1v1z"/><path d="M26 5h-1V4h1v1zm-3 1h-1V5h1v1z"/><path d="M27 6h-1V5h1v1zm-3 1h-1V6h1v1zM10 3h1v1h-1V3zM7 4h1v1H7V4z"/><path d="M11 4h1v1h-1V4zM8 5h1v1H8V5z"/><path d="M12 5h1v1h-1V5zM9 6h1v1H9V6z"/></g></svg>