<svg xmlns="http://www.w3.org/2000/svg" width="19" height="19" xmlns:v="https://vecta.io/nano"><path d="M18 9V7h-1V5h-1V3h-1V2h-1V1h-1V0H6v1H5v1H4v1H3v2H2v2H1v2H0v4h1v2h1v2h1v1h1v1h11v-1h1v-1h1v-2h1v-2h1V9h-1z" fill="#323232"/><path d="M17 9V7h-1V5h-1V3h-1V2h-1V1H6v1H5v1H4v2H3v2H2v2H1v4h1v2h1v2h1v1h11v-1h1v-2h1v-2h1V9h-1z" fill="#7d7d7d"/><path d="M16 9V7h-1V5h-1V3h-1V2h-1V1H6v1H5v1H4v2H3v2H2v2H1v4h1v2h1v2h1v1h10v-1h1v-2h1v-2h1V9h-1z" fill="#b2b2b2"/><g fill="#323232"><path d="M10 13H9v2h1v-2z"/><path d="M6 15v1h3v-1H6zm4 0v1h3v-1h-3zm3-8h1v1h-1z"/><path d="M13 15h1v-2h-1v2zm1-7h1v1h-1zM7 3h1v1H7z"/><path d="M6 4h1v1H6zm0 9H5v2h1v-2z"/></g><g fill="#cdcdcd"><path d="M6 1h1v1H6z"/><path d="M5 2h1v1H5z"/><path d="M4 5h1V3H4v2z"/><path d="M3 7h1V5H3v2z"/><path d="M2 9h1V7H2v2z"/><path d="M1 13h1V9H1v4z"/><path d="M2 15h1v-2H2v2z"/><path d="M3 17h1v-2H3v2z"/><path d="M4 17h1v1H4z"/></g></svg>