<svg xmlns="http://www.w3.org/2000/svg" width="34" height="11" xmlns:v="https://vecta.io/nano"><path d="M30 5V4h-1V2h-1V1h-2V0h-4v1h-2v1h-1v2h-4V2h-1V1h-2V0H8v1H6v1H5v2H4v1H2v1h2v1h1v2h1v1h2v1h4v-1h2V9h1V7h1V5h2v2h1v2h1v1h2v1h4v-1h2V9h1V7h1V6h2V5h-2z"/><path d="M0 4v1h2V4H0zm32 0v1h2V4h-2z"/><path d="M14 2h-2V1H8v1H6v2H5v3h1v2h2v1h4V9h2V7h1V4h-1V2zm14 2V2h-2V1h-4v1h-2v2h-1v3h1v2h2v1h4V9h2V7h1V4h-1z" fill="#0023cd"/><path d="M5 5v1h6V5H5zm14 0v1h6V5h-6z" fill="#fff"/><path d="M14 2h-2V1H8v1H6v2H5v1h10V4h-1V2zm14 0h-2V1h-4v1h-2v2h-1v1h10V4h-1V2z" fill="#05f"/></svg>