<svg xmlns="http://www.w3.org/2000/svg" width="34" height="9" xmlns:v="https://vecta.io/nano"><path d="M29 3V1h-1V0h-8v1h-1v2h-1V2h-2v1h-1V1h-1V0H6v1H5v2H0v2h5v4h2V8h2v1h2V8h2v1h2V5h1V4h2v1h1v4h2V8h2v1h2V8h2v1h2V5h5V3h-5z"/><path d="M27 2V1h-6v1h-1v6h1V7h2v1h2V7h2v1h1V2h-1zM13 1H7v1H6v6h1V7h2v1h2V7h2v1h1V2h-1V1z" fill="#ff0"/><path d="M27 6V5h-6v1h-1v2h1V7h2v1h2V7h2v1h1V6h-1zM13 5H7v1H6v2h1V7h2v1h2V7h2v1h1V6h-1V5z" fill="red"/><path d="M27 2V1h-6v1h-1v2h1V3h6v1h1V2h-1zM13 1H7v1H6v2h1V3h6v1h1V2h-1V1z" fill="#007d00"/></svg>