<svg xmlns="http://www.w3.org/2000/svg" viewBox="0 0 49 28"  xmlns:v="https://vecta.io/nano"><path d="M47 6V4h-2V2h-4V0h-7v21H0v5h34v2h1v-2h2v-2h2v-4h2v-6h2v-2h6V6z" fill="#6c3818"/><path d="M1 22h5v1H1zm27 0h5v1h-5zm-8 0h7v1h-7zM7 22h7v1H7zm-6 2h5v1H1zm6 0h7v1H7zm13 0h7v1h-7zm8 0h5v1h-5z" fill="#f47b20"/><path d="M15 23h4v1h-4z" fill="#b8a394"/><path d="M15 22h4v1h-4zm0 2h4v1h-4z" fill="#d1baab"/><path d="M45 6V4h-4V2h-7v10h2v-2h3V8h6v2h2V6z" fill="#fff"/><path d="M39 8v2h-3v2h-2v14h1v-2h2v-4h2v-6h2v-2h2v-2h2V8z" fill="#f47b20"/><g fill="#c65827"><path d="M43 8h2v2h-2zm-9 16h1v2h-1z"/><path d="M35 20h2v4h-2z"/><path d="M37 14h2v6h-2z"/><path d="M39 12h2v2h-2z"/><path d="M41 10h2v2h-2z"/></g></svg>