<svg xmlns="http://www.w3.org/2000/svg" viewBox="0 0 18 26"><path d="M17 6V4h-1V3h-1V2h-1V1h-2V0H6v1H4v1H3v1H2v1H1v2H0v3h2v1h2v1h1v11h1v3h1v1h4v-1h1v-3h1V11h1v-1h2V9h2V6h-1z" fill="#6c3617"/><path d="M16,6V4h-1V3h-1V2h-2V1H6v1H4v1H3v1H2v2H1v2h1v1h2v1h1v1h1v11h1v3h4v-3h1V11h1v-1h1V9h2V8h1V6H16z" fill="#c65616"/><path d="M16,6V4h-1V3h-1V2h-2V1H6v1H4v1H3v1H2v1v1H1v2h1V7h1V6h1V5h3v1h1v1h2V6h1V5h3v1h1v1h1v1h1V6H16z" fill="#f7f7f7"/><path d="M15,7V6h-1V5h-3v1h-1v1H8V6H7V5H5.4H5H4v1H3v1H2v1h3v1h1v1h1v12h1v1h2v-1h1V10h1V9h1V8h3V7H15z" fill="#f57a1a"/></svg>