<svg xmlns="http://www.w3.org/2000/svg" viewBox="0 0 15 28"  xmlns:v="https://vecta.io/nano"><path d="M5,8v2H2v2H0v12h1v-4h2v-6h2v-2h2v-2h2V8H5z" fill="#f57a1a"/><g fill="#c65616"><path d="M9 8h2v2H9V8zM0 24h1v2H0v-2z"/><path d="M1,20h2v4H1V20z"/><path d="M3,14h2v6H3V14z"/><path d="M5,12h2v2H5V12z"/><path d="M7,10h2v2H7V10z"/></g><path d="M11,6V4H7V2H0v10h2v-2h3V8h6v2h2V6H11z" fill="#f7f7f7"/><g fill="#6c3617"><path d="M0,26h1v2H0V26z"/><path d="M1,24h2v2H1V24z"/><path d="M3,20h2v4H3V20z"/><path d="M5,14h2v6H5V14z"/><path d="M7,12h2v2H7V12z"/><path d="M13,6v4H9v2h6V6H13z"/><path d="M11,4h2v2h-2V4z"/><path d="M7,2h4v2H7V2z"/><path d="M0,0h7v2H0V0z"/></g></svg>