<svg xmlns="http://www.w3.org/2000/svg" viewBox="0 0 19 27"><path d="M18,19V9h-1V6h-1V4h-1V2h-1V1h-2V0H6v1H4v1H3v1H2v1H1v2H0v6h7v1h1v1h1v7h1v2h1v1h1v1h1v1h2v1h4v-8H18z" fill="#6c3617"/><path d="M18,20v-1h-1v-1V9h-1V6h-1V4h-1V2h-2V1H6v1H4v1H3v1H2v2H1v5h6v1h1v1h1v1h1v7h1v2h1v1h1v1h2v1h4v-6H18z" fill="#c65616"/><path d="M18,20v-1h-1v-1h-1v-5h-1v-2h-1v-1h-1V9h-2V8H9V7H6v1H4v1H3v1h5v1h1v1h1v1h1v2h1v4h1v3h1v1h1v1h1v1h3v-5H18z" fill="#f57a1a"/><path d="M16,9V6h-1V4h-1V2h-2V1H6v1H4v1H3v1H2v2H1v5h1v-1h1V9h1V8h2V7h3v1h2v1h2v1h1v1h1v2h1v5h1V9H16z" fill="#f7f7f7"/></svg>