<svg xmlns="http://www.w3.org/2000/svg" viewBox="0 0 19 27"><path d="M0,19v8h4v-1h2v-1h1v-1h1v-1h1v-2h1v-7h1v-1h1v-1h7V6h-1V4h-1V3h-1V2h-1V1h-2V0H7v1H5v1H4v2H3v2H2v3H1v10H0z" fill="#6c3617"/><path d="M0,20v6h4v-1h2v-1h1v-1h1v-2h1v-7h1v-1h1v-1h1v-1h6V6h-1V4h-1V3h-1V2h-2V1H7v1H5v2H4v2H3v3H2v9v1H1v1H0z" fill="#c65616"/><path d="M0,20v5h3v-1h1v-1h1v-1h1v-3h1v-4h1v-2h1v-1h1v-1h1v-1h5V9h-1V8h-2V7h-3v1H8v1H6v1H5v1H4v2H3v5H2v1H1v1H0z" fill="#f57a1a"/><path d="M2,9v9h1v-5h1v-2h1v-1h1V9h2V8h2V7h3v1h2v1h1v1h1v1h1V6h-1V4h-1V3h-1V2h-2V1H7v1H5v2H4v2H3v3H2z" fill="#f7f7f7"/></svg>