<svg xmlns="http://www.w3.org/2000/svg" width="14" height="19" xmlns:v="https://vecta.io/nano"><path d="M13 7V5h-1V3h-1V2h-1V1H9V0H5v1H4v1H3v1H2v2H1v2H0v8h1v2h1v1h1v1h8v-1h1v-1h1v-2h1V7h-1z" fill="#150f06"/><path d="M12 7V5h-1V3h-1V2H9V1H5v1H4v1H3v2H2v2H1v8h1v2h1v1h8v-1h1v-2h1V7h-1z" fill="#784637"/><path d="M11 7V5h-1V3H9V2H8V1H5v1H4v1H3v2H2v2H1v8h1v2h1v1h7v-1h1v-2h1V7h-1z" fill="#a36450"/><g fill="#150f06"><path d="M7 3h1v1H7z"/><path d="M8 4h1v1H8zm0 11h1v1H8z"/><path d="M9 13v2h1v-2H9z"/></g><path d="M1 7v2h1V8h1V7H1z" fill="red"/><g fill="#c87d5f"><path d="M5 1h1v1H5z"/><path d="M4 2h1v1H4z"/><path d="M3 5h1V3H3v2z"/><path d="M2 7h1V5H2v2zm0 2H1v6h1V9z"/><path d="M3 15H2v2h1v-2z"/><path d="M3 17h1v1H3z"/></g><path d="M1 7h1v1H1z" fill="#ffffae"/></svg>