<svg xmlns="http://www.w3.org/2000/svg" width="26" height="13" xmlns:v="https://vecta.io/nano"><path d="M25 10V8h-2V7h-1V5h-2v1h-1V4h-2V3h-1V1h-2V0h-2v2h-1v1H9v1H7v2H6V5H4v2H3v1H1v2H0v2h2v1h2v-2h1v-1h2V8h3V7h2V4h1v1h1v2h2v1h3v2h2v1h1v2h2v-1h2v-2h-1z" fill="#8200ff"/><path d="M13 2h1v1h-1z" fill="#ff0"/><path d="M14,1V0h-2v2h2v1h2V1h-2Z" fill="#b464ff"/><path d="M25 10V8h-2v1h-2v2h1v2h2v-1h2v-2h-1z" fill="#0f0"/><path d="M24,10v1h-2v2h2v-1h2v-2h-2Z" fill="#00b900"/><path d="M23 10h1v1h-1z" fill="#ff0"/><path d="M1 10V8h2v1h2v2H4v2H2v-1H0v-2h1z" fill="#0f0"/><path d="M2,10v1h2v2H2v-1H0v-2H2Z" fill="#00b900"/><path d="M2 10h1v1H2z" fill="#ff0"/><path d="M22 7V5h-2v1h-2v2h1v2h2V9h2V7h-1z" fill="#ff7dff"/><path d="M21 7v1h-2v2h2V9h2V7h-2z" fill="#f0f"/><path d="M20 7h1v1h-1z" fill="#ff0"/><path d="M4 7V5h2v1h2v2H7v2H5V9H3V7h1z" fill="#ff7dff"/><path d="M5 7v1h2v2H5V9H3V7h2z" fill="#f0f"/><path d="M5 7h1v1H5z" fill="#ff0"/><path d="M17 4V3h-2v2h-1v2h2v1h2V6h1V4h-2z" fill="#0ff"/><path d="M16 5h1v1h-1z" fill="#ff0"/><path d="M16 6V5h-2v2h2v1h2V6h-2z" fill="#00afff"/><path d="M9 4V3h2v1h1v3h-2v1H8V6H7V4h2z" fill="#0ff"/><path d="M9 5h1v1H9z" fill="#ff0"/><path d="M10 6V5h2v2h-2v1H8V6h2z" fill="#00afff"/></svg>