<svg xmlns="http://www.w3.org/2000/svg" width="26" height="13" xmlns:v="https://vecta.io/nano"><path d="M1 10V8h2V7h1V5h2v1h1V4h2V3h1V1h2V0h2v2h1v1h2v1h2v2h1V5h2v2h1v1h2v2h1v2h-2v1h-2v-2h-1v-1h-2V8h-3V7h-2V4h-1v1h-1v2h-2v1H7v2H5v1H4v2H2v-1H0v-2h1z" fill="#8200ff"/><path d="M12 2h1v1h-1z" fill="#ff0"/><path d="M12 1V0h2v2h-2v1h-2V1h2z" fill="#b464ff"/><path d="M1 10V8h2v1h2v2H4v2H2v-1H0v-2h1z" fill="#0f0"/><path d="M2,10v1h2v2H2v-1H0v-2h2Z" fill="#00b900"/><path d="M2 10h1v1H2z" fill="#ff0"/><path d="M25 10V8h-2v1h-2v2h1v2h2v-1h2v-2h-1z" fill="#0f0"/><path d="M24 10v1h-2v2h2v-1h2v-2h-2z" fill="#00b900"/><path d="M23 10h1v1h-1z" fill="#ff0"/><path d="M4 7V5h2v1h2v2H7v2H5V9H3V7h1z" fill="#ff7dff"/><path d="M5 7v1h2v2H5V9H3V7h2z" fill="#f0f"/><path d="M5 7h1v1H5z" fill="#ff0"/><path d="M22 7V5h-2v1h-2v2h1v2h2V9h2V7h-1z" fill="#ff7dff"/><path d="M21 7v1h-2v2h2V9h2V7h-2z" fill="#f0f"/><path d="M20 7h1v1h-1z" fill="#ff0"/><path d="M9 4V3h2v2h1v2h-2v1H8V6H7V4h2z" fill="#0ff"/><path d="M9 5h1v1H9z" fill="#ff0"/><path d="M10 6V5h2v2h-2v1H8V6h2z" fill="#00afff"/><path d="M17 4V3h-2v1h-1v3h2v1h2V6h1V4h-2z" fill="#0ff"/><path d="M16 5h1v1h-1z" fill="#ff0"/><path d="M16 6V5h-2v2h2v1h2V6h-2z" fill="#00afff"/></svg>