<svg xmlns="http://www.w3.org/2000/svg" width="34" height="13" xmlns:v="https://vecta.io/nano"><g fill="#a0ebff"><path d="M6 4v1h2V4H6z"/><path d="M4 3v1h2V3H4z"/><path d="M2 2v1h2V2H2zm26 3V4h-2v1h2z"/><path d="M30 4V3h-2v1h2zM4 9v1h2V9H4z"/><path d="M2 8v1h2V8H2zm4 2v1h2v-1H6zm24 0V9h-2v1h2z"/><path d="M28 11v-1h-2v1h2zM1 1h1v1H1z"/><path d="M0 0h1v1H0zm32 1h1v1h-1z"/><path d="M33 0h1v1h-1zM1 7h1v1H1z"/><path d="M0 6h1v1H0zm32 1h1v1h-1z"/><path d="M33 6h1v1h-1zm-1-3V2h-2v1h2zm0 6V8h-2v1h2zm-8-3h2V5h-3V4H11v1H8v1h2v5H8v1h3v1h12v-1h3v-1h-2V6z"/></g><path d="M11 5v1h12V5H11zm0 2v1h12V7H11zm0 2v1h12V9H11zm0 2v1h12v-1H11z" fill="#cff"/></svg>