<svg xmlns="http://www.w3.org/2000/svg" width="23" height="15" xmlns:v="https://vecta.io/nano"><path d="M12 6h1V5h2V4h4v1h2v1h1v1h1v3h-1v1h-3v1h1v1h-1v2h-4v-2h-1v-1h1v-1h-3v-1h-1V7h1V6z"/><path d="M1 3V2h1V1h2V0h4v1h2v1h1v1h1v3h-1v1H8v3h1v1H8v4H4v-4H3v-1h1V7H1V6H0V3h1z"/><path d="M13 7V6h2V5h4v1h2v1h1v3H12V7h1z" fill="#7d00ff"/><path d="M2 3V2h2V1h4v1h2v1h1v3H1V3h1z" fill="#f0f"/><path d="M18 6h1v1h-1zm-3 1h1v1h-1zm-2-1h1v1h-1zm0 2h1v1h-1zm6 0h1v1h-1zm2-1h1v1h-1zm-4 2h1v1h-1zM7 2h1v1H7zM4 3h1v1H4zM2 2h1v1H2zm0 2h1v1H2zm6 0h1v1H8zm2-1h1v1h-1zM6 5h1v1H6z" fill="#fff"/><path d="M18 11v4h-2v-4h2zM7 7v8H5V7h2z" fill="#0f0"/><path d="M19,12v1h-4v-1h4Z" fill="#fff"/><path d="M18,13v1h-2v-1h2Z" fill="#ff0"/><path d="M18 14v1h-2v-1h2zM7 9v1H5V9h2z" fill="#f0f"/><path d="M8,10v1H4v-1h4Z" fill="#fff"/><path d="M7 8v1H5V8h2zm0 5v1H5v-1h2z" fill="#ff0"/><path d="M7 14v1H5v-1h2z" fill="#ffae00"/><path d="M7 11v1H5v-1h2z" fill="#7d00ff"/><path d="M7 12v1H5v-1h2z" fill="#0fc"/></svg>