<svg xmlns="http://www.w3.org/2000/svg" width="26" height="6" xmlns:v="https://vecta.io/nano"><path d="M25 2V1h-1V0h-4v1h1v1h1v1h4V2h-1z" fill="#fff"/><g fill="#ff5fc8"><path d="M25 2h1v1h-1z"/><path d="M24 1h1v1h-1z"/><path d="M23 0h1v1h-1zm-1 2h1v1h-1z"/><path d="M21 1h1v1h-1z"/><path d="M20 0h1v1h-1z"/></g><path d="M5 2V1H4V0H0v1h1v1h1v1h4V2H5z" fill="#fff"/><g fill="#ff5fc8"><path d="M5 2h1v1H5z"/><path d="M4 1h1v1H4z"/><path d="M3 0h1v1H3zM2 2h1v1H2z"/><path d="M1 1h1v1H1z"/><path d="M0 0h1v1H0z"/></g><path d="M18 1V0H8v1H7v3h1v1h2v1h6V5h2V4h1V1h-1z"/><path d="M15 4V3h-1V2h-3v1h-1v2h6V4h-1z" fill="#ff5fc8"/></svg>