<svg xmlns="http://www.w3.org/2000/svg" width="27" height="23" xmlns:v="https://vecta.io/nano"><path d="M26 20v-1h-2v1h-1v-1h1v-1h1v-2h-1v-1h-1v-1h1v-3h1v-1h-2V5h-1V4h-1V3h-1V2h-1V1h-2V0h-7v1H8v1H7v1H6v1H5v1H4v5H2v1h1v3h1v1H3v1H2v2h1v1h1v1H3v-1H1v1H0v3h6v-1h1v1h4v-1h1v1h3v-1h1v1h4v-1h1v1h6v-3h-1z" fill="#660076"/><path d="M16 10h-5v1h-1v3h7v-3h-1v-1zm0 2v1h-1v-1h-3v1h-1v-1h1v-1h3v1h1zm5-1h2v-1h-4v1h-1v3h5v-2h-3v1h-1v-1h1v-1h1zM8 10H4v1h3v1h1v1H7v-1H4v2h5v-3H8v-1z" fill="#fff"/><path d="M21 5V4h-1V3h-1V2h-2V1h-7v1H8v1H7v1H6v1H5v4h3v1h1v1h1v-1h1V9h-1V8H9V6h1V5h1V4h2v1h1V4h2v1h1v1h1v2h-1v1h-1v1h1v1h1v-1h1V9h3V5h-1z" fill="#0096ff"/><path d="M18 17h1v1h-1zM8 17h1v1H8z" fill="#fff"/><path d="M14,17v3h-1v-3h-2v4h1v1h3v-1h1v-4h-2Z" fill="#ff19ff"/><path d="M23 16v-1H4v1H3v2h1v1h6v-1H5v-2h17v2h-5v1h6v-1h1v-2h-1z" fill="#ff00c8"/><path d="M10 20H4v1H3v-1H1v2h5v-1h1v1h4v-1h-1v-1zm14 0v1h-1v-1h-6v1h-1v1h4v-1h1v1h5v-2h-2z" fill="#9b00e6"/><g fill="#fff"><path d="M10 3v1h2V3h-2z"/><path d="M9 4h1v1H9zm4-1h1v1h-1z"/></g><g fill="#0ff"><path d="M21 5v4h1V5h-1zM5 6v3h1V5H5v1z"/><path d="M6 4h1v1H6z"/><path d="M7 3h1v1H7zm12 0h1v1h-1z"/><path d="M20 4h1v1h-1zM8 2v1h2V2H8z"/><path d="M16,1h-6v1h7V1h-1Z"/><path d="M17 2v1h2V2h-2z"/></g><path d="M16 6V5h-2v1h-1V5h-2v1h-1v2h1v1h5V8h1V6h-1z" fill="#ff96ff"/><path d="M14 6v1h-1V6h-2v2h1v1h3V8h1V6h-2z" fill="#ff00c8"/></svg>