<svg xmlns="http://www.w3.org/2000/svg" width="27" height="23" xmlns:v="https://vecta.io/nano"><path d="M26 20v-1h-2v1h-1v-1h1v-1h1v-2h-1v-1h-1v-1h1v-3h1v-1h-2V5h-1V4h-1V3h-1V2h-1V1h-2V0h-7v1H8v1H7v1H6v1H5v1H4v5H2v1h1v3h1v1H3v1H2v2h1v1h1v1H3v-1H1v1H0v3h6v-1h1v1h6v-1h1v1h6v-1h1v1h6v-3h-1z" fill="#660076"/><path d="M21 5V4h-1V3h-1V2h-2V1h-7v1H8v1H7v1H6v1H5v9h17V5h-1zm-9 6v-1h-1V9h-1V8H9V6h1V5h1V4h2v1h1V4h2v1h1v1h1v2h-1v1h-1v1h-1v1h-1v1h-1v-1h-1z" fill="#0096ff"/><path d="M3 18h1v-2H3v2zm20-2v2h1v-2h-1z" fill="#ff00c8"/><path d="M24 20v1h-1v-1h-1v-5H5v5H4v1H3v-1H1v2h5v-2h1v-1h2v1h1v1H9v-1H7v2h6v-3h1v3h6v-2h-2v1h-1v-1h1v-1h2v1h1v2h5v-2h-2z" fill="#9b00e6"/><path d="M16 6V5h-2v1h-1V5h-2v1h-1v2h1v1h1v1h1v1h1v-1h1V9h1V8h1V6h-1z" fill="#ff96ff"/><g fill="#0ff"><path d="M21 5v8H6V5H5v9h17V5h-1z"/><path d="M6 4h1v1H6z"/><path d="M7 3h1v1H7zm12 0h1v1h-1z"/><path d="M20 4h1v1h-1zM10 3V2H8v1h2z"/><path d="M17 2V1h-7v1h7z"/><path d="M18 3h1V2h-2v1h1z"/></g><g fill="#fff"><path d="M10 3v1h2V3h-2z"/><path d="M9 4h1v1H9zm4-1h1v1h-1z"/></g><path d="M14 6v1h-1V6h-2v2h1v1h1v1h1V9h1V8h1V6h-2z" fill="#ff00c8"/></svg>