<svg xmlns="http://www.w3.org/2000/svg" viewBox="0 0 54 27"><path d="M6 18v-2H4v-4H2V2H0V0h10v2h2v2h2V2h6V0h14v2h6v2h2V2h2V0h10v2h-2v10h-2v4h-2v2z"/><path d="M4 2v2h4v2H4v2h4v2H4v2h4v2H6v2h4V2H4zm40 0v14h4v-2h-2v-2h4v-2h-4V8h4V6h-4V4h4V2h-6zm-8 2h2v6h-2V4zM16 4h2v6h-2V4zm14 2V5h-1V4h-1V3h-2v1h-1v1h-1v1h-1v4h1v1h1v1h1v1h2v-1h1v-1h1v-1h1V6z" fill="#fff"/><path d="M26,4v1h-1v1h-1v2h3V4H26z" fill="#46cdff"/><path d="M27,8v4h1v-1h1v-1h1V8H27z" fill="#0093ff"/><g fill="#00afff"><path d="M24,8v2h1v1h1v1h1V8H24z"/><path d="M29,6V5h-1V4h-1v4h3V6H29z"/></g><path d="M42 13v-2h-6v1h-3v1h-2v1h-1v1h-1v1h-1v1h-2v-1h-1v-1h-1v-1h-1v-1h-2v-1h-3v-1h-6v2h-2v9h2v2h3v1h3v1h4v-1h1v-1h1v1h1v1h1v1h2v-1h1v-1h1v-1h1v1h1v1h4v-1h3v-1h3v-2h2v-9h-2z" fill="#ffcb00"/><path d="M26,17v-1h-1v-1h-1v-1h-1v-1h-2v-1h-3v-1h-6v2h-2v9h2v2h3v1h3v1h4v-1h1v-1h1v1h1v1h1v1h1V17H26z" fill="#ffb300"/><path d="M24 18h-2v-1h-2v-1h-6v4h1v2h1v1h2v1h4v-1h2v-1h1v-3h-1zm10-2v1h-2v1h-2v1h-1v3h1v1h2v1h4v-1h2v-1h1v-1h1v-5z"/><g fill="#fff"><path d="M16 17h2v1h-2z"/><path d="M23 20h-1v1h-4v-1h-1v-1h-1v-1h-1v2h1v2h2v1h4v-1h2v-3h-1zm13-3h2v1h-2z"/><path d="M38 18v1h-1v1h-1v1h-4v-1h-1v-1h-1v3h2v1h4v-1h2v-2h1v-2z"/></g></svg>