<svg xmlns="http://www.w3.org/2000/svg" viewBox="0 0 24 22"><path d="M0 6v16h3v-2h3v2h4v-2h4v2h4v-2h3v2h3V0H12v1h-1v1h-1v1H8v1H6v1H4v1H0z" fill="#232323"/><path d="M0 8v12h3v-2h5v4h2v-2h4v2h4v-2h3v2h3V1H12v1h-1v1h-1v1H8v1H6v1H4v2H0zm14 10h-1V8h1v10z"/><path d="M0 18v2h3v-2H0zm3-9v1H0v1h3v1H0v1h3v1H0v1h1v2h1v-2h1v2h1v-2h1v2h1v-2h1v2h1v-2h1v2h1v-2h1v2h1v-2h1v-1H4V8H0v1h3zm4 1h1V5H7v5zm2-2h1V4H9v4zm-4 4h1V6H5v6zm6-6h1V2h-1v4zm4-1h1V1h-1v4zm-1 9v1h1v2h1v-2h1v2h1v-2h1v2h1v-2h1v2h1v-2h1v2h1v-3H14zm3-8h1V1h-1v5zm2 1h1V1h-1v6zm2 1h1V1h-1v7zm2 1h1V1h-1v8z" fill="#46cdff"/><path d="M2 17H1v-1h1v1zm-2 2v1h3v-1H0zm8-2H7v-1h1v1zm-4 0H3v-1h1v1zm2 0H5v-1h1v1zm4 0H9v-1h1v1zm2 0h-1v-1h1v1zm4 0h-1v-1h1v1zm2 0h-1v-1h1v1zm2 0h-1v-1h1v1zm2 0h-1v-1h1v1zm2 0h-1v-1h1v1z" fill="#7d7d7d"/></svg>