<svg xmlns="http://www.w3.org/2000/svg" viewBox="0 0 24 22"><path d="M20 6V5h-2V4h-2V3h-2V2h-1V1h-1V0H0v22h3v-2h3v2h4v-2h4v2h4v-2h3v2h3V6h-4z" fill="#232323"/><path d="M20 8V6h-2V5h-2V4h-2V3h-1V2h-1V1H0v21h3v-2h3v2h4v-2h4v2h2v-4h5v2h3V8h-4zM10 8h1v10h-1V8z"/><path d="M21 18v2h3v-2h-3zm3-9V8h-4v6h-9v1h1v2h1v-2h1v2h1v-2h1v2h1v-2h1v2h1v-2h1v2h1v-2h1v2h1v-2h1v-1h-3v-1h3v-1h-3v-1h3v-1h-3V9h3zm-7-4h-1v5h1V5zm-2-1h-1v4h1V4zm4 2h-1v6h1V6zm-6-4h-1v4h1V2zM9 1H8v4h1V1zM0 14v3h1v-2h1v2h1v-2h1v2h1v-2h1v2h1v-2h1v2h1v-2h1v-1H0zM7 1H6v5h1V1zM5 1H4v6h1V1zM3 1H2v7h1V1zM1 1H0v8h1V1z" fill="#46cdff"/><path d="M22 16h1v1h-1zm-1 3v1h3v-1h-3zm-5-3h1v1h-1zm4 0h1v1h-1zm-2 0h1v1h-1zm-4 0h1v1h-1zm-2 0h1v1h-1zm-4 0h1v1H8zm-2 0h1v1H6zm-2 0h1v1H4zm-2 0h1v1H2zm-2 0h1v1H0z" fill="#7d7d7d"/></svg>