<svg xmlns="http://www.w3.org/2000/svg" viewBox="0 0 40 23"><path d="M36 2v1h-1v1h-2v1h-2v1h-2v1h-4v1H15V7h-4V6H9V5H7V4H5V3H4V2H3v21h4v-2h5v2h5v-2h6v2h5v-2h5v2h4V2z" fill="#232323"/><path d="M36 3v1h-1v1h-2v1h-2v1h-2v2h-4v6H15V9h-4V7H9V6H7V5H5V4H4V3H3v6h1v12h3v-2h26v2h3V9h1V3z"/><g fill="#7d7d7d"><path d="M7 17h1v1H7zm-2 0h1v1H5zm4 0h1v1H9zm2 0h1v1h-1zm1 3h5v1h-5zm11-3h1v1h-1zm0 3h5v1h-5zm-10-3h1v1h-1z"/><path d="M15 17h1v1h-1zm10 0h1v1h-1zm10 0h1v1h-1zm-4 0h1v1h-1zm2 0h1v1h-1zm-6 0h1v1h-1zm2 0h1v1h-1zm-6 0V8h-6v10h1v-1h1v1h1v-1h1v1h1v-1z"/></g><path d="M12 19h5v1h-5v-1zm11 0h5v1h-5v-1zm9-13h1v5h-1V6zM7 6h1v5H7V6zM5 5h1v4H5V5zm29 0h1v4h-1V5zM9 7h1v6H9V7zm21 0h1v6h-1V7zM18 8v9h4V8h-4zm-6 7v-1h3v-1h-3v-1h3v-1h-3v-1h3V9h-4v6H4v1h1v1h1v-1h1v1h1v-1h1v1h1v-1h1v1h1v-1h1v1h1v-1h1v1h1v-1h1v-1h-5zm17 0V9h-4v1h3v1h-3v1h3v1h-3v1h3v1h-5v2h1v-1h1v1h1v-1h1v1h1v-1h1v1h1v-1h1v1h1v-1h1v1h1v-1h1v1h1v-2h-7z" fill="#46cdff"/><path d="M19 15h2v1h-2zm0-2h2v1h-2zm0-2h2v1h-2zm0-2h2v1h-2z"/></svg>