<svg xmlns="http://www.w3.org/2000/svg" viewBox="0 0 24 22"><path d="M4 6V5h2V4h2V3h2V2h1V1h1V0h12v22h-3v-2h-3v2h-4v-2h-4v2H6v-2H3v2H0V6h4z" fill="#232323"/><path d="M0 8v12h3v-2h5v4h2v-2h4v2h4v-2h3v2h3V1H12v1h-1v1h-1v1H8v1H6v1H4v2H0zm14 10h-1V8h1v10z"/><path d="M3 18v2H0v-2h3zM0 9V8h4v6h9v1h-1v2h-1v-2h-1v2H9v-2H8v2H7v-2H6v2H5v-2H4v2H3v-2H2v2H1v-2H0v-1h3v-1H0v-1h3v-1H0v-1h3V9H0zm7-4h1v5H7V5zm2-1h1v4H9V4zM5 6h1v6H5V6zm6-4h1v4h-1V2zm4-1h1v4h-1V1zm9 13v3h-1v-2h-1v2h-1v-2h-1v2h-1v-2h-1v2h-1v-2h-1v2h-1v-2h-1v-1h10zM17 1h1v5h-1V1zm2 0h1v6h-1V1zm2 0h1v7h-1V1zm2 0h1v8h-1V1z" fill="#46cdff"/><path d="M1 16h1v1H1zm2 3v1H0v-1h3zm4-3h1v1H7zm-4 0h1v1H3zm2 0h1v1H5zm4 0h1v1H9zm2 0h1v1h-1zm4 0h1v1h-1zm2 0h1v1h-1zm2 0h1v1h-1zm2 0h1v1h-1zm2 0h1v1h-1z" fill="#7d7d7d"/></svg>