<svg xmlns="http://www.w3.org/2000/svg" viewBox="0 0 40 23"  xmlns:v="https://vecta.io/nano"><g fill="#7d7d7d"><path d="M13 17h1v1h-1v-1zm2 0h1v1h-1v-1zm12 0h1v1h-1v-1zm-4 0h1v1h-1v-1zm2 0h1v1h-1v-1zm10 0h1v1h-1v-1zm-23 3h5v1h-5v-1zm19-3h1v1h-1v-1zm2 0h1v1h-1v-1zm-10 3h5v1h-5v-1zm-2-3h1v1h-1v-1zm8 0h1v1h-1v-1z"/><path d="M17 8h1v10h-1V8zm5 0h1v9h-1V8zM7 17h1v1H7v-1zm4 0h1v1h-1v-1zm-2 0h1v1H9v-1zm-4 0h1v1H5v-1zm14 0h1v1h-1v-1z"/></g><path d="M12 19h5v1h-5v-1zm11 0h5v1h-5v-1zm9-13h1v5h-1V6zM7 6h1v5H7V6zM5 5h1v4H5V5zm29 0h1v4h-1V5zM9 7h1v6H9V7zm21 0h1v6h-1V7zM18 8v9h4V8h-4zm3 8h-2v-1h2v1zm0-2h-2v-1h2v1zm0-2h-2v-1h2v1zm0-2h-2V9h2v1zm-9 5v-1h3v-1h-3v-1h3v-1h-3v-1h3V9h-4v6H4v1h1v1h1v-1h1v1h1v-1h1v1h1v-1h1v1h1v-1h1v1h1v-1h1v1h1v-1h1v-1h-5zm17 0V9h-4v1h3v1h-3v1h3v1h-3v1h3v1h-5v2h1v-1h1v1h1v-1h1v1h1v-1h1v1h1v-1h1v1h1v-1h1v1h1v-1h1v1h1v-2h-7z" fill="#46cdff"/><path d="M36 3v1h-1v5h-1V5h-1v6h-1V6h-1v7h-1V7h-1v8h7V9h1V3h-1zm-24 7h3v1h-3v-1zm0 4h3v1h-3v-1zm7-3h2v1h-2v-1zm6 3h3v1h-3v-1zm0-4h3v1h-3v-1zM4 15h7V7h-1v6H9V6H8v5H7V5H6v4H5V4H4V3H3v6h1v6zm21-3h3v1h-3v-1zm-13 0h3v1h-3v-1zm7 1h2v1h-2v-1zm0-4h2v1h-2V9zm0 6h2v1h-2v-1zm16 1h-1v2h-1v-2h-1v2h-1v-2h-1v2h-1v-2h-1v2h-1v-2h-1v2h-1v-2h-1v2h-1v-1h-1v1h-1v-1h-1v1h-1v-1h-1v1h-1v-2h-1v2h-1v-2h-1v2h-1v-2h-1v2h-1v-2h-1v2H9v-2H8v2H7v-2H6v2H5v-2H4v5h3v-2h26v2h3v-3h-1v-2z"/><g fill="#232323"><path d="M37 2h-1v1h1V2zM7 5h2v1H7V5z"/><path d="M9,6h2v1H9V6z"/><path d="M11 9h4v6h2V8h-2V7h-4v2zm20-4h2v1h-2V5zM4 3h1v1H4V3z"/><path d="M3 3h1V2H3v1zm32 0h1v1h-1V3zm1 18h-3v2h4V9h-1v12zM29 6h2v1h-2V6z"/><path d="M25 7v1h-2v7h2V9h4V7h-4zM5 4h2v1H5V4zm28 0h2v1h-2V4zM7 19h5v2H7v-2zm21 0h5v2h-5v-2zm-11 0h6v2h-6v-2z"/><path d="M4 21V9H3v14h4v-2H4zm8 0h5v2h-5v-2zm11 0h5v2h-5v-2z"/></g></svg>