<svg xmlns="http://www.w3.org/2000/svg" viewBox="0 0 34 22"><path d="M0 0v22h4v-2h5v2h5v-2h6v2h5v-2h5v2h4V0H0z" fill="#232323"/><path d="M0 1v7h1v12h3v-2h5v2h5v-2h6v2h5v-2h5v2h3V8h1V1H0z"/><path d="M9 18v2h5v-2H9zm11 0v2h5v-2h-5zM1 14v1h1v2h1v-2h1v2h1v-2h1v2h1v-2h1v2h1v-2h1v2h1v-2h1v2h1v-2h1v2h1v-2h1v2h1v-2h1v2h1v-2h1v2h1v-2h1v2h1v-2h1v2h1v-2h1v2h1v-2h1v2h1v-2h1v2h1v-2h1v2h1v-3H1zm15-4v1h2v-1h-2zm0 2v1h2v-1h-2zm0-4v1h2V8h-2zm0-2v1h2V6h-2zm0-2v1h2V4h-2zm0-2v1h2V2h-2zM8 13h1V1H8v12zm2 0h1V1h-1v12zm-6-3h1V1H4v9zm2 2h1V1H6v11zM2 8h1V1H2v7zm12 5h1V1h-1v12zm-2 0h1V1h-1v12zm13 0h1V1h-1v12zm-2 0h1V1h-1v12zm6-3h1V1h-1v9zm-2 2h1V1h-1v11zm4-11v7h1V1h-1zM19 13h1V1h-1v12zm2 0h1V1h-1v12z" fill="#46cdff"/><path d="M10 16h1v1h-1zm2 0h1v1h-1zm12 0h1v1h-1zm-4 0h1v1h-1zm2 0h1v1h-1zm10 0h1v1h-1zM9 19v1h5v-1H9zm19-3h1v1h-1zm2 0h1v1h-1zm-10 3v1h5v-1h-5zm-2-3h1v1h-1zm8 0h1v1h-1zM4 16h1v1H4zm10 0h1v1h-1zm-6 0h1v1H8zm-2 0h1v1H6zm-4 0h1v1H2zm14 0h1v1h-1z" fill="#7d7d7d"/></svg>