<svg xmlns="http://www.w3.org/2000/svg" viewBox="0 0 16 22"><path d="M15 8V6h-1V4h-1V3h-1V2h-1V1h-1V0H6v1H5v1H4v1H3v1H2v2H1v2H0v8h1v2h1v1h1v1h1v1h2v1h4v-1h2v-1h1v-1h1v-1h1v-2h1V8h-1z" fill="#003a87"/><path d="M14 8V6h-1V4h-1V3h-1V2h-1V1H6v1H5v1H4v1H3v2H2v2H1v8h1v2h1v1h1v1h2v1h4v-1h2v-1h1v-1h1v-2h1V8h-1z" fill="#0093ff"/><path d="M14 8V6h-1V4h-1V3h-1V2H8v1H6v1H5v2H4v2H3v8h1v2h2v1h2v1h4v-1h1v-1h1v-2h1V8h-1z" fill="#46cdff"/><g fill="#a3e6ff"><path d="M10 2h1v1h-1zm0 17v1h2v-1h-2z"/><path d="M11 3h1v1h-1z"/><path d="M13 4h-1v2h1V4z"/><path d="M14 6h-1v2h1V6z"/><path d="M14 8v8h1V8h-1z"/><path d="M13 17v1h1v-2h-1v1z"/><path d="M12 18h1v1h-1z"/></g></svg>