<svg xmlns="http://www.w3.org/2000/svg" viewBox="0 0 16 22"  xmlns:v="https://vecta.io/nano"><path d="M12,8V6h-1V4h-1V3H8V2H5v1H4v1H3v2H2v2H1v8h1v2h1v1h1v1h4v-1h2v-1h2v-2h1V8H12z" fill="#46cdff"/><g fill="#003a87"><path d="M4 2h1v1H4V2zM2 4h1v2H2V4zM0 8h1v8H0V8zm13-4h1v2h-1V4z"/><path d="M3 3h1v1H3V3zm9 0h1v1h-1V3z"/><path d="M11 2h1v1h-1V2zM6 0h4v1H6V0z"/><path d="M5 1h1v1H5V1zm5 0h1v1h-1V1zM1 6h1v2H1V6zm13 0h1v2h-1V6z"/><path d="M15 8h1v8h-1V8zM4 20h2v1H4v-1zm6 0h2v1h-2v-1zm-8-2h1v1H2v-1z"/><path d="M1 16h1v2H1v-2zm12 2h1v1h-1v-1z"/><path d="M14 16h1v2h-1v-2zm-8 5h4v1H6v-1zm-3-2h1v1H3v-1zm9 0h1v1h-1v-1z"/></g><g fill="#a3e6ff"><path d="M5,2h1v1H5V2z"/><path d="M4,3h1v1H4V3z"/><path d="M3 4h1v2H3V4zM1 8h1v8H1V8z"/><path d="M2,16h1v2H2V16z"/><path d="M3,18h1v1H3V18z"/><path d="M4 19h2v1H4v-1zM2 6h1v2H2V6z"/></g><path d="M14,8V6h-1V4h-1V3h-1V2h-1V1H6v1h2v1h2v1h1v2h1v2h1v8h-1v2h-2v1H8v1H6v1h4v-1h2v-1h1v-1h1v-2h1V8H14z" fill="#0093ff"/><g fill="#fff"><path d="M3.5 10.5h1v-1h-2v5h2v-1h-1v-3z"/><path d="M4.5 10.5h1v3h-1v-3zm4 2h-1v-2h1v-1h-2v5h1v-1h1v1h1v-4h-1v2zm2-3v5h3v-5h-3zm2 4h-1v-3h1v3z"/></g></svg>