<svg xmlns="http://www.w3.org/2000/svg" viewBox="0 0 16 22"><path d="M15 8V6h-1V4h-1V3h-1V2h-1V1h-1V0H6v1H5v1H4v1H3v1H2v2H1v2H0v8h1v2h1v1h1v1h1v1h2v1h4v-1h2v-1h1v-1h1v-1h1v-2h1V8z" fill="#003a87"/><path d="M14 8V6h-1V4h-1V3h-1V2h-1V1H6v1H5v1H4v1H3v2H2v2H1v8h1v2h1v1h1v1h2v1h4v-1h2v-1h1v-1h1v-2h1V8z" fill="#0093ff"/><path d="M12 8V6h-1V4h-1V3H8V2H5v1H4v1H3v2H2v2H1v8h1v2h1v1h1v1h4v-1h2v-1h2v-2h1V8z" fill="#46cdff"/><g fill="#a3e6ff"><path d="M5,2h1v1H5V2z"/><path d="M4,3h1v1H4V3z"/><path d="M3 4h1v2H3V4zM1 8h1v8H1V8z"/><path d="M2,16h1v2H2V16z"/><path d="M3,18h1v1H3V18z"/><path d="M4 19h2v1H4v-1zM2 6h1v2H2V6z"/></g><g fill="#fff"><path d="M3.5 10.5h1v-1h-2v5h2v-1h-1v-3z"/><path d="M4.5 10.5h1v3h-1v-3zm4 2h-1v-2h1v-1h-2v5h1v-1h1v1h1v-4h-1v2zm2-3v5h3v-5h-3zm2 4h-1v-3h1v3z"/></g></svg>