<svg xmlns="http://www.w3.org/2000/svg" viewBox="0 0 42 36"><path d="M41 18v-1h-1v-1h-2v8h2v-1h1v-1h1v-4zM2 17H1v1H0v4h1v1h1v1h2v-8H2z" fill="#e4c596"/><path d="M38 16h2v3h-2v-3zM2 16h2v3H2v-3z" fill="#604838"/><path d="M28 35v-1h2v-1h1v-1h1v-1h1v-1h1v-1h1v-1h1v-1h2V8h-2V6h-2V4h-4V2h-4V0H16v2h-4v2H8v2H6v2H4v19h2v1h1v1h1v1h1v1h1v1h1v1h1v1h2v1h2v1h10v-1h2z" fill="#855d43"/><path d="M32 16v-2h-8v2h-2v8h-2V14H10v2H8v8h2v2h4v1h-1v1h-2v2h1v1h2v1h2v1h2v2h6v-2h2v-1h2v-1h2v-1h1v-2h-2v-1h-1v-1h4v-2h2v-8z" fill="#e4c596"/><path d="M14,29h14v1H14V29z" fill="#d78784"/><path d="M17,30h8v1h-8V30z" fill="#f9b7b2"/><path d="M16 16h-4v2h-2v4h2v2h4v-2h2v-4h-2zm14 2v-2h-4v2h-2v4h2v2h4v-2h2v-4z" fill="#412c18"/><path d="M16 16h2v2h-2v-2zm0 6h2v2h-2v-2zm8-6h2v2h-2v-2zm0 6h2v2h-2v-2z" fill="#fff"/><path d="M12 18h4v4h-4zm14 0h4v4h-4z" fill="#13100e"/><path d="M18 26h6v2h-6z" fill="#604838"/></svg>