<svg xmlns="http://www.w3.org/2000/svg" viewBox="0 0 40 20"><path d="M34,1v1h-1v1h-1v1h-1v1h-1v1h-1v1h-2v1h-2v1h-3v1h-4V9h-3V8h-2V7h-2V6h-1V5H9V4H8V3H7V2H6V1H3v19h34V1H34z" fill="#1e1e1e"/><path d="M34,2v1h-1v1h-1v1h-1v1h-1v1h-1v1h-2v1h-2v1h-3v1h-4v-1h-3V9h-2V8h-2V7h-1V6H9V5H8V4H7V3H6V2H4v17h32V2H34z"/><g fill="#fff"><path d="M8 14H7v-2H6v5h1v-2h1v2h1v-5H8v2zm3-2h1v1h-1v-1z"/><path d="M12 15h-1v-2h-1v4h1v-1h1v1h1v-4h-1v2zm5-3v5h1v-2h1v-1h-1v-1h1v-1h-2zm-2 0h-1v5h2v-1h-1v-4zm6 0v5h1v-4h1v-1h-2zm10 0v1h1v4h1v-4h1v-1h-3zm-7 2h2v1h-2v-1zm5-1h1v1h-1v-1zm-5-1h2v1h-2v-1zm0 4h2v1h-2v-1zm5-1h1v2h-1v-2z"/><path d="M28,12h-1v5h1v-2h1v-1h-1V12z"/></g></svg>