<svg xmlns="http://www.w3.org/2000/svg" viewBox="0 0 17 30"  xmlns:v="https://vecta.io/nano"><path d="M15,1v1h-2v1h-3v1H7V3H4V2H2V1H1v2h1v4h1v16H2v4H1v2h1v-1h2v-1h3v-1h3v1h3v1h2v1h1v-2h-1v-4h-1V7h1V3h1V1H15z" fill="#f696c6"/><path d="M4 2h3v1H4V2zm6 0h3v1h-3V2z"/><path d="M15 0v1h-2v1h2V1h1v2h1V0h-2zm-2 28v-1h-3v1h3v1h2v-1h-2z"/><path d="M2 28h2v1H2v-1zm5-2h3v1H7v-1z"/><path d="M4 27h3v1H4v-1zM2 1h2v1H2V1z"/><path d="M1 1h1V0H0v3h1V1zm15 28h-1v1h2v-3h-1v2zM1 27H0v3h2v-1H1v-2zM15 3h1v4h-1V3z"/><path d="M1 3h1v4H1V3zm14 20h1v4h-1v-4z"/><path d="M1 23h1v4H1v-4zM14 7h1v16h-1V7z"/><path d="M2 7h1v16H2V7zm5-4h3v1H7V3z"/><path d="M10 8h1v1h-1V8zM7 8h1v1H7V8z" fill="#4955ff"/><path d="M10 9h1v2h-1V9zM7 9h1v2H7V9z" fill="#00a9ff"/><path d="M10 11h1v1h-1v-1zm-3 0h1v1H7v-1z" fill="#494fa7"/><path d="M11 11h1v1h-1v-1zm-6 0h1v1H5v-1z" fill="#ffb299"/><path d="M11 9h1v2h-1V9zm-6 1h1v1H5v-1zm4 2V9H8v3H7v1H6v-1H5v2h1v1h1v1H6v1H5v1h3v1h1v-1h2v-1h-1v-1H9v-1h2v-1h1v-2H9zm-2 2v-1h3v1H7z" fill="#ffe8d8"/><path d="M7 6h1V4H6v3h1V6zm0 7v-1H6v1h1v1h3v-1H7zM3 4v2h1v1h1V4H3z" fill="#ff2d33"/><path d="M5 5h1v1H5V5zm4 3h1v4H9V8zM6 8h1v4H6V8z" fill="#fff"/><path d="M13,7V6h-1V5H8v1H7v1H6V6H5v1H3v10h1v-1h1v-1h1v-1H5v-4h1V8h2v1h1V8h2v1h1v7h1v-1h1V7H13z" fill="#64438e"/><path d="M15 27v-4h-1v-5H9v1H8v-1H3v5H2v4H1v2h1v-1h2v-1h3v-1h1v-1H7v-1h1v1h1v-1h1v1H9v1h1v1h3v1h2v1h1v-2h-1zm-7-5H6v-1H5v-1h1v1h2v1zm4-1h-1v1H9v-1H8v-1h1v1h2v-1h1v1z" fill="#dc3291"/><g fill="#cd0073"><path d="M9 24h1v1H9v-1zm-2 0h1v1H7v-1z"/><path d="M8 25h1v1H8v-1zm3-5h1v1h-1v-1zm-3 0h1v1H8v-1zm-3 0h1v1H5v-1z"/><path d="M9 21h2v1H9v-1zm-3 0h2v1H6v-1z"/></g></svg>