<svg xmlns="http://www.w3.org/2000/svg" viewBox="0 0 14 30"><path d="M6 3V2H4V1H2V0H0v3h1v4h1v16H1v4H0v3h2v-1h2v-1h2v-1h2v1h2v1h2v1h2v-3h-1v-4h-1V7h1V3h1V0h-1-1v1h-2v1H8v1H6z"/><path d="M6 26v1H4v1H2v1H1v-2h1v-4h1V7H2V3H1V1h1v1h2v1h2v1h2V3h2V2h2V1h1v2h-1v4h-1v16h1v4h1v2h-1v-1h-2v-1H8v-1H6z" fill="#dc3291"/><path d="M8 3v1H6V3H4V2H2V1H1v2h1v4h1v11h8V7h1V3h1V1h-1v1h-2v1H8z" fill="#f696c6"/><g fill="#cd0073"><path d="M9 20h1v1H9zm-5 0h1v1H4z"/><path d="M5 21v1h4v-1H5zm1 3v1h2v-1H6z"/></g><path d="M10 7V5H7V4H5v1H4V4H3v2h1v1H3v10h1v1h5v-1H8v-1H7v-1h2v-1h1v1h1V7h-1zm-4 9H5v1H4v-2h2v1z" fill="#ffe8d8"/><path d="M10 7h0V5H7v1H6v1H5V6H4v1H3v10h1v-2h1v-1H4v-4h1V8h4v1h1 0v6h1V7h-1z" fill="#64438e"/><path d="M8 8h1v1H8zM6 8h1v1H6z" fill="#4955ff"/><path d="M8 9v2h1V9H8zm-2 2h1V9H6v2z" fill="#00a9ff"/><path d="M8 11h1v1H8zm-2 0h1v1H6z" fill="#494fa7"/><path d="M9 11h1v1H9zm-5 0h1v1H4z" fill="#ffb299"/><path d="M6 13v-1H5v1h1v1h2v-1H6zM3 6h1V4H3v2zm2-2v3h1V6h1V4H5z" fill="#ff2d33"/><path d="M4 5h1v1H4zm3 3v4h1V8H7zm-2 4h1V8H5v4z" fill="#fff"/></svg>