<svg xmlns="http://www.w3.org/2000/svg" viewBox="0 0 17 30"><path d="M16 7V3h1V0h-2v1h-2v1h-3v1H7V2H4V1H2V0H0v3h1v4h1v16H1v4H0v3h2v-1h2v-1h3v-1h3v1h3v1h2v1h2v-3h-1v-4h-1V7z"/><path d="M15 1v1h-2v1h-3v1H7V3H4V2H2V1H1v2h1v4h1v16H2v4H1v2h1v-1h2v-1h3v-1h3v1h3v1h2v1h1v-2h-1v-4h-1V7h1V3h1V1h-1z" fill="#f696c6"/><path d="M5 15v1H4v1H3V7h1V5h1 0 1 0 2 4v1h1v1h1v8h-1v1h-1v-2h-1v1z" fill="#64438e"/><path d="M15,27v-4h-1v-5H9v1H8v-1H3v5H2v4H1v2h1v-1h2v-1h3v-1h1v-1h1v1h1v1h3v1h2v1h1v-2H15z" fill="#dc3291"/><g fill="#cd0073"><path d="M9 24h1v1H9zm-2 0h1v1H7z"/><path d="M8 25h1v1H8zm3-5h1v1h-1zm-6 0h1v1H5zm3 0h1v1H8z"/><path d="M6 21h2v1H6zm3 0h2v1H9z"/></g><path d="M6 9v1h0-1v4h1v1h1v1H6v1H5v1h3v1h1v-1h2v-1h-1v-1H9v-1h2v-1h1V9z" fill="#ffe8d8"/><path d="M10 8h1v1h-1V8zM7 8h1v1H7V8z" fill="#4955ff"/><path d="M10 9h1v2h-1V9zM7 9h1v2H7V9z" fill="#00a9ff"/><path d="M10 11h1v1h-1v-1zm-3 0h1v1H7v-1z" fill="#494fa7"/><path d="M11 11h1v1h-1v-1zm-6 0h1v1H5v-1z" fill="#ffb299"/><path d="M7 6h1V4H6v3h1V6zm0 7v-1H6v1h1v1h3v-1H7zM3 4v2h1v1h1V4H3z" fill="#ff2d33"/><path d="M5 5h1v1H5V5zm4 3h1v4H9V8zM6 8h1v4H6V8z" fill="#fff"/></svg>