<svg xmlns="http://www.w3.org/2000/svg" viewBox="0 0 24 19"><path d="M22,8v2h-2v7h2v2h2V8H22z" fill="#0f0"/><path d="M20 10h1v7h-1v-7zm2-2h1v11h-1V8z" fill="#009600"/><path d="M18,4v2h-3v9h5V4H18z" fill="#ff0"/><path d="M18 4h1v11h-1V4zm-2 2h1v9h-1V6z" fill="#ffc800"/><path d="M2,10V8H0v11h2v-2h2v-7H2z" fill="#0ff"/><path d="M2 17h1v-7H2v7zm-2 2h1V8H0v11z" fill="#007dff"/><path d="M6,6V4H4v11h5V6H6z" fill="#32007d"/><path d="M7 6h1v9H7V6zM5 4h1v11H5V4z" fill="#7d00ff"/><path d="M14,4V2h-1V0h-2v2h-1v2H9v9h6V4H14z" fill="#f0f"/><path d="M11 0h1v13h-1V0zM9 4h1v9H9V4zm4-2h1v11h-1V2z" fill="#7d0064"/></svg>