<svg xmlns="http://www.w3.org/2000/svg" viewBox="0 0 24 19"><path d="M2,8v2h2v7H2v2H0V8H2z" fill="#0f0"/><path d="M3 10h1v7H3v-7zM1 8h1v11H1V8z" fill="#009600"/><path d="M6,4v2h3v9H4V4H6z" fill="#ff0"/><path d="M5 4h1v11H5V4zm2 2h1v9H7V6z" fill="#ffc800"/><path d="M22 10V8h2v11h-2v-2h-2v-7h2z" fill="#0ff"/><path d="M22 10h-1v7h1v-7zm2-2h-1v11h1V8z" fill="#007dff"/><path d="M18 6V4h2v11h-5V6h3z" fill="#32007d"/><path d="M16 6h1v9h-1V6zm2-2h1v11h-1V4z" fill="#7d00ff"/><path d="M10 4V2h1V0h2v2h1v2h1v9H9V4h1z" fill="#f0f"/><path d="M12 0h1v13h-1V0zm2 4h1v9h-1V4zm-4-2h1v11h-1V2z" fill="#7d0064"/></svg>