<svg xmlns="http://www.w3.org/2000/svg" viewBox="0 0 30 12"><path d="M30 12V2h-1V1h-3V0H10v1H7v1H6v9H0v1z" fill="#0e0c15"/><path d="M29 11H7V2h3V1h16v1h3z" fill="#a8aaae"/><g fill="#4e4066"><path d="M24 3V2h1V1h1v2zM14 3V1h1v1h1v1zM8 2v1h1v1h2v1h1V4h-1V2h-1V1h3v1h-1v1h1v1h3v1h-2v5h3v1H8v-1H7V9h2V8H7V6h1v1h4V6H8V5H7V2z"/><path d="M17 5h-1v2h-1v1h3v1h2V8h1v1h2v2h4V8h1v1h1V7h-1V6h1V4h-2v1h-2V4h-1v1h-3V3h2V1h-3v1h-3v3zm1 0h1v2h-1V5zm1 5h1v1h-1zm9 0h1v1h-1z"/></g><path d="M24 2h2v1h-2zm5 2v2h-1v1h-1V4zM14 3V1h1v1h1v1zm6-2h1v1h-1zM7 7h1v1H7zm7-2v2h-2V4h-1V2h1v1h1v1h3v1zm5 2V5h5v1h1v2h-3V7zM7 3h2v1H7zm11 5h2v1h-2zm10 0h1v1h-1zm0 2h1v1h-1zM13 8v1h1v1h3v1h-7v-1h1V9H9V8z" fill="#edeff2"/></svg>