<svg xmlns="http://www.w3.org/2000/svg" viewBox="0 0 34 20"  xmlns:v="https://vecta.io/nano"><g fill="#a8aaae"><path d="M2 5h2v1H2V5zm16 3V6h-2V4h-2v1h1v1h-2V5h-1V4h-1V2H9v1h1v2H9v2h3v1h2V7h1v1h3z"/><path d="M10 10h1V9H9v2h1v-1zM3 9v1h1V8H3V7H2V6H1v2h1v1h1zm25-2h2V6h1V5h-1V3h-1v2h-1v2zm-1-2h-1V4h-1v2h-2V5h1V3h1V1h-2v2h-2v1h-2v1h3v3h1V7h3V6h1V5zm0 4h4v1h-4V9z"/><path d="M32 6v2h-1v1h2V6h-1zm-5 1h1v1h-1V7zm-3 3v1h1V8h-2v2h1zm-4-2h1v2h-1V8zM4 3h2v1H4V3zm23-1h1v1h-1V2zm-7-1h1v2h-1V1zm1 12h-2v-1h-1v1h-2v2h3v-1h1v1h2v-1h3v-2h-4v1zm9-1h2v1h-2v-1zm-7 5h1v2h1v-3h-2v1zm7-2h1v1h-1v-1z"/><path d="M31 14h1v1h-1v-1zM3 12v1h1v1h2v-2H3zm-2 1h1v1H1v-1zm3 3h3v1H4v-1z"/><path d="M6 14h1v1H6v-1zm5 1H9v4h1v-2h1v-2z"/><path d="M12 12h-1v1H9v-1H7v1h1v1h3v1h1v-3zm-1 6h2v1h-2v-1zm2-3h1v2h-1v-2zm19-2h1v1h-1v-1z"/></g><path d="M13 5h2v1h-2V5zM9 6H8V5H7V4H6v1H4v1h2v1H5v1h3v3h1V9h2v1h1V7H9V6zM3 9H2v2h2v-1H3V9zm22-5h3V3h-1V1h-2v2h-1v2h-1v1h2V4zm6 6h2v1h-2v-1zm-6 0h2V7h1V5h-1v1h-1v1h-3v1h2v2zm-5-2h-5v1h-1v2h3v-1h3V8zm10-2h2v1h-2V6zM18 5h1V3h1V1h-5v1h-1v1h4v2zM8 3h1V2h2v1h1V1H8v2zm11 9h2v1h-2v-1zm1 4h-1v-1h-5v2h3v2h5v-1h-2v-2zM9 12h2v1H9v-1zm-1 1H7v-1H6v2h1v3h2v-2h2v-1H8v-1zm18 0h-1v1h-3v3h1v-1h2v3h1v-4h3v-1h-1v-1h2v-1h-4v1zM2 13h2v1H2v-1zm30-1h1v1h-1v-1z" fill="#edeff2"/><g fill="#4e4066"><path d="M10 3H8V1H7v1H6v2h1v1h1v1h1V5h1V3zm0 8h4V9h1V7h-1v1h-2v2h-2v1zM3 8h1v3h4V8H5V7h1V6H2v1h1v1zm26-5h-1v1h-2v1h3V3zM19 3h2v1h-2V3zm13 5V7h-4v1h-1v1h4V8h1z"/><path d="M31 9h2v1h-2V9zm0-4h1v1h-1V5z"/><path d="M23 8h-1V5h-4V3h-4V2h1V1h-3v2h-1v1h1v1h2V4h2v2h2v2h3v2h-4v1h7v-1h-1V8zm2 2h6v1h-6v-1zM3 4h3v1H3V4zm27 0h1v1h-1V4zM1 8h1v3H1V8zm20-7h2v2h-2V1zm4 11h1v1h-1v-1zm-13 3h-1v2h-1v2h1v-1h2v1h4v-2h-4v-2h3v-2h2v-1h-6v3zm10 0h-2v-1h-1v2h1v2h2v1h2v-2h-2v-2zM1 12h2v1H1v-1zm6 4v-1H6v-1H2v1h1v1h4zm-2 2h3v1h1v-2H5v1zm23-4h1v1h-3v3h3v-1h1v-2h1v-1h1v-1h-4v1z"/></g><g fill="#0e0c15"><path d="M3,4h1V3H2v2h1V4z"/><path d="M33,12v2h1V5h-2v1h1v5H1V6h1V5H0v9h1v-2H33z"/><path d="M31 4v1h1V3h-2v1h1zm-4-3v1h1V0H6v2h1V1h20z"/><path d="M6 3V2H4v1h2zm24 0V2h-2v1h2zm-4 17v-1H8v1h18z"/><path d="M26 18v1h3v-1h-3zm4-2h1v1h-1v-1z"/><path d="M31 15h1v1h-1v-1zm-2 2h1v1h-1v-1zM3 16h1v1H3v-1zm-2-2h1v1H1v-1zm4 4v1h3v-1H5z"/><path d="M4 17h1v1H4v-1zm-2-2h1v1H2v-1zm30-1h1v1h-1v-1z"/></g></svg>