<svg xmlns="http://www.w3.org/2000/svg" viewBox="0 0 24 24"><path d="M0 8h2V7h1V6h1V5h1V4h1V3h1V2h17v22H0V8z"/><g fill="#0ff"><path d="M7,5H6V4h1V5z"/><path d="M8 4H7V3h1v1zM5 7H4V6h1v1z"/><path d="M6 6H5V5h1v1zm3-3H8V2h1v1zM3 9H2V8h1v1z"/><path d="M4 8H3V7h1v1zm-2 2H0V9h2v1z"/></g><g fill="#f0f"><path d="M24 24H0v-1h24v1zM8 3H7V2h1v1zM6 5H5V4h1v1z"/><path d="M7 4H6V3h1v1zM5 6H4V5h1v1z"/><path d="M4 7H3V6h1v1zM2 9H0V8h2v1z"/></g><g fill="#0f0"><path d="M24 17h-1v-1h1v1z"/><path d="M23 18v-1h-1-1v1h1 1z"/><path d="M21 19v-1h-1-1v1h1 1z"/><path d="M19 20v-1h-1-1v1h1 1z"/><path d="M17 21v-1h-1-1v1h1 1z"/><path d="M15 22v-1h-1-1v1h1 1z"/></g><g fill="#f0f"><path d="M17,3h-2V2h2V3z"/><path d="M19,4h-2V3h2V4z"/><path d="M21,5h-2V4h2V5z"/><path d="M23,6h-2V5h2V6z"/><path d="M24 7h-1V6h1v1zM2 7h1v1H2z"/></g></svg>