<svg xmlns="http://www.w3.org/2000/svg" viewBox="0 0 44 24"  xmlns:v="https://vecta.io/nano"><path d="M4 20h1v3h14V11h-4v-1h-2V9h-1V8h-1V7h-1V6H9V5H8V4H7V3H6V2H4v18zm18-7h1v1h-1v-1z"/><path d="M21 14h1v1h-1v-1zm1-3h1v1h-1v-1z"/><path d="M21 12h1v1h-1v-1zm0-2h1v1h-1v-1zm19-8h-2v1h-1v1h-1v1h-1v1h-1v1h-1v1h-1v1h-1v1h-2v1h-4v12h14v-3h1V2zM22 15h1v1h-1v-1z"/><path d="M21,16h1v1h-1V16z"/><path d="M22,17h1v1h-1V17z"/><path d="M21,18h1v1h-1V18z"/><path d="M22,19h1v1h-1V19z"/><path d="M21,20h1v1h-1V20z"/><path d="M22,21h1v1h-1V21z"/><path d="M21,22h1v1h-1V22z"/><path d="M22,23h1v1h-1V23z"/><g fill="#f0f"><path d="M5 23h14v1H5v-1zm20 0h14v1H25v-1zM7 2h1v1H7V2zm2 2h1v1H9V4z"/><path d="M8 3h1v1H8V3zm2 2h1v1h-1V5z"/><path d="M11 6h1v1h-1V6zm2 2h2v1h-2V8zm23-6h1v1h-1V2z"/><path d="M35,3h1v1h-1V3z"/><path d="M34 4h1v1h-1V4zm-2 2h1v1h-1V6z"/><path d="M33 5h1v1h-1V5zm-4 3h2v1h-2V8z"/><path d="M12 7h1v1h-1V7zm19 0h1v1h-1V7zm-2 3V9H15v1h5v14h1V10h2v14h1V10h5z"/></g><g fill="#0ff"><path d="M8,4h1v1H8V4z"/><path d="M7 3h1v1H7V3zm3 3h1v1h-1V6z"/><path d="M9 5h1v1H9V5zm26-1h1v1h-1V4z"/><path d="M36 3h1v1h-1V3zm-3 3h1v1h-1V6z"/><path d="M34 5h1v1h-1V5zm-10 5v14h1V11h4v-1h-5zM6 2h1v1H6V2zm6 6h1v1h-1V8z"/><path d="M11 7h1v1h-1V7zm2 2h2v1h-2V9zm24-7h1v1h-1V2zm-6 6h1v1h-1V8z"/><path d="M32 7h1v1h-1V7zm-3 2h2v1h-2V9zm-7 5h1v1h-1v-1z"/><path d="M21,13h1v1h-1V13z"/><path d="M22,12h1v1h-1V12z"/><path d="M21,11h1v1h-1V11z"/><path d="M22 10h1v1h-1v-1zm-7 0v1h4v13h1V10h-5zm6 5h1v1h-1v-1z"/><path d="M22,16h1v1h-1V16z"/><path d="M21,17h1v1h-1V17z"/><path d="M22,18h1v1h-1V18z"/><path d="M21,19h1v1h-1V19z"/><path d="M22,20h1v1h-1V20z"/><path d="M21 21h1v1h-1v-1zm0 2h1v1h-1v-1z"/><path d="M22,22h1v1h-1V22z"/></g></svg>