<svg xmlns="http://www.w3.org/2000/svg" viewBox="0 0 24 22"><path d="M24,22H0V0h17v1h1v1h1v1h1v1h1v1h1v1h2V22z"/><g fill="#0ff"><path d="M17,2h1v1h-1V2z"/><path d="M16 1h1v1h-1V1zm3 3h1v1h-1V4z"/><path d="M18 3h1v1h-1V3zm-3-3h1v1h-1V0zm6 6h1v1h-1V6z"/><path d="M20 5h1v1h-1V5zm2 2h2v1h-2V7z"/></g><g fill="#f0f"><path d="M0 21h24v1H0v-1zM16 0h1v1h-1V0zm2 2h1v1h-1V2z"/><path d="M17 1h1v1h-1V1zm2 2h1v1h-1V3z"/><path d="M20 4h1v1h-1V4zm2 2h2v1h-2V6z"/><path d="M21 5h1v1h-1V5zM0 14h1v1H0v-1z"/><path d="M2,16h1v-1H2H1v1H2z"/><path d="M4,17h1v-1H4H3v1H4z"/><path d="M6,18h1v-1H6H5v1H6z"/><path d="M8,19h1v-1H8H7v1H8z"/><path d="M10 20h1v-1h-1-1v1h1z"/></g><g fill="#0f0"><path d="M7,0h2v1H7V0z"/><path d="M5,1h2v1H5V1z"/><path d="M3,2h2v1H3V2z"/><path d="M1,3h2v1H1V3z"/><path d="M0,4h1v1H0V4z"/></g></svg>