<svg xmlns="http://www.w3.org/2000/svg" viewBox="0 0 24 24"><path d="M24,24H0V2h17v1h1v1h1v1h1v1h1v1h1v1h2V24z"/><g fill="#0ff"><path d="M17,4h1v1h-1V4z"/><path d="M16 3h1v1h-1V3zm3 3h1v1h-1V6z"/><path d="M18 5h1v1h-1V5zm-3-3h1v1h-1V2zm6 6h1v1h-1V8z"/><path d="M20 7h1v1h-1V7zm2 2h2v1h-2V9z"/></g><g fill="#f0f"><path d="M0 23h24v1H0v-1zM16 2h1v1h-1V2zm2 2h1v1h-1V4z"/><path d="M17 3h1v1h-1V3zm2 2h1v1h-1V5z"/><path d="M20 6h1v1h-1V6zm2 2h2v1h-2V8z"/><path d="M21 7h1v1h-1V7zM0 16h1v1H0v-1z"/><path d="M2,18h1v-1H2H1v1H2z"/><path d="M4,19h1v-1H4H3v1H4z"/><path d="M6,20h1v-1H6H5v1H6z"/><path d="M8,21h1v-1H8H7v1H8z"/><path d="M10 22h1v-1h-1-1v1h1z"/></g><g fill="#0f0"><path d="M7,2h2v1H7V2z"/><path d="M5,3h2v1H5V3z"/><path d="M3,4h2v1H3V4z"/><path d="M1,5h2v1H1V5z"/><path d="M0,6h1v1H0V6z"/></g></svg>