<svg xmlns="http://www.w3.org/2000/svg" viewBox="0 0 34 22"><path d="M34,0H0v22h34V0z"/><g fill="#ff0"><path d="M11.5 7h1v5h-1V7zm9 5h1v1h-1v-1z"/><path d="M19.5 13h1v1h-1v-1zm-7-1h1v1h-1v-1zm2-8h5v1h-5V4z"/><path d="M13.5 5h1v1h-1V5zm6 0h1v1h-1V5z"/><path d="M12.5 6h1v1h-1V6zm8 0h1v1h-1V6z"/><path d="M21.5 7h1v5h-1V7zm-7 7h5v1h-5v-1z"/><path d="M13.5,13h1v1h-1V13z"/></g><g fill="#f0f"><path d="M0 21h34v1H0v-1zM15.5 8h1v1h-1V8zm4 4h1v1h-1v-1z"/><path d="M20.5,13h1v1h-1V13z"/><path d="M21.5,14h2v1h-2V14z"/><path d="M23.5,15h2v1h-2V15z"/><path d="M25.5,16h2v1h-2V16z"/><path d="M27.5,17h2v1h-2V17z"/><path d="M29.5,18h2v1h-2V18z"/><path d="M31.5 19H34v1h-2.5v-1zM0 0h4.5v1H0V0z"/><path d="M4.5,1h2v1h-2V1z"/><path d="M6.5,2h2v1h-2V2z"/><path d="M8.5,3h2v1h-2V3z"/><path d="M10.5,4h2v1h-2V4z"/><path d="M12.5,5h1v1h-1V5z"/><path d="M13.5 6h1v1h-1V6zm4 4h1v1h-1v-1z"/><path d="M14.5 7h1v1h-1V7zm4 4h1v1h-1v-1z"/></g><g fill="#0f0"><path d="M17.5,8h1v1h-1V8z"/><path d="M16.5 9h1v1h-1V9zm-3 3h1v1h-1v-1z"/><path d="M12.5,13h1v1h-1V13z"/><path d="M10.5,14h2v1h-2V14z"/><path d="M8.5,15h2v1h-2V15z"/><path d="M6.5,16h2v1h-2V16z"/><path d="M4.5,17h2v1h-2V17z"/><path d="M2.5,18h2v1h-2V18z"/><path d="M0 19h2.5v1H0v-1zM29.5 0H34v1h-4.5V0z"/><path d="M27.5,1h2v1h-2V1z"/><path d="M25.5,2h2v1h-2V2z"/><path d="M23.5,3h2v1h-2V3z"/><path d="M21.5,4h2v1h-2V4z"/><path d="M20.5,5h1v1h-1V5z"/><path d="M19.5 6h1v1h-1V6zm-4 4h1v1h-1v-1z"/><path d="M18.5 7h1v1h-1V7zm-4 4h1v1h-1v-1z"/></g></svg>