<svg xmlns="http://www.w3.org/2000/svg" viewBox="0 0 24 22"><path d="M0,22h24V0H7v1H6v1H5v1H4v1H3v1H2v1H0V22z"/><g fill="#0ff"><path d="M6,2h1v1H6V2z"/><path d="M7 1h1v1H7V1zM4 4h1v1H4V4z"/><path d="M5 3h1v1H5V3zm3-3h1v1H8V0zM2 6h1v1H2V6z"/><path d="M3 5h1v1H3V5zM0 7h2v1H0V7z"/></g><g fill="#f0f"><path d="M0 21h24v1H0v-1zM7 0h1v1H7V0zM5 2h1v1H5V2z"/><path d="M6 1h1v1H6V1zM4 3h1v1H4V3z"/><path d="M3 4h1v1H3V4zM0 6h2v1H0V6z"/><path d="M2 5h1v1H2V5zm21 9h1v1h-1v-1z"/><path d="M22,16h-1v-1h1h1v1H22z"/><path d="M20,17h-1v-1h1h1v1H20z"/><path d="M18,18h-1v-1h1h1v1H18z"/><path d="M16,19h-1v-1h1h1v1H16z"/><path d="M14,20h-1v-1h1h1v1H14z"/></g><g fill="#0f0"><path d="M15,0h2v1h-2V0z"/><path d="M17,1h2v1h-2V1z"/><path d="M19,2h2v1h-2V2z"/><path d="M21,3h2v1h-2V3z"/><path d="M23,4h1v1h-1V4z"/></g></svg>