<svg xmlns="http://www.w3.org/2000/svg" viewBox="0 0 13 10"  xmlns:v="https://vecta.io/nano"><path d="M12,2h1v2h-1V2z"/><path d="M11 1h1v1h-1V1zM0 2h1v2H0V2z"/><path d="M1,4h1v1H1V4z"/><path d="M2,5h1v1H2V5z"/><path d="M3,6h1v1H3V6z"/><path d="M4,7h1v1H4V7z"/><path d="M5 8h1v1H5V8zM1 1h1v1H1V1z"/><path d="M4,1v1h1V1h3v1h1V1h2V0H2v1H4z"/><path d="M9,2h1v1H9V2z"/><path d="M10 3h1v1h-1V3zM3 2h1v1H3V2z"/><path d="M2 3h1v1H2V3zm4 6h1v1H6V9z"/><path d="M7,8h1v1H7V8z"/><path d="M8,7h1v1H8V7z"/><path d="M9,6h1v1H9V6z"/><path d="M10,5h1v1h-1V5z"/><path d="M11,4h1v1h-1V4z"/><g fill="#0ff"><path d="M11,2h1v1h-1V2z"/><path d="M10 1h1v1h-1V1zM3 4v1h1v1h1v1h1v1h1V7h1V6h1V5h1V4H3zm4-3h1v1H7V1zM5 1h1v1H5V1z"/><path d="M8 2h1v1H8V2zM4 2h1v1H4V2zM2 1h1v1H2V1z"/><path d="M1,2h1v1H1V2z"/></g><g fill="#46a7c0"><path d="M6,8h1v1H6V8z"/><path d="M7,7h1v1H7V7z"/><path d="M8,6h1v1H8V6z"/><path d="M9,5h1v1H9V5z"/><path d="M10 4h1v1h-1V4zM5 7h1v1H5V7z"/><path d="M4,6h1v1H4V6z"/><path d="M3,5h1v1H3V5z"/><path d="M2,4h1v1H2V4z"/></g><g fill="#fff"><path d="M11 3h1v1h-1V3zM1 3h1v1H1V3zm8-2h1v1H9V1zM8 3V2H7V1H6v1H5v1H3v1h7V3H8z"/><path d="M10 2h1v1h-1V2zM2 2h1v1H2V2z"/><path d="M3,1h1v1H3V1z"/></g></svg>