<svg xmlns="http://www.w3.org/2000/svg" viewBox="0 0 11 9"><path d="M10,2V1H9V0H2v1H1v1H0v2h1v1h1v1h1v1h1v1h1v1h1V8h1V7h1V6h1V5h1V4h1V2H10z"/><g fill="#0ff"><path d="M9,2V1H7v1h1v1h1v1h1V2H9z"/><path d="M8,3H7V2H6V1H5v1H4v1H3v1H2v1h1v1h1v1h1v1h1V7h1V6h1V5h1V4H8V3z"/><path d="M3,3V2h1V1H2v1H1v2h1V3H3z"/></g><g fill="#46a7c0"><path d="M6,6h1v1H6V6z"/><path d="M7,5h1v1H7V5z"/><path d="M8 4h1v1H8V4zM5 7h1v1H5V7z"/><path d="M4,6h1v1H4V6z"/><path d="M3,5h1v1H3V5z"/><path d="M2,4h1v1H2V4z"/></g><g fill="#fff"><path d="M9 3h1v1H9V3zM1 3h1v1H1V3zm6-2h1v1H7V1zM6 3V2H5v1H3v1h5V3H6z"/><path d="M8 2h1v1H8V2zM2 2h1v1H2V2z"/><path d="M3,1h1v1H3V1z"/></g></svg>