<svg xmlns="http://www.w3.org/2000/svg" viewBox="0 0 13 10"><path d="M12 2V1h-1V0H2v1H1v1H0v2h1v1h1v1h1v1h1v1h1v1h1v1h1V9h1V8h1V7h1V6h1V5h1V4h1V2z"/><path d="M2 4v1h1v1h1v1h1v1h1v1h1V8h1V7h1V6h1V5h1V4z" fill="#46a7c0"/><g fill="#0ff"><path d="M9 2H8V1H5v1H4v1H3v2h1v1h1v1h1v1h1V7h1V6h1V5h1V3H9zm2 0h1v1h-1z"/><path d="M10 1h1v1h-1zM2 1h1v1H2z"/><path d="M1 2h1v1H1z"/></g><g fill="#fff"><path d="M11 3h1v1h-1V3zM1 3h1v1H1V3zm8-2h1v1H9V1zM8 3V2H7V1H6v1H5v1H3v1h7V3H8z"/><path d="M10 2h1v1h-1V2zM2 2h1v1H2V2z"/><path d="M3,1h1v1H3V1z"/></g></svg>