<svg xmlns="http://www.w3.org/2000/svg" viewBox="0 0 42 25"><path d="M41 5V3h-1V2h-1V1h-2V0H24v1h-2v1h-2V1h-2V0H5v1H3v1H2v1H1v2H0v12h1v2h1v1h1v1h1v1h3v1h3v1h3v1h16v-1h3v-1h3v-1h3v-1h1v-1h1v-1h1v-2h1V5h-1z"/><path d="M40 5V3h-1V2h-2V1H24v1h-2v1h-2V2h-2V1H5v1H3v1H2v2H1v12h1v2h1v1h1v1h3v1h3v1h3v1h16v-1h3v-1h3v-1h3v-1h1v-1h1v-2h1V5h-1z" fill="#ff32ff"/><path d="M10 9V8H8V5h2V3H6v3H2v2h4v5H2v2h2v4h2v-4h2v-5h2V9zm28 3v2h-6v-2h-2v2h-8v-2h6V3h-2v2h-2v2h2v3h-4V3h-2v2h-4V3h-4v2h2v2h6v3h-8v2h-2v2h2v6h2v2h2v-2h2v-4h-2v2h-2v-6h6v10h4v-2h-2v-4h4v6h2v-6h4v2h-2v2h4v-4h2v2h2v-2h2v-4h-2zm-6-4V5h5V3h-7v7h4v2h2v-2h4V8h-8z" fill="#910091"/></svg>