<svg xmlns="http://www.w3.org/2000/svg" viewBox="0 0 42 22"  xmlns:v="https://vecta.io/nano"><path d="M40 5V3h-1V2h-2V1H24v1h-6V1H5v1H3v1H2v2H1v12h1v2h1v1h1v1h3v-1h1v-1h1v-1h8v1h1v1h1v1h4v-1h1v-1h1v-1h8v1h1v1h1v1h3v-1h1v-1h1v-2h1V5h-1z" fill="#ff32ff"/><path d="M37 1h2v1h-2V1zM3 1h2v1H3V1zm19 0h2v1h-2V1zm-4 0h2v1h-2V1z"/><path d="M20 2h2v1h-2V2zm-1 19h4v1h-4v-1zm21-4h1v2h-1v-2z"/><path d="M39,19h1v1h-1V19z"/><path d="M38 20h1v1h-1v-1zM1 17h1v2H1v-2z"/><path d="M2,19h1v1H2V19z"/><path d="M3 20h1v1H3v-1zm32 1h3v1h-3v-1z"/><path d="M4 21h3v1H4v-1zm21-3h8v1h-8v-1z"/><path d="M33,19h1v1h-1V19z"/><path d="M34 20h1v1h-1v-1zm-10-1h1v1h-1v-1z"/><path d="M23 20h1v1h-1v-1zm-5 0h1v1h-1v-1z"/><path d="M17 19h1v1h-1v-1zm-9 0h1v1H8v-1z"/><path d="M9 18h8v1H9v-1zm-2 2h1v1H7v-1zM40 3h1v2h-1V3z"/><path d="M39 2h1v1h-1V2zM0 5h1v12H0V5z"/><path d="M41 5h1v12h-1V5zM1 3h1v2H1V3z"/><path d="M2 2h1v1H2V2zm22-2h13v1H24V0zM5 0h13v1H5V0z"/><path d="M20,8v1h-1v1h-1v2h3V8H20z" fill="#ebaae6"/><path d="M21,12v4h1v-1h1v-1h1v-2H21z" fill="#be32be"/><g fill="#e17dd7"><path d="M18,12v2h1v1h1v1h1v-4H18z"/><path d="M23,10V9h-1V8h-1v4h3v-2H23z"/></g><g fill="#910091"><path d="M30 12v-2h-6v4h1v-2h3v4h2v-2h2v-2h-2zm-18 2v-2h-2v2H4v-2H2v4h2v2h2v-2h10v-2h-4zm24-8V3h-4v2h2v3h-2v2h2v5h2v4h2v-4h2v-2h-4V8h4V6h-4zM6 10v2h2v-2h4V3H5v2h5v3H2v2h4zm16-2V7h6V5h2V3h-4v2h-4V3h-2v5h2z"/><path d="M22 8h1v1h-1V8zm-3 0h1v1h-1V8z"/><path d="M23 9h1v1h-1V9zm-5 0h1v1h-1V9z"/><path d="M18 10h-2V7h2V5h-2V3h-2v9h3v2h1v-4zm5 4h1v1h-1v-1z"/><path d="M18 14h1v1h-1v-1zm4 1h1v1h-1v-1z"/><path d="M19,15h1v1h-1V15z"/><path d="M20,16h2v5h-2V16z"/></g></svg>