<svg xmlns="http://www.w3.org/2000/svg" viewBox="0 0 42 22"><path d="M41 5V3h-1V2h-1V1h-2V0H24v1h-2v1h-2V1h-2V0H5v1H3v1H2v1H1v2H0v12h1v2h1v1h1v1h1v1h3v-1h1v-1h1v-1h8v1h1v1h1v1h4v-1h1v-1h1v-1h8v1h1v1h1v1h3v-1h1v-1h1v-1h1v-2h1V5z"/><path d="M40 5V3h-1V2h-2V1H24v1h-2v1h-2V2h-2V1H5v1H3v1H2v2H1v12h1v2h1v1h1v1h3v-1h1v-1h1v-1h8v1h1v1h1v1h4v-1h1v-1h1v-1h8v1h1v1h1v1h3v-1h1v-1h1v-2h1V5h-1z" fill="#ff32ff"/><path d="M12 12h-2v2H4v-2H2v4h2v2h2v-2h10v-2h-4zm-6 0h2v-2h4V3H5v2h5v3H2v2h4zm34-4V6h-4V3h-4v2h2v3h-2v2h2v5h2v4h2v-4h2v-2h-4V8zm-10 2h-6V9h-1V8h-1V7h6V5h2V3h-4v2h-4V3h-2v5h-1v1h-1v1h-2V7h2V5h-2V3h-2v9h3v2h1v1h1v1h1v5h2v-5h1v-1h1v-1h1v-2h3v4h2v-2h2v-2h-2z" fill="#910091"/><path d="M23 10V9h-1V8h-2v1h-1v1h-1v4h1v1h1v1h1v-4h3v-2z" fill="#ebaae6"/><path d="M21,12v4h1v-1h1v-1h1v-2H21z" fill="#be32be"/><g fill="#e17dd7"><path d="M18,12v2h1v1h1v1h1v-4H18z"/><path d="M23,10V9h-1V8h-1v4h3v-2H23z"/></g></svg>