<svg xmlns="http://www.w3.org/2000/svg" viewBox="0 0 28 12"  xmlns:v="https://vecta.io/nano"><g fill="#7d00ff"><path d="M21,4h2v1h-2V4z"/><path d="M23,5h1v2h-1V5z"/><path d="M21,7h2v1h-2V7z"/><path d="M20,5h1v2h-1V5z"/></g><path d="M21,5h2v2h-2V5z" fill="#0ff"/><path d="M24 4V3h-4v1h-1v4h1v1h4V8h1V4h-1zm0 3h-1v1h-2V7h-1V5h1V4h2v1h1v2z" fill="#f0f"/><g fill="#ff0"><path d="M24,3h1v1h-1V3z"/><path d="M25 4h1v4h-1V4zm-6 4h1v1h-1V8z"/><path d="M18 4h1v4h-1V4zm2 5h4v1h-4V9z"/><path d="M24 8h1v1h-1V8zm-4-6h4v1h-4V2z"/><path d="M19,3h1v1h-1V3z"/></g><path d="M26 3V2h-1V1h-6v1h-1v1h-1v6h1v1h1v1h6v-1h1V9h1V3h-1zm0 5h0-1v1h-1v1h-4V9h-1V8h-1V4h1V3h1V2h4v1h1v1h1v4z" fill="#0f0"/><path d="M19,0h6v1h-6V0z"/><path d="M25,1h1v1h-1V1z"/><path d="M27 3V2h-1v1h1v6h1V3h-1zm-8 8h6v1h-6v-1zM18 1h1v1h-1V1z"/><path d="M17 2h1v1h-1V2zm0 7h1v1h-1V9z"/><path d="M26 10h-1v1h1v-1h1V9h-1v1zm-8 0h1v1h-1v-1zm-2-7h1v6h-1V3z"/><g fill="#7d00ff"><path d="M5,4h2v1H5V4z"/><path d="M7,5h1v2H7V5z"/><path d="M5,7h2v1H5V7z"/><path d="M4,5h1v2H4V5z"/></g><path d="M5,5h2v2H5V5z" fill="#0ff"/><path d="M8 4V3H4v1H3v4h1v1h4V8h1V4H8zm0 3H7v1H5V7H4V5h1V4h2v1h1v2z" fill="#f0f"/><g fill="#ff0"><path d="M8,3h1v1H8V3z"/><path d="M9 4h1v4H9V4zM3 8h1v1H3V8z"/><path d="M2 4h1v4H2V4zm2 5h4v1H4V9z"/><path d="M8 8h1v1H8V8zM4 2h4v1H4V2z"/><path d="M3,3h1v1H3V3z"/></g><path d="M10 3V2H9V1H3v1H2v1H1v6h1v1h1v1h6v-1h1V9h1V3h-1zm0 5h0-1v1H8v1H4V9H3V8H2V4h1V3h1V2h4v1h1v1h1v4z" fill="#0f0"/><path d="M3,0h6v1H3V0z"/><path d="M9,1h1v1H9V1z"/><path d="M11 3V2h-1v1h1v6h1V3h-1zm-8 8h6v1H3v-1zM2 1h1v1H2V1z"/><path d="M1 2h1v1H1V2zm0 7h1v1H1V9z"/><path d="M10 10H9v1h1v-1h1V9h-1v1zm-8 0h1v1H2v-1zM0 3h1v6H0V3z"/></svg>