<svg xmlns="http://www.w3.org/2000/svg" viewBox="0 0 28 12"><path d="M27 3V2h-1V1h-1V0h-6v1h-1v1h-1v1h-1v6h1v1h1v1h1v1h6v-1h1v-1h1V9h1V3z"/><path d="M26,3V2h-1V1h-6v1h-1v1h-1v6h1v1h1v1h6v-1h1V9h1V3H26z" fill="#0f0"/><path d="M25 4V3h-1V2h-4v1h-1v1h-1v4h1v1h1v1h4V9h1V8h1V4z" fill="#ff0"/><path d="M24 4V3h-4v1h-1v4h1v1h4V8h1V4z" fill="#f0f"/><path d="M23 5V4h-2v1h-1v2h1v1h2V7h1V5z" fill="#7d00ff"/><path d="M21,5h2v2h-2V5z" fill="#0ff"/><path d="M11 3V2h-1V1H9V0H3v1H2v1H1v1H0v6h1v1h1v1h1v1h6v-1h1v-1h1V9h1V3z"/><path d="M10,3V2H9V1H3v1H2v1H1v6h1v1h1v1h6v-1h1V9h1V3H10z" fill="#0f0"/><path d="M9 4V3H8V2H4v1H3v1H2v4h1v1h1v1h4V9h1V8h1V4z" fill="#ff0"/><path d="M8 4V3H4v1H3v4h1v1h4V8h1V4z" fill="#f0f"/><path d="M7 5V4H5v1H4v2h1v1h2V7h1V5z" fill="#7d00ff"/><path d="M5,5h2v2H5V5z" fill="#0ff"/></svg>