<svg xmlns="http://www.w3.org/2000/svg" viewBox="0 0 24 21"><path d="M22,7V6h-2V5h-1V4h-1V3h-1V2h-1V1h-1V0H0v21h24V7H22z"/><path d="M22 8V7h-2V6h-1V5h-1V4h-1V3h-1V2h-1V1h-4v19h13V8h-2zM0 1v19h10V1H0z" fill="#167ffe"/><path d="M23,9h1v1h-1V9z" fill="#e2cab5"/><path d="M23,12h1v2h-1V12z" fill="#323232"/><g fill="#f8ece0"><path d="M23,14v-1h-1v-1h-1v-2h-2V8h-1v3h1v2h1v2h1v3h-1v1h2v-2h2v-3H23z"/><path d="M21 9h1v1h-1V9zm2 9h1v1h-1v-1z"/></g><path d="M24 18v-1h-2v2h-2v-1h1v-3H11v5h13v-1h-1v-1h1zM0 15v5h10v-5H0z" fill="#0f0"/><path d="M17 14v-1h-1v1h-1v1h3v-1h-1zm-2-2h2v-1h-1v-1h-2V9h-3v4h4v-1zm-2-7V4h-1V3h-1v2h2zm-8 8H3v1H2v1h4v-1H5v-1zM3 7V6H2V5H1V4H0v4h1V7h2zm6 3H7v1H5v1h1v1h4V9H9v1zm0-9h1v1H9V1z" fill="#fff"/><g fill="#ff0"><path d="M5 7v1h2V7H5zm-5 3h1v1H0v-1z"/><path d="M3,8v1h2V8H3z"/><path d="M1 9v1h2V9H1zm8-4h1v1H9V5z"/><path d="M7,6v1h2V6H7z"/></g><g fill="#0ff"><path d="M11,1v1h4V1H11z"/><path d="M15 2h1v1h-1V2zM7 8v1h2V8H7zm-7 4h1v1H0v-1z"/><path d="M1,11v1h2v-1H1z"/><path d="M3,10v1h2v-1H3z"/><path d="M5 9v1h2V9H5zm4-2h1v1H9V7z"/></g><g fill="#0f0"><path d="M0,11h1v1H0V11z"/><path d="M1 10v1h2v-1H1zm4-2v1h2V8H5z"/><path d="M3 9v1h2V9H3zm6-3h1v1H9V6z"/><path d="M7,7v1h2V7H7z"/></g><g fill="#f0f"><path d="M0 9h1v1H0V9zm3-2v1h2V7H3z"/><path d="M1 8v1h2V8H1zm8-4h1v1H9V4z"/><path d="M7,5v1h2V5H7z"/><path d="M5,6v1h2V6H5z"/></g><g fill="#7d00ff"><path d="M16,3h-1v1h2V3H16z"/><path d="M11 2v1h4V2h-4zm-4 8h2V9H7v1zm-7 3h1v1H0v-1z"/><path d="M1 13h2v-1H1v1z"/><path d="M3 12h2v-1H3v1z"/><path d="M5 11h2v-1H5v1zm4-3h1v1H9V8z"/></g><path d="M19 17h1v-2h-1v2zm-4 1h1v-2h-1v2zm2 2h1v-2h-1v2zm-4 0h1v-2h-1v2zm8-1h1v1h-1v-1zm-10-1h1v-2h-1v2zm-4-1h1v-2H7v2zm-4 1h1v-2H3v2zm6 2h1v-2H9v2zm-4 0h1v-2H5v2zm-4 0h1v-2H1v2z" fill="#00b900"/><path d="M18,6V5h-1V4h-2v1h-1v1h-1v1h6V6H18z" fill="#c8c8c8"/><path d="M15,5h2v1h-2V5z" fill="#646464"/><g fill="#e1e1e1"><path d="M15,4h1v1h-1V4z"/><path d="M14,5v1h-1v1h3V6h-1V5H14z"/></g><path d="M15,5h1v1h-1V5z" fill="#969696"/><path d="M7,3V2H6V1H4v1H3v1H2v1h6V3H7z" fill="#c8c8c8"/><g fill="#e1e1e1"><path d="M7,3V2H6v1H5v1h3V3H7z"/><path d="M5,1h1v1H5V1z"/></g><path d="M4,2h2v1H4V2z" fill="#646464"/><path d="M5,2h1v1H5V2z" fill="#969696"/></svg>