<svg xmlns="http://www.w3.org/2000/svg" viewBox="0 0 40 22"><path d="M34,1v1h-1v1h-1v1h-1v1h-1v1h-1v1h-2v1h-2v1h-3v1h-4V9h-3V8h-2V7h-2V6h-1V5H9V4H8V3H7V2H6V1H3v21h34V1H34z"/><path d="M34,2v1h-1v1h-1v1h-1v1h-1v1h-1v1h-2v1h-2v1h-3v1h-4v-1h-3V9h-2V8h-2V7h-1V6H9V5H8V4H7V3H6V2H4v19h32V2H34z" fill="#167ffe"/><path d="M7,6h1v1H7V6z" fill="#646464"/><path d="M6,6h1v1H6V6z" fill="#969696"/><g fill="#c8c8c8"><path d="M7,5h1v1H7V5z"/><path d="M9,7V6H8v1H7v1h3V7H9z"/></g><g fill="#e2cab5"><path d="M14,10h1v1h-1V10z"/><path d="M15,11h1v2h-1V11z"/></g><g fill="#0ff"><path d="M4,2h2v1H4V2z"/><path d="M6 3h1v1H6V3zm19 6h2v1h-2V9zm10 5h1v1h-1v-1z"/><path d="M33,13h2v1h-2V13z"/><path d="M31,12h2v1h-2V12z"/><path d="M29,11h2v1h-2V11z"/><path d="M27,10h2v1h-2V10z"/></g><g fill="#e1e1e1"><path d="M6,5h1v1H6V5z"/><path d="M5,6v1H4v1h3V7H6V6H5z"/></g><g fill="#7d00ff"><path d="M6,4h2v1H6V4z"/><path d="M4 3h2v1H4V3zm21 7h2v1h-2v-1zm10 5h1v1h-1v-1z"/><path d="M33,14h2v1h-2V14z"/><path d="M31,13h2v1h-2V13z"/><path d="M29,12h2v1h-2V12z"/><path d="M27,11h2v1h-2V11z"/></g><g fill="#d3af90"><path d="M17,11h-1v3h2v-1h-1V11z"/><path d="M17,10h1v1h-1V10z"/></g><g fill="#ff0"><path d="M27 8h2v1h-2V8zm8 4h1v1h-1v-1z"/><path d="M33 11h2v1h-2v-1zm-4-2h2v1h-2V9z"/><path d="M31,10h2v1h-2V10z"/></g><g fill="#f0f"><path d="M35,11h1v1h-1V11z"/><path d="M33 10h2v1h-2v-1zm-4-2h2v1h-2V8z"/><path d="M31,9h2v1h-2V9z"/></g><path d="M34 2v1h1v1h1V2h-2zm-3 12h-2v1h-1v1h4v-1h-1v-1zM8 14H7v1H6v1h3v-1H8v-1zm-2-1h2v-1H7v-1H5v-1H4v4h2v-1zm29-8h-2v1h-1v1h-1v1h2v1h3V6h-1V5zm-8 8h2v-1h-2v-1h-2v-1h-3v2h-1v1h2v1h4v-1zm-12 0h1v1h-1v-1z" fill="#fff"/><g fill="#0f0"><path d="M35,13h1v1h-1V13z"/><path d="M33,12h2v1h-2V12z"/><path d="M31 11h2v1h-2v-1zm-4-2h2v1h-2V9z"/><path d="M29 10h2v1h-2v-1zm6 8h-1v-2h-7v2h-1v-2h-4v1h1v2h-1v1h-1v1h3v-2h1v2h3v-2h1v2h3v-2h1v2h3v-5h-1v2zm-5 1v-2h1v2h-1zm-19-1h-1v-2H4v3h1v2h3v-2h1v2h3v-1h-1v-1h1v-3h-1v2zm-5 1v-2h1v2H6zm10-1h2v1h-2v-1zm5 0h-2v2h-2v1h3v-2h1v-1zm-7 2v-1h1v-1h-2v3h3v-1h-2z"/></g><path d="M34 16h1v2h-1v-2zm-8 0h1v2h-1v-2zm-16 0h1v2h-1v-2zm20 1h1v2h-1v-2zM6 17h1v2H6v-2zm16 0h1v2h-1v-2zm2 2h1v2h-1v-2zm-8 0h1v2h-1v-2zm-8 0h1v2H8v-2zm20 0h1v2h-1v-2zm4 0h1v2h-1v-2zM4 19h1v2H4v-2zm8 1h1v1h-1v-1zm8 0h1v1h-1v-1z" fill="#00b900"/><path d="M18,13v1h-3v-1h-1v2h1v1h3v-1h1v-2H18z" fill="#323232"/><g fill="#f8ece0"><path d="M12,10h1v1h-1V10z"/><path d="M21 15v-1h-2v1h-1v1h-3v-1h-1v-1h-1v-1h-1v-2h-2V9H9v3h1v2h1v2h1v3h-1v1h2v-2h2v1h-1v1h2v-2h2v1h-1v1h2v-2h2v1h-1v1h2v-5h-1z"/></g></svg>