<svg xmlns="http://www.w3.org/2000/svg" viewBox="0 0 34 21"><path d="M0 0v21h34V0H0z"/><path d="M1 1v19h32V1H1z" fill="#167ffe"/><g fill="#d3af90"><path d="M22 9h1v1h-1z"/><path d="M20 10v2h-1v1h2v-1h1v-2h-2z"/><path d="M19 9h1v1h-1z"/></g><path d="M25 15v3h1v1h-2v-2h-2v1h1v1h-2v-2h-2v1h1v1h-2v-2h-2v1h1v1h-2v-4H1v5h32v-5h-8z" fill="#0f0"/><path d="M22 12v1h-3v-1h-1v2h1v1h3v-1h1v-2h-1z" fill="#323232"/><g fill="#f8ece0"><path d="M24 9h1v1h-1z"/><path d="M27 8v2h-2v2h-1v1h-1v1h-1v1h-3v-1h-1v-1h-2v1h-1v5h2v-1h-1v-1h2v2h2v-1h-1v-1h2v2h2v-1h-1v-1h2v2h2v-1h-1v-3h1v-2h1v-2h1V8h-1z"/></g><path d="M31 1v1h-1v1h3V1h-2zm0 4v1h-1v1h2V6h1V5h-2zM8 13H6v1H5v1h4v-1H8v-1zm22 0h-1v1h-1v1h3v-1h-1v-1zm2-3h-2v1h-1v1h2v1h2V9h-1v1zM2 2h1V1H1v2h1V2zm4 5V6H5V5H4V4H2v1H1v3h3V7h2zm9 3V9h-3v1h-2v1H8v1h1v1h5v-1h2v-1h-1v-1zm6 2h1v1h-1zm-8-9h1V2h1V1h-3v1h1v1z" fill="#fff"/><path d="M18 1v1h-2v1h-2v1h-2v1h-2v1H8v1H6v1H4v1H2v1H1v5h1v-1h2v-1h2v-1h2v-1h2v-1h2V9h2V8h2V7h2V6h2V5h2V4h2V3h2V2h2V1H18z" fill="#f0f"/><path d="M28 6V5h-1V4h-2v1h-1v1h-1v1h6V6h-1z" fill="#c8c8c8"/><path d="M26 5h1v1h-1z" fill="#969696"/><path d="M25 5h1v1h-1z" fill="#646464"/><g fill="#e1e1e1"><path d="M28 6V5h-1v1h-1v1h3V6h-1z"/><path d="M26 4h1v1h-1z"/></g><path d="M10 3V2H9V1H7v1H6v1H5v1h6V3h-1z" fill="#c8c8c8"/><path d="M8 2h1v1H8z" fill="#969696"/><path d="M7 2h1v1H7z" fill="#646464"/><g fill="#e1e1e1"><path d="M10 3V2H9v1H8v1h3V3h-1z"/><path d="M8 1h1v1H8z"/></g><path d="M2 17h1v-2H2v2zm8 0h1v-2h-1v2zm16 0h1v-2h-1v2zM6 18h1v-2H6v2zm24 0h1v-2h-1v2zm-16 0h1v-2h-1v2zm-2 2h1v-2h-1v2zm8 0h1v-2h-1v2zm8 0h1v-2h-1v2zM8 20h1v-2H8v2zm-4 0h1v-2H4v2zm28-2v2h1v-2h-1zm-8 1h1v1h-1zm-8 0h1v1h-1z" fill="#00b900"/><g fill="#e2cab5"><path d="M22 9h1v1h-1z"/><path d="M21 12h1v-2h-1v2z"/></g><g fill="#ff0"><path d="M8 7v1h2V7H8zm-7 4h1v1H1z"/><path d="M2 10v1h2v-1H2zm4-2v1h2V8H6z"/><path d="M4 9v1h2V9H4zm16-8v1h2V1h-2z"/><path d="M18 2v1h2V2h-2z"/><path d="M16 3v1h2V3h-2z"/><path d="M14 4v1h2V4h-2z"/><path d="M12 5v1h2V5h-2z"/><path d="M10 6v1h2V6h-2z"/></g><g fill="#0ff"><path d="M10 8v1h2V8h-2zm-9 5h1v1H1z"/><path d="M2 12v1h2v-1H2z"/><path d="M4 11v1h2v-1H4z"/><path d="M6 10v1h2v-1H6z"/><path d="M8 9v1h2V9H8zm16-8v1h2V1h-2z"/><path d="M22 2v1h2V2h-2z"/><path d="M20 3v1h2V3h-2z"/><path d="M18 4v1h2V4h-2z"/><path d="M16 5v1h2V5h-2z"/><path d="M14 6v1h2V6h-2z"/><path d="M12 7v1h2V7h-2z"/></g><g fill="#0f0"><path d="M1 12h1v1H1z"/><path d="M2 11v1h2v-1H2z"/><path d="M4 10v1h2v-1H4zm4-2v1h2V8H8z"/><path d="M6 9v1h2V9H6zm16-8v1h2V1h-2z"/><path d="M20 2v1h2V2h-2z"/><path d="M18 3v1h2V3h-2z"/><path d="M16 4v1h2V4h-2z"/><path d="M14 5v1h2V5h-2z"/><path d="M12 6v1h2V6h-2z"/><path d="M10 7v1h2V7h-2z"/></g><g fill="#7d00ff"><path d="M10 9v1h2V9h-2zm-9 5h1v1H1z"/><path d="M2 13v1h2v-1H2z"/><path d="M4 12v1h2v-1H4z"/><path d="M6 11v1h2v-1H6z"/><path d="M8 10v1h2v-1H8zm18-9v1h2V1h-2z"/><path d="M24 2v1h2V2h-2z"/><path d="M22 3v1h2V3h-2z"/><path d="M20 4v1h2V4h-2z"/><path d="M18 5v1h2V5h-2z"/><path d="M16 6v1h2V6h-2z"/><path d="M14 7v1h2V7h-2z"/><path d="M12 8v1h2V8h-2z"/></g></svg>