<svg xmlns="http://www.w3.org/2000/svg" viewBox="0 0 24 21"><path d="M9,0v1H8v1H7v1H6v1H5v1H4v1H2v1H0v14h24V0H9z"/><path d="M9 1v1H8v1H7v1H6v1H5v1H4v1H2v1H0v12h13V1H9zm5 0v19h10V1H14z" fill="#167ffe"/><path d="M6 13H4v1H3v1h4v-1H6v-1zm-3-1h1v-1H2v-1H0v3h3v-1zM9 1v1h1v1h3V1H9zm1 4V4H8v1H7v1H6v1h2v1h5V5h-3zm11 8h-2v1h-1v1h4v-1h-1v-1zM15 2h1V1h-2v2h1V2zm4 5V6h-1V5h-1V4h-2v1h-1v3h3V7h2zm4 3v1h-2v1h1v1h2v-3h-1z" fill="#fff"/><path d="M0 15v5h13v-5H0zm14 0v5h10v-5H14z" fill="#0f0"/><path d="M11 10h-1V9H8V8H6V7H2v1H0v2h2v1h2v1h2v1h2v1h2v1h3v-5h-2zm12-5v1h-2v1h-2v1h-2v1h-2v1h-1v5h1v-1h2v-1h2v-1h2v-1h2v-1h1V5h-1z" fill="#f0f"/><path d="M9 17h1v-2H9v2zm-8 0h1v-2H1v2zm4 1h1v-2H5v2zm-2 2h1v-2H3v2zm4 0h1v-2H7v2zm4 0h1v-2h-1v2zm4-3h1v-2h-1v2zm8-2v2h1v-2h-1zm-4 3h1v-2h-1v2zm2 2h1v-2h-1v2zm-4 0h1v-2h-1v2z" fill="#00b900"/><path d="M23,3V2h-1V1h-2v1h-1v1h-1v1h6V3H23z" fill="#c8c8c8"/><g fill="#e1e1e1"><path d="M23,3V2h-1v1h-1v1h3V3H23z"/><path d="M21,1h1v1h-1V1z"/></g><path d="M20,2v1h2V2H20z" fill="#646464"/><path d="M21,2h1v1h-1V2z" fill="#969696"/><g fill="#0ff"><path d="M0 8v1h2V8H0zm8 4v1h2v-1H8z"/><path d="M6,11v1h2v-1H6z"/><path d="M4,10v1h2v-1H4z"/><path d="M2 9v1h2V9H2zm8 4v1h3v-1h-3zm13-5h1v1h-1V8zm-9 5h1v1h-1v-1z"/><path d="M15,12v1h2v-1H15z"/><path d="M17,11v1h2v-1H17z"/><path d="M19,10v1h2v-1H19z"/><path d="M21,9v1h2V9H21z"/></g><g fill="#7d00ff"><path d="M0 9v1h2V9H0zm8 4v1h2v-1H8z"/><path d="M6,12v1h2v-1H6z"/><path d="M4,11v1h2v-1H4z"/><path d="M2 10v1h2v-1H2zm8 4v1h3v-1h-3zm13-5h1v1h-1V9zm-9 5h1v1h-1v-1z"/><path d="M15,13v1h2v-1H15z"/><path d="M17,12v1h2v-1H17z"/><path d="M19,11v1h2v-1H19z"/><path d="M21,10v1h2v-1H21z"/></g><g fill="#ff0"><path d="M2 7v1h2V7H2zm6 3v1h2v-1H8z"/><path d="M4,8v1h2V8H4z"/><path d="M6 9v1h2V9H6zm4 2v1h3v-1h-3zm11-4v1h2V7h-2zm-7 4h1v1h-1v-1z"/><path d="M15 10v1h2v-1h-2zm4-2v1h2V8h-2z"/><path d="M17 9v1h2V9h-2zm6-3h1v1h-1V6z"/></g><g fill="#0f0"><path d="M8,11v1h2v-1H8z"/><path d="M6 10v1h2v-1H6zM2 8v1h2V8H2z"/><path d="M4 9v1h2V9H4zm6 3v1h3v-1h-3zm4 0h1v1h-1v-1z"/><path d="M15,11v1h2v-1H15z"/><path d="M17 10v1h2v-1h-2zm4-2v1h2V8h-2z"/><path d="M19 9v1h2V9h-2zm4-2h1v1h-1V7z"/></g></svg>