<svg xmlns="http://www.w3.org/2000/svg" viewBox="0 0 40 22"><path d="M3,1v21h34V1H3z"/><path d="M4,2v19h32V2H4z" fill="#167ffe"/><g fill="#d3af90"><path d="M25,10h1v1h-1V10z"/><path d="M23,11v2h-1v1h2v-1h1v-2H23z"/><path d="M22,10h1v1h-1V10z"/></g><path d="M28,16v3h1v1h-2v-2h-2v1h1v1h-2v-2h-2v1h1v1h-2v-2h-2v1h1v1h-2v-4H4v5h32v-5H28z" fill="#0f0"/><path d="M25,13v1h-3v-1h-1v2h1v1h3v-1h1v-2H25z" fill="#323232"/><g fill="#f8ece0"><path d="M27,10h1v1h-1V10z"/><path d="M30 9v2h-2v2h-1v1h-1v1h-1v1h-3v-1h-1v-1h-2v1h-1v5h2v-1h-1v-1h2v2h2v-1h-1v-1h2v2h2v-1h-1v-1h2v2h2v-1h-1v-3h1v-2h1v-2h1V9h-1z"/></g><path d="M34 2v1h-1v1h3V2h-2zm0 4v1h-1v1h2V7h1V6h-2zm-23 8H9v1H8v1h4v-1h-1v-1zm22 0h-1v1h-1v1h3v-1h-1v-1zm2-3h-2v1h-1v1h2v1h2v-4h-1v1zM5 3h1V2H4v2h1V3zm4 5V7H8V6H7V5H5v1H4v3h3V8h2zm9 3v-1h-3v1h-2v1h-2v1h1v1h5v-1h2v-1h-1v-1zm6 2h1v1h-1v-1zm-8-9h1V3h1V2h-3v1h1v1z" fill="#fff"/><path d="M21 2v1h-2v1h-2v1h-2v1h-2v1h-2v1H9v1H7v1H5v1H4v5h1v-1h2v-1h2v-1h2v-1h2v-1h2v-1h2V9h2V8h2V7h2V6h2V5h2V4h2V3h2V2H21z" fill="#f0f"/><path d="M31,7V6h-1V5h-2v1h-1v1h-1v1h6V7H31z" fill="#c8c8c8"/><path d="M29,6h1v1h-1V6z" fill="#969696"/><path d="M28,6h1v1h-1V6z" fill="#646464"/><g fill="#e1e1e1"><path d="M31,7V6h-1v1h-1v1h3V7H31z"/><path d="M29,5h1v1h-1V5z"/></g><path d="M13,4V3h-1V2h-2v1H9v1H8v1h6V4H13z" fill="#c8c8c8"/><path d="M11,3h1v1h-1V3z" fill="#969696"/><path d="M10,3h1v1h-1V3z" fill="#646464"/><g fill="#e1e1e1"><path d="M13,4V3h-1v1h-1v1h3V4H13z"/><path d="M11,2h1v1h-1V2z"/></g><path d="M5 18h1v-2H5v2zm8 0h1v-2h-1v2zm16 0h1v-2h-1v2zM9 19h1v-2H9v2zm24 0h1v-2h-1v2zm-16 0h1v-2h-1v2zm-2 2h1v-2h-1v2zm8 0h1v-2h-1v2zm8 0h1v-2h-1v2zm-20 0h1v-2h-1v2zm-4 0h1v-2H7v2zm28-2v2h1v-2h-1zm-8 1h1v1h-1v-1zm-8 0h1v1h-1v-1z" fill="#00b900"/><g fill="#e2cab5"><path d="M25,10h1v1h-1V10z"/><path d="M24 13h1v-2h-1v2z"/></g><g fill="#ff0"><path d="M11 8v1h2V8h-2zm-7 4h1v1H4v-1z"/><path d="M5 11v1h2v-1H5zm4-2v1h2V9H9z"/><path d="M7 10v1h2v-1H7zm16-8v1h2V2h-2z"/><path d="M21,3v1h2V3H21z"/><path d="M19,4v1h2V4H19z"/><path d="M17,5v1h2V5H17z"/><path d="M15,6v1h2V6H15z"/><path d="M13,7v1h2V7H13z"/></g><g fill="#0ff"><path d="M13 9v1h2V9h-2zm-9 5h1v1H4v-1z"/><path d="M5,13v1h2v-1H5z"/><path d="M7,12v1h2v-1H7z"/><path d="M9,11v1h2v-1H9z"/><path d="M11 10v1h2v-1h-2zm16-8v1h2V2h-2z"/><path d="M25,3v1h2V3H25z"/><path d="M23,4v1h2V4H23z"/><path d="M21,5v1h2V5H21z"/><path d="M19,6v1h2V6H19z"/><path d="M17,7v1h2V7H17z"/><path d="M15,8v1h2V8H15z"/></g><g fill="#0f0"><path d="M4,13h1v1H4V13z"/><path d="M5,12v1h2v-1H5z"/><path d="M7 11v1h2v-1H7zm4-2v1h2V9h-2z"/><path d="M9 10v1h2v-1H9zm16-8v1h2V2h-2z"/><path d="M23,3v1h2V3H23z"/><path d="M21,4v1h2V4H21z"/><path d="M19,5v1h2V5H19z"/><path d="M17,6v1h2V6H17z"/><path d="M15,7v1h2V7H15z"/><path d="M13,8v1h2V8H13z"/></g><g fill="#7d00ff"><path d="M13 10v1h2v-1h-2zm-9 5h1v1H4v-1z"/><path d="M5,14v1h2v-1H5z"/><path d="M7,13v1h2v-1H7z"/><path d="M9,12v1h2v-1H9z"/><path d="M11 11v1h2v-1h-2zm18-9v1h2V2h-2z"/><path d="M27,3v1h2V3H27z"/><path d="M25,4v1h2V4H25z"/><path d="M23,5v1h2V5H23z"/><path d="M21,6v1h2V6H21z"/><path d="M19,7v1h2V7H19z"/><path d="M17,8v1h2V8H17z"/><path d="M15,9v1h2V9H15z"/></g></svg>