<svg xmlns="http://www.w3.org/2000/svg" viewBox="0 0 40 21"  xmlns:v="https://vecta.io/nano"><path d="M7,5h1v1H7V5z" fill="#646464"/><path d="M6,5h1v1H6V5z" fill="#969696"/><g fill="#c8c8c8"><path d="M7,4h1v1H7V4z"/><path d="M9,6V5H8v1H7v1h3V6H9z"/></g><g fill="#e2cab5"><path d="M14,9h1v1h-1V9z"/><path d="M15,10h1v2h-1V10z"/></g><g fill="#0ff"><path d="M4,1h2v1H4V1z"/><path d="M6 2h1v1H6V2zm19 6h2v1h-2V8zm10 5h1v1h-1v-1z"/><path d="M33,12h2v1h-2V12z"/><path d="M31,11h2v1h-2V11z"/><path d="M29,10h2v1h-2V10z"/><path d="M27,9h2v1h-2V9z"/></g><g fill="#e1e1e1"><path d="M6,4h1v1H6V4z"/><path d="M5,5v1H4v1h3V6H6V5H5z"/></g><g fill="#7d00ff"><path d="M6,3h2v1H6V3z"/><path d="M4 2h2v1H4V2zm21 7h2v1h-2V9zm10 5h1v1h-1v-1z"/><path d="M33,13h2v1h-2V13z"/><path d="M31,12h2v1h-2V12z"/><path d="M29,11h2v1h-2V11z"/><path d="M27,10h2v1h-2V10z"/></g><g fill="#d3af90"><path d="M17,10h-1v3h2v-1h-1V10z"/><path d="M17,9h1v1h-1V9z"/></g><g fill="#ff0"><path d="M27 7h2v1h-2V7zm8 4h1v1h-1v-1z"/><path d="M33 10h2v1h-2v-1zm-4-2h2v1h-2V8z"/><path d="M31,9h2v1h-2V9z"/></g><g fill="#f0f"><path d="M35,10h1v1h-1V10z"/><path d="M33 9h2v1h-2V9zm-4-2h2v1h-2V7z"/><path d="M31,8h2v1h-2V8z"/></g><path d="M34 1v1h1v1h1V1h-2zm-3 12h-2v1h-1v1h4v-1h-1v-1zM8 13H7v1H6v1h3v-1H8v-1zm-2-1h2v-1H7v-1H5V9H4v4h2v-1zm29-8h-2v1h-1v1h-1v1h2v1h3V5h-1V4zm-8 8h2v-1h-2v-1h-2V9h-3v2h-1v1h2v1h4v-1zm-12 0h1v1h-1v-1z" fill="#fff"/><g fill="#0f0"><path d="M35,12h1v1h-1V12z"/><path d="M33,11h2v1h-2V11z"/><path d="M31 10h2v1h-2v-1zm-4-2h2v1h-2V8z"/><path d="M29 9h2v1h-2V9zm6 8h-1v-2h-7v2h-1v-2h-4v1h1v2h-1v1h-1v1h3v-2h1v2h3v-2h1v2h3v-2h1v2h3v-5h-1v2zm-5 1v-2h1v2h-1zm-19-1h-1v-2H4v3h1v2h3v-2h1v2h3v-1h-1v-1h1v-3h-1v2zm-5 1v-2h1v2H6zm10-1h2v1h-2v-1zm5 0h-2v2h-2v1h3v-2h1v-1zm-7 2v-1h1v-1h-2v3h3v-1h-2z"/></g><path d="M34 15h1v2h-1v-2zm-8 0h1v2h-1v-2zm-16 0h1v2h-1v-2zm20 1h1v2h-1v-2zM6 16h1v2H6v-2zm16 0h1v2h-1v-2zm2 2h1v2h-1v-2zm-8 0h1v2h-1v-2zm-8 0h1v2H8v-2zm20 0h1v2h-1v-2zm4 0h1v2h-1v-2zM4 18h1v2H4v-2zm8 1h1v1h-1v-1zm8 0h1v1h-1v-1z" fill="#00b900"/><g fill="#167ffe"><path d="M8,4h1v1H8V4z"/><path d="M9 5h1v1H9V5zm26-3h-2v1h-1v1h-1v1h-1v1h-1v1h2V6h1V5h1V4h2v1h1V3h-1V2z"/><path d="M14 9h1V8h-2V7h-2V6h-1v1H4v2h1v1h2v1h1v1H6v1H4v2h2v-1h1v-1h1v1h1v1h2v-2h-1v-2H9V8h1v2h2V9h1v1h-1v2h1v1h1v-1h1v-2h-1V9zm21 0v1h1V8h-3v1h2zm-2 5v-1h-2v1h1v1h3v-1h-2z"/><path d="M27 12v1h-4v-1h-2v-1h1v-1h-5v2h2v1h2v1h1v1h6v-1h1v-1h2v-1h-4zm4-5h2v1h-2V7z"/><path d="M15 9h2v1h-2V9zM5 5h1V3H4v3h1V5z"/></g><path d="M18,12v1h-3v-1h-1v2h1v1h3v-1h1v-2H18z" fill="#323232"/><g fill="#f8ece0"><path d="M12,9h1v1h-1V9z"/><path d="M21 14v-1h-2v1h-1v1h-3v-1h-1v-1h-1v-1h-1v-2h-2V8H9v3h1v2h1v2h1v3h-1v1h2v-2h2v1h-1v1h2v-2h2v1h-1v1h2v-2h2v1h-1v1h2v-5h-1z"/></g><path d="M6 1h1v1H6V1zm2 2h1v1H8V3z"/><path d="M7 2h1v1H7V2zm3 3h1v1h-1V5z"/><path d="M9 4h1v1H9V4zm4 3h2v1h-2V7z"/><path d="M11 6h2v1h-2V6zm22-5h1v1h-1V1zm-2 2h1v1h-1V3z"/><path d="M32 2h1v1h-1V2zm-3 3h1v1h-1V5z"/><path d="M30 4h1v1h-1V4zm-5 3h2v1h-2V7z"/><path d="M27 6h2v1h-2V6zm-9 3h4v1h-4V9z"/><path d="M15 8h3v1h-3V8zm7 0h3v1h-3V8zM3 21h34V0h-3v1h2v19H4V1h2V0H3v21z"/></svg>