<svg xmlns="http://www.w3.org/2000/svg" xmlns:xlink="http://www.w3.org/1999/xlink" viewBox="0 0 24 14"><path d="M24,14h-3v-2h-3v2h-4v-2h-4v2H6v-2H3v2H0V0h24V14z"/><g fill="#51774e"><use href="#B"/><path d="M3 3h2v1H3V3zm10 5h1v2h-1V8zm9-3h1v2h-1V5zM5 10H3v1H1V9h1V8H1V7h4v3z"/></g><use href="#C" fill="#cab983"/><g fill="#a8aaae"><path d="M23 3v1h-2v4h1v1h1v3h-2v-2h-1V3h3zM3 3h2v3H3V3zm9 0v7h-2v2H6V3h6zm7 0v7h-1v2h-4v-2h-1V3h6z"/><path d="M2 3v3h1v1h2v3H3v2H1V3h1zm20 2h1v3h-1V5z"/></g><path d="M13 1h5v1h-5V1zM7 1h5v1H7V1zm12 0h4v1h-4V1zM1 1h5v1H1V1z" fill="#edeff2"/><g fill="#4e4066"><use href="#B"/><path d="M3 3h2v1H3V3zm10 5h1v2h-1V8zm9-3h1v2h-1V5zM5 10H3v1H1V9h1V8H1V7h4v3z"/></g><use href="#C" fill="#edeff2"/><defs ><path id="B" d="M23 4h-2v5h1v1h1v2h-2v-2h-1V3h3v1zM1 4h1v2H1V4zm7 4h3v2h-1v2H9v-2H6V3h2v5zM3 5h2v1H3V5zm6 0h1V3h2v3H9V5zm10 5h-1v2h-1v-1h-1-2v-1h2V9h1V7h-2V6h-1v1h-1V3h6v7z"/><path id="C" d="M21 3h2v1h-2V3zM1 5h1v1H1V5zm5-2h2v2H6V3zm12 0v1h1v2h-3V5h-3V3h5zM1 9h2v2H1V9zm15 1V9h2v3h-1v-1h-3v-1h2zm5 1h2v1h-2v-1zm-8-5h1v1h-1V6zM7 7h1v1h3v2H6V6h1v1zM4 8h1v1H4V8zm18-2h1v1h-1V6z"/></defs></svg>