<svg xmlns="http://www.w3.org/2000/svg" viewBox="0 0 34 14"><path d="M34,14h-4v-2h-5v2h-5v-2h-6v2H9v-2H4v2H0V0h34V14z"/><g fill="#4e4066"><path d="M1 3v9h3v-2h5v2h5v-2h1V3H1zm3 6V8H3V4h7v4H9v1H4z"/><path d="M4 5h5v3H4V5zm15-2v7h1v2h5v-2h5v2h3V3H19zm6 6V8h-1V4h7v4h-1v1h-5z"/><path d="M25 5h5v3h-5V5zm-9-2h2v7h-2V3z"/></g><path d="M10 1h14v1H10V1zM1 1h8v1H1V1zm24 0h8v1h-8V1z" fill="#edeff2"/><g fill="#a8aaae"><path d="M13 4v1h1v1h-2V5h-1V4h-1v3h1v1h2V7h1v1h1V4h-2zM8 5h1v2H8V5zM1 5h2v1H1V5zm7 4h2v1H8V9zM2 7H1v2h1v1h1V8H2V7zm27 0V6h1V5h-3v2h2zm-4-2h1v1h-1V5zm-3 1V5h1V3h-3v1h-1v1h2v3h1V7h2V6h-2zm4 3h4v1h-4V9z"/><path d="M31 7v1h-1v1h2V8h1V7h-2zm-5 0h1v1h-1V7zM16 4h1v1h-1V4zm0 2h1v4h-1V6zm6 4h1v1h1V8h-2v2zm-2 1h2v1h-2v-1zm-1-3h1v2h-1V8zM4 3h1v1H4V3zm24 0h2v1h-2V3z"/></g><g fill="#edeff2"><path d="M12 5h2v1h-2V5zm2 4h-1v2h-2v1h3v-2h1V8h-1v1zm-3 1V7h-1v1H9v1h1v1h1z"/><path d="M8 7V6H7V5H4v1h1v1H4v1h5V7H8zM7 9h1v1H7V9zM2 9H1v3h2v-2H2V9zM1 6h2v1H1V6zm28 0h1v1h-1V6zM19 6h1v1h-1V6zm11 4h2v2h-2v-2zm2-5v1h-1v1h2V5h-1zm-2-2h1v1h-1V3zM3 3h1v1H3V3zm21 7h2V9h-1V8h-1v2z"/><path d="M22 7h2v1h-2V7zm-6-4h1v1h-1V3zm0 2h1v1h-1V5zm1 2h1v1h-1V7zm0 2h1v1h-1V9zm9-3h-1v2h1V7h1V5h-1v1zm-3-3v2h-1v1h2V4h3V3h-4z"/></g></svg>