<svg xmlns="http://www.w3.org/2000/svg" viewBox="0 0 24 14"><path d="M0 14h3v-2h3v2h4v-2h4v2h4v-2h3v2h3V0H0z"/><g fill="#a8aaae"><path d="M1 3v1h2v4H2v1H1v3h2v-2h1V3zm18 0h2v3h-2zm-7 0v7h2v2h4V3zM5 3v7h1v2h4v-2h1V3z"/><path d="M22 3v3h-1v1h-2v3h2v2h2V3zM1 5h1v3H1z"/></g><path d="M6 1h5v1H6zm6 0h5v1h-5zM1 1h4v1H1zm17 0h5v1h-5z" fill="#edeff2"/><g fill="#4e4066"><path d="M1 4h2v5H2v1H1v2h2v-2h1V3H1zm21 0h1v2h-1zm-6 4h-3v2h1v2h1v-2h3V3h-2zm3-3h2v1h-2zm-4 0h-1V3h-2v3h3zM5 10h1v2h1v-1h1 2v-1H8V9H7V7h2V6h1v1h1V3H5z"/><path d="M19 3h2v1h-2zm-9 5h1v2h-1zM1 5h1v2H1zm18 5h2v1h2V9h-1V8h1V7h-4z"/></g><path d="M1 3h2v1H1zm21 2h1v1h-1zm-6-2h2v2h-2zM6 3v1H5v2h3V5h3V3zm15 6h2v2h-2zM8 10V9H6v3h1v-1h3v-1zm-7 1h2v1H1zm9-5h1v1h-1zm7 1h-1v1h-3v2h5V6h-1zm2 1h1v1h-1zM1 6h1v1H1z" fill="#edeff2"/></svg>