<svg xmlns="http://www.w3.org/2000/svg" viewBox="0 0 42 22"  xmlns:v="https://vecta.io/nano"><path d="M4 18v2h34v-2H4zm32-2v-2h-4v-2h-2v-2h2V8h4V6h-2V4h-4V2H18v2h-4v2h-2v2h-2v2H8v4H6v2h30z" fill="#947db0"/><path d="M20,16h1v1h-1V16z" fill="#edd3fd"/><g fill="#dea8ff"><path d="M20,17h1v1h-1V17z"/><path d="M21,16h1v1h-1V16z"/></g><path d="M21,17h1v1h-1V17z" fill="#c260ff"/><g fill="#64438e"><path d="M38 20H4v-2H2v2H0v2h42v-2h-2v-2h-2v2zM8 14v-4H6v4h2z"/><path d="M10 10V8H8v2h2zm26-6h-2v2h2V4z"/><path d="M34,2h-4v2h4V2z"/><path d="M18,0v2h12V0H18z"/><path d="M14,2v2h4V2H14z"/><path d="M12 4v2h-2v2h2V6h2V4h-2zm28 6V8h-2V6h-2v2h-4v2h-2v2h2v2h4v-2h-2v-2h4v2h2v2h2v-4h-2z"/><path d="M20 18v-2H6v-2H4v4h16zm16-2H22v2h16v-4h-2v2z"/></g><g fill="#dea8ff"><path d="M18,10v2h1v1h1v1h1v-4H18z"/><path d="M23,8V7h-1V6h-1v4h3V8H23z"/></g><path d="M21,10v4h1v-1h1v-1h1v-2H21z" fill="#c260ff"/><path d="M20,6v1h-1v1h-1v2h3V6H20z" fill="#edd3fd"/><g fill="#64438e"><path d="M20,14v1h2v-1H20z"/><path d="M22,13h1v1h-1V13z"/><path d="M23 12h1v1h-1v-1zm-5 0h1v1h-1v-1z"/><path d="M19 13h1v1h-1v-1zm-1-5h-1v4h1V8zm6 0v4h1V8h-1zm-2-2h1v1h-1V6z"/><path d="M18,7h1v1h-1V7z"/><path d="M19 6h1v1h-1V6zm4 1h1v1h-1V7z"/><path d="M22 6V5h-2v1h2z"/></g></svg>