<svg xmlns="http://www.w3.org/2000/svg" viewBox="0 0 42 22"><path d="M42 14v-4h-2V8h-2V6h-2V4h-2V2h-4V0H18v2h-4v2h-2v2h-2v2H8v2H6v4H4v4H2v2H0v2h42v-2h-2v-2h-2v-4h-2v-2h-2v-2h4v2h2v2z" fill="#64438e"/><path d="M4 18v2h34v-2H4zm32-2v-2h-4v-2h-2v-2h2V8h4V6h-2V4h-4V2H18v2h-4v2h-2v2h-2v2H8v4H6v2h30z" fill="#947db0"/><path d="M20 16h2v2h-2z" fill="#edd3fd"/><g fill="#dea8ff"><path d="M20,17h1v1h-1V17z"/><path d="M21,16h1v1h-1V16z"/></g><path d="M21,17h1v1h-1V17z" fill="#c260ff"/><path d="M24 8V7h-1V6h-1V5h-2v1h-1v1h-1v1h-1v4h1v1h1v1h1v1h2v-1h1v-1h1v-1h1V8z" fill="#64438e"/><g fill="#dea8ff"><path d="M18,10v2h1v1h1v1h1v-4H18z"/><path d="M23,8V7h-1V6h-1v4h3V8H23z"/></g><path d="M21,10v4h1v-1h1v-1h1v-2H21z" fill="#c260ff"/><path d="M20,6v1h-1v1h-1v2h3V6H20z" fill="#edd3fd"/></svg>