<svg xmlns="http://www.w3.org/2000/svg" viewBox="0 0 42 22"  xmlns:v="https://vecta.io/nano"><path d="M4 18v2h34v-2H4zm32-2v-2h-4v-2h-2v-2h2V8h4V6h-2V4h-4V2H18v2h-4v2h-2v2h-2v2H8v4H6v2h30z" fill="#b135ff"/><g fill="#ffa3ff"><path d="M19,8h1v1h-1V8z"/><path d="M20,7h1v1h-1V7z"/></g><g fill="#cb5bff"><path d="M20,11h1v1h-1V11z"/><path d="M19 10h1v1h-1v-1zm4-1v1h2V9h-2z"/></g><path d="M23,8h1v1h-1V8z" fill="#6f16e2"/><g fill="#3a2b77"><path d="M42 22v-2h-2v-2h-2v2H4v-2H2v2H0v2h42zM8 14v-4H6v4h2z"/><path d="M10 10V8H8v2h2zm26-6h-2v2h2V4z"/><path d="M34,2h-4v2h4V2z"/><path d="M30,0H18v2h12V0z"/><path d="M14,2v2h4V2H14z"/><path d="M12 4v2h-2v2h2V6h2V4h-2zm28 6V8h-2V6h-2v2h-4v2h-2v2h2v2h4v-2h-2v-2h4v2h2v2h2v-4h-2z"/><path d="M20 18v-2H6v-2H4v4h16zm16-2H23v2h15v-4h-2v2zm-14-6h1v1h-1v-1zm1-5h-1v2h1V5z"/><path d="M23 7h1v1h-1V7zm2 2h1v1h-1V9z"/><path d="M24 8h1v1h-1V8zm0 2h1v1h-1v-1zm-6-2h1v1h-1V8zm0 2h1v1h-1v-1zm2 4h1v-2h-1v2z"/><path d="M19,11h1v1h-1V11z"/></g><g fill="#47289b"><path d="M21,4h1v1h-1V4z"/><path d="M21,5h-1v2h1V5z"/><path d="M19 8h1V7h-1v1zm2 6h1v1h-1v-1z"/><path d="M22 14h1v-2h-1v2z"/><path d="M23 11v1h1v-1h-1zm-6-2h1v1h-1V9z"/></g><path d="M22 9h1v1h-1V9zm-2 7h1v1h-1v-1z" fill="#f37aff"/><g fill="#ffc9ff"><path d="M20,8h1v1h-1V8z"/><path d="M21 9h1v1h-1V9zm-3 0v1h2V9h-2zm2 8h1v1h-1v-1z"/></g><g fill="#fff"><path d="M20,9h1v1h-1V9z"/><path d="M21 5v4h1V5h-1zm0 11h1v1h-1v-1z"/></g><path d="M22 8h1v1h-1V8zm-1 9h1v1h-1v-1z" fill="#5d24bf"/><g fill="#8000ff"><path d="M20 10h1v1h-1v-1zm2-3h1v1h-1V7z"/><path d="M21 14h1v-3h-1v3zm1 2h1v1h-1v-1z"/></g><g fill="#b135ff"><path d="M21,10h1v1h-1V10z"/><path d="M22,11h1v1h-1V11z"/><path d="M23 10h1v1h-1v-1zm-1 7h1v1h-1v-1z"/></g></svg>