<svg xmlns="http://www.w3.org/2000/svg" viewBox="0 0 42 22"><path d="M42 14v-4h-2V8h-2V6h-2V4h-2V2h-4V0H18v2h-4v2h-2v2h-2v2H8v2H6v4H4v4H2v2H0v2h42v-2h-2v-2h-2v-4h-2v-2h-2v-2h4v2h2v2z" fill="#3a2b77"/><g fill="#b135ff"><path d="M4 18v2h34v-2H4zm32-2v-2h-4v-2h-2v-2h2V8h4V6h-2V4h-4V2H18v2h-4v2h-2v2h-2v2H8v4H6v2h30z"/><path d="M20 15.9h3V18h-3z"/></g><path d="M25 9V8h-1V7h-1V5h-1V4h-1v1h-1v2h-1v1h-1v1h-1v1h1v1h1v1h1v2h1v1h1v-1h1v-2h1v-1h1v-1h1V9z" fill="#47289b"/><path d="M20,11h3v1h-3V11z" fill="#cb5bff"/><path d="M22,8h2v1h-2V8z" fill="#6f16e2"/><g fill="#3a2b77"><path d="M22 10h1v1h-1v-1zm0-5h1v2h-1V5z"/><path d="M23 7h1v1h-1V7zm2 2h1v1h-1V9z"/><path d="M24 8h1v1h-1V8zm0 2h1v1h-1v-1zm-6-2h1v1h-1V8zm0 2h1v1h-1v-1zm2 4h1v-2h-1v2z"/><path d="M19,11h1v1h-1V11z"/></g><path d="M21,9h3v1h-3V9z" fill="#f37aff"/><path d="M22,7h1v2h-1V7z" fill="#5d24bf"/><g fill="#8000ff"><path d="M20 10h2v1h-2v-1zm2-3h1v1h-1V7z"/><path d="M21,11h1v3h-1V11z"/></g><g fill="#b135ff"><path d="M21,9h1v2h-1V9z"/><path d="M22,11h1v1h-1V11z"/><path d="M23,9h1v2h-1V9z"/></g><path d="M20 7v1h-1v2h3V7z" fill="#ffa3ff"/><path d="M20,8h1v2h-1V8z" fill="#ffc9ff"/><path d="M19 9.5h1V11h-1V9.5zm4-.5v1h2V9h-2z" fill="#cb5bff"/><path d="M21 5h1v5h-1z" fill="#fff"/><path d="M18 9h4v1h-4z" fill="#ffc9ff"/><path d="M20 9h1v1h-1z" fill="#fff"/><path d="M20 16h1v1h-1z" fill="#f37aff"/><path d="M20 17h1v1h-1z" fill="#ffc9ff"/><path d="M21 16h1v1h-1z" fill="#fff"/><path d="M21 17h1v1h-1z" fill="#5d24bf"/><path d="M22 16h1v1h-1z" fill="#8000ff"/><path d="M22 17h1v1h-1z" fill="#b135ff"/></svg>