<svg xmlns="http://www.w3.org/2000/svg" viewBox="0 0 34 22"><path d="M10 8V6h2V4h2V2h2V0h8v2h2v2h2v2h2v2h2v4h-2v-2h-4v2h2v2h2v4h2v2h2v2H0v-2h2v-2h2v-4h2v-4h2V8h2z" fill="#3a2b77"/><path d="M30 18v2H4v-2h26zM6 16v-2h3v-1h1v-2h1v-1h2V9h1V8h-1V7h-1V6h2V4h2V2h8v2h2v2h2v2h-4v6h4v2H6z" fill="#b135ff"/><g fill="#8000ff"><path d="M10 10v1H9v2H8v-3h2z"/><path d="M10 8h3v1h-2v1h-1V8z"/></g><path d="M8 10h1v1H8z" fill="#f37aff"/><path d="M10 8h1v1h-1z" fill="#ffc9ff"/><g fill="#b135ff"><path d="M9 10h1v1H9z"/><path d="M10 9h1v1h-1z"/></g><path d="M13 8v1h-2V8h2z" fill="#f37aff"/></svg>