<svg xmlns="http://www.w3.org/2000/svg" viewBox="0 0 34 22"><path d="M24 8V6h-2V4h-2V2h-2V0h-8v2H8v2H6v2H4v2H2v4h2v-2h4v2H6v2H4v4H2v2H0v2h34v-2h-2v-2h-2v-4h-2v-4h-2V8h-2z" fill="#3a2b77"/><path d="M4 18v2h26v-2H4zm24-2v-2h-3v-1h-1v-2h-1v-1h-2V9h-1V8h1V7h1V6h-2V4h-2V2h-8v2H8v2H6v2h4v6H6v2h22z" fill="#b135ff"/><g fill="#8000ff"><path d="M24 10v1h1v2h1v-3h-2z"/><path d="M24 8h-3v1h2v1h1V8z"/></g><path d="M25 10h1v1h-1z" fill="#f37aff"/><path d="M23 8h1v1h-1z" fill="#fff"/><g fill="#cb5bff"><path d="M24 10h1v1h-1z"/><path d="M23 9h1v1h-1z"/></g><path d="M21 8v1h2V8h-2z" fill="#ffc9ff"/></svg>