<svg xmlns="http://www.w3.org/2000/svg" viewBox="0 0 34 22"><path d="M24 8V6h-2V4h-2V2h-2V0h-8v2H8v2H6v2H4v2H2v4h2v-2h4v2H6v2H4v4H2v2H0v2h34v-2h-2v-2h-2v-4h-2v-4h-2V8h-2z" fill="#501e80"/><path d="M4 18v2h26v-2H4zm24-2v-2h-2v-4h-2V8h-2V6h-2V4h-2V2h-8v2H8v2H6v2h4v6H6v2h22z" fill="#fa34f3"/><g fill="#870075"><path d="M26 10h-2V8h-2V7h-1v2h1v2h1v1h1v1h1v1h1v-4z"/><path d="M26 14v1h2v-1h-2z"/></g><path d="M22 18v2h2v-2h-2zm4 0v2h2v-2h-2zm-8 0v2h2v-2h-2zm-8 0v2h2v-2h-2zm-4 0v2h2v-2H6zm8 0v2h2v-2h-2zm9-7h-1v5h2v-4h-1v-1zm-5-7v12h2V4h-2zm-8-2v14h2V2h-2zm4 0v14h2V2h-2zm12 13v1h2v-1h-2zM6 14v2h2v-2H6zm0-8v2h2V6H6z" fill="#faaff3"/><path d="M24 10V8h-2v1h1v2h1v1h1v1h1v-3h-2z" fill="#d700c1"/><path d="M25 12h1v1h-1z" fill="#9a298b"/><path d="M25 11h1v1h-1z" fill="#ffc8ff"/><path d="M25 10h1v1h-1z" fill="#fff"/><path d="M24 10h1v1h-1zm-1-2h1v1h-1z" fill="#f0f"/></svg>