<svg xmlns="http://www.w3.org/2000/svg" viewBox="0 0 42 22"  xmlns:v="https://vecta.io/nano"><path d="M22 18v2h2v-2h-2zm-12 0v2h2v-2h-2zm4 0v2h2v-2h-2zm16 0v2h2v-2h-2zm-4 0v2h2v-2h-2zM6 18v2h2v-2H6zm28 0v2h2v-2h-2zm-16 0v2h2v-2h-2zm12-6v4h2v-4h-2zM10 8v8h2V8h-2zm20-4v6h2V4h-2zM14 4v12h2V4h-2zm8-2v14h2V2h-2zm4 0v14h2V2h-2zm-8 0v14h2V2h-2zM6 14v2h2v-2H6zm28 0v2h2v-2h-2zm0-8v2h2V6h-2z" fill="#faaff3"/><path d="M20 18v2h2v-2h-2zM8 18v2h2v-2H8zm8 0v2h2v-2h-2zm-4 0v2h2v-2h-2zm20 0v2h2v-2h-2zm-8 0v2h2v-2h-2zm4 0v2h2v-2h-2zM4 18v2h2v-2H4zm32 0v2h2v-2h-2zm-4-4v2h2v-2h-2zM8 10v6h2v-6H8zm4-4v10h2V6h-2zm4-2v12h2V4h-2zm4-2v14h2V2h-2zm4 0v14h2V2h-2zm4 0v14h2V2h-2zm4 2v4h2V4h-2z" fill="#fa34f3"/><g fill="#501e80"><path d="M42 22v-2h-2v-2h-2v2H4v-2H2v2H0v2h42zM8 14v-4H6v4h2z"/><path d="M10 10V8H8v2h2zm26-6h-2v2h2V4z"/><path d="M34,2h-4v2h4V2z"/><path d="M30,0H18v2h12V0z"/><path d="M14,2v2h4V2H14z"/><path d="M12 4v2h-2v2h2V6h2V4h-2zm28 6V8h-2V6h-2v2h-4v2h-2v2h2v2h4v-2h-2v-2h4v2h2v2h2v-4h-2z"/><path d="M20 18v-2H6v-2H4v4h16zm16-2H23v2h15v-4h-2v2z"/></g><path d="M22,12h1v1h-1V12z" fill="#9a298b"/><g fill="#ff62ff"><path d="M20 12h1v1h-1v-1zm5-5h1v1h-1V7zm-5 0v1h3V7h-3zm-2 2h1v2h-1V9z"/><path d="M19 11h1v1h-1v-1zm-2-3h1v1h-1V8z"/></g><g fill="#d700c1"><path d="M24 11h1V9h-1v2z"/><path d="M23 11h1v1h-1v-1zm2-3h1v1h-1V8zm-2-1h1v1h-1V7zm-4 0h1v1h-1V7zm2 2h-2v2h1v1h1V9h1V8h-1v1z"/><path d="M18 8h1v1h-1V8zm2 8h1v1h-1v-1z"/></g><path d="M22 6h1v1h-1V6zm-1 6h1v-2h-1v2zm-4-5h1v1h-1V7zm3-1h1v1h-1V6zm2 2h1v1h-1V8zm-3 0h1v1h-1V8zm1 9h1v1h-1v-1z" fill="#ffc8ff"/><g fill="#fff"><path d="M21 6h1v1h-1V6zm0 3h1v1h-1V9z"/><path d="M20 8h1v1h-1V8zm-2-1h1v1h-1V7zm3 9h1v1h-1v-1z"/></g><g fill="#870075"><path d="M18,9h-1v2h1V9z"/><path d="M18,11h1v1h-1V11z"/><path d="M19,12h1v1h-1V12z"/><path d="M20 13h1v1h-1v-1zm-3-6h-1v2h1V7z"/><path d="M26 7v2h1V7h-1zm-5 7h1v1h-1v-1z"/><path d="M25 11h1V9h-1v2z"/><path d="M24,11h1v1h-1V11z"/><path d="M23,12h1v1h-1V12z"/><path d="M22 13h1v1h-1v-1zm-3-6V6h-2v1h2z"/><path d="M24 6V5h-5v1h5z"/><path d="M26 7V6h-2v1h2zm-5 10h1v1h-1v-1z"/></g><g fill="#ff96ff"><path d="M23,6h1v1h-1V6z"/><path d="M24 7h1v1h-1V7zm-5-1h1v1h-1V6zm3 6h-1v2h1v-2zm0 4h1v1h-1v-1z"/></g><path d="M23 8v1h-1v3h1v-1h1V9h1V8h-2zm-1 9h1v1h-1v-1z" fill="#f0f"/></svg>