<svg xmlns="http://www.w3.org/2000/svg" viewBox="0 0 42 22"><path d="M42 14v-4h-2V8h-2V6h-2V4h-2V2h-4V0H18v2h-4v2h-2v2h-2v2H8v2H6v4H4v4H2v2H0v2h42v-2h-2v-2h-2v-4h-2v-2h-2v-2h4v2h2v2z" fill="#501e80"/><path d="M36 16v-2h-4v-2h-2v-2h2V8h4V6h-2V4h-4V2H18v2h-4v2h-2v2h-2v2H8v4H6v2zM4 18h34v2H4z" fill="#fa34f3"/><path d="M22 18v2h2v-2h-2zm-12 0v2h2v-2h-2zm4 0v2h2v-2h-2zm16 0v2h2v-2h-2zm-4 0v2h2v-2h-2zM6 18v2h2v-2H6zm28 0v2h2v-2h-2zm-16 0v2h2v-2h-2zm12-6v4h2v-4h-2zM10 8v8h2V8h-2zm20-4v6h2V4h-2zM14 4v12h2V4h-2zm8-2v14h2V2h-2zm4 0v14h2V2h-2zm-8 0v14h2V2h-2zM6 14v2h2v-2H6zm28 0v2h2v-2h-2zm0-8v2h2V6h-2z" fill="#faaff3"/><path d="M20 16h1v1h-1z" fill="#d700c1"/><path d="M20 17h1v1h-1z" fill="#ffc8ff"/><path d="M21 16h1v1h-1z" fill="#fff"/><path d="M21 17h1v1h-1z" fill="#870075"/><path d="M22 16h1v1h-1z" fill="#ff96ff"/><path d="M22 17h1v1h-1z" fill="#f0f"/><path d="M26 7V6h-2V5h-5v1h-2v1h-1v2h1v2h1v1h1v1h1v1h1v1h1v-1h1v-1h1v-1h1v-1h1V9h1V7z" fill="#870075"/><path d="M24 7V6h-5v1h-2v2h1v2h1v1h1v1h1v1h1v-1h1v-1h1v-1h1V9h1V7z" fill="#f0f"/><path d="M22,12h1v1h-1V12z" fill="#9a298b"/><g fill="#ff62ff"><path d="M20 12h1v1h-1v-1zm5-5h1v1h-1V7zm-5 0v1h3V7h-3zm-2 2h1v2h-1V9z"/><path d="M19 11h1v1h-1v-1zm-2-3h1v1h-1V8z"/></g><g fill="#d700c1"><path d="M24 11h1V9h-1v2z"/><path d="M23 11h1v1h-1v-1zm2-3h1v1h-1V8zm-2-1h1v1h-1V7zm-4 0h1v1h-1V7zm2 2h-2v2h1v1h1V9h1V8h-1v1z"/><path d="M18,8h1v1h-1V8z"/></g><path d="M20 6h3v1h-3V6zm1 6h1V9h-1v3zm-4-5h2v1h-2V7zm5 1h1v1h-1V8zm-3 0h2v1h-2V8z" fill="#ffc8ff"/><g fill="#fff"><path d="M21 6h1v1h-1V6zm0 3h1v1h-1V9z"/><path d="M20 8h1v1h-1V8zm-2-1h1v1h-1V7z"/></g><g fill="#ff96ff"><path d="M23,6h1v1h-1V6z"/><path d="M24 7h1v1h-1V7zm-5-1h1v1h-1V6zm3 6h-1v2h1v-2z"/></g><path d="M23,8v1h-1v3h1v-1h1V9h1V8H23z" fill="#f0f"/></svg>