<svg xmlns="http://www.w3.org/2000/svg" viewBox="0 0 34 22"><path d="M10 8V6h2V4h2V2h2V0h8v2h2v2h2v2h2v2h2v4h-2v-2h-4v2h2v2h2v4h2v2h2v2H0v-2h2v-2h2v-4h2v-4h2V8h2z" fill="#501e80"/><path d="M30 18v2H4v-2h26zM6 16v-2h2v-4h2V8h2V6h2V4h2V2h8v2h2v2h2v2h-4v6h4v2H6z" fill="#fa34f3"/><g fill="#870075"><path d="M8 10h2V8h2V7h1v2h-1v2h-1v1h-1v1H9v1H8v-4z"/><path d="M8 14v1H6v-1h2z"/></g><path d="M12 18v2h-2v-2h2zm-4 0v2H6v-2h2zm8 0v2h-2v-2h2zm8 0v2h-2v-2h2zm4 0v2h-2v-2h2zm-8 0v2h-2v-2h2zm-9-7h1v5h-2v-4h1v-1zm5-7v12h-2V4h2zm8-2v14h-2V2h2zm-4 0v14h-2V2h2zM8 15v1H6v-1h2zm20-1v2h-2v-2h2zm0-8v2h-2V6h2z" fill="#faaff3"/><path d="M10 10V8h2v1h-1v2h-1v1H9v1H8v-3h2z" fill="#ff62ff"/><path d="M8 12h1v1H8z" fill="#ff96ff"/><path d="M8 11h1v1H8zm3-3h1v1h-1z" fill="#ffc8ff"/><path d="M8 10h1v1H8z" fill="#fff"/><path d="M9 10h1v1H9z" fill="#d700c1"/><path d="M10 8h1v1h-1z" fill="#fff"/><path d="M10 9h1v1h-1z" fill="#d700c1"/></svg>