<svg xmlns="http://www.w3.org/2000/svg" viewBox="0 0 42 22"><path d="M32 8V6h-2V4h-2V2h-4V0H12v2H8v2H6v2H4v2H2v2H0v4h2v-2h2v-2h4v2H6v2H4v4H2v2H0v2h42v-2h-2v-2h-2v-4h-2v-4h-2V8h-2z" fill="#501e80"/><path d="M4 18v2h34v-2H4zm4-2h28v-2h-2v-4h-2V8h-2V6h-2V4h-4V2H12v2H8v2H6v2h4v2h2v2h-2v2H6v2h2z" fill="#fa34f3"/><path d="M22 18v2h2v-2h-2zm8 0v2h2v-2h-2zm4 0v2h2v-2h-2zm-8 0v2h2v-2h-2zm-16 0v2h2v-2h-2zm4 0v2h2v-2h-2zm-8 0v2h2v-2H6zm12 0v2h2v-2h-2zm-8-6v4h2v-4h-2zm20-4v8h2V8h-2zM10 4v6h2V4h-2zm16 0v12h2V4h-2zm-4-2v14h2V2h-2zm-8 0v14h2V2h-2zm4 0v14h2V2h-2zm16 12v2h2v-2h-2zM6 14v2h2v-2H6zm0-8v2h2V6H6z" fill="#faaff3"/></svg>