<svg xmlns="http://www.w3.org/2000/svg" viewBox="0 0 42 22"><path d="M42 14v-4h-2V8h-2V6h-2V4h-2V2h-4V0H18v2h-4v2h-2v2h-2v2H8v2H6v4H4v4H2v2H0v2h42v-2h-2v-2h-2v-4h-2v-2h-2v-2h4v2h2v2z" fill="#009600"/><path d="M36 16v-2h-4v-2h-2v-2h2V8h4V6h-2V4h-4V2H18v2h-4v2h-2v2h-2v2H8v4H6v2zM4 18h34v2H4z" fill="#51ffa8"/><path d="M22 18v2h2v-2h-2zm-12 0v2h2v-2h-2zm4 0v2h2v-2h-2zm16 0v2h2v-2h-2zm-4 0v2h2v-2h-2zM6 18v2h2v-2H6zm28 0v2h2v-2h-2zm-16 0v2h2v-2h-2zm12-6v4h2v-4h-2zM10 8v8h2V8h-2zm20-4v6h2V4h-2zM14 4v12h2V4h-2zm8-2v14h2V2h-2zm4 0v14h2V2h-2zm-8 0v14h2V2h-2zM6 14v2h2v-2H6zm28 0v2h2v-2h-2zm0-8v2h2V6h-2z" fill="#e1fff1"/><path d="M26 6V5h-1V4h-1V3h-4v1h-1v1h-1v1h-1v6h1v1h1v1h1v1h4v-1h1v-1h1v-1h1V6zm-6 10h4v2h-4z" fill="#009600"/><g fill="#fff"><path d="M25 6V5h-1V4h-4v1h-1v1h-1v6h1v1h1v1h4v-1h1v-1h1V6z"/><path d="M21 10h1v1h-1v-1zm-1-3h1V6h1V5h-2v1h-1v2h-1v2h1V9h1V7zm0 6v1h4v-1h-4z"/><path d="M24,12h1v1h-1V12z"/><path d="M25 12h1v-2h-1v2zm0-6v2h1V6h-1zm-2-1h1v1h-1V5z"/></g><g fill="#51ffa8"><path d="M19 9v1h2V9h-2zm-1 2v1h2v-1h-2zm3 1h1v1h-1v-1zm3-2h1v1h-1v-1z"/><path d="M21 8h1v1h-1V8zm-2-3h1v1h-1V5z"/></g><path d="M18 5h1v1h-1V5zm-1 2h1v1h-1V7zm2 6h1v1h-1v-1zm7-7v2h1V6h-1zm-5-3v1h3V3h-3zm-4 6h1v1h-1V9zm9 0h1v1h-1V9zm-5 5v1h3v-1h-3z" fill="#1e661e"/><g fill="#ffc4e1"><path d="M24 9h1v1h-1V9zm-3-3h1v1h-1V6z"/><path d="M22,7h1v1h-1V7z"/></g><g fill="#0f0"><path d="M22 8v1h3V8h-3zm-1 3v1h2v-1h-2z"/><path d="M19 12v1h2v-1h-2zm3 4h1v1h-1v-1z"/></g><g fill="#33297c"><path d="M17 6h1v1h-1V6zm0 4h1v1h-1v-1zm9 0h1v1h-1v-1zm-2 3h1v1h-1v-1zm2-5h1v1h-1V8zm-6-5h1v1h-1V3z"/><path d="M19 4h1v1h-1V4zm4 13h1v1h-1v-1z"/></g><g fill="#815382"><path d="M17 11h1v1h-1v-1zm7-7h1v1h-1V4z"/><path d="M25 5h1v1h-1V5zm1 6h1v1h-1v-1z"/><path d="M25 12h1v1h-1v-1zm-7 0h1v1h-1v-1zm2 2h1v1h-1v-1zm-3-6h1v1h-1V8zm5 9h1v1h-1v-1z"/></g><g fill="#54acff"><path d="M20 4h1v1h-1V4zm-2 2h1v1h-1V6zm5 5h1v1h-1v-1zm-1-2h1v1h-1V9zm2-4v2h1V5h-1z"/><path d="M23 7h1v1h-1V7zm-3 1h1v1h-1V8zm0 8h1v1h-1v-1z"/></g><g fill="#ff93c9"><path d="M21,7h1v1h-1V7z"/><path d="M22 6h1v1h-1V6zm1 10h1v1h-1v-1zm-3 1h1v1h-1v-1z"/></g><g fill="#baffff"><path d="M18 7h1v1h-1V7zm7 1v2h1V8h-1zm-1 1h-1v1h-1v1h2V9z"/><path d="M24,11h1v1h-1V11z"/><path d="M22 12v1h2v-1h-2zm-2-1h1v1h-1v-1z"/><path d="M18 10v1h2v-1h-2zm6-3h1v1h-1V7zm-4 0h1v1h-1V7zm4-2V4h-3v1h3zm-3 11h1v1h-1v-1z"/></g><g fill="#2b59ff"><path d="M20,10h1v1h-1V10z"/><path d="M21 9h1v1h-1V9zm1-4h1v1h-1V5z"/><path d="M23 6h1v1h-1V6zm-2 11h1v1h-1v-1z"/></g></svg>