<svg xmlns="http://www.w3.org/2000/svg" viewBox="0 0 34 22"><path d="M10 8V6h2V4h2V2h2V0h8v2h2v2h2v2h2v2h2v4h-2v-2h-4v2h2v2h2v4h2v2h2v2H0v-2h2v-2h2v-4h2v-4h2V8h2z" fill="#1e661e"/><path d="M30 18v2H4v-2h26zm-4-2H6v-1h2v-5h2V8h2V6h2V4h2V2h8v2h2v2h2v2h-4v6h4v2h-2z" fill="#51ffa8"/><path d="M12 18v2h-2v-2h2zm-4 0v2H6v-2h2zm8 0v2h-2v-2h2zm8 0v2h-2v-2h2zm4 0v2h-2v-2h2zm-8 0v2h-2v-2h2zm-9-5h1v3h-2v-2h1v-1zm5-9v12h-2V4h2zm8-2v14h-2V2h2zm-4 0v14h-2V2h2zM8 14v2H6v-2h2zm20 0v2h-2v-2h2zm0-8v2h-2V6h2z" fill="#e1fff1"/><path d="M10 10V8h2V6h1v6h-1v1h-1v1h-1v1H8v-5h2z" fill="#1e661e"/><path d="M10 10V8h2v4h-1v1h-1v1H8v-4h2z" fill="#ffc4e1"/><path d="M8 14h1v1H8v-1zm-2 0h1v1H6v-1zm6-4h1v1h-1v-1zm0-2h1v1h-1V8zm0-2h1v1h-1V6z" fill="#33297c"/><g fill="#815382"><path d="M9 14h1v1H9v-1zm-2 0h1v1H7v-1zm4-2h1v1h-1v-1z"/><path d="M12 11h1v1h-1v-1zm0-4h1v1h-1V7z"/></g><path d="M11 12v1h-1v-1h1z" fill="#fff"/><path d="M8,11h1v1H8V11z" fill="#0f0"/><path d="M11 10v1h-1v-1h1z" fill="#51ffa8"/><path d="M11,10v2h1v-2H11z" fill="#fff"/><path d="M9,11h1v1H9V11z" fill="#54acff"/><path d="M10,11h1v1h-1V11z" fill="#baffff"/><path d="M10 13v1H8v-1h2z" fill="#fff"/><path d="M8 10v1h2v-1H8zm0 2v1h2v-1H8z" fill="#baffff"/><path d="M10,8h1v1h-1V8z" fill="#0f0"/><path d="M11,8v2h1V8H11z" fill="#baffff"/></svg>