<svg xmlns="http://www.w3.org/2000/svg" viewBox="0 0 34 22"><path d="M24,8V6h-2V4h-2V2h-2V0h-8v2H8v2H6v2H4v2H2v4h2v-2h4v2H6v2H4v4H2v2H0v2h34v-2h-2v-2h-2v-4h-2v-4h-2V8H24z" fill="#1e661e"/><path d="M4 18v2h26v-2H4zm4-2h20v-1h-2v-5h-2V8h-2V6h-2V4h-2V2h-8v2H8v2H6v2h4v6H6v2h2z" fill="#51ffa8"/><path d="M22 18v2h2v-2h-2zm4 0v2h2v-2h-2zm-8 0v2h2v-2h-2zm-8 0v2h2v-2h-2zm-4 0v2h2v-2H6zm8 0v2h2v-2h-2zm9-5h-1v3h2v-2h-1v-1zm-5-9v12h2V4h-2zm-8-2v14h2V2h-2zm4 0v14h2V2h-2zm12 12v2h2v-2h-2zM6 14v2h2v-2H6zm0-8v2h2V6H6z" fill="#e1fff1"/><path d="M24,10V8h-2V6h-1v6h1v1h1v1h1v1h2v-5H24z" fill="#1e661e"/><path d="M24,10V8h-2v4h1v1h1v1h2v-4H24z" fill="#51ffa8"/><path d="M25 14h1v1h-1v-1zm2 0h1v1h-1v-1zm-6-4h1v1h-1v-1zm0-2h1v1h-1V8zm0-2h1v1h-1V6z" fill="#33297c"/><g fill="#815382"><path d="M24 14h1v1h-1v-1zm2 0h1v1h-1v-1zm-4-2h1v1h-1v-1z"/><path d="M21 11h1v1h-1v-1zm0-4h1v1h-1V7z"/></g><g fill="#0f0"><path d="M23,12v1h2v-1H23z"/><path d="M25,11h1v1h-1V11z"/></g><path d="M24,10h1v1h-1V10z" fill="#2b59ff"/><g fill="#baffff"><path d="M22,10v1h2v-1H22z"/><path d="M24 11h1v1h-1v-1zm-2-3h1v1h-1V8z"/></g><g fill="#fff"><path d="M24 13v1h2v-1h-2zm1-3h1v1h-1v-1zm-2-2h1v1h-1V8z"/><path d="M22,9h1v1h-1V9z"/></g></svg>