<svg xmlns="http://www.w3.org/2000/svg" viewBox="0 0 42 22"  xmlns:v="https://vecta.io/nano"><path d="M22 18v2h2v-2h-2zm-12 0v2h2v-2h-2zm4 0v2h2v-2h-2zm16 0v2h2v-2h-2zm-4 0v2h2v-2h-2zM6 18v2h2v-2H6zm28 0v2h2v-2h-2zm-16 0v2h2v-2h-2zm12-6v4h2v-4h-2zM10 8v8h2V8h-2zm20-4v6h2V4h-2zM14 4v12h2V4h-2zm8-2v14h2V2h-2zm4 0v14h2V2h-2zm-8 0v14h2V2h-2zM6 14v2h2v-2H6zm28 0v2h2v-2h-2zm0-8v2h2V6h-2z" fill="#e1fff1"/><path d="M20 18v2h2v-2h-2zM8 18v2h2v-2H8zm8 0v2h2v-2h-2zm-4 0v2h2v-2h-2zm20 0v2h2v-2h-2zm-8 0v2h2v-2h-2zm4 0v2h2v-2h-2zM4 18v2h2v-2H4zm32 0v2h2v-2h-2zm-4-4v2h2v-2h-2zM8 10v6h2v-6H8zm4-4v10h2V6h-2zm4-2v12h2V4h-2zm4-2v14h2V2h-2zm4 0v14h2V2h-2zm4 0v14h2V2h-2zm4 2v4h2V4h-2z" fill="#51ffa8"/><g fill="#009600"><path d="M42 22v-2h-2v-2h-2v2H4v-2H2v2H0v2h42zM8 14v-4H6v4h2z"/><path d="M10 10V8H8v2h2zm26-6h-2v2h2V4z"/><path d="M34,2h-4v2h4V2z"/><path d="M30,0H18v2h12V0z"/><path d="M14,2v2h4V2H14z"/><path d="M12 4v2h-2v2h2V6h2V4h-2zm28 6V8h-2V6h-2v2h-4v2h-2v2h2v2h4v-2h-2v-2h4v2h2v2h2v-4h-2z"/><path d="M20 18v-2H6v-2H4v4h16zm16-2H24v2h14v-4h-2v2z"/></g><g fill="#fff"><path d="M21 10h1v1h-1v-1zm-1-3h1V6h1V5h-2v1h-1v2h-1v2h1V9h1V7zm0 6v1h4v-1h-4z"/><path d="M24,12h1v1h-1V12z"/><path d="M25 12h1v-2h-1v2zm0-6v2h1V6h-1zm-2-1h1v1h-1V5z"/></g><g fill="#51ffa8"><path d="M19 9v1h2V9h-2zm-1 2v1h2v-1h-2zm3 1h1v1h-1v-1zm3-2h1v1h-1v-1z"/><path d="M21 8h1v1h-1V8zm-2-3h1v1h-1V5z"/></g><path d="M18 5h1v1h-1V5zm-1 2h1v1h-1V7zm2 6h1v1h-1v-1zm7-7v2h1V6h-1zm-5-3v1h3V3h-3zm-4 6h1v1h-1V9zm9 0h1v1h-1V9zm-5 5v1h3v-1h-3z" fill="#1e661e"/><g fill="#ffc4e1"><path d="M24 9h1v1h-1V9zm-3-3h1v1h-1V6z"/><path d="M22,7h1v1h-1V7z"/></g><g fill="#0f0"><path d="M22 8v1h3V8h-3zm-1 3v1h2v-1h-2z"/><path d="M19 12v1h2v-1h-2zm3 4h1v1h-1v-1z"/></g><g fill="#33297c"><path d="M17 6h1v1h-1V6zm0 4h1v1h-1v-1zm9 0h1v1h-1v-1zm-2 3h1v1h-1v-1zm2-5h1v1h-1V8zm-6-5h1v1h-1V3z"/><path d="M19 4h1v1h-1V4zm4 13h1v1h-1v-1z"/></g><g fill="#815382"><path d="M17 11h1v1h-1v-1zm7-7h1v1h-1V4z"/><path d="M25 5h1v1h-1V5zm1 6h1v1h-1v-1z"/><path d="M25 12h1v1h-1v-1zm-7 0h1v1h-1v-1zm2 2h1v1h-1v-1zm-3-6h1v1h-1V8zm5 9h1v1h-1v-1z"/></g><g fill="#54acff"><path d="M20 4h1v1h-1V4zm-2 2h1v1h-1V6zm5 5h1v1h-1v-1zm-1-2h1v1h-1V9zm2-4v2h1V5h-1z"/><path d="M23 7h1v1h-1V7zm-3 1h1v1h-1V8zm0 8h1v1h-1v-1z"/></g><g fill="#ff93c9"><path d="M21,7h1v1h-1V7z"/><path d="M22 6h1v1h-1V6zm1 10h1v1h-1v-1zm-3 1h1v1h-1v-1z"/></g><g fill="#baffff"><path d="M18 7h1v1h-1V7zm7 1v2h1V8h-1zm-1 1h-1v1h-1v1h2V9z"/><path d="M24,11h1v1h-1V11z"/><path d="M22 12v1h2v-1h-2zm-2-1h1v1h-1v-1z"/><path d="M18 10v1h2v-1h-2zm6-3h1v1h-1V7zm-4 0h1v1h-1V7zm4-2V4h-3v1h3zm-3 11h1v1h-1v-1z"/></g><g fill="#2b59ff"><path d="M20,10h1v1h-1V10z"/><path d="M21 9h1v1h-1V9zm1-4h1v1h-1V5z"/><path d="M23 6h1v1h-1V6zm-2 11h1v1h-1v-1z"/></g></svg>