<svg xmlns="http://www.w3.org/2000/svg" viewBox="0 0 7 31"  xmlns:v="https://vecta.io/nano"><path d="M2 6h1V2H2v4zm2-4v4h1V2H4z" fill="#dea8ff"/><path d="M5 3v2h1V3H5zM1 5h1V3H1v2z" fill="#c260ff"/><path d="M3,1v6h1V1H3z" fill="#edd3fd"/><g fill="#64438e"><path d="M3,31h1V7H3V31z"/><path d="M2 6h1v1H2V6zm2 0h1v1H4V6z"/><path d="M5,5h1v1H5V5z"/><path d="M6,3v2h1V3H6z"/><path d="M5,2h1v1H5V2z"/><path d="M4,1h1v1H4V1z"/><path d="M3,0h1v1H3V0z"/><path d="M2,1h1v1H2V1z"/><path d="M1 2h1v1H1V2zm0 3h1v1H1V5z"/><path d="M1,3H0v2h1V3z"/></g></svg>