<svg xmlns="http://www.w3.org/2000/svg" viewBox="0 0 7 33"><path d="M6 5V3H5V1H4V0H3v1H2v2H1v2H0v1h1v2h1v2h1v23h1V10h1V8h1V6h1V5H6z" fill="#47289b"/><path d="M4 3V1H2v2H1v2H0v1h1v1h1v1h1v2h2V8h1V3H4z" fill="#3a2b77"/><path d="M5 5V3H4V1H3v2H2v2H1v1h1v2h1v2h1V8h1V6h1V5H5z" fill="#5d24bf"/><path d="M5 5V3H4V1H3v2H2v1h1v1H1v1h2v1H2v1h1v2h1V8h1V6h1V5H5z" fill="#8000ff"/><path d="M5,3H4v1h1V3z" fill="#ffa3ff"/><path d="M2 5h1v1H2z" fill="#f37aff"/><path d="M4 7h1v1H4zM1 5h1v1H1z" fill="#cb5bff"/><g fill="#ffc9ff"><path d="M4 4h1v1H4z"/><path d="M3 5h1v1H3zm2 0h1v1H5z"/></g><g fill="#fff"><path d="M4 5h1v1H4z"/><path d="M3 1h1v4H3z"/></g><g fill="#b135ff"><path d="M3 6h1v1H3z"/><path d="M2 7h1v1H2z"/></g></svg>