<svg xmlns="http://www.w3.org/2000/svg" viewBox="0 0 7 33"><path d="M1 5V3h1V1h1V0h1v1h1v2h1v2h1v1H6v2H5v2H4v23H3V10H2V8H1V6H0V5h1z" fill="#47289b"/><path d="M3 3V1h2v2h1v2h1v1H6v1H5v1H4v2H2V8H1V3h2z" fill="#3a2b77"/><path d="M2 5V3h1V1h1v2h1v2h1v1H5v2H4v2H3V8H2V6H1V5h1z" fill="#5d24bf"/><path d="M2 5V3h1V1h1v2h1v1H4v1h2v1H4v1h1v1H4v2H3V8H2V6H1V5h1z" fill="#8000ff"/><path d="M2,3h1v1H2V3z" fill="#ffa3ff"/><path d="M4 5h1v1H4z" fill="#f37aff"/><path d="M2 7h1v1H2zm3-2h1v1H5z" fill="#cb5bff"/><g fill="#ffc9ff"><path d="M2 4h1v1H2z"/><path d="M3 5h1v1H3zM1 5h1v1H1z"/></g><g fill="#fff"><path d="M2 5h1v1H2z"/><path d="M3 1h1v4H3z"/></g><g fill="#b135ff"><path d="M3 6h1v1H3z"/><path d="M4 7h1v1H4z"/></g></svg>