<svg xmlns="http://www.w3.org/2000/svg" viewBox="0 0 9 33"  xmlns:v="https://vecta.io/nano"><g fill="#ffa3ff"><path d="M2,4h1v1H2V4z"/><path d="M3,3h1v1H3V3z"/></g><g fill="#cb5bff"><path d="M3,7h1v1H3V7z"/><path d="M2 6h1v1H2V6zm4-1v1h2V5H6z"/></g><path d="M6,4h1v1H6V4z" fill="#6f16e2"/><g fill="#3a2b77"><path d="M5 6h1v1H5zm0-5h1v2H5z"/><path d="M6 3h1v1H6V3zm2 2h1v1H8V5z"/><path d="M7 4h1v1H7V4zm0 2h1v1H7V6zM1 4h1v1H1V4zm0 2h1v1H1V6zm2 4h1V8H3v2z"/><path d="M2,7h1v1H2V7z"/></g><g fill="#47289b"><path d="M4,0h1v1H4V0z"/><path d="M4,1H3v2h1V1z"/><path d="M2 3h1v1H2zm2 7h1v23H4z"/><path d="M5 10h1V8H5v2z"/><path d="M6 7v1h1V7H6zM0 5h1v1H0V5z"/></g><path d="M5 5h1v1H5z" fill="#f37aff"/><g fill="#ffc9ff"><path d="M3,4h1v1H3V4z"/><path d="M4 5h1v1H4zM1 5h2v1H1z"/></g><g fill="#fff"><path d="M3,5h1v1H3V5z"/><path d="M4 1h1v4H4z"/></g><path d="M5 4h1v1H5z" fill="#5d24bf"/><g fill="#8000ff"><path d="M3 6h1v1H3V6zm2-3h1v1H5V3z"/><path d="M4 7h1v3H4z"/></g><g fill="#b135ff"><path d="M4,6h1v1H4V6z"/><path d="M5,7h1v1H5V7z"/><path d="M6 6h1v1H6z"/></g></svg>