<svg xmlns="http://www.w3.org/2000/svg" viewBox="0 0 9 33"><path d="M0 5v1h1v1h1v1h1v2h1v23h1V10h1V8h1V7h1V6h1V5H8V4H7V3H6V1H5V0H4v1H3v2H2v1H1v1z" fill="#47289b"/><path d="M6,8H3V7h3V8z" fill="#cb5bff"/><path d="M4,5H2V4h2V5z" fill="#6f16e2"/><g fill="#3a2b77"><path d="M4 7H3V6h1v1zm0-4H3V1h1v2z"/><path d="M3 4H2V3h1v1zM1 6H0V5h1v1z"/><path d="M2 5H1V4h1v1zm0 2H1V6h1v1zm6-2H7V4h1v1zm0 2H7V6h1v1zM6 8H5v2h1V8z"/><path d="M7,8H6V7h1V8z"/></g><path d="M5,6H2V5h3V6z" fill="#f37aff"/><path d="M4,5H3V3h1V5z" fill="#5d24bf"/><g fill="#8000ff"><path d="M6 7H4V6h2v1zM4 4H3V3h1v1z"/><path d="M5 10H4V7h1v3z"/></g><g fill="#b135ff"><path d="M5,7H4V5h1V7z"/><path d="M4,8H3V7h1V8z"/><path d="M3,7H2V5h1V7z"/></g><path d="M4 3v3h3V4H6V3z" fill="#ffa3ff"/><path d="M6,6H5V4h1V6z" fill="#ffc9ff"/><path d="M7 7H6V5.5h1V7zM1 5v1h2V5H1z" fill="#cb5bff"/><path d="M4 1h1v5H4z" fill="#fff"/><path d="M4 5h4v1H4z" fill="#ffc9ff"/><path d="M5 5h1v1H5z" fill="#fff"/></svg>