<svg xmlns="http://www.w3.org/2000/svg" xmlns:xlink="http://www.w3.org/1999/xlink" viewBox="0 0 25 8"><path d="M5 2h20v4H5z" fill="#595959"/><g fill="#8a8a8a"><path d="M6 3h1v1H6zm0 2h1v1H6z"/><path d="M5 2h1v1H5zm0 2h1v1H5zm3-1h1v1H8zm0 2h1v1H8z"/><path d="M7 2h1v1H7zm0 2h1v1H7zm3-1h1v1h-1zm0 2h1v1h-1z"/><path d="M9 2h1v1H9zm0 2h1v1H9zm3-1h1v1h-1zm0 2h1v1h-1z"/><use href="#A"/><use href="#A" x="2"/><use href="#A" x="4"/><use href="#A" x="6"/><use href="#A" x="8"/><path d="M21 2h1v1h-1zm0 2h1v1h-1zm2-2h1v1h-1z"/><path d="M24 3h1v1h-1zm0 2h1v1h-1z"/><path d="M23 4h1v1h-1z"/></g><path d="M3 0v2h2v4H3v2H0V0z" fill="#c8c8c8"/><path d="M0 2h3v4H0z"/><path d="M0 2h1v4H0z" fill="#c260ff"/><defs><path id="A" d="M11 2h1v1h-1zm0 2h1v1h-1zm3-1h1v1h-1zm0 2h1v1h-1z"/></defs></svg>