<svg xmlns="http://www.w3.org/2000/svg" xmlns:xlink="http://www.w3.org/1999/xlink" viewBox="0 0 25 8"><path d="M0 2h20v4H0z" fill="#595959"/><g fill="#8a8a8a"><path d="M18 3h1v1h-1zm0 2h1v1h-1z"/><use href="#BB"/><use href="#BB" x="-2"/><use href="#BB" x="-4"/><use href="#BB" x="-6"/><path d="M11 2h1v1h-1zm0 2h1v1h-1zM8 3h1v1H8zm0 2h1v1H8z"/><path d="M9 2h1v1H9zm0 2h1v1H9zM6 3h1v1H6zm0 2h1v1H6z"/><path d="M7 2h1v1H7zm0 2h1v1H7zM4 3h1v1H4zm0 2h1v1H4z"/><path d="M5 2h1v1H5zm0 2h1v1H5zM2 3h1v1H2zm0 2h1v1H2z"/><path d="M0 3h1v1H0zm0 2h1v1H0zm3-3h1v1H3zm0 2h1v1H3z"/><path d="M1 2h1v1H1zm0 2h1v1H1z"/></g><path d="M22 0v2h-2v4h2v2h3V0z" fill="#c8c8c8"/><path d="M22 2h3v4h-3z"/><defs><path id="A" d="M19 2h1v1h-1zm0 2h1v1h-1zm-3-1h1v1h-1zm0 2h1v1h-1z"/></defs></svg>
