<svg xmlns="http://www.w3.org/2000/svg" xmlns:xlink="http://www.w3.org/1999/xlink" viewBox="0 0 34 4"><path d="M0 0h34v4H0z" fill="#595959"/><g fill="#8a8a8a"><path d="M32 1h1v1h-1zm0 2h1v1h-1z"/><use href="#A"/><use href="#A" x="-2"/><use href="#A" x="-4"/><use href="#A" x="-6"/><use href="#A" x="-8"/><use href="#A" x="-10"/><use href="#A" x="-12"/><use href="#A" x="-14"/><use href="#A" x="-16"/><path d="M15 0h1v1h-1zm0 2h1v1h-1zm-2-2h1v1h-1zm0 2h1v1h-1z"/><path d="M12 1h1v1h-1zm0 2h1v1h-1z"/><path d="M11 0h1v1h-1zm0 2h1v1h-1z"/><path d="M10 1h1v1h-1zm0 2h1v1h-1z"/><path d="M9 0h1v1H9zm0 2h1v1H9z"/><path d="M8 1h1v1H8zm0 2h1v1H8z"/><path d="M7 0h1v1H7zm0 2h1v1H7z"/><path d="M6 1h1v1H6zm0 2h1v1H6z"/><path d="M5 0h1v1H5zm0 2h1v1H5z"/><path d="M4 1h1v1H4zm0 2h1v1H4z"/><path d="M3 0h1v1H3zm0 2h1v1H3z"/><path d="M2 1h1v1H2zm0 2h1v1H2z"/><path d="M1 0h1v1H1zm0 2h1v1H1z"/><path d="M0 1h1v1H0zm0 2h1v1H0z"/></g><defs><path id="A" d="M33 0h1v1h-1zm0 2h1v1h-1zm-3-1h1v1h-1zm0 2h1v1h-1z"/></defs></svg>