<svg xmlns="http://www.w3.org/2000/svg" viewBox="0 0 50 20"><path d="M44 18v-2h-2v-4h-2V4h-2V2h-4V0H16v2h-4v2h-2v8H8v4H6v2H0v2h50v-2z" fill="#a97955"/><g fill="#de9a53"><path d="M22 2h2v2h-2V2zm4 0h2v2h-2V2zm4 0h2v2h-2V2z"/><path d="M28 4h2v2h-2V4zm4 0h2v2h-2V4zm4 0h2v2h-2V4zM18 2h2v2h-2V2z"/><path d="M22 6h2v2h-2V6zm4 0h2v2h-2V6zm4 0h2v2h-2V6zM18 6h2v2h-2V6zm4 4h2v2h-2v-2zm4 0h2v2h-2v-2zm4 0h2v2h-2v-2zm-12 0h2v2h-2v-2zm4 4h2v2h-2v-2zm4 0h2v2h-2v-2zm4 0h2v2h-2v-2zm4-8h2v2h-2V6zm0 4h2v2h-2v-2zm0 4h2v2h-2v-2zm-16 0h2v2h-2v-2zm-4-8h2v2h-2V6z"/><path d="M14 10h2v2h-2v-2zm0 4h2v2h-2v-2zm2-10h2v2h-2V4zm4 0h2v2h-2V4zm4 0h2v2h-2V4zM12 4h2v2h-2V4zm16 4h2v2h-2V8zm4 0h2v2h-2V8z"/><path d="M36 8h2v2h-2V8zM16 8h2v2h-2V8zm4 0h2v2h-2V8zm4 0h2v2h-2V8zM12 8h2v2h-2V8zm16 4h2v2h-2v-2zm4 0h2v2h-2v-2zm4 0h2v2h-2v-2zm-20 0h2v2h-2v-2zm4 0h2v2h-2v-2zm4 0h2v2h-2v-2zm-12 0h2v2h-2v-2zm16 4h2v2h-2v-2zm4 0h2v2h-2v-2zm4 0h2v2h-2v-2z"/><path d="M38,14h2v2h-2V14z"/><path d="M40 16h2v2h-2v-2zm-24 0h2v2h-2v-2zm4 0h2v2h-2v-2zm4 0h2v2h-2v-2zm-12 0h2v2h-2v-2z"/><path d="M10,14h2v2h-2V14z"/><path d="M8,16h2v2H8V16z"/></g></svg>