<svg xmlns="http://www.w3.org/2000/svg" viewBox="0 0 38 20"><path d="M38 20v-2h-4v-2h-2v-4h-2V4h-2V2h-2V0H12v2h-2v2h0-2v8H6v4H4v2H0v2h38z" fill="#a97955"/><g fill="#de9a53"><path d="M14 16h2v2h-2zm8 0h2v2h-2zm-8-4h2v2h-2zm8 0h2v2h-2zm-8-4h2v2h-2zm8 0h2v2h-2z"/><path d="M12 6h2v2h-2zm12 0h2v2h-2z"/><path d="M14 4h2v2h-2zm8 0h2v2h-2z"/><path d="M24 2h2v2h-2zM14 2h-2v2h-2v2h2V4h2zm-2 12h2v2h-2zm12 0h2v2h-2z"/><path d="M12 10h2v2h-2zm12 0h2v2h-2zm-6 6h2v2h-2zm-8 0h2v2h-2zm16 0h2v2h-2zM6 16h2v2H6zm24 0h2v2h-2zm-12-4h2v2h-2z"/><path d="M10 12h2v2h-2zm16 0h2v2h-2zm-8-4h2v2h-2zm-8 0h2v2h-2z"/><path d="M16 6h2v2h-2zm4 0h2v2h-2z"/><path d="M26 4h2v2h-2zm-8 0h2v2h-2z"/><path d="M20 2h2v2h-2zm-4 0h2v2h-2zm10 6h2v2h-2zm-10 6h2v2h-2zm-8 0h2v2H8zm20 0h2v2h-2zm-12-4h2v2h-2zm4 0h2v2h-2zm0 4h2v2h-2z"/></g></svg>