<svg xmlns="http://www.w3.org/2000/svg" viewBox="0 0 34 14"  xmlns:v="https://vecta.io/nano"><g fill="#4bafff"><path d="M4,3v3H3v1H1v5h3v-2h5v2h5v-2h2V3H4z"/><path d="M3 3H1v3h2V3zm15 0h-1v4h1V3zm13 0v3h2V3h-2z"/><path d="M30,3H19v4h-1v1h-1v2h3v2h5v-2h5v2h3V7h-2V6h-1V3z"/></g><g fill="#003ca0"><path d="M0 0v14h4v-2H1V7h2V6H1V3h2v3h1V3h12v7h-2v2h6v-2h-3V8h1V7h-1V3h1v4h1V3h11v3h1V3h2v3h-2v1h2v5h-3v2h4V0H0zm9 2H1V1h8v1zm7 0h-6V1h6v1zm1 0V1h1v1h-1zm7 0h-5V1h5v1zm9 0h-8V1h8v1z"/><path d="M9,12h5v2H9V12z"/><path d="M4 10h5v2H4v-2zm16 2h5v2h-5v-2z"/><path d="M25,10h5v2h-5V10z"/></g><path d="M16 2V1h-6v1h6zm8 0V1h-5v1h5zM9 2V1H1v1h8zm24 0V1h-8v1h8z" fill="#de9a53"/><path d="M17,1h1v1h-1V1z" fill="#a97955"/></svg>