<svg xmlns="http://www.w3.org/2000/svg" viewBox="0 0 9 11"  xmlns:v="https://vecta.io/nano"><g fill="#b8d2a2"><path d="M6,5h1v1H6V5z"/><path d="M5,4h1v1H5V4z"/></g><path d="M6,6V5H5V4H2v1H1v1h2v1h1v1h1v1h2V6H6z" fill="#689f38"/><path d="M5,9V8H4V7H3V6H1v3h1v1h4V9H5z" fill="#558b2f"/><g fill="#33691e"><path d="M6,4h1v1H6V4z"/><path d="M7 5v4h1V5H7zM1 4h1v1H1V4z"/><path d="M1,5H0v4h1V5z"/><path d="M1,9h1v1H1V9z"/><path d="M2,10v1h4v-1H2z"/><path d="M6 9h1v1H6V9zm0-5V3H2v1h4z"/></g><path d="M4,1h1v1H4V1z" fill="#cacaca"/><path d="M3,1h1v1H3V1z" fill="#9e9e9e"/><path d="M8,2V1H7V0H3v1h2v1h2v1h1v1h1V2H8z"/><path d="M3,2v1h2V2H3z"/><path d="M2,1h1v1H2V1z"/></svg>