<svg xmlns="http://www.w3.org/2000/svg" viewBox="0 0 5 27"  xmlns:v="https://vecta.io/nano"><path d="M2 17h1v1H2z" fill="#494949"/><g fill="#fc0000"><path d="M1 23h1v1H1z"/><path d="M2 24h1v1H2z"/><path d="M3 25h1v1H3z"/></g><path d="M3 18h1v1H3z" fill="#494949"/><g fill="#ffd400"><path d="M1 24h1v1H1z"/><path d="M2 23v-1H1v-4h1v-1h1v-1H0v8h1v-1zm0 2h1v1H2z"/><path d="M2 23h1v1H2zm0-5h1v1H2z"/><path d="M3 17h1v1H3z"/><path d="M4 18v1H3v1h1v4H3v1h1v1H3v1h2v-9z"/></g><path d="M4 2V1H3V0H1v1H0v1h1v1H0v1h1v1H0v1h1v1H0v1h1v1H0v1h1v1H0v1h1v1H0v1h1v1H0v1h3v1h1v1h1V2z" fill="#494949"/></svg>