<svg xmlns="http://www.w3.org/2000/svg" viewBox="0 0 44 22"  xmlns:v="https://vecta.io/nano"><path d="M6,16v-2h2v-4h2V8h2V6h2V4h4V2h12v2h4v2h2v2h-4v2h-2v2h2v2h4v2H6z" fill="red"/><path d="M4 18h34v2H4v-2zm36-5h3v3h-3v-3z" fill="#fff"/><g fill="#fff066"><path d="M18,10v2h1v1h1v1h1v-4H18z"/><path d="M23,8V7h-1V6h-1v4h3V8H23z"/></g><path d="M21,10v4h1v-1h1v-1h1v-2H21z" fill="#ffe600"/><path d="M20,6v1h-1v1h-1v2h3V6H20z" fill="#fffacc"/><path d="M4 20v-2H2v2H0v2h42v-2h-2v-2h-2v2H4zm2-10h2v4H6v-4z"/><path d="M8 8h2v2H8V8zm26-4h2v2h-2V4z"/><path d="M30,2h4v2h-4V2z"/><path d="M18,0h12v2H18V0z"/><path d="M14,2h4v2h-4V2z"/><path d="M12 4v2h-2v2h2V6h2V4h-2zm31 9v-1h-1v-2h-2V8h-2V6h-2v2h-4v2h-2v2h2v2h4v-2h-2v-2h4v2h2v1h3zm-3 3h3v1h-3v-1z"/><path d="M43 13h1v3h-1v-3zm-4 0h1v3h-1v-3zm-3 3H6v-2H4v4h34v-4h-2v2zm-16-2h2v1h-2v-1z"/><path d="M22,13h1v1h-1V13z"/><path d="M23 12h1v1h-1v-1zm-5 0h1v1h-1v-1z"/><path d="M19 13h1v1h-1v-1zm-2-5h1v4h-1V8zm7 0h1v4h-1V8zm-2-2h1v1h-1V6z"/><path d="M18,7h1v1h-1V7z"/><path d="M19 6h1v1h-1V6zm4 1h1v1h-1V7z"/><path d="M20,5h2v1h-2V5z"/></svg>