<svg xmlns="http://www.w3.org/2000/svg" viewBox="0 0 44 22"><path d="M43 13v-1h-1v-2h-2V8h-2V6h-2V4h-2V2h-4V0H18v2h-4v2h-2v2h-2v2H8v2H6v4H4v4H2v2H0v2h42v-2h-2v-2h-2v-4h-2v-2h-2v-2h4v2h2v1h-1v3h1v1h3v-1h1v-3z"/><path d="M6,16v-2h2v-4h2V8h2V6h2V4h4V2h12v2h4v2h2v2h-4v2h-2v2h2v2h4v2H6z" fill="red"/><path d="M4 18h34v2H4v-2zm36-5h3v3h-3v-3z" fill="#fff"/><path d="M24 8V7h-1V6h-1V5h-2v1h-1v1h-1v1h-1v4h1v1h1v1h1v1h2v-1h1v-1h1v-1h1V8z"/><path d="M23 8V7h-1V6h-2v1h-1v1h-1v4h1v1h1v1h2v-1h1v-1h1V8z" fill="#fffacc"/><g fill="#fff066"><path d="M18,10v2h1v1h1v1h1v-4H18z"/><path d="M23,8V7h-1V6h-1v4h3V8H23z"/></g><path d="M21,10v4h1v-1h1v-1h1v-2H21z" fill="#ffe600"/></svg>