<svg xmlns="http://www.w3.org/2000/svg" viewBox="0 0 34 10"  xmlns:v="https://vecta.io/nano"><path d="M16,1h1v1h-1V1z" fill="#88bdf3"/><path d="M17,1h1v1h-1V1z" fill="#5795f1"/><path d="M17,2h1v1h-1V2z" fill="#3075ee"/><path d="M18 8h1v1h1v1h10V9h1V8h1V2h2V0H0v2h2v6h1v1h1v1h10V9h1V8h1V4h2v4zm12-1h-1v1h-8V7h-1V3h1V2h8v1h1v4zM14 7h-1v1H5V7H4V3h1V2h8v1h1v4zm2-4V1h2v2h-2z"/><path d="M16 2h1v1h-1V2zm6 2v1h2v1h2V5h2V4h-6zM6 4v1h2v1h2V5h2V4H6z" fill="#205fec"/><path d="M29 3V2h-8v1h-1v4h1v1h8V7h1V3h-1zm-1 2h-2v1h-2V5h-2V4h6v1zM13 2H5v1H4v4h1v1h8V7h1V3h-1V2zm-1 3h-2v1H8V5H6V4h6v1z" fill="#fff"/></svg>