<svg xmlns="http://www.w3.org/2000/svg" viewBox="0 0 42 24"><path d="M4,1v23h4v-2h5v2h5v-2h6v2h5v-2h5v2h4V1H4z" fill="#00002d"/><g fill="#000046"><path d="M29 19h-7v1h2v2h5v-1h1v-1h-1v-1zM4 2v8h1v8h32v-8h1V2H4zm5 17v1h3v-1H9z"/><path d="M8 19H5v3h3v-1h1v-1H8v-1zm5 0v1h-1v1h1v1h5v-2h3v-1h-8zm21 0v1h-1v1h1v1h3v-3h-3z"/><path d="M30,19v1h3v-1H30z"/></g><path d="M1,0v1h2v1h1.5v8H3V9H2V8H1V7H0V0H1z" fill="#00002d"/><path d="M5,2H4v1H3V2H2v6h1v1h1v1h1V2z" fill="#000046"/><path d="M1,0H0v7h1V0z" fill="#205fec"/></svg>