<svg xmlns="http://www.w3.org/2000/svg" viewBox="0 0 42 24"><path d="M36 2v1h-2v1h-2v1h-2v1h-4v1h-3v1h-4V7h-3V6h-4V5h-2V4H8V3H6V2H4v22h4v-2h5v2h5v-2h6v2h5v-2h5v2h4V2z" fill="#00002d"/><g fill="#205fec"><path d="M14,6v1h2V6H14z"/><path d="M23,7v2h-1v6h-2V9h-1V7h-3v1h2v2h1v6h4v-6h1V8h2V7H23z"/><path d="M26,6v1h2V6H26z"/></g><path d="M20,17h2v1h-2V17z" fill="#88bdf3"/><g fill="#000046"><path d="M5 19h1v1H5v-1zm-1-9h1v8h12v-1h1v-7h-1V9h-1V8h-2V7h-2V6h-2V5H8V4H6V3H4v7zm4 4h4v1H8v-1zm9 2h-1v-1h1v1zm0-2h-1v-1h1v1zm0-2h-1v-1h1v1z"/><path d="M36 19h1v1h-1v-1zM7 19v1H6v1H5v1h3v-2h5v2h5v-2h2v-1H7z"/><path d="M35 19H21v1h3v2h5v-2h5v2h3v-1h-1v-1h-1v-1zm1-16v1h-2v1h-2v1h-2v1h-2v1h-2v1h-1v1h-1v7h1v1h12v-8h1V3h-2zm-2 12h-4v-1h4v1zm-9-4h1v1h-1v-1zm0 2h1v1h-1v-1zm0 2h1v1h-1v-1z"/></g></svg>