<svg xmlns="http://www.w3.org/2000/svg" viewBox="0 0 42 24"  xmlns:v="https://vecta.io/nano"><g fill="#205fec"><path d="M14,6v1h2V6H14z"/><path d="M23,7v2h-1v6h-2V9h-1V7h-3v1h2v2h1v6h4v-6h1V8h2V7H23z"/><path d="M26,6v1h2V6H26z"/></g><path d="M20,17h2v1h-2V17z" fill="#88bdf3"/><g fill="#000046"><path d="M5 19h1v1H5v-1zm-1-9h1v8h12v-1h1v-7h-1V9h-1V8h-2V7h-2V6h-2V5H8V4H6V3H4v7zm4 4h4v1H8v-1zm9 2h-1v-1h1v1zm0-2h-1v-1h1v1zm0-2h-1v-1h1v1z"/><path d="M36 19h1v1h-1v-1zM7 19v1H6v1H5v1h3v-2h5v2h5v-2h2v-1H7z"/><path d="M35 19H21v1h3v2h5v-2h5v2h3v-1h-1v-1h-1v-1zm1-16v1h-2v1h-2v1h-2v1h-2v1h-2v1h-1v1h-1v7h1v1h12v-8h1V3h-2zm-2 12h-4v-1h4v1zm-9-4h1v1h-1v-1zm0 2h1v1h-1v-1zm0 2h1v1h-1v-1z"/></g><g fill="#00002d"><path d="M12 6V5h-2v1h2z"/><path d="M14 7V6h-2v1h2zm-2 8v-1H8v1h4z"/><path d="M16 15h1v1h-1v-1zm0-7V7h-2v1h2z"/><path d="M17 9v1h1V8h-2v1h1zm-1 4h1v1h-1v-1zm16-7V5h-2v1h2z"/><path d="M30 7V6h-2v1h2zM19 8v1h1v6h2V9h1V8h-4z"/><path d="M25 15h1v1h-1v-1zm3-7V7h-2v1h2zm2 6v1h4v-1h-4zm-5-1h1v1h-1v-1z"/><path d="M25 9h1V8h-2v2h1V9zM6 3V2H4v1h2z"/><path d="M36 4V3h-2v1h2zM8 4V3H6v1h2z"/><path d="M38 2h-2v1h2V2zM13 20H8v2h5v-2z"/><path d="M13,22v2h5v-2H13z"/><path d="M37 18H25v-1h-1v-7h-1v6h-4v-6h-1v7h-1v1H5v-8H4v14h4v-2H5v-1h1v-1H5v-1h1v1h1v-1h13v1h-2v2h6v-2h-3v-1h14v1h1v-1h1v1h-1v1h1v1h-3v2h4V10h-1v8zm-17 0v-1h2v1h-2z"/><path d="M34,20h-5v2h5V20z"/><path d="M24 22v2h5v-2h-5zM34 5V4h-2v1h2zM10 5V4H8v1h2zm6 6h1v1h-1v-1zm9 0h1v1h-1v-1z"/></g></svg>