<svg xmlns="http://www.w3.org/2000/svg" viewBox="0 0 12 12"><path d="M11 3V2h-1V1H9V0H3v1H2v1H1v1H0v6h1v1h1v1h1v1h6v-1h1v-1h1V9h1V3z" fill="#fa34f3"/><path d="M0,6v2h12V6H0z" fill="#ac15f9"/><path d="M0,4v2h12V4H0z" fill="#cf15f9"/><path d="M0,8v1h1v1h10V9h1V8H0z" fill="#8f17f9"/><path d="M2,10v1h1v1h6v-1h1v-1H2z" fill="#7e18f8"/><g fill="#fff"><path d="M7.9 6.8h.4v-.6h-.4v.6z"/><path d="M6.4 6.8v.5h.9v.4h.4v-.4h.2v-.5H6.4zm.4-.6h1.1v-.4H6.8v.4z"/><path d="M6.4 5.2v.6h.4v-.6h-.4z"/><path d="M7.7 4.7v-.4h-.4v.4h-.5v.5h1.5v-.5h-.6zm1.9 2.6h.4V5.2h.9v-.5H8.8v.5h.8v2.1zm-4-2.6v1.1H4.5V4.7h-.4v2.6h.4V6.2h1.1v1.1H6V4.7h-.4zM2 4.7v.5h1.7v-.5H2zm1.7 2.1v-1H2.4v.4h.8v.6h.5z"/><path d="M2 7.3h1.2v-.5H2v.5z"/><path d="M1.6,5.2v1.6H2V5.2H1.6z"/></g></svg>