<svg xmlns="http://www.w3.org/2000/svg" viewBox="0 0 24 14"><path d="M24,0H0v14h3v-2h3v2h4v-2h4v2h4v-2h3v2h3V0z"/><path d="M7 1h10v1H7zm11 0h5v1h-5zM1 1h5v1H1z" fill="#282828"/><g fill="#d2d2d2"><path d="M10 3h1v2h-1zM0 3h1v2H0z"/><path d="M0 1h1v1H0zm9 4h1v2H9zM2 7h1v1H2z"/><path d="M1 5h1v2H1zm2 3h5v1H3z"/><path d="M8 7h1v1H8z"/></g><g fill="#0a0a0a"><path d="M3 3h2v3H3z"/><path d="M2 6h1v1H2zm10-3v7h2v2h4V3zm9 2h2v3h-2zM10 3H6v5h2V7h1V5h1v1h1V5h-1z"/><path d="M3 7h2v1H3z"/><path d="M2 7H1v5h2v-2h2V9H3V8H2zM1 3h1v2H1zm7 5v1H6v3h4v-2h1V6h-1v1H9v1zm12-4h3V3h-4v7h2v2h2V9h-2V8h-1z"/></g></svg>