<svg xmlns="http://www.w3.org/2000/svg" viewBox="0 0 34 14"  xmlns:v="https://vecta.io/nano"><path d="M0 14h4v-2H1V7h2V6H1V3h2v3h1V3h12v7h-2v2h6v-2h-3V8h1V7h-1V3h13v3h1V3h2v3h-2v1h2v5h-3v2h4V0H0v14zM1 2V1h8v1H1zm9 0V1h6v1h-6zm7 0V1h1v1h-1zm2 0V1h5v1h-5zm14 0h-8V1h8v1z"/><path d="M9,12v2h5v-2H9z"/><path d="M9 10H4v2h5v-2zm9-7h1v4h-1V3zm2 9v2h5v-2h-5z"/><path d="M30,10h-5v2h5V10z"/><g fill="#0a0a0a"><path d="M4,3v3H3v1H1v5h3v-2h5v2h5v-2h2V3H4z"/><path d="M3 3H1v3h2V3zm15 0h-1v4h1V3zm13 0v3h2V3h-2z"/><path d="M30,3H19v4h-1v1h-1v2h3v2h5v-2h5v2h3V7h-2V6h-1V3z"/></g><path d="M17,1h1v1h-1V1z" fill="#878787"/><path d="M10 1v1h6V1h-6zm9 0v1h5V1h-5zM1 1v1h8V1H1zm24 0v1h8V1h-8z" fill="#282828"/><g fill="#d2d2d2"><path d="M33 7h1v1h-1V7zm-6-2h-1v2h1V5z"/><path d="M26 3h-1v2h1V3zm-1-2h1v1h-1V1zm3 7v1h5V8h-5z"/><path d="M27,7h1v1h-1V7z"/></g></svg>