<svg xmlns="http://www.w3.org/2000/svg" viewBox="0 0 39 27"  xmlns:v="https://vecta.io/nano"><g fill="#092c1b"><path d="M15,11v2h2v-2H15z"/><path d="M13 13v2h2v-2h-2zm-2 4H9v2h2v-2z"/><path d="M11 15v2h2v-2h-2zm24 3v1h2v-1h-2zM8 5h1V4H7v2h1V5z"/><path d="M6,7h1V6H5v2h1V7z"/><path d="M4,9h1V8H3v2h1V9z"/><path d="M3,10H2v2h1V10z"/><path d="M2 12H1v2h1v-2zM1 25v1h1v1h1v-2H1z"/><path d="M0 25h1V14H0v11zm3-2v2h2v-2H3z"/><path d="M5,21v2h2v-2H5z"/><path d="M7 19v2h2v-2H7zM21 5v2h2V5h-2zm13-1h1v1h-1V4zM10 3h1V2H9v2h1V3z"/><path d="M23 3v2h2V3h-2zM13 2V1h-2v1h2z"/><path d="M25,1v2h2V1h3V0H13v1H25z"/><path d="M32 2V1h-2v1h2z"/><path d="M32,2h1v1h-1V2z"/><path d="M33 3h1v1h-1V3zm2 2h1v1h-1V5zm2 13h1v-3h-1v3z"/><path d="M38 10v5h1v-5h-1zM19 7v2h2V7h-2zm17-1h1v1h-1V6z"/><path d="M37 10h1V7h-1v3zM17 9v2h2V9h-2z"/></g><g fill="#283d2e"><path d="M11 15h2v-2h2v-2h2V9h2V7h2V5h2V3h2V1H13v1h-2v1h-1v1H9v1H8v1H7v1H6v1H5v1H4v1H3v2H2v2H1v11h2v-2h2v-2h2v-2h2v-2h2v-2z"/><path d="M35,19v-1h2v-3h1v-5h-1V7h-1V6h-1V5h-1V4h-1V3h-1V2h-2V1h-3v2h-2v2h-2v2h-2v2h-2v2h-2v2h-2v2h-2v2h-2v2H35z"/></g><path d="M33 9V8h-1V7h-1V6h-4v1h-1v1h-1v1h-1v4h1v1h1v1h1v1h4v-1h1v-1h1v-1h1V9h-1zm-3-1v1h1v1h1v2h-1v1h-1v1h-2v-1h-1v-1h-1v-2h1V9h1V8h2z" fill="#f8af4e"/><path d="M35,20v-1H11v1H35z" fill="#092c1b"/></svg>