<svg xmlns="http://www.w3.org/2000/svg" viewBox="0 0 39 27"><path d="M38 10V7h-1V6h-1V5h-1V4h-1V3h-1V2h-1V1h-2V0H13v1h-2v1H9v2H7v2H5v2H3v2H2v2H1v2H0v11h1v1h1v1h1v-2h2v-2h2v-2h2v-2h2v1h24v-1h2v-1h1v-3h1v-5z" fill="#092c1b"/><g fill="#283d2e"><path d="M11 15h2v-2h2v-2h2V9h2V7h2V5h2V3h2V1H13v1h-2v1h-1v1H9v1H8v1H7v1H6v1H5v1H4v1H3v2H2v2H1v11h2v-2h2v-2h2v-2h2v-2h2v-2z"/><path d="M35,19v-1h2v-3h1v-5h-1V7h-1V6h-1V5h-1V4h-1V3h-1V2h-2V1h-3v2h-2v2h-2v2h-2v2h-2v2h-2v2h-2v2h-2v2h-2v2H35z"/></g><path d="M33 9V8h-1V7h-1V6h-4v1h-1v1h-1v1h-1v4h1v1h1v1h1v1h4v-1h1v-1h1v-1h1V9h-1zm-3-1v1h1v1h1v2h-1v1h-1v1h-2v-1h-1v-1h-1v-2h1V9h1V8h2z" fill="#f8af4e"/></svg>