<svg xmlns="http://www.w3.org/2000/svg" viewBox="0 0 38 10"  xmlns:v="https://vecta.io/nano"><g fill="#f27322"><path d="M18 4v2h2V4h-2zm12 0v2h2V4h-2z"/><path d="M6 4v2h2V4H6zm24-2h-2v2h2V2z"/><path d="M6 2H4v2h2V2zm12 0h-2v2h2V2z"/><path d="M28 0h-2v2h2V0zM4 0H2v2h2V0zm12 0h-2v2h2V0z"/></g><g fill="#0e0c15"><path d="M28 4V2h-2V0H16v2h2v2h2v2h10V4h-2zM4 4V2H2V0H0v6h6V4H4z"/><path d="M16 4V2h-2V0H4v2h2v2h2v2h10V4h-2zm20 6h2V8h-2v2z"/><path d="M36,2v2h-2V0h-6v2h2v2h2v2h2v2h2V6h2V2H36z"/></g></svg>