<svg xmlns="http://www.w3.org/2000/svg" viewBox="0 0 19 15"  xmlns:v="https://vecta.io/nano"><g fill="#0e0c15"><path d="M4,2V1H2v1H4z"/><path d="M1,2h1v1H1V2z"/><path d="M1,3H0v3h1V3z"/><path d="M2,7h1V6H1v3h1V7z"/><path d="M2,9h1v1H2V9z"/><path d="M3,10h1v1H3V10z"/><path d="M4,11h1v1H4V11z"/><path d="M5 12v1h2v-1H5zm5-1v-1H8v1h2z"/><path d="M8,10V9H6v1H8z"/><path d="M5,8h1v1H5V8z"/><path d="M5 8V7H3v1h2zm2 5v1h4v-1H7z"/><path d="M10 11v1h1v1h1v-1h1v-1h-3zM8 1V0H4v1h4z"/><path d="M10 2V1H8v1h2z"/><path d="M10 2h1v1h-1V2zm2 2h1v1h-1V4z"/><path d="M13,7h1V5h-1V7z"/><path d="M14,9h2V8h-1V7h-1V9z"/><path d="M18 10V9h-2v1h2z"/><path d="M18,10v2h-2v2h-2v1h3v-2h2v-3H18z"/><path d="M15,11h1v1h-1V11z"/><path d="M14 10h1v1h-1v-1zm-3-7h1v1h-1V3zm3 9h-1v2h1v-2z"/></g><g fill="#fff"><path d="M8,3h1V2H6v1h1v1h1V3z"/><path d="M4 7h1V6h1V5h1V4H5v1H4v2zm6 4H8v-1H6V9H5V8H3V7H2v2h1v1h1v1h1v1h2v1h4v-1h-1v-1zM2 5h1V4h1V3H1v3h1V5zm8 1h1V5h1V4H9v1h1v1z"/><path d="M13 7V6h-1v2h-1v3h1V9h1V8h1V7h-1zM9 7h1V6H9V5H8v1H7v3h1v1h1V7z"/></g><g fill="#f27322"><path d="M6,3V2h2V1H4v1H2v1h2v1H3v1H2v1h1v1h1V5h1V4h2V3H6z"/><path d="M11 4V3h-1V2H9v1H8v1H7v1H6v1H5v2h1v1h1V6h1V5h1V4h2z"/><path d="M9,5h1v1H9V5z"/><path d="M12 6h1V5h-2v1h-1v1H9v3h1v1h1V8h1V6zm4 4V9h-2V8h-1v1h-1v2h1v1h1v2h2v-2h-1v-1h-1v-1h1v1h1v1h2v-2h-2z"/></g></svg>