<svg xmlns="http://www.w3.org/2000/svg" viewBox="0 0 15 14"><path d="M1 10V9h1V8h1V7h1V6h1V4h1V3h1V2h1V1h2V0h2v1h1v1h1v1h1v3h-1v2h-1v1h-1v1h-1v1h-1v1H7v-1H6v1H5v1H4v1H1v-2H0v-2h1z" fill="#0e0c15"/><path d="M2 10V9h2V7h1V6h1V4h1V3h1V2h2V1h2v1h1v1h1v3h-2v1h-1v1h-1v1H7v1H5v2H4v1H2v-1h1v-1h1v-1H3v1H2v1H1v-2h1z" fill="#f27322"/><g fill="#fff"><path d="M11 1h1v1h-2V1h1z"/><path d="M8 3V2h2v1H9v1H8V3zm4 0h2v3h-1V5h-1V3zm0 4h1v1h-1z"/><path d="M11 8h1v1h-1z"/><path d="M10 9h1v1h-1z"/><path d="M9 10h1v1H7v-1h2zm2-4h-1V5H9V4h2v1h1v2h-1V6zM9 6v3H8V7H7V6h2zM7 5H6V4h2v1H7z"/><path d="M5 7V6h1v2h1v2H6V9H5V8H4V7h1z"/></g></svg>