<svg xmlns="http://www.w3.org/2000/svg" viewBox="0 0 19 15"><path d="M19 10v3h-2v2h-3v-1h-1v-2h-1v1h-1v1H7v-1H5v-1H4v-1H3v-1H2V9H1V6H0V3h1V2h1V1h2V0h4v1h2v1h1v1h1v1h1v1h1v2h1v1h1v1h2v1h1z"/><path d="M18 10v2h-2v-1h-1v-1h-1v1h1v1h1v2h-2v-2h-1v-1h-3v-1H8V9H6V8H5V7H3V6H1V3h1V2h2V1h4v1h2v1h1v1h1v1h1v2h1v2h2v1h2z" fill="#f27322"/><g fill="#fff"><path d="M8 3h1V2H6v1h1v1h1V3zM2 5h1V4h1V3H1v3h1V5z"/><path d="M4 7h1V6h1V5h1V4H5v1H4v2zm6 4H8v-1H6V9H5V8H3V7H2v2h1v1h1v1h1v1h2v1h4v-1h-1v-1zm0-5h1V5h1V4H9v1h1v1zm3 1V6h-1v2h-1v3h1V9h1V8h1V7h-1z"/><path d="M9 10H8V9H7V6h1V5h1v1h1v1H9v3z"/></g></svg>