<svg xmlns="http://www.w3.org/2000/svg" viewBox="0 0 19 15"><path d="M0,10v3h2v2h3v-1h1v-2h1v1h1v1h4v-1h2v-1h1v-1h1v-1h1V9h1V6h1V3h-1V2h-1V1h-2V0h-4v1H9v1H8v1H7v1H6v1H5v2H4v1H3v1H1v1H0z"/><path d="M1 10v2h2v-1h1v-1h1v1H4v1H3v2h2v-2h1v-1h3v-1h2V9h2V8h1V7h2V6h2V3h-1V2h-2V1h-4v1H9v1H8v1H7v1H6v2H5v2H3v1H1z" fill="#f27322"/><g fill="#fff"><path d="M11 4h1V3h1V2h-3v1h1v1zm6 2h1V3h-3v1h1v1h1v1z"/><path d="M15 5h-1V4h-2v1h1v1h1v1h1V5zm-6 7H8v1h4v-1h2v-1h1v-1h1V9h1V7h-1v1h-2v1h-1v1h-2v1H9v1zm0-7h1V4H7v1h1v1h1V5zM5 7v1h1v1h1v2h1V8H7V6H6v1H5z"/><path d="M10 10h1V9h1V6h-1V5h-1v1H9v1h1v3z"/></g></svg>