<svg xmlns="http://www.w3.org/2000/svg" viewBox="0 0 15 14"><path d="M14 10V9h-1V8h-1V7h-1V6h-1V4H9V3H8V2H7V1H5V0H3v1H2v1H1v1H0v3h1v2h1v1h1v1h1v1h1v1h3v-1h1v1h1v1h1v1h3v-2h1v-2h-1z" fill="#0e0c15"/><path d="M13 10V9h-2V7h-1V6H9V4H8V3H7V2H5V1H3v1H2v1H1v3h2v1h1v1h1v1h3v1h2v2h1v1h2v-1h-1v-1h-1v-1h1v1h1v1h1v-2h-1z" fill="#f27322"/><g fill="#fff"><path d="M4 1H3v1h2V1H4z"/><path d="M7 3V2H5v1h1v1h1V3zM3 3H1v3h1V5h1V3zM2 7h1v1H2z"/><path d="M3 8h1v1H3z"/><path d="M4 9h1v1H4z"/><path d="M6 10H5v1h3v-1H6zM4 6h1V5h1V4H4v1H3v2h1V6zm2 0v3h1V7h1V6H6zm2-1h1V4H7v1h1z"/><path d="M10 7V6H9v2H8v2h1V9h1V8h1V7h-1z"/></g></svg>