<svg xmlns="http://www.w3.org/2000/svg" viewBox="0 0 19 15"><path d="M18 10V9h-2V8h-1V7h-1V5h-1V4h-1V3h-1V2h-1V1H8V0H4v1H2v1H1v1H0v3h1v3h1v1h1v1h1v1h1v1h2v1h4v-1h1v-1h1v2h1v1h3v-2h2v-3z"/><path d="M16 10V9h-2V7h-1V5h-1V4h-1V3h-1V2H8V1H4v1H2v1H1v3h2v1h2v1h1v1h2v1h2v1h3v1h1v2h2v-2h-1v-1h-1v-1h1v1h1v1h2v-2z" fill="#f27322"/><g fill="#fff"><path d="M8 3h1V2H6v1h1v1h1zM2 5h1V4h1V3H1v3h1z"/><path d="M4 7h1V6h1V5h1V4H5v1H4zm6 4H8v-1H6V9H5V8H3V7H2v2h1v1h1v1h1v1h2v1h4v-1h-1zm0-5h1V5h1V4H9v1h1zm3 1V6h-1v2h-1v3h1V9h1V8h1V7z"/><path d="M9 7h1V6H9V5H8v1H7v3h1v1h1z"/></g></svg>