<svg xmlns="http://www.w3.org/2000/svg" viewBox="0 0 12 21"  xmlns:v="https://vecta.io/nano"><g fill="#646464"><path d="M8 1h1v1H8V1zM1 1h1v1H1V1zm7 7h1v1H8V8zM1 8h1v1H1V8zm10-2v12h1V6h-1z"/><path d="M10 20h1v-2h-1v2z"/><path d="M9,20h1v1H9V20z"/></g><path d="M8,2V1H2v1H1v6h1v1h6V8h1V2H8z" fill="#fff"/><path d="M3,3h4v4H3V3z"/><path d="M8,2V1H2v1H1v6h1v1h6V8h1V2H8z" opacity=".5" fill="#fff" enable-background="new"/><path d="M11 4h-1V2H9v6h1V6h1V4zM1 2H0v6h1V2zm7-1V0H2v1h6zM2 9v1h6V9H2z" fill="#646464"/></svg>