<svg xmlns="http://www.w3.org/2000/svg" viewBox="0 0 38 18"><path d="M36 16V8h-2V6h-2V4h-4V2h-4V0H14v2h-4v2H6v2H4v2H2v8H0v2h38v-2z" fill="#ffbe00"/><path d="M34 9V8h-1v8h2V9h-1zM4 9H3v7h2V8H4v1zm17 7h2V1h-2v15zm-6 0h2V1h-2v15zM10 5H9v11h2V4h-1v1zm18-1h-1v12h2V5h-1V4z" fill="#ffdb72"/><path d="M31 6V5h-1v11h2V6h-1zM7 6H6v10h2V5H7v1zm11 10h2V1h-2v15zM14 3h-2v13h2V3zm10 0v13h2V3h-2z" fill="#ffebb1"/><path d="M24 6V5h-1V4h-1V3h-6v1h-1v1h-1v1h-1v6h1v1h1v1h1v1h6v-1h1v-1h1v-1h1V6z" fill="#3c3c3c"/><path d="M23 6V5h-1V4h-6v1h-1v1h-1v6h1v1h1v1h6v-1h1v-1h1V6z" fill="#646464"/><path d="M22 7V6h-1V5h-4v1h-1v1h-1v4h1v1h1v1h4v-1h1v-1h1V7z" fill="#c8c8c8"/><path d="M21 7V6h-4v1h-1v4h1v1h4v-1h1V7z" fill="#eaeaea"/><path d="M17,7v4h4V7H17z" fill="#fff"/></svg>