<svg xmlns="http://www.w3.org/2000/svg" viewBox="0 0 30 18"><path d="M28 16V7h-1V6h-1V5h-1V4h-1V3h-1V2h-2V1h-2V0h-8v1H9v1H7v1H6v1H5v1H4v1H3v1H2v9H0v2h30v-2h-2z" fill="#ffbe00"/><path d="M12 16h1V1h-1v15zm5 0h1V1h-1v15zM3 16h1V7H3v9zM7 3v13h2V3H7zm19 4v9h1V7h-1zm-5-4v13h2V3h-2z" fill="#ffdb72"/><path d="M5 16h1V5H5v11zm9-15v15h2V1h-2zm10 4v11h1V5h-1zM10 16h1V2h-1v14zm9 0h1V2h-1v14z" fill="#ffebb1"/><path d="M28 3v1h-1v1h-1v1h-1v6h1v1h1v1h1v1h2V3h-2z" fill="#3c3c3c"/><path d="M28 4v1h-1v1h-1v6h1v1h1v1h2V4h-2z" fill="#646464"/><path d="M29 5v1h-1v1h-1v4h1v1h1v1h1V5h-1z" fill="#c8c8c8"/><path d="M29 6v1h-1v4h1v1h1V6h-1z" fill="#eaeaea"/><path d="M29 7v4h1V7h-1z" fill="#fff"/></svg>