<svg xmlns="http://www.w3.org/2000/svg" viewBox="0 0 30 18"><path d="M2 16V7h1V6h1V5h1V4h1V3h1V2h2V1h2V0h8v1h2v1h2v1h1v1h1v1h1v1h1v1h1v9h2v2H0v-2h2z" fill="#ffbe00"/><path d="M18 16h-1V1h1v15zm-5 0h-1V1h1v15zm14 0h-1V7h1v9zM23 3v13h-2V3h2zM4 7v9H3V7h1zm5-4v13H7V3h2z" fill="#ffdb72"/><path d="M25 16h-1V5h1v11zM16 1v15h-2V1h2zM6 5v11H5V5h1zm14 11h-1V2h1v14zm-9 0h-1V2h1v14z" fill="#ffebb1"/><path d="M2 3v1h1v1h1v1h1v6H4v1H3v1H2v1H0V3h2z" fill="#3c3c3c"/><path d="M2 4v1h1v1h1v6H3v1H2v1H0V4h2z" fill="#646464"/><path d="M1 5v1h1v1h1v4H2v1H1v1H0V5h1z" fill="#c8c8c8"/><path d="M1 6v1h1v4H1v1H0V6h1z" fill="#eaeaea"/><path d="M1 7v4H0V7h1z" fill="#fff"/></svg>