<svg xmlns="http://www.w3.org/2000/svg" viewBox="0 0 14 14"><path d="M13 12v-1h-1v-1h-1V9h-1V8H9V7H8V6H7V5H6V4h1V3h3V2h1V1h-1V0H5v1H4v1H2v2H1v1H0v5h1v1h1v-1h1V7h1V6h1v1h1v1h1v1h1v1h1v1h1v1h1v1h1v1h2v-2z" fill="#281d0a"/><path d="M12 12h1v1h-1v-1zm-2-2h1v1h-1v-1zM8 8h1v1H8V8zM6 6h1v1H6V6z" fill="#876526"/><path d="M4,4h1v1H4V4z" fill="#868686"/><g fill="#483514"><path d="M13,12h1v1h-1V12z"/><path d="M12 11h1v1h-1v-1zm-2-2h1v1h-1V9zM8 7h1v1H8V7zM6 5h1v1H6V5z"/><path d="M11 10h1v1h-1v-1zM9 8h1v1H9V8zM7 6h1v1H7V6zM5 4h1v1H5V4z"/></g><g fill="#281d0a"><path d="M12,13h1v1h-1V13z"/><path d="M11 12h1v1h-1v-1zm-2-2h1v1H9v-1zM7 8h1v1H7V8zM5 6h1v1H5V6z"/><path d="M10 11h1v1h-1v-1zM8 9h1v1H8V9zM6 7h1v1H6V7zM4 5h1v1H4V5z"/></g><path d="M13 13h1v1h-1v-1zm-2-2h1v1h-1v-1zM9 9h1v1H9V9zM7 7h1v1H7V7zM5 5h1v1H5V5z" fill="#644c1e"/><g fill="#c8c8c8"><path d="M5,2v1H4v1h2V3h1V2H5z"/><path d="M3,5H2v2h1V6h1V4H3V5z"/></g><g fill="#3c3c3c"><path d="M3,2h1v1H3V2z"/><path d="M2 3h1v1H2V3zm2-2h1v1H4V1z"/><path d="M1,4h1v1H1V4z"/><path d="M0 10h1V5H0v5z"/><path d="M1,10h1v1H1V10z"/><path d="M3,7H2v3h1V7z"/><path d="M3 6h1v1H3V6zm2-6v1h5V0H5z"/><path d="M10,1h1v1h-1V1z"/><path d="M7,2v1h3V2H7z"/><path d="M6,3h1v1H6V3z"/></g><g fill="#eaeaea"><path d="M3,3h1v1H3V3z"/><path d="M4 2h1v1H4V2zM2 4h1v1H2V4z"/><path d="M1 10h1V5H1v5zm4-9v1h5V1H5z"/></g><path d="M2,2h1v1H2V2z" fill="#868686"/></svg>