<svg xmlns="http://www.w3.org/2000/svg" viewBox="0 0 14 14"><path d="M13 5V4h-1V2h-2V1H9V0H4v1H3v1h1v1h3v1h1v1H7v1H6v1H5v1H4v1H3v1H2v1H1v1H0v2h2v-1h1v-1h1v-1h1v-1h1V9h1V8h1V7h1V6h1v1h1v3h1v1h1v-1h1V5h-1z" fill="#3c3c3c"/><path d="M0 12v2h2v-1h1v-1h1v-1h1v-1h1V9h1V8h1V7h1V6h1v1h1v3h1v1h1v-1h1V5h-1V4h-1V2h-2V1H9V0H4v1H3v1h1v1h3v1h1v1H7v1H6v1H5v1H4v1H3v1H2v1H1v1H0z" fill="#281d0a"/><path d="M2 13H1v-1h1v1zm2-2H3v-1h1v1zm2-2H5V8h1v1zm2-2H7V6h1v1z" fill="#876526"/><path d="M10,5H9V4h1V5z" fill="#868686"/><g fill="#483514"><path d="M1 13H0v-1h1v1z"/><path d="M2 12H1v-1h1v1zm2-2H3V9h1v1zm2-2H5V7h1v1zm2-2H7V5h1v1z"/><path d="M3 11H2v-1h1v1zm2-2H4V8h1v1zm2-2H6V6h1v1zm2-2H8V4h1v1z"/></g><g fill="#281d0a"><path d="M2 14H1v-1h1v1z"/><path d="M3 13H2v-1h1v1zm2-2H4v-1h1v1zm2-2H6V8h1v1zm2-2H8V6h1v1z"/><path d="M4 12H3v-1h1v1zm2-2H5V9h1v1zm2-2H7V7h1v1zm2-2H9V5h1v1z"/></g><path d="M1 14H0v-1h1v1zm2-2H2v-1h1v1zm2-2H4V9h1v1zm2-2H6V7h1v1zm2-2H8V5h1v1z" fill="#644c1e"/><g fill="#c8c8c8"><path d="M7,2v1h1v1h2V3H9V2H7z"/><path d="M11,4h-1v2h1v1h1V5h-1V4z"/></g><g fill="#3c3c3c"><path d="M11,3h-1V2h1V3z"/><path d="M12 4h-1V3h1v1zm-2-2H9V1h1v1z"/><path d="M13,5h-1V4h1V5z"/><path d="M14,5h-1v5h1V5z"/><path d="M13 11h-1v-1h1v1z"/><path d="M11 10h1V7h-1v3z"/><path d="M11 7h-1V6h1v1zM4 0v1h5V0H4z"/><path d="M4,2H3V1h1V2z"/><path d="M4,2v1h3V2H4z"/><path d="M8,4H7V3h1V4z"/></g><g fill="#eaeaea"><path d="M11,4h-1V3h1V4z"/><path d="M10 3H9V2h1v1zm2 2h-1V4h1v1z"/><path d="M13 5h-1v5h1V5zM4 1v1h5V1H4z"/></g><path d="M12,3h-1V2h1V3z" fill="#868686"/></svg>