<svg xmlns="http://www.w3.org/2000/svg" viewBox="0 0 24 23"><path d="M0,23h3v-2h3v2h4v-2h4v2h4v-2h3v2h3V1H9v1H7v1H5v1H3v1H0V23z" fill="#092c1b"/><g fill="#283d2e"><path d="M7,2v1H5v1H3v1H1v1H0v1h1v1H0v2h1V9h1V8h1V7h2V6h2V5h1V3h1V2H7z"/><path d="M9 1h1v1H9V1zm1 2H9v3H7v1H5v1h2v1h1v1H7v1H2v-1H1v1H0v9h10V3zM1 19v-6h1v-1h5v1h1v6H1zM11 2h12v18H11V2z"/></g><path d="M2,14h1v1H2V14z" fill="#e15667"/><path d="M1,14h1v1H1V14z" fill="#fed11f"/><path d="M4,14h1v1H4V14z" fill="#4b6329"/><path d="M6,14h1v1H6V14z" fill="#f55549"/><path d="M6,12h1v1H6V12z" fill="#698bd9"/><path d="M6,13h1v1H6V13z" fill="#e2e5f3"/><path d="M4,13h1v1H4V13z" fill="#45322f"/><path d="M3,14h1v1H3V14z" fill="#474981"/><path d="M5,14h1v1H5V14z" fill="#756638"/><path d="M5,13h1v1H5V13z" fill="#d9c6b2"/><path d="M0,5h1v1H0V5z" fill="#c2cbc7"/><path d="M2,12h1v1H2V12z" fill="#76946f"/><path d="M3,12h1v1H3V12z" fill="#cad4e4"/><path d="M7,13h1v1H7V13z" fill="#556592"/><path d="M7,14h1v1H7V14z" fill="#4770bb"/><path d="M4,12h1v1H4V12z" fill="#5666bc"/><path d="M3,13h1v1H3V13z" fill="#f6d435"/><path d="M2,13h1v1H2V13z" fill="#e6bf8f"/><path d="M5,12h1v1H5V12z" fill="#c23e3f"/><path d="M1,13h1v1H1V13z" fill="#f75457"/><path d="M5,16v-1H4v1H3v2h3v-2H5z" fill="#ddd9d6"/><path d="M4,16h1v1H4V16z" fill="#fafefd"/><path d="M0 7h1v1H0V7zm7 2V8H2v1H1v1h1v1h5v-1h1V9H7z" fill="#f8af4e"/><path d="M5 9h1v1H5V9zM3 9h1v1H3V9z" fill="#fff"/><path d="M6 9h1v1H6V9zM4 9h1v1H4V9zM2 9h1v1H2V9z" fill="#6f4017"/></svg>