<svg xmlns="http://www.w3.org/2000/svg" viewBox="0 0 24 23"><path d="M0,1h15v1h2v1h2v1h2v1h3v18h-3v-2h-3v2h-4v-2h-4v2H6v-2H3v2H0V1z" fill="#092c1b"/><g fill="#283d2e"><path d="M24,20H14V3h1v3h2v1h2v1h-2v4h1v1h1v1h-2v5h5v-5h-2v-1h1v-1h1v-2h2V20z"/><path d="M24 7V6h-1V5h-2V4h-2V3h-2V2h-2v1h1v2h1v1h2v1h1v1h2v1h2V8h-1V7h1z"/><path d="M14 1h1v1h-1V1zM1 2h12v18H1V2z"/></g><path d="M23,5h1v1h-1V5z" fill="#c2cbc7"/><path d="M17 15h5v1h-5v-1zm6-8h1v1h-1V7z" fill="#c23e3f"/><path d="M20,8V7h-1v1h-2v4h1v1h1v1h1v-1h1v-1h1V8H20z" fill="#6f4017"/><path d="M20,9V8h-1v1h-1v3h1v1h1v-1h1V9H20z" fill="#f8af4e"/></svg>