<svg xmlns="http://www.w3.org/2000/svg" viewBox="0 0 43 22"><path d="M0 18v4h38v-4h-2v-4h-2v-2h-2v-2h4v2h3v1h-1v3h1v1h3v-1h1v-3h-1v-1h-2v-2h-2V8h-2V6h-2V4h-2V2h-4V0H16v2h-4v2h-2v2H8v2H6v2H4v4H2v4z" fill="#0050aa"/><path d="M39,13v3h3v-3H39z" fill="#fff"/><path d="M34 16v-2h-4v-2h-2v-2h2V8h4V6h-2V4h-4V2H16v2h-4v2h-2v2H8v2H6v4H4v2zM2 18h34v2H2z" fill="#00a0e6"/><g fill="#00beff"><path d="M20 4h-2v2h2V4zm-4 0h-2v2h2V4zm8 0h-2v2h2V4zm4 2V4h-2v2h2z"/><path d="M18 4V2h-2v2h2zm8 0V2h-2v2h2zm-4 0V2h-2v2h2zm8 2h2V4h-2v2zm-8 0h-2v2h2V6zm-4 0h-2v2h2V6zm-4 0h-2v2h2V6zm12 0h-2v2h2V6z"/><path d="M30 8V6h-2v2h2zM20 8h-2v2h2V8zm-4 0h-2v2h2V8zm-4 0h-2v2h2V8z"/><path d="M24 8h-2v2h2V8zm4 2V8h-2v2h2zm-10 0h-2v2h2v-2zm-4 0h-2v2h2v-2z"/><path d="M10 10H8v2h2v-2zm12 0h-2v2h2v-2zm4 2v-2h-2v2h2zm-10 0h-2v2h2v-2z"/><path d="M12 12h-2v2h2v-2zm-4 0H6v2h2v-2zm12 0h-2v2h2v-2zm4 2v-2h-2v2h2z"/><path d="M14 14h-2v2h2v-2zm-4 0H8v2h2v-2zm-4 0H4v2h2v-2zm12 0h-2v2h2v-2zm4 2v-2h-2v2h2zm6-4h-2v2h2v-2z"/><path d="M26 14h-2v2h2v-2zm4 2v-2h-2v2h2zm4 0v-2h-2v2h2zm-20 2h-2v2h2v-2zm-4 0H8v2h2v-2zm-4 0H4v2h2v-2zm12 0h-2v2h2v-2zm4 2v-2h-2v2h2zm4-2h-2v2h2v-2zm4 2v-2h-2v2h2zm4 0v-2h-2v2h2zM32 8h2V6h-2v2z"/></g></svg>