<svg xmlns="http://www.w3.org/2000/svg" viewBox="0 0 43 22"><path d="M41 18v-4h-2v-4h-2V8h-2V6h-2V4h-2V2h-4V0H15v2h-4v2H9v2H7v2H5v2H3v2H1v1H0v3h1v1h3v-1h1v-3H4v-1h3v-2h4v2H9v2H7v4H5v4h38v-4z" fill="#0050aa"/><path d="M1,13v3h3v-3H1z" fill="#fff"/><path d="M39 16v-2h-2v-4h-2V8h-2V6h-2V4h-4V2H15v2h-4v2H9v2h4v2h2v2h-2v2H9v2zM7 18h34v2H7z" fill="#00a0e6"/><g fill="#00beff"><path d="M23 6h2V4h-2v2zm4 0h2V4h-2v2zm-8 0h2V4h-2v2zm-2 0V4h-2v2h2z"/><path d="M27 4V2h-2v2h2zm-8 0V2h-2v2h2zm4 0V2h-2v2h2zM13 4h-2v2h2V4zm8 4h2V6h-2v2zm4 0h2V6h-2v2zm4 0h2V6h-2v2zM17 8h2V6h-2v2z"/><path d="M15 8V6h-2v2h2zm8 2h2V8h-2v2zm4 0h2V8h-2v2zm4 0h2V8h-2v2z"/><path d="M19 10h2V8h-2v2zm-2 0V8h-2v2h2zm8 2h2v-2h-2v2zm4 0h2v-2h-2v2z"/><path d="M33 12h2v-2h-2v2zm-12 0h2v-2h-2v2zm-2 0v-2h-2v2h2zm8 2h2v-2h-2v2z"/><path d="M31 14h2v-2h-2v2zm4 0h2v-2h-2v2zm-12 0h2v-2h-2v2zm-2 0v-2h-2v2h2z"/><path d="M29 16h2v-2h-2v2zm4 0h2v-2h-2v2zm4 0h2v-2h-2v2zm-12 0h2v-2h-2v2zm-2 0v-2h-2v2h2zm-8-2h2v-2h-2v2z"/><path d="M17 16h2v-2h-2v2zm-2 0v-2h-2v2h2zm-4 0v-2H9v2h2zm18 4h2v-2h-2v2zm4 0h2v-2h-2v2zm4 0h2v-2h-2v2zm-12 0h2v-2h-2v2zm-2 0v-2h-2v2h2zm-6 0h2v-2h-2v2zm-2 0v-2h-2v2h2zm-4 0v-2H9v2h2zm0-14H9v2h2V6z"/></g></svg>