<svg xmlns="http://www.w3.org/2000/svg" viewBox="0 0 35 22"><path d="M33 18v-4h-2v-4h-2V8h-2V6h-2V4h-2V2h-2V0h-8v2h-2v2H9v2H7v2H5v2H3v2H1v1H0v3h1v1h3v-1h1v-3H4v-1h3v-2h4v2H9v2H7v4H5v4h30v-4h-2z" fill="#0050aa"/><path d="M11 16h20v-2h-2v-4h-2V8h-2V6h-2V4h-2V2h-8v2h-2v2H9v2h4v6H9v2h2zm-4 2v2h26v-2H7z" fill="#00a0e6"/><g fill="#00beff"><path d="M15 18v2h2v-2h-2zm4 0v2h2v-2h-2zm-4-4v2h2v-2h-2zm4 0v2h2v-2h-2z"/><path d="M19 12h-2v2h2v-2zm-4 0h-2v2h2v-2z"/><path d="M21 10h-2v2h2v-2zm-4 2v-2h-2v2h2z"/><path d="M15 8h-2v2h2V8zm4 2V8h-2v2h2z"/><path d="M19 8h2V6h-2v2zm-2-2h-2v2h2V6z"/><path d="M17 6h2V4h-2v2zm-2 0V4h-2v2h2z"/><path d="M17 4V2h-2v2h2zm4 0V2h-2v2h2zm6 14v2h2v-2h-2zm-4 0v2h2v-2h-2zm-12 0v2h2v-2h-2zm20 0v2h2v-2h-2zM7 18v2h2v-2H7zm20-2h2v-2h-2v2zm-4-2v2h2v-2h-2zm-12 0v2h2v-2h-2z"/><path d="M25 12v2h2v-2h-2zm-2 0h-2v2h2v-2z"/><path d="M27 10v2h2v-2h-2zm-4 0v2h2v-2h-2z"/><path d="M25 10h2V8h-2v2zm-4 0h2V8h-2v2z"/><path d="M13 6h-2v2h2V6zm10 2h2V6h-2v2z"/><path d="M21 6h2V4h-2v2z"/></g><path d="M1 13v3h3v-3H1z" fill="#fff"/></svg>