<svg xmlns="http://www.w3.org/2000/svg" viewBox="0 0 35 22"><path d="M2 18v-4h2v-4h2V8h2V6h2V4h2V2h2V0h8v2h2v2h2v2h2v2h2v2h2v2h2v1h1v3h-1v1h-3v-1h-1v-3h1v-1h-3v-2h-4v2h2v2h2v4h2v4H0v-4h2z" fill="#0050aa"/><path d="M24 16H4v-2h2v-4h2V8h2V6h2V4h2V2h8v2h2v2h2v2h-4v6h4v2h-2zm4 2v2H2v-2h26z" fill="#00a0e6"/><g fill="#00beff"><path d="M20 18v2h-2v-2h2zm-4 0v2h-2v-2h2zm4-4v2h-2v-2h2zm-4 0v2h-2v-2h2z"/><path d="M16 12h2v2h-2v-2zm4 0h2v2h-2v-2z"/><path d="M14 10h2v2h-2v-2zm4 2v-2h2v2h-2z"/><path d="M20 8h2v2h-2V8zm-4 2V8h2v2h-2z"/><path d="M16 8h-2V6h2v2zm2-2h2v2h-2V6z"/><path d="M18 6h-2V4h2v2zm2 0V4h2v2h-2z"/><path d="M18 4V2h2v2h-2zm-4 0V2h2v2h-2zM8 18v2H6v-2h2zm4 0v2h-2v-2h2zm12 0v2h-2v-2h2zM4 18v2H2v-2h2zm24 0v2h-2v-2h2zM8 16H6v-2h2v2zm4-2v2h-2v-2h2zm12 0v2h-2v-2h2z"/><path d="M10 12v2H8v-2h2zm2 0h2v2h-2v-2z"/><path d="M8 10v2H6v-2h2zm4 0v2h-2v-2h2z"/><path d="M10 10H8V8h2v2zm4 0h-2V8h2v2z"/><path d="M22 6h2v2h-2V6zM12 8h-2V6h2v2z"/><path d="M14 6h-2V4h2v2z"/></g><path d="M34 13v3h-3v-3h3z" fill="#fff"/></svg>