<svg xmlns="http://www.w3.org/2000/svg" xmlns:xlink="http://www.w3.org/1999/xlink" viewBox="0 0 24 23"><path d="M0 7v16h3v-2h3v2h4v-2h4v2h4v-2h3v2h3V1H10v2H7v1H5v1H3v1H1v1H0z" fill="#0050aa"/><path d="M0 8v6h3v1H0v1h3v1H0v1h3v1H0v1h6v1h1v1h2v-1h1v-1h4v1h1v1h2v-1h1v-1h3v1h1v1h1V2H11v1h-1v1H7v1H5v1H3v1H1v1H0z" fill="#00a0e6"/><path d="M0 15v1h3v-1H0zm0 4v1h3v-1H0zm0-2v1h3v-1H0z" fill="#fff"/><g fill="#00beff"><path d="M8 16H7v-1h1v1z"/><path d="M7 17H6v-1h1v1zm4 0h-1v-1h1v1zm-2-2H8v-1h1v1z"/><path d="M10 14H9v-1h1v1zm-3-1H6v-1h1v1z"/><path d="M8 12H7v-1h1v1zm-3-1H4v-1h1v1z"/><path d="M6 10H5V9h1v1zM3 9H2V8h1v1z"/><path d="M4,8H3V7h1V8z"/><path d="M5,9H4V8h1V9z"/><path d="M6,8H5V7h1V8z"/><path d="M7,9H6V8h1V9z"/><path d="M8,8H7V7h1V8z"/><path d="M9,9H8V8h1V9z"/><path d="M10,8H9V7h1V8z"/><path d="M11 9h-1V8h1v1zm0-2h-1V6h1v1zm0 4h-1v-1h1v1zm-2 0H8v-1h1v1z"/><path d="M10 10H9V9h1v1zm1 3h-1v-1h1v1zm0 2h-1v-1h1v1zm-2-2H8v-1h1v1z"/><path d="M10 12H9v-1h1v1zm-3-1H6v-1h1v1z"/><path d="M8 10H7V9h1v1zM1 9H0V8h1v1z"/><path d="M2 8H1V7h1v1zm3-1H4V6h1v1z"/><path d="M6,6H5V5h1V6z"/><path d="M7,7H6V6h1V7z"/><path d="M8,6H7V5h1V6z"/><path d="M9,7H8V6h1V7z"/><path d="M10,6H9V5h1V6z"/><path d="M11 5h-1V4h1v1zM9 5H8V4h1v1zm0 12H8v-1h1v1z"/><path d="M10 16H9v-1h1v1zm-3-1H6v-1h1v1z"/><path d="M8 14H7v-1h1v1zm-3 1H4v-1h1v1z"/><path d="M6 14H5v-1h1v1zm-3-1H2v-1h1v1z"/><path d="M4 12H3v-1h1v1z"/><path d="M5 13H4v-1h1v1z"/><path d="M6 12H5v-1h1v1zm-5 1H0v-1h1v1z"/><path d="M2 12H1v-1h1v1z"/><path d="M1 11H0v-1h1v1z"/><path d="M2 10H1V9h1v1z"/><path d="M3 11H2v-1h1v1z"/><path d="M4 10H3V9h1v1zm2 6H5v-1h1v1z"/><path d="M5 17H4v-1h1v1zm-3-3H1v-1h1v1z"/><path d="M4 14H3v-1h1v1zm0 2H3v-1h1v1zm4 2H7v-1h1v1z"/><path d="M7 19H6v-1h1v1zm4 0h-1v-1h1v1zm-2 0H8v-1h1v1z"/><path d="M10 18H9v-1h1v1zm-4 0H5v-1h1v1z"/><path d="M5 19H4v-1h1v1z"/><path d="M4 18H3v-1h1v1zm4 2H7v-1h1v1zm-2 0H5v-1h1v1zm-2 0H3v-1h1v1zm6 0H9v-1h1v1zm3-3h-1v-1h1v1zm-1-3h-1v-1h1v1zm0-6h-1V7h1v1z"/><use href="#B"/><use href="#C"/><use href="#D"/><use href="#E"/><use href="#F"/><use href="#B" x="2"/><use href="#C" x="2"/><use href="#D" x="2"/><use href="#E" x="2"/><use href="#F" x="2"/><use href="#B" x="4"/><use href="#C" x="4"/><use href="#D" x="4"/><use href="#E" x="4"/><use href="#F" x="4"/><use href="#B" x="6"/><use href="#C" x="6"/><use href="#D" x="6"/><use href="#E" x="6"/><use href="#F" x="6"/><use href="#B" x="8"/><use href="#C" x="8"/><use href="#D" x="8"/><use href="#E" x="8"/><use href="#F" x="8"/><use href="#B" x="10"/><use href="#C" x="10"/><use href="#D" x="10"/><path d="M23 5h-1V4h1v1zM12 4h-1V3h1v1z"/><path d="M13,3h-1V2h1V3z"/><path d="M14,4h-1V3h1V4z"/><path d="M15,3h-1V2h1V3z"/><path d="M16,4h-1V3h1V4z"/><path d="M17,3h-1V2h1V3z"/><path d="M18,4h-1V3h1V4z"/><path d="M19,3h-1V2h1V3z"/><path d="M20,4h-1V3h1V4z"/><path d="M21,3h-1V2h1V3z"/><path d="M22,4h-1V3h1V4z"/><path d="M23 3h-1V2h1v1zm-1 13h-1v-1h1v1zm1 3h-1v-1h1v1z"/><path d="M22 18h-1v-1h1v1zm0 2h-1v-1h1v1z"/><path d="M23 21h-1v-1h1v1zm-6 0h-1v-1h1v1zm-2 0h-1v-1h1v1zm-7 1H7v-1h1v1z"/><path d="M16 22h-1v-1h1v1zm-9-1H6v-1h1v1zm2 0H8v-1h1v1z"/></g><defs ><path id="B" d="M13 9h-1V8h1v1zm0-2h-1V6h1v1zm0 4h-1v-1h1v1z"/><path id="C" d="M12 10h-1V9h1v1zm1 3h-1v-1h1v1z"/><path id="D" d="M13 15h-1v-1h1v1zm-1-3h-1v-1h1v1zm0-6h-1V5h1v1z"/><path id="E" d="M13 5h-1V4h1v1zm-1 11h-1v-1h1v1zm1 3h-1v-1h1v1z"/><path id="F" d="M12 18h-1v-1h1v1zm0 2h-1v-1h1v1zm3-3h-1v-1h1v1zm-1-3h-1v-1h1v1zm0-6h-1V7h1v1z"/></defs></svg>
