<svg xmlns="http://www.w3.org/2000/svg" viewBox="0 0 42 24"  xmlns:v="https://vecta.io/nano"><g fill="#00a0e6"><path d="M1 2h1v1H1V2zm1 5h1v1H2V7zm0-2h1v1H2V5z"/><path d="M1 6h1v1H1V6zm2 0h1v1H3V6zm0-2h1v1H3V4z"/><path d="M2,3h1v1H2V3z"/><path d="M1 4h1v1H1V4zm2 4h1v1H3V8z"/></g><g fill="#00beff"><path d="M1,3h1v1H1V3z"/><path d="M2 2h1v1H2V2zm0 4h1v1H2V6z"/><path d="M3 7h1v1H3V7zm0-2h1v1H3V5z"/><path d="M2,4h1v1H2V4z"/><path d="M1 5h1v1H1V5zm2-2h1v1H3V3z"/></g><g fill="#0050aa"><path d="M4,9H3v1h1V9z"/><path d="M2,8h1v1H2V8z"/><path d="M1,7h1v1H1V7z"/><path d="M1,7V2h2V1H1V0H0v7H1z"/><path d="M3,2h1v1H3V2z"/></g></svg>