<svg xmlns="http://www.w3.org/2000/svg" viewBox="0 0 24 22"><path d="M1 6V5h2V4h2V3h2V2h3V0h14v22h-3v-2h-3v2h-4v-2h-4v2H6v-2H3v2H0V6h1z" fill="#0050aa"/><path d="M1 7V6h2V5h2V4h2V3h3V2h1V1h12v20h-1v-1h-1v-1h-3v1h-1v1h-2v-1h-1v-1h-4v1H9v1H7v-1H6v-1H0v-1h3v-1H0v-1h3v-1H0v-1h3v-1H0V7h1z" fill="#00a0e6"/><path d="M3 14v1H0v-1h3zm0 4v1H0v-1h3zm0-2v1H0v-1h3z" fill="#fff"/><g fill="#00beff"><path d="M7 14h1v1H7z"/><path d="M6 15h1v1H6zm4 0h1v1h-1zm-2-2h1v1H8z"/><path d="M9 12h1v1H9zm-3-1h1v1H6z"/><path d="M7 10h1v1H7zM4 9h1v1H4z"/><path d="M5 8h1v1H5zM2 7h1v1H2z"/><path d="M3 6h1v1H3z"/><path d="M4 7h1v1H4z"/><path d="M5 6h1v1H5z"/><path d="M6 7h1v1H6z"/><path d="M7 6h1v1H7z"/><path d="M8 7h1v1H8z"/><path d="M9 6h1v1H9z"/><path d="M10 7h1v1h-1zm0-2h1v1h-1zm0 4h1v1h-1zM8 9h1v1H8z"/><path d="M9 8h1v1H9zm1 3h1v1h-1zm0 2h1v1h-1zm-2-2h1v1H8z"/><path d="M9 10h1v1H9zM6 9h1v1H6z"/><path d="M7 8h1v1H7zM0 7h1v1H0z"/><path d="M1 6h1v1H1zm3-1h1v1H4z"/><path d="M5 4h1v1H5z"/><path d="M6 5h1v1H6z"/><path d="M7 4h1v1H7z"/><path d="M8 5h1v1H8z"/><path d="M9 4h1v1H9z"/><path d="M10 3h1v1h-1zM8 3h1v1H8zm0 12h1v1H8z"/><path d="M9 14h1v1H9zm-3-1h1v1H6z"/><path d="M7 12h1v1H7zm-3 1h1v1H4z"/><path d="M5 12h1v1H5zm-3-1h1v1H2z"/><path d="M3 10h1v1H3z"/><path d="M4 11h1v1H4z"/><path d="M5 10h1v1H5zm-5 1h1v1H0z"/><path d="M1 10h1v1H1z"/><path d="M0 9h1v1H0z"/><path d="M1 8h1v1H1z"/><path d="M2 9h1v1H2z"/><path d="M3 8h1v1H3zm2 6h1v1H5z"/><path d="M4 15h1v1H4zm-3-3h1v1H1z"/><path d="M3 12h1v1H3zm0 2h1v1H3zm4 2h1v1H7z"/><path d="M6 17h1v1H6zm4 0h1v1h-1zm-2 0h1v1H8z"/><path d="M9 16h1v1H9zm-4 0h1v1H5z"/><path d="M4 17h1v1H4z"/><path d="M3 16h1v1H3zm4 2h1v1H7zm-2 0h1v1H5zm-2 0h1v1H3zm6 0h1v1H9zm3-3h1v1h-1zm-1-3h1v1h-1zm0-6h1v1h-1z"/><path d="M12 7h1v1h-1zm0-2h1v1h-1zm0 4h1v1h-1z"/><path d="M11 8h1v1h-1zm1 3h1v1h-1z"/><path d="M12 13h1v1h-1zm-1-3h1v1h-1zm0-6h1v1h-1z"/><path d="M12 3h1v1h-1zm-1 11h1v1h-1zm1 3h1v1h-1z"/><path d="M11 16h1v1h-1zm0 2h1v1h-1zm3-3h1v1h-1zm-1-3h1v1h-1zm0-6h1v1h-1z"/><path d="M14 7h1v1h-1zm0-2h1v1h-1zm0 4h1v1h-1z"/><path d="M13 8h1v1h-1zm1 3h1v1h-1z"/><path d="M14 13h1v1h-1zm-1-3h1v1h-1zm0-6h1v1h-1z"/><path d="M14 3h1v1h-1zm-1 11h1v1h-1zm1 3h1v1h-1z"/><path d="M13 16h1v1h-1zm0 2h1v1h-1zm3-3h1v1h-1zm-1-3h1v1h-1zm0-6h1v1h-1z"/><path d="M16 7h1v1h-1zm0-2h1v1h-1zm0 4h1v1h-1z"/><path d="M15 8h1v1h-1zm1 3h1v1h-1z"/><path d="M16 13h1v1h-1zm-1-3h1v1h-1zm0-6h1v1h-1z"/><path d="M16 3h1v1h-1zm-1 11h1v1h-1zm1 3h1v1h-1z"/><path d="M15 16h1v1h-1zm0 2h1v1h-1zm3-3h1v1h-1zm-1-3h1v1h-1zm0-6h1v1h-1z"/><path d="M18 7h1v1h-1zm0-2h1v1h-1zm0 4h1v1h-1z"/><path d="M17 8h1v1h-1zm1 3h1v1h-1z"/><path d="M18 13h1v1h-1zm-1-3h1v1h-1zm0-6h1v1h-1z"/><path d="M18 3h1v1h-1zm-1 11h1v1h-1zm1 3h1v1h-1z"/><path d="M17 16h1v1h-1zm0 2h1v1h-1zm3-3h1v1h-1zm-1-3h1v1h-1zm0-6h1v1h-1z"/><path d="M20 7h1v1h-1zm0-2h1v1h-1zm0 4h1v1h-1z"/><path d="M19 8h1v1h-1zm1 3h1v1h-1z"/><path d="M20 13h1v1h-1zm-1-3h1v1h-1zm0-6h1v1h-1z"/><path d="M20 3h1v1h-1zm-1 11h1v1h-1zm1 3h1v1h-1z"/><path d="M19 16h1v1h-1zm0 2h1v1h-1zm3-3h1v1h-1zm-1-3h1v1h-1zm0-6h1v1h-1z"/><path d="M22 7h1v1h-1zm0-2h1v1h-1zm0 4h1v1h-1z"/><path d="M21 8h1v1h-1zm1 3h1v1h-1z"/><path d="M22 13h1v1h-1zm-1-3h1v1h-1zm0-6h1v1h-1z"/><path d="M22 3h1v1h-1zM11 2h1v1h-1z"/><path d="M12 1h1v1h-1z"/><path d="M13 2h1v1h-1z"/><path d="M14 1h1v1h-1z"/><path d="M15 2h1v1h-1z"/><path d="M16 1h1v1h-1z"/><path d="M17 2h1v1h-1z"/><path d="M18 1h1v1h-1z"/><path d="M19 2h1v1h-1z"/><path d="M20 1h1v1h-1z"/><path d="M21 2h1v1h-1z"/><path d="M22 1h1v1h-1zm-1 13h1v1h-1zm1 3h1v1h-1z"/><path d="M21 16h1v1h-1zm0 2h1v1h-1z"/><path d="M22 19h1v1h-1zm-6 0h1v1h-1zm-2 0h1v1h-1zm-7 1h1v1H7z"/><path d="M15 20h1v1h-1zm-9-1h1v1H6zm2 0h1v1H8z"/></g></svg>