<svg xmlns="http://www.w3.org/2000/svg" viewBox="0 0 24 22"><path d="M23 6V5h-2V4h-2V3h-2V2h-3V0H0v22h3v-2h3v2h4v-2h4v2h4v-2h3v2h3V6h-1z" fill="#0050aa"/><path d="M23 7V6h-2V5h-2V4h-2V3h-3V2h-1V1H1v20h1v-1h1v-1h3v1h1v1h2v-1h1v-1h4v1h1v1h2v-1h1v-1h6v-1h-3v-1h3v-1h-3v-1h3v-1h-3v-1h3V7h-1z" fill="#00a0e6"/><path d="M21 14v1h3v-1h-3zm0 4v1h3v-1h-3zm0-2v1h3v-1h-3z" fill="#fff"/><g fill="#00beff"><path d="M16 14h1v1h-1z"/><path d="M17 15h1v1h-1zm-4 0h1v1h-1zm2-2h1v1h-1z"/><path d="M14 12h1v1h-1zm3-1h1v1h-1z"/><path d="M16 10h1v1h-1zm3-1h1v1h-1z"/><path d="M18 8h1v1h-1zm3-1h1v1h-1z"/><path d="M20 6h1v1h-1z"/><path d="M19 7h1v1h-1z"/><path d="M18 6h1v1h-1z"/><path d="M17 7h1v1h-1z"/><path d="M16 6h1v1h-1z"/><path d="M15 7h1v1h-1z"/><path d="M14 6h1v1h-1z"/><path d="M13 7h1v1h-1zm0-2h1v1h-1zm0 4h1v1h-1zm2 0h1v1h-1z"/><path d="M14 8h1v1h-1zm-1 3h1v1h-1zm0 2h1v1h-1zm2-2h1v1h-1z"/><path d="M14 10h1v1h-1zm3-1h1v1h-1z"/><path d="M16 8h1v1h-1zm7-1h1v1h-1z"/><path d="M22 6h1v1h-1zm-3-1h1v1h-1z"/><path d="M18 4h1v1h-1z"/><path d="M17 5h1v1h-1z"/><path d="M16 4h1v1h-1z"/><path d="M15 5h1v1h-1z"/><path d="M14 4h1v1h-1z"/><path d="M13 3h1v1h-1zm2 0h1v1h-1zm0 12h1v1h-1z"/><path d="M14 14h1v1h-1zm3-1h1v1h-1z"/><path d="M16 12h1v1h-1zm3 1h1v1h-1z"/><path d="M18 12h1v1h-1zm3-1h1v1h-1z"/><path d="M20 10h1v1h-1z"/><path d="M19 11h1v1h-1z"/><path d="M18 10h1v1h-1zm5 1h1v1h-1z"/><path d="M22 10h1v1h-1z"/><path d="M23 9h1v1h-1z"/><path d="M22 8h1v1h-1z"/><path d="M21 9h1v1h-1z"/><path d="M20 8h1v1h-1zm-2 6h1v1h-1z"/><path d="M19 15h1v1h-1zm3-3h1v1h-1z"/><path d="M20 12h1v1h-1zm0 2h1v1h-1zm-4 2h1v1h-1z"/><path d="M17 17h1v1h-1zm-4 0h1v1h-1zm2 0h1v1h-1z"/><path d="M14 16h1v1h-1zm4 0h1v1h-1z"/><path d="M19 17h1v1h-1z"/><path d="M20 16h1v1h-1zm-4 2h1v1h-1zm2 0h1v1h-1zm2 0h1v1h-1zm-6 0h1v1h-1zm-3-3h1v1h-1zm1-3h1v1h-1zm0-6h1v1h-1z"/><path d="M11 7h1v1h-1zm0-2h1v1h-1zm0 4h1v1h-1z"/><path d="M12 8h1v1h-1zm-1 3h1v1h-1z"/><path d="M11 13h1v1h-1zm1-3h1v1h-1zm0-6h1v1h-1z"/><path d="M11 3h1v1h-1zm1 11h1v1h-1zm-1 3h1v1h-1z"/><path d="M12 16h1v1h-1zm0 2h1v1h-1zm-3-3h1v1H9zm1-3h1v1h-1zm0-6h1v1h-1z"/><path d="M9 7h1v1H9zm0-2h1v1H9zm0 4h1v1H9z"/><path d="M10 8h1v1h-1zm-1 3h1v1H9z"/><path d="M9 13h1v1H9zm1-3h1v1h-1zm0-6h1v1h-1z"/><path d="M9 3h1v1H9zm1 11h1v1h-1zm-1 3h1v1H9z"/><path d="M10 16h1v1h-1zm0 2h1v1h-1zm-3-3h1v1H7zm1-3h1v1H8zm0-6h1v1H8z"/><path d="M7 7h1v1H7zm0-2h1v1H7zm0 4h1v1H7z"/><path d="M8 8h1v1H8zm-1 3h1v1H7z"/><path d="M7 13h1v1H7zm1-3h1v1H8zm0-6h1v1H8z"/><path d="M7 3h1v1H7zm1 11h1v1H8zm-1 3h1v1H7z"/><path d="M8 16h1v1H8zm0 2h1v1H8zm-3-3h1v1H5zm1-3h1v1H6zm0-6h1v1H6z"/><path d="M5 7h1v1H5zm0-2h1v1H5zm0 4h1v1H5z"/><path d="M6 8h1v1H6zm-1 3h1v1H5z"/><path d="M5 13h1v1H5zm1-3h1v1H6zm0-6h1v1H6z"/><path d="M5 3h1v1H5zm1 11h1v1H6zm-1 3h1v1H5z"/><path d="M6 16h1v1H6zm0 2h1v1H6zm-3-3h1v1H3zm1-3h1v1H4zm0-6h1v1H4z"/><path d="M3 7h1v1H3zm0-2h1v1H3zm0 4h1v1H3z"/><path d="M4 8h1v1H4zm-1 3h1v1H3z"/><path d="M3 13h1v1H3zm1-3h1v1H4zm0-6h1v1H4z"/><path d="M3 3h1v1H3zm1 11h1v1H4zm-1 3h1v1H3z"/><path d="M4 16h1v1H4zm0 2h1v1H4zm-3-3h1v1H1zm1-3h1v1H2zm0-6h1v1H2z"/><path d="M1 7h1v1H1zm0-2h1v1H1zm0 4h1v1H1z"/><path d="M2 8h1v1H2zm-1 3h1v1H1z"/><path d="M1 13h1v1H1zm1-3h1v1H2zm0-6h1v1H2z"/><path d="M1 3h1v1H1zm11-1h1v1h-1z"/><path d="M11 1h1v1h-1z"/><path d="M10 2h1v1h-1z"/><path d="M9 1h1v1H9z"/><path d="M8 2h1v1H8z"/><path d="M7 1h1v1H7z"/><path d="M6 2h1v1H6z"/><path d="M5 1h1v1H5z"/><path d="M4 2h1v1H4z"/><path d="M3 1h1v1H3z"/><path d="M2 2h1v1H2z"/><path d="M1 1h1v1H1zm1 13h1v1H2zm-1 3h1v1H1z"/><path d="M2 16h1v1H2zm0 2h1v1H2z"/><path d="M1 19h1v1H1zm6 0h1v1H7zm2 0h1v1H9zm7 1h1v1h-1z"/><path d="M8 20h1v1H8zm9-1h1v1h-1zm-2 0h1v1h-1z"/></g></svg>