<svg xmlns="http://www.w3.org/2000/svg" viewBox="0 0 42 24"  xmlns:v="https://vecta.io/nano"><g fill="#00a0e6"><path d="M40 9h1v1h-1V9zm-1-5h1v1h-1V4zm0 2h1v1h-1V6z"/><path d="M40 5h1v1h-1V5zm-2 0h1v1h-1V5zm0 2h1v1h-1V7z"/><path d="M39,8h1v1h-1V8z"/><path d="M40 7h1v1h-1V7zm-2-4h1v1h-1V3z"/></g><g fill="#00beff"><path d="M40,8h1v1h-1V8z"/><path d="M39 9h1v1h-1V9zm0-4h1v1h-1V5z"/><path d="M38 4h1v1h-1V4zm0 2h1v1h-1V6z"/><path d="M39,7h1v1h-1V7z"/><path d="M40 6h1v1h-1V6zm-2 2h1v1h-1V8z"/></g><g fill="#0050aa"><path d="M38,3h1V2h-1V3z"/><path d="M39,3h1v1h-1V3z"/><path d="M40,4h1v1h-1V4z"/><path d="M41,5v5h-2v1h2v1h1V5H41z"/><path d="M38,9h1v1h-1V9z"/></g></svg>