<svg xmlns="http://www.w3.org/2000/svg" viewBox="0 0 42 24"  xmlns:v="https://vecta.io/nano"><g fill="#00beff"><path d="M1 9h1v1H1V9zm1-5h1v1H2V4zm0 2h1v1H2V6z"/><path d="M1 5h1v1H1V5zm2 0h1v1H3V5zm0 2h1v1H3V7z"/><path d="M2,8h1v1H2V8z"/><path d="M1 7h1v1H1V7zm2-4h1v1H3V3z"/></g><g fill="#00a0e6"><path d="M1,8h1v1H1V8z"/><path d="M2 9h1v1H2V9zm0-4h1v1H2V5z"/><path d="M3 4h1v1H3V4zm0 2h1v1H3V6z"/><path d="M2,7h1v1H2V7z"/><path d="M1 6h1v1H1V6zm2 2h1v1H3V8z"/></g><g fill="#0050aa"><path d="M4,2H3v1h1V2z"/><path d="M2,3h1v1H2V3z"/><path d="M1,4h1v1H1V4z"/><path d="M0,5v7h1v-1h2v-1H1V5H0z"/><path d="M3,9h1v1H3V9z"/></g></svg>