<svg xmlns="http://www.w3.org/2000/svg" viewBox="0 0 24 23"><path d="M23,7V6h-2V5h-2V4h-2V3h-3V1H0v22h3v-2h3v2h4v-2h4v2h4v-2h3v2h3V7H23z" fill="#0050aa"/><path d="M23 8V7h-2V6h-2V5h-2V4h-3V3h-1V2H1v20h1v-1h1v-1h3v1h1v1h2v-1h1v-1h4v1h1v1h2v-1h1v-1h6v-1h-3v-1h3v-1h-3v-1h3v-1h-3v-1h3V8h-1z" fill="#00a0e6"/><path d="M21 15v1h3v-1h-3zm0 4v1h3v-1h-3zm0-2v1h3v-1h-3z" fill="#fff"/><g fill="#00beff"><path d="M16,15h1v1h-1V15z"/><path d="M17 16h1v1h-1v-1zm-4 0h1v1h-1v-1zm2-2h1v1h-1v-1z"/><path d="M14 13h1v1h-1v-1zm3-1h1v1h-1v-1z"/><path d="M16 11h1v1h-1v-1zm3-1h1v1h-1v-1z"/><path d="M18 9h1v1h-1V9zm3-1h1v1h-1V8z"/><path d="M20,7h1v1h-1V7z"/><path d="M19,8h1v1h-1V8z"/><path d="M18,7h1v1h-1V7z"/><path d="M17,8h1v1h-1V8z"/><path d="M16,7h1v1h-1V7z"/><path d="M15,8h1v1h-1V8z"/><path d="M14,7h1v1h-1V7z"/><path d="M13 8h1v1h-1V8zm0-2h1v1h-1V6zm0 4h1v1h-1v-1zm2 0h1v1h-1v-1z"/><path d="M14 9h1v1h-1V9zm-1 3h1v1h-1v-1zm0 2h1v1h-1v-1zm2-2h1v1h-1v-1z"/><path d="M14 11h1v1h-1v-1zm3-1h1v1h-1v-1z"/><path d="M16 9h1v1h-1V9zm7-1h1v1h-1V8z"/><path d="M22 7h1v1h-1V7zm-3-1h1v1h-1V6z"/><path d="M18,5h1v1h-1V5z"/><path d="M17,6h1v1h-1V6z"/><path d="M16,5h1v1h-1V5z"/><path d="M15,6h1v1h-1V6z"/><path d="M14,5h1v1h-1V5z"/><path d="M13 4h1v1h-1V4zm2 0h1v1h-1V4zm0 12h1v1h-1v-1z"/><path d="M14 15h1v1h-1v-1zm3-1h1v1h-1v-1z"/><path d="M16 13h1v1h-1v-1zm3 1h1v1h-1v-1z"/><path d="M18 13h1v1h-1v-1zm3-1h1v1h-1v-1z"/><path d="M20,11h1v1h-1V11z"/><path d="M19,12h1v1h-1V12z"/><path d="M18 11h1v1h-1v-1zm5 1h1v1h-1v-1z"/><path d="M22,11h1v1h-1V11z"/><path d="M23,10h1v1h-1V10z"/><path d="M22,9h1v1h-1V9z"/><path d="M21,10h1v1h-1V10z"/><path d="M20 9h1v1h-1V9zm-2 6h1v1h-1v-1z"/><path d="M19 16h1v1h-1v-1zm3-3h1v1h-1v-1z"/><path d="M20 13h1v1h-1v-1zm0 2h1v1h-1v-1zm-4 2h1v1h-1v-1z"/><path d="M17 18h1v1h-1v-1zm-4 0h1v1h-1v-1zm2 0h1v1h-1v-1z"/><path d="M14 17h1v1h-1v-1zm4 0h1v1h-1v-1z"/><path d="M19,18h1v1h-1V18z"/><path d="M20 17h1v1h-1v-1zm-4 2h1v1h-1v-1zm2 0h1v1h-1v-1zm2 0h1v1h-1v-1zm-6 0h1v1h-1v-1zm-3-3h1v1h-1v-1zm1-3h1v1h-1v-1zm0-6h1v1h-1V7z"/><path d="M11 8h1v1h-1V8zm0-2h1v1h-1V6zm0 4h1v1h-1v-1z"/><path d="M12 9h1v1h-1V9zm-1 3h1v1h-1v-1z"/><path d="M11 14h1v1h-1v-1zm1-3h1v1h-1v-1zm0-6h1v1h-1V5z"/><path d="M11 4h1v1h-1V4zm1 11h1v1h-1v-1zm-1 3h1v1h-1v-1z"/><path d="M12 17h1v1h-1v-1zm0 2h1v1h-1v-1zm-3-3h1v1H9v-1zm1-3h1v1h-1v-1zm0-6h1v1h-1V7z"/><path d="M9 8h1v1H9V8zm0-2h1v1H9V6zm0 4h1v1H9v-1z"/><path d="M10 9h1v1h-1V9zm-1 3h1v1H9v-1z"/><path d="M9 14h1v1H9v-1zm1-3h1v1h-1v-1zm0-6h1v1h-1V5z"/><path d="M9 4h1v1H9V4zm1 11h1v1h-1v-1zm-1 3h1v1H9v-1z"/><path d="M10 17h1v1h-1v-1zm0 2h1v1h-1v-1zm-3-3h1v1H7v-1zm1-3h1v1H8v-1zm0-6h1v1H8V7z"/><path d="M7 8h1v1H7V8zm0-2h1v1H7V6zm0 4h1v1H7v-1z"/><path d="M8 9h1v1H8V9zm-1 3h1v1H7v-1z"/><path d="M7 14h1v1H7v-1zm1-3h1v1H8v-1zm0-6h1v1H8V5z"/><path d="M7 4h1v1H7V4zm1 11h1v1H8v-1zm-1 3h1v1H7v-1z"/><path d="M8 17h1v1H8v-1zm0 2h1v1H8v-1zm-3-3h1v1H5v-1zm1-3h1v1H6v-1zm0-6h1v1H6V7z"/><path d="M5 8h1v1H5V8zm0-2h1v1H5V6zm0 4h1v1H5v-1z"/><path d="M6 9h1v1H6V9zm-1 3h1v1H5v-1z"/><path d="M5 14h1v1H5v-1zm1-3h1v1H6v-1zm0-6h1v1H6V5z"/><path d="M5 4h1v1H5V4zm1 11h1v1H6v-1zm-1 3h1v1H5v-1z"/><path d="M6 17h1v1H6v-1zm0 2h1v1H6v-1zm-3-3h1v1H3v-1zm1-3h1v1H4v-1zm0-6h1v1H4V7z"/><path d="M3 8h1v1H3V8zm0-2h1v1H3V6zm0 4h1v1H3v-1z"/><path d="M4 9h1v1H4V9zm-1 3h1v1H3v-1z"/><path d="M3 14h1v1H3v-1zm1-3h1v1H4v-1zm0-6h1v1H4V5z"/><path d="M3 4h1v1H3V4zm1 11h1v1H4v-1zm-1 3h1v1H3v-1z"/><path d="M4 17h1v1H4v-1zm0 2h1v1H4v-1zm-3-3h1v1H1v-1zm1-3h1v1H2v-1zm0-6h1v1H2V7z"/><path d="M1 8h1v1H1V8zm0-2h1v1H1V6zm0 4h1v1H1v-1z"/><path d="M2 9h1v1H2V9zm-1 3h1v1H1v-1z"/><path d="M1 14h1v1H1v-1zm1-3h1v1H2v-1zm0-6h1v1H2V5z"/><path d="M1 4h1v1H1V4zm11-1h1v1h-1V3z"/><path d="M11,2h1v1h-1V2z"/><path d="M10,3h1v1h-1V3z"/><path d="M9,2h1v1H9V2z"/><path d="M8,3h1v1H8V3z"/><path d="M7,2h1v1H7V2z"/><path d="M6,3h1v1H6V3z"/><path d="M5,2h1v1H5V2z"/><path d="M4,3h1v1H4V3z"/><path d="M3,2h1v1H3V2z"/><path d="M2,3h1v1H2V3z"/><path d="M1 2h1v1H1V2zm1 13h1v1H2v-1zm-1 3h1v1H1v-1z"/><path d="M2 17h1v1H2v-1zm0 2h1v1H2v-1z"/><path d="M1 20h1v1H1v-1zm6 0h1v1H7v-1zm2 0h1v1H9v-1zm7 1h1v1h-1v-1z"/><path d="M8 21h1v1H8v-1zm9-1h1v1h-1v-1zm-2 0h1v1h-1v-1z"/></g></svg>