<svg xmlns="http://www.w3.org/2000/svg" viewBox="0 0 42 24"><path d="M37 2v1h-2v1h-2v1h-2v1h-2v1h-2v1h-2v1h-8V8h-2V7h-2V6h-2V5H9V4H7V3H5V2H4v22h4v-2h5v2h5v-2h6v2h5v-2h5v2h4V2z" fill="#0050aa"/><path d="M24 20h5v1h-5zm0-2h5v1h-5zm0-2h5v1h-5zm-11 4h5v1h-5zm0-2h5v1h-5zm0-2h5v1h-5z" fill="#fff"/><path d="M17 10V9h-2V8h-2V7h-2V6H9V5H7V4H5V3H4v7h1v13h2v-1h1v-1h5v-6h5v6h1V10zm20-7v1h-2v1h-2v1h-2v1h-2v1h-2v1h-2v1h-5v11h4v-6h5v6h5v1h1v1h2V10h1V3h-1z" fill="#00beff"/><g fill="#00a0e6"><path d="M18 17h1v1h-1v-1zm0-2h1v1h-1v-1zm0-4h1v1h-1v-1zm0 2h1v1h-1v-1zm0 6h1v1h-1v-1zm-6-2h1v1h-1v-1zm11-1h1v1h-1v-1z"/><path d="M22 17h1v1h-1v-1zM9 16h1v1H9v-1z"/><path d="M8 17h1v1H8v-1zm-3-1h1v1H5v-1z"/><path d="M6,15h1v1H6V15z"/><path d="M7,14h1v1H7V14z"/><path d="M8,13h1v1H8V13z"/><path d="M9,12h1v1H9V12z"/><path d="M10,11h1v1h-1V11z"/><path d="M11,10h1v1h-1V10z"/><path d="M12,9h1v1h-1V9z"/><path d="M13 8h1v1h-1V8zm-3 1h1v1h-1V9z"/><path d="M11 8h1v1h-1V8zM8 9h1v1H8V9z"/><path d="M9 8h1v1H9V8zM6 9h1v1H6V9z"/><path d="M7 8h1v1H7V8zM4 9h1v1H4V9z"/><path d="M5,8h1v1H5V8z"/><path d="M4,7h1v1H4V7z"/><path d="M5 6h1v1H5V6zm0 4h1v1H5v-1z"/><path d="M6,11h1v1H6V11z"/><path d="M7 10h1v1H7v-1zm-2 4h1v1H5v-1zm0-2h1v1H5v-1z"/><path d="M6,13h1v1H6V13z"/><path d="M7,12h1v1H7V12z"/><path d="M8,11h1v1H8V11z"/><path d="M9 10h1v1H9v-1zm5-1h1v1h-1V9zm2 0h1v1h-1V9zm10 0h1v1h-1V9z"/><path d="M27,8h1v1h-1V8z"/><path d="M28,9h1v1h-1V9z"/><path d="M29,8h1v1h-1V8z"/><path d="M30,9h1v1h-1V9z"/><path d="M31,8h1v1h-1V8z"/><path d="M32,9h1v1h-1V9z"/><path d="M33,8h1v1h-1V8z"/><path d="M34,9h1v1h-1V9z"/><path d="M35 8h1v1h-1V8zM12 7h1v1h-1V7zm-2 0h1v1h-1V7zM8 7h1v1H8V7z"/><path d="M9 6h1v1H9V6zM6 7h1v1H6V7z"/><path d="M7 6h1v1H7V6zm23 1h1v1h-1V7z"/><path d="M31,6h1v1h-1V6z"/><path d="M32,7h1v1h-1V7z"/><path d="M33,6h1v1h-1V6z"/><path d="M34,7h1v1h-1V7z"/><path d="M35,6h1v1h-1V6z"/><path d="M34 5h1v1h-1V5zm2 4h1v1h-1V9z"/><path d="M37,8h1v1h-1V8z"/><path d="M36,7h1v1h-1V7z"/><path d="M37,6h1v1h-1V6z"/><path d="M36,5h1v1h-1V5z"/><path d="M37 4h1v1h-1V4zm-2 0h1v1h-1V4zM4 5h1v1H4V5z"/><path d="M5,4h1v1H5V4z"/><path d="M4 3h1v1H4V3zm2 2h1v1H6V5zm2 0h1v1H8V5zM6 17h1v1H6v-1z"/><path d="M7,16h1v1H7V16z"/><path d="M8,15h1v1H8V15z"/><path d="M9,14h1v1H9V14z"/><path d="M10,15h1v1h-1V15z"/><path d="M11,14h1v1h-1V14z"/><path d="M12,13h1v1h-1V13z"/><path d="M13 12h1v1h-1v-1zm-3 1h1v1h-1v-1z"/><path d="M11 12h1v1h-1v-1zm3 1h1v1h-1v-1z"/><path d="M15,12h1v1h-1V12z"/><path d="M16,11h1v1h-1V11z"/><path d="M17 10h1v1h-1v-1zm-3 1h1v1h-1v-1z"/><path d="M15 10h1v1h-1v-1zm-3 1h1v1h-1v-1z"/><path d="M13 10h1v1h-1v-1zm9 1h1v1h-1v-1z"/><path d="M23,10h1v1h-1V10z"/><path d="M24,11h1v1h-1V11z"/><path d="M25,10h1v1h-1V10z"/><path d="M26,11h1v1h-1V11z"/><path d="M27,10h1v1h-1V10z"/><path d="M28,11h1v1h-1V11z"/><path d="M29 10h1v1h-1v-1zm-3 3h1v1h-1v-1z"/><path d="M27 12h1v1h-1v-1zm3 3h1v1h-1v-1z"/><path d="M31 14h1v1h-1v-1zm3 3h1v1h-1v-1z"/><path d="M35,16h1v1h-1V16z"/><path d="M36 17h1v1h-1v-1zm-2-2h1v1h-1v-1z"/><path d="M35 14h1v1h-1v-1zm-3-1h1v1h-1v-1z"/><path d="M33 12h1v1h-1v-1zm-3-1h1v1h-1v-1z"/><path d="M31,10h1v1h-1V10z"/><path d="M32,11h1v1h-1V11z"/><path d="M33,10h1v1h-1V10z"/><path d="M34,11h1v1h-1V11z"/><path d="M35,10h1v1h-1V10z"/><path d="M36 11h1v1h-1v-1zm-2 2h1v1h-1v-1z"/><path d="M35,12h1v1h-1V12z"/><path d="M36 13h1v1h-1v-1zm0 2h1v1h-1v-1zm-4 0h1v1h-1v-1z"/><path d="M33 14h1v1h-1v-1zm-5-1h1v1h-1v-1z"/><path d="M29,12h1v1h-1V12z"/><path d="M30,13h1v1h-1V13z"/><path d="M31 12h1v1h-1v-1zm-20 4h1v1h-1v-1zm4-2h1v1h-1v-1zm-2 0h1v1h-1v-1z"/><path d="M10 17h1v1h-1v-1zm7-5h1v1h-1v-1z"/><path d="M16 13h1v1h-1v-1zm-4 2h1v1h-1v-1zm21 1h1v1h-1v-1z"/><path d="M32,17h1v1h-1V17z"/><path d="M31 16h1v1h-1v-1zm-6-4h1v1h-1v-1zm-2 0h1v1h-1v-1zm6 2h1v1h-1v-1z"/><path d="M30 17h1v1h-1v-1zm-6-4h1v1h-1v-1zm-2 0h1v1h-1v-1zm5 1h1v1h-1v-1z"/><path d="M17 14h1v1h-1v-1zm8 0h1v1h-1v-1zm-2 0h1v1h-1v-1zm6 2h1v1h-1v-1zm-17 3h1v1h-1v-1zm11-1h1v1h-1v-1z"/><path d="M22 19h1v1h-1v-1zM9 18h1v1H9v-1z"/><path d="M8 19h1v1H8v-1zm-3-1h1v1H5v-1z"/><path d="M6,19h1v1H6V19z"/><path d="M7 18h1v1H7v-1zm27 1h1v1h-1v-1z"/><path d="M35,18h1v1h-1V18z"/><path d="M36,19h1v1h-1V19z"/><path d="M35,20h1v1h-1V20z"/><path d="M36 21h1v1h-1v-1zm-5-1h1v1h-1v-1zm-2 0h1v1h-1v-1zm4 0h1v1h-1v-1z"/><path d="M35 22h1v1h-1v-1zm-15-7h1v1h-1v-1zm0 2h1v1h-1v-1zm0-6h1v1h-1v-1zm0 2h1v1h-1v-1zm0 6h1v1h-1v-1z"/><path d="M21 10h1v1h-1v-1zm0 10h1v1h-1v-1zm2 0h1v1h-1v-1zM5 22h1v1H5v-1zm6-4h1v1h-1v-1z"/><path d="M10 19h1v1h-1v-1zm23-1h1v1h-1v-1z"/><path d="M32,19h1v1h-1V19z"/><path d="M31,18h1v1h-1V18z"/><path d="M30 19h1v1h-1v-1zM9 20h1v1H9v-1zm2 0h1v1h-1v-1zm-6 0h1v1H5v-1z"/><path d="M6,21h1v1H6V21z"/><path d="M7 20h1v1H7v-1zm22-2h1v1h-1v-1zm-7-3h1v1h-1v-1zm12 6h1v1h-1v-1z"/></g><path d="M21 12h1v1h-1zm0 2h1v1h-1zm0 2h1v1h-1zm0 2h1v1h-1z" fill="#0050aa"/></svg>