<svg xmlns="http://www.w3.org/2000/svg" viewBox="0 0 34 22"><path d="M0 0v22h4v-2h5v2h5v-2h6v2h5v-2h5v2h4V0H0z" fill="#0050aa"/><path d="M0 1v7h1v13h2v-1h1v-1h26v1h1v1h2V8h1V1H0z" fill="#00a0e6"/><g fill="#00beff"><path d="M12 14h1v1h-1zm8 0h1v1h-1zm-10 0h1v1h-1zm12 0h1v1h-1zm2 0h1v1h-1zm-12 2h1v1h-1zm8 0h1v1h-1zm2 2h1v1h-1zm-2 0h1v1h-1zm4 0h1v1h-1zm-14 0h1v1h-1zm2 0h1v1h-1zm-2-2h1v1h-1zm12 0h1v1h-1zm2 0h1v1h-1zm-10-2h1v1h-1z"/><path d="M14 8h1v1h-1zm0 2h1v1h-1zm0 2h1v1h-1zm0 4h1v1h-1zm2-2h1v1h-1zm0-4h1v1h-1zm0 2h1v1h-1zm0 4h1v1h-1zm-2 2h1v1h-1zm5-3h1v1h-1z"/><path d="M18 14h1v1h-1zM4 14h1v1H4z"/><path d="M5 15h1v1H5zm-4 0h1v1H1zm2-2h1v1H3z"/><path d="M2 12h1v1H2zm3-1h1v1H5z"/><path d="M4 10h1v1H4zm3-1h1v1H7z"/><path d="M6 8h1v1H6zM1 7h1v1H1z"/><path d="M0 6h1v1H0z"/><path d="M1 5h1v1H1z"/><path d="M0 4h1v1H0zm1 5h1v1H1zm2 0h1v1H3z"/><path d="M2 8h1v1H2zm-1 3h1v1H1zm0 2h1v1H1zm2-2h1v1H3z"/><path d="M2 10h1v1H2zm3-1h1v1H5z"/><path d="M4 8h1v1H4zm29-1h1v1h-1z"/><path d="M32 6h1v1h-1z"/><path d="M33 5h1v1h-1z"/><path d="M32 4h1v1h-1z"/><path d="M33 3h1v1h-1z"/><path d="M32 2h1v1h-1z"/><path d="M33 1h1v1h-1zM1 3h1v1H1z"/><path d="M0 2h1v1H0zm3 13h1v1H3z"/><path d="M2 14h1v1H2zm3-1h1v1H5z"/><path d="M4 12h1v1H4zm3 1h1v1H7z"/><path d="M6 12h1v1H6zm3-1h1v1H9z"/><path d="M8 10h1v1H8z"/><path d="M7 11h1v1H7z"/><path d="M6 10h1v1H6zm5 1h1v1h-1z"/><path d="M10 10h1v1h-1zm3-1h1v1h-1z"/><path d="M12 8h1v1h-1z"/><path d="M11 9h1v1h-1z"/><path d="M10 8h1v1h-1z"/><path d="M9 9h1v1H9z"/><path d="M8 8h1v1H8zm11 1h1v1h-1z"/><path d="M18 8h1v1h-1zm3 1h1v1h-1z"/><path d="M20 8h1v1h-1zm3 1h1v1h-1z"/><path d="M22 8h1v1h-1zm3 1h1v1h-1z"/><path d="M24 8h1v1h-1zm-1 3h1v1h-1z"/><path d="M22 10h1v1h-1zm5 3h1v1h-1z"/><path d="M26 12h1v1h-1zm5 3h1v1h-1z"/><path d="M30 14h1v1h-1zm2 0h1v1h-1z"/><path d="M31 13h1v1h-1z"/><path d="M30 12h1v1h-1z"/><path d="M29 11h1v1h-1z"/><path d="M28 10h1v1h-1z"/><path d="M27 9h1v1h-1z"/><path d="M26 8h1v1h-1zm3 1h1v1h-1z"/><path d="M28 8h1v1h-1zm3 1h1v1h-1z"/><path d="M30 8h1v1h-1zm2 0h1v1h-1zm-1 3h1v1h-1z"/><path d="M30 10h1v1h-1zm2 0h1v1h-1zm0 2h1v1h-1zm-3 1h1v1h-1z"/><path d="M28 12h1v1h-1zm-3-1h1v1h-1z"/><path d="M24 10h1v1h-1zm3 1h1v1h-1z"/><path d="M26 10h1v1h-1zM6 14h1v1H6z"/><path d="M7 15h1v1H7zm6-4h1v1h-1z"/><path d="M12 10h1v1h-1zm-2 2h1v1h-1zm-2 0h1v1H8zm20 2h1v1h-1z"/><path d="M29 15h1v1h-1zm-3-1h1v1h-1zm-5-3h1v1h-1zm-2 0h1v1h-1z"/><path d="M25 13h1v1h-1zm2 2h1v1h-1zm-7-5h1v1h-1zm-2 0h1v1h-1z"/><path d="M22 12h1v1h-1zm2 0h1v1h-1zM8 14h1v1H8zm4-2h1v1h-1zm7 1h1v1h-1zm6 2h1v1h-1zm-6 2h1v1h-1z"/><path d="M18 16h1v1h-1zM4 16h1v1H4z"/><path d="M5 17h1v1H5zm-4 0h1v1H1zm2 0h1v1H3z"/><path d="M2 16h1v1H2zm29 1h1v1h-1z"/><path d="M30 16h1v1h-1zm2 0h1v1h-1zm-1 3h1v1h-1z"/><path d="M30 18h1v1h-1zm2 0h1v1h-1zm-6 0h1v1h-1zm2 0h1v1h-1zm4 2h1v1h-1zm-16-2h1v1h-1zm1-5h1v1h-1zm0 2h1v1h-1z"/><path d="M17 9h1v1h-1zm0 2h1v1h-1zm0 6h1v1h-1z"/><path d="M18 18h1v1h-1zM2 20h1v1H2zm4-4h1v1H6z"/><path d="M7 17h1v1H7zm21-1h1v1h-1z"/><path d="M29 17h1v1h-1zm-3-1h1v1h-1z"/><path d="M27 17h1v1h-1zM8 16h1v1H8zm-4 2h1v1H4zm2 0h1v1H6zm2 0h1v1H8zm-6 0h1v1H2z"/><path d="M1 19h1v1H1zm2 0h1v1H3zm22-2h1v1h-1zm-7-5h1v1h-1zm2 0h1v1h-1zm-4-4h1v1h-1zm-3 5h1v1h-1zm-2 2h1v1h-1z"/><path d="M9 15h1v1H9zm4 0h1v1h-1zm8 0h1v1h-1zm-10-2h1v1h-1zm-2 0h1v1H9zm14 0h1v1h-1zm-2 0h1v1h-1zm2 2h1v1h-1zm-12 2h1v1h-1zm-2 0h1v1H9zm4 0h1v1h-1zm8 0h1v1h-1zm2 0h1v1h-1zM1 1h1v1H1zm14 12h1v1h-1zm0 2h1v1h-1zm0-6h1v1h-1zm-1-3h1v1h-1zM7 7h1v1H7z"/><path d="M6 6h1v1H6zM3 7h1v1H3z"/><path d="M2 6h1v1H2zm3 1h1v1H5z"/><path d="M4 6h1v1H4zm9 1h1v1h-1z"/><path d="M12 6h1v1h-1z"/><path d="M11 7h1v1h-1z"/><path d="M10 6h1v1h-1z"/><path d="M9 7h1v1H9z"/><path d="M8 6h1v1H8zm11 1h1v1h-1z"/><path d="M18 6h1v1h-1zm3 1h1v1h-1z"/><path d="M20 6h1v1h-1zm3 1h1v1h-1z"/><path d="M22 6h1v1h-1zm3 1h1v1h-1z"/><path d="M24 6h1v1h-1zm3 1h1v1h-1z"/><path d="M26 6h1v1h-1zm3 1h1v1h-1z"/><path d="M28 6h1v1h-1zm3 1h1v1h-1z"/><path d="M30 6h1v1h-1zM17 7h1v1h-1z"/><path d="M16 6h1v1h-1z"/><path d="M15 7h1v1h-1zm-1-3h1v1h-1zM7 5h1v1H7z"/><path d="M6 4h1v1H6zM3 5h1v1H3z"/><path d="M2 4h1v1H2zm3 1h1v1H5z"/><path d="M4 4h1v1H4zm9 1h1v1h-1z"/><path d="M12 4h1v1h-1z"/><path d="M11 5h1v1h-1z"/><path d="M10 4h1v1h-1z"/><path d="M9 5h1v1H9z"/><path d="M8 4h1v1H8zm11 1h1v1h-1z"/><path d="M18 4h1v1h-1zm3 1h1v1h-1z"/><path d="M20 4h1v1h-1zm3 1h1v1h-1z"/><path d="M22 4h1v1h-1zm3 1h1v1h-1z"/><path d="M24 4h1v1h-1zm3 1h1v1h-1z"/><path d="M26 4h1v1h-1zm3 1h1v1h-1z"/><path d="M28 4h1v1h-1zm3 1h1v1h-1z"/><path d="M30 4h1v1h-1zM17 5h1v1h-1z"/><path d="M16 4h1v1h-1z"/><path d="M15 5h1v1h-1zm-1-3h1v1h-1zM7 3h1v1H7z"/><path d="M6 2h1v1H6zM3 3h1v1H3z"/><path d="M2 2h1v1H2zm3 1h1v1H5z"/><path d="M4 2h1v1H4zm9 1h1v1h-1z"/><path d="M12 2h1v1h-1z"/><path d="M11 3h1v1h-1z"/><path d="M10 2h1v1h-1z"/><path d="M9 3h1v1H9z"/><path d="M8 2h1v1H8zm11 1h1v1h-1z"/><path d="M18 2h1v1h-1zm3 1h1v1h-1z"/><path d="M20 2h1v1h-1zm3 1h1v1h-1z"/><path d="M22 2h1v1h-1zm3 1h1v1h-1z"/><path d="M24 2h1v1h-1zm3 1h1v1h-1z"/><path d="M26 2h1v1h-1zm3 1h1v1h-1z"/><path d="M28 2h1v1h-1zm3 1h1v1h-1z"/><path d="M30 2h1v1h-1zM17 3h1v1h-1z"/><path d="M16 2h1v1h-1z"/><path d="M15 3h1v1h-1zM7 1h1v1H7zM3 1h1v1H3zm2 0h1v1H5zm8 0h1v1h-1zm-2 0h1v1h-1zM9 1h1v1H9zm10 0h1v1h-1zm2 0h1v1h-1zm2 0h1v1h-1zm2 0h1v1h-1zm2 0h1v1h-1zm2 0h1v1h-1zm2 0h1v1h-1zM17 1h1v1h-1zm-2 0h1v1h-1zm0 10h1v1h-1zm0 6h1v1h-1z"/></g></svg>