<svg xmlns="http://www.w3.org/2000/svg" viewBox="0 0 11 19"  xmlns:v="https://vecta.io/nano"><path d="M8,7V5H7V3H6V2H4v3H3v2H2v11h1v-1h1v1h1v-1h1v1h1v-1h1v1h1V7H8z" fill="#fff"/><path d="M4,2h2V1H4V0H3v5h1V2z"/><path d="M3,5H2v2h1V5z"/><path d="M2,7H1v11h1V7z"/><path d="M2 18h1v1H2v-1zm-2 0h1v1H0v-1z"/><path d="M3,17h1v1H3V17z"/><path d="M4,18h1v1H4V18z"/><path d="M5,17h1v1H5V17z"/><path d="M6,18h1v1H6V18z"/><path d="M7,17h1v1H7V17z"/><path d="M8 18h1v1H8v-1zm2 0h1v1h-1v-1z"/><path d="M10,7H9v11h1V7z"/><path d="M8,7h1V5H8V7z"/><path d="M7,5h1V3H7V5z"/><path d="M6,2h1v1H6V2z"/></svg>