<svg xmlns="http://www.w3.org/2000/svg" viewBox="0 0 34 14"  xmlns:v="https://vecta.io/nano"><g fill="#fff"><path d="M15 2h1v1h-1V2zm3 0h1v1h-1V2z"/><path d="M14 3h1v1h-1V3zm5 0h1v1h-1V3zm-3-2v1h2V1h-2z"/></g><g fill="#006400"><path d="M15 3V1h4v2h14v9h-3v2h4V0H0v14h4v-2H1V3h14zM1 2V1h1v1H1zm2 0V1h1v1H3zm2 0V1h1v1H5zm2 0V1h1v1H7zm2 0V1h1v1H9zm2 0V1h1v1h-1zm3 0h-1V1h1v1zm6 0V1h1v1h-1zm2 0V1h1v1h-1zm2 0V1h1v1h-1zm2 0V1h1v1h-1zm2 0V1h1v1h-1zm2 0V1h1v1h-1zm3 0h-1V1h1v1zM16 2v1h2V2h-2zM9 12v2h5v-2H9z"/><path d="M9 10H4v2h5v-2zm11 0h-6v2h6v-2z"/><path d="M20,12v2h5v-2H20z"/><path d="M30,10h-5v2h5V10z"/></g><path d="M18 1h1v1h-1V1zM9 1h1v1H9V1zm15 0h1v1h-1V1zM1 3v9h3v-2h5v2h5v-2h6v2h5v-2h5v2h3V3H20v1h-1V3h-4v1h-1V3H1zm14-2h1v1h-1V1zm-2 0h1v1h-1V1zm7 0h1v1h-1V1zm2 0h1v1h-1V1zM11 1h1v1h-1V1zM5 1h1v1H5V1zM3 1h1v1H3V1zm4 0h1v1H7V1zM1 1h1v1H1V1zm27 0h1v1h-1V1zm-2 0h1v1h-1V1zm6 0h1v1h-1V1zm-2 0h1v1h-1V1z" fill="#00af00"/></svg>