<svg xmlns="http://www.w3.org/2000/svg" viewBox="0 0 34 14"><path d="M0 0v14h4v-2h5v2h5v-2h6v2h5v-2h5v2h4V0z" fill="#006400"/><path d="M18 1h1v1h-1V1zM9 1h1v1H9V1zm15 0h1v1h-1V1zM1 3v9h3v-2h5v2h5v-2h6v2h5v-2h5v2h3V3H1zm14-2h1v1h-1V1zm-2 0h1v1h-1V1zm7 0h1v1h-1V1zm2 0h1v1h-1V1zM11 1h1v1h-1V1zM5 1h1v1H5V1zM3 1h1v1H3V1zm4 0h1v1H7V1zM1 1h1v1H1V1zm27 0h1v1h-1V1zm-2 0h1v1h-1V1zm6 0h1v1h-1V1zm-2 0h1v1h-1V1z" fill="#00af00"/><g fill="#fff"><path d="M15 2h1v1h-1V2zm3 0h1v1h-1V2z"/><path d="M14 3h1v1h-1V3zm5 0h1v1h-1V3zm-3-2v1h2V1h-2z"/></g></svg>