<svg xmlns="http://www.w3.org/2000/svg" viewBox="0 0 64 64"><path d="M15 40v15h4v-2h5v2h5v-2h6v2h5v-2h5v2h4V40z" fill="#ff64ff"/><path d="M25 41h2v1h-2v-1zm3 0h2v1h-2v-1zm6 0h2v1h-2v-1zm3 0h2v1h-2v-1zm-18 0h2v1h-2v-1zm3 0h2v1h-2v-1zm-6 0h2v1h-2v-1zm27 0h2v1h-2v-1zm-3 0h2v1h-2v-1zm6 0h2v1h-2v-1zm-15 0h2v1h-2v-1zm-3 12h1v-2h1v-8h-2v10zm-3-10h2v10h-2V43zm-3 0h2v8h-2v-8zm-6 0h2v10h-2V43zm27 0h2v8h-2v-8zm-3 0h2v8h-2v-8zm-3 0h2v10h-2V43zm-3 8h1v2h1V43h-2v8zm12-8h2v10h-2V43zm-27 0h2v8h-2v-8zm12 0h2v8h-2v-8z" fill="#ffb9ff"/></svg>