<svg xmlns="http://www.w3.org/2000/svg" viewBox="0 0 34 15"  xmlns:v="https://vecta.io/nano"><path d="M0 0v15h4v-2h5v2h5v-2h-1V3h2v8h-1v2h6v-2h-1V3h2v10h-1v2h5v-2h5v2h4V0H0zm3 13H1V3h2v10zM3 2H1V1h2v1zm3 9H4V3h2v8zm0-9H4V1h2v1zm3 9H7V3h2v8zm0-9H7V1h2v1zm3 11h-2V3h2v10zm0-11h-2V1h2v1zm3 0h-2V1h2v1zm3 9h-2V3h2v8zm0-9h-2V1h2v1zm3 0h-2V1h2v1zm3 11h-2V3h2v10zm0-11h-2V1h2v1zm3 9h-2V3h2v8zm0-9h-2V1h2v1zm3 9h-2V3h2v8zm0-9h-2V1h2v1zm3 11h-2V3h2v10zm0-11h-2V1h2v1z" fill="#ff64ff"/><path d="M10 1h2v1h-2V1zm3 0h2v1h-2V1zm6 0h2v1h-2V1zm3 0h2v1h-2V1zM4 1h2v1H4V1zm3 0h2v1H7V1zM1 1h2v1H1V1zm27 0h2v1h-2V1zm-3 0h2v1h-2V1zm6 0h2v1h-2V1zM16 1h2v1h-2V1zm-3 12h1v-2h1V3h-2v10zM10 3h2v10h-2V3zM7 3h2v8H7V3zM1 3h2v10H1V3zm27 0h2v8h-2V3zm-3 0h2v8h-2V3zm-3 0h2v10h-2V3zm-3 8h1v2h1V3h-2v8zm12-8h2v10h-2V3zM4 3h2v8H4V3zm12 0h2v8h-2V3z" fill="#ffb9ff"/></svg>