<svg xmlns="http://www.w3.org/2000/svg" viewBox="0 0 64 64"><g fill="#ff64ff"><path d="M8,45h1v1H8V45z"/><path d="M17 29v-3h-1v-1h-1v-1h-2v-1h-2v-1h-1v-1H9v1H8v1H6v1H4v1H3v1H2v3H1v1h1v1h1v-1h1v1h1v-1h1v1h1v-1h1v1h1v14h1V31h1v-1h1v1h1v-1h1v1h1v-1h1v1h1v-1h1v-1h-1zM7 44h1v1H7v-1z"/></g><g fill="#ffb9ff"><path d="M2,29h1v1H2V29z"/><path d="M15 26v-1h-2v-1h-2v-1h-1v-1H9v1H8v1H6v1H4v1H3v3h1v1h1v-1h1v1h1v-1h1v1h1v-1h1v1h1v-1h1v1h1v-1h1v1h1v-1h1v-3h-1zm-4 1h-1v1H9v-1H8v-1h1v-1h1v1h1v1z"/><path d="M9 26h1v1H9v-1zm7 3h1v1h-1v-1z"/></g></svg>