<svg xmlns="http://www.w3.org/2000/svg" viewBox="0 0 64 64"><g fill="#ff64ff"><path d="M36,45h1v1h-1V45z"/><path d="M45 29v-3h-1v-1h-1v-1h-2v-1h-2v-1h-1v-1h-1v1h-1v1h-2v1h-2v1h-1v1h-1v3h-1v1h1v1h1v-1h1v1h1v-1h1v1h1v-1h1v1h1v14h1V31h1v-1h1v1h1v-1h1v1h1v-1h1v1h1v-1h1v-1h-1zM35 44h1v1h-1v-1z"/></g><g fill="#ffb9ff"><path d="M30,29h1v1h-1V29z"/><path d="M43 26v-1h-2v-1h-2v-1h-1v-1h-1v1h-1v1h-2v1h-2v1h-1v3h1v1h1v-1h1v1h1v-1h1v1h1v-1h1v1h1v-1h1v1h1v-1h1v1h1v-1h1v-3h-1zm-4 1h-1v1h-1v-1h-1v-1h1v-1h1v1h1v1z"/><path d="M37 26h1v1h-1v-1zm7 3h1v1h-1v-1z"/></g></svg>