<svg xmlns="http://www.w3.org/2000/svg" viewBox="0 0 64 64"><g fill="#ff64ff"><path d="M28 46h-1v-1h1v1z"/><path d="M18 29v1h1v1h1v-1h1v1h1v-1h1v1h1v-1h1v1h1v14h1V31h1v-1h1v1h1v-1h1v1h1v-1h1v1h1v-1h1v-1h-1v-3h-1v-1h-1v-1h-2v-1h-2v-1h-1v-1h-1v1h-1v1h-2v1h-2v1h-1v1h-1v3h-1zm11 16h-1v-1h1v1z"/></g><g fill="#ffb9ff"><path d="M34 30h-1v-1h1v1z"/><path d="M20 26v3h1v1h1v-1h1v1h1v-1h1v1h1v-1h1v1h1v-1h1v1h1v-1h1v1h1v-1h1v-3h-1v-1h-2v-1h-2v-1h-1v-1h-1v1h-1v1h-2v1h-2v1h-1zm5 0h1v-1h1v1h1v1h-1v1h-1v-1h-1v-1z"/><path d="M27 27h-1v-1h1v1zm-7 3h-1v-1h1v1z"/></g></svg>