<svg xmlns="http://www.w3.org/2000/svg" viewBox="0 0 15 15"><path d="M1 13v-1h1v-1h1v-1h1V9h1V8h1V7h1V6H4V4h1V3h1V2h1V1h1V0h2v3h2v2h3v2h-1v1h-1v1h-1v1h-1v1H9V8H8v1H7v1H6v1H5v1H4v1H3v1H2v1H0v-2h1z" fill="#240f0a"/><g fill="#3b2924"><path d="M10 4h1v1h-1z"/><path d="M9 5h1v1H9z"/><path d="M8 6h1v1H8z"/><path d="M7 7h1v1H7z"/><path d="M6 8h1v1H6z"/><path d="M5 9h1v1H5z"/><path d="M4 10h1v1H4z"/><path d="M3 11h1v1H3z"/><path d="M2 12h1v1H2z"/><path d="M1 13h1v1H1z"/></g><path d="M10 6h1V5h1v1h2v1h-1v1h-1v1h-1v1h-1V8H9V7h1V6zM6 4V3h1V2h1V1h1v2h1v1H9v1H8v1H7V5H5V4h1z" fill="#f6f6f6"/><path d="M7 4V3h1V2h1v1h1v1H9v1H8v1H7V5H6V4zm3 2h1V5h1v1h1v1h-1v1h-1v1h-1V8H9V7h1z" fill="#828282"/></svg>