<svg xmlns="http://www.w3.org/2000/svg" viewBox="0 0 25 20"><path d="M24 13v-3h-1V8h-1V7h-1V6h-1V5h-1V4h-1V3h-3V2h-2V0h-2v2H9v1H6v1H5v1H4v1H3v1H2v1H1v2H0v8h24v2h1v-7h-1z" fill="#828282"/><path d="M24 16h1v1h-1zm-3 0v2h2v-2h-2zM9 16v2h2v-2H9zm4 0v2h2v-2h-2zm4 0v2h2v-2h-2zM5 16v2h2v-2H5zm-4 0v2h2v-2H1z" fill="#d2d2d2"/><g fill="#3b2924"><path d="M23 10h-1V8h-1V7h-1V6h-1V5h-1V4H6v1H5v1H4v1H3v1H2v2H1v6h21v-3h1v-3z"/><path d="M23 13v2h1v-2h-1z"/></g><path d="M15 4V2h-2V0h-2v2H9v2H7v4h2v2h2v2h2v-2h2V8h2V4h-2z" fill="#d2d2d2"/><g fill="#fff"><path d="M13 3h-1v3h1V3z"/><path d="M13 6h1v1h-1z"/></g></svg>