<svg xmlns="http://www.w3.org/2000/svg" viewBox="0 0 13 30"><g fill="#321227"><path d="M9 2h1v1H9z"/><path d="M8 3h1v1H8z"/><path d="M8 4H7v2h1V4z"/><path d="M7 6H6v2h1V6zm2 21h1v1H9z"/><path d="M8 26h1v1H8z"/><path d="M8 24H7v2h1v-2z"/><path d="M7 22H6v2h1v-2z"/><path d="M12 12h1v-1h-1V0h-1v1h-1v1h1v9H6V8H5v3H3v-1H1v1H0v1h1v1h2v-1h2v6H3v-1H1v1H0v1h1v1h2v-1h2v3h1v-3h5v9h-1v1h1v1h1V19h1v-1h-1v-6zm-1 6H6v-6h5v6z"/><path d="M3 13h1v1H3zm0-4h1v1H3zm0 11h1v1H3zm0-4h1v1H3z"/></g><path d="M11 17h1v-4h-1v4zm0-14v7h1V3h-1zm0 24h1v-7h-1v7zm0-15v-1H2v1h9zm0 6H2v1h9v-1z" fill="#b49698"/></svg>