<svg xmlns="http://www.w3.org/2000/svg" viewBox="0 0 13 30"><g fill="#321227"><path d="M3 2h1v1H3z"/><path d="M4 3h1v1H4z"/><path d="M5 4h1v2H5V4z"/><path d="M6 6h1v2H6V6zM3 27h1v1H3z"/><path d="M4 26h1v1H4z"/><path d="M5 24h1v2H5v-2z"/><path d="M6 22h1v2H6v-2z"/><path d="M1 18H0v1h1v11h1v-1h1v-1H2v-9h5v3h1v-3h2v1h2v-1h1v-1h-1v-1h-2v1H8v-6h2v1h2v-1h1v-1h-1v-1h-2v1H8V8H7v3H2V2h1V1H2V0H1v11H0v1h1v6zm1-6h5v6H2v-6z"/><path d="M9 13h1v1H9zm0-4h1v1H9zm0 11h1v1H9zm0-4h1v1H9z"/></g><path d="M2 17H1v-4h1v4zM2 3v7H1V3h1zm0 24H1v-7h1v7zm0-15v-1h9v1H2zm0 6h9v1H2v-1z" fill="#b49698"/></svg>