<svg xmlns="http://www.w3.org/2000/svg" viewBox="0 0 26 20"><path d="M1 13v-2h1v-1h1V9h1V8h1V7h1V6h1V5h1V4h1V3h1V2h1V1h1V0h2v1h7v2h-2v3h1v1h1v1h1v1h1v1h1v1h1v2h1v5H3v1H2v1H0v-7h1z" fill="#321227"/><path d="M22 13H2v-2h1v-1h1V9h1V8h1V7h1V6h1V5h1V4h1V3h1V2h1V1h2v1h1v1h1v1h1v1h1v1h1v1h1v1h1v1h1v1h1v1h1v2h-2zm3 1v3H3v1H2v1H1v-5h24z" fill="#376560"/><path d="M3 12v-1h1v-1h1V9h1V8h1V7h1V6h1V5h1V4h1V3h1V2h2v1h1v1h1v1h1v1h1v1h1v1h1v1h1v1h1v1h1v1H3zm21 2v3H3v1H2v-4h22z" fill="#6ca958"/><path d="M15 1v2h-2v2h-2v4h6V7h2V3h2V1h-6z" fill="#960000"/><path d="M15 3v2h-2v2h4V3h-2z" fill="red"/></svg>