<svg xmlns="http://www.w3.org/2000/svg" viewBox="0 0 36 21"><path d="M35 14v-1h-1v-1h-1v-1h-1v-1h-1V8h2V4h2V2h-6v2h-2v2h-2V5h-2V4h-1V3h-1V2h-1V1h-1V0h-2v1h-1v1h-1v1h-1v1h-1v1h-2v1H8v1H7v1H6v1H5v1H4v1H3v1H2v1H1v1H0v5h16v1h1v1h2v-1h1v-1h16v-5h-1z" fill="#321227"/><g fill="#376560"><path d="M23 16v1h-1v1h13v-3H24v1h-1zm-10 0h-1v-1H1v3h13v-1h-1v-1z"/><path d="M29 2v2h-2v2h-4V5h-1V4h-1V3h-1V2h-1V1h-2v1h-1v1h-1v1h-1v1h-1v1h-2v1H8v1H7v1H6v1H5v1H4v1H3v1H2v1h10v1h1v1h1v1h1v1h1v1h1v1h2v-1h1v-1h1v-1h1v-1h1v-1h1v-1h10v-1h-1v-1h-1v-1h-1V8h2V4h2V2h-6z"/></g><path d="M12 16h-1v-1H2v3h11v-1h-1v-1zm11-2h1v-1h8v-1h-1v-1h-1v-1h-1V9h-1V8h-3V7h-2V6h-1V5h-1V4h-1V3h-1V2h-2v1h-1v1h-1v1h-1v1h-1v1h-2v1H8v1H7v1H6v1H5v1H4v1h8v1h1v1h1v1h1v1h1v1h1v1h2v-1h1v-1h1v-1h1v-1h1v-1zm2 1v1h-1v1h-1v1h11v-3h-9z" fill="#6ca958"/><path d="M29 2v2h-2v2h-2v4h6V8h2V4h2V2h-6z" fill="#960000"/><path d="M21 8V7h-1V6h-1V5h-2v1h-1v1h-1v1h-1v4h1v1h1v1h1v1h2v-1h1v-1h1v-1h1V8h-1z" fill="#376560"/><path d="M20 8V7h-1V6h-2v1h-1v1h-1v4h1v1h1v1h2v-1h1v-1h1V8h-1z" fill="#99c38b"/><path d="M18 10v4h1v-1h1v-1h1v-2h-3z" fill="#80b46d"/><path d="M15 10v2h1v1h1v1h1v-4h-3z" fill="#68a552"/><path d="M17 6v1h-1v1h-1v2h3V6h-1z" fill="#b2d2a7"/><path d="M29 4v2h-2v2h4V4h-2z" fill="red"/></svg>