<svg xmlns="http://www.w3.org/2000/svg" viewBox="0 0 34 32"><path d="M33 13v-1h-1v-1h-1v-1h-1V9h-1V8h-1V7h-1V6h-3V5h1V3h-1V1h-2V0H12v1h-2v2H9v2h1v1H7v1H6v1H5v1H4v1H3v1H2v1H1v1H0v19h3V22h8v-1h2v-1h1v-1h1v1h1v1h2v1h13v10h3V13h-1z"/><g fill="red"><path d="M10 6h14V5H10v1zM7 6h1v1H7z"/><path d="M6 5h1v1H6z"/><path d="M5 4h1v1H5z"/><path d="M4 3h1v1H4z"/><path d="M3 2h1v1H3zm23 4h1v1h-1z"/><path d="M27 5h1v1h-1z"/><path d="M28 4h1v1h-1z"/><path d="M29 3h1v1h-1z"/><path d="M30 2h1v1h-1zm-1 13v-2h-2v2h-2v2h2v2h2v-2h2v-2h-2z"/></g><path d="M27 15v2h2v-2h-2z" fill="#ff0"/></svg>