<svg xmlns="http://www.w3.org/2000/svg" viewBox="0 0 18 12"><path d="M17 4V3h-1V2h-2V1h-2V0H6v1H4v1H2v1H1v1H0v1h1v1h1v1h1v1h1v1h1v1h1v1h1v1h4v-1h1v-1h1V9h1V8h1V7h1V6h1V5h1V4h-1z"/><g fill="red"><path d="M10 10h1v1h-1zm-3 0h1v1H7z"/><path d="M8 9v1h2V9H8z"/></g><path d="M11 8V7H7v1H6v1h2V8h2v1h2V8h-1z" fill="#ff0"/><g fill="#fff"><path d="M6 2h1v1H6z"/><path d="M7 3h1v1H7zM5 3h1v1H5zM3 3h1v1H3z"/><path d="M4 4h1v1H4zm2 0h1v1H6z"/><path d="M5 5h1v1H5zm3-1v1h2V4H8z"/><path d="M10 3h1v1h-1z"/><path d="M11 2h1v1h-1zm2 0h1v1h-1z"/><path d="M14 3h1v1h-1z"/><path d="M15 4v1h-1v1h-1v1h-1v1h2V7h1V6h1V5h1V4h-2z"/><path d="M13 4h1v1h-1z"/><path d="M12 5h1v1h-1z"/><path d="M11 6h1v1h-1zm1-3h1v1h-1z"/><path d="M11 4h1v1h-1z"/><path d="M10 5h1v1h-1zM7 5h1v1H7z"/><path d="M6 6h1v1H6z"/><path d="M5 6H4V5H3V4H1v1h1v1h1v1h1v1h2V7H5V6zM4 2h1v1H4zm4 1h2V2h1V1H7v1h1v1z"/></g></svg>