<svg xmlns="http://www.w3.org/2000/svg" viewBox="0 0 15 14"><g fill="#9600bd"><path d="M13 1v1h-1v1H9V2H8v2H7V2H6v1H3V2H2V1H0v5h1v1h1v1h1v1H2v1H1v3h1v1h3v-1h1v-1h1v-1h1v1h1v1h1v1h3v-1h1v-3h-1V9h-1V8h1V7h1V6h1V1h-2z"/><path d="M5 1h1v1H5z"/><path d="M4 0h1v1H4zm5 1h1v1H9z"/><path d="M10 0h1v1h-1z"/></g><g fill="#f0f"><path d="M7 5h1v1H7z"/><path d="M13 2v1h-1v2h-1v1H8v5h1v1h1v1h3v-3h-1V9H9V8h3V7h1V6h1V2h-1zM5 6H4V5H3V3H2V2H1v4h1v1h1v1h3v1H3v1H2v3h3v-1h1v-1h1V6H5z"/></g><g fill="#ff8bff"><path d="M6 7H4V6H3V5H2V3H1v3h1v1h1v1h3v1h1V6H6v1zm7-4v2h-1v1h-1v1H9V6H8v3h1V8h3V7h1V6h1V3h-1z"/><path d="M9 11h1v1h3v-1h-1v-1h-1V9H9v2zM4 9v1H3v1H2v1h3v-1h1V9H4z"/></g><path d="M4 3v2h3V3H4zm4 0v2h3V3H8z" fill="#fff"/><path d="M4 3v1h1v1h1V4h1V3H4zm4 0v1h1v1h1V4h1V3H8z"/></svg>