<svg xmlns="http://www.w3.org/2000/svg" viewBox="0 0 9 14"><g fill="#9600bd"><path d="M5,1h1v1H5V1z"/><path d="M4 0h1v1H4V0zm4 5V4H7V2H6v1H3V2H2V1H0v5h1v1h1v1h1v1H2v1H1v3h1v1h3v-1h1v-1h1v-1h1V6h1V5H8z"/></g><g fill="#f0f"><path d="M7,5h1v1H7V5z"/><path d="M4,6V5H3V3H2V2H1v4h1v1h1v1h3v1H3v1H2v3h3v-1h1v-1h1V6H4z"/></g><g fill="#ff8bff"><path d="M6,6v1H4V6H3V5H2V3H1v3h1v1h1v1h3v1h1V6H6z"/><path d="M4,9v1H3v1H2v1h3v-1h1V9H4z"/></g><path d="M4,3v2h3V3H4z" fill="#fff"/><path d="M4,3v1h2v1h1V3H4z"/></svg>