<svg xmlns="http://www.w3.org/2000/svg" viewBox="0 0 15 14"><g fill="#9600bd"><path d="M5 1h1v1H5z"/><path d="M4 0h1v1H4zm9 1v1h-1v1H9V2H8v2H7V2H6v1H3V2H2V1H0v5h1v1h1v1h1v1H2v1H1v3h1v1h3v-1h1v-1h1v-1h1v1h1v1h1v1h3v-1h1v-3h-1V9h-1V8h1V7h1V6h1V1h-2z"/><path d="M9 1h1v1H9z"/><path d="M10 0h1v1h-1z"/></g><path d="M6 4H3V3H2V2H1v4h1v1h1v1h3v1H3v1H2v3h3v-1h1v-1h1V5H6V4zm7-2v1h-1v1H9v1H8v6h1v1h1v1h3v-3h-1V9H9V8h3V7h1V6h1V2h-1z" fill="#f0f"/><g fill="#ff8bff"><path d="M4 9v1H3v1H2v1h3v-1h1V9H4z"/><path d="M6 5H3V4H2V3H1v2h1v1h1v1h1v1h2v1h1V6H6V5zm7-2v1h-1v1H9v1H8v3h1V8h2V7h1V6h1V5h1V3h-1z"/><path d="M9 11h1v1h3v-1h-1v-1h-1V9H9v2z"/></g></svg>