<svg xmlns="http://www.w3.org/2000/svg" viewBox="0 0 52 38"><path d="M44 36v-3h-1V22h-1v-1h-2v-1H30v1h-2v1h-4v-1h-2v-1H12v1h-2v1H9v11H8v3H7v2h6v-2h5v2h5v-2h6v2h5v-2h5v2h6v-2h-1z" fill="#0b433d"/><path d="M8 3H7V2H6V1H5V0H1v1H0v4h1v1H0v2h1v1h1v1h1v1h1v1h1v1h1v1h1v1h1v1h1V4H8V3zm43-2V0h-4v1h-1v1h-1v1h-1v1h-1v12h1v-1h1v-1h1v-1h1v-1h1v-1h1v-1h1V9h1V8h1V6h-1V5h1V1h-1zm-1 30h-1v-1h-1v-1h-1v-1h-1v-1h-1v-1h-1v-1h-1v8h1v2h1v1h1v1h4v-1h1v-4h-1v-1zM8 26H7v1H6v1H5v1H4v1H3v1H2v1H1v4h1v1h4v-1h1v-1h1v-2h1v-8H8v1z" fill="gold"/><g fill="#376560"><path d="M22 24v-1h1v-1h-1v-1H12v1h-1v1h1v1h-1v1h1v1h-1v1h1v1h10v-1h1v-1h-1v-1h1v-1h-1z"/><path d="M23 25h1v1h-1zm-13 0h1v1h-1zm0-2h1v1h-1zm13 0h1v1h-1zm0 4h1v1h-1zm-13 0h1v1h-1z"/></g><path d="M25 25v1h2v-1h-2zm0 2v1h2v-1h-2zm0-4v1h2v-1h-2z" fill="#ff0"/><g fill="#376560"><path d="M40 24v-1h1v-1h-1v-1H30v1h-1v1h1v1h-1v1h1v1h-1v1h1v1h10v-1h1v-1h-1v-1h1v-1h-1z"/><path d="M28 25h1v1h-1zm13 0h1v1h-1zm0-2h1v1h-1zm-13 0h1v1h-1zm0 4h1v1h-1zm13 0h1v1h-1z"/></g><path d="M42 33v-4h-1v7h2v-3h-1zm-4-4v5h1v2h1v-7h-2zm-2 5h1v-5h-1v5zm-4-5v7h2v-2h1v-5h-3zm-4 0v5h1v2h2v-7h-3zm-3 0v5h2v-5h-2zm-4 0v7h2v-2h1v-5h-3zm-4 0v5h1v2h2v-7h-3zm-2 5h1v-5h-1v5zm-3-5v7h1v-2h1v-5h-2zm-2 4H9v3h2v-7h-1v4z" fill="#6ca958"/><g fill="#ffee94"><path d="M7 11H6v-1H5V9H4V8H3V7H2V6H1v2h1v1h1v1h1v1h1v1h1v1h1v1h1v1h1v-2H8v-1H7v-1z"/><path d="M8 4H7V3H6V2H5V1H1v4h1v1h1v1h1v1h1v1h1v1h1v1h1v1h1V5H8V4zm41 3v1h-1v1h-1v1h-1v1h-1v1h-1v1h-1v2h1v-1h1v-1h1v-1h1v-1h1v-1h1V9h1V8h1V6h-1v1h-1z"/><path d="M47 1v1h-1v1h-1v1h-1v1h-1v7h1v-1h1v-1h1V9h1V8h1V7h1V6h1V5h1V1h-4zm2 30h-1v-1h-1v-1h-1v-1h-1v-1h-1v-1h-1v7h1v1h1v1h1v1h4v-4h-1v-1zM8 27H7v1H6v1H5v1H4v1H3v1H2v4h4v-1h1v-1h1v-1h1v-7H8v1z"/></g><g fill="#fff7cd"><path d="M2 7h1v1H2z"/><path d="M3 8h1v1H3z"/><path d="M4 9h1v1H4z"/><path d="M5 10h1v1H5z"/><path d="M6 11h1v1H6z"/><path d="M7 12h1v1H7z"/><path d="M8 13h1v1H8zm0-7H7V5H6V4H5V3H4V2H2v2h1v1h1v1h1v1h1v1h1v1h1v1h1V7H8V6zm41 1h1v1h-1z"/><path d="M48 8h1v1h-1z"/><path d="M47 9h1v1h-1z"/><path d="M46 10h1v1h-1z"/><path d="M45 11h1v1h-1z"/><path d="M44 12h1v1h-1z"/><path d="M43 13h1v1h-1zm5-11v1h-1v1h-1v1h-1v1h-1v1h-1v3h1V9h1V8h1V7h1V6h1V5h1V4h1V2h-2zm0 30h-1v-1h-1v-1h-1v-1h-1v-1h-1v3h1v1h1v1h1v1h1v1h2v-2h-1v-1zM8 29H7v1H6v1H5v1H4v1H3v2h2v-1h1v-1h1v-1h1v-1h1v-3H8v1z"/></g><g fill="#fffffd"><path d="M3 3h1v1H3z"/><path d="M4 4h1v1H4z"/><path d="M5 5h1v1H5z"/><path d="M6 6h1v1H6z"/><path d="M7 7h1v1H7z"/><path d="M8 8h1v1H8zm40-5h1v1h-1z"/><path d="M47 4h1v1h-1z"/><path d="M46 5h1v1h-1z"/><path d="M45 6h1v1h-1z"/><path d="M44 7h1v1h-1z"/><path d="M43 8h1v1h-1zm4 25h1v1h-1z"/><path d="M46 32h1v1h-1z"/><path d="M45 31h1v1h-1z"/><path d="M44 30h1v1h-1z"/><path d="M43 29h1v1h-1zM4 33h1v1H4z"/><path d="M5 32h1v1H5z"/><path d="M6 31h1v1H6z"/><path d="M7 30h1v1H7z"/><path d="M8 29h1v1H8z"/></g></svg>