<svg xmlns="http://www.w3.org/2000/svg" viewBox="0 0 50 24"><path d="M46 19v-5h-1V9h-1V4h-1V2H7v2H6v5H5v5H4v5H2v5h46v-5h-2z" fill="#9600bd"/><g fill="#f0f"><path d="M39 15h-1v-5h-1V5h-1V3h-6v2h1v5h1v5h1v5h1v3h6v-3h-1v-5z"/><path d="M45 20v-5h-1v-5h-1V4h-1V3h-5v2h1v5h1v5h1v5h1v3h6v-3h-2zm-35-5h1v-5h1V5h1V3H8v1H7v6H6v5H5v5H3v3h6v-3h1v-5z"/><path d="M17 15h1v-5h1V5h1V3h-6v2h-1v5h-1v5h-1v5h-1v3h6v-3h1v-5z"/><path d="M32 15h-1v-5h-1V5h-1V3h-8v2h-1v5h-1v5h-1v5h-1v3h16v-3h-1v-5zm-10-5V9h1V8h4v1h1v1h1v8h-1v-1h-1v1h-1v-1h-2v1h-1v-1h-1v1h-1v-8h1z"/></g></svg>