<svg xmlns="http://www.w3.org/2000/svg" viewBox="0 0 30 27"><path d="M2,11v-1h2V9h1V8h1V7h1V6h1V5h17v2h1v5h1v5h1v5h2v5H14v-2h-4v2H6v-2H3v2H0V11H2z" fill="#333"/><path d="M2 12v-1h2v-1h1V9h1V8h1V7h1V6h4v2h-1v1h1v1h-1v1h1v1h-1v1h1v1h-1v1h1v1H6v-1H5v1H3v-1H2v1H0v-4h2zM1 23H0v2h3v-2h3v2h4v-2h2v-1h-2v-1h2v-1H1v3zm2-1v-1h3v1H3zM15 6v10h-2v-1h1v-1h-1v-1h1v-1h-1v-1h1v-1h-1V9h1V8h-1V6h2zm0 14v5h-1v-2h-1v-1h1v-1h-1v-1h2z" fill="gray"/><path d="M25,5v2h1v5h1v5h1v5h2v5H15V5H25z" fill="#9600bd"/><g fill="#f0f"><path d="M4 17h1v1H4v-1zm-2 0h1v1H2v-1z"/><path d="M0 17h1v1H0v-1zm5 1h1v1H5v-1z"/><path d="M3 18h1v1H3v-1zm-2 0h1v1H1v-1zm6 0h1v1H7v-1z"/><path d="M8 17h1v1H8v-1zm-2 0h1v1H6v-1zm4 0h1v1h-1v-1z"/><path d="M9 18h1v1H9v-1zm2 0h1v1h-1v-1zm1-1h1v1h-1v-1zm1 1h1v1h-1v-1z"/><path d="M15 17v-4h1v5h1v5h1v3h-3v-8h-1v-1h1zm9-9h-1V6h1v1h1v6h-1V8z"/><path d="M22,18h-1v-5h-1V8h-1V6h3v2h1v5h1v5h1v5h1v3h-3v-3h-1V18z"/><path d="M17 18v-5h-1V8h-1V6h3v2h1v5h1v5h1v5h1v3h-3v-3h-1v-5h-1zm8-5h1v5h-1v-5z"/><path d="M26,18h1v5h-1V18z"/><path d="M29 26h-2v-3h2v3z"/></g><path d="M1,23v2H0v-2H1z" fill="#bfbfbf"/></svg>