<svg xmlns="http://www.w3.org/2000/svg" viewBox="0 0 30 27"><path d="M28,11v-1h-2V9h-1V8h-1V7h-1V6h-1V5H5v2H4v5H3v5H2v5H0v5h16v-2h4v2h4v-2h3v2h3V11H28z" fill="#333"/><path d="M28 12v-1h-2v-1h-1V9h-1V8h-1V7h-1V6h-4v2h1v1h-1v1h1v1h-1v1h1v1h-1v1h1v1h-1v1h6v-1h1v1h2v-1h1v1h2v-4h-2zm1 8H18v1h2v1h-2v1h2v2h4v-2h3v2h3v-2h-1v-3zm-5 2v-1h3v1h-3zM15 6v10h2v-1h-1v-1h1v-1h-1v-1h1v-1h-1v-1h1V9h-1V8h1V6h-2zm0 14v5h1v-2h1v-1h-1v-1h1v-1h-2z" fill="gray"/><path d="M5,5v2H4v5H3v5H2v5H0v5h15V5H5z" fill="#9600bd"/><g fill="#f0f"><path d="M25 17h1v1h-1v-1zm2 0h1v1h-1v-1z"/><path d="M29 17h1v1h-1v-1zm-5 1h1v1h-1v-1z"/><path d="M26 18h1v1h-1v-1zm2 0h1v1h-1v-1zm-6 0h1v1h-1v-1z"/><path d="M21 17h1v1h-1v-1zm2 0h1v1h-1v-1zm-4 0h1v1h-1v-1z"/><path d="M20 18h1v1h-1v-1zm-2 0h1v1h-1v-1zm-2 0h1v1h-1v-1zm1-1h1v1h-1v-1z"/><path d="M15 17v-4h-1v5h-1v5h-1v3h3v-8h1v-1h-1zM6 8h1V6H6v1H5v6h1V8z"/><path d="M8,18h1v-5h1V8h1V6H8v2H7v5H6v5H5v5H4v3h3v-3h1V18z"/><path d="M13 18v-5h1V8h1V6h-3v2h-1v5h-1v5H9v5H8v3h3v-3h1v-5h1zm-8-5H4v5h1v-5z"/><path d="M4,18H3v5h1V18z"/><path d="M1 26h2v-3H1v3z"/></g><path d="M29,23v2h1v-2H29z" fill="#bfbfbf"/></svg>