<svg xmlns="http://www.w3.org/2000/svg" viewBox="0 0 50 24"><path d="M46 19v-5h-1v-4h-1V9h-2V2h-2v1h-1v1h-1v1h-1v1h-1v1h-2v1h-2v1H18V8h-2V7h-2V6h-1V5h-1V4h-1V3h-1V2H8v7H6v1H5v4H4v5H2v5h46v-5h-2z" fill="#333"/><path d="M33 22v2h5v-2h-5zm-11 0v2h6v-2h-6zm-10 0v2h5v-2h-5zm34-3v-5h-1v-4h-1V9h-2v15h6v-5h-2zM6 9v1H5v4H4v5H2v5h6V9H6z" fill="#9600bd"/><g fill="#f0f"><path d="M46 20v-1h-1v-4h-1v-4h-1V9h-1v7h1v1h1v3h1v3h2v-3h-1z"/><path d="M43 17h-1v6h2v-3h-1v-3zm-7 5v1h2v-1h-2zm-3 0v1h2v-1h-2zm-7 0v1h2v-1h-2zm-4 0v1h2v-1h-2zm-7 0v1h2v-1h-2zm-3 0v1h2v-1h-2zm-5-3v1H6v3h2v-6H7v2z"/><path d="M7 10v1H6v4H5v4H4v1H3v3h2v-3h1v-3h1v-1h1V9H7v1z"/></g><g fill="#bfbfbf"><path d="M18 19v1h3v-1h-3z"/><path d="M17 22h1v-2h-1v2zm4 0h1v-2h-1v2zm7 0h1v-2h-1v2zm-7-4v-1h-3v1h3z"/><path d="M29 19v1h3v-1h-3z"/><path d="M32 20v2h1v-2h-1zm0-2v-1h-3v1h3z"/></g><g fill="#f0f"><path d="M13 14h1v1h-1zm2 0h1v1h-1zm2 0h1v1h-1zm2 0h1v1h-1z"/><path d="M21 14h1v1h-1zm2 0v1h1v1h2v-1h1v-1h-4zm5 0h1v1h-1zm-16 1h1v1h-1z"/><path d="M14 15h1v1h-1zm2 0h1v1h-1zm2 0h1v1h-1zm2 0h1v1h-1zm2 0h1v1h-1zm5 0h1v1h-1zm2 0h1v1h-1zm-19 0h1v1h-1z"/><path d="M11 14h1v1h-1zm-2 0h1v1H9zm27 0h1v1h-1zm-2 0h1v1h-1z"/><path d="M32 14h1v1h-1zm-2 0h1v1h-1zm7 1h1v1h-1zm-2 0h1v1h-1z"/><path d="M33 15h1v1h-1zm-2 0h1v1h-1zm8 0h1v1h-1z"/><path d="M38 14h1v1h-1zm2 0h1v1h-1z"/></g><g fill="gray"><path d="M9 17v1h2v1H9v1h2v1H9v1h3v-2h5v-3H9zm7 2h-3v-1h3v1zm6-2v3h6v-3h-6zm5 2h-4v-1h4v1zm14-1v-1h-8v3h5v2h3v-1h-2v-1h2v-1h-2v-1h2zm-7 1v-1h3v1h-3zm-16-9V9h-2V8h-2V7h-1V6h-1V5h-1v1H9v1h2v1H9v1h2v1H9v1h2v1H9v1h3v-1h1v1h2v-1h1v1h2v-1h1v1h2v-1h1v1h2v-3h-6z"/><path d="M10 4V3H9v2h2V4h-1zm30-1v1h-1v1h2V3h-1z"/><path d="M38 6h-1v1h-1v1h-2v1h-2v1h-6v3h2v-1h1v1h2v-1h1v1h2v-1h1v1h2v-1h1v1h3v-1h-2v-1h2v-1h-2V9h2V8h-2V7h2V6h-2V5h-1v1z"/></g></svg>