<svg xmlns="http://www.w3.org/2000/svg" viewBox="0 0 46 32"><path d="M44 26v-4h-2v-4h-2v-6h2V8h-2v2h-2V8h2V2h2V0h-4v6h-4V4h-2V2h-4V0H18v2h-4v2h-2v2H8V0H4v2h2v6h2v2H6V8H4v4h2v6H4v4H2v4H0v2h6v4h34v-4h6v-2h-2z"/><path d="M38 0v6h-2v2h4V2h2V0h-4zM8 6V0H4v2h2v6h4V6H8z" fill="#51ffa8"/><path d="M42 26v-4h-2v-4h-2v-2h-2v-2h2v-2H8v2h2v2H8v2H6v4H4v4H2v1h42v-1h-2zm-6-16V8h-2V6h-2V4h-4V2H18v2h-4v2h-2v2h-2v2h26zM8 28v2h30v-2H8z" fill="#666"/><path d="M38 7v1h2V7h-2zm2-6v1h2V1h-2zM6 7v1h2V7H6zm0-6H4v1h2V1z" fill="#00d280"/><path d="M28 3V2H18v1h10zM10 14v1h26v-1H10zm-6 8v1h38v-1H4zm34-5v-1H8v1h30zm-28-4h28v-1H8v1h2zm30 6v-1H6v1h34zM34 7V6H12v1h22zm-2-2V4H14v1h18zm4 4V8H10v1h26zM8 28v1h30v-1H8z" fill="#464646"/></svg>