<svg xmlns="http://www.w3.org/2000/svg" viewBox="0 0 31 40"><path d="M5 0v2h10V0h4v2h-2v2h2v2h2v2h2v2h2V8h2v4h-2v6h2v4h2v4h2v2h-6v4H14v2h-2v2h-2v2H8v2H0V24h11v-2H0V0h5z"/><path d="M0 18v10h10v-1h1v-3h2v-2h-2v-3h-1v-1H0zm3 4h1v2H3v-2zm5 2H7v-2h1v2zm-3-2h1v2H5v-2zm5 2H9v-2h1v2zm-9-2h1v2H1v-2z" fill="#b4b4b4"/><g fill="#f5f5f5"><path d="M2 5h1v1H2z"/><path d="M1 4h1v1H1zm2 2h1v1H3z"/><path d="M0 3h1v1H0zm4 4h1v4H4V7zm-4 7h1v1H0zm2-2h1v1H2z"/><path d="M1 13h1v1H1zm2-2h1v1H3z"/></g><g fill="#666"><path d="M23 28v2h-7v-2h7zM13 12v-2h2V8h2V6h2v2h2v4h-8z"/><path d="M5 2v2h10v2h-2v2h-2v2H6V7H5V6H4V5H3V4H2V3H1V2h4zm16 10h2v2h-2v-2z"/><path d="M2 14h19v2h2v2h2v4h2v4h2v1H16V16H1v-1h1v-1z"/></g><g fill="#b4b4b4"><path d="M8 29v1H7v2H6v1H5v-3H2v2H1v1H0v-4h8z"/><path d="M9 31v2H8v-3h1v1z"/><path d="M7 33h1v1H7z"/><path d="M6 34h1v1H6z"/><path d="M1 36v-1h1v-2h1v-2h1v4h2v1H1z"/><path d="M0 36h1v1H0z"/></g><path d="M7 30v2H6v1H5v-3h2zm-5 0v2H1v1H0v-3h2zm1 1h1v4H2v-2h1v-2z" fill="#fff"/><path d="M3 24H2v-2h1v2zm-2-2v2H0v-2h1zm4 2H4v-2h1v2zm2 0H6v-2h1v2zm2 0H8v-2h1v2zm2 0h-1v-2h1v2z" fill="#51ffa8"/><g fill="#666"><path d="M11 19v1H0v-1h11zm0 2v1H0v-1h11zM0 25v-1h11v1H0z"/><path d="M13 22v2h-2v-2h2zm-2 4v1H0v-1h11z"/></g><path d="M6 11v-1h5V8h2V6h2V0h4v2h-2v6h-2v2h-2v2H5v-1h1z" fill="#51ffa8"/><path d="M15 7h2v1h-2V7zm-2 2h2v1h-2V9zm0 2v1H5v-1h8zm4-10h2v1h-2V1z" fill="#00d280"/><path d="M1 5v1h1v1h1v4H2v1H1v1H0V5h1z" fill="#51ffa8"/><path d="M3 9v2H2v1H1v1H0V9h3z" fill="#00d280"/><g fill="#d2d2d2"><path d="M4 9h1v2H4V9zm-4 5h1v1H0zm2-2h1v1H2z"/><path d="M1 13h1v1H1zm2-2h1v1H3z"/></g><path d="M23 28v1h-7v-1h7zm0-12v1h-7v-1h7zm2 2v1h-9v-1h9zm2 4v1H16v-1h11zM5 2v1H1V2h4zm16 11v-1h2v1h-2zm0 1v1H2v-1h19zm-4-7V6h2v1h-2zm0 2h-2V8h2v1zM5 5V4h10v1H5zm6 4v1H6V9h5zm8 0V8h2v1h-2zm-4 1v1h-2v-1h2z" fill="#464646"/></svg>