<svg xmlns="http://www.w3.org/2000/svg" viewBox="0 0 24 23"><path d="M22 7V6h-1V5h-1V4h-1V3h-5V2h-1V1H0v22h3v-2h3v2h4v-2h4v2h4v-2h3v2h3V7h-2z"/><path d="M11 8v1h13V8H11zm7 4h1v1h-1zm2 0h1v1h-1zm2 0h1v1h-1zm-11 2v5h13v-5H11zm8-9V4h-8v1h8zm2 2V6H11v1h10zm-8 6v-1h-2v1h2zm0-10V2h-2v1h2zm-2 7v1h13v-1H11zm5 2h1v1h-1zm-2 0h1v1h-1zM2 12h1v1H2zm-2 2v5h10v-5H0zM0 4v1h10V4H0zm0 2v1h10V6H0zm0 2v1h10V8H0zm0 2v1h10v-1H0zm8 2v1h2v-1H8zM0 2v1h10V2H0zm0 10h1v1H0zm4 0h1v1H4zm2 0h1v1H6z" fill="#51ffa8"/><path d="M11 12v1h2v-1h-2zm0 2v5h2v-5h-2zm7-2h1v1h-1zm2 0h1v1h-1zm2 0h1v1h-1zM11 4v1h2V4h-2zm0 2v1h2V6h-2zm0 2v1h2V8h-2zm0 2v1h2v-1h-2zm0-8v1h2V2h-2zm5 10h1v1h-1zm-2 0h1v1h-1zM2 12h1v1H2zm6 2v5h2v-5H8zM8 4v1h2V4H8zm0 2v1h2V6H8zm0 2v1h2V8H8zm0 2v1h2v-1H8zm0 2v1h2v-1H8zM8 2v1h2V2H8zM0 12h1v1H0zm4 0h1v1H4zm2 0h1v1H6z" fill="#c3ffe1"/><path d="M11 12h1v1h-1zm0 7h1v-5h-1v5zm0-15h1v1h-1zm0 2h1v1h-1zm0 2h1v1h-1zm0 2h1v1h-1zm0-8h1v1h-1zM9 12h1v1H9zm0 7h1v-5H9v5zM9 4h1v1H9zm0 2h1v1H9zm0 2h1v1H9zm0 2h1v1H9zm0-8h1v1H9z" fill="#fff"/></svg>