<svg xmlns="http://www.w3.org/2000/svg" viewBox="0 0 9 44"><path d="M2 31v1h1V0h1v1h1v1h1v30h1v-1h2v1H8v1H6v11H3V33H1v-1H0v-1h2z"/><path d="M4 0v1h1v1h1v30H3V0h1z" fill="#191919"/><path d="M4 33h1v1H4zm0 2h1v1H4zm0 2h1v1H4zm0 2h1v1H4zm0 2h1v1H4z" fill="#51ffa8"/><path d="M5 34h1v1H5zm-2 0h1v1H3zm2 2h1v1H5zm-2 0h1v1H3zm2 2h1v1H5zm-2 0h1v1H3zm2 2h1v1H5zm-2 0h1v1H3z" fill="#1b4d34"/><path d="M4 0v1h1v1h1v30H3v-1h1v-1H3v-1h1v-1H3v-1h1v-1H3v-1h1v-1H3v-1h1v-1H3v-1h1v-1H3v-1h1v-1H3v-1h1v-1H3v-1h1v-1H3v-1h1v-1H3v-1h1v-1H3V9h1V8H3V7h1V6H3V5h1V4H3V3h1V2H3V0h1z" fill="#323232"/><path d="M6 2v30H5V2h1z" fill="#505050"/><path d="M6 4v26H5V4h1z" fill="#646464"/><path d="M6 6v22H5V6h1z" fill="#7d7d7d"/></svg>