<?xml version="1.0" encoding="utf-8"?>
<!-- Generator: Adobe Illustrator 25.1.0, SVG Export Plug-In . SVG Version: 6.00 Build 0)  -->
<svg version="1.1" id="Layer_1" xmlns:v="https://vecta.io/nano"
	 xmlns="http://www.w3.org/2000/svg" xmlns:xlink="http://www.w3.org/1999/xlink" x="0px" y="0px" viewBox="0 0 64 64"
	 style="enable-background:new 0 0 64 64;" xml:space="preserve">
<style type="text/css">
	.st0{fill:#64438E;}
	.st1{fill:#EDD3FD;}
	.st2{fill:#FFFFFF;}
</style>
<g>
	<polygon class="st0" points="50,33 50,32 52,32 52,31 56,31 56,32 57,32 57,36 56,36 56,37 54,37 54,38 52,38 52,39 51,39 51,40 
		50,40 50,41 49,41 49,33 	"/>
	<polygon class="st1" points="50,34 50,33 52,33 52,32 56,32 56,36 54,36 54,37 52,37 52,38 51,38 51,39 50,39 50,40 49,40 49,34 	
		"/>
	<path class="st2" d="M52,32v1h-2v1h-1v5h1v-1h1v-1h1v-1h2v-1h2v-3H52z"/>
</g>
</svg>
