<svg xmlns="http://www.w3.org/2000/svg" viewBox="0 0 64 64"><g fill="#edd3fd"><path d="M44 42h1v2h-1v-2zm-6 2v2h4v-2h-4z"/><path d="M36 41v3h2v-3h-2zm6 2v2h2v-2h-2z"/><path d="M37,41h1v4h-1V41z"/></g><path d="M43 36v1h-1v1h-2v1h-2v1h-1v4h1v1h4v-1h2v-1h1v-1h-1v-5-1z" fill="#64438e"/><path d="M38,40v4h4v-1h2v-1h1v-6h-1v1h-1v1h-1v1h-2v1H38z" fill="#fff"/><g fill="#edd3fd"><path d="M20 44h-1v-2h1v2zm2 0v2h4v-2h-4z"/><path d="M26 41v3h2v-3h-2zm-6 2v2h2v-2h-2z"/><path d="M27 45h-1v-4h1v4z"/></g><path d="M21 36v1h1v1h2v1h2v1h1v4h-1v1h-4v-1h-2v-1h-1v-1h1v-5-1z" fill="#64438e"/><path d="M24,40v-1h-2v-1h-1v-1h-1v-1h-1v6h1v1h2v1h4v-4H24z" fill="#fff"/></svg>