<?xml version="1.0" encoding="utf-8"?>
<!-- Generator: Adobe Illustrator 25.1.0, SVG Export Plug-In . SVG Version: 6.00 Build 0)  -->
<svg version="1.1" id="Layer_1" xmlns:v="https://vecta.io/nano"
	 xmlns="http://www.w3.org/2000/svg" xmlns:xlink="http://www.w3.org/1999/xlink" x="0px" y="0px" viewBox="0 0 64 64"
	 style="enable-background:new 0 0 64 64;" xml:space="preserve">
<style type="text/css">
	.st0{fill:#64438E;}
	.st1{fill:#EDD3FD;}
	.st2{fill:#FFFFFF;}
</style>
<g>
	<polygon class="st0" points="56,38 56,37 54,37 54,36 52,36 52,35 51,35 51,34 50,34 50,33 49,33 49,41 50,41 50,42 52,42 52,43 
		56,43 56,42 57,42 57,38 	"/>
	<polygon class="st1" points="54,38 54,37 52,37 52,36 51,36 51,35 50,35 50,34 49,34 49,40 50,40 50,41 52,41 52,42 56,42 56,38 	
		"/>
	<path class="st2" d="M54,38v-1h-2v-1h-1v-1h-1v-1h-1v5h1v1h2v1h4v-3H54z"/>
</g>
</svg>
