<?xml version="1.0" encoding="utf-8"?>
<!-- Generator: Adobe Illustrator 25.1.0, SVG Export Plug-In . SVG Version: 6.00 Build 0)  -->
<svg version="1.1" id="Layer_1" xmlns:v="https://vecta.io/nano"
	 xmlns="http://www.w3.org/2000/svg" xmlns:xlink="http://www.w3.org/1999/xlink" x="0px" y="0px" viewBox="0 0 64 64"
	 style="enable-background:new 0 0 64 64;" xml:space="preserve">
<style type="text/css">
	.st0{fill:#64438E;}
	.st1{fill:#EDD3FD;}
	.st2{fill:#FFFFFF;}
</style>
<g>
	<polygon class="st0" points="14,33 14,32 12,32 12,31 8,31 8,32 7,32 7,36 8,36 8,37 10,37 10,38 12,38 12,39 13,39 13,40 14,40 
		14,41 15,41 15,33 	"/>
	<polygon class="st1" points="14,34 14,33 12,33 12,32 8,32 8,36 10,36 10,37 12,37 12,38 13,38 13,39 14,39 14,40 15,40 15,34 	"/>
	<path class="st2" d="M8,32v3h2v1h2v1h1v1h1v1h1v-5h-1v-1h-2v-1H8z"/>
</g>
</svg>
