<?xml version="1.0" encoding="utf-8"?>
<!-- Generator: Adobe Illustrator 25.1.0, SVG Export Plug-In . SVG Version: 6.00 Build 0)  -->
<svg version="1.1" id="Layer_1" xmlns:v="https://vecta.io/nano"
	 xmlns="http://www.w3.org/2000/svg" xmlns:xlink="http://www.w3.org/1999/xlink" x="0px" y="0px" viewBox="0 0 64 64"
	 style="enable-background:new 0 0 64 64;" xml:space="preserve">
<style type="text/css">
	.st0{fill:#64438E;}
	.st1{fill:#EDD3FD;}
	.st2{fill:#FFFFFF;}
</style>
<g>
	<polygon class="st0" points="8,38 8,37 10,37 10,36 12,36 12,35 13,35 13,34 14,34 14,33 15,33 15,41 14,41 14,42 12,42 12,43 
		8,43 8,42 7,42 7,38 	"/>
	<polygon class="st1" points="10,38 10,37 12,37 12,36 13,36 13,35 14,35 14,34 15,34 15,40 14,40 14,41 12,41 12,42 8,42 8,38 	"/>
	<path class="st2" d="M8,38v3h4v-1h2v-1h1v-5h-1v1h-1v1h-1v1h-2v1H8z"/>
</g>
</svg>
